<svg xmlns="http://www.w3.org/2000/svg" viewBox="0 0 16.11 135.88"><g id="레이어_2" data-name="레이어 2"><g id="Layer_1" data-name="Layer 1"><path d="M10.41,1.79V0h.9a4.06,4.06,0,0,1,2.74,1.05,4.62,4.62,0,0,1,1.61,3.66,4.81,4.81,0,0,1-1.07,3.13,4.09,4.09,0,0,1-3.28,1.59A5.37,5.37,0,0,1,7.84,8,19.09,19.09,0,0,1,4.92,4.65c-.39-.54-.68-.93-.88-1.16-.87-1.14-1.63-1.7-2.25-1.7V9.43H0V0H.89A5.16,5.16,0,0,1,4,1.16,21,21,0,0,1,6.86,4.22L8.09,5.7C9.27,7,10.34,7.64,11.31,7.64a2.35,2.35,0,0,0,1.47-.53,2.91,2.91,0,0,0,1.1-2.4A3.3,3.3,0,0,0,13.43,3a2.35,2.35,0,0,0-2.12-1.25Z"/><path d="M13.7,12.83a3.82,3.82,0,0,1,2,3.15A3.78,3.78,0,0,1,14,18.86a9.88,9.88,0,0,1-6.17,1.79,10.23,10.23,0,0,1-5.9-1.59A3.78,3.78,0,0,1,0,16a3.86,3.86,0,0,1,1.65-2.93,9.69,9.69,0,0,1,6.19-1.83A10,10,0,0,1,13.7,12.83ZM4,13.65C2.54,14.23,1.79,15,1.79,16a2.16,2.16,0,0,0,1.29,1.81,9.42,9.42,0,0,0,4.76,1.07,10.66,10.66,0,0,0,3.82-.65c1.48-.57,2.22-1.31,2.22-2.23a2.34,2.34,0,0,0-1.3-1.88A9.14,9.14,0,0,0,7.84,13,10.67,10.67,0,0,0,4,13.65Z"/><path d="M10.41,24.22V22.43h.9a4.06,4.06,0,0,1,2.74,1.05,4.62,4.62,0,0,1,1.61,3.67,4.85,4.85,0,0,1-1.07,3.13,4.11,4.11,0,0,1-3.28,1.58,5.41,5.41,0,0,1-3.47-1.38,19.62,19.62,0,0,1-2.92-3.4c-.39-.53-.68-.92-.88-1.16-.87-1.13-1.63-1.7-2.25-1.7v7.64H0V22.43H.89A5.12,5.12,0,0,1,4,23.6a21,21,0,0,1,2.86,3.06q.83,1,1.23,1.47c1.18,1.3,2.25,1.95,3.22,1.95a2.3,2.3,0,0,0,1.47-.54,2.89,2.89,0,0,0,1.1-2.39,3.31,3.31,0,0,0-.45-1.68,2.37,2.37,0,0,0-2.12-1.25Z"/><path d="M7,34.7V32.78l1.23.49L15.08,36l.56.22v1.5H0V36H10.12l-2.61-1Z"/><path d="M3.24,62a6.27,6.27,0,0,1-1.52-1.3A6.72,6.72,0,0,1,0,56.29a6.2,6.2,0,0,1,2.12-4.63A7.81,7.81,0,0,1,7.62,49.6a7.81,7.81,0,0,1,5.5,2.08,6,6,0,0,1,2.1,4.61,6.65,6.65,0,0,1-.74,3A6,6,0,0,1,11.93,62l-.8-1.61a3.63,3.63,0,0,0,1-.82,4.84,4.84,0,0,0,1.25-3.26A4.48,4.48,0,0,0,11.93,53a6.13,6.13,0,0,0-4.31-1.61,6.33,6.33,0,0,0-3.91,1.28,4.37,4.37,0,0,0-1.9,3.62,4.8,4.8,0,0,0,.38,1.83,4.57,4.57,0,0,0,1.94,2.32Z"/><path d="M9,65.22A4.61,4.61,0,0,1,9.52,72h1.23v1.79H0V72H1.25A4.73,4.73,0,0,1,0,68.82a4.49,4.49,0,0,1,1.3-3.19,5.27,5.27,0,0,1,4.07-1.72A5.41,5.41,0,0,1,9,65.22ZM3.22,66.34a2.86,2.86,0,0,0-1.41,2.48,2.79,2.79,0,0,0,.72,1.88A3.61,3.61,0,0,0,5.39,72a3.86,3.86,0,0,0,2.16-.65,2.87,2.87,0,0,0,.7-4.36,3.64,3.64,0,0,0-2.86-1.25A3.87,3.87,0,0,0,3.22,66.34Z"/><path d="M16.11,77.31V79.1H0V77.31H16.11Z"/><path d="M2.12,89.8A4.93,4.93,0,0,1,0,85.65a4.6,4.6,0,0,1,1.3-3.22,5.33,5.33,0,0,1,4.07-1.7A5.47,5.47,0,0,1,9,82a4.59,4.59,0,0,1,1.75,3.65,4.51,4.51,0,0,1-1.3,3.19,5.27,5.27,0,0,1-4.06,1.72h-.9v-8a3.83,3.83,0,0,0-1.25.53,2.88,2.88,0,0,0-1.43,2.51A3.28,3.28,0,0,0,3.2,88.37Zm4.16-1a2.36,2.36,0,0,0,1.41-.6A3.16,3.16,0,0,0,9,85.65a2.78,2.78,0,0,0-.33-1.32,3.32,3.32,0,0,0-2.35-1.72Z"/><path d="M0,101.76V100l.89,0,5.23,0a3.11,3.11,0,0,0,1.61-.43,2.27,2.27,0,0,0,1.23-2,2.19,2.19,0,0,0-.49-1.39A2.85,2.85,0,0,0,6.12,95H0V93.24H10.75V95H9.9a4.14,4.14,0,0,1,.85,2.46,3.93,3.93,0,0,1-1,2.66,4.5,4.5,0,0,1-3.6,1.58H.92Z"/><path d="M9,105.73a4.61,4.61,0,0,1,.49,6.73h6.59v1.79H0v-1.79H1.25A4.73,4.73,0,0,1,0,109.33a4.49,4.49,0,0,1,1.3-3.19,5.27,5.27,0,0,1,4.07-1.72A5.41,5.41,0,0,1,9,105.73Zm-5.81,1.12a2.86,2.86,0,0,0-1.41,2.48,2.79,2.79,0,0,0,.72,1.88,3.61,3.61,0,0,0,2.86,1.25,3.86,3.86,0,0,0,2.16-.65,2.87,2.87,0,0,0,.7-4.36,3.64,3.64,0,0,0-2.86-1.25A3.87,3.87,0,0,0,3.22,106.85Z"/><path d="M9,118.25a4.52,4.52,0,0,1,1.72,3.59A4.57,4.57,0,0,1,9.52,125h1.23v1.79H0V125H1.25A4.73,4.73,0,0,1,0,121.84a4.51,4.51,0,0,1,1.3-3.19,5.27,5.27,0,0,1,4.07-1.72A5.42,5.42,0,0,1,9,118.25Zm-5.81,1.11a2.87,2.87,0,0,0-1.41,2.48,2.79,2.79,0,0,0,.72,1.88A3.61,3.61,0,0,0,5.39,125a3.78,3.78,0,0,0,2.16-.65A2.85,2.85,0,0,0,9,121.84,2.8,2.8,0,0,0,8.25,120a3.61,3.61,0,0,0-2.86-1.25A3.86,3.86,0,0,0,3.22,119.36Z"/><path d="M10.75,135v.9H9V135a2.74,2.74,0,0,0-.33-1.34,3.29,3.29,0,0,0-3.11-1.52H0v-1.78H10.75v1.78H9.81A4.69,4.69,0,0,1,10.75,135Z"/></g></g></svg>