<svg xmlns="http://www.w3.org/2000/svg" viewBox="0 0 28.67 12.62"><g id="레이어_2" data-name="레이어 2"><g id="Layer_1" data-name="Layer 1"><path d="M6.91,0V.72H2.23L1.39,4a4,4,0,0,1,2.37-.85,3.59,3.59,0,0,1,2.6,1.14A4.94,4.94,0,0,1,7.72,7.87a5,5,0,0,1-1.1,3.27,3.52,3.52,0,0,1-2.86,1.48,3.7,3.7,0,0,1-2.32-.81A3.48,3.48,0,0,1,.05,9.54l0-.41H.72l.06.3a2.71,2.71,0,0,0,.59,1.32A3,3,0,0,0,3.76,11.9,2.83,2.83,0,0,0,5.83,11,4.27,4.27,0,0,0,7,7.87a4.53,4.53,0,0,0-.77-2.61A2.91,2.91,0,0,0,3.76,3.87a3.18,3.18,0,0,0-1.46.38A2.61,2.61,0,0,0,1,5.71L.88,6H.13l.14-.47,0,0L1.62.27,1.69,0H6.91Z"/><path d="M10.39,1.67A3.16,3.16,0,0,1,13,0a3.05,3.05,0,0,1,2.39,1.44A8.1,8.1,0,0,1,16.76,6.3a8.24,8.24,0,0,1-1.23,4.64A3,3,0,0,1,13,12.62a3.11,3.11,0,0,1-2.45-1.46A7.93,7.93,0,0,1,9.16,6.3,8.26,8.26,0,0,1,10.39,1.67Zm.34,8.46c.6,1.18,1.35,1.77,2.27,1.77a2.42,2.42,0,0,0,1.94-1.28A7.82,7.82,0,0,0,16,6.3a8.41,8.41,0,0,0-.83-3.83C14.61,1.3,13.87.72,13,.72A2.48,2.48,0,0,0,11,2,7.5,7.5,0,0,0,9.88,6.3,8.16,8.16,0,0,0,10.73,10.13Z"/><path d="M27.74.36h.93l-.46.6L18.85,12.47l-.11.13H17.8l.47-.59L27.63.49ZM22,.56a2.42,2.42,0,0,1,1.53,2.61A3.75,3.75,0,0,1,23.17,5,2.35,2.35,0,0,1,21,6.25,2.9,2.9,0,0,1,19.73,6a2.74,2.74,0,0,1-1.53-2.8,3,3,0,0,1,.43-1.66A2.48,2.48,0,0,1,21,.36,3.4,3.4,0,0,1,22,.56Zm-1.94.66a1.88,1.88,0,0,0-1.17,2,3.09,3.09,0,0,0,.23,1.22A1.85,1.85,0,0,0,21,5.53a1.93,1.93,0,0,0,.79-.17,2.08,2.08,0,0,0,1.1-2.19,2.45,2.45,0,0,0-.16-1A1.69,1.69,0,0,0,21,1.08,2.72,2.72,0,0,0,20.09,1.22Zm3.2,6.7a2.33,2.33,0,0,1,2.22-1.26,3,3,0,0,1,1.09.22,2.77,2.77,0,0,1,1.57,2.88,3.25,3.25,0,0,1-.31,1.47,2.39,2.39,0,0,1-2.34,1.37,3.73,3.73,0,0,1-.84-.09c-1.17-.3-1.77-1.19-1.8-2.68A4.14,4.14,0,0,1,23.29,7.92Zm.43,2.68a1.68,1.68,0,0,0,1.8,1.28,1.94,1.94,0,0,0,.71-.13,1.85,1.85,0,0,0,1.22-2,3.2,3.2,0,0,0-.2-1.16,1.75,1.75,0,0,0-1.74-1.22,2,2,0,0,0-.87.2,2.28,2.28,0,0,0-1,2.25A3.18,3.18,0,0,0,23.72,10.6Z"/></g></g></svg>