<svg xmlns="http://www.w3.org/2000/svg" viewBox="0 0 28.55 12.62"><g id="레이어_2" data-name="레이어 2"><g id="Layer_1" data-name="Layer 1"><path d="M.22,7.6a3.73,3.73,0,0,1,2-2.18,2.4,2.4,0,0,1-.52-.33A2.62,2.62,0,0,1,.49,2.92a2.66,2.66,0,0,1,.68-1.79A3.35,3.35,0,0,1,3.82,0a3.44,3.44,0,0,1,2.1.67A2.68,2.68,0,0,1,7.11,2.92,2.61,2.61,0,0,1,7,3.58a2.85,2.85,0,0,1-1.6,1.84,4,4,0,0,1,.9.59A3.7,3.7,0,0,1,7.6,8.86a3.59,3.59,0,0,1-.92,2.43A3.66,3.66,0,0,1,3.8,12.6a3.75,3.75,0,0,1-2.5-.92A3.54,3.54,0,0,1,0,8.86,3.56,3.56,0,0,1,.22,7.6Zm3.6-1.8H3.56a2.93,2.93,0,0,0-1.7.68A2.9,2.9,0,0,0,.72,8.86a3,3,0,0,0,.65,1.87A2.94,2.94,0,0,0,3.8,11.88a3,3,0,0,0,1.92-.67A2.83,2.83,0,0,0,6.88,8.86a3.07,3.07,0,0,0-.56-1.77A2.94,2.94,0,0,0,4.07,5.8ZM1.58,4a2.52,2.52,0,0,0,2,1h.51a2.94,2.94,0,0,0,1.28-.42,2,2,0,0,0,1-1.72A1.9,1.9,0,0,0,5.9,1.64,2.58,2.58,0,0,0,3.82.72a2.87,2.87,0,0,0-1.55.43A2,2,0,0,0,1.21,2.92,1.77,1.77,0,0,0,1.58,4Z"/><path d="M10.26,1.67A3.17,3.17,0,0,1,12.87,0a3.05,3.05,0,0,1,2.4,1.44A8.1,8.1,0,0,1,16.63,6.3a8.32,8.32,0,0,1-1.22,4.64,3.06,3.06,0,0,1-2.54,1.68,3.12,3.12,0,0,1-2.45-1.46A8,8,0,0,1,9,6.3,8.33,8.33,0,0,1,10.26,1.67Zm.34,8.46c.6,1.18,1.36,1.77,2.27,1.77a2.42,2.42,0,0,0,1.94-1.28,7.74,7.74,0,0,0,1.1-4.32,8.28,8.28,0,0,0-.83-3.83C14.48,1.3,13.75.72,12.87.72a2.51,2.51,0,0,0-2,1.3A7.58,7.58,0,0,0,9.76,6.3,8.28,8.28,0,0,0,10.6,10.13Z"/><path d="M27.61.36h.94l-.47.6L18.72,12.47l-.11.13h-.93l.46-.59L27.51.49Zm-5.7.2a2.44,2.44,0,0,1,1.53,2.61A3.64,3.64,0,0,1,23,5a2.34,2.34,0,0,1-2.21,1.25A2.91,2.91,0,0,1,19.6,6a2.74,2.74,0,0,1-1.53-2.8,3,3,0,0,1,.44-1.66A2.47,2.47,0,0,1,20.83.36,3.5,3.5,0,0,1,21.91.56ZM20,1.22a1.88,1.88,0,0,0-1.17,2A2.92,2.92,0,0,0,19,4.41a1.84,1.84,0,0,0,1.8,1.12,2,2,0,0,0,.79-.17,2.09,2.09,0,0,0,1.1-2.19,2.3,2.3,0,0,0-.17-1,1.68,1.68,0,0,0-1.72-1.1A2.83,2.83,0,0,0,20,1.22Zm3.21,6.7a2.31,2.31,0,0,1,2.21-1.26,3,3,0,0,1,1.1.22A2.78,2.78,0,0,1,28,9.76a3.38,3.38,0,0,1-.3,1.47A2.39,2.39,0,0,1,25.4,12.6a3.89,3.89,0,0,1-.85-.09c-1.16-.3-1.76-1.19-1.8-2.68A4,4,0,0,1,23.17,7.92Zm.43,2.68a1.67,1.67,0,0,0,1.8,1.28,1.89,1.89,0,0,0,.7-.13,1.84,1.84,0,0,0,1.22-2,3.21,3.21,0,0,0-.19-1.16,1.77,1.77,0,0,0-1.75-1.22,1.91,1.91,0,0,0-.86.2,2.29,2.29,0,0,0-1.05,2.25A3.18,3.18,0,0,0,23.6,10.6Z"/></g></g></svg>