<svg xmlns="http://www.w3.org/2000/svg" viewBox="0 0 28.87 12.62"><g id="레이어_2" data-name="레이어 2"><g id="Layer_1" data-name="Layer 1"><path d="M.22,7.6a3.73,3.73,0,0,1,2-2.18,2.4,2.4,0,0,1-.52-.33A2.62,2.62,0,0,1,.49,2.92a2.66,2.66,0,0,1,.68-1.79A3.35,3.35,0,0,1,3.82,0a3.44,3.44,0,0,1,2.1.67A2.68,2.68,0,0,1,7.11,2.92,2.61,2.61,0,0,1,7,3.58a2.85,2.85,0,0,1-1.6,1.84,4,4,0,0,1,.9.59A3.7,3.7,0,0,1,7.6,8.86a3.59,3.59,0,0,1-.92,2.43A3.66,3.66,0,0,1,3.8,12.6a3.75,3.75,0,0,1-2.5-.92A3.54,3.54,0,0,1,0,8.86,3.56,3.56,0,0,1,.22,7.6Zm3.6-1.8H3.56a3,3,0,0,0-1.71.68A2.92,2.92,0,0,0,.72,8.86a3,3,0,0,0,.65,1.87A2.94,2.94,0,0,0,3.8,11.88a3,3,0,0,0,1.92-.67A2.83,2.83,0,0,0,6.88,8.86a3.07,3.07,0,0,0-.56-1.77A2.94,2.94,0,0,0,4.07,5.8ZM1.58,4a2.52,2.52,0,0,0,2,1h.51a3,3,0,0,0,1.28-.42,2,2,0,0,0,1-1.72A1.9,1.9,0,0,0,5.9,1.64,2.58,2.58,0,0,0,3.82.72a2.87,2.87,0,0,0-1.55.43A2,2,0,0,0,1.21,2.92,1.77,1.77,0,0,0,1.58,4Z"/><path d="M16.15,0V.72H11.47L10.62,4A4,4,0,0,1,13,3.15a3.56,3.56,0,0,1,2.59,1.14A5,5,0,0,1,17,7.87a5.07,5.07,0,0,1-1.1,3.27A3.53,3.53,0,0,1,13,12.62a3.71,3.71,0,0,1-2.33-.81A3.42,3.42,0,0,1,9.29,9.54l-.06-.41H10l.06.3a2.8,2.8,0,0,0,.59,1.32A3,3,0,0,0,13,11.9,2.83,2.83,0,0,0,15.07,11a4.27,4.27,0,0,0,1.17-3.11,4.47,4.47,0,0,0-.78-2.61A2.9,2.9,0,0,0,13,3.87a3.12,3.12,0,0,0-1.46.38,2.6,2.6,0,0,0-1.35,1.46L10.12,6H9.36l.14-.47a.06.06,0,0,0,0,0L10.85.27,10.93,0h5.22Z"/><path d="M27.94.36h.93L28.4,1,19,12.47l-.1.13H18l.47-.59L27.83.49Zm-5.71.2a2.44,2.44,0,0,1,1.53,2.61A3.64,3.64,0,0,1,23.36,5a2.33,2.33,0,0,1-2.21,1.25A2.9,2.9,0,0,1,19.93,6a2.74,2.74,0,0,1-1.53-2.8,3,3,0,0,1,.43-1.66A2.48,2.48,0,0,1,21.15.36,3.5,3.5,0,0,1,22.23.56Zm-1.94.66a1.88,1.88,0,0,0-1.17,2,2.92,2.92,0,0,0,.23,1.22,1.85,1.85,0,0,0,1.8,1.12,1.93,1.93,0,0,0,.79-.17A2.09,2.09,0,0,0,23,3.17a2.45,2.45,0,0,0-.16-1,1.69,1.69,0,0,0-1.73-1.1A2.72,2.72,0,0,0,20.29,1.22Zm3.2,6.7A2.33,2.33,0,0,1,25.7,6.66a3,3,0,0,1,1.1.22,2.77,2.77,0,0,1,1.57,2.88,3.25,3.25,0,0,1-.31,1.47,2.39,2.39,0,0,1-2.34,1.37,3.73,3.73,0,0,1-.84-.09c-1.17-.3-1.77-1.19-1.8-2.68A4,4,0,0,1,23.49,7.92Zm.43,2.68a1.68,1.68,0,0,0,1.8,1.28,1.94,1.94,0,0,0,1.93-2.12,3.2,3.2,0,0,0-.2-1.16A1.76,1.76,0,0,0,25.7,7.38a1.91,1.91,0,0,0-.86.2,2.27,2.27,0,0,0-1,2.25A3.18,3.18,0,0,0,23.92,10.6Z"/></g></g></svg>