<svg xmlns="http://www.w3.org/2000/svg" viewBox="0 0 28.55 12.62"><g id="레이어_2" data-name="레이어 2"><g id="Layer_1" data-name="Layer 1"><path d="M7.6,4.16v.07a4.75,4.75,0,0,1-.26,1.4A36.09,36.09,0,0,1,4.1,12.44L4,12.62H3.19l.3-.54C4.55,10.22,5.33,8.72,5.83,7.6a3.55,3.55,0,0,1-2,.64,3.63,3.63,0,0,1-2.47-1A4,4,0,0,1,0,4.14,4.22,4.22,0,0,1,1,1.37,3.54,3.54,0,0,1,3.8,0,3.59,3.59,0,0,1,6.07.81a4.08,4.08,0,0,1,1.51,3h0v.38ZM6.19,2A2.83,2.83,0,0,0,3.8.72a2.81,2.81,0,0,0-1.93.76A3.38,3.38,0,0,0,.72,4.14,3.5,3.5,0,0,0,1.4,6.25,2.9,2.9,0,0,0,3.82,7.52,3.15,3.15,0,0,0,5.11,7.2,3.21,3.21,0,0,0,6.75,5.13a6.47,6.47,0,0,0,.13-.88V4.14A3.83,3.83,0,0,0,6.19,2Z"/><path d="M10.26,1.67A3.16,3.16,0,0,1,12.87,0a3,3,0,0,1,2.39,1.44A8,8,0,0,1,16.63,6.3a8.32,8.32,0,0,1-1.22,4.64,3.06,3.06,0,0,1-2.54,1.68,3.12,3.12,0,0,1-2.45-1.46A8,8,0,0,1,9,6.3,8.25,8.25,0,0,1,10.26,1.67Zm.34,8.46c.6,1.18,1.36,1.77,2.27,1.77a2.42,2.42,0,0,0,1.94-1.28,7.74,7.74,0,0,0,1.1-4.32,8.28,8.28,0,0,0-.83-3.83C14.48,1.3,13.75.72,12.87.72a2.47,2.47,0,0,0-2,1.3A7.58,7.58,0,0,0,9.76,6.3,8.28,8.28,0,0,0,10.6,10.13Z"/><path d="M27.61.36h.94L28.08,1,18.72,12.47l-.11.13h-.93l.46-.59L27.5.49Zm-5.7.2a2.43,2.43,0,0,1,1.53,2.61A3.64,3.64,0,0,1,23,5a2.34,2.34,0,0,1-2.21,1.25A2.91,2.91,0,0,1,19.6,6a2.74,2.74,0,0,1-1.53-2.8,3.13,3.13,0,0,1,.43-1.66A2.49,2.49,0,0,1,20.83.36,3.5,3.5,0,0,1,21.91.56ZM20,1.22a1.88,1.88,0,0,0-1.17,2A2.92,2.92,0,0,0,19,4.41a1.83,1.83,0,0,0,1.8,1.12,2,2,0,0,0,.79-.17,2.1,2.1,0,0,0,1.1-2.19,2.46,2.46,0,0,0-.17-1,1.68,1.68,0,0,0-1.72-1.1A2.83,2.83,0,0,0,20,1.22Zm3.21,6.7a2.31,2.31,0,0,1,2.21-1.26,3,3,0,0,1,1.1.22A2.78,2.78,0,0,1,28,9.76a3.38,3.38,0,0,1-.3,1.47A2.39,2.39,0,0,1,25.4,12.6a3.89,3.89,0,0,1-.85-.09c-1.16-.3-1.76-1.19-1.8-2.68A4,4,0,0,1,23.17,7.92Zm.43,2.68a1.67,1.67,0,0,0,1.8,1.28,1.89,1.89,0,0,0,.7-.13,1.84,1.84,0,0,0,1.22-2,3.21,3.21,0,0,0-.19-1.16,1.77,1.77,0,0,0-1.75-1.22,1.91,1.91,0,0,0-.86.2,2.29,2.29,0,0,0-1.05,2.25A3.18,3.18,0,0,0,23.6,10.6Z"/></g></g></svg>