<svg xmlns="http://www.w3.org/2000/svg" viewBox="0 0 28.87 12.62"><g id="레이어_2" data-name="레이어 2"><g id="Layer_1" data-name="Layer 1"><path d="M7.6,4.16v.07a4.75,4.75,0,0,1-.26,1.4A36.09,36.09,0,0,1,4.1,12.44L4,12.62H3.19l.3-.54C4.55,10.22,5.33,8.72,5.83,7.6a3.55,3.55,0,0,1-2,.64,3.63,3.63,0,0,1-2.47-1A4,4,0,0,1,0,4.14,4.22,4.22,0,0,1,1,1.37,3.54,3.54,0,0,1,3.8,0,3.59,3.59,0,0,1,6.07.81a4.08,4.08,0,0,1,1.51,3h0v.38ZM6.19,2A2.83,2.83,0,0,0,3.8.72a2.81,2.81,0,0,0-1.93.76A3.38,3.38,0,0,0,.72,4.14,3.5,3.5,0,0,0,1.4,6.25,2.9,2.9,0,0,0,3.82,7.52,3.15,3.15,0,0,0,5.11,7.2,3.21,3.21,0,0,0,6.75,5.13a6.47,6.47,0,0,0,.13-.88V4.14A3.83,3.83,0,0,0,6.19,2Z"/><path d="M16.15,0V.72H11.47L10.62,4A4,4,0,0,1,13,3.15a3.56,3.56,0,0,1,2.59,1.14A5,5,0,0,1,17,7.87a5.07,5.07,0,0,1-1.1,3.27A3.53,3.53,0,0,1,13,12.62a3.71,3.71,0,0,1-2.33-.81A3.42,3.42,0,0,1,9.29,9.54l-.06-.41H10l.06.3a2.8,2.8,0,0,0,.59,1.32A3,3,0,0,0,13,11.9,2.83,2.83,0,0,0,15.07,11a4.27,4.27,0,0,0,1.17-3.11,4.47,4.47,0,0,0-.78-2.61A2.9,2.9,0,0,0,13,3.87a3.12,3.12,0,0,0-1.46.38,2.6,2.6,0,0,0-1.35,1.46L10.12,6H9.36l.14-.47a.06.06,0,0,0,0,0L10.85.27,10.93,0h5.22Z"/><path d="M27.94.36h.93L28.4,1,19,12.47l-.1.13H18l.47-.59L27.83.49Zm-5.71.2a2.44,2.44,0,0,1,1.53,2.61A3.64,3.64,0,0,1,23.36,5a2.33,2.33,0,0,1-2.21,1.25A2.9,2.9,0,0,1,19.93,6a2.74,2.74,0,0,1-1.53-2.8,3,3,0,0,1,.43-1.66A2.48,2.48,0,0,1,21.15.36,3.5,3.5,0,0,1,22.23.56Zm-1.94.66a1.88,1.88,0,0,0-1.17,2,2.92,2.92,0,0,0,.23,1.22,1.85,1.85,0,0,0,1.8,1.12,1.93,1.93,0,0,0,.79-.17A2.09,2.09,0,0,0,23,3.17a2.45,2.45,0,0,0-.16-1,1.69,1.69,0,0,0-1.73-1.1A2.72,2.72,0,0,0,20.29,1.22Zm3.2,6.7A2.33,2.33,0,0,1,25.7,6.66a3,3,0,0,1,1.1.22,2.77,2.77,0,0,1,1.57,2.88,3.25,3.25,0,0,1-.31,1.47,2.39,2.39,0,0,1-2.34,1.37,3.73,3.73,0,0,1-.84-.09c-1.17-.3-1.77-1.19-1.8-2.68A4,4,0,0,1,23.49,7.92Zm.43,2.68a1.68,1.68,0,0,0,1.8,1.28,1.94,1.94,0,0,0,1.93-2.12,3.2,3.2,0,0,0-.2-1.16A1.76,1.76,0,0,0,25.7,7.38a1.91,1.91,0,0,0-.86.2,2.27,2.27,0,0,0-1,2.25A3.18,3.18,0,0,0,23.92,10.6Z"/></g></g></svg>