<svg xmlns="http://www.w3.org/2000/svg" viewBox="0 0 30.99 14.17"><defs><style>.cls-1{fill:#fff;}</style></defs><g id="레이어_2" data-name="레이어 2"><g id="레이어_2-2" data-name="레이어 2"><rect width="30.99" height="14.17"/><path class="cls-1" d="M1.49,10.85h-1l.28-.67L3.85,3,4,2.69h.62L4.74,3l3.12,7.2.29.67h-1L7,10.57,4.3,4.39,1.62,10.57Z"/><path class="cls-1" d="M9.1,2.69V2.21h1V5.75a2.52,2.52,0,0,1,1.68-.66,2.43,2.43,0,0,1,1.71.7A2.84,2.84,0,0,1,14.38,8a2.92,2.92,0,0,1-.71,2,2.41,2.41,0,0,1-1.93.92,2.44,2.44,0,0,1-1.68-.66v.66h-1V2.69Zm1.29,6.45a1.56,1.56,0,0,0,1.35.75,1.5,1.5,0,0,0,1-.38A2,2,0,0,0,13.42,8a2.08,2.08,0,0,0-.35-1.16,1.55,1.55,0,0,0-1.33-.76,1.51,1.51,0,0,0-1,.39A2,2,0,0,0,10.06,8,2.11,2.11,0,0,0,10.39,9.14Z"/><path class="cls-1" d="M16.05,6a2.45,2.45,0,0,1,3.64-.23A2.84,2.84,0,0,1,20.62,8a2.92,2.92,0,0,1-.71,2,2.41,2.41,0,0,1-1.93.92,2.46,2.46,0,0,1-1.72-.69A2.87,2.87,0,0,1,15.34,8,2.86,2.86,0,0,1,16.05,6Zm.6,3.12A1.53,1.53,0,0,0,18,9.89a1.5,1.5,0,0,0,1-.38A2,2,0,0,0,19.66,8a2.08,2.08,0,0,0-.35-1.16A1.55,1.55,0,0,0,18,6.05a1.49,1.49,0,0,0-1,.39A1.92,1.92,0,0,0,16.3,8,2,2,0,0,0,16.65,9.14Z"/><path class="cls-1" d="M21.83,5.11h1V8.66a1.08,1.08,0,0,0,.23.68,1.33,1.33,0,0,0,1.13.55,1.41,1.41,0,0,0,.75-.2,1.15,1.15,0,0,0,.61-1V5.11h1V8.66A2.1,2.1,0,0,1,26,10a2.24,2.24,0,0,1-1.82.82,2.39,2.39,0,0,1-1.5-.51,2.06,2.06,0,0,1-.82-1.68V5.11Z"/><path class="cls-1" d="M29.18,9.16c0,.47.3.72.88.73h.48v1h-.48a2.59,2.59,0,0,1-.63-.07,1.47,1.47,0,0,1-1.21-1.61h0V6.05h-.8v-1h.8V3.83l0-.46h1V5.09h1.34v1H29.2Z"/></g></g></svg>