<svg xmlns="http://www.w3.org/2000/svg" viewBox="0 0 60.1 14.17"><defs><style>.cls-1{fill:#fff;}</style></defs><g id="레이어_2" data-name="레이어 2"><g id="레이어_2-2" data-name="레이어 2"><rect width="60.1" height="14.17"/><path class="cls-1" d="M15.93,10.85h-1l.29-.67L18.29,3l.13-.29h.63l.13.29,3.12,7.2.29.67H21.54l-.13-.28L18.73,4.39l-2.67,6.18Z"/><path class="cls-1" d="M23.53,2.69V2.21h1V5.75a2.54,2.54,0,0,1,1.68-.66,2.47,2.47,0,0,1,1.72.7A2.86,2.86,0,0,1,28.81,8a2.87,2.87,0,0,1-.71,2,2.41,2.41,0,0,1-1.93.92,2.48,2.48,0,0,1-1.68-.66v.66h-1V2.69Zm1.3,6.45a1.54,1.54,0,0,0,1.34.75,1.48,1.48,0,0,0,1-.38A1.93,1.93,0,0,0,27.85,8a2,2,0,0,0-.35-1.16,1.53,1.53,0,0,0-2.34-.37A2,2,0,0,0,24.49,8,2,2,0,0,0,24.83,9.14Z"/><path class="cls-1" d="M30.48,6a2.42,2.42,0,0,1,1.93-.93,2.47,2.47,0,0,1,1.72.7A2.83,2.83,0,0,1,35.05,8a2.91,2.91,0,0,1-.7,2,2.49,2.49,0,0,1-3.65.23A2.84,2.84,0,0,1,29.77,8,2.91,2.91,0,0,1,30.48,6Zm.6,3.12a1.54,1.54,0,0,0,1.33.75,1.46,1.46,0,0,0,1-.38A1.93,1.93,0,0,0,34.09,8a2.07,2.07,0,0,0-.34-1.16,1.56,1.56,0,0,0-1.34-.76,1.47,1.47,0,0,0-1,.39A1.93,1.93,0,0,0,30.73,8,2.09,2.09,0,0,0,31.08,9.14Z"/><path class="cls-1" d="M36.26,5.11h1l0,.48V8.66a1.14,1.14,0,0,0,.23.68,1.35,1.35,0,0,0,1.14.55,1.4,1.4,0,0,0,.74-.2,1.16,1.16,0,0,0,.62-1V5.11h1V8.66A2.06,2.06,0,0,1,40.39,10a2.22,2.22,0,0,1-1.81.82,2.35,2.35,0,0,1-1.5-.51,2.06,2.06,0,0,1-.83-1.68V5.11Z"/><path class="cls-1" d="M43.62,9.16c0,.47.3.72.88.73H45v1H44.5a2.62,2.62,0,0,1-.64-.07,1.46,1.46,0,0,1-1.2-1.61h0V6.05h-.8v-1h.8V3.37h1V5.09H45v1H43.63Z"/></g></g></svg>