<svg xmlns="http://www.w3.org/2000/svg" viewBox="0 0 389.43 214.54"><g id="레이어_2" data-name="레이어 2"><g id="Layer_1" data-name="Layer 1"><path d="M7.6,4.16v.07a4.75,4.75,0,0,1-.26,1.4A36.09,36.09,0,0,1,4.1,12.44L4,12.62H3.19l.3-.54C4.55,10.22,5.33,8.72,5.83,7.6a3.55,3.55,0,0,1-2,.64,3.63,3.63,0,0,1-2.47-1A4,4,0,0,1,0,4.14,4.22,4.22,0,0,1,1,1.37,3.54,3.54,0,0,1,3.8,0,3.59,3.59,0,0,1,6.07.81a4.08,4.08,0,0,1,1.51,3h0v.38ZM6.19,2A2.83,2.83,0,0,0,3.8.72a2.81,2.81,0,0,0-1.93.76A3.38,3.38,0,0,0,.72,4.14,3.5,3.5,0,0,0,1.4,6.25,2.9,2.9,0,0,0,3.82,7.52,3.15,3.15,0,0,0,5.11,7.2,3.21,3.21,0,0,0,6.75,5.13a6.47,6.47,0,0,0,.13-.88V4.14A3.83,3.83,0,0,0,6.19,2Z"/><path d="M10.26,1.67A3.16,3.16,0,0,1,12.87,0a3,3,0,0,1,2.39,1.44A8,8,0,0,1,16.63,6.3a8.32,8.32,0,0,1-1.22,4.64,3.06,3.06,0,0,1-2.54,1.68,3.12,3.12,0,0,1-2.45-1.46A8,8,0,0,1,9,6.3,8.25,8.25,0,0,1,10.26,1.67Zm.34,8.46c.6,1.18,1.36,1.77,2.27,1.77a2.42,2.42,0,0,0,1.94-1.28,7.74,7.74,0,0,0,1.1-4.32,8.28,8.28,0,0,0-.83-3.83C14.48,1.3,13.75.72,12.87.72a2.47,2.47,0,0,0-2,1.3A7.58,7.58,0,0,0,9.76,6.3,8.28,8.28,0,0,0,10.6,10.13Z"/><path d="M27.61.36h.94L28.08,1,18.72,12.47l-.11.13h-.93l.46-.59L27.5.49Zm-5.7.2a2.43,2.43,0,0,1,1.53,2.61A3.64,3.64,0,0,1,23,5a2.34,2.34,0,0,1-2.21,1.25A2.91,2.91,0,0,1,19.6,6a2.74,2.74,0,0,1-1.53-2.8,3.13,3.13,0,0,1,.43-1.66A2.49,2.49,0,0,1,20.83.36,3.5,3.5,0,0,1,21.91.56ZM20,1.22a1.88,1.88,0,0,0-1.17,2A2.92,2.92,0,0,0,19,4.41a1.83,1.83,0,0,0,1.8,1.12,2,2,0,0,0,.79-.17,2.1,2.1,0,0,0,1.1-2.19,2.46,2.46,0,0,0-.17-1,1.68,1.68,0,0,0-1.72-1.1A2.83,2.83,0,0,0,20,1.22Zm3.21,6.7a2.31,2.31,0,0,1,2.21-1.26,3,3,0,0,1,1.1.22A2.78,2.78,0,0,1,28,9.76a3.38,3.38,0,0,1-.3,1.47A2.39,2.39,0,0,1,25.4,12.6a3.89,3.89,0,0,1-.85-.09c-1.16-.3-1.76-1.19-1.8-2.68A4,4,0,0,1,23.17,7.92Zm.43,2.68a1.67,1.67,0,0,0,1.8,1.28,1.89,1.89,0,0,0,.7-.13,1.84,1.84,0,0,0,1.22-2,3.21,3.21,0,0,0-.19-1.16,1.77,1.77,0,0,0-1.75-1.22,1.91,1.91,0,0,0-.86.2,2.29,2.29,0,0,0-1.05,2.25A3.18,3.18,0,0,0,23.6,10.6Z"/><path d="M191,4.16v.07a5.08,5.08,0,0,1-.25,1.4,37.42,37.42,0,0,1-3.24,6.81l-.09.18h-.83l.3-.54c1.06-1.86,1.84-3.36,2.34-4.48a3.55,3.55,0,0,1-2,.64,3.63,3.63,0,0,1-2.47-1,4,4,0,0,1-1.35-3.13,4.22,4.22,0,0,1,1-2.77A3.54,3.54,0,0,1,187.15,0a3.59,3.59,0,0,1,2.27.81,4.08,4.08,0,0,1,1.51,3h0v.38ZM189.54,2a2.87,2.87,0,0,0-4.32-.5,3.41,3.41,0,0,0-1.15,2.66,3.5,3.5,0,0,0,.68,2.11,2.9,2.9,0,0,0,2.42,1.27,3.15,3.15,0,0,0,1.29-.32,3.21,3.21,0,0,0,1.64-2.07,6.47,6.47,0,0,0,.13-.88V4.14A3.83,3.83,0,0,0,189.54,2Z"/><path d="M193.61,1.67A3.16,3.16,0,0,1,196.22,0a3.05,3.05,0,0,1,2.4,1.44A8.1,8.1,0,0,1,200,6.3a8.24,8.24,0,0,1-1.22,4.64,3.06,3.06,0,0,1-2.54,1.68,3.12,3.12,0,0,1-2.45-1.46,8,8,0,0,1-1.38-4.86A8.25,8.25,0,0,1,193.61,1.67Zm.34,8.46c.6,1.18,1.36,1.77,2.27,1.77a2.44,2.44,0,0,0,1.95-1.28,7.82,7.82,0,0,0,1.09-4.32,8.28,8.28,0,0,0-.83-3.83c-.6-1.17-1.33-1.75-2.21-1.75a2.47,2.47,0,0,0-2,1.3,7.58,7.58,0,0,0-1.11,4.28A8.28,8.28,0,0,0,194,10.13Z"/><path d="M211,.36h.94l-.47.59-9.36,11.52-.11.13H201l.47-.59L210.86.49Zm-5.7.2a2.43,2.43,0,0,1,1.53,2.61,3.64,3.64,0,0,1-.4,1.83,2.34,2.34,0,0,1-2.21,1.25A3,3,0,0,1,203,6a2.74,2.74,0,0,1-1.53-2.8,3,3,0,0,1,.44-1.66A2.47,2.47,0,0,1,204.18.36,3.5,3.5,0,0,1,205.26.56Zm-1.95.66a1.88,1.88,0,0,0-1.17,2,2.92,2.92,0,0,0,.24,1.22,1.84,1.84,0,0,0,1.8,1.12,2,2,0,0,0,.79-.17,2.1,2.1,0,0,0,1.1-2.19,2.45,2.45,0,0,0-.16-1,1.7,1.7,0,0,0-1.73-1.1A2.83,2.83,0,0,0,203.31,1.22Zm3.21,6.7a2.32,2.32,0,0,1,2.21-1.26,3,3,0,0,1,1.1.22,2.79,2.79,0,0,1,1.57,2.88,3.38,3.38,0,0,1-.31,1.47,2.39,2.39,0,0,1-2.34,1.37,3.89,3.89,0,0,1-.85-.09c-1.16-.3-1.76-1.19-1.8-2.68A4,4,0,0,1,206.52,7.92ZM207,10.6a1.67,1.67,0,0,0,1.8,1.28,1.89,1.89,0,0,0,.7-.13,1.84,1.84,0,0,0,1.22-2,3.21,3.21,0,0,0-.19-1.16,1.76,1.76,0,0,0-1.75-1.22,1.91,1.91,0,0,0-.86.2,2.29,2.29,0,0,0-1.05,2.25A3.18,3.18,0,0,0,207,10.6Z"/><path d="M361.1,7.6a3.7,3.7,0,0,1,2-2.18,2.67,2.67,0,0,1-.52-.33,2.62,2.62,0,0,1-1.17-2.17,2.7,2.7,0,0,1,.68-1.79A3.35,3.35,0,0,1,364.7,0a3.44,3.44,0,0,1,2.1.67A2.65,2.65,0,0,1,368,2.92a2.61,2.61,0,0,1-.09.66,2.85,2.85,0,0,1-1.6,1.84,4,4,0,0,1,.9.59,3.7,3.7,0,0,1,1.28,2.85,3.59,3.59,0,0,1-.92,2.43,3.66,3.66,0,0,1-2.88,1.31,3.75,3.75,0,0,1-2.5-.92,3.57,3.57,0,0,1-1.3-2.82A3.79,3.79,0,0,1,361.1,7.6Zm3.6-1.8h-.25a3.08,3.08,0,0,0-2.85,3.06,3,3,0,0,0,.65,1.87,2.94,2.94,0,0,0,2.43,1.15,3,3,0,0,0,1.93-.67,2.83,2.83,0,0,0,1.15-2.35,3.07,3.07,0,0,0-.56-1.77A2.91,2.91,0,0,0,365,5.8ZM362.47,4a2.49,2.49,0,0,0,2,1h.5a2.94,2.94,0,0,0,1.28-.42,1.94,1.94,0,0,0,.56-3A2.6,2.6,0,0,0,364.7.72a2.87,2.87,0,0,0-1.55.43,2,2,0,0,0-1.06,1.77A1.72,1.72,0,0,0,362.47,4Z"/><path d="M371.14,1.67A3.18,3.18,0,0,1,373.75,0a3.05,3.05,0,0,1,2.4,1.44,8.1,8.1,0,0,1,1.37,4.86,8.24,8.24,0,0,1-1.23,4.64,3,3,0,0,1-2.54,1.68,3.1,3.1,0,0,1-2.44-1.46,7.93,7.93,0,0,1-1.39-4.86A8.33,8.33,0,0,1,371.14,1.67Zm.35,8.46c.59,1.18,1.35,1.77,2.26,1.77a2.43,2.43,0,0,0,1.95-1.28,7.82,7.82,0,0,0,1.09-4.32A8.41,8.41,0,0,0,376,2.47c-.6-1.17-1.34-1.75-2.22-1.75a2.49,2.49,0,0,0-2,1.3,7.58,7.58,0,0,0-1.11,4.28A8.16,8.16,0,0,0,371.49,10.13Z"/><path d="M388.5.36h.93L389,1,379.6,12.47l-.1.13h-.94L379,12,388.39.49Zm-5.71.2a2.43,2.43,0,0,1,1.53,2.61,3.64,3.64,0,0,1-.4,1.83,2.33,2.33,0,0,1-2.21,1.25A2.9,2.9,0,0,1,380.49,6,2.73,2.73,0,0,1,379,3.19a3,3,0,0,1,.43-1.66A2.48,2.48,0,0,1,381.71.36,3.5,3.5,0,0,1,382.79.56Zm-1.94.66a1.88,1.88,0,0,0-1.17,2,2.92,2.92,0,0,0,.23,1.22,1.85,1.85,0,0,0,1.8,1.12,1.93,1.93,0,0,0,.79-.17,2.1,2.1,0,0,0,1.1-2.19,2.45,2.45,0,0,0-.16-1,1.7,1.7,0,0,0-1.73-1.1A2.72,2.72,0,0,0,380.85,1.22Zm3.2,6.7a2.32,2.32,0,0,1,2.21-1.26,3,3,0,0,1,1.1.22,2.77,2.77,0,0,1,1.57,2.88,3.25,3.25,0,0,1-.31,1.47,2.39,2.39,0,0,1-2.34,1.37,3.73,3.73,0,0,1-.84-.09c-1.17-.3-1.77-1.19-1.8-2.68A4,4,0,0,1,384.05,7.92Zm.43,2.68a1.68,1.68,0,0,0,1.8,1.28,1.89,1.89,0,0,0,.7-.13,1.85,1.85,0,0,0,1.23-2A3.2,3.2,0,0,0,388,8.6a1.76,1.76,0,0,0-1.75-1.22,1.91,1.91,0,0,0-.86.2,2.27,2.27,0,0,0-1,2.25A3.18,3.18,0,0,0,384.48,10.6Z"/><path d="M.22,209.52a3.7,3.7,0,0,1,2-2.18,2.4,2.4,0,0,1-.52-.33,2.62,2.62,0,0,1-1.17-2.17,2.66,2.66,0,0,1,.68-1.79,3.35,3.35,0,0,1,2.65-1.13,3.44,3.44,0,0,1,2.1.67,2.69,2.69,0,0,1,1.19,2.25,2.56,2.56,0,0,1-.09.66,2.85,2.85,0,0,1-1.6,1.84,4.36,4.36,0,0,1,.9.59,3.7,3.7,0,0,1,1.28,2.85,3.59,3.59,0,0,1-.92,2.43,3.66,3.66,0,0,1-2.88,1.31,3.75,3.75,0,0,1-2.5-.92,3.71,3.71,0,0,1-1.08-4.08Zm3.6-1.8H3.56a3.05,3.05,0,0,0-1.71.68,2.92,2.92,0,0,0-1.13,2.38,3,3,0,0,0,.65,1.87A2.94,2.94,0,0,0,3.8,213.8a3,3,0,0,0,1.92-.67,2.83,2.83,0,0,0,1.16-2.35A3.07,3.07,0,0,0,6.32,209a2.94,2.94,0,0,0-2.25-1.29Zm-2.24-1.78a2.54,2.54,0,0,0,2,1h.51a3,3,0,0,0,1.28-.42,2,2,0,0,0,1-1.72,1.9,1.9,0,0,0-.49-1.28,2.58,2.58,0,0,0-2.08-.92,3,3,0,0,0-1.55.43,2,2,0,0,0-1.06,1.77A1.82,1.82,0,0,0,1.58,205.94Z"/><path d="M10.26,203.59a3.16,3.16,0,0,1,2.61-1.67,3,3,0,0,1,2.39,1.44,8,8,0,0,1,1.37,4.86,8.38,8.38,0,0,1-1.22,4.65,3.07,3.07,0,0,1-2.54,1.67,3.12,3.12,0,0,1-2.45-1.46A8,8,0,0,1,9,208.22,8.25,8.25,0,0,1,10.26,203.59Zm.34,8.46c.6,1.18,1.36,1.77,2.27,1.77a2.42,2.42,0,0,0,1.94-1.28,7.74,7.74,0,0,0,1.1-4.32,8.28,8.28,0,0,0-.83-3.83c-.6-1.17-1.33-1.75-2.21-1.75a2.47,2.47,0,0,0-2,1.3,7.58,7.58,0,0,0-1.11,4.28A8.25,8.25,0,0,0,10.6,212.05Z"/><path d="M27.61,202.28h.94l-.47.6-9.36,11.51-.11.13h-.93l.46-.59,9.36-11.52Zm-5.7.2a2.45,2.45,0,0,1,1.53,2.61,3.64,3.64,0,0,1-.4,1.83,2.34,2.34,0,0,1-2.21,1.25,3.07,3.07,0,0,1-1.23-.25,2.77,2.77,0,0,1-1.53-2.81,3.13,3.13,0,0,1,.43-1.66,2.49,2.49,0,0,1,2.33-1.17A3.5,3.5,0,0,1,21.91,202.48Zm-1.95.66a1.89,1.89,0,0,0-1.17,2,2.89,2.89,0,0,0,.24,1.22,1.81,1.81,0,0,0,1.8,1.12,2.14,2.14,0,0,0,.79-.16,2.11,2.11,0,0,0,1.1-2.2,2.46,2.46,0,0,0-.17-1,1.68,1.68,0,0,0-1.72-1.1A2.83,2.83,0,0,0,20,203.14Zm3.21,6.7a2.31,2.31,0,0,1,2.21-1.26,3.26,3.26,0,0,1,1.1.22A2.78,2.78,0,0,1,28,211.68a3.38,3.38,0,0,1-.3,1.47,2.39,2.39,0,0,1-2.34,1.37,3.89,3.89,0,0,1-.85-.09c-1.16-.3-1.76-1.19-1.8-2.68A4,4,0,0,1,23.17,209.84Zm.43,2.68a1.67,1.67,0,0,0,1.8,1.28,1.89,1.89,0,0,0,.7-.13,1.84,1.84,0,0,0,1.22-2,3.15,3.15,0,0,0-.19-1.15,1.77,1.77,0,0,0-1.75-1.23,1.91,1.91,0,0,0-.86.2,2.29,2.29,0,0,0-1.05,2.25A3.1,3.1,0,0,0,23.6,212.52Z"/><path d="M183.57,209.52a3.7,3.7,0,0,1,2-2.18A2.4,2.4,0,0,1,185,207a2.62,2.62,0,0,1-1.17-2.17,2.7,2.7,0,0,1,.68-1.79,3.35,3.35,0,0,1,2.65-1.13,3.44,3.44,0,0,1,2.1.67,2.67,2.67,0,0,1,1.19,2.25,2.56,2.56,0,0,1-.09.66,2.85,2.85,0,0,1-1.6,1.84,4.36,4.36,0,0,1,.9.59,3.7,3.7,0,0,1,1.28,2.85,3.59,3.59,0,0,1-.92,2.43,3.66,3.66,0,0,1-2.88,1.31,3.75,3.75,0,0,1-2.5-.92,3.71,3.71,0,0,1-1.08-4.08Zm3.6-1.8h-.25a3,3,0,0,0-1.71.68,2.9,2.9,0,0,0-1.14,2.38,3,3,0,0,0,.65,1.87,2.94,2.94,0,0,0,2.43,1.15,3,3,0,0,0,1.93-.67,2.84,2.84,0,0,0,1.15-2.35,3.07,3.07,0,0,0-.56-1.77,2.94,2.94,0,0,0-2.25-1.29Zm-2.24-1.78a2.55,2.55,0,0,0,2,1h.5a2.94,2.94,0,0,0,1.28-.42,2,2,0,0,0,1-1.72,1.9,1.9,0,0,0-.49-1.28,2.58,2.58,0,0,0-2.08-.92,3,3,0,0,0-1.55.43,2,2,0,0,0-1.06,1.77A1.82,1.82,0,0,0,184.93,205.94Z"/><path d="M193.61,203.59a3.17,3.17,0,0,1,2.61-1.67,3.05,3.05,0,0,1,2.4,1.44,8.1,8.1,0,0,1,1.36,4.86,8.3,8.3,0,0,1-1.22,4.65,3.07,3.07,0,0,1-2.54,1.67,3.12,3.12,0,0,1-2.45-1.46,8,8,0,0,1-1.38-4.86A8.33,8.33,0,0,1,193.61,203.59Zm.34,8.46c.6,1.18,1.36,1.77,2.27,1.77a2.44,2.44,0,0,0,1.95-1.28,7.82,7.82,0,0,0,1.09-4.32,8.28,8.28,0,0,0-.83-3.83c-.6-1.17-1.33-1.75-2.21-1.75a2.49,2.49,0,0,0-2,1.3,7.58,7.58,0,0,0-1.11,4.28A8.25,8.25,0,0,0,194,212.05Z"/><path d="M211,202.28h.94l-.47.6-9.36,11.51-.11.13H201l.47-.59,9.36-11.52Zm-5.7.2a2.45,2.45,0,0,1,1.53,2.61,3.64,3.64,0,0,1-.4,1.83,2.34,2.34,0,0,1-2.21,1.25,3.11,3.11,0,0,1-1.23-.25,2.77,2.77,0,0,1-1.53-2.81,3,3,0,0,1,.44-1.66,2.47,2.47,0,0,1,2.32-1.17A3.5,3.5,0,0,1,205.26,202.48Zm-1.95.66a1.89,1.89,0,0,0-1.17,2,2.89,2.89,0,0,0,.24,1.22,1.83,1.83,0,0,0,1.8,1.12,2.14,2.14,0,0,0,.79-.16,2.11,2.11,0,0,0,1.1-2.2,2.45,2.45,0,0,0-.16-1,1.7,1.7,0,0,0-1.73-1.1A2.83,2.83,0,0,0,203.31,203.14Zm3.21,6.7a2.32,2.32,0,0,1,2.21-1.26,3.26,3.26,0,0,1,1.1.22,2.79,2.79,0,0,1,1.57,2.88,3.38,3.38,0,0,1-.31,1.47,2.39,2.39,0,0,1-2.34,1.37,3.89,3.89,0,0,1-.85-.09c-1.16-.3-1.76-1.19-1.8-2.68A4,4,0,0,1,206.52,209.84Zm.43,2.68a1.67,1.67,0,0,0,1.8,1.28,1.89,1.89,0,0,0,.7-.13,1.84,1.84,0,0,0,1.22-2,3.15,3.15,0,0,0-.19-1.15,1.76,1.76,0,0,0-1.75-1.23,1.91,1.91,0,0,0-.86.2,2.29,2.29,0,0,0-1.05,2.25A3.1,3.1,0,0,0,207,212.52Z"/><path d="M361.1,209.52a3.7,3.7,0,0,1,2-2.18,2.67,2.67,0,0,1-.52-.33,2.62,2.62,0,0,1-1.17-2.17,2.7,2.7,0,0,1,.68-1.79,3.35,3.35,0,0,1,2.65-1.13,3.49,3.49,0,0,1,2.11.67,2.68,2.68,0,0,1,1.18,2.25,2.56,2.56,0,0,1-.09.66,2.85,2.85,0,0,1-1.6,1.84,4.11,4.11,0,0,1,.9.59,3.7,3.7,0,0,1,1.28,2.85,3.59,3.59,0,0,1-.92,2.43,3.65,3.65,0,0,1-2.88,1.31,3.75,3.75,0,0,1-2.5-.92,3.57,3.57,0,0,1-1.3-2.82A3.79,3.79,0,0,1,361.1,209.52Zm3.6-1.8h-.25a3,3,0,0,0-1.71.68,2.9,2.9,0,0,0-1.14,2.38,3,3,0,0,0,.65,1.87,2.94,2.94,0,0,0,2.43,1.15,3,3,0,0,0,1.93-.67,2.82,2.82,0,0,0,1.15-2.35,3.07,3.07,0,0,0-.56-1.77,2.91,2.91,0,0,0-2.25-1.29Zm-2.23-1.78a2.51,2.51,0,0,0,2,1h.5a2.94,2.94,0,0,0,1.28-.42,1.94,1.94,0,0,0,.56-3,2.6,2.6,0,0,0-2.09-.92,3,3,0,0,0-1.55.43,2,2,0,0,0-1.06,1.77A1.83,1.83,0,0,0,362.47,205.94Z"/><path d="M371.14,203.59a3.18,3.18,0,0,1,2.61-1.67,3.05,3.05,0,0,1,2.4,1.44,8.1,8.1,0,0,1,1.37,4.86,8.3,8.3,0,0,1-1.23,4.65,3.06,3.06,0,0,1-2.54,1.67,3.1,3.1,0,0,1-2.44-1.46,7.93,7.93,0,0,1-1.39-4.86A8.33,8.33,0,0,1,371.14,203.59Zm.35,8.46c.59,1.18,1.35,1.77,2.26,1.77a2.43,2.43,0,0,0,1.95-1.28,7.82,7.82,0,0,0,1.1-4.32,8.41,8.41,0,0,0-.83-3.83c-.6-1.17-1.34-1.75-2.22-1.75a2.49,2.49,0,0,0-2,1.3,7.58,7.58,0,0,0-1.11,4.28A8.13,8.13,0,0,0,371.49,212.05Z"/><path d="M388.5,202.28h.93l-.47.6-9.36,11.51-.1.13h-.94l.47-.59,9.36-11.52Zm-5.71.2a2.45,2.45,0,0,1,1.53,2.61,3.64,3.64,0,0,1-.4,1.83,2.33,2.33,0,0,1-2.21,1.25,3.06,3.06,0,0,1-1.22-.25,2.77,2.77,0,0,1-1.53-2.81,3,3,0,0,1,.43-1.66,2.48,2.48,0,0,1,2.32-1.17A3.5,3.5,0,0,1,382.79,202.48Zm-1.94.66a1.89,1.89,0,0,0-1.17,2,2.89,2.89,0,0,0,.23,1.22,1.83,1.83,0,0,0,1.8,1.12,1.92,1.92,0,0,0,1.89-2.36,2.45,2.45,0,0,0-.16-1,1.7,1.7,0,0,0-1.73-1.1A2.72,2.72,0,0,0,380.85,203.14Zm3.2,6.7a2.32,2.32,0,0,1,2.21-1.26,3.21,3.21,0,0,1,1.1.22,2.77,2.77,0,0,1,1.57,2.88,3.25,3.25,0,0,1-.31,1.47,2.39,2.39,0,0,1-2.34,1.37,3.73,3.73,0,0,1-.84-.09c-1.17-.3-1.77-1.19-1.8-2.68A4,4,0,0,1,384.05,209.84Zm.43,2.68a1.68,1.68,0,0,0,1.8,1.28,1.89,1.89,0,0,0,.7-.13,1.85,1.85,0,0,0,1.23-2,3.15,3.15,0,0,0-.2-1.15,1.75,1.75,0,0,0-1.75-1.23,1.91,1.91,0,0,0-.86.2,2.27,2.27,0,0,0-1,2.25A3.1,3.1,0,0,0,384.48,212.52Z"/></g></g></svg>