<svg xmlns="http://www.w3.org/2000/svg" viewBox="0 0 401.68 239.31"><g id="레이어_2" data-name="레이어 2"><g id="Layer_1" data-name="Layer 1"><g id="Outlined_Mnemonics_Logos" data-name="Outlined Mnemonics Logos"><g id="Pr"><path d="M363,231.69V204c0-.19.08-.3.27-.3.45,0,.88,0,1.5,0s1.32,0,2-.06,1.51,0,2.34-.05,1.64,0,2.45,0a15.74,15.74,0,0,1,5.55.84,9.59,9.59,0,0,1,3.6,2.21,8.48,8.48,0,0,1,2,3.06,10.45,10.45,0,0,1,.62,3.5,9.62,9.62,0,0,1-1.62,5.74,9.12,9.12,0,0,1-4.33,3.28,17.29,17.29,0,0,1-6.06.92c-.64,0-1.08,0-1.34,0s-.65,0-1.16,0v8.64a.33.33,0,0,1-.3.37h-5.22C363.12,232,363,231.94,363,231.69Zm5.87-22.8v9.05c.37,0,.72.05,1,.05h1.43a10.19,10.19,0,0,0,3.1-.48,4.77,4.77,0,0,0,2.21-1.43,4.18,4.18,0,0,0,.83-2.77,4.42,4.42,0,0,0-.62-2.4,3.86,3.86,0,0,0-1.88-1.53,7.78,7.78,0,0,0-3.18-.54c-.7,0-1.32,0-1.83,0a6.36,6.36,0,0,0-1.1,0Z"/><path d="M387.14,210.45h4.71a.62.62,0,0,1,.57.43,2.94,2.94,0,0,1,.16.68c.05.27.1.56.13.83a9.52,9.52,0,0,1,.06,1,10,10,0,0,1,2.88-2.32,8.3,8.3,0,0,1,4.09-1,.35.35,0,0,1,.38.3v5.36c0,.21-.14.29-.44.29a12.29,12.29,0,0,0-2.9.27,11.7,11.7,0,0,0-2.26.73,4.15,4.15,0,0,0-1.38,1v13.73c0,.27-.11.37-.35.37h-5.3a.36.36,0,0,1-.43-.32v-15c0-.65,0-1.32,0-2s0-1.4,0-2.1-.06-1.21-.11-1.83a.25.25,0,0,1,.19-.3s.05,0,.08,0Z"/></g></g><g id="path0_fill" data-name="path0 fill"><path d="M11,239a7.4,7.4,0,0,1,0-14.79h7.4v7.4A7.41,7.41,0,0,1,11,239Zm0-13.79a6.4,6.4,0,1,0,6.4,6.4v-6.4Z"/></g><g id="path1_fill" data-name="path1 fill"><path d="M18.4,225.19H11a7.39,7.39,0,1,1,0-14.78h7.4ZM11,211.41a6.39,6.39,0,1,0,0,12.78h6.4V211.41Z"/></g><g id="path1_fill-2" data-name="path1 fill"><path d="M18.4,211.41H11a7.4,7.4,0,0,1,0-14.79h7.4ZM11,197.62a6.4,6.4,0,0,0,0,12.79h6.4V197.62Z"/></g><g id="path2_fill" data-name="path2 fill"><path d="M24.79,211.41H17.4V196.62h7.39a7.4,7.4,0,0,1,0,14.79Zm-6.39-1h6.39a6.4,6.4,0,0,0,0-12.79H18.4Z"/></g><g id="path3_fill" data-name="path3 fill"><path d="M24.79,225.19a7.39,7.39,0,1,1,7.39-7.39A7.39,7.39,0,0,1,24.79,225.19Zm0-13.78a6.39,6.39,0,1,0,6.39,6.39A6.39,6.39,0,0,0,24.79,211.41Z"/></g><g id="Outlined_Mnemonics_Logos-2" data-name="Outlined Mnemonics Logos"><g id="Xd"><path d="M380.44,2.78l-8.06,13.3L381,30.21a.48.48,0,0,1,.05.33c0,.1-.13,0-.31.07h-6.15c-.44,0-.74,0-.91-.31q-.87-1.69-1.74-3.36c-.57-1.11-1.19-2.24-1.84-3.4s-1.29-2.33-1.93-3.51h0c-.58,1.15-1.18,2.31-1.8,3.47s-1.24,2.3-1.84,3.44-1.23,2.28-1.87,3.4c-.11.26-.31.29-.6.29h-5.94c-.12,0-.18.05-.2-.07a.46.46,0,0,1,.07-.3l8.36-13.74L356.17,2.73c-.09-.11-.11-.21-.05-.28a.36.36,0,0,1,.26-.11h6.11a1,1,0,0,1,.39.07.67.67,0,0,1,.26.24c.52,1.15,1.1,2.31,1.74,3.46s1.28,2.3,1.93,3.43,1.25,2.27,1.8,3.42h0c.58-1.18,1.16-2.34,1.76-3.47s1.19-2.26,1.82-3.4,1.22-2.27,1.79-3.4a.75.75,0,0,1,.18-.28.58.58,0,0,1,.34-.07h5.68a.25.25,0,0,1,.3.18.25.25,0,0,1-.08.26Z"/><path d="M392.88,31.17A13.45,13.45,0,0,1,387.09,30a9.2,9.2,0,0,1-4-3.66,11.74,11.74,0,0,1-1.47-6.13A11.3,11.3,0,0,1,383,14.48a10.86,10.86,0,0,1,4.29-4.16,13.88,13.88,0,0,1,6.81-1.56l.56,0,.82.06V.31c0-.21.09-.31.26-.31h5.46a.22.22,0,0,1,.26.2.06.06,0,0,1,0,.06V25.88c0,.49,0,1,.07,1.6s.08,1.1.11,1.56a.45.45,0,0,1-.26.44,22.27,22.27,0,0,1-4.38,1.3A24.21,24.21,0,0,1,392.88,31.17Zm2.64-5.38V14a4.23,4.23,0,0,0-.71-.13,8.83,8.83,0,0,0-.89,0,6.63,6.63,0,0,0-3,.69,5.92,5.92,0,0,0-2.28,2,6,6,0,0,0-.89,3.43,7.5,7.5,0,0,0,.46,2.77,5.18,5.18,0,0,0,1.21,1.91,4.5,4.5,0,0,0,1.82,1.08,7,7,0,0,0,2.23.35c.41,0,.78,0,1.13,0A5.14,5.14,0,0,0,395.52,25.79Z"/></g></g><g id="Outlined_Mnemonics_Logos-3" data-name="Outlined Mnemonics Logos"><g id="Ai"><path d="M18,23.84H8l-2,6.33a.52.52,0,0,1-.53.39H.33q-.44,0-.3-.48l8.67-25c.09-.26.17-.56.26-.89a9.46,9.46,0,0,0,.17-1.76.27.27,0,0,1,.23-.3h7c.2,0,.32.07.34.22l9.84,27.74c.09.29,0,.43-.26.43H20.62a.4.4,0,0,1-.43-.3ZM9.52,18.38h6.85c-.17-.58-.37-1.23-.61-1.95s-.47-1.5-.73-2.32l-.78-2.47c-.26-.82-.5-1.62-.72-2.38S13.12,7.79,13,7.15h0A32.19,32.19,0,0,1,12,10.62l-1.23,4c-.42,1.36-.83,2.61-1.24,3.77Z"/><path d="M32.37,6.76a3.14,3.14,0,0,1-2.39-1,3.42,3.42,0,0,1-.91-2.47,3.17,3.17,0,0,1,1-2.41A3.34,3.34,0,0,1,32.45,0,3.23,3.23,0,0,1,34.9.93a3.41,3.41,0,0,1,.89,2.41,3.38,3.38,0,0,1-.93,2.47A3.31,3.31,0,0,1,32.37,6.76Zm-3,23.37V9.41c0-.26.12-.39.35-.39h5.33c.23,0,.35.13.35.39V30.13c0,.29-.12.43-.35.43H29.76C29.5,30.56,29.37,30.42,29.37,30.13Z"/></g></g><g id="Outlined_Mnemonics_Logos-4" data-name="Outlined Mnemonics Logos"><g id="Ps"><path d="M181.83,28.13V.43c0-.2.09-.3.26-.3l1.52,0,2.06,0L188,0l2.45,0A16.24,16.24,0,0,1,196,.82,9.72,9.72,0,0,1,199.63,3a8.56,8.56,0,0,1,2,3.06,10.14,10.14,0,0,1,.61,3.49,9.69,9.69,0,0,1-1.6,5.72,9,9,0,0,1-4.34,3.27,17.24,17.24,0,0,1-6.07.91c-.63,0-1.08,0-1.34,0l-1.17,0v8.65a.35.35,0,0,1-.29.39h-5.26C181.94,28.48,181.83,28.36,181.83,28.13Zm5.86-22.8v9c.37,0,.72,0,1,0h1.43a9.91,9.91,0,0,0,3.1-.5,4.64,4.64,0,0,0,2.21-1.43,4.17,4.17,0,0,0,.84-2.77,4.31,4.31,0,0,0-.62-2.38,4,4,0,0,0-1.89-1.54,8.13,8.13,0,0,0-3.16-.55c-.7,0-1.31,0-1.85,0a10.14,10.14,0,0,0-1.1.06Z"/><path d="M219,12.72a10.29,10.29,0,0,0-2.58-.91,13.89,13.89,0,0,0-3-.34,5.6,5.6,0,0,0-1.63.19,1.49,1.49,0,0,0-.84.54,1.39,1.39,0,0,0-.22.74,1.15,1.15,0,0,0,.26.69,2.9,2.9,0,0,0,.91.72,18.44,18.44,0,0,0,1.91.89,18.93,18.93,0,0,1,4.14,2A6.29,6.29,0,0,1,220,19.44a5.93,5.93,0,0,1,.63,2.78,6.29,6.29,0,0,1-1,3.57,6.83,6.83,0,0,1-3,2.41,12.29,12.29,0,0,1-4.88.86,17.26,17.26,0,0,1-3.66-.34,12.13,12.13,0,0,1-2.76-.87.56.56,0,0,1-.3-.52V22.65a.25.25,0,0,1,.11-.24.23.23,0,0,1,.24,0,11.48,11.48,0,0,0,3.34,1.32,14,14,0,0,0,3.16.42,4.83,4.83,0,0,0,2.23-.39,1.26,1.26,0,0,0,.72-1.13,1.42,1.42,0,0,0-.65-1.08,10.73,10.73,0,0,0-2.65-1.26,16.08,16.08,0,0,1-3.83-1.95,6.57,6.57,0,0,1-2-2.28,6,6,0,0,1-.63-2.75,6.21,6.21,0,0,1,.91-3.25,6.55,6.55,0,0,1,2.82-2.47,10.55,10.55,0,0,1,4.77-1,23.21,23.21,0,0,1,3.33.24,8.93,8.93,0,0,1,2.33.63.41.41,0,0,1,.26.24,1.17,1.17,0,0,1,0,.32v4.38a.26.26,0,0,1-.13.26A.4.4,0,0,1,219,12.72Z"/></g></g><path d="M211,239.31a3,3,0,0,1-2.25-1l-16.22-14.76-6,4.53a8.14,8.14,0,0,1-1.77,1.1,1.91,1.91,0,0,1-1.57-.15,15.58,15.58,0,0,1-3.06-2.72,2.47,2.47,0,0,1-.44-2c.16-.65.67-1.12,1.59-2l5-4.5-5-4.5c-.92-.84-1.43-1.3-1.59-2a2.45,2.45,0,0,1,.42-2,15.42,15.42,0,0,1,3.08-2.75,1.91,1.91,0,0,1,1.57-.15,8.53,8.53,0,0,1,1.79,1.11l5.93,4.5,16.3-14.83h0a3,3,0,0,1,2.78-.93h0c.43.11,2,.78,9.84,4.58a2.56,2.56,0,0,1,1.19,1.42,10.67,10.67,0,0,1,.27,2.88v25.16a10.6,10.6,0,0,1-.27,2.86,2.56,2.56,0,0,1-1.19,1.42c-7.8,3.8-9.4,4.47-9.84,4.58h0A3.11,3.11,0,0,1,211,239.31Zm-18.41-17.1,16.89,15.38a2,2,0,0,0,1.92.68h0c.65-.21,6.17-2.85,9.54-4.49a1.6,1.6,0,0,0,.69-.86,10.13,10.13,0,0,0,.21-2.51V205.21a10.13,10.13,0,0,0-.21-2.52,1.6,1.6,0,0,0-.69-.86c-3.38-1.64-8.89-4.29-9.54-4.5h0a2,2,0,0,0-1.86.62l-17,15.45-6.61-5a7.89,7.89,0,0,0-1.55-1,1,1,0,0,0-.78.13,14.43,14.43,0,0,0-2.72,2.48h0a1.43,1.43,0,0,0-.22,1.09c.09.36.54.77,1.29,1.46l5.77,5.24L182,223.06c-.75.68-1.2,1.09-1.29,1.46a1.42,1.42,0,0,0,.24,1.11,14.53,14.53,0,0,0,2.7,2.45,1,1,0,0,0,.78.14,6.89,6.89,0,0,0,1.53-1Zm19.72,6.16L198.34,217.8l13.95-10.57ZM200,217.8l11.3,8.56V209.24Z"/></g></g></svg>