<svg xmlns="http://www.w3.org/2000/svg" viewBox="0 0 401.68 244.24"><g id="레이어_2" data-name="레이어 2"><g id="Layer_1" data-name="Layer 1"><g id="Outlined_Mnemonics_Logos" data-name="Outlined Mnemonics Logos"><g id="Pr"><path d="M363,234.51v-27.7c0-.19.08-.3.27-.3.45,0,.88,0,1.5,0s1.32,0,2,0,1.51,0,2.34-.05,1.64,0,2.45,0a16,16,0,0,1,5.55.83,9.59,9.59,0,0,1,3.6,2.21,8.43,8.43,0,0,1,2,3.07,10.4,10.4,0,0,1,.62,3.5,9.56,9.56,0,0,1-1.62,5.73,9.2,9.2,0,0,1-4.33,3.29,17.52,17.52,0,0,1-6.06.91c-.64,0-1.08,0-1.34,0s-.65,0-1.16,0v8.64a.35.35,0,0,1-.3.38h-5.22C363.12,234.86,363,234.75,363,234.51Zm5.87-22.8v9c.37,0,.72.06,1,.06h1.43a10.2,10.2,0,0,0,3.1-.49,4.62,4.62,0,0,0,2.21-1.43,4.16,4.16,0,0,0,.83-2.77,4.39,4.39,0,0,0-.62-2.39,3.94,3.94,0,0,0-1.88-1.54,8.13,8.13,0,0,0-3.18-.54c-.7,0-1.32,0-1.83,0a5.45,5.45,0,0,0-1.1,0Z"/><path d="M387.14,213.27h4.71a.62.62,0,0,1,.57.43,2.85,2.85,0,0,1,.16.67c.05.27.1.57.13.84a9.34,9.34,0,0,1,.06,1,9.69,9.69,0,0,1,2.88-2.32,8.3,8.3,0,0,1,4.09-1.05.34.34,0,0,1,.38.3v5.35c0,.22-.14.3-.44.3a11.32,11.32,0,0,0-2.9.27,10.47,10.47,0,0,0-2.26.73,4.12,4.12,0,0,0-1.38,1v13.73c0,.27-.11.38-.35.38h-5.3a.37.37,0,0,1-.43-.32v-15c0-.64,0-1.32,0-2s0-1.4,0-2.1-.06-1.21-.11-1.83a.24.24,0,0,1,.19-.29s.05,0,.08,0Z"/></g></g><g id="Outlined_Mnemonics_Logos-2" data-name="Outlined Mnemonics Logos"><g id="Xd"><path d="M380.44,2.78l-8.06,13.3L381,30.21a.48.48,0,0,1,.05.33c0,.1-.13,0-.31.07h-6.15c-.44,0-.74,0-.91-.31q-.87-1.69-1.74-3.36c-.57-1.11-1.19-2.24-1.84-3.4s-1.29-2.33-1.93-3.51h0c-.58,1.15-1.18,2.31-1.8,3.47s-1.24,2.3-1.84,3.44-1.23,2.28-1.87,3.4c-.11.26-.31.29-.6.29h-5.94c-.12,0-.18.05-.2-.07a.46.46,0,0,1,.07-.3l8.36-13.74L356.17,2.73c-.09-.11-.11-.21-.05-.28a.36.36,0,0,1,.26-.11h6.11a1,1,0,0,1,.39.07.67.67,0,0,1,.26.24c.52,1.15,1.1,2.31,1.74,3.46s1.28,2.3,1.93,3.43,1.25,2.27,1.8,3.42h0c.58-1.18,1.16-2.34,1.76-3.47s1.19-2.26,1.82-3.4,1.22-2.27,1.79-3.4a.75.75,0,0,1,.18-.28.58.58,0,0,1,.34-.07h5.68a.25.25,0,0,1,.3.18.25.25,0,0,1-.08.26Z"/><path d="M392.88,31.17A13.45,13.45,0,0,1,387.09,30a9.2,9.2,0,0,1-4-3.66,11.74,11.74,0,0,1-1.47-6.13A11.3,11.3,0,0,1,383,14.48a10.86,10.86,0,0,1,4.29-4.16,13.88,13.88,0,0,1,6.81-1.56l.56,0,.82.06V.31c0-.21.09-.31.26-.31h5.46a.22.22,0,0,1,.26.2.06.06,0,0,1,0,.06V25.88c0,.49,0,1,.07,1.6s.08,1.1.11,1.56a.45.45,0,0,1-.26.44,22.27,22.27,0,0,1-4.38,1.3A24.21,24.21,0,0,1,392.88,31.17Zm2.64-5.38V14a4.23,4.23,0,0,0-.71-.13,8.83,8.83,0,0,0-.89,0,6.63,6.63,0,0,0-3,.69,5.92,5.92,0,0,0-2.28,2,6,6,0,0,0-.89,3.43,7.5,7.5,0,0,0,.46,2.77,5.18,5.18,0,0,0,1.21,1.91,4.5,4.5,0,0,0,1.82,1.08,7,7,0,0,0,2.23.35c.41,0,.78,0,1.13,0A5.14,5.14,0,0,0,395.52,25.79Z"/></g></g><g id="path0_fill" data-name="path0 fill"><path d="M10.31,243.87a8.09,8.09,0,1,1,0-16.17H18.4v8.08A8.09,8.09,0,0,1,10.31,243.87Zm0-15.17a7.09,7.09,0,1,0,7.09,7.08V228.7Z"/></g><g id="path1_fill" data-name="path1 fill"><path d="M18.4,228.7H10.31a8.09,8.09,0,0,1,0-16.18H18.4Zm-8.09-15.18a7.09,7.09,0,0,0,0,14.18H17.4V213.52Z"/></g><g id="path1_fill-2" data-name="path1 fill"><path d="M18.4,213.52H10.31a8.09,8.09,0,0,1,0-16.18H18.4Zm-8.09-15.18a7.09,7.09,0,0,0,0,14.18H17.4V198.34Z"/></g><g id="path2_fill" data-name="path2 fill"><path d="M25.49,213.52H17.4V197.34h8.09a8.09,8.09,0,0,1,0,16.18Zm-7.09-1h7.09a7.09,7.09,0,0,0,0-14.18H18.4Z"/></g><g id="path3_fill" data-name="path3 fill"><path d="M25.49,228.7a8.09,8.09,0,1,1,8.09-8.09A8.1,8.1,0,0,1,25.49,228.7Zm0-15.18a7.09,7.09,0,1,0,7.09,7.09A7.1,7.1,0,0,0,25.49,213.52Z"/></g><g id="Outlined_Mnemonics_Logos-3" data-name="Outlined Mnemonics Logos"><g id="Ai"><path d="M18,27H8l-2,6.33a.52.52,0,0,1-.53.39H.33q-.44,0-.3-.48l8.67-25c.09-.26.17-.56.26-.89a9.46,9.46,0,0,0,.17-1.76.27.27,0,0,1,.23-.3.11.11,0,0,1,.08,0h6.89c.2,0,.32.07.34.22l9.84,27.74c.09.29,0,.43-.26.43H20.62a.4.4,0,0,1-.43-.3ZM9.52,21.49h6.85c-.17-.58-.37-1.23-.61-1.95S15.29,18,15,17.22l-.78-2.47c-.26-.82-.5-1.62-.72-2.38s-.41-1.47-.58-2.11h0A32.19,32.19,0,0,1,12,13.73l-1.23,4c-.42,1.36-.83,2.61-1.24,3.77Z"/><path d="M32.37,9.87A3.14,3.14,0,0,1,30,8.92a3.42,3.42,0,0,1-.91-2.47,3.17,3.17,0,0,1,1-2.41,3.34,3.34,0,0,1,2.4-.93A3.23,3.23,0,0,1,34.9,4a3.41,3.41,0,0,1,.89,2.41,3.38,3.38,0,0,1-.93,2.47A3.31,3.31,0,0,1,32.37,9.87Zm-3,23.37V12.52c0-.26.12-.39.35-.39h5.33c.23,0,.35.13.35.39V33.24c0,.29-.12.43-.35.43H29.76C29.5,33.67,29.37,33.53,29.37,33.24Z"/></g></g><g id="Outlined_Mnemonics_Logos-4" data-name="Outlined Mnemonics Logos"><g id="Ps"><path d="M181.83,29.48V1.78c0-.2.09-.31.26-.31.47,0,.89,0,1.52,0l2.06,0,2.34,0,2.45,0a16.23,16.23,0,0,1,5.55.83,9.59,9.59,0,0,1,3.62,2.21,8.44,8.44,0,0,1,2,3.05,10.14,10.14,0,0,1,.61,3.49,9.67,9.67,0,0,1-1.6,5.72,9.06,9.06,0,0,1-4.34,3.28,17.24,17.24,0,0,1-6.07.91l-1.34,0q-.39,0-1.17,0v8.65a.35.35,0,0,1-.29.39h-5.26C181.94,29.82,181.83,29.71,181.83,29.48Zm5.86-22.8v9c.37,0,.72,0,1,0h1.43a10.2,10.2,0,0,0,3.1-.49,4.72,4.72,0,0,0,2.21-1.43,4.2,4.2,0,0,0,.84-2.78,4.33,4.33,0,0,0-.62-2.38,4.07,4.07,0,0,0-1.89-1.54,8,8,0,0,0-3.16-.54l-1.85,0c-.53,0-.9,0-1.1.07Z"/><path d="M219,14.07a9.91,9.91,0,0,0-2.58-.91,13.31,13.31,0,0,0-3-.35,5.6,5.6,0,0,0-1.63.19,1.45,1.45,0,0,0-.84.55,1.36,1.36,0,0,0-.22.73,1.18,1.18,0,0,0,.26.7,2.87,2.87,0,0,0,.91.71,18.44,18.44,0,0,0,1.91.89,19.4,19.4,0,0,1,4.14,2A6.32,6.32,0,0,1,220,20.79a5.92,5.92,0,0,1,.63,2.77,6.32,6.32,0,0,1-1,3.58,6.88,6.88,0,0,1-3,2.4,12.11,12.11,0,0,1-4.88.87,18,18,0,0,1-3.66-.35,11.22,11.22,0,0,1-2.76-.87.56.56,0,0,1-.3-.52V24a.26.26,0,0,1,.11-.24.21.21,0,0,1,.24,0,11.76,11.76,0,0,0,3.34,1.32,13.42,13.42,0,0,0,3.16.41,4.83,4.83,0,0,0,2.23-.39,1.23,1.23,0,0,0,.72-1.13,1.45,1.45,0,0,0-.65-1.08,10.73,10.73,0,0,0-2.65-1.26,15.72,15.72,0,0,1-3.83-1.95,6.63,6.63,0,0,1-2-2.27,6,6,0,0,1-.63-2.76,6.23,6.23,0,0,1,.91-3.25A6.62,6.62,0,0,1,208.74,9,10.69,10.69,0,0,1,213.51,8a20.65,20.65,0,0,1,3.33.24,8.56,8.56,0,0,1,2.33.63.4.4,0,0,1,.26.23,1.24,1.24,0,0,1,0,.33v4.38a.28.28,0,0,1-.13.26A.4.4,0,0,1,219,14.07Z"/></g></g><path d="M211.82,244.24a3.26,3.26,0,0,1-2.44-1.13l-17.89-16.28-6.61,5a8.53,8.53,0,0,1-1.94,1.2,2.08,2.08,0,0,1-1.69-.15,17.05,17.05,0,0,1-3.34-3,2.63,2.63,0,0,1-.49-2.16c.18-.7.74-1.21,1.75-2.13l5.49-5-5.49-5c-1-.92-1.57-1.43-1.75-2.14a2.64,2.64,0,0,1,.46-2.12,17.29,17.29,0,0,1,3.37-3,2.12,2.12,0,0,1,1.69-.16,9.8,9.8,0,0,1,2,1.21l6.56,5,18-16.36h0a3.21,3.21,0,0,1,3-1h0c.45.11,2.18.83,10.82,5a2.74,2.74,0,0,1,1.28,1.54,11.61,11.61,0,0,1,.3,3.14v27.7a11.58,11.58,0,0,1-.3,3.13,2.7,2.7,0,0,1-1.29,1.54c-8.63,4.21-10.36,4.93-10.81,5h0A3.52,3.52,0,0,1,211.82,244.24Zm-20.28-18.71,18.57,16.9a2.28,2.28,0,0,0,2.16.77h0c.71-.23,6.79-3.14,10.52-4.95a1.86,1.86,0,0,0,.78-1,11,11,0,0,0,.24-2.78V206.75a11.05,11.05,0,0,0-.24-2.8,1.81,1.81,0,0,0-.78-1c-3.73-1.82-9.81-4.73-10.52-5h0a2.27,2.27,0,0,0-2.1.7l-18.65,17-7.24-5.5a8.37,8.37,0,0,0-1.72-1.07,1.19,1.19,0,0,0-.9.14,16.54,16.54,0,0,0-3,2.75h0a1.66,1.66,0,0,0-.26,1.24c.11.42.58.85,1.45,1.64l6.3,5.72-6.3,5.73c-.87.79-1.34,1.22-1.45,1.64a1.63,1.63,0,0,0,.28,1.26,16.75,16.75,0,0,0,3,2.73,1.19,1.19,0,0,0,.9.14,8,8,0,0,0,1.7-1.06Zm21.67,6.62L198,220.61l15.23-11.54Zm-13.57-11.54,12.57,9.52v-19Z"/></g></g></svg>