<svg xmlns="http://www.w3.org/2000/svg" viewBox="0 0 394.3 214.54"><g id="레이어_2" data-name="레이어 2"><g id="Layer_1" data-name="Layer 1"><path d="M7.6,4.16v.07a4.75,4.75,0,0,1-.26,1.4A36.74,36.74,0,0,1,4.1,12.44L4,12.62H3.19l.3-.54C4.55,10.22,5.33,8.72,5.83,7.6a3.55,3.55,0,0,1-2,.64,3.63,3.63,0,0,1-2.47-1A4,4,0,0,1,0,4.14,4.22,4.22,0,0,1,1,1.37,3.54,3.54,0,0,1,3.8,0,3.61,3.61,0,0,1,6.07.81a4.08,4.08,0,0,1,1.51,3h0v.38ZM6.19,2A2.83,2.83,0,0,0,3.8.72a2.81,2.81,0,0,0-1.93.76A3.38,3.38,0,0,0,.72,4.14,3.5,3.5,0,0,0,1.4,6.25,2.9,2.9,0,0,0,3.82,7.52,3.15,3.15,0,0,0,5.11,7.2,3.21,3.21,0,0,0,6.75,5.13a6.47,6.47,0,0,0,.13-.88V4.14A3.9,3.9,0,0,0,6.19,2Z"/><path d="M10.26,1.67A3.16,3.16,0,0,1,12.87,0a3,3,0,0,1,2.39,1.44A8,8,0,0,1,16.63,6.3a8.32,8.32,0,0,1-1.22,4.64,3.06,3.06,0,0,1-2.54,1.68,3.12,3.12,0,0,1-2.45-1.46A8,8,0,0,1,9,6.3,8.25,8.25,0,0,1,10.26,1.67Zm.34,8.46c.6,1.18,1.36,1.77,2.27,1.77a2.42,2.42,0,0,0,1.94-1.28,7.82,7.82,0,0,0,1.1-4.32,8.41,8.41,0,0,0-.83-3.83C14.48,1.3,13.75.72,12.87.72a2.49,2.49,0,0,0-2,1.3A7.58,7.58,0,0,0,9.76,6.3,8.28,8.28,0,0,0,10.6,10.13Z"/><path d="M27.61.36h.94l-.47.6L18.72,12.47l-.11.13h-.93l.46-.59L27.5.49Zm-5.7.2a2.44,2.44,0,0,1,1.53,2.61A3.64,3.64,0,0,1,23,5a2.34,2.34,0,0,1-2.21,1.25A2.91,2.91,0,0,1,19.6,6a2.74,2.74,0,0,1-1.53-2.8,3.13,3.13,0,0,1,.43-1.66A2.49,2.49,0,0,1,20.83.36,3.5,3.5,0,0,1,21.91.56ZM20,1.22a1.88,1.88,0,0,0-1.17,2A2.92,2.92,0,0,0,19,4.41a1.83,1.83,0,0,0,1.8,1.12,2,2,0,0,0,.79-.17,2.09,2.09,0,0,0,1.1-2.19,2.46,2.46,0,0,0-.17-1,1.68,1.68,0,0,0-1.72-1.1A2.83,2.83,0,0,0,20,1.22Zm3.21,6.7a2.31,2.31,0,0,1,2.21-1.26,3,3,0,0,1,1.1.22A2.78,2.78,0,0,1,28,9.76a3.38,3.38,0,0,1-.3,1.47A2.39,2.39,0,0,1,25.4,12.6a3.89,3.89,0,0,1-.85-.09c-1.16-.3-1.76-1.19-1.8-2.68A4,4,0,0,1,23.17,7.92Zm.43,2.68a1.67,1.67,0,0,0,1.8,1.28,1.89,1.89,0,0,0,.7-.13,1.84,1.84,0,0,0,1.22-2,3.21,3.21,0,0,0-.19-1.16,1.77,1.77,0,0,0-1.75-1.22,1.91,1.91,0,0,0-.86.2,2.29,2.29,0,0,0-1.05,2.25A3.18,3.18,0,0,0,23.6,10.6Z"/><path d="M196.9,4.16v.07a4.74,4.74,0,0,1-.25,1.4,37.42,37.42,0,0,1-3.24,6.81l-.09.18h-.83l.31-.54c1-1.86,1.83-3.36,2.34-4.48a3.56,3.56,0,0,1-4.48-.33,4,4,0,0,1-1.36-3.13,4.23,4.23,0,0,1,1-2.77A3.51,3.51,0,0,1,193.1,0a3.57,3.57,0,0,1,2.27.81,4,4,0,0,1,1.51,3h0v.38ZM195.5,2A2.85,2.85,0,0,0,193.1.72a2.77,2.77,0,0,0-1.92.76A3.38,3.38,0,0,0,190,4.14a3.44,3.44,0,0,0,.68,2.11,2.87,2.87,0,0,0,2.41,1.27,3.07,3.07,0,0,0,2.93-2.39,4.36,4.36,0,0,0,.13-.88V4.14A3.82,3.82,0,0,0,195.5,2Z"/><path d="M199.57,1.67A3.16,3.16,0,0,1,202.18,0a3.05,3.05,0,0,1,2.39,1.44,8.1,8.1,0,0,1,1.37,4.86,8.24,8.24,0,0,1-1.23,4.64,3,3,0,0,1-2.53,1.68,3.11,3.11,0,0,1-2.45-1.46,7.93,7.93,0,0,1-1.39-4.86A8.26,8.26,0,0,1,199.57,1.67Zm.34,8.46c.6,1.18,1.35,1.77,2.27,1.77a2.43,2.43,0,0,0,1.94-1.28,7.82,7.82,0,0,0,1.1-4.32,8.41,8.41,0,0,0-.83-3.83c-.6-1.17-1.34-1.75-2.21-1.75a2.48,2.48,0,0,0-2,1.3,7.5,7.5,0,0,0-1.12,4.28A8.16,8.16,0,0,0,199.91,10.13Z"/><path d="M216.92.36h.93l-.47.6L208,12.47l-.11.13H207l.47-.59L216.81.49Zm-5.71.2a2.42,2.42,0,0,1,1.53,2.61A3.75,3.75,0,0,1,212.35,5a2.35,2.35,0,0,1-2.22,1.25A2.9,2.9,0,0,1,208.91,6a2.74,2.74,0,0,1-1.53-2.8,3,3,0,0,1,.43-1.66A2.48,2.48,0,0,1,210.13.36,3.4,3.4,0,0,1,211.21.56Zm-1.94.66a1.88,1.88,0,0,0-1.17,2,3.09,3.09,0,0,0,.23,1.22,1.85,1.85,0,0,0,1.8,1.12,1.93,1.93,0,0,0,.79-.17A2.09,2.09,0,0,0,212,3.17a2.45,2.45,0,0,0-.16-1,1.69,1.69,0,0,0-1.73-1.1A2.72,2.72,0,0,0,209.27,1.22Zm3.2,6.7a2.33,2.33,0,0,1,2.22-1.26,3,3,0,0,1,1.09.22,2.77,2.77,0,0,1,1.57,2.88,3.25,3.25,0,0,1-.31,1.47,2.39,2.39,0,0,1-2.34,1.37,3.73,3.73,0,0,1-.84-.09c-1.17-.3-1.77-1.19-1.8-2.68A4.14,4.14,0,0,1,212.47,7.92Zm.43,2.68a1.68,1.68,0,0,0,1.8,1.28,1.94,1.94,0,0,0,.71-.13,1.85,1.85,0,0,0,1.22-2,3.2,3.2,0,0,0-.2-1.16,1.75,1.75,0,0,0-1.74-1.22,2,2,0,0,0-.87.2,2.28,2.28,0,0,0-1,2.25A3.18,3.18,0,0,0,212.9,10.6Z"/><path d="M366,7.6a3.73,3.73,0,0,1,2-2.18,2.67,2.67,0,0,1-.52-.33,2.62,2.62,0,0,1-1.17-2.17,2.7,2.7,0,0,1,.68-1.79A3.35,3.35,0,0,1,369.57,0a3.44,3.44,0,0,1,2.1.67,2.65,2.65,0,0,1,1.19,2.25,2.61,2.61,0,0,1-.09.66,2.85,2.85,0,0,1-1.6,1.84,3.78,3.78,0,0,1,.9.59,3.7,3.7,0,0,1,1.28,2.85,3.59,3.59,0,0,1-.92,2.43,3.66,3.66,0,0,1-2.88,1.31,3.75,3.75,0,0,1-2.5-.92,3.57,3.57,0,0,1-1.3-2.82A3.79,3.79,0,0,1,366,7.6Zm3.6-1.8h-.25a3.08,3.08,0,0,0-2.85,3.06,3,3,0,0,0,.65,1.87,2.94,2.94,0,0,0,2.43,1.15,3,3,0,0,0,1.93-.67,2.82,2.82,0,0,0,1.15-2.35,3.07,3.07,0,0,0-.56-1.77,2.91,2.91,0,0,0-2.25-1.29ZM367.34,4a2.49,2.49,0,0,0,2,1h.5a2.94,2.94,0,0,0,1.28-.42,1.94,1.94,0,0,0,.56-3,2.6,2.6,0,0,0-2.09-.92,2.87,2.87,0,0,0-1.55.43A2,2,0,0,0,367,2.92,1.72,1.72,0,0,0,367.34,4Z"/><path d="M376,1.67A3.18,3.18,0,0,1,378.62,0,3.05,3.05,0,0,1,381,1.44a8.1,8.1,0,0,1,1.37,4.86,8.24,8.24,0,0,1-1.23,4.64,3,3,0,0,1-2.54,1.68,3.1,3.1,0,0,1-2.44-1.46,7.93,7.93,0,0,1-1.39-4.86A8.33,8.33,0,0,1,376,1.67Zm.35,8.46c.6,1.18,1.35,1.77,2.26,1.77a2.43,2.43,0,0,0,1.95-1.28,7.82,7.82,0,0,0,1.1-4.32,8.41,8.41,0,0,0-.83-3.83c-.6-1.17-1.34-1.75-2.22-1.75a2.51,2.51,0,0,0-2,1.3,7.58,7.58,0,0,0-1.11,4.28A8.16,8.16,0,0,0,376.36,10.13Z"/><path d="M393.37.36h.93l-.47.6-9.36,11.51-.1.13h-.94l.47-.59L393.26.49Zm-5.71.2a2.44,2.44,0,0,1,1.53,2.61,3.64,3.64,0,0,1-.4,1.83,2.33,2.33,0,0,1-2.21,1.25A2.9,2.9,0,0,1,385.36,6a2.73,2.73,0,0,1-1.53-2.8,3,3,0,0,1,.43-1.66A2.48,2.48,0,0,1,386.58.36,3.5,3.5,0,0,1,387.66.56Zm-1.94.66a1.88,1.88,0,0,0-1.17,2,2.92,2.92,0,0,0,.23,1.22,1.85,1.85,0,0,0,1.8,1.12,1.93,1.93,0,0,0,.79-.17,2.09,2.09,0,0,0,1.1-2.19,2.45,2.45,0,0,0-.16-1,1.69,1.69,0,0,0-1.73-1.1A2.72,2.72,0,0,0,385.72,1.22Zm3.2,6.7a2.32,2.32,0,0,1,2.21-1.26,3,3,0,0,1,1.1.22,2.77,2.77,0,0,1,1.57,2.88,3.25,3.25,0,0,1-.31,1.47,2.39,2.39,0,0,1-2.34,1.37,3.73,3.73,0,0,1-.84-.09c-1.17-.3-1.77-1.19-1.8-2.68A4,4,0,0,1,388.92,7.92Zm.43,2.68a1.68,1.68,0,0,0,1.8,1.28,1.89,1.89,0,0,0,.7-.13,1.85,1.85,0,0,0,1.23-2,3.2,3.2,0,0,0-.2-1.16,1.76,1.76,0,0,0-1.75-1.22,1.91,1.91,0,0,0-.86.2,2.27,2.27,0,0,0-1,2.25A3.18,3.18,0,0,0,389.35,10.6Z"/><path d="M.21,209.52a3.78,3.78,0,0,1,2-2.18,2.35,2.35,0,0,1-.52-.32,2.65,2.65,0,0,1-1.17-2.18,2.61,2.61,0,0,1,.68-1.78,3.33,3.33,0,0,1,2.65-1.14,3.44,3.44,0,0,1,2.1.67,2.7,2.7,0,0,1,1.19,2.25,2.56,2.56,0,0,1-.09.66,2.85,2.85,0,0,1-1.6,1.84,4.36,4.36,0,0,1,.9.59,3.7,3.7,0,0,1,1.28,2.85,3.59,3.59,0,0,1-.92,2.43,3.66,3.66,0,0,1-2.88,1.31,3.74,3.74,0,0,1-2.51-.92A3.56,3.56,0,0,1,0,210.78,3.87,3.87,0,0,1,.21,209.52Zm3.61-1.8H3.56a3.05,3.05,0,0,0-1.71.68,2.94,2.94,0,0,0-1.13,2.38,3,3,0,0,0,.65,1.87A2.94,2.94,0,0,0,3.8,213.8a3,3,0,0,0,1.92-.66,2.86,2.86,0,0,0,1.16-2.36A3.07,3.07,0,0,0,6.32,209a2.94,2.94,0,0,0-2.25-1.29Zm-2.24-1.78a2.54,2.54,0,0,0,2,1h.51a3,3,0,0,0,1.28-.41,2,2,0,0,0,1-1.73,1.9,1.9,0,0,0-.49-1.28,2.58,2.58,0,0,0-2.08-.92,3,3,0,0,0-1.55.43,2,2,0,0,0-1.06,1.77A1.82,1.82,0,0,0,1.58,205.94Z"/><path d="M10.26,203.6a3.15,3.15,0,0,1,2.61-1.68,3,3,0,0,1,2.39,1.44,8,8,0,0,1,1.37,4.86,8.38,8.38,0,0,1-1.22,4.65,3.07,3.07,0,0,1-2.54,1.67,3.12,3.12,0,0,1-2.45-1.46A8,8,0,0,1,9,208.22,8.22,8.22,0,0,1,10.26,203.6Zm.34,8.46c.6,1.17,1.36,1.76,2.27,1.76a2.42,2.42,0,0,0,1.94-1.28,7.82,7.82,0,0,0,1.1-4.32,8.41,8.41,0,0,0-.83-3.83c-.6-1.17-1.33-1.75-2.21-1.75a2.49,2.49,0,0,0-2,1.3,7.58,7.58,0,0,0-1.11,4.28A8.33,8.33,0,0,0,10.6,212.06Z"/><path d="M27.61,202.28h.94l-.47.6L18.72,214.4l-.11.12h-.93l.46-.59,9.36-11.52Zm-5.7.2a2.45,2.45,0,0,1,1.53,2.61,3.7,3.7,0,0,1-.4,1.84,2.35,2.35,0,0,1-2.21,1.24,3.07,3.07,0,0,1-1.23-.25,2.77,2.77,0,0,1-1.53-2.81,3.13,3.13,0,0,1,.43-1.66,2.49,2.49,0,0,1,2.33-1.17A3.5,3.5,0,0,1,21.91,202.48Zm-1.95.67a1.87,1.87,0,0,0-1.17,2,2.89,2.89,0,0,0,.24,1.22,1.81,1.81,0,0,0,1.8,1.12,2.14,2.14,0,0,0,.79-.16,2.11,2.11,0,0,0,1.1-2.2,2.46,2.46,0,0,0-.17-1,1.68,1.68,0,0,0-1.72-1.1A2.57,2.57,0,0,0,20,203.15Zm3.21,6.69a2.31,2.31,0,0,1,2.21-1.26,3.26,3.26,0,0,1,1.1.22A2.78,2.78,0,0,1,28,211.68a3.38,3.38,0,0,1-.3,1.47,2.39,2.39,0,0,1-2.34,1.37,3.89,3.89,0,0,1-.85-.09c-1.16-.3-1.76-1.19-1.8-2.68A4,4,0,0,1,23.17,209.84Zm.43,2.68a1.67,1.67,0,0,0,1.8,1.28,2.1,2.1,0,0,0,.7-.12,1.86,1.86,0,0,0,1.22-2,3.15,3.15,0,0,0-.19-1.15,1.77,1.77,0,0,0-1.75-1.23,1.91,1.91,0,0,0-.86.2,2.29,2.29,0,0,0-1.05,2.25A3.1,3.1,0,0,0,23.6,212.52Z"/><path d="M185.19,209.52a3.73,3.73,0,0,1,2-2.18,2.61,2.61,0,0,1-.52-.32,2.64,2.64,0,0,1-.49-4,3.33,3.33,0,0,1,2.65-1.14,3.44,3.44,0,0,1,2.1.67,2.68,2.68,0,0,1,1.19,2.25,2.56,2.56,0,0,1-.09.66,2.85,2.85,0,0,1-1.6,1.84,4.36,4.36,0,0,1,.9.59,3.7,3.7,0,0,1,1.28,2.85,3.59,3.59,0,0,1-.92,2.43,3.84,3.84,0,0,1-5.38.39,3.54,3.54,0,0,1-1.3-2.82A3.63,3.63,0,0,1,185.19,209.52Zm3.6-1.8h-.25a3,3,0,0,0-1.71.68,2.92,2.92,0,0,0-1.14,2.38,3,3,0,0,0,.65,1.87,2.94,2.94,0,0,0,2.43,1.15,3.07,3.07,0,0,0,1.93-.66,2.88,2.88,0,0,0,1.15-2.36,3.07,3.07,0,0,0-.56-1.77,2.91,2.91,0,0,0-2.25-1.29Zm-2.23-1.78a2.51,2.51,0,0,0,2,1h.5a2.92,2.92,0,0,0,1.28-.41,2,2,0,0,0,1-1.73,1.94,1.94,0,0,0-.48-1.28,2.62,2.62,0,0,0-2.09-.92,3,3,0,0,0-1.55.43,2,2,0,0,0-1.06,1.77A1.77,1.77,0,0,0,186.56,205.94Z"/><path d="M195.23,203.6a3.17,3.17,0,0,1,2.61-1.68,3.05,3.05,0,0,1,2.4,1.44,8.1,8.1,0,0,1,1.36,4.86,8.3,8.3,0,0,1-1.22,4.65,3.07,3.07,0,0,1-2.54,1.67,3.12,3.12,0,0,1-2.45-1.46,8,8,0,0,1-1.38-4.86A8.3,8.3,0,0,1,195.23,203.6Zm.34,8.46c.6,1.17,1.36,1.76,2.27,1.76a2.44,2.44,0,0,0,1.95-1.28,7.82,7.82,0,0,0,1.09-4.32,8.41,8.41,0,0,0-.82-3.83c-.6-1.17-1.34-1.75-2.22-1.75a2.51,2.51,0,0,0-2,1.3,7.58,7.58,0,0,0-1.11,4.28A8.33,8.33,0,0,0,195.57,212.06Z"/><path d="M212.58,202.28h.94l-.47.6-9.36,11.52-.11.12h-.93l.47-.59,9.36-11.52Zm-5.7.2a2.45,2.45,0,0,1,1.53,2.61,3.7,3.7,0,0,1-.4,1.84,2.34,2.34,0,0,1-2.21,1.24,3.11,3.11,0,0,1-1.23-.25,2.77,2.77,0,0,1-1.53-2.81,3,3,0,0,1,.44-1.66,2.48,2.48,0,0,1,2.32-1.17A3.5,3.5,0,0,1,206.88,202.48Zm-1.95.67a1.87,1.87,0,0,0-1.17,2,2.89,2.89,0,0,0,.24,1.22,1.83,1.83,0,0,0,1.8,1.12,2.14,2.14,0,0,0,.79-.16,2.11,2.11,0,0,0,1.1-2.2,2.45,2.45,0,0,0-.16-1,1.7,1.7,0,0,0-1.73-1.1A2.57,2.57,0,0,0,204.93,203.15Zm3.21,6.69a2.32,2.32,0,0,1,2.21-1.26,3.26,3.26,0,0,1,1.1.22,2.79,2.79,0,0,1,1.57,2.88,3.38,3.38,0,0,1-.31,1.47,2.39,2.39,0,0,1-2.34,1.37,3.89,3.89,0,0,1-.85-.09c-1.16-.3-1.76-1.19-1.8-2.68A4,4,0,0,1,208.14,209.84Zm.43,2.68a1.67,1.67,0,0,0,1.8,1.28,2.1,2.1,0,0,0,.7-.12,1.87,1.87,0,0,0,1.23-2,3.15,3.15,0,0,0-.2-1.15,1.76,1.76,0,0,0-1.75-1.23,1.91,1.91,0,0,0-.86.2,2.29,2.29,0,0,0-1.05,2.25A3.64,3.64,0,0,0,208.57,212.52Z"/><path d="M367.41,201.92v.72h-4.68l-.85,3.28a4,4,0,0,1,2.38-.85,3.56,3.56,0,0,1,2.59,1.14,5,5,0,0,1,1.37,3.58,5.07,5.07,0,0,1-1.1,3.27,3.52,3.52,0,0,1-2.86,1.48,3.68,3.68,0,0,1-2.32-.81,3.4,3.4,0,0,1-1.39-2.27l-.05-.41h.72l0,.3a2.73,2.73,0,0,0,.6,1.32,2.93,2.93,0,0,0,2.39,1.15,2.83,2.83,0,0,0,2.07-.92,4.27,4.27,0,0,0,1.17-3.11,4.47,4.47,0,0,0-.78-2.61,2.89,2.89,0,0,0-2.46-1.39,3.15,3.15,0,0,0-1.46.38,2.6,2.6,0,0,0-1.35,1.46l-.07.25h-.76l.15-.47,0,0,1.33-5.17.07-.27h5.22Z"/><path d="M370.88,203.6a3.16,3.16,0,0,1,2.61-1.68,3.05,3.05,0,0,1,2.4,1.44,8.1,8.1,0,0,1,1.36,4.86,8.3,8.3,0,0,1-1.22,4.65,3.07,3.07,0,0,1-2.54,1.67,3.12,3.12,0,0,1-2.45-1.46,8,8,0,0,1-1.38-4.86A8.3,8.3,0,0,1,370.88,203.6Zm.34,8.46c.6,1.17,1.36,1.76,2.27,1.76a2.44,2.44,0,0,0,1.95-1.28,7.82,7.82,0,0,0,1.09-4.32,8.41,8.41,0,0,0-.82-3.83c-.6-1.17-1.34-1.75-2.22-1.75a2.51,2.51,0,0,0-2,1.3,7.58,7.58,0,0,0-1.11,4.28A8.33,8.33,0,0,0,371.22,212.06Z"/><path d="M388.23,202.28h.94l-.47.6-9.36,11.52-.11.12h-.93l.47-.59,9.36-11.52Zm-5.7.2a2.45,2.45,0,0,1,1.53,2.61,3.7,3.7,0,0,1-.4,1.84,2.34,2.34,0,0,1-2.21,1.24,3.11,3.11,0,0,1-1.23-.25,2.77,2.77,0,0,1-1.53-2.81,3,3,0,0,1,.44-1.66,2.48,2.48,0,0,1,2.32-1.17A3.5,3.5,0,0,1,382.53,202.48Zm-1.95.67a1.87,1.87,0,0,0-1.17,2,2.89,2.89,0,0,0,.24,1.22,1.83,1.83,0,0,0,1.8,1.12,2.14,2.14,0,0,0,.79-.16,2.11,2.11,0,0,0,1.1-2.2,2.45,2.45,0,0,0-.16-1,1.7,1.7,0,0,0-1.73-1.1A2.57,2.57,0,0,0,380.58,203.15Zm3.21,6.69a2.32,2.32,0,0,1,2.21-1.26,3.26,3.26,0,0,1,1.1.22,2.79,2.79,0,0,1,1.57,2.88,3.38,3.38,0,0,1-.31,1.47,2.39,2.39,0,0,1-2.34,1.37,3.89,3.89,0,0,1-.85-.09c-1.16-.3-1.76-1.19-1.79-2.68A4,4,0,0,1,383.79,209.84Zm.43,2.68a1.67,1.67,0,0,0,1.8,1.28,2.1,2.1,0,0,0,.7-.12,1.87,1.87,0,0,0,1.23-2,3.15,3.15,0,0,0-.2-1.15A1.76,1.76,0,0,0,386,209.3a1.91,1.91,0,0,0-.86.2,2.29,2.29,0,0,0-1.05,2.25A3.64,3.64,0,0,0,384.22,212.52Z"/></g></g></svg>