<svg xmlns="http://www.w3.org/2000/svg" viewBox="0 0 485.48 383.63"><g id="레이어_2" data-name="레이어 2"><g id="Layer_1" data-name="Layer 1"><path d="M3,13.85,3,3V1.49H4.44l9.26,0a7.58,7.58,0,0,1,4.92,1.75,6.51,6.51,0,0,1,.83,9.58A7.3,7.3,0,0,1,13.7,15.3H5.86V26.24H3V13.85ZM13.7,12.39a5,5,0,0,0,2.51-.66,3.63,3.63,0,0,0,2-3.31,3.76,3.76,0,0,0-.8-2.3A4.49,4.49,0,0,0,13.7,4.37H5.86v8.06Z"/><path d="M33.12,8.75h1.46v2.91H33.12a4.4,4.4,0,0,0-2.19.55c-1.63.9-2.45,2.58-2.48,5.06v9H25.54V8.75h2.91v1.53A7.54,7.54,0,0,1,33.12,8.75Z"/><path d="M38.55,11.55a7.52,7.52,0,0,1,11.08-.69,8.6,8.6,0,0,1,2.8,6.63,8.88,8.88,0,0,1-2.15,5.94,7.5,7.5,0,0,1-11.08.69,8.6,8.6,0,0,1-2.8-6.63A8.83,8.83,0,0,1,38.55,11.55ZM40.37,21a4.66,4.66,0,0,0,4.05,2.29,4.58,4.58,0,0,0,3.06-1.16,5.93,5.93,0,0,0,2-4.67A6.31,6.31,0,0,0,48.46,14a4.67,4.67,0,0,0-4-2.3,4.55,4.55,0,0,0-3.07,1.17,5.89,5.89,0,0,0-2,4.66A6.34,6.34,0,0,0,40.37,21Z"/><path d="M62.63,8.75h1.46v2.91H59.94V26.24H57V11.66h-2.4V8.75h2.44a18.28,18.28,0,0,1,.44-3.07c.8-3.32,2.51-5,5.13-5h1.46V3.61H62.63c-1.5,0-2.38,1.73-2.62,5.14Z"/><path d="M67.19,6.52V3.61h3V6.52h-3Zm0,2.23H70.1V26.24H67.19V8.75Z"/><path d="M75,0h2.92V26.24H75V0Z"/><path d="M95.39,22.81a8,8,0,0,1-6.77,3.43,7.53,7.53,0,0,1-5.25-2.12,8.64,8.64,0,0,1-2.77-6.63,9,9,0,0,1,2.07-5.9,7.49,7.49,0,0,1,6-2.84,7.41,7.41,0,0,1,5.21,2.11,8.6,8.6,0,0,1,2.8,6.63V19h-13a6.35,6.35,0,0,0,.87,2,4.69,4.69,0,0,0,4.09,2.33,5.39,5.39,0,0,0,4.44-2.26ZM93.72,16a3.78,3.78,0,0,0-1-2.29,5.15,5.15,0,0,0-4.11-2.08,4.45,4.45,0,0,0-2.16.55A5.41,5.41,0,0,0,83.66,16Z"/><path d="M20.44,248.14v2.92H5.86v8H16.5V262H5.86v8H20.44v2.91H3V248.14H20.44Z"/><path d="M26.23,258.24a7.4,7.4,0,0,1,5.87-2.81,7.52,7.52,0,0,1,5.1,2V246.68h2.92v26.24H37.2v-2a7.6,7.6,0,0,1-5.1,2,7.38,7.38,0,0,1-5.21-2.11,8.64,8.64,0,0,1-2.81-6.63A8.84,8.84,0,0,1,26.23,258.24Zm1.82,9.47A4.67,4.67,0,0,0,32.1,270a4.55,4.55,0,0,0,3.06-1.17,5.91,5.91,0,0,0,2-4.66,6.26,6.26,0,0,0-1.06-3.54,4.67,4.67,0,0,0-4-2.3A4.55,4.55,0,0,0,29,259.51a5.91,5.91,0,0,0-2,4.67A6.32,6.32,0,0,0,28.05,267.71Z"/><path d="M45.25,255.47h3l0,1.45,0,9.33a3.44,3.44,0,0,0,.69,2.08A4.13,4.13,0,0,0,52.29,270a4.38,4.38,0,0,0,2.25-.62,3.51,3.51,0,0,0,1.86-3.14v-9.36l0-1.42h3l0,1.45,0,9.33a6.3,6.3,0,0,1-1.53,4.16,6.8,6.8,0,0,1-5.5,2.51,7.08,7.08,0,0,1-4.56-1.57,6.22,6.22,0,0,1-2.51-5.1v-9.36Z"/><path d="M77.25,269.57a7.55,7.55,0,0,1-6.45,3.35,7.19,7.19,0,0,1-5.07-2.08A8.68,8.68,0,0,1,63,264.18,9,9,0,0,1,65,258.24a7.2,7.2,0,0,1,5.76-2.81,7.56,7.56,0,0,1,6.48,3.13l-2.4,1.68a4.69,4.69,0,0,0-4.08-1.9,4.23,4.23,0,0,0-3,1.17,5.85,5.85,0,0,0-2,4.67,6.59,6.59,0,0,0,.94,3.46,4.49,4.49,0,0,0,4,2.37,5.14,5.14,0,0,0,4.11-2.12Z"/><path d="M82.6,258.24a7.4,7.4,0,0,1,5.87-2.81,7.5,7.5,0,0,1,5.1,2v-2h2.92v17.49H93.57v-2a7.6,7.6,0,0,1-5.1,2,7.39,7.39,0,0,1-5.21-2.11,8.64,8.64,0,0,1-2.81-6.63A8.84,8.84,0,0,1,82.6,258.24Zm1.83,9.47a4.66,4.66,0,0,0,4,2.3,4.55,4.55,0,0,0,3.06-1.17,5.91,5.91,0,0,0,2-4.66,6.33,6.33,0,0,0-1-3.54,4.68,4.68,0,0,0-4-2.3,4.55,4.55,0,0,0-3.06,1.17,5.91,5.91,0,0,0-2,4.67A6.25,6.25,0,0,0,84.43,267.71Z"/><path d="M105.49,267.78c0,1.44.91,2.18,2.66,2.23h1.46v2.91h-1.46a8,8,0,0,1-1.93-.22c-2.43-.56-3.65-2.18-3.65-4.88v-9.48h-2.44v-2.91h2.44V251.6l0-1.42h3l0,1.46v3.79h4.09v2.91h-4.09Z"/><path d="M112.7,253.21v-2.92h3v2.92h-3Zm0,2.22h2.92v17.49H112.7V255.43Z"/><path d="M121.23,258.24a7.51,7.51,0,0,1,11.08-.7,8.63,8.63,0,0,1,2.8,6.64,8.88,8.88,0,0,1-2.15,5.94,7.52,7.52,0,0,1-11.08.69,8.63,8.63,0,0,1-2.8-6.63A8.79,8.79,0,0,1,121.23,258.24Zm1.82,9.47a4.67,4.67,0,0,0,4,2.3,4.55,4.55,0,0,0,3.06-1.17,5.91,5.91,0,0,0,2-4.66,6.34,6.34,0,0,0-1.06-3.54,4.67,4.67,0,0,0-4-2.3,4.55,4.55,0,0,0-3.07,1.17,5.91,5.91,0,0,0-2,4.67A6.33,6.33,0,0,0,123.05,267.71Z"/><path d="M153.37,273h-2.88l0-1.46,0-8.53a5.09,5.09,0,0,0-.7-2.62,3.69,3.69,0,0,0-3.31-2,3.54,3.54,0,0,0-2.26.81A4.59,4.59,0,0,0,142.4,263v9.95h-2.92V255.43h2.92v1.38a6.71,6.71,0,0,1,4-1.38,6.32,6.32,0,0,1,4.33,1.68,7.32,7.32,0,0,1,2.59,5.86v8.49Z"/><path d="M335.09,248.14v2.92H320.52v8h10.64V262H320.52v8h14.57v2.91H317.6V248.14h17.49Z"/><path d="M354.08,273H351.2l0-1.46,0-8.53a5.18,5.18,0,0,0-.69-2.62,3.69,3.69,0,0,0-3.31-2,3.54,3.54,0,0,0-2.26.81,4.59,4.59,0,0,0-1.75,3.82v9.95h-2.92V255.43h2.92v1.38a6.69,6.69,0,0,1,4-1.38,6.34,6.34,0,0,1,4.33,1.68A7.32,7.32,0,0,1,354,263v8.49Z"/><path d="M360.71,255.47h3l0,1.45,0,14.54a13.86,13.86,0,0,1-1.39,6.67c-.87,1.53-1.89,2.3-3.06,2.3h-1.46v-2.92h1.46l.18,0q1.35-.41,1.35-6V256.89Zm0-2.15V250.4h2.95v2.92h-2.95Z"/><path d="M370.11,258.24a7.51,7.51,0,0,1,11.08-.7,8.63,8.63,0,0,1,2.8,6.64,8.83,8.83,0,0,1-2.15,5.94,7.51,7.51,0,0,1-11.07.69,8.64,8.64,0,0,1-2.81-6.63A8.84,8.84,0,0,1,370.11,258.24Zm1.82,9.47A4.67,4.67,0,0,0,376,270a4.55,4.55,0,0,0,3.06-1.17,5.91,5.91,0,0,0,2-4.66,6.26,6.26,0,0,0-1.06-3.54,4.67,4.67,0,0,0-4-2.3,4.51,4.51,0,0,0-3.06,1.17,5.91,5.91,0,0,0-2,4.67A6.32,6.32,0,0,0,371.93,267.71Z"/><path d="M397.55,255.43h3.13l-.76,2-5.4,14.54q-1.49,4.95-3.06,6.85a4.74,4.74,0,0,1-3.82,1.64h-1.46v-2.92h1.46a2.33,2.33,0,0,0,1.86-.87q.87-1,2.11-5.14l-5.32-14.1-.77-2h3.14l.33.95,4.15,10.93,4.08-10.93Z"/><path d="M335.64,21a10.21,10.21,0,0,1-2.11,2.48,11,11,0,0,1-7.22,2.77,10,10,0,0,1-7.54-3.47,12.65,12.65,0,0,1-3.35-8.92,12.67,12.67,0,0,1,3.38-9,9.83,9.83,0,0,1,7.51-3.42,10.79,10.79,0,0,1,4.85,1.2,9.73,9.73,0,0,1,4.44,4.15L333,8.13a5.93,5.93,0,0,0-1.35-1.72,7.85,7.85,0,0,0-5.32-2A7.35,7.35,0,0,0,321,6.81a10,10,0,0,0-2.62,7,10.29,10.29,0,0,0,2.08,6.37,7.15,7.15,0,0,0,5.9,3.1,7.63,7.63,0,0,0,3-.62,7.41,7.41,0,0,0,3.79-3.17Z"/><path d="M353.53,22.81a8.05,8.05,0,0,1-6.78,3.43,7.57,7.57,0,0,1-5.25-2.12,8.67,8.67,0,0,1-2.76-6.63,9,9,0,0,1,2.07-5.9,7.49,7.49,0,0,1,5.94-2.84A7.38,7.38,0,0,1,352,10.86a8.61,8.61,0,0,1,2.81,6.63V19h-13a6.35,6.35,0,0,0,.87,2,4.68,4.68,0,0,0,4.08,2.33,5.39,5.39,0,0,0,4.45-2.26ZM351.85,16a3.76,3.76,0,0,0-1-2.29,5.16,5.16,0,0,0-4.12-2.08,4.44,4.44,0,0,0-2.15.55A5.41,5.41,0,0,0,341.8,16Z"/><path d="M366.72,8.75h1.46v2.91h-1.46a4.33,4.33,0,0,0-2.18.55c-1.63.9-2.46,2.58-2.48,5.06v9h-2.92V8.75h2.92v1.53A7.49,7.49,0,0,1,366.72,8.75Z"/><path d="M374.63,21.1c0,1.43.91,2.17,2.66,2.22h1.46v2.92h-1.46a8.51,8.51,0,0,1-1.93-.22q-3.64-.84-3.65-4.89V11.66h-2.44V8.75h2.44V4.92l0-1.42h2.95l0,1.46V8.75h4.08v2.91h-4.08Z"/><path d="M381.84,6.52V3.61h3V6.52h-3Zm0,2.23h2.92V26.24h-2.92V8.75Z"/><path d="M395.51,8.75H397v2.91h-4.16V26.24H389.9V11.66h-2.41V8.75h2.44a19.37,19.37,0,0,1,.44-3.07c.8-3.32,2.51-5,5.14-5H397V3.61h-1.46c-1.51,0-2.38,1.73-2.63,5.14Z"/><path d="M400.06,6.52V3.61H403V6.52h-2.95Zm0,2.23H403V26.24h-2.92V8.75Z"/><path d="M420.72,22.88a7.55,7.55,0,0,1-6.45,3.36,7.23,7.23,0,0,1-5.06-2.08,8.71,8.71,0,0,1-2.77-6.67,9,9,0,0,1,2.08-5.94,7.19,7.19,0,0,1,5.75-2.8,7.54,7.54,0,0,1,6.49,3.13l-2.4,1.68a4.7,4.7,0,0,0-4.09-1.9,4.24,4.24,0,0,0-2.95,1.17,5.85,5.85,0,0,0-2,4.66A6.56,6.56,0,0,0,410.3,21a4.47,4.47,0,0,0,4,2.37,5.13,5.13,0,0,0,4.12-2.11Z"/><path d="M426.08,11.55A7.39,7.39,0,0,1,432,8.75a7.47,7.47,0,0,1,5.1,2v-2H440V26.24h-2.91v-2a7.66,7.66,0,0,1-5.1,2,7.39,7.39,0,0,1-5.21-2.12,8.61,8.61,0,0,1-2.81-6.63A8.88,8.88,0,0,1,426.08,11.55ZM427.9,21A4.66,4.66,0,0,0,432,23.32,4.58,4.58,0,0,0,435,22.16a5.93,5.93,0,0,0,2-4.67A6.23,6.23,0,0,0,436,14a4.67,4.67,0,0,0-4-2.3,4.51,4.51,0,0,0-3.06,1.17,5.89,5.89,0,0,0-2,4.66A6.33,6.33,0,0,0,427.9,21Z"/><path d="M449,21.1c0,1.43.92,2.17,2.66,2.22h1.46v2.92h-1.46a8.58,8.58,0,0,1-1.93-.22q-3.65-.84-3.64-4.89V11.66h-2.44V8.75h2.44V4.92l0-1.42h3L449,5V8.75h4.08v2.91H449Z"/><path d="M470.06,22.81a8,8,0,0,1-6.77,3.43A7.53,7.53,0,0,1,458,24.12a8.64,8.64,0,0,1-2.77-6.63,9,9,0,0,1,2.07-5.9,7.49,7.49,0,0,1,6-2.84,7.41,7.41,0,0,1,5.21,2.11,8.6,8.6,0,0,1,2.8,6.63V19h-13a6.35,6.35,0,0,0,.87,2,4.69,4.69,0,0,0,4.09,2.33,5.39,5.39,0,0,0,4.44-2.26ZM468.39,16a3.78,3.78,0,0,0-1-2.29,5.15,5.15,0,0,0-4.11-2.08,4.45,4.45,0,0,0-2.16.55,5.41,5.41,0,0,0-2.8,3.82Z"/><path d="M.26,65.59a4.4,4.4,0,0,0,3.79-4.36v-.71H.41v-.87H8.56v.87H4.92v.71a4.3,4.3,0,0,0,3.79,4.21v1C6.8,66,4.85,64.9,4.49,63c-.37,2-2.32,3.23-4.23,3.6Zm3.45,2.13H9.58a2.59,2.59,0,1,1,0,5.16H3.71a2.59,2.59,0,1,1,0-5.16ZM9.54,72a1.73,1.73,0,1,0,0-3.42H3.76a1.73,1.73,0,1,0,0,3.42Zm1.58-4.81v-8H12v3.14h2v.87H12v4Z"/><path d="M15.42,72.13V59.88h6.9v.87h-6V71.16L23,70.44v.87Zm9.73.68V59.2H26v5.73h2.51v.89H26v7Z"/><path d="M35.26,70.14v-3.3H29.1V66H42.26v.87H36.13v3.3ZM32.43,64.5a2.57,2.57,0,0,1,0-5.13h6.5a2.57,2.57,0,0,1,0,5.13Zm-2.3,8.31v-4.2H31v3.33H41.45v.87Zm8.7-9.2a1.68,1.68,0,0,0,0-3.36H32.54a1.68,1.68,0,1,0,0,3.36Z"/><path d="M2.59,100.73H1.76V88.87H0v-.69c1.17,0,1.75-.29,1.75-1h.81Z"/><path d="M5.62,97.51h.83v.64a2.15,2.15,0,0,0,2.43,2.13,2.15,2.15,0,0,0,2.43-2.13V94.09a2.86,2.86,0,0,1-2.65,1.38,2.77,2.77,0,0,1-3.09-2.9V89.84C5.57,88,7,87,8.85,87s3.29,1.06,3.29,2.89v8.28c0,1.83-1.4,2.9-3.26,2.9S5.62,100,5.62,98.12Zm5.69-4.91V89.81a2.18,2.18,0,0,0-2.46-2.13A2.18,2.18,0,0,0,6.4,89.81V92.6a2.13,2.13,0,0,0,2.39,2.15A2.23,2.23,0,0,0,11.31,92.6Z"/><path d="M14.29,97.51h.83v.64a2.15,2.15,0,0,0,2.43,2.13A2.15,2.15,0,0,0,20,98.15V94.09a2.86,2.86,0,0,1-2.65,1.38,2.77,2.77,0,0,1-3.08-2.9V89.84C14.25,88,15.66,87,17.52,87s3.29,1.06,3.29,2.89v8.28c0,1.83-1.4,2.9-3.26,2.9s-3.26-1.07-3.26-2.9ZM20,92.6V89.81a2.18,2.18,0,0,0-2.46-2.13,2.17,2.17,0,0,0-2.44,2.13V92.6a2.13,2.13,0,0,0,2.38,2.15A2.23,2.23,0,0,0,20,92.6Z"/><path d="M22.45,87.23H29V88l-4.54,12.79h-.87L28.11,88H22.45Z"/><path d="M30.21,100.3V99.17H31.3v1.13Z"/><path d="M34.5,89.84C34.5,88,35.91,87,37.77,87s3.28,1.06,3.28,2.89v8.28c0,1.83-1.41,2.9-3.28,2.9S34.5,100,34.5,98.12Zm.83,8.28a2.17,2.17,0,0,0,2.44,2.16,2.18,2.18,0,0,0,2.45-2.16V89.84a2.18,2.18,0,0,0-2.45-2.16,2.18,2.18,0,0,0-2.44,2.16Z"/><path d="M45.51,93.79v-.66l.73,0c1.25,0,2.59-.69,2.59-2V89.83a2.13,2.13,0,0,0-2.43-2.15c-1.61,0-2.49.84-2.49,2.15v.76h-.83v-.75C43.08,88,44.39,87,46.4,87s3.25,1.06,3.25,2.89v1.23a2.5,2.5,0,0,1-2.39,2.36c1.36.15,2.53.75,2.53,2.62v2.07c0,1.83-1.36,2.9-3.42,2.9s-3.43-1.07-3.43-2.9V96.67h.83v1.47c0,1.3.94,2.14,2.6,2.14S49,99.44,49,98.14V96c0-1.55-1-2.18-2.75-2.21Z"/><path d="M51.62,100.3V99.17h1.1v1.13Z"/><path d="M61.33,89.84A2.09,2.09,0,0,0,59,87.68c-1.59,0-2.39.86-2.39,2.16v.9h-.83v-.9C55.73,88,57,87,59,87s3.21,1.06,3.21,2.89v.8c0,1.57-.89,2.28-2.92,4.23s-2.8,2.58-2.8,3.75V100h5.84v.75H55.63v-2.1c0-1.38.87-2.3,3-4.29s2.69-2.46,2.69-3.69Z"/><path d="M63.48,87.23H70V88l-4.54,12.79h-.87L69.14,88H63.48Z"/><path d="M.48,128.72V117.93H1.3v1l2.18-.9c1.21-.49,2-.06,2.17,1l2.27-1c1.38-.6,2.2.08,2.2,1.46v9.18h-.8v-8.87c0-.94-.51-1.38-1.43-1l-2.18.94v8.9h-.8v-8.87c0-1-.51-1.36-1.46-1l-2.15.89v9Z"/><path d="M12.06,120.54c0-1.75,1.33-2.76,3.26-2.76s3.28,1,3.28,2.76v5.69c0,1.78-1.35,2.77-3.28,2.77s-3.26-1-3.26-2.77Zm.8,5.6c0,1.32.88,2.14,2.46,2.14s2.48-.82,2.48-2.14v-5.49c0-1.34-.9-2.15-2.48-2.15s-2.46.81-2.46,2.15Z"/><path d="M20.43,120.54c0-1.75,1.32-2.76,3.26-2.76s3.28,1,3.28,2.76v5.69C27,128,25.61,129,23.69,129s-3.26-1-3.26-2.77Zm.8,5.6c0,1.32.87,2.14,2.46,2.14s2.48-.82,2.48-2.14v-5.49c0-1.34-.91-2.15-2.48-2.15s-2.46.81-2.46,2.15Z"/><path d="M29.06,128.72V117.93h.81V119l3.21-1c1.44-.44,2.24.09,2.24,1.45v9.26H34.5v-9c0-.94-.49-1.29-1.48-1l-3.15,1v9Z"/><path d="M43,125.48h.8v.7c0,1.82-1.36,2.82-3.24,2.82s-3.26-1-3.26-2.82V120.6c0-1.81,1.34-2.82,3.25-2.82s3.25,1,3.25,2.82v2.85h-5.7v2.66c0,1.35.92,2.17,2.45,2.17s2.45-.82,2.45-2.17Zm-4.9-2.75H43v-2.07a2.15,2.15,0,0,0-2.45-2.16c-1.53,0-2.45.83-2.45,2.16Z"/><path d="M45.73,117.84C45.73,116,47.14,115,49,115s3.27,1.06,3.27,2.89v8.28c0,1.83-1.41,2.9-3.27,2.9s-3.28-1.07-3.28-2.9Zm.83,8.28A2.18,2.18,0,0,0,49,128.28a2.17,2.17,0,0,0,2.44-2.16v-8.28A2.18,2.18,0,0,0,49,115.68a2.19,2.19,0,0,0-2.45,2.16Z"/><path d="M56.75,121.79v-.66l.72,0c1.26,0,2.6-.69,2.6-2v-1.29a2.14,2.14,0,0,0-2.44-2.15c-1.61,0-2.48.84-2.48,2.15v.76h-.83v-.75c0-1.83,1.31-2.89,3.31-2.89s3.25,1.06,3.25,2.89v1.23a2.5,2.5,0,0,1-2.39,2.36c1.36.15,2.54.75,2.54,2.62v2.07c0,1.83-1.37,2.9-3.42,2.9s-3.44-1.07-3.44-2.9v-1.45H55v1.47c0,1.3,1,2.14,2.61,2.14s2.59-.84,2.59-2.14V124c0-1.55-1-2.18-2.75-2.21Z"/><path d="M68.49,117.84a2.1,2.1,0,0,0-2.39-2.16c-1.58,0-2.38.86-2.38,2.16v.9h-.83v-.9c0-1.83,1.22-2.89,3.21-2.89s3.22,1.06,3.22,2.89v.8c0,1.57-.89,2.28-2.93,4.23s-2.79,2.58-2.79,3.75V128h5.84v.75H62.78v-2.1c0-1.38.88-2.3,3-4.29s2.69-2.46,2.69-3.69Z"/><path d="M70.64,115.23h6.52V116l-4.54,12.79h-.87L76.3,116H70.64Z"/><path d="M87,126.26c-.11,1.89-2.12,2.74-4.18,2.76s-4.17-1-4.17-2.84v-8.41c0-1.89,2.09-2.84,4.17-2.84s4.15.95,4.15,2.84v6c0,1.19-.63,1.65-1.47,1.65s-1.29-.4-1.36-1.18l-1.74.91c-.89.47-1.62.14-1.62-.9v-4.14c0-1,.48-1.45,1.32-1.45H84a.69.69,0,0,1,.75.76v4.7c0,.54.32.7.75.7.61,0,.8-.37.8-.94v-6.08c0-1.47-1.74-2.25-3.48-2.25s-3.48.78-3.48,2.25v8.31c0,1.47,1.57,2.27,3.48,2.27s3.38-.77,3.43-2.13ZM84,123.62v-3.81c0-.41-.13-.51-.44-.51H82.31c-.61,0-.89.22-.89,1V124c0,.69.32.82,1,.51Z"/><path d="M89.1,128.52v-.37h.82v.27c0,1,.74,1.87,2.33,1.87s2.34-.9,2.34-1.89v-2.28l-3.3.95c-1.44.4-2.24-.11-2.24-1.44v-5.3a2.1,2.1,0,0,1,2.4-2.4h4v10.58c0,1.45-1.21,2.5-3.18,2.5S89.1,130,89.1,128.52Zm5.49-3.13v-6.74H91.8c-1.43,0-1.94.51-1.94,1.94v4.75c0,.93.54,1.25,1.49,1Z"/><path d="M103.85,128.72H103v-1.07l-3.27,1c-1.39.4-2.25-.12-2.25-1.46v-2a2.16,2.16,0,0,1,2.45-2.42H103v-2.22c0-1.21-.74-2-2.27-2s-2.23.81-2.23,2V121h-.81v-.63c0-1.67,1.16-2.64,3-2.64s3.09,1,3.09,2.65ZM98.32,127c0,1,.55,1.21,1.48.93l3.23-1v-3.47h-2.78c-1.42,0-1.93.42-1.93,1.86Z"/><path d="M106.05,128.72V117.93h.82v1l2.18-.9c1.21-.49,2-.06,2.17,1l2.27-1c1.39-.6,2.2.08,2.2,1.46v9.18h-.8v-8.87c0-.94-.51-1.38-1.43-1l-2.18.94v8.9h-.8v-8.87c0-1-.51-1.36-1.46-1l-2.15.89v9Z"/><path d="M117.9,116.79v-1.56h.81v1.56Zm0,11.93V117.93h.81v10.79Z"/><path d="M121.07,128.72V115.23h.82v13.49Z"/><path d="M123.91,128.3v-1.13H125v1.13Z"/><path d="M133.67,125.22h.82v1c0,1.8-1.33,2.79-3.22,2.79s-3.22-1-3.22-2.79v-5.64c0-1.81,1.32-2.79,3.21-2.79s3.21,1,3.21,2.79v.78h-.8v-.69a2.42,2.42,0,0,0-4.81,0v5.45a2.1,2.1,0,0,0,2.4,2.17c1.53,0,2.41-.82,2.41-2.17Z"/><path d="M136.25,120.54c0-1.75,1.32-2.76,3.26-2.76s3.27,1,3.27,2.76v5.69c0,1.78-1.35,2.77-3.27,2.77s-3.26-1-3.26-2.77Zm.8,5.6c0,1.32.87,2.14,2.46,2.14s2.47-.82,2.47-2.14v-5.49c0-1.34-.9-2.15-2.47-2.15s-2.46.81-2.46,2.15Z"/><path d="M144.87,128.72V117.93h.82v1l2.18-.9c1.21-.49,2-.06,2.17,1l2.27-1c1.39-.6,2.2.08,2.2,1.46v9.18h-.8v-8.87c0-.94-.51-1.38-1.43-1l-2.18.94v8.9h-.8v-8.87c0-1-.51-1.36-1.46-1l-2.15.89v9Z"/><path d="M13.16,320.62H7v1.74h3A2.33,2.33,0,1,1,10,327H3.16a2.33,2.33,0,1,1,0-4.65h3v-1.74H0v-.87H13.16Zm-12.39-2v-.87c2.68-.09,5.36-1.29,5.36-2.79v-.34H1v-.87H12.13v.87H7V315c0,1.5,2.68,2.7,5.36,2.79v.87c-2.77-.1-5.24-1.15-5.81-2.57C6,317.47,3.54,318.52.77,318.62Zm9.11,4.61H3.26a1.46,1.46,0,1,0,0,2.91H9.88a1.46,1.46,0,1,0,0-2.91Z"/><path d="M15.07,317.26v-.88c0-2,1.72-3,3.82-3s3.81,1,3.81,3v.88c0,2-1.7,3-3.81,3S15.07,319.26,15.07,317.26ZM15.8,327v-3.29H26.22v-1.5H15.8v-.88H27.1v3.22H16.68v1.58h10.7V327Zm6-9.78v-.78c0-1.43-1.25-2.19-2.93-2.19S16,315,16,316.44v.78c0,1.42,1.26,2.17,2.95,2.17S21.83,318.64,21.83,317.22Zm4.39,3.34v-7.17h.88v7.17Z"/><path d="M29.1,326.55v-.89h5.4v-6.27h.88v6.27h6.88v.89Zm10.66-3.17.62-8.71H30.06v-.88H41.3l-.67,9.59Z"/><path d="M43.65,320.67v-.87H56.81v.87Zm3.16,1.51h6.84a2.42,2.42,0,0,1,0,4.83H46.81a2.42,2.42,0,0,1,0-4.83Zm-2.12-4.08v-4.47H55.78v.87H45.56v2.73H55.85v.87Zm8.85,8a1.55,1.55,0,1,0,0-3.09H46.91a1.55,1.55,0,1,0,0,3.09Z"/><path d="M58.35,315.6v-.89h3.86V313h.87v1.69h3.86v.89Zm2.53,1.07h3.54a2.18,2.18,0,0,1,0,4.36H60.88a2.18,2.18,0,0,1,0-4.36Zm-1.57,6.67v-.87H70.2v4.68h-.88v-3.81Zm4.86-3.18a1.32,1.32,0,1,0,0-2.62H61.11a1.32,1.32,0,1,0,0,2.62Zm5.15,1.53v-8.3h.88v3.28h2v.87h-2v4.15Z"/><path d="M72.75,326.55v-.89h3.38v-6.08H77v6.08h3v-6.08h.88v6.08h5v.89Zm10.66-3.18.62-8.7H73.71v-.88H85l-.67,9.58Z"/><path d="M91.67,320.42v-.89h6.14V317.7h.87v1.83h6.15v.89Zm.77-3.17c2.68-.08,5.18-1.25,5.33-2.45v-.18H92.7v-.87h11.09v.87H98.74v.18c.15,1.2,2.65,2.37,5.31,2.45v.87c-2.78-.09-5.25-1.1-5.8-2.45-.56,1.35-3,2.36-5.81,2.45ZM92.7,327v-3.11h10.23v-1.3H92.7v-.87h11.09v3H93.56v1.37H104V327Z"/><path d="M117.89,313.39h.87v7.08h-.87v-3.24h-3.84v.06c0,2-1.65,3-3.66,3s-3.65-1-3.65-3v-.91c0-2,1.64-3,3.65-3s3.64,1,3.66,3h3.84Zm0,9.59v-1.81h.87V327h-.87v-.47l-10.42.47v-5.83h.87V323Zm-4.72-6.54c0-1.44-1.19-2.19-2.76-2.19s-2.8.75-2.8,2.19v.81c0,1.42,1.2,2.17,2.8,2.17s2.76-.75,2.76-2.17Zm4.72,9.22v-1.8h-9.55v2.22Z"/><path d="M6.14,355.15v-4.61H0v-.88H13.16v.88H7v4.61ZM4,347.71a3,3,0,1,1,0-6h5.1a3,3,0,1,1,0,6Zm5-.87a2.18,2.18,0,1,0,0-4.28H4.16a2.18,2.18,0,1,0,0,4.28Z"/><path d="M14.55,348.86V348h6.14v-2.13h.88V348h6.14v.88Zm.77-3.61c2.56-.11,5.37-1.37,5.37-3.11v-.77h.88v.77c0,1.74,2.82,3,5.37,3.11v.87c-2.64-.09-5.2-1.28-5.81-2.69-.61,1.41-3.17,2.6-5.81,2.69Zm2.39,5.11h6.84a2.33,2.33,0,1,1,0,4.65H17.71a2.33,2.33,0,1,1,0-4.65Zm6.73,3.78a1.46,1.46,0,1,0,0-2.91H17.81a1.46,1.46,0,1,0,0,2.91Z"/><path d="M29.74,354.32V342.07h5.64v.87H30.62v10.41l5.19-.57v.88Zm7.35.68V341.39H38v5.87h3v-5.87h.87V355h-.87v-6.86H38V355Z"/><path d="M43.8,343.6v-.89h3.85V341h.88v1.69h3.85v.89Zm2.53,1.07h3.54a2.18,2.18,0,0,1,0,4.36H46.33a2.18,2.18,0,0,1,0-4.36Zm-1.57,6.67v-.87H55.65v4.68h-.88v-3.81Zm4.86-3.18a1.32,1.32,0,1,0,0-2.62H46.56a1.32,1.32,0,1,0,0,2.62Zm5.15,1.53v-8.3h.88v3.28h2v.87h-2v4.15Z"/><path d="M58.2,354.55v-.89h3.38v-6.08h.87v6.08h3v-6.08h.88v6.08h5v.89Zm10.66-3.18.62-8.7H59.16v-.88H70.4l-.67,9.58Z"/><path d="M79.78,355.07l1-4.56H77.12v-.87H90.28v.87H87v4.56H86.1v-4.56H81.73l-1,4.56Zm1.37-7.36a3,3,0,1,1,0-6h5.09a3,3,0,1,1,0,6Zm5-.87c1.49,0,2.58-.87,2.58-2.13a2.3,2.3,0,0,0-2.58-2.15H81.28a2.18,2.18,0,1,0,0,4.28Z"/><path d="M92.19,351.07V345a3.61,3.61,0,0,1,7.22,0v6.09a3.61,3.61,0,0,1-7.22,0Zm6.35,0v-6.18a2.75,2.75,0,0,0-5.48,0v6.18a2.75,2.75,0,0,0,5.48,0Zm4.13,3.89V341.39h.87v5.73h2.1V348h-2.1v7Z"/><path d="M106.21,354.55v-.89h3.38v-6.08h.88v6.08h3v-6.08h.87v6.08h5v.89Zm10.66-3.18.63-8.7H107.18v-.88h11.23l-.67,9.58Z"/><path d="M133.93,348.61h-3.31v2.17h2.27v4.37H132v-3.48H121.73v-.89h2.19l.53-2.17h-3.68v-.89h13.16Zm-9.83-2.32a2.37,2.37,0,1,1,0-4.73h6.49a2.37,2.37,0,1,1,0,4.73Zm.1-3.84a1.5,1.5,0,0,0-1.67,1.47,1.52,1.52,0,0,0,1.67,1.5h6.29a1.52,1.52,0,0,0,1.67-1.5,1.5,1.5,0,0,0-1.67-1.47Zm.63,8.33h4.92v-2.17h-4.4Z"/><path d="M135.43,354.56v-.87l3.66-.27v-6.54H140v6.48l5.39-.37v.87Zm7.13-3.57.47-8.32h-6.77v-.88H144l-.51,9.2Zm3.76,4V341.39h.87v5.73h2.1V348h-2.1v7Z"/><path d="M154.23,348.42v-.89h6.14V345.7h.88v1.83h6.14v.89Zm.77-3.17c2.68-.08,5.18-1.25,5.33-2.45v-.18h-5.07v-.87h11.1v.87H161.3v.18c.15,1.2,2.66,2.37,5.32,2.45v.87c-2.78-.09-5.26-1.1-5.81-2.45-.55,1.35-3,2.36-5.81,2.45Zm.26,9.75v-3.11H165.5v-1.3H155.26v-.87h11.1v3H156.12v1.37h10.45V355Z"/><path d="M180.46,341.39h.87v7.08h-.87v-3.24h-3.85v.06c0,2-1.64,3-3.65,3s-3.66-1-3.66-3v-.91c0-2,1.65-3,3.66-3s3.64,1,3.65,3h3.85Zm0,9.59v-1.81h.87V355h-.87v-.47L170,355v-5.83h.88V351Zm-4.72-6.54c0-1.44-1.2-2.19-2.77-2.19s-2.79.75-2.79,2.19v.81c0,1.42,1.19,2.17,2.79,2.17s2.77-.75,2.77-2.17Zm4.72,9.22v-1.8h-9.55v2.22Z"/><path d="M.92,373.12c0,1.06.84,1.43,2.87,2.35,2.82,1.26,3.34,1.86,3.34,3.51v1.36c0,1.86-1.5,2.87-3.58,2.87S0,382.2,0,380.34v-1.26H.82v1.23c0,1.32,1.09,2.15,2.75,2.15s2.75-.83,2.75-2.15v-1.2c0-1.44-.63-1.86-2.87-2.86C.9,375.12.09,374.54.09,373.13V372c0-1.86,1.43-2.87,3.48-2.87s3.48,1,3.48,2.87v1.18H6.22V372c0-1.32-1-2.14-2.65-2.14S.92,370.68.92,372Z"/><path d="M9.1,382.91V369.42h4.2c1.76,0,2.56.66,2.56,2.45v1.81a2,2,0,0,1-2.15,2.22,2.09,2.09,0,0,1,2.3,2.24v2.25c0,1.75-.7,2.52-2.55,2.52Zm6-10.77c0-1.46-.54-2-2-2H9.91v5.42h2.91c1.44,0,2.23-.52,2.23-2Zm-5.14,4.17v5.85h3.23c1.47,0,2.06-.42,2.06-1.89v-2.06c0-1.44-.85-1.9-2.26-1.9Z"/><path d="M18.58,373.12c0,1.06.85,1.43,2.87,2.35,2.82,1.26,3.35,1.86,3.35,3.51v1.36c0,1.86-1.5,2.87-3.58,2.87s-3.56-1-3.56-2.87v-1.26h.82v1.23c0,1.32,1.09,2.15,2.75,2.15s2.75-.83,2.75-2.15v-1.2c0-1.44-.62-1.86-2.87-2.86-2.54-1.13-3.36-1.71-3.36-3.12V372c0-1.86,1.43-2.87,3.48-2.87s3.48,1,3.48,2.87v1.18h-.83V372c0-1.32-1-2.14-2.65-2.14s-2.65.8-2.65,2.12Z"/><path d="M31.08,379.07V373a3.44,3.44,0,0,1,3.61-3.48A3.43,3.43,0,0,1,38.3,373v6.09a3.43,3.43,0,0,1-3.61,3.48A3.44,3.44,0,0,1,31.08,379.07Zm6.35,0v-6.18a2.75,2.75,0,0,0-5.48,0v6.18a2.57,2.57,0,0,0,2.74,2.55A2.57,2.57,0,0,0,37.43,379.11ZM41.56,383V369.39h.87v5.73h2.1V376h-2.1v7Z"/><path d="M45.63,370.94v-.87H53v.76c0,6.93-2.81,10.64-7.5,11.64v-.93a7.92,7.92,0,0,0,6-5.59H45.78v-.87h5.95a17.35,17.35,0,0,0,.44-4.14Zm11.24,4.18h2.21V376H56.87v7H56V369.39h.88Z"/><path d="M60.29,382.32V370.07H66v.87H61.17v10.41l5.27-.57v.88Zm7.88.68v-6.86h-3.4v-.87h3.4v-5.88H69V383Zm3.3,0V369.39h.88V383Z"/><path d="M74.85,382.32V370.07h7.29v12.25h-.87v-.76Zm.87-1,5.55-.65v-9.73H75.72Zm10,1.68V369.39h.87V383Z"/><path d="M104.56,369.39h.88v7.76h-.88v-3.53h-4.42c-1.2,2.06-3.63,3-6.57,3.09v-.87c2.56-.13,4.6-.88,5.68-2.39H93.79v-.87h5.92a5.12,5.12,0,0,0,.35-2H93.64v-.89H101v.56a7.34,7.34,0,0,1-.39,2.46h4ZM94.37,383v-5.1h11.07V383h-.88v-.47Zm.88-4.23v3.3l9.31-.42v-2.88Z"/><path d="M107.67,378.63v-.88h13.16v.88h-3.3v4.44h-.88v-4.44h-4.36l-1.05,4.44h-.91l1-4.44Zm.6-2.77V375h2.79l-.36-3.79h.89l.35,3.79h4.64l.35-3.79h.89l-.37,3.79h2.78v.87Zm.14-5.19v-.88h11.68v.88Z"/><path d="M122.86,370.94v-.87H130v.87Zm0,11.38v-8.66h7v.88h-6.13v6.81l7.3-.69v.87Zm11,.68v-5.43h-4.24v-.87h4.24v-7.31h.87V383Z"/><path d="M141.28,371.6v-.89h3.86V369H146v1.69h3.86v.89Zm2.53,1.07h3.54a2.18,2.18,0,0,1,0,4.36h-3.54a2.18,2.18,0,0,1,0-4.36Zm-1.57,6.67v-.87h10.89v4.68h-.87v-3.81Zm4.86-3.18a1.32,1.32,0,1,0,0-2.62h-3a1.32,1.32,0,1,0,0,2.62Zm5.16,1.53v-8.3h.87v3.28h2v.87h-2v4.15Z"/><path d="M159.43,379.44l.58-3.34h-4.44v-.87H166v.87H160.9l-.57,3.34Zm-.62-5.41a2.23,2.23,0,1,1,0-4.45h3.66a2.23,2.23,0,1,1,0,4.45Zm-1.64,9v-4.16H158v3.29h10.4V383Zm5.18-9.86a1.35,1.35,0,1,0,0-2.68H159a1.36,1.36,0,1,0,0,2.68Zm5,7.22v-1.77h-4.84v-.87h4.84v-8.33h.87v11Z"/><path d="M181.25,369.42h.83v10.92c0,1.86-1.53,2.87-3.55,2.87s-3.55-1-3.55-2.87V369.42h.83v10.89c0,1.32,1.12,2.15,2.72,2.15s2.72-.83,2.72-2.15Z"/><path d="M185.24,369.42v13.49h-.82V369.42Z"/><path d="M190.1,368.66v15h-.79v-15Z"/><path d="M200.25,369.42h.83v10.92c0,1.86-1.53,2.87-3.55,2.87s-3.55-1-3.55-2.87V369.42h.83v10.89c0,1.32,1.12,2.15,2.72,2.15s2.72-.83,2.72-2.15Z"/><path d="M203.35,369.42l2.91,5.73,2.81-5.73h.9L206.71,376l3.53,6.9h-.91l-3.07-6.05-3,6.05h-.9l3.42-6.9-3.38-6.59Z"/><path d="M221.69,383.15v-4.76h-6.15v-.88H228.7v.88h-6.14v4.76Zm-5.59-8.37c2.79-.12,5.59-2.08,5.59-4.19v-.88h.87v.88c0,2.11,2.81,4.07,5.59,4.19v.87c-2.84-.09-5.42-1.77-6-3.61-.61,1.84-3.17,3.52-6,3.61Z"/><path d="M230.09,382.55v-.89h3.55v-3.43h.88v3.43h4.32v-3.43h.87v3.43h3.54v.89Zm1-5.22v-4.25h10.22v-2.41H231.13v-.88h11.09V374H232v2.48h10.36v.89Z"/><path d="M321.67,320.28h6.15v.87H314.66v-.87h6.14v-2.13h-5.11v-4.52h11.09v.84H316.56v2.84h10.29v.84h-5.18Zm-6,3.31v-.88h11.15v4.44h-.87v-3.56Z"/><path d="M329.32,325.15a8.5,8.5,0,0,0,4.08-6.79V313.8h.87v4.56a8.5,8.5,0,0,0,4.08,6.79v1.11a9.43,9.43,0,0,1-4.52-5.71,9.38,9.38,0,0,1-4.51,5.71Zm7.76-5.68v-.87h3.67v-5.21h.87V327h-.87v-7.53Z"/><path d="M323.4,347.29v-5.9h.88V355h-.88v-6.84h-3.1c-.87,3.6-2.72,5.53-5.27,6.31v-.93c3.41-1.18,5-4.74,5-10.6h-4.87v-.87h5.75v.69a25.21,25.21,0,0,1-.37,4.53Zm3.08-5.9h.87V355h-.87Z"/><path d="M329.73,345.45v-1.07c0-2,1.72-3,3.81-3s3.82,1,3.82,3v1.07c0,2-1.71,3-3.82,3S329.73,347.44,329.73,345.45Zm.73,9.55v-5.42h11.29V355h-.87v-.47Zm6-9.6v-1c0-1.44-1.25-2.19-2.92-2.19s-3,.75-3,2.19v1c0,1.43,1.27,2.18,3,2.18S336.48,346.83,336.48,345.4Zm-5.15,8.68,9.55-.43v-3.19h-9.55Zm9.55-5.28v-7.41h.87v7.41Z"/><path d="M314.66,382.55v-.89h13.16v.89Zm10.42-3.21.83-8.67H315.62v-.88h11.23l-.9,9.55Z"/><path d="M329.85,377v-4.25H336v-2.11h-6.18v-.89h7.06v3.87h-6.19V376l7.34-.54v.87Zm.61,6v-4.88h11.29V383h-.87v-.47Zm.87-.92,9.55-.43V379h-9.55Zm9.55-4.74v-7.95h.87v7.95Z"/><path d="M348.12,382.55v-.89h13.16v.89Zm10.42-3.21.83-8.67H349.08v-.88h11.24l-.9,9.55Z"/><path d="M363.31,382.32v-6.93h6.3v-4.45h-6.3v-.87h7.18v6.19h-6.31v5.09l7.44-.72v.87Zm11,.68V369.39h.87V383Z"/><path d="M377.6,381.54c4.32-1,6.83-4.37,6.8-10.6h-6.73v-.87h7.6v.76c0,6.93-2.9,10.64-7.67,11.64ZM388.76,383V369.39h.88V383Z"/><path d="M418.39,326.32V314.07h7.29v12.25h-.87v-.76Zm.87-1,5.55-.65v-9.73h-5.55Zm10,1.68V313.39h.87V327Z"/><path d="M432.56,319.59c1.67-.6,3.71-2.24,3.71-4.35v-1.66h.87v1.66c0,2,2,3.61,3.71,4.2v1c-1.73-.54-3.75-2-4.14-3.61-.4,1.72-2.43,3.21-4.15,3.76Zm3.8,2.2h5.91a2.65,2.65,0,1,1,0,5.28h-5.91a2.65,2.65,0,1,1,0-5.28Zm5.86,4.41a1.78,1.78,0,1,0,0-3.52H436.4a1.78,1.78,0,1,0,0,3.52Zm1.63-4.95v-7.86h.88v7.86Z"/><path d="M423.89,355.15v-4.61h-6.14v-.88h13.16v.88h-6.15v4.61Zm-2.11-7.44a3,3,0,1,1,0-6h5.09a3,3,0,1,1,0,6Zm5-.87c1.49,0,2.58-.87,2.58-2.13a2.3,2.3,0,0,0-2.58-2.15h-4.83a2.18,2.18,0,1,0,0,4.28Z"/><path d="M445.46,347.74h-6.15v1.93h5.11v3.05H434.2v1.41h10.44V355H433.33v-3.12h10.22v-1.34H433.33v-.87h5.11v-1.93H432.3v-.87h13.16Zm-2-3.84.13-1.4H433.37v-.87h11.12l-.39,4.52h-.87l.13-1.36h-9.84v-.89Z"/><path d="M447.37,348.34v-3.93h4.31l.25-1.8h-4.56v-.89h5.53l-.45,3.57h-4.21v2.09l5.74-.45v.88ZM448,355v-3.21h10.69v-1.44H448v-.89h11.56v3.17H448.85v1.5h10.91V355Zm7.82-6.3v-3.57h-2.33v-.87h2.33v-2.87h.87v7.31Zm2.87,0v-7.31h.87v7.31Z"/><path d="M461.92,354.32v-6.93H466l.45-4.45h-4.57v-.87h5.52l-.6,6.21h-4v5l5.62-.69v.88Zm8.43.68v-7H468v-.89h2.33v-5.73h.87V355Zm2.87,0V341.39h.87V355Z"/><path d="M418.27,382.91V369.42h1.12l4,12.45,3.87-12.45h1.11v13.49h-.83V371.06l-3.73,11.85h-.87L419.07,371v11.87Z"/><path d="M437.73,380.34c0,1.79-.81,2.57-2.57,2.57h-4.35V369.42h4.35c1.76,0,2.57.79,2.57,2.57Zm-.82-8.2c0-1.46-.54-2-2-2h-3.29v12h3.29c1.45,0,2-.51,2-2Z"/><path d="M444.49,376.54v-6.82h7.09v6.82Zm.73,6.46v-4.71h.87v3.84h10.16V383Zm.14-7.35h5.34v-5h-5.34Zm9.73,3.7v-10H456v4h2v.89h-2v5.06Z"/><path d="M458.51,376.07v-.87h13.16v.87Zm1-2.49v-3.95h11.09v.87H460.42v2.21h10.29v.87Zm0,9.42v-3.18h10.22v-1.4H459.55v-.87h11.09v3.11H460.42v1.47h10.44V383Z"/><path d="M473.44,381.54c4.33-1,6.83-4.37,6.8-10.6h-6.72v-.87h7.59v.76c0,6.93-2.89,10.64-7.67,11.64ZM484.61,383V369.39h.87V383Z"/><path d="M319,66.67V66h3v4.2C322,72,320.51,73,318.5,73S315,72,315,70.15V61.8c0-1.86,1.48-2.87,3.5-2.87s3.51,1,3.51,2.87V63h-.81v-1.2c0-1.32-1.09-2.15-2.7-2.15s-2.67.83-2.67,2.15v8.29c0,1.32,1.07,2.15,2.69,2.15s2.69-.83,2.69-2.15V66.67Z"/><path d="M323,59.23h7.44V60h-3.3V72.72h-.83V60H323Z"/><path d="M334.82,75V73c-1.82-.11-3.14-1.13-3.14-2.84V61.8c0-1.86,1.53-2.87,3.55-2.87s3.55,1,3.55,2.87v8.35c0,1.71-1.32,2.73-3.14,2.84v2Zm-2.31-4.91c0,1.32,1.12,2.15,2.72,2.15s2.72-.83,2.72-2.15V61.83c0-1.32-1.12-2.15-2.72-2.15s-2.72.83-2.72,2.15Z"/><path d="M344.86,72.36v-.89H351V67.78h.88v3.69H358v.89Zm.6-5.48V66h2.91l-.48-5h.89l.46,5h4.4l.48-5H355l-.5,5h2.91v.88Zm.14-6.4v-.89h11.68v.89Z"/><path d="M359.41,72.36v-.89h6.14V68.53h.88v2.94h6.14v.89Zm1-11.88v-.89h11.09v.89Zm0,7.14V62.5h11v.87H361.32v3.38h10.36v.87Z"/><path d="M374.22,64.83c1.71-.59,3.79-2.15,3.79-4.2V59.38h.87v1.25c0,2,2.08,3.61,3.79,4.2v1c-1.76-.53-3.83-2-4.22-3.6-.4,1.65-2.48,3.07-4.23,3.6Zm1,8V66.87h.88v1.87h9V66.87H386v5.94h-.88v-.45Zm.88-.92,9-.4V69.61h-9Zm9-5.71v-7H386v1.67h2v.88h-2V63.4h2v.89h-2v1.89Z"/><path d="M395.47,72.73h-.83V60.87h-1.73v-.69c1.16,0,1.74-.29,1.74-1h.82Z"/><path d="M398.14,65.52v-.89H411.3v.89Zm1,7.29V67h.87v1.81h9.35V67h.87v5.79h-.87v-.39Zm0-12.5v-.87h11.12l-.49,4H409l.42-3.14Zm.83,11.58,9.35-.34V69.72h-9.35Z"/><path d="M319,94.67V94h3v4.2c0,1.86-1.5,2.87-3.51,2.87S315,100,315,98.15V89.8c0-1.86,1.48-2.87,3.5-2.87s3.51,1,3.51,2.87V91h-.81v-1.2c0-1.32-1.09-2.15-2.7-2.15s-2.67.83-2.67,2.15v8.29c0,1.32,1.07,2.15,2.69,2.15s2.69-.83,2.69-2.15V94.67Z"/><path d="M323,87.23h7.44V88h-3.3v12.74h-.83V88H323Z"/><path d="M334.82,103v-2c-1.82-.11-3.14-1.13-3.14-2.84V89.8c0-1.86,1.53-2.87,3.55-2.87s3.55,1,3.55,2.87v8.35c0,1.71-1.32,2.73-3.14,2.84v2Zm-2.31-4.91c0,1.32,1.12,2.15,2.72,2.15s2.72-.83,2.72-2.15V89.83c0-1.32-1.12-2.15-2.72-2.15s-2.72.83-2.72,2.15Z"/><path d="M345.38,91.07v-.88c0-2,1.72-3,3.82-3s3.81,1,3.81,3v.88c0,2-1.7,3-3.81,3S345.38,93.07,345.38,91.07Zm.73,9.74V97.52h10.43V96H346.11v-.88h11.3v3.22H347v1.58h10.7v.87Zm6-9.78v-.78c0-1.43-1.25-2.19-2.93-2.19s-2.95.76-2.95,2.19V91c0,1.42,1.26,2.17,2.95,2.17S352.14,92.45,352.14,91Zm4.4,3.34V87.2h.87v7.17Z"/><path d="M360.05,100.13V93.2h5.36l.49-4.45h-5.85v-.87h6.8l-.64,6.21h-5.28v5.07l7.45-.72v.87Zm11,.68V93.32h-3.46v-.87h3.46V87.2H372v13.61Z"/><path d="M374,100.36v-.89h13.16v.89Zm.53-6.41c2.79-.18,5.61-2.38,5.61-4.6V87.44H381v1.91c0,2.22,2.84,4.42,5.62,4.6v.87c-2.81-.12-5.43-1.93-6.06-4-.62,2-3.23,3.84-6.05,4Z"/><path d="M388.51,100.36v-.89h13.16v.89Zm1-11.88v-.89h11.1v.89Zm0,7.14v-5h11v.87H390.42v3.29h10.36v.87Z"/><path d="M410,100.73h-.83V88.87h-1.73v-.69c1.16,0,1.74-.29,1.74-1H410Z"/><path d="M412.69,93.52v-.89h13.16v.89Zm1,7.29V95h.87v1.81H424V95h.87v5.79H424v-.39Zm0-12.5v-.87h11.12l-.49,4h-.89l.42-3.14Zm.83,11.58,9.35-.34V97.72H414.6Z"/><path d="M314.77,121.11v-.88h8.07v.88h-4l-1.08,2.78h-.93l1.08-2.78Zm2.69-5.73h2.84a1.92,1.92,0,1,1,0,3.83h-2.84a1.92,1.92,0,1,1,0-3.83Zm-1.19,13.43v-4.59h.87v1.24h9.45v-1.24h.88v4.59h-.88v-.47Zm3.9-10.47a1.15,1.15,0,0,0,1.23-1,1.13,1.13,0,0,0-1.23-1h-2.56a1.14,1.14,0,0,0-1.24,1,1.15,1.15,0,0,0,1.24,1Zm-3,9.55,9.45-.43v-1.11h-9.45Zm3.37-5V122h3.36V115.2h.87v8.45h-.87v-.81Zm6.08.81V115.2h.88v8.45Z"/><path d="M334.68,128.13V115.88h6.91v.87h-6v10.41l6.78-.72v.87Zm10.32.68V115.2h.87v13.61Z"/><path d="M348.24,127a8,8,0,0,0,4.06-6.61v-3.48h-3.61V116h8.09v.87h-3.61v3.48a8,8,0,0,0,4.08,6.61v1.11a8.65,8.65,0,0,1-4.51-5.47,8.73,8.73,0,0,1-4.5,5.47Zm10.89,1.85V115.2H360v5.73h2.09v.89H360v7Z"/><path d="M363.19,119.94V118.4c0-2.12,1.72-3.23,3.82-3.23s3.81,1.11,3.81,3.23v1.54c0,2.13-1.7,3.23-3.81,3.23S363.19,122.07,363.19,119.94Zm.85,8.87v-4.52h.87v3.65H375.5v.87ZM370,119.9v-1.44c0-1.56-1.25-2.4-2.93-2.4s-2.95.84-2.95,2.4v1.44c0,1.56,1.26,2.38,2.95,2.38S370,121.46,370,119.9Zm4.39,5.11V115.2h.88V125Z"/><path d="M382,127.35c4.33-1,6.83-4.38,6.8-10.6H382v-.87h7.6v.76c0,6.93-2.9,10.64-7.68,11.64Zm11.17,1.46V115.2H394v13.61Z"/><path d="M396.14,122.3v-.87h13.15v.87Zm3.15,1.69h6.85a2.42,2.42,0,0,1,0,4.83h-6.85a2.42,2.42,0,0,1,0-4.83Zm-2.12-4.41v-4.33H398v3.46h10.29v.87ZM406,128a1.55,1.55,0,1,0,0-3.09H399.4a1.55,1.55,0,1,0,0,3.09Z"/><path d="M410.8,127c1.54-.93,4.08-3.45,4.08-6.79v-4.56h.87v4.56c0,3.34,2.53,5.86,4.08,6.79v1.11a9.43,9.43,0,0,1-4.52-5.71,9.38,9.38,0,0,1-4.51,5.71Zm10.89,1.85V115.2h.87v5.73h2.1v.89h-2.1v7Z"/><path d="M429.86,121.46v-.87h2.2l-.51-3.69h.87l.5,3.69h2.71l.51-3.69H437l-.52,3.69h2.3v.87Zm.15-5v-.89h8.64v.89Zm.84,12.39v-3.39h10.31v-1.59H430.85v-.89H442v3.32h-10.3v1.68h10.58v.87Zm10.31-6.63v-7H442v7Z"/><path d="M444.53,127.35c4.32-1,6.83-4.38,6.8-10.6H444.6v-.87h7.6v.76c0,6.93-2.9,10.64-7.67,11.64Zm11.16,1.46V115.2h.88v13.61Z"/></g></g></svg>