<svg xmlns="http://www.w3.org/2000/svg" viewBox="0 0 68.82 21.13"><defs><style>.cls-1{fill:#fff;}</style></defs><g id="레이어_2" data-name="레이어 2"><g id="레이어_2-2" data-name="레이어 2"><rect width="68.82" height="21.13"/><path class="cls-1" d="M20.29,14.33H19.24l.29-.67,3.12-7.2.13-.29h.63l.13.29,3.12,7.2.29.67H25.9L25.77,14,23.09,7.86,20.42,14Z"/><path class="cls-1" d="M27.89,6.17V5.69h1V9.23a2.54,2.54,0,0,1,1.68-.66,2.43,2.43,0,0,1,1.72.7,2.85,2.85,0,0,1,.92,2.18,2.93,2.93,0,0,1-.7,2,2.49,2.49,0,0,1-3.62.26v.66h-1V6.17Zm1.3,6.45a1.56,1.56,0,0,0,2.35.37,1.94,1.94,0,0,0,.67-1.54,2,2,0,0,0-.35-1.16,1.51,1.51,0,0,0-1.33-.76,1.55,1.55,0,0,0-1,.39,2,2,0,0,0-.67,1.54A2.13,2.13,0,0,0,29.19,12.62Z"/><path class="cls-1" d="M34.84,9.5a2.47,2.47,0,0,1,3.65-.23,2.81,2.81,0,0,1,.92,2.18,2.93,2.93,0,0,1-.7,2,2.49,2.49,0,0,1-3.65.23,2.84,2.84,0,0,1-.93-2.19A2.91,2.91,0,0,1,34.84,9.5Zm.6,3.12a1.54,1.54,0,0,0,1.33.75,1.51,1.51,0,0,0,1-.38,1.94,1.94,0,0,0,.67-1.54,2.07,2.07,0,0,0-.34-1.16,1.54,1.54,0,0,0-1.34-.76,1.47,1.47,0,0,0-1,.39,1.93,1.93,0,0,0-.68,1.53A2.11,2.11,0,0,0,35.44,12.62Z"/><path class="cls-1" d="M40.63,8.58h1v.48l0,3.08a1.16,1.16,0,0,0,.23.68,1.35,1.35,0,0,0,1.14.55,1.56,1.56,0,0,0,.75-.2,1.17,1.17,0,0,0,.61-1V8.58h1v3.56a2,2,0,0,1-.51,1.36,2.2,2.2,0,0,1-1.81.83,2.35,2.35,0,0,1-1.5-.51,2.06,2.06,0,0,1-.83-1.68V9.05Z"/><path class="cls-1" d="M48,12.64c0,.47.3.72.88.73h.48v1h-.48a2.62,2.62,0,0,1-.64-.07A1.46,1.46,0,0,1,47,12.65h0V9.53h-.8v-1H47V6.84h1l0,.48V8.57h1.35v1H48Z"/></g></g></svg>