<svg xmlns="http://www.w3.org/2000/svg" viewBox="0 0 379.96 78.89"><g id="레이어_2" data-name="레이어 2"><g id="Layer_1" data-name="Layer 1"><path d="M1.89,7V3.19H9.21V0H14V3.19h7.31V7ZM7.56,8.58h8.12a5.11,5.11,0,0,1,5,5.35,5.12,5.12,0,0,1-5,5.36H7.56a5.12,5.12,0,0,1-5-5.36A5.11,5.11,0,0,1,7.56,8.58ZM3.92,25.73V21.81H32.55V33.29h-5V25.73Zm10.36-10c1.37,0,2.14-.81,2.14-1.79s-.77-1.78-2.14-1.78H9c-1.4,0-2.17.8-2.17,1.78S7.63,15.72,9,15.72Zm8.26.73V12.57h5.11V9H22.54V5.15h5.11V.77h4.9V20.48h-4.9v-4Z"/><path d="M55.55,15v3.11H37.66V1.44H55.55V4h7.1V.77h4.9v19h-4.9V15Zm5.67,5.67c3.85,0,6.86,2.55,6.86,6.19s-3,6.23-6.86,6.23H45.46c-3.81,0-6.82-2.59-6.82-6.23s3-6.19,6.82-6.19ZM50.79,14.28v-9H42.46v9Zm9.52,15c1.68,0,2.87-.91,2.87-2.35S62,24.57,60.31,24.57h-14c-1.61,0-2.8.91-2.8,2.31s1.19,2.35,2.8,2.35ZM62.65,7.81h-7.1V11.2h7.1Z"/><path d="M71.82,31.75V27.44L96,25.94v4.27Zm1.64-18.94V9.24C73.46,3.71,77.84,1,83.2,1s9.73,2.76,9.73,8.29v3.57c0,5.5-4.41,8.19-9.73,8.19S73.46,18.31,73.46,12.81ZM88.2,13V9C88.2,6.51,86,5,83.2,5s-5,1.54-5,4.06v4c0,2.48,2.21,4,5,4S88.2,15.47,88.2,13Zm9.24,19.95V.77h5V32.94Z"/><path d="M117.85,12.81c9.17-.1,14.59-1.61,14.59-7.38H118v-4h19.15V4.13c0,10.68-9.1,12.57-19.32,12.71Zm1.78,20.13V24h23.21V21.81H119.63v-3.4h28.14v8.75H124.53v2.28h23.84v3.5ZM142.8,17.08V.77h5V17.08Z"/><path d="M152,17.36V13.55H184v3.81Zm7.39-5.88c-3.3,0-5.89-2.27-5.89-5.28S156.13.88,159.43.88h17.15c3.25,0,5.88,2.27,5.88,5.32s-2.63,5.28-5.88,5.28Zm-5.54,21.46V24.57h23.32V22.82H153.89V19.57h28.22v8.08H158.79v1.89h23.84v3.4ZM175.53,7.88c1.22,0,2.17-.67,2.17-1.72s-.95-1.64-2.17-1.64h-15c-1.22,0-2.17.66-2.17,1.64s.95,1.72,2.17,1.72Z"/><path d="M198.52,16.8V1.26h4.72V4.94h8.44V1.26h4.73V16.8Zm.77,16.14V24.12h9.24V22.47h-9.24V19.18H213v8h-9.2v2.1l10.43-.7v3.36Zm4-19.92h8.44V8.72h-8.44Zm11.24,10V19.18h12.88V33.29h-4.65V23Zm8-5.15V.77h4.9V6.65h4.2v4.17h-4.2v7Z"/><path d="M252.21,13.72V.77h4.38V32.94h-4.38V18h-5.53c-2.31,8.33-7.18,12.43-13.51,14V27.48c8.15-2.63,10.5-11.17,10.46-21.11H233.34V2.07h14.81V5.25a55.36,55.36,0,0,1-.6,8.47ZM259.49.77h4.41V32.94h-4.41Z"/><path d="M279.16,31.64V2H284v8.43h9V2h4.8V31.64H293V30.1Zm4.83-4.9,9-.94V14.7h-9Zm19.92,6.2V.77h5V32.94Z"/><path d="M326.48,33.29V24.43H313V20.2H345v4.23H331.52v8.86ZM314.23,13.76c6.06-.14,11.62-2.56,12.18-6.48H314.58V3.12h11.94V0h5V3.12h11.93V7.28H331.59c.56,3.92,6.13,6.34,12.18,6.48V18c-7.17-.14-12.7-2.8-14.77-6.37-2.06,3.57-7.6,6.23-14.77,6.37Z"/><path d="M348,19.88V15.82H380v4.06Zm1.85-7.45V.74h4.83v7.8h23.56v3.89Zm0,20.51V22.19h4.9v6.72h23.84v4Z"/><path d="M4.34,73.19V44.59H21v2H6.44V70.91l16.31-1.68v2Zm24.82,1.57V43h2.1V74.76Z"/><path d="M37,70.46c3.64-1.89,9.77-7.6,9.77-15.44V46.9H38v-2H57.51v2H48.83V55c0,7.84,6.12,13.55,9.8,15.44v2.59c-4.31-1.89-9.7-7.18-10.85-12.78C46.62,65.87,41.23,71.16,37,73.05Zm26.18,4.3V43h2.1V56.39h5v2.06h-5V74.76Z"/><path d="M72.94,65.59V51.38c0-4.83,4-8.12,9.07-8.12s9.06,3.29,9.06,8.12V65.59c0,4.83-3.95,8.12-9.06,8.12S72.94,70.42,72.94,65.59Zm16,.11V51.28c0-3.5-3-6-7-6s-7,2.45-7,6V65.7c0,3.53,3,6,7,6S89,69.23,89,65.7Zm10.75,9.06V43h2.1V74.76Z"/><path d="M109.06,73.19V44.42h2.1V70.81l16.38-1.68v2.13Zm24.82,1.57V57.51H122.36v-2h11.52V43H136V74.76Z"/><path d="M152.81,57.93c4.34-.84,9.1-4,9.1-10.19V46.1h-8.75v-2h19.6v2H164v1.64c0,6,4.76,9,9.1,9.84v2.24c-4.58-.84-9.27-3.5-10.15-8-.87,4.76-5.57,7.52-10.15,8.4Zm8.3,5h14.1c3.82,0,6.83,2.41,6.83,6s-3,6-6.83,6h-14.1c-3.82,0-6.83-2.45-6.83-6S157.29,62.9,161.11,62.9Zm14,10c2.69,0,4.83-1.58,4.83-4s-2.14-4-4.83-4h-13.9c-2.69,0-4.83,1.57-4.83,4s2.14,4,4.83,4Zm3.81-11.24V43H181v7.31h4.76v2H181v9.31Z"/><path d="M189.28,73.19V44.59h16.59v2H191.38V70.91l16.07-1.68v2Zm23.38,1.57V43h2.1V56.39h6v2.06h-6V74.76Z"/><path d="M237,68.53v-7.7H222.18v-2h31.64v2H239.09v7.7ZM230.2,55.37a6,6,0,0,1,0-12h15.61a6,6,0,0,1,0,12Zm-5.54,19.39V65h2.11v7.77h25.09v2Zm20.9-21.45a3.79,3.79,0,0,0,4-4,3.74,3.74,0,0,0-4-3.88H230.44a3.74,3.74,0,0,0-4,3.88,3.78,3.78,0,0,0,4,4Z"/><path d="M258.44,52.12V50c0-4.62,4.13-7,9.17-7s9.17,2.41,9.17,7v2.14c0,4.65-4.09,7-9.17,7S258.44,56.77,258.44,52.12Zm1.75,22.64V61.15h2.1v4.23h23V61.15h2.1V74.76h-2.1V73.68ZM274.68,52V50.12c0-3.36-3-5.11-7-5.11s-7.11,1.75-7.11,5.11V52c0,3.33,3,5.08,7.11,5.08S274.68,55.34,274.68,52ZM262.29,72.63l23-1v-4.2h-23Zm23-13.09V43h2.1V59.54Z"/><path d="M294.84,73.19V44.42h2.1V70.81l16.38-1.68v2.13Zm24.82,1.57V43h2.1V74.76Z"/><path d="M329.28,73.19V44.59h16.59v2H331.38V70.91l16.07-1.68v2Zm23.38,1.57V43h2.1V56.39h6v2.06h-6V74.76Z"/><path d="M362.53,73.57V71h2.62v2.62Z"/><path d="M0,78.89V77.14H255.5v1.75Z"/></g></g></svg>