<svg xmlns="http://www.w3.org/2000/svg" viewBox="0 0 494.71 153.18"><g id="레이어_2" data-name="레이어 2"><g id="Layer_1" data-name="Layer 1"><path d="M.73,6.22V.66H6.82v.83H1.55V5.32l6.23-.47v.81Zm.57,6.84V9.85h8.89V8.31H1.3V7.49H11v3.14H2.12v1.61h9.15v.82Zm8.89-6.29V.35H11V3h2.06v.82H11v3Z"/><path d="M13.61,7.89V7.07H25.88v.82Zm3.11-2.6A2.26,2.26,0,0,1,14.44,2.9,2.27,2.27,0,0,1,16.72.5h6.05a2.27,2.27,0,0,1,2.28,2.4,2.26,2.26,0,0,1-2.28,2.39Zm-2.15,7.77v-4h.82v3.15h9.73v.82Zm8.11-8.59a1.49,1.49,0,0,0,1.56-1.58,1.48,1.48,0,0,0-1.56-1.56H16.81a1.48,1.48,0,0,0-1.56,1.56,1.49,1.49,0,0,0,1.56,1.58Z"/><path d="M31.37,11.33a7.46,7.46,0,0,0,3.87-6.17V1.91H31.79V1.09h7.72v.82H36.05V5.16a7.47,7.47,0,0,0,3.89,6.17v1a8.15,8.15,0,0,1-4.29-5.11,8.11,8.11,0,0,1-4.28,5.11ZM42,13.06V.35h.82V13.06Z"/><path d="M50.56,13.2V8.1H44.84V7.29H57.12V8.1H51.37v5.1Zm4.21-7,.56-4.69H45.74V.71H56.22l-.64,5.52Z"/><path d="M58.64,12.29v-.83l9.59-.66v.81Zm.75-7.22V3.67c0-2.07,1.67-3.18,3.69-3.18s3.69,1.11,3.69,3.18v1.4c0,2.07-1.67,3.17-3.69,3.17S59.39,7.14,59.39,5.07Zm6.57,0V3.67c0-1.48-1.24-2.37-2.88-2.37s-2.88.89-2.88,2.37v1.4c0,1.47,1.25,2.35,2.88,2.35S66,6.54,66,5.07Zm3.25,8V.35H70V13.06Z"/><path d="M78.56,13.12l1-4.25H76.08V8.05H88.35v.82H85.27v4.25h-.81V8.87H80.38l-1,4.25Zm1.28-6.87a2.89,2.89,0,0,1-3.1-2.8A2.89,2.89,0,0,1,79.84.63h4.75a2.9,2.9,0,0,1,3.1,2.82,2.89,2.89,0,0,1-3.1,2.8Zm4.63-.81a2.15,2.15,0,0,0,2.4-2,2.15,2.15,0,0,0-2.4-2H80a2.16,2.16,0,0,0-2.4,2,2.15,2.15,0,0,0,2.4,2Z"/><path d="M90.14,4V3.14c0-1.85,1.61-2.82,3.56-2.82s3.56,1,3.56,2.82V4c0,1.87-1.59,2.81-3.56,2.81S90.14,5.83,90.14,4Zm.68,9.1V10h9.73V8.59H90.82V7.76h10.54v3H91.64v1.47h10v.82Zm5.63-9.14V3.19c0-1.33-1.17-2-2.73-2S91,1.86,91,3.19v.73c0,1.33,1.18,2,2.76,2S96.45,5.25,96.45,3.92Zm4.1,3.13V.35h.81v6.7Z"/><path d="M103.37,2.41V1.58H107V0h.82V1.58h3.59v.83Zm2.5,1h3A2.18,2.18,0,0,1,111,5.76a2.18,2.18,0,0,1-2.13,2.36h-3a2.2,2.2,0,0,1-2.15-2.36A2.19,2.19,0,0,1,105.87,3.4Zm-1.47,9.66v-4h.82v3.16h9.48v.82Zm4.27-5.76a1.47,1.47,0,0,0,1.55-1.54,1.48,1.48,0,0,0-1.55-1.54h-2.58a1.48,1.48,0,0,0-1.55,1.54,1.47,1.47,0,0,0,1.55,1.54Zm4.94,2.48V.35h.82V4.2h1.84V5h-1.84V9.78Z"/><path d="M124.08,13.06l1-4.54h-4.32V7.71h9.6v.81h-4.44l-1,4.54Zm.21-6.78a2.71,2.71,0,0,1-2.63-2.88A2.71,2.71,0,0,1,124.29.52h2.52a2.7,2.7,0,0,1,2.62,2.88,2.7,2.7,0,0,1-2.62,2.88Zm2.45-.82a2,2,0,0,0,1.88-2.06,2,2,0,0,0-1.88-2h-2.37a2,2,0,0,0-1.89,2.05,2,2,0,0,0,1.89,2.06Zm5,7.6V.35h.81V13.06Z"/><path d="M134.71,6.47c1.54-.54,3.4-2,3.4-3.93v-2h.82v2c0,1.87,1.87,3.3,3.39,3.83v.9c-1.59-.49-3.44-1.79-3.8-3.29-.36,1.54-2.23,2.88-3.81,3.39Zm3.55,1.86h5.53a2.41,2.41,0,1,1,0,4.79h-5.53a2.41,2.41,0,1,1,0-4.79Zm5.49,4a1.69,1.69,0,0,0,1.87-1.58,1.68,1.68,0,0,0-1.87-1.57H138.3a1.68,1.68,0,0,0-1.87,1.57,1.68,1.68,0,0,0,1.87,1.58Zm-2-8.51V3h3.54V.35h.82V7.84h-.82v-4Z"/><path d="M148.54,9.39V3.7a3.53,3.53,0,0,1,7,0V9.39a3.53,3.53,0,0,1-7,0Zm6.22,0V3.66a2.73,2.73,0,0,0-5.41,0V9.43a2.73,2.73,0,0,0,5.41,0Zm4.17,3.63V.35h.81V13.06Z"/><path d="M172.51.35h.81V13.06h-.81V9.26h-3.78v3.17h-.81v-.71l-5.69.71V1h6.5V3.63h3.78ZM167.92,10.9V1.79H163v9.68Zm4.59-2.47v-4h-3.78v4Z"/><path d="M179.77,4V3.14c0-1.85,1.61-2.82,3.56-2.82s3.56,1,3.56,2.82V4c0,1.87-1.59,2.81-3.56,2.81S179.77,5.83,179.77,4Zm.68,9.1V10h9.73V8.59h-9.73V7.76H191v3h-9.72v1.47h10v.82Zm5.63-9.14V3.19c0-1.33-1.17-2-2.73-2s-2.76.71-2.76,2v.73c0,1.33,1.18,2,2.76,2S186.08,5.25,186.08,3.92Zm4.1,3.13V.35H191v6.7Z"/><path d="M193.11,6.46a4,4,0,0,0,3.42-3.94V1.58h-3.28V.77h7.38v.81h-3.28v.94a4,4,0,0,0,3.42,3.94v.89C199,7,197.27,6,196.94,4.13,196.61,6,194.83,7,193.11,7.35Zm3.54,1.89h5.53a2.46,2.46,0,0,1,2.65,2.38,2.45,2.45,0,0,1-2.65,2.39h-5.53a2.4,2.4,0,1,1,0-4.77Zm5.49,4A1.69,1.69,0,0,0,204,10.73a1.68,1.68,0,0,0-1.88-1.55H196.7a1.68,1.68,0,0,0-1.88,1.55,1.69,1.69,0,0,0,1.88,1.58Zm-1.63-8V3.49h3.14V.35h.81V7.86h-.81V4.3Z"/><path d="M206.58,2.41V1.58h3.6V0H211V1.58h3.6v.83Zm2.5,1h3a2.18,2.18,0,0,1,2.13,2.36,2.18,2.18,0,0,1-2.13,2.36h-3a2.19,2.19,0,0,1-2.15-2.36A2.18,2.18,0,0,1,209.08,3.4Zm-1.47,9.66v-4h.82v3.16h9.48v.82Zm4.27-5.76a1.47,1.47,0,0,0,1.55-1.54,1.48,1.48,0,0,0-1.55-1.54H209.3a1.48,1.48,0,0,0-1.55,1.54A1.47,1.47,0,0,0,209.3,7.3Zm4.94,2.48V.35h.81V4.2h1.85V5h-1.85V9.78Z"/><path d="M229.83,13.2V8.81H224.1V8h12.28v.81h-5.74V13.2ZM224.7,5.63c2.58-.11,5.05-2.14,5.09-3.91V1.64h-5V.83h10.81v.81h-4.95v.08c.05,1.77,2.51,3.8,5.09,3.91v.81c-2.59-.09-5-1.75-5.54-3.64-.54,1.89-2.94,3.55-5.54,3.64Z"/><path d="M238,11.7c4-1,6.37-4.09,6.35-9.91H238.1V1h7.09V1.7c0,6.47-2.7,9.93-7.16,10.87Zm10.42,1.36V.35h.81V13.06Z"/><path d="M251.26,12.63v-.82H257V8.74h.81v3.07h5.74v.82Zm1-4.73v-4h9.54V1.54h-9.54V.71h10.35v4H253V7.07h9.67V7.9Z"/><path d="M269,11.33a7.44,7.44,0,0,0,3.87-6.17V1.91h-3.45V1.09h7.72v.82h-3.45V5.16a7.47,7.47,0,0,0,3.88,6.17v1a8.15,8.15,0,0,1-4.29-5.11A8.11,8.11,0,0,1,269,12.37Zm10.66,1.73V.35h.82V13.06Z"/><path d="M288.21,13.2V8.1h-5.72V7.29h12.28V8.1H289v5.1Zm4.21-7L293,1.54h-9.59V.71h10.49l-.64,5.52Z"/><path d="M305.88,13.2V8.81h-5.73V8h12.28v.81h-5.74V13.2Zm-5.13-7.57c2.58-.11,5.05-2.14,5.09-3.91V1.64h-5V.83h10.81v.81h-5v.08c.06,1.77,2.52,3.8,5.1,3.91v.81c-2.6-.09-5-1.75-5.54-3.64-.55,1.89-2.94,3.55-5.54,3.64Z"/><path d="M316.92,13.06l1-4.54h-4.32V7.71h9.6v.81h-4.44l-1,4.54Zm.2-6.78A2.71,2.71,0,0,1,314.5,3.4,2.71,2.71,0,0,1,317.12.52h2.53a2.71,2.71,0,0,1,2.62,2.88,2.71,2.71,0,0,1-2.62,2.88Zm2.46-.82a2,2,0,0,0,1.88-2.06,2,2,0,0,0-1.88-2h-2.37a2,2,0,0,0-1.89,2.05,2,2,0,0,0,1.89,2.06Zm5,7.6V.35h.81V13.06Z"/><path d="M327.31,7.12V6.3h12.28v.82Zm1-2V2.44h9.54v-1h-9.54V.57h10.35V3.22h-9.53V4.33h9.6v.83Zm0,7.9V10.25h9.54V9.12h-9.54V8.29h10.35V11h-9.53v1.2h9.73v.82Z"/><path d="M345,6.86V6.05h5.12V3.32h.82V6.05h6.34v.81Zm3,1.59h6.38a2.16,2.16,0,0,1,2.19,2.31,2.15,2.15,0,0,1-2.19,2.31h-6.38a2.15,2.15,0,0,1-2.19-2.31A2.16,2.16,0,0,1,347.91,8.45ZM346,1.39V.57h10.37L356,5h-.81l.29-3.6Zm8.21,10.87a1.44,1.44,0,0,0,1.48-1.52,1.43,1.43,0,0,0-1.48-1.48H348a1.42,1.42,0,0,0-1.46,1.48A1.43,1.43,0,0,0,348,12.26Z"/><path d="M358.79,7a4,4,0,0,0,3.42-3.95V1.58h-3.29V.77h7.39v.81H363v1.5a4,4,0,0,0,3.42,4v.89c-1.73-.34-3.51-1.39-3.83-3.23-.33,1.84-2.11,2.89-3.83,3.23Zm1.14,6V8.94h.81v3.3h9.66v.82Zm5.89-8.65V3.6h3.51V.35h.81V9.78h-.81V4.41Z"/><path d="M372.26,2.41V1.58h3.6V0h.81V1.58h3.6v.83Zm2.36.94h3.3a1.91,1.91,0,0,1,2,2,1.92,1.92,0,0,1-2,2h-3.3a1.92,1.92,0,0,1-2-2A1.92,1.92,0,0,1,374.62,3.35Zm-1.44,9.71V8.17H374V9.61h8.5V8.17h.81v4.89h-.81v-.43Zm4.51-6.59c.9,0,1.41-.52,1.41-1.15s-.51-1.15-1.41-1.15h-2.85c-.88,0-1.41.51-1.41,1.15s.53,1.15,1.41,1.15ZM374,12.19l8.5-.37v-1.4H374Zm8.5-4.67V.35h.81V3.26h1.85v.82h-1.85V7.52Z"/><path d="M386.73,12.43V.91h.82V11.47l6.36-.67v.85Zm9.63.63V.35h.82V13.06Z"/><path d="M400.1,12.43V1h6.44v.81h-5.63v9.72l6.24-.67v.81Zm9.07.63V.35H410V5.7h2.34v.83H410v6.53Z"/><path d="M413,12.58V11.53h1v1.05Z"/><path d="M.73,34.22V28.66H6.82v.83H1.55v3.83l6.23-.47v.81Zm.57,6.84V37.85h8.89V36.31H1.3v-.82H11v3.14H2.12v1.61h9.15v.82Zm8.89-6.29V28.35H11V31h2.06v.82H11v3Z"/><path d="M13.61,35.89v-.82H25.88v.82Zm3.11-2.6a2.4,2.4,0,0,1,0-4.79h6.05a2.4,2.4,0,0,1,0,4.79Zm-2.15,7.77v-4h.82v3.15h9.73v.82Zm8.11-8.59a1.57,1.57,0,0,0,0-3.14H16.81a1.57,1.57,0,0,0,0,3.14Z"/><path d="M31.75,29.79V29h5.51v.81Zm0,10.64V32.37H37.2v.81H32.56V39.5l5.22-.62v.83Zm7.37.63V28.35h.82v5.48h2.35V28.35h.81V41.06h-.81V34.65H39.94v6.41Z"/><path d="M45.22,32.37V31.18c0-1.88,1.54-2.86,3.41-2.86S52,29.3,52,31.18v1.19c0,1.88-1.54,2.86-3.41,2.86S45.22,34.25,45.22,32.37Zm3.08,8.75a2.41,2.41,0,1,1,0-4.79h5.48a2.41,2.41,0,1,1,0,4.79Zm2.92-8.79V31.24c0-1.36-1.11-2.09-2.58-2.09s-2.6.73-2.6,2.09v1.09c0,1.36,1.11,2.07,2.6,2.07S51.22,33.69,51.22,32.33Zm2.52,8a1.6,1.6,0,1,0,0-3.15H48.35a1.6,1.6,0,1,0,0,3.15Zm1.48-4.49V28.35H56v1.7h1.82v.81H56v1.83h1.82v.83H56v2.3Z"/><path d="M58.64,40.29v-.83l9.59-.66v.81Zm.75-7.22v-1.4c0-2.07,1.67-3.18,3.69-3.18s3.69,1.11,3.69,3.18v1.4c0,2.07-1.67,3.17-3.69,3.17S59.39,35.14,59.39,33.07Zm6.57,0v-1.4c0-1.48-1.24-2.37-2.88-2.37s-2.88.89-2.88,2.37v1.4c0,1.47,1.25,2.35,2.88,2.35S66,34.54,66,33.07Zm3.25,8V28.35H70V41.06Z"/><path d="M76.67,34.63v-6h.82v2h5.17v-2h.82v6ZM77,40.24c2.83-.08,5-1.06,5-2.45v0h-4.9v-.82h4.93V35.51h.82v1.43H87.8v.82H82.89v0c0,1.39,2.2,2.37,5,2.45v.82c-2.92-.1-5-1-5.47-2.22C82,40.08,79.91,41,77,41.06Zm.5-6.43h5.17V31.46H77.49Zm9.37,1.87V28.35h.81v7.33Z"/><path d="M89.66,34.63V33.8h12.27v.83Zm3-2.17a2,2,0,1,1,0-4h6.19a2,2,0,1,1,0,4Zm-2.08,8.6v-3h9.53V36.78H90.62V36H101v2.9H91.44v1.37h9.73v.82Zm8.17-9.43c.85,0,1.5-.44,1.5-1.16s-.65-1.14-1.5-1.14h-6c-.84,0-1.49.42-1.49,1.14s.65,1.16,1.49,1.16Z"/><path d="M107.8,35.44V28.59h.81V31h5V28.59h.81v6.85Zm.68,5.62V36.7h.81v3.54h9.48v.82Zm.13-6.43h5V31.82h-5Zm9.08,3V28.35h.81v3.76h1.85v.82H118.5v4.69Z"/><path d="M121,39.33A8,8,0,0,0,124.8,33V28.73h.82V33a8,8,0,0,0,3.8,6.34v1A8.76,8.76,0,0,1,125.21,35,8.76,8.76,0,0,1,121,40.37Zm10.16,1.73V28.35H132V33.7h2v.83h-2v6.53Z"/><path d="M134.71,31.18v-.81h3.22V28.14h.82v2.23H142v.81Zm.25,6.36v-2a3.39,3.39,0,0,1,6.76,0v2a3.39,3.39,0,0,1-6.76,0Zm5.95-.06V35.59a2.58,2.58,0,0,0-5.14,0v1.89a2.58,2.58,0,0,0,5.14,0Zm3.83,3.58V28.35h.81v5.46h2v.82h-2v6.43Z"/><path d="M158.93,28.35h.81V41.06h-.81V37.29h-3.65v.1a3.37,3.37,0,0,1-6.74,0V31.7a3.37,3.37,0,0,1,6.74,0h3.65Zm-4.47,3.31a2.56,2.56,0,0,0-5.11,0v5.77a2.56,2.56,0,0,0,5.11,0Zm4.47,4.81v-4h-3.65v4Z"/><path d="M165.81,39.33a7.47,7.47,0,0,0,3.79-6.17V29.91h-3.37v-.82h7.56v.82h-3.37v3.25a7.45,7.45,0,0,0,3.8,6.17v1A8.1,8.1,0,0,1,170,35.26a8.12,8.12,0,0,1-4.2,5.11ZM176,41.06V28.35h.82V33.7h2v.83h-2v6.53Z"/><path d="M179.53,34.85c1.56-.56,3.46-2.1,3.46-4.12V28.52h.82v2.21c0,2,1.9,3.56,3.46,4.12v.9c-1.62-.54-3.5-1.94-3.87-3.56-.35,1.62-2.27,3-3.87,3.56Zm1.14,6.21V36.84h.81v3.4h9.66v.82Zm9.4-3.44V28.35h.81v9.27Z"/><path d="M192.87,34.63V33.8h12.27v.83Zm3-2.17a2,2,0,1,1,0-4h6.19a2,2,0,1,1,0,4Zm-2.08,8.6v-3h9.53V36.78h-9.53V36h10.35v2.9h-9.54v1.37h9.74v.82ZM202,31.63c.85,0,1.5-.44,1.5-1.16s-.65-1.14-1.5-1.14h-6c-.84,0-1.49.42-1.49,1.14s.65,1.16,1.49,1.16Z"/><path d="M211.12,34.63v-6h.81v2h5.18v-2h.81v6Zm.31,5.61c2.84-.08,5-1.06,5-2.45v0h-4.91v-.82h4.93V35.51h.82v1.43h4.93v.82h-4.9v0c0,1.39,2.2,2.37,5,2.45v.82c-2.92-.1-5-1-5.48-2.22-.5,1.24-2.55,2.12-5.47,2.22Zm.5-6.43h5.18V31.46h-5.18Zm9.37,1.87V28.35h.82v7.33Z"/><path d="M224.7,40.43V28.91h.81V39.46l4.85-.6v.86Zm6.79.63V28.35h.81v5.48h2.83V28.35h.81V41.06h-.81V34.65H232.3v6.41Z"/><path d="M238,39.7c4-1,6.37-4.09,6.35-9.91H238.1V29h7.09v.72c0,6.47-2.7,9.93-7.16,10.87Zm10.42,1.36V28.35h.81V41.06Z"/><path d="M251.26,40.63v-.82H257V36.22h.81v3.59h5.74v.82Zm1-5.26V28.71h10.35v.83H253v5h9.67v.81Z"/><path d="M269.16,31.18v-.81h3.22V28.14h.81v2.23h3.22v.81Zm.24,6.36v-2a3.4,3.4,0,0,1,6.77,0v2a3.4,3.4,0,0,1-6.77,0Zm6-.06V35.59a2.58,2.58,0,0,0-5.13,0v1.89a2.58,2.58,0,0,0,5.13,0Zm3.83,3.58V28.35H280v5.46H282v.82H280v6.43Z"/><path d="M282.49,40.63v-.82h5V34h.82v5.86h6.42v.82Zm9.95-3,.58-8.14h-9.63v-.83h10.49l-.63,9Z"/><path d="M303.34,41.06l1-4.54H300v-.81h9.6v.81H305.2l-1,4.54Zm.2-6.78a2.71,2.71,0,0,1-2.62-2.88,2.71,2.71,0,0,1,2.62-2.88h2.53a2.71,2.71,0,0,1,2.62,2.88,2.71,2.71,0,0,1-2.62,2.88Zm2.46-.82a2.06,2.06,0,0,0,0-4.11h-2.38a2.06,2.06,0,0,0,0,4.11Zm5,7.6V28.35h.81V41.06Z"/><path d="M313.84,39.33a7.47,7.47,0,0,0,3.89-6.17V31H314v-.83h3.76V28.14h.82v2.07h3.75V31h-3.75v2.12a7.44,7.44,0,0,0,3.9,6.17v1a8.12,8.12,0,0,1-4.31-5.11,8.16,8.16,0,0,1-4.3,5.11Zm10.64,1.73V28.35h.83V41.06Z"/><path d="M335.66,33.86V28.35h.81V41.06h-.81V34.67h-2.39v3.18a2.74,2.74,0,1,1-5.47,0V31.24a2.74,2.74,0,1,1,5.47,0v2.62Zm-3.2-2.62a1.93,1.93,0,1,0-3.85,0v6.61a1.93,1.93,0,1,0,3.85,0Zm5.88-2.89h.81V41.06h-.81Z"/><path d="M345.45,40.38V29H349v.81h-2.73v9.66l2.73-.37v.83Zm4.14.14V29h3.89v.81h-3.07v9.78l3.47-.48v.83Zm5.67.54V28.35h.81V33.7H358v.83h-1.93v6.53Z"/><path d="M359,40.43V34h5.8V29.79H359V29h6.61v5.8h-5.79v4.73l6.87-.67v.81Zm9.78.63V28.35h.81v5.46h2v.82h-2v6.43Z"/><path d="M379.39,41.06l1-4.54h-4.32v-.81h9.6v.81h-4.44l-1,4.54Zm.2-6.78A2.71,2.71,0,0,1,377,31.4a2.71,2.71,0,0,1,2.62-2.88h2.53a2.71,2.71,0,0,1,2.62,2.88,2.71,2.71,0,0,1-2.62,2.88Zm2.46-.82a2.06,2.06,0,0,0,0-4.11h-2.38a2.06,2.06,0,0,0,0,4.11Zm5,7.6V28.35h.82V41.06Z"/><path d="M390,34.3c1.59-.56,3.53-2.08,3.53-4.06V28.52h.82v1.72c0,1.91,1.94,3.38,3.53,3.92v.89c-1.64-.49-3.57-1.82-3.94-3.37-.37,1.61-2.31,3-3.94,3.51Zm3.33,2.15h5.36a2.35,2.35,0,1,1,0,4.67h-5.36a2.35,2.35,0,1,1,0-4.67Zm5.32,3.86c1.05,0,1.88-.6,1.88-1.52s-.83-1.53-1.88-1.53h-5.28c-1.05,0-1.87.6-1.87,1.53s.82,1.52,1.87,1.52Zm1.48-4.47V28.35H401v2.91h1.84v.83H401v3.75Z"/><path d="M403.36,40.63v-.82h5.73V36.22h.81v3.59h5.73v.82Zm1-5.26V28.71h10.35v.83h-9.53v5h9.66v.81Z"/><path d="M421.72,34.22V28.66h6.08v.83h-5.27v3.83l6.24-.47v.81Zm.57,6.84V37.85h8.88V36.31h-8.88v-.82H432v3.14H423.1v1.61h9.16v.82Zm8.88-6.29V28.35H432V31h2.07v.82H432v3Z"/><path d="M435.08,40.43V34h5.8V29.79h-5.8V29h6.61v5.8h-5.8v4.73l6.88-.67v.81Zm9.78.63V28.35h.81v5.46h2v.82h-2v6.43Z"/><path d="M448.42,33.94a3.94,3.94,0,0,0,3.46-3.88v-.48h-3.33v-.81H456v.81h-3.33v.48a4,4,0,0,0,3.47,3.88v.9c-1.74-.34-3.53-1.39-3.87-3.18-.34,1.79-2.14,2.84-3.87,3.18Zm1,7.12V36h.81v1.49H459V36h.81v5.08H459v-.44Zm.81-.87,8.7-.4V38.28h-8.7Zm8.7-4.86v-7h.81v7Z"/><path d="M462.78,40.43V28.91h.82V39.47L470,38.8v.85Zm9.63.63V28.35h.82V41.06Z"/><path d="M476.15,40.43V29h6.43v.81H477v9.72l6.24-.67v.81Zm9.07.63V28.35H486V33.7h2.34v.83H486v6.53Z"/><path d="M489.05,40.58v-1h1v1Z"/><path d="M0,68.63v-.82H12.3v.82Zm9.72-3,.78-8.1H.92v-.83H11.41l-.84,8.93Z"/><path d="M14.21,68.43V62h5.88V57.79H14.21V57H20.9v5.79H15v4.74L22,66.84v.81Zm10.27.63V56.35h.82V69.06Z"/><path d="M27.43,59.18v-.81h3.22V56.14h.81v2.23h3.22v.81Zm.25,6.36v-2a3.1,3.1,0,0,1,3.38-3.1,3.1,3.1,0,0,1,3.38,3.1v2a3.09,3.09,0,0,1-3.38,3.09A3.1,3.1,0,0,1,27.68,65.54Zm5.94-.06V63.59a2.33,2.33,0,0,0-2.56-2.32,2.34,2.34,0,0,0-2.57,2.32v1.89a2.34,2.34,0,0,0,2.57,2.33A2.33,2.33,0,0,0,33.62,65.48Zm3.84,3.58V56.35h.81v5.46h1.95v.82H38.27v6.43Z"/><path d="M51.64,56.35h.82V69.06h-.82V65.29H48v.1a3.37,3.37,0,0,1-6.73,0V59.7a3.37,3.37,0,0,1,6.73,0h3.65Zm-4.46,3.31a2.56,2.56,0,0,0-5.11,0v5.77a2.56,2.56,0,0,0,5.11,0Zm4.46,4.81v-4H48v4Z"/><path d="M59.13,62.22V56.66h6.08v.83H59.94v3.83l6.24-.47v.81Zm.57,6.84V65.85h8.88V64.31H59.7v-.82h9.69v3.14H60.51v1.61h9.16v.82Zm8.88-6.29V56.35h.81V59h2.07v.82H69.39v3Z"/><path d="M72,63.89v-.82H84.28v.82Zm3.11-2.6a2.4,2.4,0,0,1,0-4.79h6.06a2.4,2.4,0,0,1,0,4.79ZM73,69.06v-4h.81v3.15h9.74v.82Zm8.1-8.59a1.57,1.57,0,0,0,0-3.14H75.21a1.57,1.57,0,1,0,0,3.14Z"/><path d="M89.79,58.41v-.83h3.6V56h.82v1.58H97.8v.83Zm2.36.94h3.31a2.05,2.05,0,0,1,0,4.1H92.15a2.05,2.05,0,0,1,0-4.1ZM93,64.59h5.67a2.28,2.28,0,1,1,0,4.53H93a2.28,2.28,0,1,1,0-4.53Zm2.2-2a1.25,1.25,0,1,0,0-2.47H92.37a1.25,1.25,0,1,0,0,2.47Zm3.43,5.67a1.58,1.58,0,0,0,1.78-1.45c0-.9-.79-1.46-1.78-1.46H93.06c-1,0-1.77.56-1.77,1.46a1.58,1.58,0,0,0,1.77,1.45ZM100,64V56.35h.82v3h1.84v.83h-1.84V64Z"/><path d="M103.48,62.3c1.59-.56,3.53-2.08,3.53-4.06V56.52h.82v1.72c0,1.91,1.94,3.38,3.53,3.92v.89c-1.65-.49-3.57-1.82-3.94-3.37-.37,1.61-2.31,3-3.94,3.51Zm3.33,2.15h5.36a2.35,2.35,0,1,1,0,4.67h-5.36a2.35,2.35,0,1,1,0-4.67Zm5.32,3.86c1.05,0,1.88-.6,1.88-1.52s-.83-1.53-1.88-1.53h-5.28c-1,0-1.88.6-1.88,1.53s.83,1.52,1.88,1.52Zm1.48-4.47V56.35h.82v2.91h1.84v.83h-1.84v3.75Z"/><path d="M127.44,62h5.73v.81H120.89V62h5.73V60.16h-4.76V56.39h.81v2.94h9.6v.83h-4.83Zm2.74,3.5-.39,2.73h2.73v.82h-11v-.82h2.76l-.39-2.73h.78l.38,2.73H129l.4-2.73Zm2.2-1.27v.82h-10.7v-.82Z"/><path d="M142.63,61.86V56.35h.82V69.06h-.82V62.67h-2.89c-.81,3.36-2.54,5.17-4.92,5.9V67.7c3.18-1.11,4.65-4.43,4.62-9.91h-4.55V57h5.37v.64a24.93,24.93,0,0,1-.34,4.24Zm2.87-5.51h.81V69.06h-.81Z"/><path d="M152.74,68.38V57h3.45v.81h-2.64v9.66l2.64-.36v.83Zm4.08.14V57h3.93v.81h-3.11V67.6l3.79-.46V68Zm6.21.54V62.67h-3.1v-.83H163V56.35h.82V69.06Z"/><path d="M165.71,68.63v-.82h5.73V64.33h.81v3.48H178v.82Zm4.07-4.95a3.52,3.52,0,0,1,0-7h4.13a3.52,3.52,0,0,1,0,7Zm4.06-.82a2.7,2.7,0,0,0,0-5.39h-4a2.7,2.7,0,0,0,0,5.39Z"/><path d="M179.29,68.63v-.82h12.27v.82Zm1-4.55V60h9.53V57.54h-9.53v-.83H190.6v4.07h-9.54v2.49h9.67v.81Z"/><path d="M203.74,56.35h.82V69.06h-.82v-3.8H200v3.17h-.82v-.71l-5.69.71V57H200v2.65h3.77ZM199.15,66.9V57.79h-4.87v9.68Zm4.59-2.47v-4H200v4Z"/><path d="M221.4,56.35h.81V69.06h-.81V62.7h-3.66v2.69a3.37,3.37,0,0,1-6.73,0V59.7a3.37,3.37,0,0,1,6.73,0v2.18h3.66Zm-4.47,3.31a2.56,2.56,0,0,0-5.11,0v5.77a2.56,2.56,0,0,0,5.11,0Z"/><path d="M229.83,69.2V64.9H224.1v-.83h12.28v.83h-5.74v4.3Zm-4.77-7V56.71h10.3v.83h-9.48v3.83h9.61v.81Z"/><path d="M243.42,66.56V63.48h-5.74v-.81H250v.81h-5.72v3.08Zm-2.63-5.27a2.4,2.4,0,0,1,0-4.79h6.06a2.4,2.4,0,0,1,0,4.79Zm-2.15,7.77V65.13h.82v3.11h9.74v.82Zm8.11-8.59a1.57,1.57,0,0,0,0-3.14h-5.87a1.57,1.57,0,0,0,0,3.14Z"/><path d="M255.82,62.75V56.59h.82v2.14h5V56.59h.82v6.16Zm.57,6.31V64.27h10.13v4.79h-.81v-.43Zm.25-7.06h5V59.49h-5Zm.57,6.2,8.5-.38V65.08h-8.5Zm8.5-4.66V56.35h.81v2.87h1.85v.84h-1.85v3.48Z"/><path d="M268.91,62.63V61.8h12.28v.83Zm3-2.17a2,2,0,1,1,0-4h6.19a2,2,0,1,1,0,4Zm-2.08,8.6v-3h9.53V64.78h-9.53V64h10.35v2.9h-9.54v1.37h9.74v.82Zm8.17-9.43c.85,0,1.5-.44,1.5-1.16s-.65-1.14-1.5-1.14h-6c-.84,0-1.49.42-1.49,1.14s.65,1.16,1.49,1.16Z"/><path d="M287.06,62.39v-5.8h.81v1.92h5V56.59h.81v5.8Zm.3,6.67V65.85h4.19V64.59h-4.19v-.83h5v2.87h-4.2v1.54l4.73-.35v.81Zm.51-7.48h5V59.32h-5Zm5.3,3v-.83h4.59V69.2h-.82V64.59Zm3.77-1.54v-6.7h.82v2.72h1.85v.81h-1.85v3.17Z"/><path d="M308.31,61.86V56.35h.81V69.06h-.81V62.67h-2.89c-.82,3.36-2.54,5.17-4.92,5.9V67.7c3.18-1.11,4.65-4.43,4.62-9.91h-4.55V57h5.36v.64a23.94,23.94,0,0,1-.34,4.24Zm2.87-5.51H312V69.06h-.81Z"/><path d="M318.4,68.43V56.93h.81v3.93h5.18V56.93h.81v11.5h-.81v-.72Zm.81-.94,5.18-.61V61.69h-5.18Zm9.36,1.57V56.35h.82V69.06Z"/><path d="M331.38,62.92v-.83h12.28v.83h-5.73v1.92h-.82V62.92Zm.72-2.49c2.5-.07,5-1.07,5-2.31V58h-4.75v-.81h4.76V56h.82v1.21h4.77V58h-4.76v.1c0,1.24,2.5,2.24,5,2.31v.82c-2.58-.09-4.89-1-5.42-2.17-.53,1.19-2.84,2.08-5.42,2.17Zm.25,8.63V64h.81v1.77h8.72V64h.82v5h-.82v-.37Zm.81-.86,8.72-.32V66.62h-8.72Z"/><path d="M346,68.43V56.91h.82V67.47l6.36-.67v.85Zm9.63.63V56.35h.82V69.06Z"/><path d="M359.36,68.43V57h6.43v.81h-5.62v9.72l6.24-.67v.81Zm9.07.63V56.35h.81V61.7h2.34v.83h-2.34v6.53Z"/><path d="M372.26,68.58v-1h1v1Z"/><path d="M.44,93.41V87.73A3.32,3.32,0,0,1,4,84.44a3.32,3.32,0,0,1,3.6,3.29v5.68A3.32,3.32,0,0,1,4,96.71,3.32,3.32,0,0,1,.44,93.41Zm5.83.07V87.66a2.05,2.05,0,0,0-2.24-2,2.06,2.06,0,0,0-2.24,2v5.82a2,2,0,0,0,2.24,2A2,2,0,0,0,6.27,93.48Zm4.23,3.6V84.31h1.36V97.08Z"/><path d="M13.69,94.94a6.87,6.87,0,0,0,3.49-6.09v-1.6H13.82V86.07h3.36v-2h1.36v2h3.34v1.18H18.54v1.6A6.86,6.86,0,0,0,22,94.94v1.51a7.67,7.67,0,0,1-4.17-4.67,7.7,7.7,0,0,1-4.17,4.67Zm7.11-4V89.73H24V84.31h1.35V97.08H24V90.91Z"/><path d="M27.68,91.45V87.28h4.61l.15-1.5H27.68V84.6h6.23l-.35,3.86H29v1.72l6.47-.46v1.17Zm.57,5.63V92.39H39v4.69H37.67v-.42Zm1.36-1.23,8.06-.36V93.57H29.61Zm8.06-4.1V87.92H34.74V86.75h2.93V84.31H39v7.44Z"/><path d="M45,94.84a7.78,7.78,0,0,0,2.42-6.08V84.67h1.36v4.09a7.77,7.77,0,0,0,2.41,6.08v1.61a7.39,7.39,0,0,1-3.09-4.53A7.4,7.4,0,0,1,45,96.45Zm5.34-4.56V89.1h2.42V84.31h1.35V97.08H52.71v-6.8Zm5.17,6.8V84.31h1.36V97.08Z"/><path d="M58.61,90a4.51,4.51,0,0,0,3.29-4V84.46h1.36V86c0,1.89,1.63,3.3,3.28,3.85v1.29c-1.71-.48-3.47-1.7-4-3.15-.49,1.52-2.28,2.78-4,3.29Zm3.3,2.37h5.57a2.4,2.4,0,1,1,0,4.77H61.91a2.4,2.4,0,1,1,0-4.77ZM67.4,96a1.22,1.22,0,1,0,0-2.43H62A1.22,1.22,0,1,0,62,96Zm1-4.14V84.31h1.36v2.8h1.73v1.18H69.78v3.55Z"/><path d="M72.14,96.43V95.25l9.58-.65v1.18Zm.74-7.33V87.59c0-2.1,1.7-3.17,3.75-3.17s3.75,1.07,3.75,3.17V89.1c0,2.1-1.71,3.14-3.75,3.14S72.88,91.2,72.88,89.1Zm6.14,0V87.57c0-1.24-1-2-2.39-2s-2.39.73-2.39,2v1.54c0,1.22,1.06,2,2.39,2S79,90.33,79,89.11Zm3.38,8V84.31h1.36V97.08Z"/><path d="M89.63,96.71V95.56H102v1.15Zm.45-9.85V85.68h5V84h1.35v1.71h5v1.18ZM93.2,88h5.19a2.56,2.56,0,1,1,0,5.1H93.2a2.56,2.56,0,1,1,0-5.1Zm5,3.92a1.39,1.39,0,1,0,0-2.74H93.36a1.39,1.39,0,1,0,0,2.74Z"/><path d="M103.21,91.86V90.68h12.33v1.18Zm.84-2.13V86.49h9.29v-.82h-9.29V84.49H114.7v3.18h-9.29v.88h9.36v1.18Zm0,7.35V93H114.7v4.13h-1.36v-.42Zm1.36-1.23,7.93-.36V94.13h-7.93Z"/><path d="M116.79,90.77V89.59h12.33v1.18Zm3-2.23a2.07,2.07,0,1,1,0-4.12h6.35a2.07,2.07,0,1,1,0,4.12Zm-2.15,8.54V93.86h9.29V93h-9.29V91.83h10.65V95H119v.93h9.49v1.17Zm8.31-9.72c.63,0,1.12-.33,1.12-.89s-.49-.87-1.12-.87h-6c-.64,0-1.12.32-1.12.87s.48.89,1.12.89Z"/><path d="M134.44,92.14V91l3.06-.17v-3.2h1.36v3.12l4.93-.27v1.18Zm6.32-2.45.36-3.94h-6V84.57h7.49l-.46,5.12Zm-5.07,7.39v-4h1.36v2.85h9v1.17Zm8.77-2.84V84.31h1.36v4h1.74v1.18h-1.74v4.76Z"/><path d="M148.24,89.53a3.56,3.56,0,0,0,3.27-3.08h-3.13V85.28h3.15V84h1.35v1.31H156v1.17H152.9a3.56,3.56,0,0,0,3.27,3.08v1.29c-1.76-.29-3.49-1.16-4-2.74-.48,1.58-2.2,2.45-4,2.74Zm.79,7.55v-3.3h9v-1h-9V91.65H159.4V94.9h-9v1h9.29v1.17ZM158,91V84.31h1.36v2.51h1.74V88H159.4v3Z"/><path d="M161.82,87.4V86.23h3V84.11h1.36v2.12h3V87.4Zm.22,6.17V91.48a3.48,3.48,0,0,1,6.92,0v2.09a3.48,3.48,0,0,1-6.92,0Zm5.57-.09V91.56a2.11,2.11,0,0,0-4.21,0v1.92a2.11,2.11,0,0,0,4.21,0Zm3.93,3.6V84.31h1.36v5.32h1.82v1.18H172.9v6.27Z"/><path d="M175.18,96.71V95.53h4.72V89.81h1.35v5.72h6.27v1.18Zm9.59-2.95.53-7.94H176V84.64h10.78l-.61,9.12Z"/><path d="M192.84,89.72h12.33v1.17H192.84ZM195,95v.89h9.49v1.17H193.68V93.9H203v-.81h-9.29V91.92h10.65V95Zm7.82-8.27.08-1.08h-9.25V84.49h10.7L204,89.18h-1.36l.11-1.26h-8.94V86.75Z"/><path d="M206.85,96.5V89.79h5.42V86.07h-5.42V84.9h6.78V91h-5.42v4.22l6.49-.62v1.18Zm9.51.58V84.31h1.36v5.32h1.82v1.18h-1.82v6.27Z"/><path d="M220.43,93.41V87.73a3.61,3.61,0,0,1,7.2,0v5.68a3.61,3.61,0,0,1-7.2,0Zm5.84.07V87.66a2.25,2.25,0,0,0-4.48,0v5.82a2.25,2.25,0,0,0,4.48,0Zm4.23,3.6V84.31h1.35V97.08Z"/><path d="M234,88.8V87.32c0-2,1.56-3,3.47-3s3.46,1,3.46,3v.21h3.15V84.31h1.36v9.23h-1.36V88.71h-3.15v.09c0,2-1.56,3-3.46,3S234,90.81,234,88.8Zm2.09,7.11h9.59v1.17H234.75V92.81h1.35Zm-.73-7.16a2.12,2.12,0,0,0,4.21,0V87.39a2.11,2.11,0,0,0-4.21,0Z"/><path d="M247.16,96.71V95.53h12.33v1.18ZM248,85.82V84.64h10.65v1.18Zm0,6.46V87.46h10.59v1.18h-9.23V91.1h9.42v1.18Z"/><path d="M260.9,96.43V95.25l9.59-.65v1.18Zm.75-7.33V87.59c0-2.1,1.7-3.17,3.75-3.17s3.74,1.07,3.74,3.17V89.1c0,2.1-1.71,3.14-3.74,3.14S261.65,91.2,261.65,89.1Zm6.14,0V87.57c0-1.24-1.05-2-2.39-2s-2.39.73-2.39,2v1.54c0,1.22,1.06,2,2.39,2S267.79,90.33,267.79,89.11Zm3.38,8V84.31h1.36V97.08Z"/><path d="M279.23,96.5V84.83h1.36V95.11l6.2-.59v1.25Zm9.5.58V84.31h1.36V97.08Z"/><path d="M292,96.71V95.47H304.3v1.24Zm.53-5.92c2.43-.08,4.93-1.89,4.93-4v-.92h-4.79V84.73h11v1.18h-4.8v.92c0,2.07,2.52,3.88,4.93,4V92c-2.68-.1-4.95-1.61-5.63-3.32-.68,1.71-2.95,3.22-5.64,3.32Z"/><path d="M305.55,91.29V90.11h12.33v1.18Zm.84-2v-3h9.29v-.63h-9.29V84.49H317v2.93h-9.29v.7h9.36v1.17Zm0,7.79V94h9.29v-.73h-9.29V92.1H317v3h-9.29v.79h9.5v1.17Z"/><path d="M323.42,96.5V95.26h1.93L325,86.68h1.36l.32,8.58h1.81l.34-8.58h1.36l-.37,8.58h1.92V96.5Zm.14-10.43V84.9h8v1.17Zm9.59,11V84.31h1.36v5.24h1.82v1.17h-1.82v6.36Z"/><path d="M337.14,88.31V87.25c0-2,1.56-3,3.46-3s3.47,1,3.47,3v1.06c0,2-1.57,3-3.47,3S337.14,90.28,337.14,88.31Zm9.67,8.91V93.55h-9.15V92.38h10.51v4.84Zm-4.1-9v-.94a1.85,1.85,0,0,0-2.09-1.85c-1.21,0-2.12.63-2.12,1.85v.94c0,1.22.91,1.83,2.12,1.83S342.71,89.48,342.71,88.26Zm4.1,3.47V84.31h1.36V87.1h1.74v1.17h-1.74v3.46Z"/><path d="M350.58,87.4V86.23h3V84.11h1.35v2.12h3V87.4Zm.22,6.17V91.48a3.48,3.48,0,0,1,6.93,0v2.09a3.48,3.48,0,0,1-6.93,0Zm5.57-.09V91.56a2.11,2.11,0,0,0-4.21,0v1.92a2.11,2.11,0,0,0,4.21,0Zm3.94,3.6V84.31h1.36v5.32h1.82v1.18h-1.82v6.27Z"/><path d="M364,91.73V90.56h12.33v1.17Zm.84-2.8V84.34h1.36v3.41h9.35v1.18Zm0,8.15V92.83h1.36v3.08h9.49v1.17Z"/><path d="M382.44,96.5V84.9h6.73v1.17H383.8v9.11l6.13-.59v1.18Zm9.5.58V84.31h1.35V97.08Z"/><path d="M395.29,94.94a6.86,6.86,0,0,0,3.49-6.09V86.16h-3.14V85h7.64v1.18h-3.14v2.69a6.86,6.86,0,0,0,3.49,6.09v1.51a7.67,7.67,0,0,1-4.17-4.67,7.67,7.67,0,0,1-4.17,4.67Zm9.83,2.14V84.31h1.36v5.24h1.82v1.17h-1.82v6.36Z"/><path d="M409.2,93.41V87.73a3.61,3.61,0,0,1,7.19,0v5.68a3.61,3.61,0,0,1-7.19,0Zm5.84.07V87.66a2.25,2.25,0,0,0-4.49,0v5.82a2.25,2.25,0,0,0,4.49,0Zm4.22,3.6V84.31h1.36V97.08Z"/><path d="M423.1,96.5V84.83h1.36V95.11l6.19-.59v1.25Zm9.5.58V90.35h-4.2V89.17h4.2V84.31H434V97.08Z"/><path d="M435.92,96.71V95.53h5.49V92.7h1.36v2.83h5.48v1.18Zm.84-4.77V87.67h9.29V85.82h-9.29V84.64h10.65v4.21h-9.29v1.92h9.43v1.17Z"/><path d="M.22,118.16a4.3,4.3,0,0,0,3.15-3.78v-1.92H4.73v1.92c0,1.82,1.56,3.18,3.15,3.71v1.29c-1.66-.46-3.36-1.64-3.83-3a5.78,5.78,0,0,1-3.83,3.11Zm3.46,2.13H9.44a2.44,2.44,0,1,1,0,4.86H3.68a2.44,2.44,0,1,1,0-4.86ZM9.36,124a1.26,1.26,0,1,0,0-2.51H3.76a1.26,1.26,0,1,0,0,2.51Zm-2.22-8.09v-1.17h3.29v-2.41h1.36v7.53H10.43v-4Z"/><path d="M13.8,118a3.77,3.77,0,0,0,3.28-3.84v-.34H13.93v-1.17h7.66v1.17H18.44v.34a3.69,3.69,0,0,0,3.29,3.7v1.29c-1.78-.31-3.51-1.22-4-2.89-.47,1.75-2.2,2.7-4,3Zm3.22,2.2h5.65a2.46,2.46,0,1,1,0,4.91H17a2.46,2.46,0,1,1,0-4.91ZM22.58,124a1.29,1.29,0,1,0,0-2.57H17.1a1.29,1.29,0,1,0,0,2.57Zm1-4.19v-7.48H25v2.81H26.7v1.18H25v3.49Z"/><path d="M27.38,115.4v-1.17h3v-2.12h1.36v2.12h3v1.17Zm.22,6.17v-2.09a3.15,3.15,0,0,1,3.46-3.14,3.16,3.16,0,0,1,3.46,3.14v2.09a3.16,3.16,0,0,1-3.46,3.14A3.16,3.16,0,0,1,27.6,121.57Zm5.56-.09v-1.92a2.11,2.11,0,0,0-4.21,0v1.92a2.11,2.11,0,0,0,4.21,0Zm3.94,3.6V112.31h1.36v5.32h1.82v1.18H38.46v6.27Z"/><path d="M40.74,124.71v-1.18h4.71v-5.72h1.36v5.72h6.26v1.18Zm9.59-2.95.53-7.94H41.51v-1.18H52.3l-.61,9.12Z"/><path d="M59.24,124.5V112.9H66v1.17H60.59v9.11l6.13-.59v1.18Zm9.49.58V112.31h1.36v12.77Z"/><path d="M72.08,122.94a6.86,6.86,0,0,0,3.49-6.09v-2.69H72.44V113h7.63v1.18H76.93v2.69a6.87,6.87,0,0,0,3.49,6.09v1.51a7.73,7.73,0,0,1-4.17-4.67,7.67,7.67,0,0,1-4.17,4.67Zm9.84,2.14V112.31h1.35v5.24h1.82v1.17H83.27v6.36Z"/><path d="M86,116.8v-1.48c0-2,1.63-3,3.63-3s3.62,1,3.62,3v1.48c0,2-1.63,3-3.62,3S86,118.81,86,116.8Zm.73,8.28v-4.27h1.36v3.1h9.59v1.17Zm5.16-8.33v-1.36c0-1.26-1-1.92-2.25-1.92s-2.28.66-2.28,1.92v1.36c0,1.26,1,1.9,2.28,1.9S91.88,118,91.88,116.75Zm4.19,4.79v-9.23h1.35v9.23Z"/><path d="M103.21,120v-1.18h12.33V120h-5.46v2.67h-1.36V120Zm.8-2.41v-5.3h1.36v1.38h3.33v-1.25h1.35v1.25h3.33v-1.38h1.36v5.3Zm0,7.46v-3.65h1.36v2.48h9.49v1.17Zm1.32-8.64h3.33v-1.57h-3.33Zm4.68,0h3.33v-1.57h-3.33Z"/><path d="M117.22,119.1v-6.5H124v6.5Zm.66,6v-4.46h1.35v3.29h9.21v1.17Zm.7-7.15h4.06v-4.15h-4.06Zm8.23,3.75v-9.37h1.36v3.63h1.74v1.17h-1.74v4.57Z"/><path d="M134.88,121.41v-5.68a3.44,3.44,0,0,1,6.87,0v5.68a3.44,3.44,0,0,1-6.87,0Zm5.51.07v-5.82a2.08,2.08,0,0,0-4.15,0v5.82a2.08,2.08,0,0,0,4.15,0Zm4,3.6V112.31h1.36v5.24h1.82v1.17h-1.82v6.36Z"/><path d="M148.87,124.5V112.83h1.35v10.28l6.2-.59v1.25Zm9.49.58V112.31h1.36v12.77Z"/><path d="M162,124.5v-6.71h5.42v-3.72H162V112.9h6.77V119H163.4v4.22l6.49-.62v1.18Zm9.5.58V112.31h1.36v5.32h1.82v1.18H172.9v6.27Z"/><path d="M189.76,112.31h1.35v12.77h-1.35v-3.57h-3.2a3.44,3.44,0,0,1-6.87-.1v-5.68a3.45,3.45,0,0,1,6.87-.23h3.2Zm-4.55,3.35a2.08,2.08,0,0,0-4.16,0v5.82a2.08,2.08,0,0,0,4.16,0Zm4.55,4.67v-3.65h-3.2v3.65Z"/><path d="M193.35,124.5v-6.71H198l.4-3.72h-5V112.9h6.51l-.63,6.06h-4.52v4.23l6.66-.63v1.18Zm10,.58v-6.87h-3V117h3v-4.72h1.35v12.77Z"/><path d="M210.49,120v-1.18h12.33V120h-5.46v2.67H216V120Zm.84-2.41v-5.3h1.36v1.45h7.93v-1.45H222v5.3Zm0,7.46v-3.65h1.36v2.48h9.5v1.17Zm1.36-8.64h7.93v-1.5h-7.93Z"/><path d="M224.51,121.41v-5.68a3.44,3.44,0,0,1,6.87,0v5.68a3.44,3.44,0,0,1-6.87,0Zm5.51.07v-5.82a2.08,2.08,0,0,0-4.15,0v5.82a2.08,2.08,0,0,0,4.15,0Zm4,3.6V112.31h1.36v3.22h1.77v1.18h-1.77V120h1.77v1.18h-1.77v3.92Z"/><path d="M237.65,119.29v-1.18H250v1.18Zm.84-2v-3h9.29v-.63h-9.29v-1.18h10.65v2.93h-9.29v.7h9.36v1.17Zm0,7.79V122h9.29v-.73h-9.29V120.1h10.65v3h-9.29v.79h9.5v1.17Z"/><path d="M255.44,114.62v-1.18h3.4V112h1.36v1.47h3.39v1.18Zm2.3.77h3.55a2.1,2.1,0,0,1,0,4.2h-3.55a2.1,2.1,0,0,1,0-4.2Zm-1.48,6.53v-1.18h10.43v4.48h-1.36v-3.3Zm4.59-3.5a1,1,0,0,0,1.08-.93c0-.52-.38-.92-1.08-.92h-2.66c-.71,0-1.09.4-1.09.92s.38.93,1.09.93Zm4.48,1.68v-7.79h1.36v2.93h1.74v1.17h-1.74v3.69Z"/><path d="M268.89,118.93v-1.17h12.33v1.17Zm.62-3.51c2.51-.07,4.86-.94,4.86-2.48v-.67h1.36v.67c0,1.54,2.36,2.41,4.86,2.48v1.18c-2.89-.06-5-1.06-5.54-2.15-.57,1.09-2.66,2.09-5.54,2.15Zm.22,9.66v-5.29h1.36v1.36H279v-1.36h1.36v5.29H279v-.36Zm1.36-1.23,7.93-.31v-1.22h-7.93Z"/><path d="M282.68,115.4v-1.17h3v-2.12H287v2.12h3v1.17Zm.22,6.17v-2.09a3.48,3.48,0,0,1,6.93,0v2.09a3.48,3.48,0,0,1-6.93,0Zm5.57-.09v-1.92a2.11,2.11,0,0,0-4.21,0v1.92a2.11,2.11,0,0,0,4.21,0Zm3.94,3.6V112.31h1.36v5.32h1.82v1.18h-1.82v6.27Z"/><path d="M306.54,112.31h1.36v12.77h-1.36v-3.62h-3.28v3H301.9v-.66l-5.34.66V112.9h6.7v2.55h3.28Zm-4.64,10.34v-8.58h-4v9.07Zm4.64-2.37v-3.66h-3.28v3.66Z"/><path d="M314.38,124.5V112.9h6.7v1.17h-5.34v9.11l5.95-.59v1.18Zm8.91.58V112.31h1.36v5.24h2.17v1.17h-2.17v6.36Z"/><path d="M327.63,116.31v-1.06c0-2,1.57-3,3.47-3s3.46,1,3.46,3v1.06c0,2-1.56,3-3.46,3S327.63,118.28,327.63,116.31Zm3.09,8.84a2.44,2.44,0,1,1,0-4.86h5.65a2.44,2.44,0,1,1,0,4.86Zm2.48-8.89v-.94a1.85,1.85,0,0,0-2.09-1.85c-1.21,0-2.12.63-2.12,1.85v.94c0,1.22.91,1.83,2.12,1.83S333.2,117.48,333.2,116.26Zm3.09,7.72a1.26,1.26,0,1,0,0-2.51H330.8a1.26,1.26,0,1,0,0,2.51Zm1-4.14v-7.53h1.36v1.61h1.69v1.18h-1.69v1.43h1.69v1.17h-1.69v2.14Z"/><path d="M341,114.62v-1.18h3.39V112h1.36v1.47h3.39v1.18Zm2.56.77h3a2.41,2.41,0,0,1,0,4.82h-3a2.41,2.41,0,0,1,0-4.82ZM342,125.08v-4h1.36v2.87h9.2v1.17Zm4.18-6a1.24,1.24,0,1,0,0-2.46H344a1.24,1.24,0,1,0,0,2.46Zm4.75,2.75v-9.47h1.36V116H354v1.18h-1.74v4.58Z"/><path d="M358.52,124.71v-1.18H364v-3.2h1.36v3.2h5.5v1.18Zm.84-5.13v-6.94H370v6.94Zm1.35-1.18h7.94v-4.58h-7.94Z"/><path d="M372.1,118.93v-1.17h12.33v1.17Zm.62-3.51c2.51-.07,4.86-.94,4.86-2.48v-.67h1.36v.67c0,1.54,2.36,2.41,4.86,2.48v1.18c-2.89-.06-5-1.06-5.54-2.15-.57,1.09-2.66,2.09-5.54,2.15Zm.22,9.66v-5.29h1.35v1.36h7.94v-1.36h1.35v5.29h-1.35v-.36Zm1.35-1.23,7.94-.31v-1.22h-7.94Z"/><path d="M385.68,118.77v-1.18H398v1.18Zm3-2.23a2.07,2.07,0,1,1,0-4.12H395a2.07,2.07,0,1,1,0,4.12Zm-2.14,8.54v-3.22h9.29V121h-9.29v-1.18h10.64V123h-9.28v.93h9.49v1.17Zm8.31-9.72c.62,0,1.11-.33,1.11-.89s-.49-.87-1.11-.87h-6c-.64,0-1.11.32-1.11.87s.47.89,1.11.89Z"/><path d="M403.33,124.71v-1.18h5.49v-3.06h1.35v3.06h5.49v1.18Zm.84-5v-7.15h1.36v2.19h7.93v-2.19h1.36v7.15Zm1.36-1.18h7.93v-2.6h-7.93Z"/><path d="M427.41,112.31h1.36v12.77h-1.36v-3.57h-3.19a3.44,3.44,0,0,1-6.87-.1v-5.68a3.45,3.45,0,0,1,6.87-.23h3.19Zm-4.55,3.35a2.08,2.08,0,0,0-4.16,0v5.82a2.08,2.08,0,0,0,4.16,0Zm4.55,4.67v-3.65h-3.19v3.65Z"/><path d="M442.82,118.58h-5.49v1.35H442v3.14h-9.32v.84h9.52v1.17H431.33v-3.19h9.32v-.78h-9.32v-1.18H436v-1.35h-5.49v-1.17h12.33Zm-11.7-1.76v-1.18c2.59,0,4.49-1.08,4.76-1.89h-4.55v-1.18H442v1.18h-4.55c.27.81,2.17,1.85,4.77,1.89v1.18c-2.73-.07-4.93-.91-5.54-2.12C436,115.91,433.85,116.75,431.12,116.82Z"/><path d="M453.63,125.22V121h-5.49v-1.17h12.34V121H455v4.27Zm-5-8.18c2.67-.08,5-1.92,5-3.74v-.73H455v.73c0,1.82,2.32,3.66,5,3.74v1.18c-2.73-.07-5-1.54-5.66-3.18-.69,1.64-2.92,3.11-5.66,3.18Z"/><path d="M466.23,116v-.81c0-1.9,1.63-2.89,3.63-2.89s3.63,1,3.63,2.89V116c0,1.92-1.63,2.89-3.63,2.89S466.23,117.91,466.23,116Zm3.32,7a3.79,3.79,0,0,1-3.24,2.07v-1.17a2.79,2.79,0,0,0,2.56-2.65v-1.19h1.36v1.19a2.25,2.25,0,1,0,4.31-.06v-1.27h1.36v1.27a2.76,2.76,0,0,0,2.5,2.71v1.17a3.75,3.75,0,0,1-3.16-2.07,4,4,0,0,1-2.86,2.28A4.14,4.14,0,0,1,469.55,123Zm2.58-7.07v-.69c0-1.18-1-1.78-2.26-1.78s-2.28.6-2.28,1.78v.69c0,1.17,1,1.76,2.28,1.76S472.13,117.11,472.13,115.94Zm4.18,3.3v-6.93h1.36v6.93Z"/><path d="M479.38,119.73v-1.17h12.33v1.17Zm.84-2.8v-4.59h1.36v3.41h9.36v1.18Zm0,8.15v-4.25h1.36v3.08h9.49v1.17Z"/><path d="M492.81,125.66l.3-2.68h1.6l-.81,2.68Z"/><path d="M0,146.68v-1.17H12.33v1.17Zm.67-5v-1.18H5.72l-1.08,4.08H3.23l.76-2.9Zm.23,11.4v-5.36H2.25v4.18H5.64v1.18Zm4.72-3.61v-1.18H8.19v-1H9.55v1h2.56v1.18Zm1.79.47h2.94a1.61,1.61,0,0,1,0,3.22H7.41a1.61,1.61,0,0,1,0-3.22Zm-1.14-8.26v-1.18h5.31l-.69,4.08H9.51l.5-2.9ZM10,152a.44.44,0,1,0,0-.87H7.74a.44.44,0,1,0,0,.87Z"/><path d="M14,144.11v-.93c0-1.9,1.62-2.89,3.62-2.89s3.63,1,3.63,2.89v.93c0,1.91-1.63,2.88-3.63,2.88S14,146,14,144.11Zm.65,9v-5.15H25.45v5.15H24.09v-.42Zm5.24-9v-.8c0-1.18-1-1.78-2.26-1.78s-2.28.6-2.28,1.78v.8c0,1.18,1,1.76,2.28,1.76S19.91,145.23,19.91,144.05ZM16,151.85l8.06-.36v-2.38H16Zm8.06-4.56v-7h1.36v7Z"/><path d="M37.67,144.13H34.52c-.09,1.81-1.62,2.72-3.46,2.72s-3.46-1-3.46-2.89v-.78c0-1.9,1.56-2.89,3.46-2.89s3.34.92,3.45,2.67h3.16v-2.65H39v6.89H37.67Zm-5.61,5v-1.36h1.36v5.43H32.06v-.45l-3.91.45v-5.43h1.36v1.36Zm1.1-5.86c0-1.18-.91-1.78-2.09-1.78s-2.12.6-2.12,1.78v.66c0,1.18.91,1.76,2.12,1.76s2.09-.58,2.09-1.76Zm-1.1,8.29v-1.26H29.51v1.56Zm5.54-2.74A3.28,3.28,0,0,0,40,151.91v1.17a4.19,4.19,0,0,1-3.07-2.34,4.18,4.18,0,0,1-3.06,2.34v-1.17a3.28,3.28,0,0,0,2.39-3.11v-1.19H37.6Z"/><path d="M41.18,149.41v-5.68a3.32,3.32,0,0,1,3.59-3.29,3.32,3.32,0,0,1,3.6,3.29v5.68a3.32,3.32,0,0,1-3.6,3.3A3.32,3.32,0,0,1,41.18,149.41Zm5.83.07v-5.82a2.25,2.25,0,0,0-4.48,0v5.82a2.25,2.25,0,0,0,4.48,0Zm4.23,3.6V140.31H52.6v12.77Z"/><path d="M58.61,146.16a4.3,4.3,0,0,0,3.15-3.78v-1.92h1.36v1.92c0,1.82,1.56,3.18,3.15,3.71v1.29a5.71,5.71,0,0,1-3.83-3c-.47,1.43-2.2,2.64-3.83,3.11Zm3.46,2.13h5.76a2.44,2.44,0,1,1,0,4.86H62.07a2.44,2.44,0,1,1,0-4.86ZM67.75,152a1.26,1.26,0,1,0,0-2.51H62.16a1.26,1.26,0,1,0,0,2.51Zm-2.21-8.09v-1.17h3.28v-2.41h1.36v7.53H68.82v-4Z"/><path d="M72.19,146a3.77,3.77,0,0,0,3.29-3.84v-.34H72.33v-1.17H80v1.17H76.84v.34a3.68,3.68,0,0,0,3.28,3.7v1.29c-1.78-.31-3.5-1.22-4-2.89-.48,1.75-2.2,2.7-4,3Zm3.22,2.2h5.65a2.46,2.46,0,1,1,0,4.91H75.41a2.46,2.46,0,1,1,0-4.91ZM81,152a1.29,1.29,0,1,0,0-2.57H75.49a1.29,1.29,0,1,0,0,2.57Zm1-4.19v-7.48h1.36v2.81h1.73v1.18H83.36v3.49Z"/><path d="M85.77,143.4v-1.17h3v-2.12h1.36v2.12h3v1.17Zm.22,6.17v-2.09a3.48,3.48,0,0,1,6.93,0v2.09a3.48,3.48,0,0,1-6.93,0Zm5.57-.09v-1.92a2.11,2.11,0,0,0-4.21,0v1.92a2.11,2.11,0,0,0,4.21,0Zm3.94,3.6V140.31h1.35v5.32h1.82v1.18H96.85v6.27Z"/><path d="M99.13,147.73v-1.17h12.34v1.17Zm.85-2.8v-4.59h1.35v3.41h9.36v1.18Zm0,8.15v-4.25h1.35v3.08h9.5v1.17Z"/><path d="M117.63,152.5V140.9h6.72v1.17H119v9.11l6.12-.59v1.18Zm9.49.58V140.31h1.36v12.77Z"/><path d="M130.48,150.94a6.87,6.87,0,0,0,3.49-6.09v-2.69h-3.14V141h7.63v1.18h-3.13v2.69a6.86,6.86,0,0,0,3.49,6.09v1.51a7.67,7.67,0,0,1-4.17-4.67,7.73,7.73,0,0,1-4.17,4.67Zm9.83,2.14V140.31h1.36v5.24h1.82v1.17h-1.82v6.36Z"/><path d="M144.38,149.41v-5.68a3.61,3.61,0,0,1,7.2,0v5.68a3.61,3.61,0,0,1-7.2,0Zm5.84.07v-5.82a2.25,2.25,0,0,0-4.48,0v5.82a2.25,2.25,0,0,0,4.48,0Zm4.23,3.6V140.31h1.35v12.77Z"/><path d="M158.29,152.5V140.83h1.36v10.28l6.19-.59v1.25Zm9.49.58v-6.73h-4.19v-1.18h4.19v-4.86h1.36v12.77Z"/><path d="M171.48,151.39c3.68-.94,5.63-3.88,5.62-9.32h-5.56V140.9h6.92v1c0,6.4-2.57,9.83-7,10.72Zm9.38,1.69V140.31h1.36v5.24h2v1.17h-2v6.36Z"/><path d="M188.93,152.76v-1.18l4.11-.28v-3.41h1.36v3.32l4.11-.28v1.17Zm.78-5.6v-6.52h7.5v1.18h-6.14V146h6.28v1.18Zm9.48,5.92V140.31h1.36v12.77Z"/><path d="M202.34,152.71v-1.18h4.72v-5.72h1.35v5.72h6.27v1.18Zm9.59-3,.53-7.94h-9.34v-1.18H213.9l-.61,9.12Z"/><path d="M216,150.94a6.86,6.86,0,0,0,3.49-6.09v-2.69h-3.14V141H224v1.18h-3.14v2.69a6.87,6.87,0,0,0,3.49,6.09v1.51a7.7,7.7,0,0,1-4.17-4.67,7.67,7.67,0,0,1-4.17,4.67Zm9.84,2.14V140.31h1.35v5.24H229v1.17h-1.82v6.36Z"/><path d="M233.71,142.62v-1.18h3.4V140h1.36v1.47h3.39v1.18Zm2.3.69h3.56a2,2,0,0,1,0,4.09H236a2,2,0,0,1,0-4.09Zm-1.43,9.77v-4.94h1.36v1.19h7.66v-1.19H245v4.94H243.6v-.4Zm4.54-6.86c.71,0,1.09-.38,1.09-.87s-.38-.87-1.09-.87h-2.66c-.71,0-1.09.38-1.09.87s.38.87,1.09.87Zm-3.18,5.62,7.66-.34v-1h-7.66Zm7.66-4.28v-7.25H245v2.79h1.74v1.17H245v3.29Z"/><path d="M248,152.5V140.83h1.36v10.28l6.19-.59v1.25Zm9.49.58V140.31h1.36v12.77Z"/><path d="M261.42,152.5V140.9h6.69v1.17h-5.33v9.11l5.94-.59v1.18Zm8.91.58V140.31h1.35v5.24h2.18v1.17h-2.18v6.36Z"/><path d="M274.46,152.63v-1.55H276v1.55Z"/></g></g></svg>