<svg xmlns="http://www.w3.org/2000/svg" viewBox="0 0 45.14 12.96"><defs><style>.cls-1{fill:#fff;}</style></defs><title>Asset 9</title><g id="Layer_2" data-name="Layer 2"><g id="Layer_1-2" data-name="Layer 1"><path class="cls-1" d="M1.57,13H0l.43-1L5.11,1.15l.2-.43h.94l.19.43L11.12,12l.44,1H10l-.2-.43-4-9.27-4,9.27Z"/><path class="cls-1" d="M13,.72V0h1.44V5.31a3.74,3.74,0,0,1,2.52-1,3.67,3.67,0,0,1,2.57,1A4.26,4.26,0,0,1,20.9,8.64a4.38,4.38,0,0,1-1.06,2.93A3.64,3.64,0,0,1,16.94,13a3.68,3.68,0,0,1-2.52-1v1H13V.72Zm1.94,9.67a2.34,2.34,0,0,0,2,1.13,2.22,2.22,0,0,0,1.51-.58,2.9,2.9,0,0,0,1-2.3,3.18,3.18,0,0,0-.52-1.75,2.32,2.32,0,0,0-2-1.13,2.25,2.25,0,0,0-1.51.58,2.9,2.9,0,0,0-1,2.32A3.18,3.18,0,0,0,14.92,10.39Z"/><path class="cls-1" d="M23.4,5.71a3.71,3.71,0,0,1,5.47-.35,4.26,4.26,0,0,1,1.39,3.28,4.38,4.38,0,0,1-1.06,2.93A3.64,3.64,0,0,1,26.3,13a3.71,3.71,0,0,1-2.58-1,4.29,4.29,0,0,1-1.38-3.28A4.33,4.33,0,0,1,23.4,5.71Zm.9,4.68a2.31,2.31,0,0,0,2,1.13,2.22,2.22,0,0,0,1.51-.58,2.9,2.9,0,0,0,1-2.3,3.18,3.18,0,0,0-.52-1.75,2.32,2.32,0,0,0-2-1.13,2.2,2.2,0,0,0-1.51.58,2.87,2.87,0,0,0-1,2.3A3.1,3.1,0,0,0,24.3,10.39Z"/><path class="cls-1" d="M32.08,4.34h1.45v.72l0,4.61a1.67,1.67,0,0,0,.34,1,2,2,0,0,0,1.71.83,2.13,2.13,0,0,0,1.12-.31,1.71,1.71,0,0,0,.91-1.54V5l0-.7h1.46l0,.72,0,4.61a3.13,3.13,0,0,1-.75,2.05A3.35,3.35,0,0,1,35.55,13a3.55,3.55,0,0,1-2.25-.77,3.08,3.08,0,0,1-1.24-2.52V5Z"/><path class="cls-1" d="M43.11,10.42c0,.71.45,1.08,1.31,1.1h.72V13h-.72a4.19,4.19,0,0,1-1-.11,2.19,2.19,0,0,1-1.8-2.41V5.76H40.46V4.32h1.21V2.43l0-.7h1.46l0,.72V4.32h2V5.76h-2Z"/></g></g></svg>