<svg xmlns="http://www.w3.org/2000/svg" viewBox="0 0 115.97 425.83"><defs><style>.cls-1{opacity:0.8;}</style></defs><g id="레이어_2" data-name="레이어 2"><g id="Layer_1" data-name="Layer 1"><path d="M.51,6.42A4,4,0,0,0,3,2.65V2.48H.64V1.3H3V0H4.34V1.3H6.69V2.48H4.34v.17A4,4,0,0,0,6.82,6.42V7.77A5,5,0,0,1,3.66,4.83,5,5,0,0,1,.51,7.77Zm.8,3.47V8.71H12.37v4.54H11V9.89ZM7.76,8.07V.34H9.12v3H11v-3h1.36V8.07H11V4.51H9.12V8.07Z"/><path d="M14.38,4.13V3.21C14.38,1.3,16,.32,18,.32s3.63,1,3.63,2.89v.92C21.63,6.05,20,7,18,7S14.38,6.05,14.38,4.13Zm.65,9V8H25.81v5.15H24.45v-.42Zm5.24-9v-.8c0-1.18-1-1.78-2.26-1.78s-2.28.6-2.28,1.78v.8c0,1.17,1,1.76,2.28,1.76S20.27,5.25,20.27,4.08Zm-3.89,7.8,8.07-.37V9.13H16.38Zm8.07-4.57v-7h1.36v7Z"/><path d="M27.89,5.8c3.42-.13,5.59-1.23,5.59-4H28V.63h6.89v.79c0,4.1-3.08,5.43-7,5.56Zm.64,7.31V8H38.74v5.15H37.38v-.4Zm1.35-1.25,7.5-.33V9.13h-7.5Zm7.5-4.55v-7h1.36V3h1.9V4.19h-1.9V7.31Z"/><path d="M45.39,6.19a4.31,4.31,0,0,0,3.15-3.78V.49H49.9V2.41c0,1.82,1.56,3.18,3.15,3.71V7.41a5.68,5.68,0,0,1-3.83-3C48.74,5.8,47,7,45.39,7.48Zm3.46,2.13h5.76a2.44,2.44,0,1,1,0,4.86H48.85a2.44,2.44,0,1,1,0-4.86ZM54.53,12a1.26,1.26,0,1,0,0-2.5H48.94a1.26,1.26,0,1,0,0,2.5ZM52.32,3.92V2.75H55.6V.34H57V7.87H55.6V3.92Z"/><path d="M59,5.28c1.79-.52,3.29-1.82,3.29-3.57V.49h1.36V1.71c0,1.75,1.49,3.05,3.28,3.57V6.57c-1.85-.45-3.48-1.58-4-2.94C62.45,5,60.79,6.12,59,6.57Zm1,7.83V9.62h9.26V8.56H59.92V7.38H70.54V10.8H61.28v1.13h9.48v1.18Zm9.26-6.37V.34h1.36v6.4Z"/><path d="M72.47,2.65V1.47h3.39V0h1.36V1.47h3.4V2.65Zm2.29.68h3.56a2,2,0,0,1,2,2.12,2,2,0,0,1-2,2.11H74.76a2,2,0,0,1-2-2.11A2,2,0,0,1,74.76,3.33Zm-1.42,9.78V8.52H83.71v4.59H82.36v-.4Zm4.53-6.72C78.58,6.39,79,6,79,5.45s-.38-.94-1.09-.94H75.21a.95.95,0,1,0,0,1.88ZM74.7,11.88l7.66-.35V9.69H74.7Zm7.66-4V.34h1.35V3.19h1.74V4.37H83.71v3.5Z"/><g class="cls-1"><path d="M6.38,28.24a11.15,11.15,0,0,1,1.74,3.87l.11.36H7.64l0-.2a17.07,17.07,0,0,0-1.14-2.94A4,4,0,0,0,5.25,28H1.69v4.48H1.13V27.71l0-4.46V23H5.32a3,3,0,0,1,1.83.6,2.36,2.36,0,0,1,1,1.93,2.32,2.32,0,0,1-.3,1.15A2.7,2.7,0,0,1,6,27.91,2.73,2.73,0,0,1,6.38,28.24Zm-1-.81A2.38,2.38,0,0,0,6.71,27a1.8,1.8,0,0,0,.42-2.71,2.25,2.25,0,0,0-1.81-.8H1.69v3.93H5.33Z"/><path d="M15.27,31.13a3.16,3.16,0,0,1-2.66,1.34,2.9,2.9,0,0,1-2-.81,3.36,3.36,0,0,1-1.07-2.55,3.42,3.42,0,0,1,.8-2.25,2.84,2.84,0,0,1,2.28-1.11,2.87,2.87,0,0,1,2,.83,3.35,3.35,0,0,1,1,2.53v.28H10.11a3.12,3.12,0,0,0,.56,1.51,2.3,2.3,0,0,0,1.94,1,2.66,2.66,0,0,0,2.22-1.12Zm-.14-2.3a2.58,2.58,0,0,0-2.52-2.52,2.34,2.34,0,0,0-1.44.49,2.76,2.76,0,0,0-1.06,2Z"/><path d="M21.22,27.56a1,1,0,0,0-.28-.68,2,2,0,0,0-1.52-.57,2.4,2.4,0,0,0-1,.21,1.16,1.16,0,0,0-.8,1,.85.85,0,0,0,0,.22c.12.3.58.59,1.4.87,1,.33,1.55.52,1.63.56.89.37,1.34.86,1.34,1.46a1.43,1.43,0,0,1-.43,1,2.87,2.87,0,0,1-2.17.81A3.22,3.22,0,0,1,17.7,32a1.58,1.58,0,0,1-.89-1.35h.56a1,1,0,0,0,.33.68,2.44,2.44,0,0,0,1.72.56,3,3,0,0,0,1.16-.22c.59-.25.88-.59.88-1a.62.62,0,0,0,0-.23c-.11-.3-.57-.58-1.39-.85L18.41,29c-.9-.38-1.36-.87-1.36-1.47a1.5,1.5,0,0,1,.41-1,2.5,2.5,0,0,1,2-.8,2.74,2.74,0,0,1,1.51.42,1.6,1.6,0,0,1,.85,1.39Z"/><path d="M24.51,26.84a2.9,2.9,0,0,1,4.3-.26,3.35,3.35,0,0,1,1.05,2.53,3.46,3.46,0,0,1-.81,2.28,2.88,2.88,0,0,1-2.27,1.08,2.77,2.77,0,0,1-.49,0,3,3,0,0,1-2-1.39v4H23.7V25.75h.56v1.44Zm.34,4.08a2.36,2.36,0,0,0,3.53.36,2.81,2.81,0,0,0,.92-2.17,3,3,0,0,0-.6-1.82,2.32,2.32,0,0,0-1.9-1,2.36,2.36,0,0,0-1.59.62,3,3,0,0,0-.95,2.18A3,3,0,0,0,24.85,30.92Z"/><path d="M31.79,26.83a2.91,2.91,0,0,1,4.3-.25,3.35,3.35,0,0,1,1,2.53,3.46,3.46,0,0,1-.81,2.28,2.91,2.91,0,0,1-4.3.25A3.35,3.35,0,0,1,31,29.11,3.46,3.46,0,0,1,31.79,26.83Zm.34,4.09a2.36,2.36,0,0,0,3.53.36,2.81,2.81,0,0,0,.92-2.17A3,3,0,0,0,36,27.3a2.35,2.35,0,0,0-3.52-.36,2.79,2.79,0,0,0-.93,2.17A3,3,0,0,0,32.13,30.92Z"/><path d="M44.16,32.48h-.55V32.2l0-3.61a2.33,2.33,0,0,0-.43-1.38,2,2,0,0,0-2.94-.44,2.26,2.26,0,0,0-.83,1.82v3.88h-.56V25.75h.56v1.09a.38.38,0,0,1,.09-.09,2.45,2.45,0,0,1,2-1,2.61,2.61,0,0,1,1.7.64,2.82,2.82,0,0,1,1,2.2v3.6Z"/><path d="M50.23,27.56a1,1,0,0,0-.28-.68,2,2,0,0,0-1.52-.57,2.4,2.4,0,0,0-1,.21,1.16,1.16,0,0,0-.8,1,.57.57,0,0,0,0,.22c.11.3.58.59,1.4.87,1,.33,1.55.52,1.63.56.89.37,1.34.86,1.34,1.46a1.47,1.47,0,0,1-.43,1,2.87,2.87,0,0,1-2.17.81A3.28,3.28,0,0,1,46.7,32a1.58,1.58,0,0,1-.88-1.35h.56a1.05,1.05,0,0,0,.32.68,2.47,2.47,0,0,0,1.73.56,3,3,0,0,0,1.16-.22c.59-.25.88-.59.88-1a.62.62,0,0,0,0-.23c-.11-.3-.58-.58-1.39-.85L47.42,29c-.91-.38-1.36-.87-1.36-1.47a1.5,1.5,0,0,1,.41-1,2.48,2.48,0,0,1,2-.8,2.74,2.74,0,0,1,1.51.42,1.6,1.6,0,0,1,.85,1.39Z"/><path d="M52.78,24.62v-.56h.57v.56h-.57Zm0,1.13h.56v6.72h-.56V25.75Z"/><path d="M55.51,23v-.28h.56v4.51a3.69,3.69,0,0,1,.25-.34,2.86,2.86,0,0,1,2.27-1.09,2.9,2.9,0,0,1,2,.83,3.35,3.35,0,0,1,1.05,2.53,3.46,3.46,0,0,1-.81,2.28,2.88,2.88,0,0,1-2.27,1.08,2.63,2.63,0,0,1-.49,0,3,3,0,0,1-2-1.39v1.43h-.56V23Zm1.16,8a2.35,2.35,0,0,0,3.52.36,2.81,2.81,0,0,0,.92-2.17,3,3,0,0,0-.59-1.81A2.36,2.36,0,0,0,57,26.94a2.83,2.83,0,0,0-.92,2.18A2.89,2.89,0,0,0,56.67,30.92Z"/><path d="M63.42,24.62v-.56H64v.56h-.57Zm0,1.13H64v6.72h-.56V25.75Z"/><path d="M66.15,22.67h.56v9.8h-.56v-9.8Z"/><path d="M68.92,24.62v-.56h.58v.56h-.58Zm0,1.13h.56v6.72h-.56V25.75Z"/><path d="M72.51,30.64v.12c.07.77.62,1.15,1.66,1.15h.28v.56h-.28a3.4,3.4,0,0,1-.45,0c-1.17-.12-1.77-.72-1.77-1.8V26.31H70.81v-.56H72V24h.56v1.75h1.94v.56H72.51Z"/><path d="M79.79,25.93l.07-.18h.6l-.14.38L78,32.29a7.55,7.55,0,0,1-1.09,2.11,2,2,0,0,1-1.57.68H75v-.57h.28a1.51,1.51,0,0,0,.93-.28,5,5,0,0,0,1.16-2L75,26.13l-.14-.38h.6l.07.18,2.13,5.48Z"/><path d="M3.26,49.28a4,4,0,0,1-1.13-.14A2.67,2.67,0,0,1,.2,47.44,3,3,0,0,1,.32,45a5.28,5.28,0,0,1,2-1.75,4,4,0,0,1-.81-1.74h0a1.85,1.85,0,0,1,.36-1.09,1.76,1.76,0,0,1,1.44-.69,1.93,1.93,0,0,1,.93.22,1.65,1.65,0,0,1,.93,1.56.64.64,0,0,1,0,.22c-.14.42-.79,1-1.94,1.64L3,43.46A32.72,32.72,0,0,0,6,46.88c.08-.1.18-.24.31-.44l.42-.59c.46-.64.86-1,1.17-1l.28,0v.57H7.85a.52.52,0,0,0-.21.07,3.53,3.53,0,0,0-.81,1c-.19.32-.35.56-.46.71v0A20.25,20.25,0,0,0,8,48.79l.6.49H7.76l-.09-.07c-.51-.42-1.06-.92-1.64-1.49A3.57,3.57,0,0,1,3.26,49.28ZM2.48,43.8A4.15,4.15,0,0,0,.83,45.28l-.11.25a2.31,2.31,0,0,0,.19,2,2.5,2.5,0,0,0,2.35,1.14h.3a3.27,3.27,0,0,0,2.07-1.38,32,32,0,0,1-3-3.6Zm.38-.88.44-.26.41-.24c.58-.34.86-.64.85-.89a1.24,1.24,0,0,0-.25-.76,1.29,1.29,0,0,0-1-.46,2,2,0,0,0-.4.07A1.16,1.16,0,0,0,2,41.54,3.45,3.45,0,0,0,2.7,43Z"/><path d="M15.9,41.42v-.56h.58v.56H15.9Zm0,1.13h.56v6.72H15.9V42.55Z"/><path d="M24,49.28h-.55V49l0-3.61A2.33,2.33,0,0,0,23,44a1.93,1.93,0,0,0-1.66-.9,2,2,0,0,0-1.28.46,2.26,2.26,0,0,0-.83,1.82v3.88h-.56V42.55h.56v1.09l.09-.1a2.48,2.48,0,0,1,2-1,2.6,2.6,0,0,1,1.69.64,2.83,2.83,0,0,1,1,2.2v3.89Z"/><path d="M27.05,47.44v.12c.07.77.63,1.15,1.66,1.15H29v.56h-.28a3.25,3.25,0,0,1-.44,0c-1.18-.12-1.77-.72-1.78-1.8V43.11H25.35v-.56h1.14V40.8h.56v1.75H29v.56H27.05Z"/><path d="M31,43.77a3,3,0,0,1,2.59-1.22h.28v.56h-.28a2.78,2.78,0,0,0-1.39.34A2.48,2.48,0,0,0,31,45.78v3.49h-.56V42.55H31v1.28Z"/><path d="M40.31,47.93a3.19,3.19,0,0,1-2.66,1.34,2.9,2.9,0,0,1-2-.81,3.35,3.35,0,0,1-1.06-2.55,3.42,3.42,0,0,1,.79-2.25,2.84,2.84,0,0,1,2.29-1.11,2.9,2.9,0,0,1,2,.83,3.35,3.35,0,0,1,1,2.53v.28H35.14a3.12,3.12,0,0,0,.56,1.51,2.31,2.31,0,0,0,1.95,1,2.65,2.65,0,0,0,2.21-1.12Zm-.14-2.3a2.48,2.48,0,0,0-.59-1.57,2.44,2.44,0,0,0-1.93-1,2.35,2.35,0,0,0-1.45.49,2.79,2.79,0,0,0-1.06,2Z"/><path d="M42.66,43.63a2.86,2.86,0,0,1,2.27-1.08,2.77,2.77,0,0,1,.49,0,3,3,0,0,1,2,1.39V42.56H48V49a2.72,2.72,0,0,1-.68,1.71,3,3,0,0,1-2.39,1.18h-.28v-.57h.28a2.5,2.5,0,0,0,1.78-.75A2.23,2.23,0,0,0,47.45,49V47.84a4,4,0,0,1-.26.35,2.86,2.86,0,0,1-2.26,1.08,2.83,2.83,0,0,1-2-.83,3.35,3.35,0,0,1-1-2.53A3.46,3.46,0,0,1,42.66,43.63ZM43,47.72a2.34,2.34,0,0,0,1.94,1,2.31,2.31,0,0,0,1.59-.63,2.79,2.79,0,0,0,.93-2.17,3,3,0,0,0-.59-1.81,2.36,2.36,0,0,0-3.53-.36,2.78,2.78,0,0,0-.92,2.17A3,3,0,0,0,43,47.72Z"/><path d="M50.85,43.77a3,3,0,0,1,2.59-1.22h.28v.56h-.28a2.81,2.81,0,0,0-1.39.34,2.46,2.46,0,0,0-1.24,2.33v3.49h-.56V42.55h.56v1.28Z"/><path d="M55.05,41.42v-.56h.57v.56h-.57Zm0,1.13h.56v6.72h-.56V42.55Z"/><path d="M58.63,47.44v.12c.08.77.63,1.15,1.67,1.15h.28v.56H60.3l-.45,0c-1.18-.12-1.77-.72-1.78-1.8V43.11H56.94v-.56h1.13V40.8h.56v1.75h1.95v.56H58.63Z"/><path d="M65.91,42.73l.07-.18h.6l-.14.38-2.36,6.16A7.83,7.83,0,0,1,63,51.2a2,2,0,0,1-1.57.68h-.28v-.57h.28a1.48,1.48,0,0,0,.92-.28,4.9,4.9,0,0,0,1.16-2l-2.35-6.06L61,42.55h.6l.07.18,2.13,5.48Z"/></g><path d="M.36,116.25v-1.18H5.85v-3.33H7.2v3.33h5.49v1.18ZM1.2,111v-6.79H11.85v1.18H2.56v4.44H12V111Z"/><path d="M14.16,110.34a3.65,3.65,0,0,0,3.2-3.7v-1.23H14.29v-1.18h7.5v1.18H18.72v1.23a3.65,3.65,0,0,0,3.21,3.7v1.29c-1.74-.31-3.44-1.22-3.89-2.89-.46,1.67-2.16,2.58-3.88,2.89Zm1,6.29v-4.19h1.36v3H26v1.18Zm6-8.43V107h3.22v-3.17h1.36v9.49H24.37V108.2Z"/><path d="M31.81,109.77a3.66,3.66,0,0,0,3.21-3.7v-.66H32v-1.18h7.49v1.18H36.37v.66a3.66,3.66,0,0,0,3.21,3.7v1.28c-1.74-.3-3.44-1.21-3.89-2.88-.46,1.67-2.15,2.58-3.88,2.88Zm3.46,2.1H41a2.43,2.43,0,1,1,0,4.83H35.27a2.42,2.42,0,1,1,0-4.83ZM41,115.52A1.25,1.25,0,1,0,41,113H35.36a1.25,1.25,0,1,0,0,2.48Zm-1.78-7.46v-1.18H42v-3h1.36v7.57H42v-3.36Z"/><path d="M45.39,110.06a4.51,4.51,0,0,0,3.29-4V104H50v2.06a4.5,4.5,0,0,0,3.28,4v1.29c-1.71-.51-3.48-1.77-4-3.29-.49,1.52-2.29,2.78-4,3.29Zm1,6.57v-4.27h1.36v3.09h9.43v1.18Zm9.18-3.46v-9.32H57v9.32Z"/><g class="cls-1"><path d="M8.09,135.1a3.82,3.82,0,0,1-.82,1,4.25,4.25,0,0,1-2.78,1.05,3.9,3.9,0,0,1-2.92-1.35,5.23,5.23,0,0,1,0-6.83,3.79,3.79,0,0,1,2.92-1.34,4.14,4.14,0,0,1,1.88.46,3.83,3.83,0,0,1,1.71,1.58l-.51.25a3,3,0,0,0-.69-.85,3.64,3.64,0,0,0-2.39-.88A3.36,3.36,0,0,0,2,129.31a4.33,4.33,0,0,0-1.13,3.05,4.38,4.38,0,0,0,1,2.92,3.28,3.28,0,0,0,2.6,1.28A3.8,3.8,0,0,0,6,136.24a3.57,3.57,0,0,0,1.65-1.42Z"/><path d="M10.46,131.39a2.47,2.47,0,0,1,2-1,2.56,2.56,0,0,1,1.7.64,2.81,2.81,0,0,1,1,2.2v3.6l0,.29H14.6v-.28l0-3.61a2.36,2.36,0,0,0-.43-1.39,2,2,0,0,0-2.94-.43,2.24,2.24,0,0,0-.82,1.82v3.88H9.81v-8.91h.57v3.28A.31.31,0,0,1,10.46,131.39Z"/><path d="M17.63,131.48a2.86,2.86,0,0,1,2.26-1.08,2.7,2.7,0,0,1,.49,0,3,3,0,0,1,2,1.39V130.4H23v6.72h-.56v-1.43a3.31,3.31,0,0,1-.25.35,2.9,2.9,0,0,1-4.29.25,3.34,3.34,0,0,1-1.06-2.53A3.47,3.47,0,0,1,17.63,131.48Zm.33,4.08a2.36,2.36,0,0,0,3.53.37,2.79,2.79,0,0,0,.92-2.17,3,3,0,0,0-.58-1.81,2.36,2.36,0,0,0-3.53-.36,2.78,2.78,0,0,0-.92,2.17A3,3,0,0,0,18,135.56Z"/><path d="M25.22,127.32h.55v9.8h-.55v-9.8Z"/><path d="M27.92,127.32h.56v9.8h-.56v-9.8Z"/><path d="M35.8,135.77a3.16,3.16,0,0,1-2.66,1.35,2.9,2.9,0,0,1-2-.81,3.38,3.38,0,0,1-1.06-2.55,3.42,3.42,0,0,1,.8-2.26,2.83,2.83,0,0,1,2.28-1.1,2.89,2.89,0,0,1,2,.82,3.39,3.39,0,0,1,1,2.54V134H30.63a3.22,3.22,0,0,0,.56,1.51,2.36,2.36,0,0,0,1.95,1,2.68,2.68,0,0,0,2.21-1.12Zm-.14-2.29a2.46,2.46,0,0,0-.59-1.57,2.39,2.39,0,0,0-1.93-.95,2.32,2.32,0,0,0-1.44.49,2.75,2.75,0,0,0-1.07,2Z"/><path d="M43.23,137.13h-.54l0-.28v-3.61a2.37,2.37,0,0,0-.44-1.39,2,2,0,0,0-2.93-.43,2.22,2.22,0,0,0-.83,1.82v3.88H37.9V130.4h.56v1.09l.08-.1a2.49,2.49,0,0,1,2-1,2.53,2.53,0,0,1,1.69.64,2.78,2.78,0,0,1,1,2.2v3.89Z"/><path d="M45.71,131.48A2.88,2.88,0,0,1,48,130.4a2.77,2.77,0,0,1,.49,0,3,3,0,0,1,2,1.39v-1.42h.59l0,.28v6.15a2.72,2.72,0,0,1-.67,1.7,3,3,0,0,1-2.4,1.18h-.28v-.56H48a2.52,2.52,0,0,0,1.78-.75,2.19,2.19,0,0,0,.73-1.57v-1.15l-.25.35a2.91,2.91,0,0,1-4.3.25,3.36,3.36,0,0,1-1.05-2.53A3.46,3.46,0,0,1,45.71,131.48Zm.34,4.08a2.34,2.34,0,0,0,3.52.37,2.8,2.8,0,0,0,.93-2.17,3,3,0,0,0-.59-1.81,2.36,2.36,0,0,0-3.53-.36,2.81,2.81,0,0,0-.92,2.17A2.9,2.9,0,0,0,46.05,135.56Z"/><path d="M58.48,135.77a3.16,3.16,0,0,1-2.66,1.35,2.9,2.9,0,0,1-2-.81,3.38,3.38,0,0,1-1.06-2.55,3.42,3.42,0,0,1,.8-2.26,2.83,2.83,0,0,1,2.28-1.1,2.89,2.89,0,0,1,2,.82,3.39,3.39,0,0,1,1,2.54V134H53.31a3.12,3.12,0,0,0,.56,1.51,2.36,2.36,0,0,0,2,1A2.68,2.68,0,0,0,58,135.44Zm-.14-2.29a2.46,2.46,0,0,0-.59-1.57,2.39,2.39,0,0,0-1.93-.95,2.32,2.32,0,0,0-1.44.49,2.75,2.75,0,0,0-1.07,2Z"/><path d="M70.45,132.2a1,1,0,0,0-.28-.67,2,2,0,0,0-1.53-.57,2.44,2.44,0,0,0-1,.21,1.14,1.14,0,0,0-.79,1,.62.62,0,0,0,0,.23c.11.3.58.58,1.4.86q1.52.51,1.62.57c.9.37,1.35.85,1.35,1.45a1.44,1.44,0,0,1-.44,1,2.84,2.84,0,0,1-2.17.81,3.24,3.24,0,0,1-1.72-.45,1.58,1.58,0,0,1-.88-1.36h.56a1.1,1.1,0,0,0,.32.69,2.44,2.44,0,0,0,1.72.56,2.93,2.93,0,0,0,1.16-.23c.59-.24.89-.58.89-1a.59.59,0,0,0,0-.22c-.11-.3-.57-.59-1.38-.86-1-.33-1.55-.52-1.63-.56q-1.35-.55-1.35-1.47a1.47,1.47,0,0,1,.4-1,2.48,2.48,0,0,1,2-.8,2.72,2.72,0,0,1,1.51.42A1.6,1.6,0,0,1,71,132.2Z"/><path d="M73.74,131.49A2.8,2.8,0,0,1,76,130.4a2.87,2.87,0,0,1,2,.82,3.39,3.39,0,0,1,1,2.54,3.49,3.49,0,0,1-.82,2.28A2.86,2.86,0,0,1,76,137.12a4,4,0,0,1-.49,0,3,3,0,0,1-2-1.39v4h-.56V130.4h.56v1.44A3.31,3.31,0,0,1,73.74,131.49Zm.33,4.07a2.36,2.36,0,0,0,3.53.37,2.8,2.8,0,0,0,.93-2.17,2.9,2.9,0,0,0-.61-1.82,2.28,2.28,0,0,0-1.9-1,2.31,2.31,0,0,0-1.58.61,3,3,0,0,0-.37,4Z"/><path d="M81.37,131.62A3,3,0,0,1,84,130.4h.28V131H84a2.91,2.91,0,0,0-1.39.33,2.48,2.48,0,0,0-1.24,2.34v3.49h-.56V130.4h.56v1.27Z"/><path d="M85.57,129.26v-.56h.57v.56h-.57Zm0,1.14h.56v6.72h-.56V130.4Z"/><path d="M88.9,131.62a3,3,0,0,1,2.59-1.22h.28V131h-.28a2.94,2.94,0,0,0-1.39.33,2.5,2.5,0,0,0-1.24,2.34v3.49H88.3V130.4h.56v1.27Z"/><path d="M93.1,129.26v-.56h.57v.56H93.1Zm0,1.14h.56v6.72H93.1V130.4Z"/><path d="M96.68,135.28v.13c.08.76.63,1.15,1.67,1.15h.28v.56h-.28a3.4,3.4,0,0,1-.45,0c-1.18-.12-1.77-.72-1.78-1.81V131H95v-.56h1.13v-1.75h.56v1.75h1.95V131H96.68Z"/></g><path d="M.36,211.85v-1.18H5.85v-3.33H7.2v3.33h5.49v1.18Zm.84-5.27v-6.79H11.85V201H2.56v4.44H12v1.17Z"/><path d="M14.62,206.75v-7H21v1.17H16v4.56l6.07-.44v1.18Zm9.67,5.62V209H15.13v-1.18H25.65v4.51Zm0-5.15v-3.67H20.7v-1.18h3.59v-2.92h1.36v7.77Z"/><path d="M27.74,205.31a4.31,4.31,0,0,0,3.15-3.78v-1.92h1.36v1.92c0,1.82,1.56,3.18,3.15,3.71v1.29c-1.66-.46-3.36-1.64-3.83-3-.48,1.43-2.2,2.63-3.83,3.11Zm3.46,2.13H37a2.44,2.44,0,1,1,0,4.86H31.2a2.44,2.44,0,1,1,0-4.86Zm5.68,3.68a1.26,1.26,0,1,0,0-2.5h-5.6a1.26,1.26,0,1,0,0,2.5ZM34.66,203v-1.18H38v-2.41h1.36V207H38v-4Z"/><g class="cls-1"><path d="M1.7,232.89H1.13v-9.52H1.6l.07.16,3.8,8.39,3.8-8.39.07-.16H9.8v9.52H9.25V225l-3.51,7.77-.07.17H5.29l-.07-.17L1.7,225v7.94Z"/><path d="M12.59,227.25a2.91,2.91,0,0,1,4.29-.26,3.39,3.39,0,0,1,1.05,2.54,3.48,3.48,0,0,1-.81,2.28,2.86,2.86,0,0,1-2.27,1.08,2.9,2.9,0,0,1-2-.83,3.4,3.4,0,0,1-1.05-2.53A3.47,3.47,0,0,1,12.59,227.25Zm.33,4.08a2.36,2.36,0,0,0,3.53.37,2.8,2.8,0,0,0,.93-2.17,3,3,0,0,0-.59-1.81,2.34,2.34,0,0,0-1.94-1,2.31,2.31,0,0,0-1.59.63,2.79,2.79,0,0,0-.93,2.17A3,3,0,0,0,12.92,231.33Z"/><path d="M20.22,227.38a3,3,0,0,1,2.59-1.21h.28v.56h-.28a2.88,2.88,0,0,0-1.39.33,2.51,2.51,0,0,0-1.25,2.34v3.49h-.55v-6.72h.55v1.27Z"/><path d="M24.6,227.25a2.88,2.88,0,0,1,2.27-1.08,2.77,2.77,0,0,1,.49,0,3,3,0,0,1,2,1.38v-1.42H30v6.72h-.56v-1.43c-.08.11-.16.23-.26.35a2.9,2.9,0,0,1-4.29.25,3.36,3.36,0,0,1-1.05-2.53A3.46,3.46,0,0,1,24.6,227.25Zm.34,4.08a2.34,2.34,0,0,0,3.52.37,2.8,2.8,0,0,0,.93-2.17,3,3,0,0,0-.59-1.81,2.36,2.36,0,0,0-3.53-.36,2.78,2.78,0,0,0-.92,2.17A2.9,2.9,0,0,0,24.94,231.33Z"/><path d="M32.19,223.09h.56v9.8h-.56v-9.8Z"/><path d="M35,225v-.56h.57V225H35Zm0,1.14h.56v6.72H35v-6.72Z"/><path d="M38.54,231.05v.13c.08.76.63,1.15,1.67,1.15h.28v.56h-.28l-.45,0c-1.18-.12-1.77-.72-1.78-1.81v-4.32H36.85v-.56H38v-1.75h.56v1.75h2v.56h-2Z"/><path d="M45.82,226.35l.07-.18h.6l-.14.37L44,232.71a7.7,7.7,0,0,1-1.09,2.11,2,2,0,0,1-1.57.67h-.28v-.56h.28a1.48,1.48,0,0,0,.92-.28,4.9,4.9,0,0,0,1.16-2l-2.35-6.07-.14-.37h.6l.07.18,2.13,5.47Z"/></g><path d="M.36,297.36v-1.17H5.85v-3.67H7.2v3.67h5.49v1.17Zm.45-6.5c2.67-.18,5-2.18,5-4.16v-1.54H7.2v1.54c0,2,2.41,4,5,4.16V292c-2.65-.11-5-1.68-5.71-3.47-.68,1.79-3.07,3.36-5.72,3.47Z"/><path d="M20.78,291.66h5.49v1.18H13.94v-1.18h5.49v-1.27H14.78v-3.5H25.36v1.17H16.14v1.15h9.42v1.18H20.78Zm2.77,2.06a2,2,0,1,1,0,4H16.66a2,2,0,1,1,0-4Zm1.88-8.57v1.18H14.78v-1.18Zm-2.16,11.44a.91.91,0,0,0,1-.87.9.9,0,0,0-1-.82H16.91a.87.87,0,0,0-1,.82.89.89,0,0,0,1,.87Z"/><path d="M31.59,291.77V290.6H43.92v1.17Zm2.86,1.31h6.62a2.35,2.35,0,0,1,0,4.69H34.45a2.35,2.35,0,0,1,0-4.69Zm-2-3.92V285h1.35v3h9.36v1.18Zm8.35,7.43a1.13,1.13,0,0,0,1.14-1.19,1.11,1.11,0,0,0-1.14-1.15H34.7a1.09,1.09,0,0,0-1.11,1.15,1.11,1.11,0,0,0,1.11,1.19Z"/><path d="M45.69,292.21v-4.15h4.64l.18-1.62H45.69v-1.18H52l-.45,3.92H47.05V291h6.48v1.18Zm10,5.67v-3.23H46.21v-1.18H57v4.41Zm0-5.05V290H52.75v-1.18h2.93v-1.25H52.75V286.4h2.93V285H57v7.86Z"/><path d="M71.45,292.15a12.36,12.36,0,0,1-1.55,3.29c.6.82.76,1.11,1.4,1.11v1.19h-.53c-.73,0-1-.33-1.75-1.3A4,4,0,0,1,66,298c-1.78,0-3-1.12-3-3.33,0-1.64.85-2.76,2.32-3.94-1.06-1.46-1.44-2.31-1.44-3.31a2.74,2.74,0,0,1,3-2.71c1.79,0,2.89,1,2.89,2.55,0,1.38-.88,2.08-3,3.64l2.46,3.54a9.63,9.63,0,0,0,1-2.27Zm-5.61-.5a3.69,3.69,0,0,0-1.67,2.83c0,1.45.68,2.25,2,2.25a2.92,2.92,0,0,0,2.2-1.31Zm2.68-4.33a1.48,1.48,0,0,0-1.69-1.53,1.64,1.64,0,0,0-1.78,1.66A4,4,0,0,0,66.2,290C67.68,288.9,68.52,288.2,68.52,287.32Z"/><path d="M77,286.44v-1.18h7v1.18ZM77,292v-4.47h7v1.18H78.35v2l6.56-.42v1.18Zm.57,5.73V293.1H88.34v4.64H87v-.42Zm1.36-1.23,8.07-.37v-1.86H78.92ZM87,292.46V285h1.35v7.49Z"/><path d="M92.74,297.74l1-4.58H90V292h9.9v1.18H95.16l-1,4.58Zm.72-7a2.81,2.81,0,0,1,0-5.61h2.67a2.81,2.81,0,0,1,0,5.61Zm2.48-1.18a1.63,1.63,0,0,0,0-3.25H93.65a1.63,1.63,0,0,0,0,3.25Zm4.61,8.18V295.6H96.34v-1.18h4.21V285h1.36v12.77Z"/><path d="M103.63,296.19H116v1.17H103.63Zm9.89-6.36.23-3.35h-9.34V285.3h10.78l-.64,9.09H113.2l.24-3.39h-8.89v-1.17Z"/><g class="cls-1"><path d="M8.09,319.92a3.82,3.82,0,0,1-.82,1,4.25,4.25,0,0,1-2.78,1.05,3.93,3.93,0,0,1-2.92-1.34,5.23,5.23,0,0,1,0-6.83,3.8,3.8,0,0,1,2.92-1.35,4.27,4.27,0,0,1,1.88.46,3.8,3.8,0,0,1,1.71,1.59l-.51.25a3,3,0,0,0-.69-.86A3.7,3.7,0,0,0,4.49,313,3.36,3.36,0,0,0,2,314.13a4.35,4.35,0,0,0-1.13,3.05,4.41,4.41,0,0,0,1,2.93,3.27,3.27,0,0,0,2.6,1.27A3.8,3.8,0,0,0,6,321.06a3.61,3.61,0,0,0,1.65-1.41Z"/><path d="M10.07,316.3a2.86,2.86,0,0,1,2.26-1.08,2.91,2.91,0,0,1,2,.83,3.38,3.38,0,0,1,1,2.53,3.46,3.46,0,0,1-.81,2.28,2.92,2.92,0,0,1-4.3.26,3.42,3.42,0,0,1-1.05-2.54A3.47,3.47,0,0,1,10.07,316.3Zm.33,4.09a2.34,2.34,0,0,0,1.93,1,2.31,2.31,0,0,0,1.6-.63,2.79,2.79,0,0,0,.93-2.17,3,3,0,0,0-.59-1.8,2.36,2.36,0,0,0-3.53-.37,2.79,2.79,0,0,0-.93,2.17A3,3,0,0,0,10.4,320.39Z"/><path d="M21.79,316.16a2.15,2.15,0,0,1,1.8-.94,2.23,2.23,0,0,1,1.46.56,2.62,2.62,0,0,1,.89,2.06v3.82l0,.3h-.55v-.29l0-3.83a2.2,2.2,0,0,0-.35-1.23,1.65,1.65,0,0,0-1.44-.83,1.63,1.63,0,0,0-1.05.39,2.07,2.07,0,0,0-.74,1.67V322h-.54l0-.29v-3.83a2.29,2.29,0,0,0-.35-1.23,1.65,1.65,0,0,0-1.44-.83,1.61,1.61,0,0,0-1.05.39,2,2,0,0,0-.75,1.67v4.1H17.1v-6.72h.55v.93a2.22,2.22,0,0,1,1.8-.93,1.88,1.88,0,0,1,.57.09,2.29,2.29,0,0,1,1.5,1.28A2.2,2.2,0,0,1,21.79,316.16Z"/><path d="M32.87,316.16a2.19,2.19,0,0,1,3.26-.38,2.6,2.6,0,0,1,.9,2.06v3.82l0,.3H36.5l0-.29v-3.83a2.29,2.29,0,0,0-.35-1.23,1.65,1.65,0,0,0-1.44-.83,1.63,1.63,0,0,0-1,.39,2,2,0,0,0-.74,1.67V322h-.54l0-.29v-3.83a2.29,2.29,0,0,0-.35-1.23,1.68,1.68,0,0,0-1.44-.83,1.64,1.64,0,0,0-1.06.39,2.07,2.07,0,0,0-.74,1.67v4.1h-.56v-6.72h.56v.93a2.22,2.22,0,0,1,1.8-.93,1.88,1.88,0,0,1,.57.09,2.29,2.29,0,0,1,1.5,1.28A2.73,2.73,0,0,1,32.87,316.16Z"/><path d="M39,315.24h.58l0,.28v3.93A1.79,1.79,0,0,0,40,320.6a2.17,2.17,0,0,0,1.74.78A2.22,2.22,0,0,0,43,321a1.78,1.78,0,0,0,.86-1.54v-4.21h.58l0,.28v3.93a2.31,2.31,0,0,1-.59,1.55,2.65,2.65,0,0,1-2.11.94,2.83,2.83,0,0,1-1.77-.6,2.33,2.33,0,0,1-.95-1.89v-4.21Z"/><path d="M51.7,322h-.54l0-.29v-3.61a2.4,2.4,0,0,0-.43-1.38,2,2,0,0,0-1.67-.9,2.05,2.05,0,0,0-1.28.46,2.26,2.26,0,0,0-.82,1.82v3.88h-.56v-6.72h.56v1.09a.57.57,0,0,1,.08-.09,2.49,2.49,0,0,1,2-1,2.54,2.54,0,0,1,1.69.65,2.76,2.76,0,0,1,1,2.19V322Z"/><path d="M54,314.09v-.56h.57v.56H54Zm0,1.13h.56v6.72H54v-6.72Z"/><path d="M61.71,320.63a2.9,2.9,0,0,1-2.5,1.31,2.8,2.8,0,0,1-2-.81,3.38,3.38,0,0,1-1-2.55,3.46,3.46,0,0,1,.78-2.25,2.79,2.79,0,0,1,2.26-1.11,2.92,2.92,0,0,1,2.52,1.23l-.48.31a2.32,2.32,0,0,0-2-1,2.29,2.29,0,0,0-1.57.62,2.82,2.82,0,0,0-.91,2.18,3,3,0,0,0,.56,1.79,2.25,2.25,0,0,0,1.92,1,2.48,2.48,0,0,0,2-1.06Z"/><path d="M63.7,316.3A2.88,2.88,0,0,1,66,315.22a4.22,4.22,0,0,1,.49,0,3,3,0,0,1,2,1.39v-1.43h.56v6.72h-.56v-1.43l-.25.35a2.92,2.92,0,0,1-4.3.26,3.39,3.39,0,0,1-1-2.54A3.46,3.46,0,0,1,63.7,316.3Zm.34,4.09a2.33,2.33,0,0,0,1.93,1,2.29,2.29,0,0,0,1.59-.63,2.79,2.79,0,0,0,.93-2.17,3,3,0,0,0-.59-1.8,2.36,2.36,0,0,0-3.53-.37,2.81,2.81,0,0,0-.92,2.17A2.93,2.93,0,0,0,64,320.39Z"/><path d="M72.14,320.11v.12c.08.77.63,1.15,1.67,1.15h.28v.56h-.28l-.45,0c-1.18-.12-1.77-.72-1.78-1.8v-4.33H70.45v-.56h1.13v-1.75h.56v1.75h2v.56h-2Z"/><path d="M75.56,314.09v-.56h.57v.56h-.57Zm0,1.13h.56v6.72h-.56v-6.72Z"/><path d="M78.54,316.3a2.91,2.91,0,0,1,4.3-.25,3.35,3.35,0,0,1,1,2.53,3.46,3.46,0,0,1-.81,2.28,2.92,2.92,0,0,1-4.3.26,3.39,3.39,0,0,1-1-2.54A3.46,3.46,0,0,1,78.54,316.3Zm.34,4.09a2.35,2.35,0,0,0,3.52.36,2.79,2.79,0,0,0,.93-2.17,3,3,0,0,0-.59-1.8,2.36,2.36,0,0,0-3.53-.37,2.81,2.81,0,0,0-.92,2.17A2.93,2.93,0,0,0,78.88,320.39Z"/><path d="M90.9,322h-.54l0-.29v-3.61a2.34,2.34,0,0,0-.44-1.38,1.93,1.93,0,0,0-1.66-.9,2.05,2.05,0,0,0-1.28.46,2.26,2.26,0,0,0-.82,1.82v3.88h-.56v-6.72h.56v1.09a.57.57,0,0,1,.08-.09,2.47,2.47,0,0,1,2-1,2.54,2.54,0,0,1,1.69.65,2.76,2.76,0,0,1,1,2.19V322Z"/><path d="M3.26,338.75a4.44,4.44,0,0,1-1.13-.13A2.68,2.68,0,0,1,.2,336.91a3,3,0,0,1,.12-2.41,5.37,5.37,0,0,1,2-1.75A4,4,0,0,1,1.46,331h0a1.85,1.85,0,0,1,.36-1.09,1.76,1.76,0,0,1,1.44-.69,1.83,1.83,0,0,1,.93.23A1.63,1.63,0,0,1,5.13,331a.63.63,0,0,1,0,.22c-.14.42-.78,1-1.94,1.64l-.13.07A32.9,32.9,0,0,0,6,336.35c.08-.1.18-.24.31-.44l.42-.58c.46-.65.86-1,1.18-1l.27,0v.58H7.86a.4.4,0,0,0-.22.07,3.3,3.3,0,0,0-.81,1c-.19.32-.35.56-.46.72h0c.59.58,1.14,1.09,1.68,1.53l.6.48H7.76l-.09-.06c-.51-.43-1.06-.93-1.63-1.5A3.6,3.6,0,0,1,3.26,338.75Zm-.78-5.48a4.15,4.15,0,0,0-1.65,1.48L.72,335a2.31,2.31,0,0,0,.19,2.05,2.51,2.51,0,0,0,2.35,1.15l.3,0a3.24,3.24,0,0,0,2.07-1.38,32,32,0,0,1-3-3.6Zm.38-.88.44-.26.41-.23c.58-.35.86-.65.85-.9a1.24,1.24,0,0,0-.25-.76,1.29,1.29,0,0,0-1-.46,2,2,0,0,0-.4.07A1.16,1.16,0,0,0,2,331a3.45,3.45,0,0,0,.68,1.47Z"/><path d="M16.69,336.91V337c.07.77.63,1.15,1.66,1.15h.28v.56h-.28a3.25,3.25,0,0,1-.44,0c-1.18-.12-1.77-.72-1.78-1.8v-4.33H15V332h1.14v-1.75h.56V332h1.94v.56H16.69Z"/><path d="M25.22,337.4a3.2,3.2,0,0,1-2.67,1.34,2.9,2.9,0,0,1-2-.81,3.36,3.36,0,0,1-1.07-2.55,3.42,3.42,0,0,1,.8-2.25A2.84,2.84,0,0,1,22.55,332a2.87,2.87,0,0,1,2,.83,3.31,3.31,0,0,1,1.05,2.53v.28H20.05a3.08,3.08,0,0,0,.56,1.51,2.3,2.3,0,0,0,1.94,1,2.66,2.66,0,0,0,2.22-1.12Zm-.15-2.3a2.58,2.58,0,0,0-2.52-2.52,2.41,2.41,0,0,0-1.44.49,2.76,2.76,0,0,0-1.06,2Z"/><path d="M27.57,333.1A2.86,2.86,0,0,1,29.83,332a4,4,0,0,1,.49,0,3,3,0,0,1,2,1.39V332h.55v6.72h-.55v-1.43a4,4,0,0,1-.26.35,2.92,2.92,0,0,1-4.3.26,3.42,3.42,0,0,1-1.05-2.54A3.47,3.47,0,0,1,27.57,333.1Zm.33,4.09a2.34,2.34,0,0,0,1.93,1,2.31,2.31,0,0,0,1.6-.63,2.79,2.79,0,0,0,.93-2.17,3,3,0,0,0-.59-1.8,2.36,2.36,0,0,0-3.53-.37,2.8,2.8,0,0,0-.93,2.17A3,3,0,0,0,27.9,337.19Z"/><path d="M39.84,333a2.18,2.18,0,0,1,1.81-.94,2.23,2.23,0,0,1,1.46.56,2.62,2.62,0,0,1,.89,2.06v3.82l0,.29h-.55v-.27l0-3.84a2.2,2.2,0,0,0-.35-1.23,1.65,1.65,0,0,0-1.44-.83,1.63,1.63,0,0,0-1,.39,2.07,2.07,0,0,0-.74,1.67v4.11h-.54l0-.27v-3.84a2.29,2.29,0,0,0-.35-1.23,1.68,1.68,0,0,0-1.44-.83,1.59,1.59,0,0,0-1,.39,2,2,0,0,0-.74,1.67v4.1h-.57V332h.57V333a2.19,2.19,0,0,1,1.79-.93,1.88,1.88,0,0,1,.57.09,2.29,2.29,0,0,1,1.5,1.28A2.73,2.73,0,0,1,39.84,333Z"/><path d="M45.6,332h.57l.06.21,1.47,5.36,2.2-5.4L50,332h.36l.09.17,2.2,5.4,1.47-5.36,0-.21h.58l-.1.35L53,338.53l-.06.21H52.5l-.08-.17L50.16,333l-2.25,5.53-.09.17h-.39l0-.21-1.68-6.16Z"/><path d="M56.57,333.1a2.91,2.91,0,0,1,4.3-.25,3.35,3.35,0,0,1,1.05,2.53,3.46,3.46,0,0,1-.81,2.28,2.92,2.92,0,0,1-4.3.26,3.39,3.39,0,0,1-1.05-2.54A3.46,3.46,0,0,1,56.57,333.1Zm.34,4.09a2.36,2.36,0,0,0,3.53.36,2.81,2.81,0,0,0,.92-2.17,2.9,2.9,0,0,0-.59-1.8,2.34,2.34,0,0,0-3.52-.37,2.8,2.8,0,0,0-.93,2.17A3,3,0,0,0,56.91,337.19Z"/><path d="M64.2,333.24A3,3,0,0,1,66.79,332h.28v.56h-.28a2.77,2.77,0,0,0-1.38.34,2.49,2.49,0,0,0-1.25,2.33v3.49H63.6V332h.56v1.28A.15.15,0,0,0,64.2,333.24Z"/><path d="M68.89,335.66v3.08h-.56v-9.8h.56v6.16h.72l3.29-3L73,332h.83l-.52.49-3.14,2.87,3.14,2.87.52.49H73l-.08-.07-3.29-3Z"/></g><path d="M.58,395.75a3.65,3.65,0,0,0,3.2-3.7v-1.23H.71v-1.18h7.5v1.18H5.14v1.23a3.65,3.65,0,0,0,3.21,3.7V397c-1.74-.31-3.44-1.22-3.89-2.89C4,395.82,2.3,396.73.58,397Zm1,6.29v-4.19H3v3h9.42V402Zm6-8.44v-1.17h3.22v-3.17h1.36v9.49H10.79V393.6Z"/><path d="M19.45,399.24V396.6H13.94v-1.18H26.27v1.18H20.81v2.64Zm-4.67-5v-4.77H25.43v4.77Zm0,7.83v-4.32h1.36v3.14h9.49V402Zm1.36-9h7.93v-2.41H16.14Z"/><path d="M27.74,395.12a4.33,4.33,0,0,0,3.15-3.79v-1.91h1.36v1.91c0,1.83,1.56,3.18,3.15,3.72v1.29c-1.66-.47-3.36-1.64-3.83-3a5.84,5.84,0,0,1-3.83,3.11Zm3.46,2.13H37a2.44,2.44,0,1,1,0,4.86H31.2a2.44,2.44,0,1,1,0-4.86Zm5.68,3.68a1.26,1.26,0,1,0,0-2.51h-5.6a1.26,1.26,0,1,0,0,2.51Zm-2.22-8.08v-1.18H38v-2.41h1.36v7.54H38v-3.95Z"/><path d="M1.13,421.05l0-4.46v-.28h.28l3.9,0a2.85,2.85,0,0,1,1.82.62,2.31,2.31,0,0,1,1,1.92,2.26,2.26,0,0,1-.63,1.58,2.76,2.76,0,0,1-2.17.92H1.7v4.48H1.13v-4.76Zm4.2-.28a2.45,2.45,0,0,0,1.38-.4,1.82,1.82,0,0,0,.42-2.73,2.27,2.27,0,0,0-1.8-.79H1.7v3.94Z"/><path d="M10.42,420.31A3,3,0,0,1,13,419.09h.28v.56H13a2.89,2.89,0,0,0-1.39.34,2.48,2.48,0,0,0-1.24,2.34v3.48H9.81v-6.72h.57v1.28Z"/><path d="M14.8,420.17a2.91,2.91,0,0,1,4.3-.25,3.36,3.36,0,0,1,1,2.53,3.5,3.5,0,0,1-.81,2.29A2.93,2.93,0,0,1,15,425a3.37,3.37,0,0,1-1-2.54A3.5,3.5,0,0,1,14.8,420.17Zm.33,4.09a2.34,2.34,0,0,0,1.94,1,2.31,2.31,0,0,0,1.59-.63,2.79,2.79,0,0,0,.93-2.17,3,3,0,0,0-.59-1.8,2.36,2.36,0,0,0-3.53-.37,2.83,2.83,0,0,0-.92,2.17A3,3,0,0,0,15.13,424.26Z"/><path d="M24.35,419.09h.28v.56h-2v6.16h-.56v-6.16H21v-.56h1.13a4.84,4.84,0,0,1,.27-1.4,2,2,0,0,1,2-1.41h.28v.56h-.28a1.4,1.4,0,0,0-.54.1c-.68.26-1,1-1.13,2.15Z"/><path d="M31.21,424.47a3.15,3.15,0,0,1-2.66,1.34,2.9,2.9,0,0,1-2-.81,3.35,3.35,0,0,1-1.06-2.55,3.39,3.39,0,0,1,.8-2.25,2.81,2.81,0,0,1,2.28-1.11,2.9,2.9,0,0,1,2,.83,3.36,3.36,0,0,1,1.05,2.53v.28H26a3.15,3.15,0,0,0,.56,1.52,2.33,2.33,0,0,0,1.95,1,2.65,2.65,0,0,0,2.21-1.12Zm-.14-2.3a2.43,2.43,0,0,0-.59-1.56,2.4,2.4,0,0,0-1.93-1,2.36,2.36,0,0,0-1.44.49,2.79,2.79,0,0,0-1.07,2Z"/><path d="M37.16,420.9a1,1,0,0,0-.28-.67,2,2,0,0,0-1.53-.58,2.44,2.44,0,0,0-1,.21,1.16,1.16,0,0,0-.79,1,.54.54,0,0,0,0,.22c.11.3.57.59,1.4.87l1.62.56c.9.38,1.34.86,1.34,1.46a1.43,1.43,0,0,1-.43,1,2.85,2.85,0,0,1-2.17.81,3.24,3.24,0,0,1-1.72-.44,1.59,1.59,0,0,1-.88-1.36h.56a1,1,0,0,0,.32.68,2.39,2.39,0,0,0,1.72.56,2.92,2.92,0,0,0,1.16-.22c.59-.24.88-.58.88-1a.62.62,0,0,0,0-.23c-.11-.29-.57-.58-1.38-.85-1-.34-1.55-.52-1.63-.56-.9-.37-1.36-.86-1.36-1.47a1.52,1.52,0,0,1,.41-1,2.51,2.51,0,0,1,2-.8,2.74,2.74,0,0,1,1.51.42,1.63,1.63,0,0,1,.86,1.39Z"/><path d="M43.48,420.9a1,1,0,0,0-.27-.67,2,2,0,0,0-1.53-.58,2.4,2.4,0,0,0-1,.21,1.17,1.17,0,0,0-.8,1,.78.78,0,0,0,0,.22c.12.3.58.59,1.4.87l1.63.56c.89.38,1.34.86,1.34,1.46a1.43,1.43,0,0,1-.43,1,2.87,2.87,0,0,1-2.17.81,3.24,3.24,0,0,1-1.72-.44,1.6,1.6,0,0,1-.89-1.36h.56a1,1,0,0,0,.33.68,2.39,2.39,0,0,0,1.72.56,3,3,0,0,0,1.16-.22c.59-.24.88-.58.88-1a.62.62,0,0,0,0-.23c-.11-.29-.57-.58-1.38-.85-1-.34-1.56-.52-1.63-.56-.9-.37-1.36-.86-1.36-1.47a1.52,1.52,0,0,1,.41-1,2.5,2.5,0,0,1,2-.8,2.74,2.74,0,0,1,1.51.42,1.63,1.63,0,0,1,.86,1.39Z"/><path d="M46,418v-.56h.58V418H46Zm0,1.13h.56v6.72H46v-6.72Z"/><path d="M49,420.17a2.91,2.91,0,0,1,4.3-.25,3.36,3.36,0,0,1,1,2.53,3.5,3.5,0,0,1-.81,2.29,2.93,2.93,0,0,1-4.3.25,3.37,3.37,0,0,1-1-2.54A3.5,3.5,0,0,1,49,420.17Zm.34,4.09a2.36,2.36,0,0,0,3.53.36,2.81,2.81,0,0,0,.92-2.17,3,3,0,0,0-.58-1.8,2.35,2.35,0,0,0-1.94-1,2.31,2.31,0,0,0-1.59.63,2.8,2.8,0,0,0-.93,2.17A3,3,0,0,0,49.35,424.26Z"/><path d="M61.38,425.83h-.55v-.28l0-3.61a2.34,2.34,0,0,0-.43-1.39,2,2,0,0,0-1.67-.9,2,2,0,0,0-1.27.47,2.24,2.24,0,0,0-.83,1.82v3.87H56v-6.72h.56v1.1l.09-.1a2.48,2.48,0,0,1,2-1,2.57,2.57,0,0,1,1.7.65,2.81,2.81,0,0,1,1,2.2v3.59Z"/><path d="M63.85,420.17a2.89,2.89,0,0,1,2.27-1.08,2.81,2.81,0,0,1,.49.05,3,3,0,0,1,2,1.38v-1.43h.56v6.72h-.56v-1.42c-.07.11-.16.23-.25.35a2.93,2.93,0,0,1-4.3.25A3.37,3.37,0,0,1,63,422.45,3.5,3.5,0,0,1,63.85,420.17Zm.34,4.09a2.36,2.36,0,0,0,3.53.36,2.81,2.81,0,0,0,.92-2.17,2.9,2.9,0,0,0-.59-1.8,2.34,2.34,0,0,0-3.52-.37,2.8,2.8,0,0,0-.93,2.17A3,3,0,0,0,64.19,424.26Z"/><path d="M71.44,416H72v9.8h-.56V416Z"/><path d="M74.22,418v-.56h.57V418h-.57Zm0,1.13h.55v6.72h-.55v-6.72Z"/><path d="M80.79,420.9a1,1,0,0,0-.28-.67,2,2,0,0,0-1.52-.58,2.4,2.4,0,0,0-1,.21,1.17,1.17,0,0,0-.8,1,.78.78,0,0,0,0,.22c.12.3.58.59,1.4.87l1.63.56c.89.38,1.34.86,1.34,1.46a1.43,1.43,0,0,1-.43,1,2.87,2.87,0,0,1-2.17.81,3.22,3.22,0,0,1-1.72-.44,1.6,1.6,0,0,1-.89-1.36h.56a1,1,0,0,0,.33.68,2.39,2.39,0,0,0,1.72.56,2.92,2.92,0,0,0,1.16-.22c.59-.24.88-.58.88-1a.62.62,0,0,0,0-.23c-.11-.29-.57-.58-1.39-.85-1-.34-1.55-.52-1.62-.56-.91-.37-1.36-.86-1.36-1.47a1.52,1.52,0,0,1,.41-1,2.5,2.5,0,0,1,2-.8,2.74,2.74,0,0,1,1.51.42,1.62,1.62,0,0,1,.85,1.39Z"/><path d="M88,420a2.21,2.21,0,0,1,1.81-.94,2.18,2.18,0,0,1,1.45.56,2.61,2.61,0,0,1,.9,2.06v4.12h-.54l0-.28v-3.84a2.29,2.29,0,0,0-.35-1.23,1.65,1.65,0,0,0-1.44-.83,1.62,1.62,0,0,0-1,.4,2,2,0,0,0-.74,1.66v4.12h-.55v-4.12a2.29,2.29,0,0,0-.35-1.23,1.68,1.68,0,0,0-1.45-.83,1.64,1.64,0,0,0-1.05.4,2.05,2.05,0,0,0-.74,1.66v4.1h-.56v-6.72h.56V420a2.21,2.21,0,0,1,1.79-.93,1.9,1.9,0,0,1,.58.09,2.31,2.31,0,0,1,1.5,1.29A2.82,2.82,0,0,1,88,420Z"/></g></g></svg>