<svg xmlns="http://www.w3.org/2000/svg" viewBox="0 0 35.79 114.95"><g id="레이어_2" data-name="레이어 2"><g id="Layer_1" data-name="Layer 1"><g id="Ai"><path d="M18,23.84H8l-2,6.33a.52.52,0,0,1-.53.39H.33q-.44,0-.3-.48l8.67-25c.09-.26.17-.56.26-.89a9.46,9.46,0,0,0,.17-1.76.27.27,0,0,1,.23-.3h7c.2,0,.32.07.34.22l9.84,27.74c.09.29,0,.43-.26.43H20.62a.4.4,0,0,1-.43-.3ZM9.52,18.38h6.85c-.17-.58-.37-1.23-.61-1.95s-.47-1.5-.73-2.32l-.78-2.47c-.26-.82-.5-1.62-.72-2.38S13.12,7.79,13,7.15h0A32.19,32.19,0,0,1,12,10.62l-1.23,4c-.42,1.36-.83,2.61-1.24,3.77Z"/><path d="M32.37,6.76a3.14,3.14,0,0,1-2.39-1,3.42,3.42,0,0,1-.91-2.47,3.17,3.17,0,0,1,1-2.41A3.34,3.34,0,0,1,32.45,0,3.23,3.23,0,0,1,34.9.93a3.41,3.41,0,0,1,.89,2.41,3.38,3.38,0,0,1-.93,2.47A3.31,3.31,0,0,1,32.37,6.76Zm-3,23.37V9.41c0-.26.12-.39.35-.39h5.33c.23,0,.35.13.35.39V30.13c0,.29-.12.43-.35.43H29.76C29.5,30.56,29.37,30.42,29.37,30.13Z"/></g><path d="M11.22,106.49v.07A4.86,4.86,0,0,1,11,108a37.09,37.09,0,0,1-3.24,6.8l-.09.18H6.81l.3-.54q1.59-2.79,2.34-4.48a3.56,3.56,0,0,1-2,.65,3.67,3.67,0,0,1-2.47-1,4,4,0,0,1-1.35-3.14,4.29,4.29,0,0,1,1-2.77,3.54,3.54,0,0,1,2.83-1.37,3.59,3.59,0,0,1,2.27.81,4.11,4.11,0,0,1,1.51,3h0v.38Zm-1.4-2.18a2.88,2.88,0,0,0-4.33-.5A3.62,3.62,0,0,0,5,108.58a2.88,2.88,0,0,0,2.41,1.28,3,3,0,0,0,1.29-.33,3.18,3.18,0,0,0,1.64-2.07,5.07,5.07,0,0,0,.13-.88v-.11A3.82,3.82,0,0,0,9.82,104.31Z"/><path d="M13.88,104a3.17,3.17,0,0,1,2.61-1.68,3.11,3.11,0,0,1,2.4,1.44,8.1,8.1,0,0,1,1.36,4.86A8.3,8.3,0,0,1,19,113.28,3.06,3.06,0,0,1,16.49,115a3.09,3.09,0,0,1-2.44-1.46,7.89,7.89,0,0,1-1.39-4.86A8.32,8.32,0,0,1,13.88,104Zm.35,8.46c.59,1.17,1.35,1.76,2.26,1.76a2.43,2.43,0,0,0,2-1.28,7.78,7.78,0,0,0,1.09-4.32,8.41,8.41,0,0,0-.82-3.83c-.6-1.16-1.34-1.75-2.22-1.75a2.53,2.53,0,0,0-2,1.3,7.6,7.6,0,0,0-1.11,4.28A8.18,8.18,0,0,0,14.23,112.47Z"/><path d="M31.23,102.69h.94l-.47.6-9.36,11.52-.11.12H21.3l.47-.59,9.36-11.52Zm-5.7.2a2.45,2.45,0,0,1,1.53,2.61,3.7,3.7,0,0,1-.4,1.84,2.32,2.32,0,0,1-2.21,1.24,2.86,2.86,0,0,1-1.22-.25,2.75,2.75,0,0,1-1.54-2.81,3,3,0,0,1,.44-1.66,2.48,2.48,0,0,1,2.32-1.17A3.83,3.83,0,0,1,25.53,102.89Zm-2,.67a1.88,1.88,0,0,0-1.17,2,2.85,2.85,0,0,0,.24,1.22,1.83,1.83,0,0,0,1.8,1.12,1.92,1.92,0,0,0,.79-.16,2.11,2.11,0,0,0,1.1-2.2,2.45,2.45,0,0,0-.16-1,1.71,1.71,0,0,0-1.73-1.1A2.57,2.57,0,0,0,23.58,103.56Zm3.21,6.69A2.32,2.32,0,0,1,29,109a3.53,3.53,0,0,1,1.1.22,2.77,2.77,0,0,1,1.57,2.88,3.29,3.29,0,0,1-.31,1.48A2.38,2.38,0,0,1,29,114.93a3.89,3.89,0,0,1-.85-.09c-1.16-.3-1.76-1.19-1.79-2.68A4,4,0,0,1,26.79,110.25Zm.43,2.69a1.66,1.66,0,0,0,1.8,1.27,2.1,2.1,0,0,0,.7-.12,1.86,1.86,0,0,0,1.23-2,3.15,3.15,0,0,0-.2-1.15A1.77,1.77,0,0,0,29,109.71a1.91,1.91,0,0,0-.86.2,2.31,2.31,0,0,0-1.05,2.25A3.74,3.74,0,0,0,27.22,112.94Z"/></g></g></svg>