<svg xmlns="http://www.w3.org/2000/svg" viewBox="0 0 35.79 30.56"><g id="레이어_2" data-name="레이어 2"><g id="Layer_1" data-name="Layer 1"><g id="Ai"><path d="M18,23.84H8l-2,6.33a.52.52,0,0,1-.53.39H.33q-.44,0-.3-.48l8.67-25c.09-.26.17-.56.26-.89a9.46,9.46,0,0,0,.17-1.76.27.27,0,0,1,.23-.3h7c.2,0,.32.07.34.22l9.84,27.74c.09.29,0,.43-.26.43H20.62a.4.4,0,0,1-.43-.3ZM9.52,18.38h6.85c-.17-.58-.37-1.23-.61-1.95s-.47-1.5-.73-2.32l-.78-2.47c-.26-.82-.5-1.62-.72-2.38S13.12,7.79,13,7.15h0A32.19,32.19,0,0,1,12,10.62l-1.23,4c-.42,1.36-.83,2.61-1.24,3.77Z"/><path d="M32.37,6.76a3.14,3.14,0,0,1-2.39-1,3.42,3.42,0,0,1-.91-2.47,3.17,3.17,0,0,1,1-2.41A3.34,3.34,0,0,1,32.45,0,3.23,3.23,0,0,1,34.9.93a3.41,3.41,0,0,1,.89,2.41,3.38,3.38,0,0,1-.93,2.47A3.31,3.31,0,0,1,32.37,6.76Zm-3,23.37V9.41c0-.26.12-.39.35-.39h5.33c.23,0,.35.13.35.39V30.13c0,.29-.12.43-.35.43H29.76C29.5,30.56,29.37,30.42,29.37,30.13Z"/></g></g></g></svg>