<svg xmlns="http://www.w3.org/2000/svg" viewBox="0 0 200.94 52.32"><defs><style>.cls-1{fill:#fff;}</style></defs><g id="레이어_2" data-name="레이어 2"><g id="Layer_1" data-name="Layer 1"><path class="cls-1" d="M19,1.19H30.21L48.89,51.13H37.49L33.71,40H15L11.12,51.13H0ZM17.9,31.82H30.84L24.55,13.5h-.14Z"/><path class="cls-1" d="M52.6,40.36h11V51.13h-11Z"/><path class="cls-1" d="M72.67,1.19H95.19A21.54,21.54,0,0,1,103,2.48a14,14,0,0,1,8.5,8.71,18.95,18.95,0,0,1,0,12,14.4,14.4,0,0,1-3.08,5.14A14.26,14.26,0,0,1,103,31.93a21.54,21.54,0,0,1-7.8,1.29H83.65V51.13h-11Zm11,23.5h8.53A20.59,20.59,0,0,0,96,24.37a9,9,0,0,0,3-1.12A5.31,5.31,0,0,0,101.1,21a8.44,8.44,0,0,0,.73-3.77,8.46,8.46,0,0,0-.73-3.78A5.59,5.59,0,0,0,99,11.12,8.41,8.41,0,0,0,96,10a23.89,23.89,0,0,0-3.78-.28H83.65Z"/><path class="cls-1" d="M118.69,40.36h11V51.13h-11Z"/><path class="cls-1" d="M172.05,18a9.29,9.29,0,0,0-3.63-6.22,11.33,11.33,0,0,0-7.28-2.52,13,13,0,0,0-6.19,1.4,11.6,11.6,0,0,0-4.23,3.78,17.15,17.15,0,0,0-2.38,5.45,26.94,26.94,0,0,0-.76,6.51,25,25,0,0,0,.76,6.26A16.8,16.8,0,0,0,150.76,38,11.65,11.65,0,0,0,155,41.72a13,13,0,0,0,6.15,1.36,10.25,10.25,0,0,0,7.8-3,13.86,13.86,0,0,0,3.53-8.15h10.64a25.46,25.46,0,0,1-2.17,8.4,20.7,20.7,0,0,1-4.65,6.47,20.24,20.24,0,0,1-6.75,4.12,23.82,23.82,0,0,1-8.4,1.44,25.38,25.38,0,0,1-10.24-2,22.26,22.26,0,0,1-7.77-5.52,24.43,24.43,0,0,1-4.86-8.29,30.22,30.22,0,0,1-1.68-10.14A31.2,31.2,0,0,1,138.27,16a25,25,0,0,1,4.86-8.43A21.83,21.83,0,0,1,150.9,2a25.38,25.38,0,0,1,10.24-2A25.66,25.66,0,0,1,169,1.19a20.64,20.64,0,0,1,6.61,3.5,18.52,18.52,0,0,1,4.75,5.66A20.44,20.44,0,0,1,182.69,18Z"/><path class="cls-1" d="M190,40.36h11V51.13H190Z"/></g></g></svg>