<svg xmlns="http://www.w3.org/2000/svg" viewBox="0 0 46 14.17"><defs><style>.cls-1{fill:#fff;}</style></defs><g id="레이어_2" data-name="레이어 2"><g id="레이어_2-2" data-name="레이어 2"><rect width="46" height="14.17"/><path class="cls-1" d="M5.6,6.86a2.12,2.12,0,0,1,.84,1.71A2.09,2.09,0,0,1,5.87,10,2.36,2.36,0,0,1,4,10.85H.44V2.71H.93l2.62,0a2.54,2.54,0,0,1,1.63.58A2.14,2.14,0,0,1,6,5a2.24,2.24,0,0,1-.77,1.65A2.25,2.25,0,0,1,5.6,6.86Zm-2-.56a1.56,1.56,0,0,0,.85-.25,1.19,1.19,0,0,0,.37-1.83,1.48,1.48,0,0,0-1.22-.57H1.4V6.31ZM1.41,9.91,4,9.89a1.57,1.57,0,0,0,.84-.24,1.21,1.21,0,0,0,.65-1.08,1.19,1.19,0,0,0-.27-.75A1.44,1.44,0,0,0,4,7.26H1.41Z"/><path class="cls-1" d="M10.37,5.1h.48v1h-.48a1.48,1.48,0,0,0-.72.18A1.78,1.78,0,0,0,8.84,7.9v2.95h-1V5.1h1v.5A2.4,2.4,0,0,1,10.37,5.1Z"/><path class="cls-1" d="M12.16,6a2.48,2.48,0,0,1,3.61-.26V5.1h1v5.75h-1v-.66a2.41,2.41,0,0,1-1.68.66,2.44,2.44,0,0,1-1.71-.69A2.84,2.84,0,0,1,11.45,8,2.91,2.91,0,0,1,12.16,6Zm.6,3.12a1.54,1.54,0,0,0,1.33.75,1.46,1.46,0,0,0,1-.38A1.93,1.93,0,0,0,15.77,8a2.07,2.07,0,0,0-.34-1.16,1.56,1.56,0,0,0-1.34-.76,1.47,1.47,0,0,0-1,.39A1.93,1.93,0,0,0,12.41,8,2.09,2.09,0,0,0,12.76,9.14Z"/><path class="cls-1" d="M23.23,10.87h-.95v-.48l0-2.81A1.69,1.69,0,0,0,22,6.72a1.22,1.22,0,0,0-1.1-.67,1.15,1.15,0,0,0-.74.27,1.52,1.52,0,0,0-.58,1.26v3.27h-1V5.1h1v.45a2.21,2.21,0,0,1,1.32-.45,2.07,2.07,0,0,1,1.43.55,2.41,2.41,0,0,1,.85,1.93v2.79Z"/><path class="cls-1" d="M25.36,6A2.48,2.48,0,0,1,29,5.76V2.22h1v8.63H29v-.66a2.47,2.47,0,0,1-3.39,0A2.84,2.84,0,0,1,24.65,8,2.91,2.91,0,0,1,25.36,6ZM26,9.14a1.54,1.54,0,0,0,1.33.75,1.46,1.46,0,0,0,1-.38A1.93,1.93,0,0,0,29,8a2.07,2.07,0,0,0-.34-1.16,1.56,1.56,0,0,0-1.34-.76,1.47,1.47,0,0,0-1,.39A1.93,1.93,0,0,0,25.61,8,2.09,2.09,0,0,0,26,9.14Z"/><path class="cls-1" d="M31.67,4.36v-1h1v1h-1Zm0,.74h1v5.75h-1V5.1Z"/><path class="cls-1" d="M38.83,10.87h-.95v-.48l0-2.81a1.69,1.69,0,0,0-.22-.86,1.22,1.22,0,0,0-1.1-.67,1.15,1.15,0,0,0-.74.27,1.52,1.52,0,0,0-.58,1.26v3.27h-1V5.1h1v.45a2.21,2.21,0,0,1,1.32-.45A2.07,2.07,0,0,1,38,5.65a2.41,2.41,0,0,1,.85,1.93v2.79Z"/><path class="cls-1" d="M41,6a2.48,2.48,0,0,1,3.61-.26V5.57l0-.46h1v.48l0,4.78a2.88,2.88,0,0,1-.12.8,3.24,3.24,0,0,1-.35.79,3.71,3.71,0,0,1-.55.69,2.34,2.34,0,0,1-.73.49,2.2,2.2,0,0,1-.87.19h-.48v-1h.48a1.53,1.53,0,0,0,1.14-.59,2.14,2.14,0,0,0,.52-1.41v-.18a2.41,2.41,0,0,1-1.68.66,2.44,2.44,0,0,1-1.71-.69A2.84,2.84,0,0,1,40.25,8,2.91,2.91,0,0,1,41,6Zm.6,3.12a1.54,1.54,0,0,0,1.33.75,1.46,1.46,0,0,0,1-.38A1.93,1.93,0,0,0,44.57,8a2.07,2.07,0,0,0-.34-1.16,1.56,1.56,0,0,0-1.34-.76,1.47,1.47,0,0,0-1,.39A1.93,1.93,0,0,0,41.21,8,2.09,2.09,0,0,0,41.56,9.14Z"/></g></g></svg>