<svg xmlns="http://www.w3.org/2000/svg" viewBox="0 0 60.1 14.17"><defs><style>.cls-1{fill:#fff;}</style></defs><g id="레이어_2" data-name="레이어 2"><g id="레이어_2-2" data-name="레이어 2"><rect width="60.1" height="14.17"/><path class="cls-1" d="M12.78,6.86A2.15,2.15,0,0,1,13.06,10a2.4,2.4,0,0,1-1.89.84H7.62V2.71h.48l2.62,0a2.52,2.52,0,0,1,1.63.58A2.14,2.14,0,0,1,13.19,5a2.2,2.2,0,0,1-.77,1.65A2.25,2.25,0,0,1,12.78,6.86Zm-2-.56a1.53,1.53,0,0,0,.85-.25A1.21,1.21,0,0,0,12.23,5,1.15,1.15,0,0,0,12,4.22a1.48,1.48,0,0,0-1.22-.57H8.58V6.31ZM8.59,9.91l2.58,0A1.53,1.53,0,0,0,12,9.65a1.19,1.19,0,0,0,.65-1.08,1.24,1.24,0,0,0-.26-.75,1.47,1.47,0,0,0-1.23-.56H8.59Z"/><path class="cls-1" d="M17.56,5.1H18v1h-.48a1.43,1.43,0,0,0-.72.18A1.77,1.77,0,0,0,16,7.9v2.95h-1V5.1h1v.5A2.43,2.43,0,0,1,17.56,5.1Z"/><path class="cls-1" d="M19.35,6a2.41,2.41,0,0,1,1.93-.92A2.43,2.43,0,0,1,23,5.76V5.1h1v5.75H23v-.66a2.48,2.48,0,0,1-3.4,0A2.87,2.87,0,0,1,18.64,8,2.86,2.86,0,0,1,19.35,6ZM20,9.14a1.53,1.53,0,0,0,1.33.75,1.5,1.5,0,0,0,1-.38A2,2,0,0,0,23,8a2.08,2.08,0,0,0-.35-1.16,1.55,1.55,0,0,0-1.33-.76,1.49,1.49,0,0,0-1,.39A1.92,1.92,0,0,0,19.6,8,2,2,0,0,0,20,9.14Z"/><path class="cls-1" d="M30.41,10.87h-.95V7.58a1.7,1.7,0,0,0-.23-.86,1.21,1.21,0,0,0-1.09-.67,1.19,1.19,0,0,0-.75.27,1.51,1.51,0,0,0-.57,1.26v3.27h-1V5.1h1v.45a2.17,2.17,0,0,1,1.32-.45,2.11,2.11,0,0,1,1.43.55,2.44,2.44,0,0,1,.85,1.93v3.29Z"/><path class="cls-1" d="M32.55,6a2.39,2.39,0,0,1,1.93-.92,2.43,2.43,0,0,1,1.68.66V2.22h1v8.63h-1v-.66a2.48,2.48,0,0,1-3.4,0A2.83,2.83,0,0,1,31.84,8,2.86,2.86,0,0,1,32.55,6Zm.59,3.12a1.56,1.56,0,0,0,1.34.75,1.46,1.46,0,0,0,1-.38A1.94,1.94,0,0,0,36.16,8a2.08,2.08,0,0,0-.35-1.16,1.55,1.55,0,0,0-1.33-.76,1.47,1.47,0,0,0-1,.39A1.92,1.92,0,0,0,32.8,8,2.08,2.08,0,0,0,33.14,9.14Z"/><path class="cls-1" d="M38.86,4.36v-1h1v1h-1Zm0,.74h1v5.75h-1V5.1Z"/><path class="cls-1" d="M46,10.87h-.95V7.58a1.7,1.7,0,0,0-.23-.86,1.21,1.21,0,0,0-1.09-.67,1.17,1.17,0,0,0-.75.27,1.51,1.51,0,0,0-.57,1.26v3.27h-1V5.1h1v.45a2.17,2.17,0,0,1,1.32-.45,2.06,2.06,0,0,1,1.42.55A2.42,2.42,0,0,1,46,7.58v3.29Z"/><path class="cls-1" d="M48.15,6a2.41,2.41,0,0,1,1.93-.92,2.43,2.43,0,0,1,1.68.66V5.11h1v5.26a2.88,2.88,0,0,1-.12.8,3.7,3.7,0,0,1-.9,1.48,2.46,2.46,0,0,1-.73.49,2.28,2.28,0,0,1-.88.19h-.48v-1h.48a1.53,1.53,0,0,0,1.14-.59,2.15,2.15,0,0,0,.53-1.41v-.18a2.48,2.48,0,0,1-3.4,0A2.87,2.87,0,0,1,47.44,8,2.86,2.86,0,0,1,48.15,6Zm.6,3.12a1.53,1.53,0,0,0,1.33.75,1.5,1.5,0,0,0,1-.38A2,2,0,0,0,51.76,8a2.08,2.08,0,0,0-.35-1.16,1.55,1.55,0,0,0-1.33-.76,1.49,1.49,0,0,0-1,.39A1.92,1.92,0,0,0,48.4,8,2,2,0,0,0,48.75,9.14Z"/></g></g></svg>