<svg xmlns="http://www.w3.org/2000/svg" viewBox="0 0 68.82 21.13"><defs><style>.cls-1{fill:#fff;}</style></defs><g id="레이어_2" data-name="레이어 2"><g id="레이어_2-2" data-name="레이어 2"><rect width="68.82" height="21.13"/><path class="cls-1" d="M17.14,10.34a2.15,2.15,0,0,1,.28,3.15,2.4,2.4,0,0,1-1.89.84H12V6.18h3.1a2.47,2.47,0,0,1,1.63.58,2.14,2.14,0,0,1,.83,1.7,2.22,2.22,0,0,1-.77,1.65A2.25,2.25,0,0,1,17.14,10.34Zm-2.05-.57a1.61,1.61,0,0,0,.85-.24,1.21,1.21,0,0,0,.65-1.08,1.15,1.15,0,0,0-.28-.75,1.48,1.48,0,0,0-1.22-.57H12.94V9.78ZM13,13.38h2.58a1.53,1.53,0,0,0,.84-.24A1.19,1.19,0,0,0,17,12.05a1.24,1.24,0,0,0-.26-.75,1.48,1.48,0,0,0-1.23-.57H13Z"/><path class="cls-1" d="M21.92,8.57h.48v1h-.48a1.43,1.43,0,0,0-.72.18,1.76,1.76,0,0,0-.82,1.67v2.95h-1V8.57h1v.51A2.52,2.52,0,0,1,21.92,8.57Z"/><path class="cls-1" d="M23.71,9.5a2.42,2.42,0,0,1,1.93-.93,2.48,2.48,0,0,1,1.68.66V8.57h1v5.76h-1v-.66a2.54,2.54,0,0,1-1.68.66,2.46,2.46,0,0,1-1.72-.69A2.87,2.87,0,0,1,23,11.45,2.86,2.86,0,0,1,23.71,9.5Zm.6,3.12a1.53,1.53,0,0,0,1.33.75,1.55,1.55,0,0,0,1-.38,2,2,0,0,0,.67-1.54A2.08,2.08,0,0,0,27,10.29a1.53,1.53,0,0,0-1.33-.76,1.49,1.49,0,0,0-1,.39A1.92,1.92,0,0,0,24,11.45,2,2,0,0,0,24.31,12.62Z"/><path class="cls-1" d="M34.77,14.34h-1V11.06a1.74,1.74,0,0,0-.23-.87,1.22,1.22,0,0,0-1.09-.66,1.19,1.19,0,0,0-.75.27,1.51,1.51,0,0,0-.57,1.26v3.27h-1V8.57h1V9a2.18,2.18,0,0,1,1.32-.46,2.15,2.15,0,0,1,1.43.55,2.46,2.46,0,0,1,.85,1.94v3.28Z"/><path class="cls-1" d="M36.91,9.5a2.42,2.42,0,0,1,1.93-.93,2.48,2.48,0,0,1,1.68.66V5.69h1v8.64h-1v-.66a2.54,2.54,0,0,1-1.68.66,2.46,2.46,0,0,1-1.72-.69,2.87,2.87,0,0,1-.92-2.19A2.86,2.86,0,0,1,36.91,9.5Zm.6,3.12a1.53,1.53,0,0,0,1.33.75,1.55,1.55,0,0,0,1-.38,2,2,0,0,0,.67-1.54,2.08,2.08,0,0,0-.35-1.16,1.53,1.53,0,0,0-1.33-.76,1.49,1.49,0,0,0-1,.39,1.92,1.92,0,0,0-.67,1.53A2,2,0,0,0,37.51,12.62Z"/><path class="cls-1" d="M43.22,7.84v-1h1v1h-1Zm0,.73h1v5.76h-1V8.57Z"/><path class="cls-1" d="M50.37,14.34h-.95V11.06a1.74,1.74,0,0,0-.23-.87,1.22,1.22,0,0,0-1.09-.66,1.19,1.19,0,0,0-.75.27,1.51,1.51,0,0,0-.57,1.26v3.27h-1V8.57h1V9a2.18,2.18,0,0,1,1.32-.46,2.15,2.15,0,0,1,1.43.55,2.46,2.46,0,0,1,.85,1.94v3.28Z"/><path class="cls-1" d="M52.51,9.5a2.42,2.42,0,0,1,1.93-.93,2.48,2.48,0,0,1,1.68.66V8.58h1v5.27a2.76,2.76,0,0,1-.12.79,3.18,3.18,0,0,1-.36.8,3.57,3.57,0,0,1-.54.69,2.67,2.67,0,0,1-.73.49,2.23,2.23,0,0,1-.88.18H54v-1h.48a1.49,1.49,0,0,0,1.14-.58,2.15,2.15,0,0,0,.53-1.41v-.18a2.54,2.54,0,0,1-1.68.66,2.46,2.46,0,0,1-1.72-.69,2.87,2.87,0,0,1-.92-2.19A2.86,2.86,0,0,1,52.51,9.5Zm.6,3.12a1.53,1.53,0,0,0,1.33.75,1.55,1.55,0,0,0,1-.38,2,2,0,0,0,.67-1.54,2.08,2.08,0,0,0-.35-1.16,1.53,1.53,0,0,0-1.33-.76,1.49,1.49,0,0,0-1,.39,1.92,1.92,0,0,0-.67,1.53A2,2,0,0,0,53.11,12.62Z"/></g></g></svg>