<svg xmlns="http://www.w3.org/2000/svg" viewBox="0 0 67.68 16.67"><defs><style>.cls-1{fill:#fff;}</style></defs><title>Asset 10</title><g id="Layer_2" data-name="Layer 2"><g id="Layer_1-2" data-name="Layer 1"><path class="cls-1" d="M7.74,7a3.21,3.21,0,0,1,.41,4.73A3.56,3.56,0,0,1,5.33,13H0V6.84L0,1.46V.74H.74l3.92,0a3.79,3.79,0,0,1,2.45.86A3.22,3.22,0,0,1,8.35,4.14,3.3,3.3,0,0,1,7.2,6.61,3.17,3.17,0,0,1,7.74,7ZM4.66,6.12a2.43,2.43,0,0,0,1.28-.36,1.82,1.82,0,0,0,1-1.62A1.79,1.79,0,0,0,6.5,3a2.24,2.24,0,0,0-1.84-.85H1.44v4Zm-3.2,5.42,3.87,0a2.36,2.36,0,0,0,1.26-.36,1.82,1.82,0,0,0,1-1.62,1.78,1.78,0,0,0-.4-1.13,2.18,2.18,0,0,0-1.83-.85H1.46Z"/><path class="cls-1" d="M14.9,4.32h.72V5.76H14.9A2.22,2.22,0,0,0,13.82,6a2.63,2.63,0,0,0-1.22,2.5V13H11.16V4.32H12.6v.76A3.68,3.68,0,0,1,14.9,4.32Z"/><path class="cls-1" d="M17.59,5.71a3.62,3.62,0,0,1,2.89-1.39,3.68,3.68,0,0,1,2.52,1v-1h1.44V13H23V12a3.74,3.74,0,0,1-2.52,1,3.67,3.67,0,0,1-2.57-1,4.3,4.3,0,0,1-1.39-3.28A4.34,4.34,0,0,1,17.59,5.71Zm.9,4.68a2.3,2.3,0,0,0,2,1.13A2.24,2.24,0,0,0,22,10.94a2.89,2.89,0,0,0,1-2.3,3.1,3.1,0,0,0-.52-1.75,2.31,2.31,0,0,0-2-1.13A2.24,2.24,0,0,0,19,6.34a2.9,2.9,0,0,0-1,2.3A3.11,3.11,0,0,0,18.49,10.39Z"/><path class="cls-1" d="M34.18,13H32.76l0-.72,0-4.21a2.55,2.55,0,0,0-.34-1.3,1.82,1.82,0,0,0-1.64-1,1.72,1.72,0,0,0-1.11.4,2.26,2.26,0,0,0-.87,1.89V13H27.32V4.32h1.44V5a3.32,3.32,0,0,1,2-.68,3.17,3.17,0,0,1,2.15.83,3.63,3.63,0,0,1,1.27,2.9v4.19Z"/><path class="cls-1" d="M37.39,5.71a3.62,3.62,0,0,1,2.89-1.39,3.68,3.68,0,0,1,2.52,1V0h1.44V13H42.8V12a3.74,3.74,0,0,1-2.52,1,3.67,3.67,0,0,1-2.57-1,4.3,4.3,0,0,1-1.39-3.28A4.34,4.34,0,0,1,37.39,5.71Zm.9,4.68a2.3,2.3,0,0,0,2,1.13,2.24,2.24,0,0,0,1.52-.58,2.89,2.89,0,0,0,1-2.3,3.1,3.1,0,0,0-.52-1.75,2.31,2.31,0,0,0-2-1.13,2.24,2.24,0,0,0-1.51.58,2.9,2.9,0,0,0-1,2.3A3.11,3.11,0,0,0,38.29,10.39Z"/><path class="cls-1" d="M46.85,3.22V1.78h1.46V3.22H46.85Zm0,1.1h1.44V13H46.85V4.32Z"/><path class="cls-1" d="M57.58,13H56.16l0-.72,0-4.21a2.55,2.55,0,0,0-.34-1.3,1.82,1.82,0,0,0-1.64-1,1.72,1.72,0,0,0-1.11.4,2.26,2.26,0,0,0-.87,1.89V13H50.72V4.32h1.44V5a3.32,3.32,0,0,1,2-.68,3.17,3.17,0,0,1,2.15.83,3.63,3.63,0,0,1,1.27,2.9v4.19Z"/><path class="cls-1" d="M60.79,5.71a3.62,3.62,0,0,1,2.89-1.39,3.68,3.68,0,0,1,2.52,1V5l0-.7h1.46l0,.72,0,7.18a4.25,4.25,0,0,1-.18,1.19,4.82,4.82,0,0,1-.53,1.19,5.09,5.09,0,0,1-.82,1,3.62,3.62,0,0,1-1.09.74,3.33,3.33,0,0,1-1.32.28H63V15.23h.72a2.26,2.26,0,0,0,1.71-.88,3.18,3.18,0,0,0,.79-2.11V12a3.74,3.74,0,0,1-2.52,1,3.67,3.67,0,0,1-2.57-1,4.3,4.3,0,0,1-1.39-3.28A4.34,4.34,0,0,1,60.79,5.71Zm.9,4.68a2.3,2.3,0,0,0,2,1.13,2.24,2.24,0,0,0,1.52-.58,2.89,2.89,0,0,0,1-2.3,3.1,3.1,0,0,0-.52-1.75,2.31,2.31,0,0,0-2-1.13,2.24,2.24,0,0,0-1.51.58,2.9,2.9,0,0,0-1,2.3A3.11,3.11,0,0,0,61.69,10.39Z"/></g></g></svg>