<svg xmlns="http://www.w3.org/2000/svg" viewBox="0 0 451.57 119.22"><defs><style>.cls-1{fill:#fff;}</style></defs><g id="레이어_2" data-name="레이어 2"><g id="레이어_2-2" data-name="레이어 2"><path class="cls-1" d="M1.56.32H2.2V11.23H1.56V.32Z"/><path class="cls-1" d="M4.67.32h.64V3.51H4.67V.32Z"/><path class="cls-1" d="M12.93,4.61a2.51,2.51,0,0,1,3.74-.44,3,3,0,0,1,1,2.36v4.72h-.62l0-.32V6.53a2.68,2.68,0,0,0-.4-1.41,1.92,1.92,0,0,0-1.66-1,1.83,1.83,0,0,0-1.2.45A2.35,2.35,0,0,0,13,6.53v4.72h-.62l0-.32V6.53a2.68,2.68,0,0,0-.4-1.41,1.92,1.92,0,0,0-1.66-1,1.83,1.83,0,0,0-1.2.45A2.35,2.35,0,0,0,8.2,6.53v4.7H7.56V3.53H8.2V4.59a2.51,2.51,0,0,1,2.05-1.06,2.07,2.07,0,0,1,.66.1A2.64,2.64,0,0,1,12.63,5.1,2.8,2.8,0,0,1,12.93,4.61Z"/><path class="cls-1" d="M28.16,3.55h.67v.32l0,7a4.14,4.14,0,0,1-.59,2.23,2,2,0,0,1-1.69,1.08H26.2v-.64h.32a1.36,1.36,0,0,0,.93-.47,3.18,3.18,0,0,0,.71-2.2V3.55Zm0-1.27V1.64h.66v.64h-.66Z"/><path class="cls-1" d="M31.06,3.55h.66v.32l0,4.51a2,2,0,0,0,.48,1.31,2.47,2.47,0,0,0,2,.9,2.56,2.56,0,0,0,1.48-.45,2,2,0,0,0,1-1.76V3.55h.66l0,.32V8.38a2.68,2.68,0,0,1-.68,1.78,3.06,3.06,0,0,1-2.42,1.07,3.19,3.19,0,0,1-2-.69,2.65,2.65,0,0,1-1.09-2.16V3.55Z"/><path class="cls-1" d="M43.92,5.6a1.15,1.15,0,0,0-.32-.77,2.3,2.3,0,0,0-1.75-.66,2.8,2.8,0,0,0-1.16.24,1.33,1.33,0,0,0-.91,1.19.6.6,0,0,0,0,.26c.13.34.66.67,1.6,1,1.16.39,1.78.6,1.86.64,1,.43,1.54,1,1.54,1.67a1.6,1.6,0,0,1-.5,1.14,3.24,3.24,0,0,1-2.48.93,3.79,3.79,0,0,1-2-.51,1.83,1.83,0,0,1-1-1.56h.65a1.22,1.22,0,0,0,.36.79,2.79,2.79,0,0,0,2,.64,3.43,3.43,0,0,0,1.33-.26c.67-.27,1-.66,1-1.17a.74.74,0,0,0,0-.25c-.13-.35-.65-.67-1.59-1l-1.86-.64c-1-.43-1.55-1-1.55-1.69a1.69,1.69,0,0,1,.46-1.15,2.85,2.85,0,0,1,2.25-.92A3.15,3.15,0,0,1,43.58,4a1.86,1.86,0,0,1,1,1.59Z"/><path class="cls-1" d="M47.74,9.13v.14c.08.88.72,1.32,1.91,1.32H50v.64h-.32a4.53,4.53,0,0,1-.52,0,2,2,0,0,1-2-2.07v-5H45.8V3.53h1.3v-2h.64v2H50v.64H47.74Z"/><path class="cls-1" d="M58.76,4.77a3.28,3.28,0,0,1,2.6-1.24,3.64,3.64,0,0,1,.56.05,3.41,3.41,0,0,1,2.33,1.59V3.53h.64v7.7h-.64V9.6c-.09.12-.18.26-.29.4a3.36,3.36,0,0,1-4.93.29,3.87,3.87,0,0,1-1.2-2.91A4,4,0,0,1,58.76,4.77Zm.39,4.68a2.65,2.65,0,0,0,2.21,1.14,2.68,2.68,0,0,0,1.83-.72,3.23,3.23,0,0,0,1.06-2.49,3.4,3.4,0,0,0-.68-2.07,2.7,2.7,0,0,0-4-.42,3.22,3.22,0,0,0-1.06,2.49A3.4,3.4,0,0,0,59.15,9.45Z"/><path class="cls-1" d="M71.87,5.6a1.15,1.15,0,0,0-.32-.77,2.3,2.3,0,0,0-1.75-.66,2.8,2.8,0,0,0-1.16.24,1.34,1.34,0,0,0-.91,1.19.8.8,0,0,0,0,.26c.13.34.66.67,1.6,1,1.16.39,1.78.6,1.86.64,1,.43,1.55,1,1.55,1.67a1.64,1.64,0,0,1-.5,1.14,3.27,3.27,0,0,1-2.49.93,3.73,3.73,0,0,1-2-.51,1.81,1.81,0,0,1-1-1.56h.64a1.19,1.19,0,0,0,.37.79,2.77,2.77,0,0,0,2,.64,3.39,3.39,0,0,0,1.33-.26c.68-.27,1-.66,1-1.17a.56.56,0,0,0,0-.25c-.12-.35-.65-.67-1.58-1l-1.87-.64c-1-.43-1.55-1-1.55-1.69a1.69,1.69,0,0,1,.46-1.15,2.85,2.85,0,0,1,2.25-.92A3.15,3.15,0,0,1,71.53,4a1.84,1.84,0,0,1,1,1.59Z"/><path class="cls-1" d="M75.35,7.7v3.53h-.64V0h.64V7.06h.82l3.77-3.45.1-.08H81l-.59.56L76.8,7.38l3.59,3.29.59.56H80l-.1-.08L76.17,7.7Z"/><path class="cls-1" d="M82.49,2.23V1.59h.66v.64h-.66Zm0,1.3h.64v7.7h-.64V3.53Z"/><path class="cls-1" d="M91.74,11.25h-.63l0-.32V6.79a2.71,2.71,0,0,0-.5-1.59,2.22,2.22,0,0,0-1.91-1,2.3,2.3,0,0,0-1.46.53,2.59,2.59,0,0,0-.95,2.09v4.44h-.64V3.53h.64V4.78l.1-.11a2.84,2.84,0,0,1,2.31-1.14,2.92,2.92,0,0,1,1.94.74,3.2,3.2,0,0,1,1.11,2.52v4.12Z"/><path class="cls-1" d="M94.58,4.77a3.26,3.26,0,0,1,2.59-1.24,3.77,3.77,0,0,1,.57.05,3.37,3.37,0,0,1,2.32,1.59V3.55h.68l0,.32v7a3.1,3.1,0,0,1-.78,2,3.4,3.4,0,0,1-2.74,1.35h-.32v-.64h.32a2.91,2.91,0,0,0,2-.87,2.51,2.51,0,0,0,.83-1.8V9.6c-.08.12-.18.26-.29.4a3.35,3.35,0,0,1-4.92.29,3.88,3.88,0,0,1-1.21-2.91A4,4,0,0,1,94.58,4.77ZM95,9.45a2.67,2.67,0,0,0,2.21,1.14A2.65,2.65,0,0,0,99,9.87a3.19,3.19,0,0,0,1.06-2.49,3.39,3.39,0,0,0-.67-2.07,2.68,2.68,0,0,0-2.22-1.14,2.64,2.64,0,0,0-1.82.72,3.22,3.22,0,0,0-1.06,2.49A3.39,3.39,0,0,0,95,9.45Z"/><path class="cls-1" d="M113.06,3.53h.32v.64h-2.25v7.06h-.64V4.17h-1.28V3.53h1.3a5.36,5.36,0,0,1,.3-1.6A2.26,2.26,0,0,1,113.06.3h.32V1h-.32a1.57,1.57,0,0,0-.61.11c-.78.3-1.21,1.12-1.3,2.47Z"/><path class="cls-1" d="M115.27,4.77a3.34,3.34,0,0,1,4.93-.29,3.86,3.86,0,0,1,1.2,2.9,4,4,0,0,1-.93,2.62,3.35,3.35,0,0,1-4.92.29,3.88,3.88,0,0,1-1.21-2.91A4,4,0,0,1,115.27,4.77Zm.39,4.68a2.67,2.67,0,0,0,2.21,1.14,2.65,2.65,0,0,0,1.83-.72,3.19,3.19,0,0,0,1.06-2.49,3.39,3.39,0,0,0-.67-2.07,2.71,2.71,0,0,0-4-.42A3.25,3.25,0,0,0,115,7.38,3.39,3.39,0,0,0,115.66,9.45Z"/><path class="cls-1" d="M124,4.93a3.41,3.41,0,0,1,3-1.4h.32v.64H127a3.23,3.23,0,0,0-1.59.39A2.85,2.85,0,0,0,124,7.24v4h-.64V3.53H124V5Z"/><path class="cls-1" d="M140.16,3.74l.08-.21h.69l-.16.43L138.06,11a8.85,8.85,0,0,1-1.25,2.43,2.26,2.26,0,0,1-1.8.77h-.32v-.64H135a1.7,1.7,0,0,0,1.06-.33,5.65,5.65,0,0,0,1.33-2.34L134.71,4l-.16-.43h.69l.08.21L137.75,10Z"/><path class="cls-1" d="M143,4.77a3.34,3.34,0,0,1,4.93-.29,3.86,3.86,0,0,1,1.2,2.9A4,4,0,0,1,148.2,10a3.35,3.35,0,0,1-4.92.29,3.84,3.84,0,0,1-1.21-2.91A4,4,0,0,1,143,4.77Zm.39,4.68a2.7,2.7,0,0,0,4,.42,3.19,3.19,0,0,0,1.06-2.49,3.39,3.39,0,0,0-.67-2.07,2.71,2.71,0,0,0-4-.42,3.26,3.26,0,0,0-1.06,2.49A3.4,3.4,0,0,0,143.39,9.45Z"/><path class="cls-1" d="M150.75,3.55h.66l0,.32V8.38a2,2,0,0,0,.48,1.31,2.47,2.47,0,0,0,2,.9,2.58,2.58,0,0,0,1.48-.45,2,2,0,0,0,1-1.76V3.85l0-.3H157l0,.32V8.38a2.68,2.68,0,0,1-.68,1.78,3.07,3.07,0,0,1-2.42,1.07,3.19,3.19,0,0,1-2-.69,2.65,2.65,0,0,1-1.09-2.16V3.55Z"/><path class="cls-1" d="M159.88,4.93a3.43,3.43,0,0,1,3-1.4h.32v.64h-.32a3.23,3.23,0,0,0-1.59.39,2.87,2.87,0,0,0-1.43,2.68v4h-.64V3.53h.64V5S159.86,5,159.88,4.93Z"/><path class="cls-1" d="M177.23,9.72a3.32,3.32,0,0,1-2.87,1.51,3.2,3.2,0,0,1-2.28-.93,3.88,3.88,0,0,1-1.21-2.92,4,4,0,0,1,.9-2.58,3.2,3.2,0,0,1,2.59-1.27,3.35,3.35,0,0,1,2.89,1.41l-.55.35a2.65,2.65,0,0,0-2.34-1.12,2.61,2.61,0,0,0-1.8.71,3.22,3.22,0,0,0-1,2.5,3.45,3.45,0,0,0,.64,2.06,2.6,2.6,0,0,0,2.2,1.15,2.83,2.83,0,0,0,2.35-1.22Z"/><path class="cls-1" d="M179.51,4.77a3.33,3.33,0,0,1,4.92-.29,3.83,3.83,0,0,1,1.21,2.9,4,4,0,0,1-.93,2.62,3.36,3.36,0,0,1-4.93.29,3.87,3.87,0,0,1-1.2-2.91A4,4,0,0,1,179.51,4.77Zm.38,4.68a2.71,2.71,0,0,0,4.05.42A3.23,3.23,0,0,0,185,7.38a3.4,3.4,0,0,0-.68-2.07,2.67,2.67,0,0,0-2.21-1.14,2.65,2.65,0,0,0-1.83.72,3.22,3.22,0,0,0-1.06,2.49A3.39,3.39,0,0,0,179.89,9.45Z"/><path class="cls-1" d="M193.68,11.25h-.63l0-.32V6.79a2.71,2.71,0,0,0-.5-1.59,2.22,2.22,0,0,0-1.91-1,2.3,2.3,0,0,0-1.46.53,2.59,2.59,0,0,0-1,2.09v4.44h-.64V3.53h.64V4.78l.1-.11a2.84,2.84,0,0,1,2.31-1.14,2.92,2.92,0,0,1,1.94.74,3.2,3.2,0,0,1,1.11,2.52v4.12Z"/><path class="cls-1" d="M200.64,5.6a1.15,1.15,0,0,0-.32-.77,2.3,2.3,0,0,0-1.75-.66,2.8,2.8,0,0,0-1.16.24,1.33,1.33,0,0,0-.91,1.19.8.8,0,0,0,.05.26c.13.34.66.67,1.6,1,1.16.39,1.78.6,1.86.64,1,.43,1.54,1,1.54,1.67a1.63,1.63,0,0,1-.49,1.14,3.27,3.27,0,0,1-2.49.93,3.73,3.73,0,0,1-2-.51,1.82,1.82,0,0,1-1-1.56h.65a1.19,1.19,0,0,0,.37.79,2.77,2.77,0,0,0,2,.64,3.39,3.39,0,0,0,1.33-.26c.68-.27,1-.66,1-1.17a.56.56,0,0,0,0-.25c-.12-.35-.65-.67-1.58-1l-1.87-.64c-1-.43-1.55-1-1.55-1.69a1.69,1.69,0,0,1,.46-1.15,2.85,2.85,0,0,1,2.25-.92A3.15,3.15,0,0,1,200.3,4a1.84,1.84,0,0,1,1,1.59Z"/><path class="cls-1" d="M203.56,2.23V1.59h.66v.64h-.66Zm0,1.3h.64v7.7h-.64V3.53Z"/><path class="cls-1" d="M207,4.77a3.27,3.27,0,0,1,2.6-1.24,3.64,3.64,0,0,1,.56.05,3.41,3.41,0,0,1,2.33,1.59V0h.64V11.23h-.64V9.6l-.29.4a3.36,3.36,0,0,1-4.93.29,3.87,3.87,0,0,1-1.2-2.91A4,4,0,0,1,207,4.77Zm.38,4.68a2.71,2.71,0,0,0,4,.42,3.23,3.23,0,0,0,1.06-2.49,3.4,3.4,0,0,0-.68-2.07,2.7,2.7,0,0,0-4-.42,3.22,3.22,0,0,0-1.06,2.49A3.39,3.39,0,0,0,207.36,9.45Z"/><path class="cls-1" d="M221.61,9.69a3.61,3.61,0,0,1-3.05,1.54,3.34,3.34,0,0,1-2.31-.93A3.86,3.86,0,0,1,215,7.38,3.94,3.94,0,0,1,216,4.8a3.22,3.22,0,0,1,2.61-1.27,3.31,3.31,0,0,1,2.33,1,3.86,3.86,0,0,1,1.2,2.9V7.7h-6.4a3.71,3.71,0,0,0,.64,1.74,2.67,2.67,0,0,0,2.23,1.15,3.06,3.06,0,0,0,2.54-1.28Zm-.16-2.63a2.82,2.82,0,0,0-.67-1.8,2.79,2.79,0,0,0-2.22-1.09,2.72,2.72,0,0,0-1.65.56,3.19,3.19,0,0,0-1.22,2.33Z"/><path class="cls-1" d="M224.71,4.93a3.41,3.41,0,0,1,3-1.4H228v.64h-.32a3.23,3.23,0,0,0-1.59.39,2.85,2.85,0,0,0-1.43,2.68v4H224V3.53h.64V5Z"/><path class="cls-1" d="M229.73,4.77a3.28,3.28,0,0,1,2.6-1.24,3.64,3.64,0,0,1,.56.05,3.39,3.39,0,0,1,2.33,1.59V3.53h.64v7.7h-.64V9.6c-.09.12-.18.26-.29.4a3.36,3.36,0,0,1-4.93.29,3.87,3.87,0,0,1-1.2-2.91A4,4,0,0,1,229.73,4.77Zm.39,4.68a2.65,2.65,0,0,0,2.21,1.14,2.68,2.68,0,0,0,1.83-.72,3.19,3.19,0,0,0,1.06-2.49,3.4,3.4,0,0,0-.68-2.07,2.65,2.65,0,0,0-2.21-1.14,2.68,2.68,0,0,0-1.83.72,3.22,3.22,0,0,0-1.06,2.49A3.4,3.4,0,0,0,230.12,9.45Z"/><path class="cls-1" d="M239.41,9.13v.14c.08.88.72,1.32,1.91,1.32h.32v.64h-.32a4.53,4.53,0,0,1-.52,0,2,2,0,0,1-2-2.07v-5h-1.3V3.53h1.3v-2h.64v2h2.23v.64h-2.23Z"/><path class="cls-1" d="M243.32,2.23V1.59H244v.64h-.66Zm0,1.3H244v7.7h-.64V3.53Z"/><path class="cls-1" d="M246.74,4.77a3.28,3.28,0,0,1,2.6-1.24,3.33,3.33,0,0,1,2.33,1,3.86,3.86,0,0,1,1.2,2.9,4,4,0,0,1-.93,2.62,3.36,3.36,0,0,1-4.93.29,3.87,3.87,0,0,1-1.2-2.91A4,4,0,0,1,246.74,4.77Zm.38,4.68a2.71,2.71,0,0,0,4,.42,3.23,3.23,0,0,0,1.06-2.49,3.4,3.4,0,0,0-.68-2.07,2.7,2.7,0,0,0-4-.42,3.22,3.22,0,0,0-1.06,2.49A3.46,3.46,0,0,0,247.12,9.45Z"/><path class="cls-1" d="M260.91,11.25h-.63v-.32l0-4.14a2.71,2.71,0,0,0-.5-1.59,2.21,2.21,0,0,0-1.91-1,2.3,2.3,0,0,0-1.46.53,2.58,2.58,0,0,0-.94,2.09v4.44h-.64V3.53h.64V4.78l.09-.11a2.84,2.84,0,0,1,2.31-1.14,3,3,0,0,1,2,.74,3.22,3.22,0,0,1,1.1,2.52v4.12Z"/><path class="cls-1" d="M263.78,10.61h.64v.32h0v.32h-.64v-.32h0Z"/><path class="cls-1" d="M1.56,21.32H2.2V32.23H1.56V21.32Z"/><path class="cls-1" d="M12.18,25.77a3.27,3.27,0,0,1,2.6-1.24,3.64,3.64,0,0,1,.56,0,3.41,3.41,0,0,1,2.33,1.59V21h.64V32.23h-.64V30.6l-.29.4a3.36,3.36,0,0,1-4.93.29,3.87,3.87,0,0,1-1.2-2.91A4,4,0,0,1,12.18,25.77Zm.38,4.68a2.71,2.71,0,0,0,4,.42,3.23,3.23,0,0,0,1.06-2.49A3.4,3.4,0,0,0,17,26.31a2.7,2.7,0,0,0-4-.42,3.22,3.22,0,0,0-1.06,2.49A3.46,3.46,0,0,0,12.56,30.45Z"/><path class="cls-1" d="M21.16,25.77a3.34,3.34,0,0,1,4.93-.29,3.86,3.86,0,0,1,1.2,2.9A4,4,0,0,1,26.36,31a3.35,3.35,0,0,1-4.92.29,3.84,3.84,0,0,1-1.21-2.91A4,4,0,0,1,21.16,25.77Zm.39,4.68a2.67,2.67,0,0,0,2.21,1.14,2.65,2.65,0,0,0,1.83-.72,3.19,3.19,0,0,0,1.06-2.49A3.39,3.39,0,0,0,26,26.31a2.71,2.71,0,0,0-4.05-.42,3.25,3.25,0,0,0-1.05,2.49A3.39,3.39,0,0,0,21.55,30.45Z"/><path class="cls-1" d="M35.33,32.25h-.62l0-.32,0-4.14a2.7,2.7,0,0,0-.49-1.59,2.22,2.22,0,0,0-1.91-1,2.28,2.28,0,0,0-1.46.53,2.59,2.59,0,0,0-.95,2.09v4.44h-.64v-7.7h.64v1.25a.47.47,0,0,1,.1-.11,2.84,2.84,0,0,1,2.31-1.14,2.94,2.94,0,0,1,1.94.74,3.2,3.2,0,0,1,1.11,2.52v4.46Z"/><path class="cls-1" d="M37.56,21.32h.65v3.19h-.65V21.32Z"/><path class="cls-1" d="M41.43,30.13v.14c.09.88.72,1.32,1.91,1.32h.32v.64h-.32l-.51,0q-2-.21-2-2.07v-5h-1.3v-.64h1.3v-2h.64v2h2.23v.64H41.43Z"/><path class="cls-1" d="M51.43,24.53h.65l.07.24,1.68,6.15,2.52-6.2.1-.19h.42l.09.19,2.52,6.2,1.69-6.15.06-.24h.66l-.11.4L59.85,32l-.06.24h-.45l-.1-.19L56.66,25.7,54.08,32l-.1.19h-.45L53.46,32l-1.92-7.06Z"/><path class="cls-1" d="M64,25.77a3.27,3.27,0,0,1,2.6-1.24,3.64,3.64,0,0,1,.56,0,3.41,3.41,0,0,1,2.33,1.59V24.53h.64v7.7H69.5V30.6l-.29.4a3.36,3.36,0,0,1-4.93.29,3.87,3.87,0,0,1-1.2-2.91A4,4,0,0,1,64,25.77Zm.38,4.68a2.71,2.71,0,0,0,4,.42,3.23,3.23,0,0,0,1.06-2.49,3.4,3.4,0,0,0-.68-2.07,2.67,2.67,0,0,0-2.21-1.14,2.65,2.65,0,0,0-1.83.72,3.22,3.22,0,0,0-1.06,2.49A3.39,3.39,0,0,0,64.39,30.45Z"/><path class="cls-1" d="M78.82,32.25h-.63v-.32l0-4.14a2.71,2.71,0,0,0-.5-1.59,2.22,2.22,0,0,0-1.91-1,2.3,2.3,0,0,0-1.46.53,2.58,2.58,0,0,0-.94,2.09v4.44h-.64v-7.7h.64v1.25l.09-.11a2.84,2.84,0,0,1,2.31-1.14,3,3,0,0,1,2,.74,3.22,3.22,0,0,1,1.1,2.52v4.12Z"/><path class="cls-1" d="M82.35,30.13v.14c.08.88.72,1.32,1.91,1.32h.32v.64h-.32l-.52,0a2,2,0,0,1-2-2.07v-5h-1.3v-.64h1.3v-2h.64v2h2.23v.64H82.35Z"/><path class="cls-1" d="M93.37,25.77A3.28,3.28,0,0,1,96,24.53a3.64,3.64,0,0,1,.56,0,3.39,3.39,0,0,1,2.33,1.59V24.53h.64v7.7h-.64V30.6c-.09.12-.18.26-.29.4a3.36,3.36,0,0,1-4.93.29,3.87,3.87,0,0,1-1.2-2.91A4,4,0,0,1,93.37,25.77Zm.39,4.68a2.7,2.7,0,0,0,4,.42,3.19,3.19,0,0,0,1.06-2.49,3.46,3.46,0,0,0-.67-2.07,2.71,2.71,0,0,0-4-.42,3.26,3.26,0,0,0-1.06,2.49A3.4,3.4,0,0,0,93.76,30.45Z"/><path class="cls-1" d="M108.18,32.25h-.62l0-.32,0-4.14A2.7,2.7,0,0,0,107,26.2a2.22,2.22,0,0,0-1.91-1,2.28,2.28,0,0,0-1.46.53,2.59,2.59,0,0,0-1,2.09v4.44h-.64v-7.7h.64v1.25a.47.47,0,0,1,.1-.11,2.84,2.84,0,0,1,2.31-1.14,2.94,2.94,0,0,1,1.94.74,3.2,3.2,0,0,1,1.11,2.52v4.46Z"/><path class="cls-1" d="M115.24,24.74l.08-.21H116l-.16.43L113.14,32a8.58,8.58,0,0,1-1.25,2.43,2.26,2.26,0,0,1-1.8.77h-.32v-.64h.32a1.7,1.7,0,0,0,1.06-.33,5.65,5.65,0,0,0,1.33-2.34L109.79,25l-.16-.43h.69l.08.21L112.84,31Z"/><path class="cls-1" d="M118.77,30.13v.14c.09.88.72,1.32,1.91,1.32H121v.64h-.32l-.51,0q-2-.21-2-2.07v-5h-1.3v-.64h1.3v-2h.64v2H121v.64h-2.23Z"/><path class="cls-1" d="M123.34,25.67a2.86,2.86,0,0,1,2.32-1.14,2.94,2.94,0,0,1,1.94.74,3.19,3.19,0,0,1,1.1,2.52v4.12l0,.34h-.63v-.32l0-4.14a2.7,2.7,0,0,0-.49-1.59,2.23,2.23,0,0,0-1.91-1,2.26,2.26,0,0,0-1.46.53,2.56,2.56,0,0,0-1,2.09v4.44h-.64V22h.64v3.75Z"/><path class="cls-1" d="M131.35,23.23v-.64H132v.64h-.66Zm0,1.3H132v7.7h-.64v-7.7Z"/><path class="cls-1" d="M140.6,32.25H140l0-.32V27.79a2.71,2.71,0,0,0-.5-1.59,2.22,2.22,0,0,0-1.91-1,2.3,2.3,0,0,0-1.46.53,2.59,2.59,0,0,0-.95,2.09v4.44h-.64v-7.7h.64v1.25l.1-.11a2.84,2.84,0,0,1,2.31-1.14,2.92,2.92,0,0,1,1.94.74,3.2,3.2,0,0,1,1.11,2.52v4.12Z"/><path class="cls-1" d="M143.43,25.77a3.3,3.3,0,0,1,2.6-1.24,3.77,3.77,0,0,1,.57,0,3.39,3.39,0,0,1,2.32,1.59V24.55h.68l0,.32,0,7a3.09,3.09,0,0,1-.77,2,3.4,3.4,0,0,1-2.74,1.35h-.32v-.64h.32a2.91,2.91,0,0,0,2-.87,2.55,2.55,0,0,0,.83-1.8V30.6c-.08.12-.18.26-.29.4a3.35,3.35,0,0,1-4.92.29,3.88,3.88,0,0,1-1.21-2.91A4,4,0,0,1,143.43,25.77Zm.39,4.68A2.67,2.67,0,0,0,146,31.59a2.65,2.65,0,0,0,1.83-.72,3.19,3.19,0,0,0,1.06-2.49,3.39,3.39,0,0,0-.67-2.07A2.68,2.68,0,0,0,146,25.17a2.64,2.64,0,0,0-1.82.72,3.22,3.22,0,0,0-1.06,2.49A3.39,3.39,0,0,0,143.82,30.45Z"/><path class="cls-1" d="M161.92,24.53h.32v.64H160v7.06h-.64V25.17h-1.28v-.64h1.3a5.36,5.36,0,0,1,.3-1.6,2.26,2.26,0,0,1,2.25-1.63h.32V22h-.32a1.57,1.57,0,0,0-.61.11c-.78.3-1.21,1.12-1.3,2.47Z"/><path class="cls-1" d="M164.54,25.93a3.4,3.4,0,0,1,3-1.4h.33v.64h-.33a3.22,3.22,0,0,0-1.58.39,2.85,2.85,0,0,0-1.43,2.68v4h-.64v-7.7h.64V26Z"/><path class="cls-1" d="M169.56,25.77a3.33,3.33,0,0,1,4.92-.29,3.83,3.83,0,0,1,1.21,2.9,4,4,0,0,1-.93,2.62,3.36,3.36,0,0,1-4.93.29,3.87,3.87,0,0,1-1.2-2.91A4,4,0,0,1,169.56,25.77Zm.38,4.68a2.71,2.71,0,0,0,4.05.42,3.23,3.23,0,0,0,1.06-2.49,3.4,3.4,0,0,0-.68-2.07,2.7,2.7,0,0,0-4-.42,3.22,3.22,0,0,0-1.06,2.49A3.39,3.39,0,0,0,169.94,30.45Z"/><path class="cls-1" d="M183,25.61a2.51,2.51,0,0,1,3.74-.44,3,3,0,0,1,1,2.36v4.38l0,.34h-.62l0-.32,0-4.4a2.6,2.6,0,0,0-.4-1.41,1.91,1.91,0,0,0-1.65-.95,1.83,1.83,0,0,0-1.2.45,2.35,2.35,0,0,0-.86,1.91v4.38l0,.34h-.62l0-.32,0-4.08v-.32a2.6,2.6,0,0,0-.4-1.41,1.91,1.91,0,0,0-1.65-.95,1.83,1.83,0,0,0-1.2.45,2.35,2.35,0,0,0-.85,1.91v4.7h-.65v-7.7h.65v1.06a2.51,2.51,0,0,1,2.05-1.06,2.16,2.16,0,0,1,.66.1,2.6,2.6,0,0,1,1.71,1.47A3.66,3.66,0,0,1,183,25.61Z"/><path class="cls-1" d="M201.73,24.74l.08-.21h.69l-.16.43L199.63,32a8.85,8.85,0,0,1-1.25,2.43,2.26,2.26,0,0,1-1.8.77h-.32v-.64h.32a1.7,1.7,0,0,0,1.06-.33A5.65,5.65,0,0,0,199,31.91L196.27,25l-.16-.43h.69l.08.21L199.32,31Z"/><path class="cls-1" d="M204.57,25.77a3.28,3.28,0,0,1,2.6-1.24,3.33,3.33,0,0,1,2.33.95,3.86,3.86,0,0,1,1.2,2.9,4,4,0,0,1-.93,2.62,3.36,3.36,0,0,1-4.93.29,3.87,3.87,0,0,1-1.2-2.91A4,4,0,0,1,204.57,25.77Zm.39,4.68a2.65,2.65,0,0,0,2.21,1.14,2.68,2.68,0,0,0,1.83-.72,3.19,3.19,0,0,0,1.06-2.49,3.4,3.4,0,0,0-.68-2.07,2.65,2.65,0,0,0-2.21-1.14,2.68,2.68,0,0,0-1.83.72,3.22,3.22,0,0,0-1.06,2.49A3.4,3.4,0,0,0,205,30.45Z"/><path class="cls-1" d="M212.32,24.55H213l0,.32v4.51a2,2,0,0,0,.48,1.31,2.46,2.46,0,0,0,2,.9,2.53,2.53,0,0,0,1.47-.45,2,2,0,0,0,1-1.76V24.85l0-.3h.66l0,.32,0,4.51a2.67,2.67,0,0,1-.67,1.78,3.07,3.07,0,0,1-2.42,1.07,3.17,3.17,0,0,1-2-.69,2.66,2.66,0,0,1-1.1-2.16V24.85Z"/><path class="cls-1" d="M221.08,31.61h.64v.32h0v.32h-.64v-.32h0Z"/><path class="cls-1" d="M231.93,21.32h.64V32.23h-.64V21.32Z"/><path class="cls-1" d="M235,21.32h.64v3.19H235V21.32Z"/><path class="cls-1" d="M243.31,25.61a2.5,2.5,0,0,1,3.73-.44,3,3,0,0,1,1,2.36v4.38l0,.34h-.63v-.32l0-4.4a2.6,2.6,0,0,0-.4-1.41,1.91,1.91,0,0,0-1.65-.95,1.87,1.87,0,0,0-1.21.45,2.38,2.38,0,0,0-.85,1.91v4.38l0,.34h-.63v-.32l0-4.08v-.32a2.6,2.6,0,0,0-.4-1.41,1.91,1.91,0,0,0-1.65-.95,1.87,1.87,0,0,0-1.21.45,2.38,2.38,0,0,0-.85,1.91v4.7h-.64v-7.7h.64v1.06a2.52,2.52,0,0,1,2.06-1.06,2.05,2.05,0,0,1,.65.1A2.62,2.62,0,0,1,243,26.1,3.66,3.66,0,0,1,243.31,25.61Z"/><path class="cls-1" d="M258.53,24.55h.68l0,.32v7a4.06,4.06,0,0,1-.6,2.23,2,2,0,0,1-1.68,1.08h-.32v-.64h.32a1.4,1.4,0,0,0,.93-.47,3.18,3.18,0,0,0,.7-2.2V24.55Zm0-1.27v-.64h.66v.64h-.66Z"/><path class="cls-1" d="M261.44,24.55h.66l0,.32,0,4.51a2,2,0,0,0,.48,1.31,2.49,2.49,0,0,0,2,.9,2.55,2.55,0,0,0,1.47-.45,2,2,0,0,0,1-1.76V24.85l0-.3h.65v.32l0,4.51a2.67,2.67,0,0,1-.67,1.78,3.07,3.07,0,0,1-2.42,1.07,3.22,3.22,0,0,1-2-.69,2.68,2.68,0,0,1-1.09-2.16V24.85Z"/><path class="cls-1" d="M274.29,26.6a1.15,1.15,0,0,0-.32-.77,2.3,2.3,0,0,0-1.75-.66,2.8,2.8,0,0,0-1.16.24,1.34,1.34,0,0,0-.91,1.19.8.8,0,0,0,.05.26c.13.34.66.67,1.6,1,1.16.39,1.78.6,1.86.64,1,.43,1.55,1,1.55,1.67a1.64,1.64,0,0,1-.5,1.14,3.27,3.27,0,0,1-2.49.93,3.73,3.73,0,0,1-2-.51,1.81,1.81,0,0,1-1-1.56h.64a1.19,1.19,0,0,0,.37.79,2.77,2.77,0,0,0,2,.64,3.39,3.39,0,0,0,1.33-.26c.68-.27,1-.66,1-1.17a.56.56,0,0,0-.05-.25c-.12-.35-.65-.67-1.58-1l-1.87-.64c-1-.43-1.55-1-1.55-1.69a1.69,1.69,0,0,1,.46-1.15,2.85,2.85,0,0,1,2.25-.92A3.15,3.15,0,0,1,274,25a1.84,1.84,0,0,1,1,1.59Z"/><path class="cls-1" d="M278.11,30.13v.14c.08.88.72,1.32,1.91,1.32h.32v.64H280l-.52,0a2,2,0,0,1-2-2.07v-5h-1.3v-.64h1.3v-2h.64v2h2.23v.64h-2.23Z"/><path class="cls-1" d="M289.82,30.13v.14c.09.88.72,1.32,1.91,1.32h.32v.64h-.32l-.51,0q-2-.21-2-2.07v-5h-1.3v-.64h1.3v-2h.64v2h2.23v.64h-2.23Z"/><path class="cls-1" d="M294,25.77a3.27,3.27,0,0,1,2.6-1.24,3.64,3.64,0,0,1,.56,0,3.37,3.37,0,0,1,2.32,1.59V24.53h.65v7.7h-.65V30.6l-.28.4a3.36,3.36,0,0,1-4.93.29,3.87,3.87,0,0,1-1.2-2.91A4,4,0,0,1,294,25.77Zm.38,4.68a2.71,2.71,0,0,0,4.05.42,3.22,3.22,0,0,0,1.05-2.49,3.39,3.39,0,0,0-.67-2.07,2.67,2.67,0,0,0-2.21-1.14,2.65,2.65,0,0,0-1.83.72,3.22,3.22,0,0,0-1.06,2.49A3.39,3.39,0,0,0,294.33,30.45Z"/><path class="cls-1" d="M302.64,21h.65V32.23h-.65V21Z"/><path class="cls-1" d="M306.38,28.7v3.53h-.64V21h.64v7.06h.82L311,24.61l.1-.08H312l-.59.56-3.59,3.29,3.59,3.29.59.56h-.94l-.1-.08L307.2,28.7Z"/><path class="cls-1" d="M313.52,23.23v-.64h.66v.64h-.66Zm0,1.3h.65v7.7h-.65v-7.7Z"/><path class="cls-1" d="M322.77,32.25h-.63l0-.32V27.79a2.71,2.71,0,0,0-.5-1.59,2.22,2.22,0,0,0-1.91-1,2.3,2.3,0,0,0-1.46.53,2.59,2.59,0,0,0-.95,2.09v4.44h-.64v-7.7h.64v1.25l.1-.11a2.84,2.84,0,0,1,2.31-1.14,2.92,2.92,0,0,1,1.94.74,3.2,3.2,0,0,1,1.11,2.52v4.12Z"/><path class="cls-1" d="M325.61,25.77a3.27,3.27,0,0,1,2.6-1.24,3.75,3.75,0,0,1,.56,0,3.37,3.37,0,0,1,2.32,1.59V24.55h.68l0,.32v7a3.1,3.1,0,0,1-.78,2,3.4,3.4,0,0,1-2.74,1.35h-.32v-.64h.32a2.91,2.91,0,0,0,2-.87,2.51,2.51,0,0,0,.83-1.8V30.6c-.08.12-.18.26-.29.4a3.35,3.35,0,0,1-4.92.29,3.88,3.88,0,0,1-1.21-2.91A4,4,0,0,1,325.61,25.77Zm.38,4.68a2.68,2.68,0,0,0,2.22,1.14,2.64,2.64,0,0,0,1.82-.72,3.19,3.19,0,0,0,1.06-2.49,3.39,3.39,0,0,0-.67-2.07,2.67,2.67,0,0,0-2.21-1.14,2.65,2.65,0,0,0-1.83.72,3.22,3.22,0,0,0-1.06,2.49A3.39,3.39,0,0,0,326,30.45Z"/><path class="cls-1" d="M341.49,25.77a3.28,3.28,0,0,1,2.6-1.24,3.64,3.64,0,0,1,.56,0A3.39,3.39,0,0,1,347,26.17V24.53h.64v7.7H347V30.6c-.09.12-.18.26-.29.4a3.36,3.36,0,0,1-4.93.29,3.87,3.87,0,0,1-1.2-2.91A4,4,0,0,1,341.49,25.77Zm.39,4.68a2.7,2.7,0,0,0,4,.42A3.19,3.19,0,0,0,347,28.38a3.46,3.46,0,0,0-.67-2.07,2.71,2.71,0,0,0-4.05-.42,3.26,3.26,0,0,0-1.06,2.49A3.4,3.4,0,0,0,341.88,30.45Z"/><path class="cls-1" d="M350.19,21.32V21h.64v5.17c.09-.13.18-.26.29-.39a3.32,3.32,0,0,1,4.92-.3,3.83,3.83,0,0,1,1.21,2.9,4,4,0,0,1-.93,2.62,3.3,3.3,0,0,1-2.6,1.23,2.59,2.59,0,0,1-.56,0,3.4,3.4,0,0,1-2.33-1.58v1.63h-.64V21.32Zm1.33,9.13a2.69,2.69,0,0,0,4,.42,3.23,3.23,0,0,0,1.06-2.49,3.4,3.4,0,0,0-.68-2.07,2.7,2.7,0,0,0-4-.42,3.24,3.24,0,0,0-1.06,2.51A3.27,3.27,0,0,0,351.52,30.45Z"/><path class="cls-1" d="M359.46,25.77a3.34,3.34,0,0,1,4.93-.29,3.86,3.86,0,0,1,1.2,2.9,4,4,0,0,1-.93,2.62,3.35,3.35,0,0,1-4.92.29,3.84,3.84,0,0,1-1.21-2.91A4,4,0,0,1,359.46,25.77Zm.39,4.68a2.7,2.7,0,0,0,4,.42A3.19,3.19,0,0,0,365,28.38a3.39,3.39,0,0,0-.67-2.07,2.71,2.71,0,0,0-4-.42,3.26,3.26,0,0,0-1.06,2.49A3.4,3.4,0,0,0,359.85,30.45Z"/><path class="cls-1" d="M367.21,24.55h.66v.32l0,4.51a2,2,0,0,0,.48,1.31,2.47,2.47,0,0,0,2,.9,2.56,2.56,0,0,0,1.48-.45,2,2,0,0,0,1-1.76V24.55h.66l0,.32v4.51a2.68,2.68,0,0,1-.68,1.78,3.07,3.07,0,0,1-2.42,1.07,3.19,3.19,0,0,1-2-.69,2.65,2.65,0,0,1-1.09-2.16V24.55Z"/><path class="cls-1" d="M376.63,30.13v.14c.09.88.72,1.32,1.91,1.32h.32v.64h-.32l-.51,0q-2-.21-2-2.07v-5h-1.3v-.64H376v-2h.64v2h2.23v.64h-2.23Z"/><path class="cls-1" d="M392.74,25.61a2.51,2.51,0,0,1,3.74-.44,3,3,0,0,1,1,2.36v4.72h-.62l0-.32v-4.4a2.61,2.61,0,0,0-.41-1.41,1.89,1.89,0,0,0-1.65-.95,1.83,1.83,0,0,0-1.2.45,2.35,2.35,0,0,0-.85,1.91v4.72h-.62l0-.32v-4.4a2.61,2.61,0,0,0-.41-1.41,1.89,1.89,0,0,0-1.65-.95,1.83,1.83,0,0,0-1.2.45,2.35,2.35,0,0,0-.85,1.91v4.7h-.64v-7.7H388v1.06a2.51,2.51,0,0,1,2.05-1.06,2.07,2.07,0,0,1,.66.1,2.64,2.64,0,0,1,1.72,1.47A2.8,2.8,0,0,1,392.74,25.61Z"/><path class="cls-1" d="M404.58,24.74l.09-.21h.68l-.16.43L402.48,32a8.58,8.58,0,0,1-1.25,2.43,2.26,2.26,0,0,1-1.8.77h-.32v-.64h.32a1.7,1.7,0,0,0,1.06-.33,5.75,5.75,0,0,0,1.34-2.34L399.13,25l-.16-.43h.69l.08.21L402.18,31Z"/><path class="cls-1" d="M413.3,24.53H414l.06.24,1.68,6.15,2.52-6.2.1-.19h.42l.09.19,2.52,6.2L423,24.77l.06-.24h.66l-.11.4L421.72,32l-.06.24h-.45l-.1-.19-2.58-6.34L416,32l-.1.19h-.45l-.07-.24-1.92-7.06Z"/><path class="cls-1" d="M425.67,23.23v-.64h.66v.64h-.66Zm0,1.3h.64v7.7h-.64v-7.7Z"/><path class="cls-1" d="M433.21,26.6a1.15,1.15,0,0,0-.32-.77,2.3,2.3,0,0,0-1.75-.66,2.8,2.8,0,0,0-1.16.24,1.34,1.34,0,0,0-.91,1.19.8.8,0,0,0,.05.26c.13.34.66.67,1.6,1,1.16.39,1.78.6,1.86.64,1,.43,1.54,1,1.54,1.67a1.63,1.63,0,0,1-.49,1.14,3.27,3.27,0,0,1-2.49.93,3.73,3.73,0,0,1-2-.51,1.81,1.81,0,0,1-1-1.56h.64a1.19,1.19,0,0,0,.37.79,2.77,2.77,0,0,0,2,.64,3.39,3.39,0,0,0,1.33-.26c.68-.27,1-.66,1-1.17a.56.56,0,0,0-.05-.25c-.12-.35-.65-.67-1.58-1L430,28.29c-1-.43-1.55-1-1.55-1.69a1.69,1.69,0,0,1,.46-1.15,2.85,2.85,0,0,1,2.25-.92,3.15,3.15,0,0,1,1.73.48,1.84,1.84,0,0,1,1,1.59Z"/><path class="cls-1" d="M436.79,25.67a2.84,2.84,0,0,1,2.31-1.14,2.92,2.92,0,0,1,1.94.74,3.2,3.2,0,0,1,1.11,2.52v4.46h-.62l0-.32V27.79a2.71,2.71,0,0,0-.5-1.59,2.22,2.22,0,0,0-1.91-1,2.28,2.28,0,0,0-1.46.53,2.59,2.59,0,0,0-.95,2.09v4.44h-.64V22h.64v3.75Z"/><path class="cls-1" d="M445,31.61h.64v.32h0v.32H445v-.32h0Z"/><path class="cls-1" d="M4.54,52.91v.32H3.9V47.87l-3.35-5-.33-.5H1l.09.15L4.22,47.2l3.07-4.73.09-.15h.77l-.32.5-3.29,5Z"/><path class="cls-1" d="M10.09,46.77A3.34,3.34,0,0,1,15,46.48a3.86,3.86,0,0,1,1.2,2.9A4,4,0,0,1,15.29,52a3.35,3.35,0,0,1-4.92.29,3.84,3.84,0,0,1-1.21-2.91A4,4,0,0,1,10.09,46.77Zm.39,4.68a2.7,2.7,0,0,0,4,.42,3.19,3.19,0,0,0,1.06-2.49,3.39,3.39,0,0,0-.67-2.07,2.71,2.71,0,0,0-4.05-.42A3.26,3.26,0,0,0,9.8,49.38,3.4,3.4,0,0,0,10.48,51.45Z"/><path class="cls-1" d="M17.84,45.55h.66v.32l0,4.51A2,2,0,0,0,19,51.69a2.47,2.47,0,0,0,2,.9,2.56,2.56,0,0,0,1.48-.45,2,2,0,0,0,1-1.76V45.55h.66l0,.32v4.51a2.68,2.68,0,0,1-.68,1.78,3.07,3.07,0,0,1-2.42,1.07,3.19,3.19,0,0,1-2-.69,2.65,2.65,0,0,1-1.09-2.16V45.55Z"/><path class="cls-1" d="M38.9,51.72A3.34,3.34,0,0,1,36,53.23a3.19,3.19,0,0,1-2.27-.93,3.85,3.85,0,0,1-1.21-2.92,4,4,0,0,1,.9-2.58A3.18,3.18,0,0,1,36,45.53a3.33,3.33,0,0,1,2.89,1.41l-.54.35A2.68,2.68,0,0,0,36,46.17a2.6,2.6,0,0,0-1.79.71,3.23,3.23,0,0,0-1,2.5,3.46,3.46,0,0,0,.65,2.06A2.59,2.59,0,0,0,36,52.59a2.85,2.85,0,0,0,2.36-1.22Z"/><path class="cls-1" d="M41.17,46.77a3.3,3.3,0,0,1,2.6-1.24,3.53,3.53,0,0,1,.56,0,3.39,3.39,0,0,1,2.33,1.59V45.53h.64v7.7h-.64V51.6c-.08.12-.18.26-.29.4a3.35,3.35,0,0,1-4.92.29,3.84,3.84,0,0,1-1.21-2.91A4,4,0,0,1,41.17,46.77Zm.39,4.68a2.67,2.67,0,0,0,2.21,1.14,2.65,2.65,0,0,0,1.83-.72,3.19,3.19,0,0,0,1.06-2.49A3.39,3.39,0,0,0,46,47.31a2.71,2.71,0,0,0-4.05-.42,3.25,3.25,0,0,0-1,2.49A3.39,3.39,0,0,0,41.56,51.45Z"/><path class="cls-1" d="M56,53.25h-.63l0-.32V48.79a2.71,2.71,0,0,0-.5-1.59,2.22,2.22,0,0,0-1.91-1,2.3,2.3,0,0,0-1.46.53,2.59,2.59,0,0,0-1,2.09v4.44h-.64v-7.7h.64v1.25l.1-.11a2.84,2.84,0,0,1,2.31-1.14,2.92,2.92,0,0,1,1.94.74A3.2,3.2,0,0,1,56,48.79v4.12Z"/><path class="cls-1" d="M66.42,51.13v.14c.08.88.72,1.32,1.9,1.32h.33v.64h-.33l-.51,0q-2-.21-2-2.07v-5h-1.3v-.64h1.3v-2h.65v2h2.23v.64H66.42Z"/><path class="cls-1" d="M71,46.67a2.84,2.84,0,0,1,2.31-1.14,2.94,2.94,0,0,1,1.94.74,3.2,3.2,0,0,1,1.11,2.52v4.46h-.62l0-.32V48.79a2.71,2.71,0,0,0-.5-1.59,2.22,2.22,0,0,0-1.91-1,2.28,2.28,0,0,0-1.46.53,2.59,2.59,0,0,0-1,2.09v4.44h-.64V43h.64v3.75A.47.47,0,0,1,71,46.67Z"/><path class="cls-1" d="M79,44.23v-.64h.65v.64H79Zm0,1.3h.64v7.7H79v-7.7Z"/><path class="cls-1" d="M88.24,53.25h-.63v-.32l0-4.14a2.71,2.71,0,0,0-.5-1.59,2.22,2.22,0,0,0-1.91-1,2.3,2.3,0,0,0-1.46.53,2.58,2.58,0,0,0-.94,2.09v4.44h-.65v-7.7h.65v1.25l.09-.11a2.84,2.84,0,0,1,2.31-1.14,2.91,2.91,0,0,1,1.94.74,3.2,3.2,0,0,1,1.11,2.52v4.12Z"/><path class="cls-1" d="M91.43,49.7v3.53h-.64V42h.64v7.06h.82L96,45.61l.1-.08h.94l-.59.56-3.59,3.29,3.59,3.29.59.56h-.94l-.1-.08L92.25,49.7Z"/><path class="cls-1" d="M105.68,46.77a3.27,3.27,0,0,1,2.6-1.24,3.64,3.64,0,0,1,.56,0,3.41,3.41,0,0,1,2.33,1.59V45.53h.64v7.7h-.64V51.6l-.29.4a3.36,3.36,0,0,1-4.93.29,3.87,3.87,0,0,1-1.2-2.91A4,4,0,0,1,105.68,46.77Zm.38,4.68a2.71,2.71,0,0,0,4,.42,3.23,3.23,0,0,0,1.06-2.49,3.4,3.4,0,0,0-.68-2.07,2.7,2.7,0,0,0-4-.42,3.22,3.22,0,0,0-1.06,2.49A3.46,3.46,0,0,0,106.06,51.45Z"/><path class="cls-1" d="M118.79,47.6a1.15,1.15,0,0,0-.32-.77,2.3,2.3,0,0,0-1.75-.66,2.8,2.8,0,0,0-1.16.24,1.33,1.33,0,0,0-.91,1.19.8.8,0,0,0,0,.26c.13.34.66.67,1.6,1,1.16.39,1.78.6,1.86.64,1,.43,1.54,1,1.54,1.67a1.63,1.63,0,0,1-.49,1.14,3.27,3.27,0,0,1-2.49.93,3.73,3.73,0,0,1-2-.51,1.82,1.82,0,0,1-1-1.56h.65a1.19,1.19,0,0,0,.37.79,2.77,2.77,0,0,0,2,.64,3.43,3.43,0,0,0,1.33-.26c.67-.27,1-.66,1-1.17a.56.56,0,0,0,0-.25c-.12-.35-.65-.67-1.59-1l-1.86-.64c-1-.43-1.55-1-1.55-1.69a1.69,1.69,0,0,1,.46-1.15,2.85,2.85,0,0,1,2.25-.92,3.15,3.15,0,0,1,1.73.48,1.86,1.86,0,0,1,1,1.59Z"/><path class="cls-1" d="M133.9,46.61a2.51,2.51,0,0,1,3.74-.44,3,3,0,0,1,1,2.36v4.38l0,.34h-.63l0-.32v-4.4a2.68,2.68,0,0,0-.4-1.41,1.92,1.92,0,0,0-1.66-.95,1.85,1.85,0,0,0-1.2.45,2.35,2.35,0,0,0-.85,1.91v4.38l0,.34h-.63l0-.32v-4.4a2.68,2.68,0,0,0-.4-1.41,1.92,1.92,0,0,0-1.66-.95,1.85,1.85,0,0,0-1.2.45,2.35,2.35,0,0,0-.85,1.91v4.7h-.64v-7.7h.64v1.06a2.52,2.52,0,0,1,2.05-1.06,2.07,2.07,0,0,1,.66.1,2.64,2.64,0,0,1,1.72,1.47A3.58,3.58,0,0,1,133.9,46.61Z"/><path class="cls-1" d="M140.93,45.55h.66v.32l0,4.51a2,2,0,0,0,.48,1.31,2.47,2.47,0,0,0,2,.9,2.56,2.56,0,0,0,1.48-.45,2,2,0,0,0,1-1.76V45.55h.66l0,.32v4.51a2.68,2.68,0,0,1-.68,1.78A3.07,3.07,0,0,1,144,53.23a3.19,3.19,0,0,1-2-.69,2.65,2.65,0,0,1-1.09-2.16V45.55Z"/><path class="cls-1" d="M155.08,51.72a3.31,3.31,0,0,1-2.87,1.51,3.23,3.23,0,0,1-2.28-.93,3.88,3.88,0,0,1-1.2-2.92,4,4,0,0,1,.9-2.58,3.16,3.16,0,0,1,2.58-1.27,3.33,3.33,0,0,1,2.89,1.41l-.54.35a2.68,2.68,0,0,0-2.35-1.12,2.6,2.6,0,0,0-1.79.71,3.23,3.23,0,0,0-1,2.5,3.52,3.52,0,0,0,.64,2.06,2.62,2.62,0,0,0,2.2,1.15,2.85,2.85,0,0,0,2.36-1.22Z"/><path class="cls-1" d="M157.81,46.67a2.84,2.84,0,0,1,2.31-1.14,3,3,0,0,1,1.95.74,3.22,3.22,0,0,1,1.1,2.52v4.12l0,.34h-.63v-.32l0-4.14a2.71,2.71,0,0,0-.5-1.59,2.21,2.21,0,0,0-1.91-1,2.3,2.3,0,0,0-1.46.53,2.58,2.58,0,0,0-.94,2.09v4.44h-.64V43h.64v3.75Z"/><path class="cls-1" d="M172.93,46.77a3.27,3.27,0,0,1,2.6-1.24,3.64,3.64,0,0,1,.56,0,3.41,3.41,0,0,1,2.33,1.59V45.53h.64v7.7h-.64V51.6l-.29.4a3.36,3.36,0,0,1-4.93.29,3.87,3.87,0,0,1-1.2-2.91A4,4,0,0,1,172.93,46.77Zm.38,4.68a2.71,2.71,0,0,0,4.05.42,3.23,3.23,0,0,0,1.06-2.49,3.4,3.4,0,0,0-.68-2.07,2.7,2.7,0,0,0-4-.42,3.22,3.22,0,0,0-1.06,2.49A3.46,3.46,0,0,0,173.31,51.45Z"/><path class="cls-1" d="M186,47.6a1.15,1.15,0,0,0-.32-.77,2.3,2.3,0,0,0-1.75-.66,2.8,2.8,0,0,0-1.16.24,1.33,1.33,0,0,0-.91,1.19.6.6,0,0,0,0,.26c.13.34.66.67,1.6,1,1.16.39,1.78.6,1.86.64,1,.43,1.54,1,1.54,1.67a1.63,1.63,0,0,1-.49,1.14,3.27,3.27,0,0,1-2.49.93,3.79,3.79,0,0,1-2-.51,1.83,1.83,0,0,1-1-1.56h.65A1.22,1.22,0,0,0,182,52a2.79,2.79,0,0,0,2,.64,3.43,3.43,0,0,0,1.33-.26c.67-.27,1-.66,1-1.17a.74.74,0,0,0-.05-.25c-.13-.35-.65-.67-1.59-1l-1.86-.64c-1-.43-1.55-1-1.55-1.69a1.69,1.69,0,0,1,.46-1.15,2.85,2.85,0,0,1,2.25-.92,3.15,3.15,0,0,1,1.73.48,1.86,1.86,0,0,1,1,1.59Z"/><path class="cls-1" d="M200.29,45.74l.08-.21h.69l-.16.43L198.19,53a8.56,8.56,0,0,1-1.26,2.43,2.22,2.22,0,0,1-1.79.77h-.32v-.64h.32a1.72,1.72,0,0,0,1.06-.33,5.76,5.76,0,0,0,1.33-2.34L194.83,46l-.16-.43h.69l.08.21L197.88,52Z"/><path class="cls-1" d="M203.13,46.77a3.33,3.33,0,0,1,4.92-.29,3.83,3.83,0,0,1,1.21,2.9,4,4,0,0,1-.93,2.62,3.36,3.36,0,0,1-4.93.29,3.87,3.87,0,0,1-1.2-2.91A4,4,0,0,1,203.13,46.77Zm.38,4.68a2.71,2.71,0,0,0,4.05.42,3.23,3.23,0,0,0,1.06-2.49,3.4,3.4,0,0,0-.68-2.07,2.67,2.67,0,0,0-2.21-1.14,2.65,2.65,0,0,0-1.83.72,3.22,3.22,0,0,0-1.06,2.49A3.39,3.39,0,0,0,203.51,51.45Z"/><path class="cls-1" d="M210.88,45.55h.66l0,.32,0,4.51a2,2,0,0,0,.48,1.31,2.48,2.48,0,0,0,2,.9,2.56,2.56,0,0,0,1.48-.45,2,2,0,0,0,1-1.76V45.85l0-.3h.65v.32l0,4.51a2.67,2.67,0,0,1-.67,1.78A3.08,3.08,0,0,1,214,53.23a3.19,3.19,0,0,1-2-.69,2.65,2.65,0,0,1-1.09-2.16V45.85Z"/><path class="cls-1" d="M232.33,53.25h-.62l0-.32,0-4.14a2.7,2.7,0,0,0-.49-1.59,2.23,2.23,0,0,0-1.91-1,2.26,2.26,0,0,0-1.46.53,2.56,2.56,0,0,0-.95,2.09v4.44h-.64v-7.7h.64v1.25a.47.47,0,0,1,.1-.11,2.83,2.83,0,0,1,2.31-1.14,2.94,2.94,0,0,1,1.94.74,3.19,3.19,0,0,1,1.1,2.52v4.12Z"/><path class="cls-1" d="M240.82,51.69a3.63,3.63,0,0,1-3,1.54,3.3,3.3,0,0,1-2.31-.93,4.09,4.09,0,0,1-.3-5.5,3.22,3.22,0,0,1,2.61-1.27,3.33,3.33,0,0,1,2.33.95,3.86,3.86,0,0,1,1.2,2.9v.32h-6.4a3.61,3.61,0,0,0,.64,1.74,2.67,2.67,0,0,0,2.23,1.15,3.07,3.07,0,0,0,2.54-1.28Zm-.16-2.63a2.87,2.87,0,0,0-.67-1.8,2.79,2.79,0,0,0-2.22-1.09,2.72,2.72,0,0,0-1.65.56,3.15,3.15,0,0,0-1.22,2.33Z"/><path class="cls-1" d="M249.16,51.69a3.61,3.61,0,0,1-3,1.54,3.34,3.34,0,0,1-2.31-.93,3.86,3.86,0,0,1-1.22-2.92,3.94,3.94,0,0,1,.92-2.58,3.23,3.23,0,0,1,2.61-1.27,3.31,3.31,0,0,1,2.33.95,3.86,3.86,0,0,1,1.2,2.9v.32h-6.4a3.71,3.71,0,0,0,.64,1.74,2.68,2.68,0,0,0,2.23,1.15,3.06,3.06,0,0,0,2.54-1.28ZM249,49.06a3,3,0,0,0-2.89-2.89,2.74,2.74,0,0,0-1.65.56,3.19,3.19,0,0,0-1.22,2.33Z"/><path class="cls-1" d="M251.86,46.77a3.27,3.27,0,0,1,2.6-1.24,3.64,3.64,0,0,1,.56,0,3.41,3.41,0,0,1,2.33,1.59V42H258V53.23h-.64V51.6l-.29.4a3.36,3.36,0,0,1-4.93.29,3.87,3.87,0,0,1-1.2-2.91A4,4,0,0,1,251.86,46.77Zm.38,4.68a2.71,2.71,0,0,0,4.05.42,3.23,3.23,0,0,0,1.06-2.49,3.4,3.4,0,0,0-.68-2.07,2.7,2.7,0,0,0-4-.42,3.22,3.22,0,0,0-1.06,2.49A3.39,3.39,0,0,0,252.24,51.45Z"/><path class="cls-1" d="M260.88,52.61h.64v.32h0v.32h-.64v-.32h0Z"/><path class="cls-1" d="M271.72,42.32h.65V53.23h-.65V42.32Z"/><path class="cls-1" d="M274.84,42.32h.64v3.19h-.64V42.32Z"/><path class="cls-1" d="M277.73,42h.64V53.23h-.64V42Z"/><path class="cls-1" d="M280.82,42h.64V53.23h-.64V42Z"/><path class="cls-1" d="M290.82,42.32V42h.64v5.17a3.34,3.34,0,0,1,5.21-.69,3.83,3.83,0,0,1,1.21,2.9A4,4,0,0,1,297,52a3.3,3.3,0,0,1-2.6,1.23,2.59,2.59,0,0,1-.56,0,3.4,3.4,0,0,1-2.33-1.58v1.63h-.64V42.32Zm1.33,9.13a2.69,2.69,0,0,0,4,.42,3.23,3.23,0,0,0,1.06-2.49,3.4,3.4,0,0,0-.68-2.07,2.7,2.7,0,0,0-4-.42,3.24,3.24,0,0,0-1.06,2.51A3.27,3.27,0,0,0,292.15,51.45Z"/><path class="cls-1" d="M305.74,51.69a3.61,3.61,0,0,1-3.05,1.54,3.34,3.34,0,0,1-2.31-.93,3.86,3.86,0,0,1-1.22-2.92,3.94,3.94,0,0,1,.92-2.58,3.22,3.22,0,0,1,2.61-1.27,3.31,3.31,0,0,1,2.33.95,3.86,3.86,0,0,1,1.2,2.9v.32h-6.4a3.61,3.61,0,0,0,.64,1.74,2.67,2.67,0,0,0,2.23,1.15,3.06,3.06,0,0,0,2.54-1.28Zm-.16-2.63a3,3,0,0,0-2.89-2.89,2.72,2.72,0,0,0-1.65.56,3.19,3.19,0,0,0-1.22,2.33Z"/><path class="cls-1" d="M314.31,45.53H315l.06.24,1.69,6.15,2.52-6.2.09-.19h.42l.1.19,2.52,6.2,1.68-6.15.06-.24h.66l-.11.4L322.73,53l-.06.24h-.45l-.1-.19-2.58-6.34L317,53l-.1.19h-.45l-.06-.24-1.93-7.06Z"/><path class="cls-1" d="M326.89,46.77a3.28,3.28,0,0,1,2.6-1.24,3.64,3.64,0,0,1,.56,0,3.41,3.41,0,0,1,2.33,1.59V45.53H333v7.7h-.64V51.6c-.09.12-.18.26-.29.4a3.36,3.36,0,0,1-4.93.29,3.87,3.87,0,0,1-1.2-2.91A4,4,0,0,1,326.89,46.77Zm.39,4.68a2.65,2.65,0,0,0,2.21,1.14,2.68,2.68,0,0,0,1.83-.72,3.23,3.23,0,0,0,1.06-2.49,3.4,3.4,0,0,0-.68-2.07,2.7,2.7,0,0,0-4-.42,3.22,3.22,0,0,0-1.06,2.49A3.4,3.4,0,0,0,327.28,51.45Z"/><path class="cls-1" d="M335.67,44.23v-.64h.66v.64h-.66Zm0,1.3h.64v7.7h-.64v-7.7Z"/><path class="cls-1" d="M339.78,51.13v.14c.08.88.72,1.32,1.9,1.32H342v.64h-.33l-.51,0q-2-.21-2-2.07v-5h-1.3v-.64h1.3v-2h.65v2H342v.64h-2.23Z"/><path class="cls-1" d="M343.69,44.23v-.64h.66v.64h-.66Zm0,1.3h.64v7.7h-.64v-7.7Z"/><path class="cls-1" d="M352.93,53.25h-.62l0-.32,0-4.14a2.7,2.7,0,0,0-.49-1.59,2.22,2.22,0,0,0-1.91-1,2.28,2.28,0,0,0-1.46.53,2.59,2.59,0,0,0-1,2.09v4.44h-.64v-7.7h.64v1.25a.47.47,0,0,1,.1-.11,2.84,2.84,0,0,1,2.31-1.14,2.94,2.94,0,0,1,1.94.74,3.2,3.2,0,0,1,1.11,2.52v4.46Z"/><path class="cls-1" d="M355.77,46.77a3.3,3.3,0,0,1,2.6-1.24,3.64,3.64,0,0,1,.56,0,3.39,3.39,0,0,1,2.33,1.59V45.55h.67v.32l0,7a3.09,3.09,0,0,1-.77,2,3.4,3.4,0,0,1-2.74,1.35h-.32v-.64h.32a2.91,2.91,0,0,0,2-.87,2.55,2.55,0,0,0,.83-1.8V51.6c-.09.12-.18.26-.29.4a3.35,3.35,0,0,1-4.92.29,3.84,3.84,0,0,1-1.21-2.91A4,4,0,0,1,355.77,46.77Zm.39,4.68a2.7,2.7,0,0,0,4,.42,3.19,3.19,0,0,0,1.06-2.49,3.39,3.39,0,0,0-.67-2.07,2.71,2.71,0,0,0-4-.42,3.26,3.26,0,0,0-1.06,2.49A3.4,3.4,0,0,0,356.16,51.45Z"/><path class="cls-1" d="M364.79,52.61h.64v.32h0v.32h-.64v-.32h0Z"/><path class="cls-1" d="M.71,74.23H0l.21-.45L4.7,63.51l.08-.19H5.2l.08.19L9.77,73.78l.21.45H9.27L9.19,74,5,64.44.79,74Z"/><path class="cls-1" d="M17.12,72.72a3.31,3.31,0,0,1-2.87,1.51A3.2,3.2,0,0,1,12,73.3a3.88,3.88,0,0,1-1.2-2.92,4,4,0,0,1,.9-2.58,3.16,3.16,0,0,1,2.58-1.27,3.35,3.35,0,0,1,2.89,1.41l-.55.35a2.65,2.65,0,0,0-2.34-1.12,2.65,2.65,0,0,0-1.8.71,3.25,3.25,0,0,0-1,2.5,3.45,3.45,0,0,0,.64,2.06,2.62,2.62,0,0,0,2.2,1.15,2.86,2.86,0,0,0,2.36-1.22Z"/><path class="cls-1" d="M20.09,72.13v.14c.08.88.72,1.32,1.91,1.32h.32v.64H22a4.36,4.36,0,0,1-.51,0q-2-.21-2-2.07v-5h-1.3v-.64h1.3v-2h.64v2h2.23v.64H20.09Z"/><path class="cls-1" d="M23.62,66.55h.66l0,.32v4.51a2,2,0,0,0,.48,1.31,2.46,2.46,0,0,0,2,.9,2.55,2.55,0,0,0,1.47-.45,2,2,0,0,0,1-1.76V66.85l0-.3h.66l0,.32,0,4.51a2.67,2.67,0,0,1-.67,1.78,3.07,3.07,0,0,1-2.42,1.07,3.22,3.22,0,0,1-2-.69,2.68,2.68,0,0,1-1.09-2.16V66.85Z"/><path class="cls-1" d="M32.35,67.77A3.27,3.27,0,0,1,35,66.53a3.64,3.64,0,0,1,.56,0,3.41,3.41,0,0,1,2.33,1.59V66.53h.64v7.7h-.64V72.6l-.29.4a3.36,3.36,0,0,1-4.93.29,3.87,3.87,0,0,1-1.2-2.91A4,4,0,0,1,32.35,67.77Zm.38,4.68a2.71,2.71,0,0,0,4.05.42,3.23,3.23,0,0,0,1.06-2.49,3.4,3.4,0,0,0-.68-2.07,2.7,2.7,0,0,0-4-.42,3.22,3.22,0,0,0-1.06,2.49A3.46,3.46,0,0,0,32.73,72.45Z"/><path class="cls-1" d="M41.05,63h.64V74.23h-.64V63Z"/><path class="cls-1" d="M44.14,63h.65V74.23h-.65V63Z"/><path class="cls-1" d="M51.75,66.74l.08-.21h.69l-.16.43L49.65,74a8.85,8.85,0,0,1-1.25,2.43,2.26,2.26,0,0,1-1.8.77h-.32v-.64h.32a1.72,1.72,0,0,0,1.06-.33A5.76,5.76,0,0,0,49,73.91l-2.7-7-.16-.43h.69l.08.21L49.34,73Z"/><path class="cls-1" d="M55.79,73.06h.66l-.06.39a2.9,2.9,0,0,1-1.63,2.16l-.46.23v-.72l.18-.08a2.3,2.3,0,0,0,1.26-1.72Z"/><path class="cls-1" d="M65.47,63.32h.64V74.23h-.64V63.32Z"/><path class="cls-1" d="M76.78,72.13v.14c.09.88.72,1.32,1.91,1.32H79v.64h-.32a4.36,4.36,0,0,1-.51,0q-2-.21-2-2.07v-5h-1.3v-.64h1.3v-2h.64v2H79v.64H76.78Z"/><path class="cls-1" d="M81.35,67.67a2.84,2.84,0,0,1,2.31-1.14,3,3,0,0,1,2,.74,3.22,3.22,0,0,1,1.1,2.52v4.12l0,.34H86.1v-.32l0-4.14a2.71,2.71,0,0,0-.5-1.59,2.21,2.21,0,0,0-1.91-1,2.3,2.3,0,0,0-1.46.53,2.58,2.58,0,0,0-.94,2.09v4.44h-.64V64h.64v3.75Z"/><path class="cls-1" d="M89.36,65.23v-.64H90v.64h-.66Zm0,1.3H90v7.7h-.64v-7.7Z"/><path class="cls-1" d="M98.6,74.25H98l0-.32,0-4.14a2.7,2.7,0,0,0-.49-1.59,2.22,2.22,0,0,0-1.91-1,2.28,2.28,0,0,0-1.46.53,2.59,2.59,0,0,0-1,2.09v4.44h-.64v-7.7h.64v1.25a.47.47,0,0,1,.1-.11,2.84,2.84,0,0,1,2.31-1.14,2.94,2.94,0,0,1,1.94.74,3.2,3.2,0,0,1,1.11,2.52v4.46Z"/><path class="cls-1" d="M101.8,70.7v3.53h-.65V63h.65v7.06h.81l3.77-3.45.1-.08h1l-.6.56-3.59,3.29,3.59,3.29.6.56h-1l-.1-.08-3.77-3.45Z"/><path class="cls-1" d="M116.17,63.32h.64V74.23h-.64V63.32Z"/><path class="cls-1" d="M119.29,63.32h.64v3.19h-.64V63.32Z"/><path class="cls-1" d="M127.55,67.61a2.51,2.51,0,0,1,3.74-.44,3,3,0,0,1,1,2.36v4.72h-.62l0-.32,0-4.4a2.6,2.6,0,0,0-.4-1.41,1.9,1.9,0,0,0-1.65-1,1.83,1.83,0,0,0-1.2.45,2.35,2.35,0,0,0-.85,1.91v4.72H127l0-.32,0-4.08v-.32a2.6,2.6,0,0,0-.4-1.41,1.9,1.9,0,0,0-1.65-1,1.83,1.83,0,0,0-1.2.45,2.35,2.35,0,0,0-.85,1.91v4.7h-.65v-7.7h.65v1.06a2.51,2.51,0,0,1,2.05-1.06,2.16,2.16,0,0,1,.66.1,2.64,2.64,0,0,1,1.72,1.47A2.8,2.8,0,0,1,127.55,67.61Z"/><path class="cls-1" d="M142.07,67.77a3.28,3.28,0,0,1,2.6-1.24,3.33,3.33,0,0,1,2.33,1,3.86,3.86,0,0,1,1.2,2.9,4,4,0,0,1-.93,2.62,3.36,3.36,0,0,1-4.93.29,3.87,3.87,0,0,1-1.2-2.91A4,4,0,0,1,142.07,67.77Zm.39,4.68a2.7,2.7,0,0,0,4,.42,3.19,3.19,0,0,0,1.06-2.49,3.46,3.46,0,0,0-.67-2.07,2.71,2.71,0,0,0-4-.42,3.26,3.26,0,0,0-1.06,2.49A3.4,3.4,0,0,0,142.46,72.45Z"/><path class="cls-1" d="M150.77,70.7v3.53h-.64V63h.64v7.06h.82l3.77-3.45.09-.08h1l-.59.56-3.6,3.29,3.6,3.29.59.56h-1l-.09-.08-3.77-3.45Z"/><path class="cls-1" d="M158.12,67.77a3.27,3.27,0,0,1,2.6-1.24,3.64,3.64,0,0,1,.56,0,3.41,3.41,0,0,1,2.33,1.59V66.53h.64v7.7h-.64V72.6l-.29.4a3.36,3.36,0,0,1-4.93.29,3.87,3.87,0,0,1-1.2-2.91A4,4,0,0,1,158.12,67.77Zm.38,4.68a2.71,2.71,0,0,0,4.05.42,3.23,3.23,0,0,0,1.06-2.49,3.4,3.4,0,0,0-.68-2.07,2.7,2.7,0,0,0-4-.42,3.22,3.22,0,0,0-1.06,2.49A3.39,3.39,0,0,0,158.5,72.45Z"/><path class="cls-1" d="M171.32,66.74l.08-.21h.69l-.16.43L169.22,74A8.58,8.58,0,0,1,168,76.45a2.26,2.26,0,0,1-1.8.77h-.32v-.64h.32a1.7,1.7,0,0,0,1.06-.33,5.65,5.65,0,0,0,1.33-2.34l-2.69-7-.16-.43h.69l.08.21L168.92,73Z"/><path class="cls-1" d="M181.77,66.55h.67v.32l0,7a4.14,4.14,0,0,1-.59,2.23,2,2,0,0,1-1.69,1.08h-.32v-.64h.32a1.4,1.4,0,0,0,.93-.47,3.18,3.18,0,0,0,.71-2.2V66.55Zm0-1.27v-.64h.66v.64h-.66Z"/><path class="cls-1" d="M184.67,66.55h.66v.32l0,4.51a2,2,0,0,0,.48,1.31,2.47,2.47,0,0,0,2,.9,2.56,2.56,0,0,0,1.48-.45,2,2,0,0,0,1-1.76V66.55h.66l0,.32v4.51a2.68,2.68,0,0,1-.68,1.78,3.07,3.07,0,0,1-2.42,1.07,3.19,3.19,0,0,1-2-.69,2.65,2.65,0,0,1-1.09-2.16V66.55Z"/><path class="cls-1" d="M197.53,68.6a1.15,1.15,0,0,0-.32-.77,2.3,2.3,0,0,0-1.75-.66,2.77,2.77,0,0,0-1.16.24,1.33,1.33,0,0,0-.91,1.19.78.78,0,0,0,0,.26c.13.34.67.67,1.61,1,1.15.39,1.78.6,1.86.64,1,.43,1.54,1,1.54,1.67a1.6,1.6,0,0,1-.5,1.14,3.24,3.24,0,0,1-2.48.93,3.79,3.79,0,0,1-2-.51,1.83,1.83,0,0,1-1-1.56h.64a1.23,1.23,0,0,0,.37.79,2.79,2.79,0,0,0,2,.64,3.43,3.43,0,0,0,1.33-.26c.67-.27,1-.66,1-1.17a.74.74,0,0,0-.05-.25c-.13-.35-.66-.67-1.59-1l-1.86-.64c-1-.43-1.55-1-1.55-1.69a1.69,1.69,0,0,1,.46-1.15,2.83,2.83,0,0,1,2.25-.92,3.15,3.15,0,0,1,1.73.48,1.86,1.86,0,0,1,1,1.59Z"/><path class="cls-1" d="M201.35,72.13v.14c.08.88.72,1.32,1.9,1.32h.33v.64h-.33a4.36,4.36,0,0,1-.51,0q-2-.21-2-2.07v-5h-1.3v-.64h1.3v-2h.65v2h2.23v.64h-2.23Z"/><path class="cls-1" d="M212.08,63.32V63h.64v5.17c.09-.13.18-.26.29-.39a3.33,3.33,0,0,1,4.93-.3,3.86,3.86,0,0,1,1.2,2.9,4,4,0,0,1-.93,2.62,3.3,3.3,0,0,1-2.6,1.23,2.59,2.59,0,0,1-.56,0,3.4,3.4,0,0,1-2.33-1.58v1.63h-.64V63.32Zm1.33,9.13a2.69,2.69,0,0,0,4,.42,3.19,3.19,0,0,0,1.06-2.49,3.4,3.4,0,0,0-.68-2.07,2.7,2.7,0,0,0-4-.42,3.24,3.24,0,0,0-1.06,2.51A3.27,3.27,0,0,0,213.41,72.45Z"/><path class="cls-1" d="M227,72.69A3.61,3.61,0,0,1,224,74.23a3.34,3.34,0,0,1-2.31-.93,3.86,3.86,0,0,1-1.22-2.92,3.94,3.94,0,0,1,.92-2.58A3.23,3.23,0,0,1,224,66.53a3.31,3.31,0,0,1,2.33,1,3.86,3.86,0,0,1,1.2,2.9v.32h-6.4a3.71,3.71,0,0,0,.64,1.74A2.67,2.67,0,0,0,224,73.59a3.06,3.06,0,0,0,2.54-1.28Zm-.16-2.63A3,3,0,0,0,224,67.17a2.74,2.74,0,0,0-1.65.56,3.19,3.19,0,0,0-1.22,2.33Z"/><path class="cls-1" d="M229.49,65.23v-.64h.66v.64h-.66Zm0,1.3h.64v7.7h-.64v-7.7Z"/><path class="cls-1" d="M238.73,74.25h-.62l0-.32,0-4.14a2.7,2.7,0,0,0-.49-1.59,2.22,2.22,0,0,0-1.91-1,2.28,2.28,0,0,0-1.46.53,2.59,2.59,0,0,0-1,2.09v4.44h-.64v-7.7h.64v1.25a.47.47,0,0,1,.1-.11,2.84,2.84,0,0,1,2.31-1.14,2.94,2.94,0,0,1,1.94.74,3.2,3.2,0,0,1,1.11,2.52v4.46Z"/><path class="cls-1" d="M241.57,67.77a3.3,3.3,0,0,1,2.6-1.24,3.64,3.64,0,0,1,.56,0,3.39,3.39,0,0,1,2.33,1.59V66.55h.67v.32l0,7a3.09,3.09,0,0,1-.77,2,3.41,3.41,0,0,1-2.74,1.35h-.32v-.64h.32a2.91,2.91,0,0,0,2-.87,2.55,2.55,0,0,0,.83-1.8V72.6c-.09.12-.18.26-.29.4a3.35,3.35,0,0,1-4.92.29,3.84,3.84,0,0,1-1.21-2.91A4,4,0,0,1,241.57,67.77Zm.39,4.68a2.7,2.7,0,0,0,4,.42,3.19,3.19,0,0,0,1.06-2.49,3.39,3.39,0,0,0-.67-2.07,2.71,2.71,0,0,0-4-.42,3.26,3.26,0,0,0-1.06,2.49A3.4,3.4,0,0,0,242,72.45Z"/><path class="cls-1" d="M257.46,67.77a3.27,3.27,0,0,1,2.6-1.24,3.64,3.64,0,0,1,.56,0A3.41,3.41,0,0,1,263,68.17V66.53h.64v7.7H263V72.6l-.29.4a3.36,3.36,0,0,1-4.93.29,3.87,3.87,0,0,1-1.2-2.91A4,4,0,0,1,257.46,67.77Zm.38,4.68a2.71,2.71,0,0,0,4.05.42A3.23,3.23,0,0,0,263,70.38a3.4,3.4,0,0,0-.68-2.07,2.7,2.7,0,0,0-4-.42,3.22,3.22,0,0,0-1.06,2.49A3.39,3.39,0,0,0,257.84,72.45Z"/><path class="cls-1" d="M266.16,63.32V63h.64v5.17a3.34,3.34,0,0,1,5.21-.69,3.83,3.83,0,0,1,1.21,2.9,4,4,0,0,1-.93,2.62,3.32,3.32,0,0,1-2.6,1.23,2.69,2.69,0,0,1-.57,0,3.41,3.41,0,0,1-2.32-1.58v1.63h-.64V63.32Zm1.33,9.13a2.69,2.69,0,0,0,4,.42,3.22,3.22,0,0,0,1.05-2.49,3.39,3.39,0,0,0-.67-2.07,2.67,2.67,0,0,0-2.21-1.14,2.65,2.65,0,0,0-1.83.72,3.24,3.24,0,0,0-1.06,2.51A3.27,3.27,0,0,0,267.49,72.45Z"/><path class="cls-1" d="M275.14,63h.64V74.23h-.64V63Z"/><path class="cls-1" d="M284.17,72.69a3.61,3.61,0,0,1-3,1.54,3.3,3.3,0,0,1-2.31-.93,3.82,3.82,0,0,1-1.22-2.92,3.93,3.93,0,0,1,.91-2.58,3.25,3.25,0,0,1,2.62-1.27,3.3,3.3,0,0,1,2.32,1,3.87,3.87,0,0,1,1.21,2.9v.32h-6.41a3.62,3.62,0,0,0,.65,1.74,2.65,2.65,0,0,0,2.23,1.15,3.06,3.06,0,0,0,2.53-1.28ZM284,70.06a2.82,2.82,0,0,0-.67-1.8,2.77,2.77,0,0,0-3.87-.53,3.22,3.22,0,0,0-1.22,2.33Z"/><path class="cls-1" d="M294.46,72.13v.14c.09.88.72,1.32,1.91,1.32h.32v.64h-.32a4.36,4.36,0,0,1-.51,0q-2-.21-2-2.07v-5h-1.3v-.64h1.3v-2h.64v2h2.23v.64h-2.23Z"/><path class="cls-1" d="M298.58,67.77a3.34,3.34,0,0,1,4.93-.29,3.86,3.86,0,0,1,1.2,2.9,4,4,0,0,1-.93,2.62,3.35,3.35,0,0,1-4.92.29,3.84,3.84,0,0,1-1.21-2.91A4,4,0,0,1,298.58,67.77Zm.39,4.68a2.67,2.67,0,0,0,2.21,1.14,2.65,2.65,0,0,0,1.83-.72,3.19,3.19,0,0,0,1.06-2.49,3.39,3.39,0,0,0-.67-2.07,2.71,2.71,0,0,0-4-.42,3.25,3.25,0,0,0-1.05,2.49A3.39,3.39,0,0,0,299,72.45Z"/><path class="cls-1" d="M314.52,72.13v.14c.08.88.72,1.32,1.91,1.32h.32v.64h-.32a4.53,4.53,0,0,1-.52,0,2,2,0,0,1-2-2.07v-5h-1.3v-.64h1.3v-2h.64v2h2.23v.64h-2.23Z"/><path class="cls-1" d="M318.64,67.77a3.28,3.28,0,0,1,2.6-1.24,3.64,3.64,0,0,1,.56,0,3.39,3.39,0,0,1,2.33,1.59V66.53h.64v7.7h-.64V72.6c-.09.12-.18.26-.29.4a3.35,3.35,0,0,1-4.92.29,3.84,3.84,0,0,1-1.21-2.91A4,4,0,0,1,318.64,67.77Zm.39,4.68a2.7,2.7,0,0,0,4,.42,3.19,3.19,0,0,0,1.06-2.49,3.39,3.39,0,0,0-.67-2.07,2.71,2.71,0,0,0-4-.42,3.26,3.26,0,0,0-1.06,2.49A3.4,3.4,0,0,0,319,72.45Z"/><path class="cls-1" d="M327.34,63H328V74.23h-.64V63Z"/><path class="cls-1" d="M331.08,70.7v3.53h-.64V63h.64v7.06h.82l3.77-3.45.09-.08h.95l-.59.56-3.6,3.29,3.6,3.29.59.56h-.95l-.09-.08L331.9,70.7Z"/><path class="cls-1" d="M345.33,67.77a3.27,3.27,0,0,1,2.6-1.24,3.75,3.75,0,0,1,.56,0,3.37,3.37,0,0,1,2.32,1.59V66.53h.65v7.7h-.65V72.6l-.28.4a3.36,3.36,0,0,1-4.93.29,3.87,3.87,0,0,1-1.2-2.91A4,4,0,0,1,345.33,67.77Zm.38,4.68a2.68,2.68,0,0,0,2.22,1.14,2.64,2.64,0,0,0,1.82-.72,3.19,3.19,0,0,0,1.06-2.49,3.39,3.39,0,0,0-.67-2.07,2.67,2.67,0,0,0-2.21-1.14,2.65,2.65,0,0,0-1.83.72A3.22,3.22,0,0,0,345,70.38,3.39,3.39,0,0,0,345.71,72.45Z"/><path class="cls-1" d="M354,63.32V63h.65v5.17a3.58,3.58,0,0,1,2.88-1.64,3.31,3.31,0,0,1,2.33,1,3.86,3.86,0,0,1,1.2,2.9,4,4,0,0,1-.93,2.62,3.29,3.29,0,0,1-2.6,1.23,2.59,2.59,0,0,1-.56,0,3.39,3.39,0,0,1-2.32-1.58v1.63H354V63.32Zm1.34,9.13a2.68,2.68,0,0,0,4,.42,3.19,3.19,0,0,0,1.06-2.49,3.39,3.39,0,0,0-.67-2.07,2.71,2.71,0,0,0-4-.42,3.47,3.47,0,0,0-.36,4.56Z"/><path class="cls-1" d="M363.3,67.77a3.33,3.33,0,0,1,4.92-.29,3.83,3.83,0,0,1,1.21,2.9A4,4,0,0,1,368.5,73a3.36,3.36,0,0,1-4.93.29,3.87,3.87,0,0,1-1.2-2.91A4,4,0,0,1,363.3,67.77Zm.38,4.68a2.71,2.71,0,0,0,4.05.42,3.23,3.23,0,0,0,1.06-2.49,3.4,3.4,0,0,0-.68-2.07,2.7,2.7,0,0,0-4-.42A3.22,3.22,0,0,0,363,70.38,3.39,3.39,0,0,0,363.68,72.45Z"/><path class="cls-1" d="M371.05,66.55h.66l0,.32,0,4.51a2,2,0,0,0,.49,1.31,2.46,2.46,0,0,0,2,.9,2.55,2.55,0,0,0,1.47-.45,2,2,0,0,0,1-1.76V66.85l0-.3h.65v.32l0,4.51a2.67,2.67,0,0,1-.67,1.78,3.07,3.07,0,0,1-2.42,1.07,3.22,3.22,0,0,1-2-.69A2.68,2.68,0,0,1,371,71.38V66.85Z"/><path class="cls-1" d="M380.47,72.13v.14c.08.88.72,1.32,1.91,1.32h.32v.64h-.32a4.53,4.53,0,0,1-.52,0,2,2,0,0,1-2-2.07v-5h-1.3v-.64h1.3v-2h.64v2h2.23v.64h-2.23Z"/><path class="cls-1" d="M392.18,72.13v.14c.09.88.72,1.32,1.91,1.32h.32v.64h-.32a4.36,4.36,0,0,1-.51,0q-2-.21-2-2.07v-5h-1.3v-.64h1.3v-2h.64v2h2.23v.64h-2.23Z"/><path class="cls-1" d="M396.75,67.67a2.84,2.84,0,0,1,2.31-1.14,3,3,0,0,1,1.95.74,3.19,3.19,0,0,1,1.1,2.52v4.12l0,.34h-.63v-.32l0-4.14a2.64,2.64,0,0,0-.5-1.59,2.21,2.21,0,0,0-1.91-1,2.3,2.3,0,0,0-1.46.53,2.58,2.58,0,0,0-.94,2.09v4.44H396V64h.64v3.75Z"/><path class="cls-1" d="M404.76,65.23v-.64h.66v.64h-.66Zm0,1.3h.64v7.7h-.64v-7.7Z"/><path class="cls-1" d="M412.3,68.6a1.1,1.1,0,0,0-.32-.77,2.3,2.3,0,0,0-1.75-.66,2.75,2.75,0,0,0-1.15.24,1.34,1.34,0,0,0-.92,1.19.8.8,0,0,0,0,.26c.13.34.66.67,1.61,1l1.86.64c1,.43,1.54,1,1.54,1.67a1.64,1.64,0,0,1-.5,1.14,3.27,3.27,0,0,1-2.49.93,3.75,3.75,0,0,1-2-.51,1.81,1.81,0,0,1-1-1.56h.64a1.19,1.19,0,0,0,.37.79,2.78,2.78,0,0,0,2,.64,3.39,3.39,0,0,0,1.33-.26q1-.4,1-1.17a.74.74,0,0,0-.05-.25c-.13-.35-.66-.67-1.59-1-1.16-.39-1.78-.6-1.86-.64-1-.43-1.56-1-1.56-1.69a1.7,1.7,0,0,1,.47-1.15,2.81,2.81,0,0,1,2.24-.92A3.18,3.18,0,0,1,412,67a1.85,1.85,0,0,1,1,1.59Z"/><path class="cls-1" d="M428.16,74.25h-.63l0-.32V69.79a2.71,2.71,0,0,0-.5-1.59,2.22,2.22,0,0,0-1.91-1,2.3,2.3,0,0,0-1.46.53,2.59,2.59,0,0,0-.95,2.09v4.44H422v-7.7h.64v1.25l.1-.11a2.84,2.84,0,0,1,2.31-1.14,2.91,2.91,0,0,1,1.94.74,3.2,3.2,0,0,1,1.11,2.52v4.12Z"/><path class="cls-1" d="M431,67.77a3.33,3.33,0,0,1,4.92-.29,3.87,3.87,0,0,1,1.21,2.9A4,4,0,0,1,436.2,73a3.36,3.36,0,0,1-4.93.29,3.87,3.87,0,0,1-1.2-2.91A4,4,0,0,1,431,67.77Zm.38,4.68a2.68,2.68,0,0,0,2.22,1.14,2.64,2.64,0,0,0,1.82-.72,3.19,3.19,0,0,0,1.06-2.49,3.39,3.39,0,0,0-.67-2.07,2.67,2.67,0,0,0-2.21-1.14,2.65,2.65,0,0,0-1.83.72,3.22,3.22,0,0,0-1.06,2.49A3.39,3.39,0,0,0,431.38,72.45Z"/><path class="cls-1" d="M438.31,66.53H439l.07.24,1.68,6.15,2.52-6.2.1-.19h.41l.1.19,2.52,6.2,1.68-6.15.07-.24h.66l-.12.4L446.74,74l-.07.24h-.45l-.09-.19-2.59-6.34L441,74l-.1.19h-.44l-.07-.24-1.92-7.06Z"/><path class="cls-1" d="M450.93,73.61h.64v.32h0v.32h-.64v-.32h0Z"/><path class="cls-1" d="M2.1,95.23H1.46V84.32h.48l.1.13,6.79,9.47v-9.6h.64V95.23H9l-.1-.13L2.1,85.64v9.59Z"/><path class="cls-1" d="M12.66,88.77a3.28,3.28,0,0,1,2.6-1.24,3.33,3.33,0,0,1,2.33,1,3.86,3.86,0,0,1,1.2,2.9A4,4,0,0,1,17.86,94a3.36,3.36,0,0,1-4.93.29,3.87,3.87,0,0,1-1.2-2.91A4,4,0,0,1,12.66,88.77Zm.39,4.68a2.65,2.65,0,0,0,2.21,1.14,2.68,2.68,0,0,0,1.83-.72,3.23,3.23,0,0,0,1.06-2.49,3.4,3.4,0,0,0-.68-2.07,2.65,2.65,0,0,0-2.21-1.14,2.68,2.68,0,0,0-1.83.72,3.22,3.22,0,0,0-1.06,2.49A3.4,3.4,0,0,0,13.05,93.45Z"/><path class="cls-1" d="M33,88.61a2.51,2.51,0,0,1,3.74-.44,3,3,0,0,1,1,2.36v4.72h-.62l0-.32,0-4.4a2.6,2.6,0,0,0-.4-1.41,1.89,1.89,0,0,0-1.65-1,1.83,1.83,0,0,0-1.2.45A2.35,2.35,0,0,0,33,90.53v4.72H32.4l0-.32,0-4.08v-.32a2.6,2.6,0,0,0-.4-1.41,1.89,1.89,0,0,0-1.65-1,1.83,1.83,0,0,0-1.2.45,2.35,2.35,0,0,0-.85,1.91v4.7h-.64v-7.7h.64v1.06a2.51,2.51,0,0,1,2-1.06,2.11,2.11,0,0,1,.66.1,2.64,2.64,0,0,1,1.72,1.47A2.8,2.8,0,0,1,33,88.61Z"/><path class="cls-1" d="M40.61,88.77a3.3,3.3,0,0,1,2.6-1.24,3.64,3.64,0,0,1,.56,0,3.39,3.39,0,0,1,2.33,1.59V87.53h.64v7.7H46.1V93.6c-.09.12-.18.26-.29.4a3.35,3.35,0,0,1-4.92.29,3.84,3.84,0,0,1-1.21-2.91A4,4,0,0,1,40.61,88.77ZM41,93.45a2.7,2.7,0,0,0,4,.42,3.19,3.19,0,0,0,1.06-2.49,3.39,3.39,0,0,0-.67-2.07,2.71,2.71,0,0,0-4-.42,3.26,3.26,0,0,0-1.06,2.49A3.4,3.4,0,0,0,41,93.45Z"/><path class="cls-1" d="M50.29,93.13v.14c.08.88.72,1.32,1.91,1.32h.32v.64H52.2l-.52,0a2,2,0,0,1-2-2.07v-5h-1.3v-.64h1.3v-2h.64v2h2.23v.64H50.29Z"/><path class="cls-1" d="M55.1,93.13v.14c.09.88.72,1.32,1.91,1.32h.32v.64H57a4.36,4.36,0,0,1-.51,0q-2-.21-2-2.07v-5h-1.3v-.64h1.3v-2h.64v2h2.23v.64H55.1Z"/><path class="cls-1" d="M64.87,93.69a3.61,3.61,0,0,1-3,1.54,3.34,3.34,0,0,1-2.32-.93,3.86,3.86,0,0,1-1.22-2.92,3.94,3.94,0,0,1,.92-2.58,3.25,3.25,0,0,1,2.62-1.27,3.3,3.3,0,0,1,2.32,1,3.87,3.87,0,0,1,1.21,2.9v.32H59a3.71,3.71,0,0,0,.64,1.74,2.68,2.68,0,0,0,2.24,1.15,3.06,3.06,0,0,0,2.53-1.28Zm-.16-2.63a2.82,2.82,0,0,0-.67-1.8,2.77,2.77,0,0,0-3.87-.53A3.22,3.22,0,0,0,59,91.06Z"/><path class="cls-1" d="M68,88.93a3.41,3.41,0,0,1,3-1.4h.32v.64h-.32a3.23,3.23,0,0,0-1.59.39,2.85,2.85,0,0,0-1.43,2.68v4h-.64v-7.7h.64V89Z"/><path class="cls-1" d="M80.34,88.67a2.84,2.84,0,0,1,2.31-1.14,2.91,2.91,0,0,1,1.94.74,3.2,3.2,0,0,1,1.11,2.52v4.12l0,.34h-.63v-.32l0-4.14a2.71,2.71,0,0,0-.5-1.59,2.22,2.22,0,0,0-1.91-1,2.3,2.3,0,0,0-1.46.53,2.58,2.58,0,0,0-.94,2.09v4.44H79.6V85h.65v3.75Z"/><path class="cls-1" d="M88.56,88.77a3.33,3.33,0,0,1,4.92-.29,3.83,3.83,0,0,1,1.21,2.9A4,4,0,0,1,93.76,94a3.36,3.36,0,0,1-4.93.29,3.87,3.87,0,0,1-1.2-2.91A4,4,0,0,1,88.56,88.77Zm.38,4.68a2.71,2.71,0,0,0,4,.42,3.23,3.23,0,0,0,1.06-2.49,3.4,3.4,0,0,0-.68-2.07,2.7,2.7,0,0,0-4-.42,3.22,3.22,0,0,0-1.06,2.49A3.39,3.39,0,0,0,88.94,93.45Z"/><path class="cls-1" d="M95.88,87.53h.65l.07.24,1.68,6.15,2.52-6.2.1-.19h.41l.1.19,2.52,6.2,1.69-6.15.06-.24h.66l-.12.4L104.3,95l-.07.24h-.44l-.1-.19-2.58-6.34L98.52,95l-.09.19H98L97.91,95,96,87.93Z"/><path class="cls-1" d="M114.33,87.53H115l.06.24,1.68,6.15,2.52-6.2.1-.19h.42l.09.19,2.52,6.2,1.69-6.15.06-.24h.66l-.11.4L122.75,95l-.06.24h-.45l-.1-.19-2.58-6.34L117,95l-.1.19h-.45l-.06-.24-1.93-7.06Z"/><path class="cls-1" d="M126.7,86.23v-.64h.66v.64h-.66Zm0,1.3h.64v7.7h-.64v-7.7Z"/><path class="cls-1" d="M130.12,88.77a3.27,3.27,0,0,1,2.6-1.24,3.64,3.64,0,0,1,.56,0,3.41,3.41,0,0,1,2.33,1.59V84h.64V95.23h-.64V93.6l-.29.4a3.36,3.36,0,0,1-4.93.29,3.87,3.87,0,0,1-1.2-2.91A4,4,0,0,1,130.12,88.77Zm.38,4.68a2.71,2.71,0,0,0,4.05.42,3.23,3.23,0,0,0,1.06-2.49,3.4,3.4,0,0,0-.68-2.07,2.7,2.7,0,0,0-4-.42,3.22,3.22,0,0,0-1.06,2.49A3.39,3.39,0,0,0,130.5,93.45Z"/><path class="cls-1" d="M144.75,93.69a3.63,3.63,0,0,1-3.05,1.54,3.34,3.34,0,0,1-2.31-.93,3.86,3.86,0,0,1-1.22-2.92,3.94,3.94,0,0,1,.92-2.58,3.22,3.22,0,0,1,2.61-1.27,3.31,3.31,0,0,1,2.33,1,3.86,3.86,0,0,1,1.2,2.9v.32h-6.4a3.61,3.61,0,0,0,.64,1.74,2.67,2.67,0,0,0,2.23,1.15,3.07,3.07,0,0,0,2.54-1.28Zm-.16-2.63a3,3,0,0,0-2.89-2.89,2.72,2.72,0,0,0-1.65.56,3.19,3.19,0,0,0-1.22,2.33Z"/><path class="cls-1" d="M155,93.13v.14c.08.88.72,1.32,1.91,1.32h.32v.64H157a4.53,4.53,0,0,1-.52,0c-1.35-.14-2-.83-2-2.07v-5h-1.3v-.64h1.3v-2H155v2h2.23v.64H155Z"/><path class="cls-1" d="M159.61,88.67a2.84,2.84,0,0,1,2.31-1.14,2.92,2.92,0,0,1,1.94.74A3.2,3.2,0,0,1,165,90.79v4.12l0,.34h-.63l0-.32V90.79a2.71,2.71,0,0,0-.5-1.59,2.22,2.22,0,0,0-1.91-1,2.3,2.3,0,0,0-1.46.53,2.59,2.59,0,0,0-1,2.09v4.44h-.64V85h.64v3.75Z"/><path class="cls-1" d="M173.47,93.69a3.61,3.61,0,0,1-3.05,1.54,3.34,3.34,0,0,1-2.31-.93,3.86,3.86,0,0,1-1.22-2.92,3.94,3.94,0,0,1,.92-2.58,3.23,3.23,0,0,1,2.61-1.27,3.31,3.31,0,0,1,2.33,1,3.87,3.87,0,0,1,1.21,2.9v.32h-6.41a3.71,3.71,0,0,0,.64,1.74,2.68,2.68,0,0,0,2.23,1.15A3.06,3.06,0,0,0,173,93.31Zm-.16-2.63a3,3,0,0,0-2.89-2.89,2.76,2.76,0,0,0-1.65.56,3.19,3.19,0,0,0-1.22,2.33Z"/><path class="cls-1" d="M182.48,87.55h.65v.32l0,4.51a2,2,0,0,0,.48,1.31,2.48,2.48,0,0,0,2,.9,2.56,2.56,0,0,0,1.48-.45,2,2,0,0,0,1-1.76V87.55h.66v.32l0,4.51a2.67,2.67,0,0,1-.67,1.78,3.08,3.08,0,0,1-2.43,1.07,3.19,3.19,0,0,1-2-.69,2.65,2.65,0,0,1-1.09-2.16V87.85Z"/><path class="cls-1" d="M197,95.25h-.63v-.32l0-4.14a2.64,2.64,0,0,0-.5-1.59,2.21,2.21,0,0,0-1.91-1,2.3,2.3,0,0,0-1.46.53,2.58,2.58,0,0,0-.94,2.09v4.44h-.64v-7.7h.64v1.25l.09-.11A2.84,2.84,0,0,1,194,87.53a3,3,0,0,1,1.95.74,3.22,3.22,0,0,1,1.1,2.52v4.12Z"/><path class="cls-1" d="M199.66,86.23v-.64h.66v.64h-.66Zm0,1.3h.64v7.7h-.64v-7.7Z"/><path class="cls-1" d="M202,87.53h.69l.08.19,2.61,6.34,2.57-6.34.1-.19h.69l-.18.45L205.68,95l-.1.19h-.42l-.08-.19L202.18,88Z"/><path class="cls-1" d="M216.43,93.69a3.63,3.63,0,0,1-3.05,1.54,3.3,3.3,0,0,1-2.31-.93,3.86,3.86,0,0,1-1.22-2.92,3.93,3.93,0,0,1,.91-2.58,3.25,3.25,0,0,1,2.62-1.27,3.33,3.33,0,0,1,2.33,1,3.86,3.86,0,0,1,1.2,2.9v.32h-6.4a3.61,3.61,0,0,0,.64,1.74,2.67,2.67,0,0,0,2.23,1.15,3.07,3.07,0,0,0,2.54-1.28Zm-.16-2.63a2.83,2.83,0,0,0-.68-1.8,2.76,2.76,0,0,0-2.21-1.09,2.72,2.72,0,0,0-1.65.56,3.15,3.15,0,0,0-1.22,2.33Z"/><path class="cls-1" d="M219.53,88.93a3.4,3.4,0,0,1,3-1.4h.33v.64h-.33a3.22,3.22,0,0,0-1.58.39,2.83,2.83,0,0,0-1.43,2.68v4h-.64v-7.7h.64V89Z"/><path class="cls-1" d="M228.67,89.6a1.1,1.1,0,0,0-.32-.77,2.3,2.3,0,0,0-1.75-.66,2.72,2.72,0,0,0-1.15.24,1.34,1.34,0,0,0-.92,1.19.8.8,0,0,0,.05.26c.13.34.66.67,1.6,1l1.87.64c1,.43,1.54,1,1.54,1.67a1.64,1.64,0,0,1-.5,1.14,3.27,3.27,0,0,1-2.49.93,3.75,3.75,0,0,1-2-.51,1.81,1.81,0,0,1-1-1.56h.64a1.19,1.19,0,0,0,.37.79,2.78,2.78,0,0,0,2,.64,3.39,3.39,0,0,0,1.33-.26c.68-.27,1-.66,1-1.17a.73.73,0,0,0,0-.25c-.13-.35-.66-.67-1.59-1-1.16-.39-1.78-.6-1.86-.64-1-.43-1.56-1-1.56-1.69a1.65,1.65,0,0,1,.47-1.15,2.81,2.81,0,0,1,2.24-.92,3.15,3.15,0,0,1,1.73.48,1.84,1.84,0,0,1,1,1.59Z"/><path class="cls-1" d="M237.45,93.69a3.63,3.63,0,0,1-3,1.54,3.3,3.3,0,0,1-2.31-.93,4.09,4.09,0,0,1-.3-5.5,3.22,3.22,0,0,1,2.61-1.27,3.33,3.33,0,0,1,2.33,1,3.86,3.86,0,0,1,1.2,2.9v.32h-6.4a3.61,3.61,0,0,0,.64,1.74,2.67,2.67,0,0,0,2.23,1.15,3.07,3.07,0,0,0,2.54-1.28Zm-.16-2.63a2.87,2.87,0,0,0-.67-1.8,2.79,2.79,0,0,0-2.22-1.09,2.72,2.72,0,0,0-1.65.56,3.15,3.15,0,0,0-1.22,2.33Z"/><path class="cls-1" d="M246.84,86.23v-.64h.65v.64h-.65Zm0,1.3h.64v7.7h-.64v-7.7Z"/><path class="cls-1" d="M254.38,89.6a1.15,1.15,0,0,0-.32-.77,2.3,2.3,0,0,0-1.75-.66,2.8,2.8,0,0,0-1.16.24,1.33,1.33,0,0,0-.91,1.19.6.6,0,0,0,0,.26c.13.34.66.67,1.6,1,1.16.39,1.78.6,1.86.64,1,.43,1.54,1,1.54,1.67a1.6,1.6,0,0,1-.5,1.14,3.24,3.24,0,0,1-2.48.93,3.79,3.79,0,0,1-2-.51,1.83,1.83,0,0,1-1-1.56H250a1.22,1.22,0,0,0,.36.79,2.79,2.79,0,0,0,2,.64,3.43,3.43,0,0,0,1.33-.26c.67-.27,1-.66,1-1.17a.74.74,0,0,0-.05-.25c-.13-.35-.65-.67-1.59-1l-1.86-.64c-1-.43-1.55-1-1.55-1.69a1.69,1.69,0,0,1,.46-1.15,2.85,2.85,0,0,1,2.25-.92A3.15,3.15,0,0,1,254,88a1.86,1.86,0,0,1,1,1.59Z"/><path class="cls-1" d="M258.71,94.06h.66l-.07.39a2.87,2.87,0,0,1-1.62,2.16l-.46.23v-.72l.17-.08a2.29,2.29,0,0,0,1.27-1.72Z"/><path class="cls-1" d="M269,93.13v.14c.08.88.72,1.32,1.91,1.32h.32v.64h-.32a4.53,4.53,0,0,1-.52,0,2,2,0,0,1-2-2.07v-5H267v-.64h1.3v-2H269v2h2.23v.64H269Z"/><path class="cls-1" d="M273.52,88.67a2.84,2.84,0,0,1,2.31-1.14,2.91,2.91,0,0,1,1.94.74,3.2,3.2,0,0,1,1.11,2.52v4.12l0,.34h-.63l0-.32V90.79a2.71,2.71,0,0,0-.5-1.59,2.22,2.22,0,0,0-1.91-1,2.3,2.3,0,0,0-1.46.53,2.59,2.59,0,0,0-.95,2.09v4.44h-.64V85h.64v3.75Z"/><path class="cls-1" d="M287.38,93.69a3.61,3.61,0,0,1-3,1.54A3.3,3.3,0,0,1,282,94.3a3.82,3.82,0,0,1-1.22-2.92,3.93,3.93,0,0,1,.91-2.58,3.25,3.25,0,0,1,2.62-1.27,3.3,3.3,0,0,1,2.32,1,3.87,3.87,0,0,1,1.21,2.9v.32h-6.41a3.62,3.62,0,0,0,.65,1.74,2.65,2.65,0,0,0,2.23,1.15,3.06,3.06,0,0,0,2.53-1.28Zm-.16-2.63a2.82,2.82,0,0,0-.67-1.8,2.77,2.77,0,0,0-3.87-.53,3.22,3.22,0,0,0-1.22,2.33Z"/><path class="cls-1" d="M290.48,88.93a3.41,3.41,0,0,1,3-1.4h.32v.64h-.32a3.23,3.23,0,0,0-1.59.39,2.87,2.87,0,0,0-1.43,2.68v4h-.64v-7.7h.64V89Z"/><path class="cls-1" d="M301.15,93.69a3.61,3.61,0,0,1-3,1.54,3.34,3.34,0,0,1-2.31-.93,3.86,3.86,0,0,1-1.22-2.92,3.94,3.94,0,0,1,.92-2.58,3.22,3.22,0,0,1,2.61-1.27,3.31,3.31,0,0,1,2.33,1,3.86,3.86,0,0,1,1.2,2.9v.32h-6.4a3.71,3.71,0,0,0,.64,1.74,2.67,2.67,0,0,0,2.23,1.15,3.06,3.06,0,0,0,2.54-1.28ZM301,91.06a3,3,0,0,0-2.89-2.89,2.72,2.72,0,0,0-1.65.56,3.19,3.19,0,0,0-1.22,2.33Z"/><path class="cls-1" d="M310.75,88.77a3.27,3.27,0,0,1,2.6-1.24,3.64,3.64,0,0,1,.56,0,3.41,3.41,0,0,1,2.33,1.59V87.53h.64v7.7h-.64V93.6L316,94a3.36,3.36,0,0,1-4.93.29,3.87,3.87,0,0,1-1.2-2.91A4,4,0,0,1,310.75,88.77Zm.38,4.68a2.71,2.71,0,0,0,4.05.42,3.23,3.23,0,0,0,1.06-2.49,3.4,3.4,0,0,0-.68-2.07,2.7,2.7,0,0,0-4-.42,3.22,3.22,0,0,0-1.06,2.49A3.39,3.39,0,0,0,311.13,93.45Z"/><path class="cls-1" d="M320.13,88.93a3.43,3.43,0,0,1,3-1.4h.32v.64h-.32a3.26,3.26,0,0,0-1.59.39,2.84,2.84,0,0,0-1.42,2.68v4h-.64v-7.7h.64V89Z"/><path class="cls-1" d="M330.8,93.69a3.61,3.61,0,0,1-3,1.54,3.3,3.3,0,0,1-2.31-.93,3.82,3.82,0,0,1-1.22-2.92,3.93,3.93,0,0,1,.91-2.58,3.25,3.25,0,0,1,2.62-1.27,3.3,3.3,0,0,1,2.32,1,3.87,3.87,0,0,1,1.21,2.9v.32h-6.41a3.62,3.62,0,0,0,.65,1.74,2.65,2.65,0,0,0,2.23,1.15,3.06,3.06,0,0,0,2.53-1.28Zm-.16-2.63a2.82,2.82,0,0,0-.67-1.8,2.77,2.77,0,0,0-3.87-.53,3.22,3.22,0,0,0-1.22,2.33Z"/><path class="cls-1" d="M344.52,89.6a1.1,1.1,0,0,0-.32-.77,2.28,2.28,0,0,0-1.74-.66,2.77,2.77,0,0,0-1.16.24,1.34,1.34,0,0,0-.92,1.19.8.8,0,0,0,.05.26c.13.34.67.67,1.61,1l1.86.64c1,.43,1.54,1,1.54,1.67a1.64,1.64,0,0,1-.5,1.14,3.26,3.26,0,0,1-2.48.93,3.79,3.79,0,0,1-2-.51,1.83,1.83,0,0,1-1-1.56h.64a1.23,1.23,0,0,0,.37.79,2.79,2.79,0,0,0,2,.64,3.43,3.43,0,0,0,1.33-.26c.67-.27,1-.66,1-1.17a.74.74,0,0,0-.05-.25c-.13-.35-.66-.67-1.59-1-1.16-.39-1.78-.6-1.86-.64-1-.43-1.56-1-1.56-1.69a1.7,1.7,0,0,1,.47-1.15,2.82,2.82,0,0,1,2.25-.92,3.17,3.17,0,0,1,1.73.48,1.86,1.86,0,0,1,1,1.59Z"/><path class="cls-1" d="M348.34,93.13v.14c.09.88.73,1.32,1.91,1.32h.32v.64h-.32a4.36,4.36,0,0,1-.51,0q-2-.21-2-2.07v-5h-1.3v-.64h1.3v-2h.64v2h2.23v.64h-2.23Z"/><path class="cls-1" d="M352.47,88.77a3.33,3.33,0,0,1,4.92-.29,3.83,3.83,0,0,1,1.21,2.9,4,4,0,0,1-.93,2.62,3.36,3.36,0,0,1-4.93.29,3.87,3.87,0,0,1-1.2-2.91A4,4,0,0,1,352.47,88.77Zm.38,4.68a2.71,2.71,0,0,0,4,.42A3.23,3.23,0,0,0,358,91.38a3.4,3.4,0,0,0-.68-2.07,2.67,2.67,0,0,0-2.21-1.14,2.65,2.65,0,0,0-1.83.72,3.22,3.22,0,0,0-1.06,2.49A3.39,3.39,0,0,0,352.85,93.45Z"/><path class="cls-1" d="M361.21,88.93a3.43,3.43,0,0,1,3-1.4h.32v.64h-.32a3.23,3.23,0,0,0-1.59.39,2.87,2.87,0,0,0-1.43,2.68v4h-.64v-7.7h.64V89Z"/><path class="cls-1" d="M366,86.23v-.64h.65v.64H366Zm0,1.3h.64v7.7H366v-7.7Z"/><path class="cls-1" d="M375.09,93.69a3.61,3.61,0,0,1-3,1.54,3.34,3.34,0,0,1-2.31-.93,3.86,3.86,0,0,1-1.22-2.92,3.94,3.94,0,0,1,.92-2.58A3.22,3.22,0,0,1,372,87.53a3.31,3.31,0,0,1,2.33,1,3.86,3.86,0,0,1,1.2,2.9v.32h-6.4a3.71,3.71,0,0,0,.64,1.74A2.67,2.67,0,0,0,372,94.59a3.06,3.06,0,0,0,2.54-1.28Zm-.16-2.63A3,3,0,0,0,372,88.17a2.72,2.72,0,0,0-1.65.56,3.19,3.19,0,0,0-1.22,2.33Z"/><path class="cls-1" d="M381.91,89.6a1.15,1.15,0,0,0-.32-.77,2.3,2.3,0,0,0-1.75-.66,2.72,2.72,0,0,0-1.15.24,1.34,1.34,0,0,0-.92,1.19.8.8,0,0,0,.05.26c.13.34.66.67,1.6,1l1.87.64c1,.43,1.54,1,1.54,1.67a1.64,1.64,0,0,1-.5,1.14,3.27,3.27,0,0,1-2.49.93,3.73,3.73,0,0,1-2-.51,1.81,1.81,0,0,1-1-1.56h.64a1.19,1.19,0,0,0,.37.79,2.78,2.78,0,0,0,2,.64,3.39,3.39,0,0,0,1.33-.26c.68-.27,1-.66,1-1.17a.73.73,0,0,0,0-.25c-.13-.35-.66-.67-1.59-1-1.16-.39-1.78-.6-1.86-.64-1-.43-1.56-1-1.56-1.69a1.69,1.69,0,0,1,.46-1.15,2.85,2.85,0,0,1,2.25-.92,3.15,3.15,0,0,1,1.73.48,1.84,1.84,0,0,1,1,1.59Z"/><path class="cls-1" d="M392.63,93.13v.14c.09.88.72,1.32,1.91,1.32h.32v.64h-.32a4.36,4.36,0,0,1-.51,0q-2-.21-2-2.07v-5h-1.3v-.64H392v-2h.64v2h2.23v.64h-2.23Z"/><path class="cls-1" d="M397.2,88.67a2.84,2.84,0,0,1,2.31-1.14,3,3,0,0,1,1.95.74,3.22,3.22,0,0,1,1.1,2.52v4.12l0,.34H402v-.32l0-4.14a2.71,2.71,0,0,0-.5-1.59,2.21,2.21,0,0,0-1.91-1,2.3,2.3,0,0,0-1.46.53,2.58,2.58,0,0,0-.94,2.09v4.44h-.64V85h.64v3.75Z"/><path class="cls-1" d="M405.42,88.77a3.27,3.27,0,0,1,2.6-1.24,3.64,3.64,0,0,1,.56,0,3.41,3.41,0,0,1,2.33,1.59V87.53h.64v7.7h-.64V93.6l-.29.4a3.36,3.36,0,0,1-4.93.29,3.87,3.87,0,0,1-1.2-2.91A4,4,0,0,1,405.42,88.77Zm.38,4.68a2.71,2.71,0,0,0,4.05.42,3.23,3.23,0,0,0,1.06-2.49,3.4,3.4,0,0,0-.68-2.07,2.7,2.7,0,0,0-4-.42,3.22,3.22,0,0,0-1.06,2.49A3.46,3.46,0,0,0,405.8,93.45Z"/><path class="cls-1" d="M415.09,93.13v.14c.09.88.73,1.32,1.91,1.32h.33v.64H417a4.36,4.36,0,0,1-.51,0q-2-.21-2-2.07v-5h-1.3v-.64h1.3v-2h.64v2h2.24v.64h-2.24Z"/><path class="cls-1" d="M5.65,108.74l.08-.21h.69l-.16.43L3.55,116a8.56,8.56,0,0,1-1.26,2.43,2.22,2.22,0,0,1-1.79.77H.18v-.64H.5a1.72,1.72,0,0,0,1.06-.33,5.76,5.76,0,0,0,1.33-2.34l-2.7-7L0,108.53H.72l.08.21L3.24,115Z"/><path class="cls-1" d="M8.49,109.77a3.27,3.27,0,0,1,2.6-1.24,3.34,3.34,0,0,1,2.33,1,3.86,3.86,0,0,1,1.2,2.9,4,4,0,0,1-.93,2.62,3.36,3.36,0,0,1-4.93.29,3.87,3.87,0,0,1-1.2-2.91A4,4,0,0,1,8.49,109.77Zm.38,4.68a2.71,2.71,0,0,0,4.05.42A3.23,3.23,0,0,0,14,112.38a3.4,3.4,0,0,0-.68-2.07,2.7,2.7,0,0,0-4-.42,3.22,3.22,0,0,0-1.06,2.49A3.39,3.39,0,0,0,8.87,114.45Z"/><path class="cls-1" d="M16.24,108.55h.66l0,.32,0,4.51a2,2,0,0,0,.49,1.31,2.46,2.46,0,0,0,2,.9,2.55,2.55,0,0,0,1.47-.45,2,2,0,0,0,1-1.76v-4.53l0-.3h.65v.32l0,4.51a2.67,2.67,0,0,1-.67,1.78,3.07,3.07,0,0,1-2.42,1.07,3.22,3.22,0,0,1-2-.69,2.68,2.68,0,0,1-1.09-2.16v-4.53Z"/><path class="cls-1" d="M32.32,109.67a2.84,2.84,0,0,1,2.31-1.14,2.94,2.94,0,0,1,1.94.74,3.2,3.2,0,0,1,1.11,2.52v4.46h-.62l0-.32,0-4.14a2.7,2.7,0,0,0-.49-1.59,2.22,2.22,0,0,0-1.91-1,2.28,2.28,0,0,0-1.46.53,2.59,2.59,0,0,0-1,2.09v4.44h-.64V106h.64v3.75A.47.47,0,0,1,32.32,109.67Z"/><path class="cls-1" d="M40.53,109.77a3.3,3.3,0,0,1,2.6-1.24,3.64,3.64,0,0,1,.56,0A3.39,3.39,0,0,1,46,110.17v-1.64h.64v7.7H46V114.6c-.09.12-.18.26-.29.4a3.35,3.35,0,0,1-4.92.29,3.84,3.84,0,0,1-1.21-2.91A4,4,0,0,1,40.53,109.77Zm.39,4.68a2.7,2.7,0,0,0,4,.42A3.19,3.19,0,0,0,46,112.38a3.39,3.39,0,0,0-.67-2.07,2.71,2.71,0,0,0-4.05-.42,3.26,3.26,0,0,0-1.06,2.49A3.4,3.4,0,0,0,40.92,114.45Z"/><path class="cls-1" d="M48.43,108.53h.69l.08.19,2.61,6.34,2.57-6.34.1-.19h.69L55,109,52.12,116l-.1.19H51.6l-.08-.19L48.62,109Z"/><path class="cls-1" d="M62.87,114.69a3.63,3.63,0,0,1-3,1.54,3.3,3.3,0,0,1-2.31-.93,3.86,3.86,0,0,1-1.22-2.92,3.93,3.93,0,0,1,.91-2.58,3.25,3.25,0,0,1,2.62-1.27,3.33,3.33,0,0,1,2.33,1,3.86,3.86,0,0,1,1.2,2.9v.32H57a3.61,3.61,0,0,0,.64,1.74,2.67,2.67,0,0,0,2.23,1.15,3,3,0,0,0,2.53-1.28Zm-.16-2.63a2.83,2.83,0,0,0-.68-1.8,2.77,2.77,0,0,0-2.21-1.09,2.72,2.72,0,0,0-1.65.56A3.15,3.15,0,0,0,57,112.06Z"/><path class="cls-1" d="M73.15,114.13v.14c.09.88.73,1.32,1.91,1.32h.32v.64h-.32a4.36,4.36,0,0,1-.51,0q-2-.21-2-2.07v-5h-1.3v-.64h1.3v-2h.64v2h2.23v.64H73.15Z"/><path class="cls-1" d="M77.28,109.77a3.33,3.33,0,0,1,4.92-.29,3.83,3.83,0,0,1,1.21,2.9,4,4,0,0,1-.93,2.62,3.36,3.36,0,0,1-4.93.29,3.87,3.87,0,0,1-1.2-2.91A4,4,0,0,1,77.28,109.77Zm.38,4.68a2.71,2.71,0,0,0,4,.42,3.23,3.23,0,0,0,1.06-2.49,3.4,3.4,0,0,0-.68-2.07,2.7,2.7,0,0,0-4-.42A3.22,3.22,0,0,0,77,112.38,3.39,3.39,0,0,0,77.66,114.45Z"/><path class="cls-1" d="M93.21,114.13v.14c.09.88.72,1.32,1.91,1.32h.32v.64h-.32a4.36,4.36,0,0,1-.51,0q-2-.21-2-2.07v-5h-1.3v-.64h1.3v-2h.64v2h2.23v.64H93.21Z"/><path class="cls-1" d="M103,114.69a3.61,3.61,0,0,1-3,1.54,3.34,3.34,0,0,1-2.31-.93,3.86,3.86,0,0,1-1.22-2.92,3.94,3.94,0,0,1,.92-2.58,3.23,3.23,0,0,1,2.61-1.27,3.31,3.31,0,0,1,2.33,1,3.86,3.86,0,0,1,1.2,2.9v.32h-6.4a3.71,3.71,0,0,0,.64,1.74,2.68,2.68,0,0,0,2.23,1.15,3.06,3.06,0,0,0,2.54-1.28Zm-.16-2.63a3,3,0,0,0-2.89-2.89,2.76,2.76,0,0,0-1.65.56,3.19,3.19,0,0,0-1.22,2.33Z"/><path class="cls-1" d="M105.39,105H106v11.23h-.64V105Z"/><path class="cls-1" d="M108.49,105h.64v11.23h-.64V105Z"/><path class="cls-1" d="M123,108.74l.08-.21h.69l-.16.43L120.89,116a8.58,8.58,0,0,1-1.25,2.43,2.26,2.26,0,0,1-1.8.77h-.32v-.64h.32a1.7,1.7,0,0,0,1.06-.33,5.65,5.65,0,0,0,1.33-2.34l-2.69-7-.16-.43h.69l.08.21,2.44,6.27Z"/><path class="cls-1" d="M125.83,109.77a3.34,3.34,0,0,1,4.93-.29,3.86,3.86,0,0,1,1.2,2.9A4,4,0,0,1,131,115a3.35,3.35,0,0,1-4.92.29,3.84,3.84,0,0,1-1.21-2.91A4,4,0,0,1,125.83,109.77Zm.39,4.68a2.7,2.7,0,0,0,4,.42,3.19,3.19,0,0,0,1.06-2.49,3.39,3.39,0,0,0-.67-2.07,2.71,2.71,0,0,0-4.05-.42,3.26,3.26,0,0,0-1.06,2.49A3.4,3.4,0,0,0,126.22,114.45Z"/><path class="cls-1" d="M133.58,108.55h.66l0,.32v4.51a2,2,0,0,0,.48,1.31,2.47,2.47,0,0,0,2,.9,2.58,2.58,0,0,0,1.48-.45,2,2,0,0,0,1-1.76v-4.53l0-.3h.66l0,.32v4.51a2.68,2.68,0,0,1-.68,1.78,3.07,3.07,0,0,1-2.42,1.07,3.19,3.19,0,0,1-2-.69,2.65,2.65,0,0,1-1.09-2.16v-4.83Z"/><path class="cls-1" d="M142.71,109.93a3.43,3.43,0,0,1,3-1.4H146v.64h-.32a3.23,3.23,0,0,0-1.59.39,2.84,2.84,0,0,0-1.42,2.68v4H142v-7.7h.65V110Z"/><path class="cls-1" d="M151.86,110.6a1.15,1.15,0,0,0-.32-.77,2.3,2.3,0,0,0-1.75-.66,2.8,2.8,0,0,0-1.16.24,1.33,1.33,0,0,0-.91,1.19.8.8,0,0,0,.05.26c.13.34.66.67,1.6,1,1.16.39,1.78.6,1.86.64,1,.43,1.54,1,1.54,1.67a1.63,1.63,0,0,1-.49,1.14,3.27,3.27,0,0,1-2.49.93,3.73,3.73,0,0,1-2-.51,1.82,1.82,0,0,1-1-1.56h.65a1.19,1.19,0,0,0,.37.79,2.77,2.77,0,0,0,2,.64,3.43,3.43,0,0,0,1.33-.26c.67-.27,1-.66,1-1.17a.56.56,0,0,0,0-.25c-.12-.35-.65-.67-1.58-1l-1.87-.64c-1-.43-1.55-1-1.55-1.69a1.69,1.69,0,0,1,.46-1.15,2.85,2.85,0,0,1,2.25-.92,3.15,3.15,0,0,1,1.73.48,1.86,1.86,0,0,1,1,1.59Z"/><path class="cls-1" d="M160.64,114.69a3.63,3.63,0,0,1-3,1.54,3.3,3.3,0,0,1-2.31-.93,3.82,3.82,0,0,1-1.22-2.92,3.93,3.93,0,0,1,.91-2.58,3.25,3.25,0,0,1,2.62-1.27,3.34,3.34,0,0,1,2.33,1,3.86,3.86,0,0,1,1.2,2.9v.32h-6.4a3.51,3.51,0,0,0,.64,1.74,2.67,2.67,0,0,0,2.23,1.15,3,3,0,0,0,2.53-1.28Zm-.16-2.63a2.83,2.83,0,0,0-.68-1.8,2.79,2.79,0,0,0-2.21-1.09,2.72,2.72,0,0,0-1.65.56,3.15,3.15,0,0,0-1.22,2.33Z"/><path class="cls-1" d="M163,105h.65v11.23H163V105Z"/><path class="cls-1" d="M169,108.53h.32v.64H167.1v7.06h-.64v-7.06h-1.28v-.64h1.3a5.36,5.36,0,0,1,.3-1.6A2.26,2.26,0,0,1,169,105.3h.32V106H169a1.54,1.54,0,0,0-.61.11c-.78.3-1.22,1.12-1.3,2.47Z"/><path class="cls-1" d="M171.27,115.61h.65v.32h0v.32h-.65v-.32h0Z"/><path class="cls-1" d="M188.76,105.32h.33V106h-3.84v10.27h-.64V106h-3.87v-.64h8Z"/><path class="cls-1" d="M191.43,109.67a2.84,2.84,0,0,1,2.31-1.14,2.92,2.92,0,0,1,1.94.74,3.2,3.2,0,0,1,1.11,2.52v4.46h-.62l0-.32v-4.14a2.71,2.71,0,0,0-.5-1.59,2.22,2.22,0,0,0-1.91-1,2.28,2.28,0,0,0-1.46.53,2.59,2.59,0,0,0-.95,2.09v4.44h-.64V106h.64v3.75A.47.47,0,0,1,191.43,109.67Z"/><path class="cls-1" d="M199.64,109.77a3.3,3.3,0,0,1,2.6-1.24,3.64,3.64,0,0,1,.56,0,3.39,3.39,0,0,1,2.33,1.59v-1.64h.64v7.7h-.64V114.6c-.08.12-.18.26-.29.4a3.35,3.35,0,0,1-4.92.29,3.84,3.84,0,0,1-1.21-2.91A4,4,0,0,1,199.64,109.77Zm.39,4.68a2.7,2.7,0,0,0,4,.42,3.19,3.19,0,0,0,1.06-2.49,3.39,3.39,0,0,0-.67-2.07,2.71,2.71,0,0,0-4.05-.42,3.25,3.25,0,0,0-1,2.49A3.39,3.39,0,0,0,200,114.45Z"/><path class="cls-1" d="M209.32,114.13v.14c.09.88.72,1.32,1.91,1.32h.32v.64h-.32a4.36,4.36,0,0,1-.51,0q-2-.21-2-2.07v-5h-1.3v-.64h1.3v-2h.64v2h2.23v.64h-2.23Z"/><path class="cls-1" d="M212.83,105.32h.65v3.19h-.65v-3.19Z"/><path class="cls-1" d="M220.13,110.6a1.1,1.1,0,0,0-.32-.77,2.28,2.28,0,0,0-1.74-.66,2.77,2.77,0,0,0-1.16.24,1.33,1.33,0,0,0-.91,1.19.78.78,0,0,0,0,.26c.13.34.67.67,1.61,1l1.86.64c1,.43,1.54,1,1.54,1.67a1.64,1.64,0,0,1-.5,1.14,3.26,3.26,0,0,1-2.48.93,3.79,3.79,0,0,1-2-.51,1.83,1.83,0,0,1-1-1.56h.64a1.23,1.23,0,0,0,.37.79,2.79,2.79,0,0,0,2,.64,3.43,3.43,0,0,0,1.33-.26c.67-.27,1-.66,1-1.17a.74.74,0,0,0,0-.25c-.13-.35-.66-.67-1.59-1l-1.86-.64c-1-.43-1.56-1-1.56-1.69a1.7,1.7,0,0,1,.47-1.15,2.82,2.82,0,0,1,2.25-.92,3.17,3.17,0,0,1,1.73.48,1.86,1.86,0,0,1,1,1.59Z"/><path class="cls-1" d="M235.81,114.69a3.61,3.61,0,0,1-3.05,1.54,3.34,3.34,0,0,1-2.31-.93,3.86,3.86,0,0,1-1.22-2.92,3.94,3.94,0,0,1,.92-2.58,3.22,3.22,0,0,1,2.61-1.27,3.31,3.31,0,0,1,2.33,1,3.86,3.86,0,0,1,1.2,2.9v.32h-6.4a3.71,3.71,0,0,0,.64,1.74,2.67,2.67,0,0,0,2.23,1.15,3.06,3.06,0,0,0,2.54-1.28Zm-.16-2.63a3,3,0,0,0-2.89-2.89,2.72,2.72,0,0,0-1.65.56,3.19,3.19,0,0,0-1.22,2.33Z"/><path class="cls-1" d="M244.33,116.25h-.62l0-.32,0-4.14a2.7,2.7,0,0,0-.49-1.59,2.22,2.22,0,0,0-1.91-1,2.28,2.28,0,0,0-1.46.53,2.59,2.59,0,0,0-.95,2.09v4.44h-.64v-7.7h.64v1.25a.47.47,0,0,1,.1-.11,2.84,2.84,0,0,1,2.31-1.14,2.94,2.94,0,0,1,1.94.74,3.2,3.2,0,0,1,1.11,2.52v4.46Z"/><path class="cls-1" d="M247.17,109.77a3.34,3.34,0,0,1,4.93-.29,3.86,3.86,0,0,1,1.2,2.9,4,4,0,0,1-.93,2.62,3.35,3.35,0,0,1-4.92.29,3.84,3.84,0,0,1-1.21-2.91A4,4,0,0,1,247.17,109.77Zm.39,4.68a2.7,2.7,0,0,0,4,.42,3.19,3.19,0,0,0,1.06-2.49,3.39,3.39,0,0,0-.67-2.07,2.71,2.71,0,0,0-4.05-.42,3.26,3.26,0,0,0-1.06,2.49A3.4,3.4,0,0,0,247.56,114.45Z"/><path class="cls-1" d="M254.92,108.55h.66l0,.32v4.51a2,2,0,0,0,.48,1.31,2.47,2.47,0,0,0,2,.9,2.58,2.58,0,0,0,1.48-.45,2,2,0,0,0,1-1.76v-4.53l0-.3h.66l0,.32v4.51a2.68,2.68,0,0,1-.68,1.78,3.07,3.07,0,0,1-2.42,1.07,3.19,3.19,0,0,1-2-.69,2.65,2.65,0,0,1-1.09-2.16v-4.83Z"/><path class="cls-1" d="M263.65,109.77a3.28,3.28,0,0,1,2.6-1.24,3.64,3.64,0,0,1,.56,0,3.39,3.39,0,0,1,2.33,1.59v-1.62h.67v.32l0,7a3.15,3.15,0,0,1-.77,2,3.41,3.41,0,0,1-2.74,1.35H266v-.64h.32a2.87,2.87,0,0,0,2-.87,2.52,2.52,0,0,0,.84-1.8V114.6c-.09.12-.18.26-.29.4a3.36,3.36,0,0,1-4.93.29,3.87,3.87,0,0,1-1.2-2.91A4,4,0,0,1,263.65,109.77Zm.39,4.68a2.7,2.7,0,0,0,4,.42,3.19,3.19,0,0,0,1.06-2.49,3.39,3.39,0,0,0-.67-2.07,2.71,2.71,0,0,0-4.05-.42,3.26,3.26,0,0,0-1.06,2.49A3.4,3.4,0,0,0,264,114.45Z"/><path class="cls-1" d="M273.09,109.67a2.84,2.84,0,0,1,2.31-1.14,2.94,2.94,0,0,1,1.94.74,3.2,3.2,0,0,1,1.11,2.52v4.46h-.62l0-.32,0-4.14a2.7,2.7,0,0,0-.49-1.59,2.22,2.22,0,0,0-1.91-1,2.28,2.28,0,0,0-1.46.53,2.59,2.59,0,0,0-.95,2.09v4.44h-.64V106H273v3.75A.47.47,0,0,1,273.09,109.67Z"/><path class="cls-1" d="M281.33,115.61H282v.32h0v.32h-.65v-.32h0Z"/></g></g></svg>