<svg xmlns="http://www.w3.org/2000/svg" viewBox="0 0 1798.14 1"><g id="레이어_2" data-name="레이어 2"><g id="Layer_1" data-name="Layer 1"><rect width="6" height="1"/><path d="M1780.15,1h-12V0h12Zm-24,0h-12V0h12Zm-24,0h-12V0h12Zm-24,0h-12V0h12Zm-24,0h-12V0h12Zm-24,0h-12V0h12Zm-24,0h-12V0h12Zm-24,0h-12V0h12Zm-24,0h-12V0h12Zm-24,0h-12V0h12Zm-24,0h-12V0h12Zm-24,0h-12V0h12Zm-24,0h-12V0h12Zm-24,0h-12V0h12Zm-24,0h-12V0h12Zm-24,0h-12V0h12Zm-24,0h-12V0h12Zm-24,0h-12V0h12Zm-24,0h-12V0h12Zm-24,0h-12V0h12Zm-24,0h-12V0h12Zm-24,0h-12V0h12Zm-24,0h-12V0h12Zm-24,0h-12V0h12Zm-24,0h-12V0h12Zm-24,0h-12V0h12Zm-24,0h-12V0h12Zm-24,0h-12V0h12Zm-24,0h-12V0h12Zm-24,0h-12V0h12Zm-24,0h-12V0h12Zm-24,0h-12V0h12Zm-24,0h-12V0h12ZM989,1H977V0h12ZM965,1H953V0h12ZM941,1H929V0h12Zm-24,0h-12V0h12Zm-24,0h-12V0h12Zm-24,0h-12V0h12Zm-24,0h-12V0h12Zm-24,0h-12V0h12Zm-24,0h-12V0h12Zm-24,0h-12V0h12Zm-24,0h-12V0h12Zm-24,0h-12V0h12Zm-24,0h-12V0h12Zm-24,0h-12V0h12Zm-24,0h-12V0h12Zm-24,0h-12V0h12Zm-24,0h-12V0h12Zm-24,0h-12V0h12Zm-24,0h-12V0h12Zm-24,0h-12V0h12Zm-24,0h-12V0h12Zm-24,0h-12V0h12Zm-24,0h-12V0h12Zm-24,0h-12V0h12Zm-24,0h-12V0h12Zm-24,0h-12V0h12Zm-24,0h-12V0h12Zm-24,0h-12V0h12Zm-24,0h-12V0h12Zm-24,0h-12V0h12Zm-24,0h-12V0h12Zm-24,0h-12V0h12Zm-24,0h-12V0h12Zm-24,0h-12V0h12Zm-24,0h-12V0h12Zm-24,0h-12V0h12Zm-24,0h-12V0h12Zm-24,0h-12V0h12Zm-24,0h-12V0h12ZM54,1H42V0H54ZM30,1H18V0H30Z"/><rect x="1792.14" width="6" height="1"/></g></g></svg>