<svg xmlns="http://www.w3.org/2000/svg" viewBox="0 0 56.9 14.17"><defs><style>.cls-1{fill:#fff;}</style></defs><g id="레이어_2" data-name="레이어 2"><g id="레이어_2-2" data-name="레이어 2"><rect width="56.9" height="14.17"/><path class="cls-1" d="M6.26,2.69v1H1.46V6.3H5v1H1.46V9.89h4.8v1H.5V2.69H6.26Z"/><path class="cls-1" d="M12.17,10.09l.57.76h-1.2l-.14-.19-1.54-2-1.53,2-.15.19H7l.58-.76,1.7-2.27-1.47-2-.58-.77h1.2l.15.2L9.86,7l1.31-1.74.15-.2h1.2l-.58.77-1.48,2Z"/><path class="cls-1" d="M13.7,5.57V5.09h1v.67a2.42,2.42,0,0,1,1.7-.67,2.46,2.46,0,0,1,1.7.7A2.86,2.86,0,0,1,19,8a2.87,2.87,0,0,1-.71,2,2.41,2.41,0,0,1-1.93.92,2.48,2.48,0,0,1-1.68-.66v3.14h-1V8h0ZM15,9.14a1.54,1.54,0,0,0,1.33.75,1.48,1.48,0,0,0,1-.38A1.93,1.93,0,0,0,18,8a2,2,0,0,0-.35-1.16,1.52,1.52,0,0,0-1.31-.76,1.55,1.55,0,0,0-1,.38A2,2,0,0,0,14.66,8,2.09,2.09,0,0,0,15,9.14Z"/><path class="cls-1" d="M24.82,9.73a2.66,2.66,0,0,1-2.24,1.12,2.48,2.48,0,0,1-1.72-.69A2.87,2.87,0,0,1,19.94,8,2.94,2.94,0,0,1,20.63,6a2.48,2.48,0,0,1,3.67-.24A2.83,2.83,0,0,1,25.22,8v.48H21a2.15,2.15,0,0,0,.29.68,1.54,1.54,0,0,0,1.34.76,1.77,1.77,0,0,0,1.47-.74Zm-.56-2.24a1.21,1.21,0,0,0-.32-.75,1.71,1.71,0,0,0-1.36-.69,1.46,1.46,0,0,0-.7.18A1.81,1.81,0,0,0,21,7.49Z"/><path class="cls-1" d="M29.16,5.09h.48v1h-.48a1.45,1.45,0,0,0-.72.18,1.77,1.77,0,0,0-.82,1.67v2.95h-1V5.09h1V5.6A2.52,2.52,0,0,1,29.16,5.09Z"/><path class="cls-1" d="M30.54,4.36v-1h1v1h-1Zm0,.73h1v5.76h-1V5.09Z"/><path class="cls-1" d="M37.51,9.73a2.64,2.64,0,0,1-2.23,1.12,2.5,2.5,0,0,1-1.73-.69A2.86,2.86,0,0,1,32.64,8,3,3,0,0,1,33.32,6a2.49,2.49,0,0,1,2-.94,2.43,2.43,0,0,1,1.71.7A2.84,2.84,0,0,1,37.92,8v.48H33.65a1.94,1.94,0,0,0,.29.68,1.52,1.52,0,0,0,1.34.76,1.75,1.75,0,0,0,1.46-.74ZM37,7.49a1.23,1.23,0,0,0-.33-.75,1.68,1.68,0,0,0-1.35-.69,1.47,1.47,0,0,0-.71.18,1.77,1.77,0,0,0-.92,1.26Z"/><path class="cls-1" d="M43.93,10.87H43V7.58a1.77,1.77,0,0,0-.23-.87,1.22,1.22,0,0,0-1.09-.66,1.15,1.15,0,0,0-.74.27,1.49,1.49,0,0,0-.58,1.26v3.27h-1V5.09h1v.46a2.25,2.25,0,0,1,1.32-.46,2.12,2.12,0,0,1,1.43.56,2.4,2.4,0,0,1,.85,1.93v3.29Z"/><path class="cls-1" d="M50.06,9.75a2.45,2.45,0,0,1-2.12,1.1,2.35,2.35,0,0,1-1.67-.68A2.87,2.87,0,0,1,45.36,8,3,3,0,0,1,46,6a2.38,2.38,0,0,1,1.9-.93,2.49,2.49,0,0,1,2.13,1l-.79.55a1.54,1.54,0,0,0-1.34-.63,1.38,1.38,0,0,0-1,.39A1.9,1.9,0,0,0,46.32,8a2.12,2.12,0,0,0,.31,1.14,1.48,1.48,0,0,0,1.31.78,1.68,1.68,0,0,0,1.35-.69Z"/><path class="cls-1" d="M56,9.73a2.64,2.64,0,0,1-2.23,1.12A2.5,2.5,0,0,1,52,10.16,2.86,2.86,0,0,1,51.12,8,3,3,0,0,1,51.8,6a2.49,2.49,0,0,1,3.68-.24A2.86,2.86,0,0,1,56.4,8v.48H52.13a1.94,1.94,0,0,0,.29.68,1.52,1.52,0,0,0,1.34.76,1.75,1.75,0,0,0,1.46-.74Zm-.55-2.24a1.23,1.23,0,0,0-.33-.75,1.68,1.68,0,0,0-1.35-.69,1.47,1.47,0,0,0-.71.18,1.77,1.77,0,0,0-.92,1.26Z"/></g></g></svg>