<svg xmlns="http://www.w3.org/2000/svg" viewBox="0 0 467.39 211.12"><defs><style>.cls-1{fill:#fff;}</style></defs><g id="레이어_2" data-name="레이어 2"><g id="레이어_1-2" data-name="레이어 1"><path class="cls-1" d="M36.6,81.6v4.8H27V47.16L4.68,12.24,0,4.8H11.4L12.84,7l19,29.64L50.28,7.08,51.72,4.8H63l-4.56,7.32L36.6,46.92Z"/><path class="cls-1" d="M75.84,38q7.8-9.24,19.32-9.24a24.37,24.37,0,0,1,17.16,7q9.24,8.52,9.24,21.84a29.14,29.14,0,0,1-7.08,19.56q-7.8,9.24-19.32,9.24a24.37,24.37,0,0,1-17.16-7q-9.24-8.52-9.24-21.84A29.14,29.14,0,0,1,75.84,38Zm6,31.2q5,7.56,13.32,7.56A15,15,0,0,0,105.24,73,19.44,19.44,0,0,0,112,57.6,20.71,20.71,0,0,0,108.48,46q-5-7.56-13.32-7.56a15,15,0,0,0-10.08,3.84A19.44,19.44,0,0,0,78.36,57.6,20.71,20.71,0,0,0,81.84,69.24Z"/><path class="cls-1" d="M133.68,28.92h9.72l-.12,4.8-.12,30.72a11.34,11.34,0,0,0,2.28,6.84,13.56,13.56,0,0,0,11.4,5.52,14.47,14.47,0,0,0,7.44-2Q170.4,71,170.4,64.44V33.6l.12-4.68h9.72l-.12,4.8L180,64.44a20.68,20.68,0,0,1-5,13.68q-6.84,8.28-18.12,8.28a23.39,23.39,0,0,1-15-5.16,20.57,20.57,0,0,1-8.28-16.8V33.6Z"/><path class="cls-1" d="M207.24,69.48q.12,7.08,8.76,7.32h4.8v9.6H216a27.12,27.12,0,0,1-6.36-.72q-12-2.76-12-16.08V38.4h-8V28.8h8V16.2l.12-4.68h9.72l-.12,4.8V28.8H220.8v9.6H207.36Z"/><path class="cls-1" d="M230.52,28.92h9.72l-.12,4.8L240,64.44a11.28,11.28,0,0,0,2.28,6.84,13.55,13.55,0,0,0,11.4,5.52,14.5,14.5,0,0,0,7.44-2q6.12-3.72,6.12-10.32V33.6l.12-4.68h9.72l-.12,4.8-.13,30.72a20.63,20.63,0,0,1-5,13.68Q265,86.4,253.68,86.4a23.37,23.37,0,0,1-15-5.16,20.57,20.57,0,0,1-8.28-16.8V33.6Z"/><path class="cls-1" d="M293.63,4.8V0h9.6V35.4A25.12,25.12,0,0,1,320,28.8a24.37,24.37,0,0,1,17.16,7q9.24,8.52,9.24,21.84a29.14,29.14,0,0,1-7.08,19.56Q331.55,86.4,320,86.4a24.65,24.65,0,0,1-16.8-6.6v6.6h-9.6V4.8Zm13,64.44q5,7.56,13.44,7.56A15,15,0,0,0,330.11,73a19.44,19.44,0,0,0,6.72-15.36A20.71,20.71,0,0,0,333.35,46q-5-7.56-13.32-7.56A15.29,15.29,0,0,0,310,42.24q-6.72,5.88-6.72,15.48A20.66,20.66,0,0,0,306.59,69.24Z"/><path class="cls-1" d="M404.75,75.12q-8.4,11.28-22.32,11.28a24.79,24.79,0,0,1-17.28-7Q356,70.92,356,57.6a29.59,29.59,0,0,1,6.84-19.44q7.92-9.36,19.56-9.36a24.37,24.37,0,0,1,17.16,7q9.24,8.52,9.24,21.84v4.8H366.11A20.85,20.85,0,0,0,369,69.12q5,7.68,13.44,7.68,8.88,0,14.64-7.44ZM399.23,52.8q0-3.48-3.24-7.56-5.64-6.84-13.56-6.84a14.78,14.78,0,0,0-7.08,1.8q-7.2,3.72-9.24,12.6Z"/><path class="cls-1" d="M49.8,127.6a11.06,11.06,0,0,0-3-7.56q-5.16-5.64-14-5.64A20.57,20.57,0,0,0,23,116.8q-7.32,3.84-7.32,10.8a6.09,6.09,0,0,0,.6,2.52q2,4,13.56,8.4,14.28,5.64,17.16,7,14.52,7.32,14.52,18.12-.12,7.68-6.48,14.16-8.76,8.64-22.32,8.64a32.14,32.14,0,0,1-20.28-6.6Q4,173,4,163.6h9.6a11.14,11.14,0,0,0,3.6,7.68q5.88,5.52,15.6,5.52a25.14,25.14,0,0,0,11.4-2.64q7.8-4,7.8-10.56a5.47,5.47,0,0,0-.72-2.64q-2-4.08-13.68-8.64-14.16-5.52-16.92-6.84Q6.12,138.28,6.12,127.6a20.6,20.6,0,0,1,5.76-14.16q7.92-8.64,20.88-8.64a28.39,28.39,0,0,1,18,6q8.64,6.84,8.64,16.8Z"/><path class="cls-1" d="M86.4,169.48q.12,7.08,8.76,7.32H100v9.6h-4.8a27.18,27.18,0,0,1-6.36-.72q-12-2.76-12-16.08V138.4h-8v-9.6h8V116.2l.12-4.68h9.72l-.12,4.8V128.8H100v9.6H86.52Z"/><path class="cls-1" d="M109.68,128.92h9.72l-.12,4.8-.12,30.72a11.34,11.34,0,0,0,2.28,6.84,13.56,13.56,0,0,0,11.4,5.52,14.47,14.47,0,0,0,7.44-2q6.12-3.72,6.12-10.32V133.6l.12-4.68h9.72l-.12,4.8L156,164.44a20.68,20.68,0,0,1-5,13.68q-6.84,8.28-18.12,8.28a23.39,23.39,0,0,1-15-5.16,20.57,20.57,0,0,1-8.28-16.8V133.6Z"/><path class="cls-1" d="M175.08,138q7.8-9.24,19.32-9.24a24.65,24.65,0,0,1,16.8,6.6V100h9.6v86.4h-9.6v-6.6a25.12,25.12,0,0,1-16.8,6.6,24.37,24.37,0,0,1-17.16-7Q168,170.92,168,157.6A29.14,29.14,0,0,1,175.08,138Zm6,31.2q5,7.56,13.32,7.56A15,15,0,0,0,204.48,173a19.44,19.44,0,0,0,6.72-15.36A20.71,20.71,0,0,0,207.72,146q-5-7.56-13.32-7.56a15,15,0,0,0-10.08,3.84,19.44,19.44,0,0,0-6.72,15.36A20.71,20.71,0,0,0,181.08,169.24Z"/><path class="cls-1" d="M270.24,128.8h10.32L278,135.28l-17.76,47.88q-4.92,16.32-10.08,22.56-4.56,5.4-12.6,5.4h-4.8v-9.6h4.8a7.62,7.62,0,0,0,6.12-2.88q2.88-3.36,7-16.92l-17.52-46.44-2.52-6.48H241l1.08,3.12,13.68,36,13.44-36Z"/><path class="cls-1" d="M288,161.56V152h31.2v9.6H288Z"/><path class="cls-1" d="M333.59,100h9.61v86.4h-9.61V100Z"/><path class="cls-1" d="M359,138q7.8-9.24,19.32-9.24a24.37,24.37,0,0,1,17.16,7q9.24,8.52,9.24,21.84a29.14,29.14,0,0,1-7.08,19.56q-7.8,9.24-19.32,9.24a24.37,24.37,0,0,1-17.16-7q-9.24-8.52-9.24-21.84A29.14,29.14,0,0,1,359,138Zm6,31.2q5,7.56,13.32,7.56A15,15,0,0,0,388.43,173a19.44,19.44,0,0,0,6.72-15.36A20.71,20.71,0,0,0,391.67,146q-5-7.56-13.32-7.56a15,15,0,0,0-10.08,3.84,19.44,19.44,0,0,0-6.72,15.36A20.71,20.71,0,0,0,365,169.24Z"/><path class="cls-1" d="M421.43,138q7.8-9.24,19.32-9.24a24.65,24.65,0,0,1,16.8,6.6v-1.8l.12-4.68h9.72l-.12,4.8-.12,47.88a28,28,0,0,1-1.2,7.92,33.18,33.18,0,0,1-3.54,7.92,35.47,35.47,0,0,1-5.46,6.9,24.53,24.53,0,0,1-7.32,4.92,21.41,21.41,0,0,1-8.76,1.86h-4.8v-9.6h4.8q6.48-.12,11.4-5.88a21.17,21.17,0,0,0,5.28-14v-1.8a25.12,25.12,0,0,1-16.8,6.6,24.37,24.37,0,0,1-17.16-7q-9.24-8.52-9.24-21.84A29.14,29.14,0,0,1,421.43,138Zm6,31.2q5,7.56,13.32,7.56A15,15,0,0,0,450.83,173a19.44,19.44,0,0,0,6.72-15.36A20.71,20.71,0,0,0,454.07,146q-5-7.56-13.32-7.56a15,15,0,0,0-10.08,3.84A19.44,19.44,0,0,0,424,157.6,20.71,20.71,0,0,0,427.43,169.24Z"/></g></g></svg>