<svg xmlns="http://www.w3.org/2000/svg" viewBox="0 0 144.8 31.05"><defs><style>.cls-1{fill:#0d1320;}</style></defs><g id="레이어_2" data-name="레이어 2"><g id="레이어_1-2" data-name="레이어 1"><path class="cls-1" d="M0,7.05H4.3L4.8,8.3,11,23.65,17.1,8.3l.5-1.25h4.3L20.8,9.8l-8,20-.5,1.25H9.65l-.5-1.25-8-20Z"/><path class="cls-1" d="M26.2,4V0h4.05V4H26.2Zm0,3.05h4v24h-4v-24Z"/><path class="cls-1" d="M55.25,26.35a11,11,0,0,1-9.3,4.7,10.35,10.35,0,0,1-7.2-2.9,11.92,11.92,0,0,1-3.8-9.1A12.33,12.33,0,0,1,37.8,11a10.37,10.37,0,0,1,15.3-1A11.82,11.82,0,0,1,57,19.05v2H39.15a8.57,8.57,0,0,0,1.2,2.8,6.43,6.43,0,0,0,5.6,3.2,7.39,7.39,0,0,0,6.1-3.1ZM53,17.05A5.21,5.21,0,0,0,51.6,13.9,7.11,7.11,0,0,0,46,11.05a6.16,6.16,0,0,0-3,.75,7.42,7.42,0,0,0-3.85,5.25Z"/><path class="cls-1" d="M60.3,7.05h4.15L64.9,8.5,69,23,75.1,8.3l.5-1.25h2.7l.5,1.25L85,23,89,8.5l.45-1.45H93.6L92.9,9.6l-5.6,20-.45,1.45H84l-.5-1.25L77,14.2,70.4,29.8l-.5,1.25H67.05L66.6,29.6,61,9.6Z"/><polygon class="cls-1" points="144.8 19.21 114.6 19.21 114.6 18.21 142.1 18.21 135.28 12.37 135.93 11.61 144.8 19.21"/></g></g></svg>