<svg xmlns="http://www.w3.org/2000/svg" viewBox="0 0 458.52 184.12"><defs><style>.cls-1{fill:#fff;}</style></defs><g id="레이어_2" data-name="레이어 2"><g id="레이어_1-2" data-name="레이어 1"><path class="cls-1" d="M9.6,28.2H0V23.4A21.86,21.86,0,0,1,5.64,8.64Q13.2,0,25.32,0a26.1,26.1,0,0,1,16.8,5.76q8.52,7.08,8.52,17.64,0,9.6-7.44,18.6-5,6.12-18.24,15.72-4.32,3.12-6.24,4.68Q9.6,69.48,9.6,74.52h41v9.6H0v-4.8q0-8.4,6.24-16.68Q10.68,57,22.68,47.28q5.4-4.44,7.92-6.6Q41,31.2,41,23.4a12.39,12.39,0,0,0-2.88-7.92Q33.48,9.6,25.32,9.6a17.85,17.85,0,0,0-9,2.4Q9.6,16.08,9.6,23.4Z"/><path class="cls-1" d="M68.88,10.56Q76.2,0,85.8,0q8.4.12,15.48,8.88,9.6,12.48,9.6,33.12,0,19.2-8.52,31.68Q95.16,84.12,85.8,84.12,77.16,84,70.08,75.24,60.24,62.88,60.24,42,60.24,22.92,68.88,10.56ZM73.32,62.4Q78,74.52,85.8,74.52q5.64,0,9.72-7,5.76-9.84,5.76-25.56A57.2,57.2,0,0,0,97.8,21.48Q93.24,9.6,85.8,9.6q-5.76.12-10.08,7Q69.84,26.4,69.84,42A56.84,56.84,0,0,0,73.32,62.4Z"/><path class="cls-1" d="M130.08,28.2h-9.6V23.4a21.86,21.86,0,0,1,5.64-14.76Q133.68,0,145.8,0a26.1,26.1,0,0,1,16.8,5.76q8.52,7.08,8.52,17.64,0,9.6-7.44,18.6-5,6.12-18.24,15.72-4.32,3.12-6.24,4.68-9.12,7.08-9.12,12.12h41v9.6H120.48v-4.8q0-8.4,6.24-16.68,4.44-5.64,16.44-15.36,5.4-4.44,7.92-6.6,10.44-9.48,10.44-17.28a12.39,12.39,0,0,0-2.88-7.92Q154,9.6,145.8,9.6a17.85,17.85,0,0,0-9,2.4q-6.72,4.08-6.72,11.4Z"/><path class="cls-1" d="M186.36,46.8H176l2.64-6.6L193.56,3.12l1.2-3h8v84h-9.6V29.76l-5.64,14Z"/><path class="cls-1" d="M66.6,166.72a32.62,32.62,0,0,1-7,8.16Q48.84,184,35.88,184q-14.4-.12-24.84-11.4-11-12-11-29.4t11.16-29.52Q21.48,102.4,35.88,102.4a35.38,35.38,0,0,1,16,4Q62.16,111.64,66.48,120l-8.64,4.32a19.91,19.91,0,0,0-4.44-5.64A25.86,25.86,0,0,0,35.88,112q-10.08.12-17.64,8Q9.6,129.4,9.6,143.2a34.06,34.06,0,0,0,6.84,21q7.8,10.2,19.44,10.2a25.52,25.52,0,0,0,9.84-2q8.64-3.6,12.48-10.44Z"/><path class="cls-1" d="M83.88,135.64q7.8-9.24,19.32-9.24A24.65,24.65,0,0,1,120,133v-6.6h9.6V184H120v-6.6a25.12,25.12,0,0,1-16.8,6.6A24.37,24.37,0,0,1,86,177q-9.24-8.52-9.24-21.84A29.14,29.14,0,0,1,83.88,135.64Zm6,31.2q5,7.56,13.32,7.56a15,15,0,0,0,10.08-3.84A19.44,19.44,0,0,0,120,155.2a20.71,20.71,0,0,0-3.48-11.64q-5-7.56-13.32-7.56a15,15,0,0,0-10.08,3.84A19.44,19.44,0,0,0,86.4,155.2,20.71,20.71,0,0,0,89.88,166.84Z"/><path class="cls-1" d="M148.8,97.6h9.6V184h-9.6V97.6Z"/><path class="cls-1" d="M215.88,172.72Q207.48,184,193.56,184a24.79,24.79,0,0,1-17.28-7q-9.12-8.52-9.12-21.84A29.59,29.59,0,0,1,174,135.76q7.92-9.36,19.56-9.36a24.37,24.37,0,0,1,17.16,7Q220,141.88,220,155.2V160H177.24a20.85,20.85,0,0,0,2.88,6.72q5,7.68,13.44,7.68,8.88,0,14.64-7.44Zm-5.52-22.32q0-3.48-3.24-7.56Q201.48,136,193.56,136a14.78,14.78,0,0,0-7.08,1.8q-7.2,3.72-9.24,12.6Z"/><path class="cls-1" d="M280.08,184.12H270.6l-.12-4.8-.12-28.08a17,17,0,0,0-2.28-8.64q-4-6.6-10.92-6.6a11.76,11.76,0,0,0-7.44,2.64Q244,143.2,244,151.24V184h-9.6V126.4H244V131a22,22,0,0,1,13.2-4.56,20.94,20.94,0,0,1,14.28,5.52q8.52,7.32,8.52,19.32v28Z"/><path class="cls-1" d="M301.44,135.64q7.8-9.24,19.32-9.24a24.65,24.65,0,0,1,16.8,6.6V97.6h9.6V184h-9.6v-6.6a25.12,25.12,0,0,1-16.8,6.6,24.37,24.37,0,0,1-17.16-7q-9.24-8.52-9.24-21.84A29.14,29.14,0,0,1,301.44,135.64Zm6,31.2q5,7.56,13.32,7.56a15,15,0,0,0,10.08-3.84,19.44,19.44,0,0,0,6.72-15.36,20.71,20.71,0,0,0-3.48-11.64Q329,136,320.76,136a15,15,0,0,0-10.08,3.84A19.44,19.44,0,0,0,304,155.2,20.71,20.71,0,0,0,307.44,166.84Z"/><path class="cls-1" d="M410.28,172.72Q401.88,184,388,184a24.79,24.79,0,0,1-17.28-7q-9.12-8.52-9.12-21.84a29.59,29.59,0,0,1,6.84-19.44q7.92-9.36,19.56-9.36a24.37,24.37,0,0,1,17.16,7q9.24,8.52,9.24,21.84V160H371.64a20.85,20.85,0,0,0,2.88,6.72q5,7.68,13.44,7.68,8.88,0,14.64-7.44Zm-5.52-22.32q0-3.48-3.24-7.56Q395.88,136,388,136a14.78,14.78,0,0,0-7.08,1.8q-7.2,3.72-9.24,12.6Z"/><path class="cls-1" d="M453.71,126.4h4.81V136h-4.81a14.53,14.53,0,0,0-7.19,1.8q-8.06,4.44-8.16,16.68V184h-9.61V126.4h9.61v5A24.87,24.87,0,0,1,453.71,126.4Z"/></g></g></svg>