<svg xmlns="http://www.w3.org/2000/svg" viewBox="0 0 348.96 206.32"><defs><style>.cls-1{fill:#fff;}</style></defs><g id="레이어_2" data-name="레이어 2"><g id="레이어_1-2" data-name="레이어 1"><path class="cls-1" d="M9.6,81.6V0H41.28Q54.6,1.32,63.6,12.36,73.44,24.48,72,40.8a39.29,39.29,0,0,1-8,28.08Q54.84,80.4,41.28,81.6H9.6Zm31-9.6q9-.84,15.24-8.52Q63.48,54,62.4,40.8v-.36a31.69,31.69,0,0,0-4.8-19.92q-6.36-10-17-10.92H19.2V72Z"/><path class="cls-1" d="M132.72,70.32Q124.32,81.6,110.4,81.6a24.79,24.79,0,0,1-17.28-7Q84,66.12,84,52.8a29.59,29.59,0,0,1,6.84-19.44Q98.76,24,110.4,24a24.37,24.37,0,0,1,17.16,7q9.24,8.52,9.24,21.84v4.8H94.08A20.85,20.85,0,0,0,97,64.32Q102,72,110.4,72q8.88,0,14.64-7.44ZM127.2,48q0-3.48-3.24-7.56-5.64-6.84-13.56-6.84a14.78,14.78,0,0,0-7.08,1.8q-7.2,3.72-9.24,12.6Z"/><path class="cls-1" d="M179.64,40.68a5.11,5.11,0,0,0-1.32-3.36q-3-3.72-9.6-3.72a17,17,0,0,0-4.92.72q-6,1.92-6,6.36a3.19,3.19,0,0,0,.72,1.92q1.68,2,11,4.92,6,1.8,8.88,3,12.72,5.16,12.6,14.4a14.05,14.05,0,0,1-3.6,9.12Q181,81.6,168.72,81.6a26.59,26.59,0,0,1-15-4.2q-7.32-5-7.32-12.48H156a4.88,4.88,0,0,0,1.44,3.36Q160.8,72,168.72,72a21.79,21.79,0,0,0,5.52-.72q7.2-1.8,7.2-6.36a3.43,3.43,0,0,0-.6-1.8q-1.68-2-10.92-4.8-5.88-1.8-8.88-3-12.72-5.16-12.84-14.64a14.8,14.8,0,0,1,3.6-9.48q6-7.2,16.92-7.2A22.94,22.94,0,0,1,182,28q7.2,5,7.2,12.72Z"/><path class="cls-1" d="M203.64,16.68V7.08h9.72v9.6h-9.72Zm0,7.32h9.6V81.6h-9.6V24Z"/><path class="cls-1" d="M231.72,33.24Q239.52,24,251,24a24.65,24.65,0,0,1,16.8,6.6V28.8l.12-4.68h9.72l-.12,4.8-.12,47.88a28,28,0,0,1-1.2,7.92,33.18,33.18,0,0,1-3.54,7.92,35.47,35.47,0,0,1-5.46,6.9,24.53,24.53,0,0,1-7.32,4.92,21.41,21.41,0,0,1-8.76,1.86h-4.8v-9.6h4.8q6.48-.12,11.4-5.88a21.17,21.17,0,0,0,5.28-14V75A25.12,25.12,0,0,1,251,81.6a24.37,24.37,0,0,1-17.16-7q-9.24-8.52-9.24-21.84A29.14,29.14,0,0,1,231.72,33.24Zm6,31.2Q242.76,72,251,72a15,15,0,0,0,10.08-3.84,19.44,19.44,0,0,0,6.72-15.36,20.71,20.71,0,0,0-3.48-11.64q-5-7.56-13.32-7.56A15,15,0,0,0,241,37.44a19.44,19.44,0,0,0-6.72,15.36A20.71,20.71,0,0,0,237.72,64.44Z"/><path class="cls-1" d="M342.36,81.72h-9.48l-.12-4.8-.12-28.08a17,17,0,0,0-2.28-8.64q-4-6.6-10.92-6.6A11.76,11.76,0,0,0,312,36.24q-5.76,4.56-5.76,12.6V81.6h-9.6V24h9.6v4.56A22,22,0,0,1,319.44,24a21,21,0,0,1,14.28,5.52q8.52,7.32,8.52,19.32v28Z"/><path class="cls-1" d="M57.6,100h4.8v9.6H36.12v72h-9.6v-72H0V100H57.6Z"/><path class="cls-1" d="M69.6,156.76v-9.6h31.2v9.6H69.6Z"/><path class="cls-1" d="M143.64,140.68a5.11,5.11,0,0,0-1.32-3.36q-3-3.72-9.6-3.72a17,17,0,0,0-4.92.72q-6,1.92-6,6.36a3.19,3.19,0,0,0,.72,1.92q1.68,2,11,4.92,6,1.8,8.88,3,12.72,5.16,12.6,14.4a14.05,14.05,0,0,1-3.6,9.12q-6.48,7.56-18.72,7.56a26.59,26.59,0,0,1-15-4.2q-7.32-5-7.32-12.48H120a4.88,4.88,0,0,0,1.44,3.36Q124.8,172,132.72,172a21.79,21.79,0,0,0,5.52-.72q7.2-1.8,7.2-6.36a3.43,3.43,0,0,0-.6-1.8q-1.68-2-10.92-4.8-5.88-1.8-8.88-3-12.72-5.16-12.84-14.64a14.8,14.8,0,0,1,3.6-9.48q6-7.2,16.92-7.2A22.94,22.94,0,0,1,146,128q7.2,5,7.2,12.72Z"/><path class="cls-1" d="M179.88,164.68q.12,7.08,8.76,7.32h4.8v9.6h-4.8a27.18,27.18,0,0,1-6.36-.72q-12-2.76-12-16.08V133.6h-8V124h8V111.4l.12-4.68h9.72l-.12,4.8V124h13.44v9.6H180Z"/><path class="cls-1" d="M207.72,133.24Q215.52,124,227,124a24.37,24.37,0,0,1,17.16,7q9.24,8.52,9.24,21.84a29.14,29.14,0,0,1-7.08,19.56q-7.8,9.24-19.32,9.24a24.37,24.37,0,0,1-17.16-7q-9.24-8.52-9.24-21.84A29.14,29.14,0,0,1,207.72,133.24Zm6,31.2q5,7.56,13.32,7.56a15,15,0,0,0,10.08-3.84,19.44,19.44,0,0,0,6.72-15.36,20.71,20.71,0,0,0-3.48-11.64q-5-7.56-13.32-7.56A15,15,0,0,0,217,137.44a19.44,19.44,0,0,0-6.72,15.36A20.71,20.71,0,0,0,213.72,164.44Z"/><path class="cls-1" d="M292.79,124h4.81v9.6h-4.81a14.53,14.53,0,0,0-7.19,1.8q-8.06,4.44-8.16,16.68V181.6h-9.61V124h9.61v5A24.87,24.87,0,0,1,292.79,124Z"/><path class="cls-1" d="M338.63,124H349l-2.53,6.48-17.76,47.88q-4.92,16.32-10.08,22.56-4.56,5.4-12.59,5.4h-4.8v-9.6H306a7.64,7.64,0,0,0,6.12-2.88q2.88-3.36,7-16.92l-17.53-46.44L299,124h10.31l1.08,3.12,13.69,36,13.43-36Z"/></g></g></svg>