<svg xmlns="http://www.w3.org/2000/svg" viewBox="0 0 68.82 21.13"><defs><style>.cls-1{fill:#fff;}</style></defs><g id="레이어_2" data-name="레이어 2"><g id="레이어_2-2" data-name="레이어 2"><rect width="68.82" height="21.13"/><path class="cls-1" d="M12.58,6.17v1H7.78V9.77h3.51v1H7.78v2.64h4.8v1H6.82V6.17h5.76Z"/><path class="cls-1" d="M18.49,13.56l.57.77h-1.2l-.14-.19-1.54-2-1.53,2-.15.19H13.3l.58-.77,1.7-2.26-1.47-2-.58-.77h1.2l.14.19,1.31,1.74,1.31-1.74.14-.19h1.2l-.57.77-1.48,2Z"/><path class="cls-1" d="M20,9.05V8.57h1v.66a2.45,2.45,0,0,1,1.69-.66,2.42,2.42,0,0,1,1.71.7,2.85,2.85,0,0,1,.92,2.18,2.89,2.89,0,0,1-.71,2,2.44,2.44,0,0,1-1.93.92A2.48,2.48,0,0,1,21,13.67V16.8H20V11.45h0Zm1.31,3.57a1.55,1.55,0,0,0,2.34.37,1.94,1.94,0,0,0,.67-1.54A2,2,0,0,0,24,10.29a1.5,1.5,0,0,0-1.32-.76,1.59,1.59,0,0,0-1,.37A2.05,2.05,0,0,0,21,11.45,2.11,2.11,0,0,0,21.33,12.62Z"/><path class="cls-1" d="M31.13,13.2a2.62,2.62,0,0,1-2.23,1.13,2.5,2.5,0,0,1-1.73-.69,2.9,2.9,0,0,1-.91-2.19A2.94,2.94,0,0,1,27,9.51a2.48,2.48,0,0,1,3.67-.24,2.85,2.85,0,0,1,.92,2.18v.48H27.27a2,2,0,0,0,.29.67,1.52,1.52,0,0,0,1.34.77,1.81,1.81,0,0,0,1.47-.74ZM30.58,11a1.21,1.21,0,0,0-.32-.75,1.71,1.71,0,0,0-1.36-.69,1.5,1.5,0,0,0-.71.18A1.79,1.79,0,0,0,27.27,11Z"/><path class="cls-1" d="M35.48,8.57H36v1h-.48a1.43,1.43,0,0,0-.72.18,1.76,1.76,0,0,0-.82,1.67v2.95H33V8.57h1v.51A2.52,2.52,0,0,1,35.48,8.57Z"/><path class="cls-1" d="M36.86,7.84v-1h1v1h-1Zm0,.73h1v5.76h-1V8.57Z"/><path class="cls-1" d="M43.83,13.2a2.62,2.62,0,0,1-2.23,1.13,2.49,2.49,0,0,1-1.73-.69A2.86,2.86,0,0,1,39,11.45a3,3,0,0,1,.68-1.94,2.46,2.46,0,0,1,2-.94,2.39,2.39,0,0,1,1.71.7,2.82,2.82,0,0,1,.93,2.18v.48H40a2,2,0,0,0,.28.67,1.54,1.54,0,0,0,1.35.77,1.78,1.78,0,0,0,1.46-.74ZM43.28,11a1.23,1.23,0,0,0-.33-.75,1.68,1.68,0,0,0-1.35-.69,1.47,1.47,0,0,0-.71.18A1.77,1.77,0,0,0,40,11Z"/><path class="cls-1" d="M50.25,14.34h-1V11.06a1.74,1.74,0,0,0-.23-.87A1.22,1.22,0,0,0,48,9.53a1.19,1.19,0,0,0-.75.27,1.51,1.51,0,0,0-.57,1.26v3.27h-1V8.57h1V9A2.18,2.18,0,0,1,48,8.57a2.15,2.15,0,0,1,1.43.55,2.46,2.46,0,0,1,.85,1.94v3.28Z"/><path class="cls-1" d="M56.38,13.23a2.48,2.48,0,0,1-2.12,1.1,2.4,2.4,0,0,1-1.67-.68,2.87,2.87,0,0,1-.91-2.2,3,3,0,0,1,.68-1.95,2.38,2.38,0,0,1,1.9-.93,2.48,2.48,0,0,1,2.13,1l-.79.56a1.54,1.54,0,0,0-1.34-.63,1.38,1.38,0,0,0-1,.39,1.88,1.88,0,0,0-.65,1.53A2.12,2.12,0,0,0,53,12.59a1.48,1.48,0,0,0,1.31.78,1.71,1.71,0,0,0,1.35-.69Z"/><path class="cls-1" d="M62.31,13.2a2.62,2.62,0,0,1-2.23,1.13,2.49,2.49,0,0,1-1.73-.69,2.86,2.86,0,0,1-.91-2.19,3,3,0,0,1,.68-1.94,2.46,2.46,0,0,1,2-.94,2.39,2.39,0,0,1,1.71.7,2.82,2.82,0,0,1,.93,2.18v.48H58.45a2,2,0,0,0,.28.67,1.54,1.54,0,0,0,1.35.77,1.78,1.78,0,0,0,1.46-.74ZM61.76,11a1.23,1.23,0,0,0-.33-.75,1.68,1.68,0,0,0-1.35-.69,1.47,1.47,0,0,0-.71.18A1.77,1.77,0,0,0,58.45,11Z"/></g></g></svg>