<svg xmlns="http://www.w3.org/2000/svg" viewBox="0 0 83.84 15.95"><defs><style>.cls-1{fill:#fff;}</style></defs><title>Asset 12</title><g id="Layer_2" data-name="Layer 2"><g id="Layer_1-2" data-name="Layer 1"><path class="cls-1" d="M8.64,0V1.44H1.44v4H6.7V6.84H1.44v4h7.2v1.44H0V0H8.64Z"/><path class="cls-1" d="M17.5,11.09l.86,1.15h-1.8L16.34,12,14,8.89,11.74,12l-.22.29H9.72l.86-1.15,2.56-3.4L10.93,4.75,10.06,3.6h1.8l.22.29L14,6.5l2-2.61.22-.29H18l-.87,1.15L14.94,7.69Z"/><path class="cls-1" d="M19.8,4.32V3.6h1.44v1a3.68,3.68,0,0,1,2.54-1,3.64,3.64,0,0,1,2.55,1,4.26,4.26,0,0,1,1.39,3.28,4.33,4.33,0,0,1-1.06,2.93,3.64,3.64,0,0,1-2.9,1.39,3.68,3.68,0,0,1-2.52-1V16H19.8V4.32Zm2,5.35a2.32,2.32,0,0,0,2,1.13,2.22,2.22,0,0,0,1.51-.58,2.9,2.9,0,0,0,1-2.3,3.1,3.1,0,0,0-.52-1.75,2.31,2.31,0,0,0-2-1.13,2.34,2.34,0,0,0-1.51.56,3,3,0,0,0-1,2.32A3.1,3.1,0,0,0,21.76,9.67Z"/><path class="cls-1" d="M36.47,10.55a4,4,0,0,1-3.35,1.69,3.73,3.73,0,0,1-2.59-1,4.32,4.32,0,0,1-1.37-3.28,4.42,4.42,0,0,1,1-2.92,3.71,3.71,0,0,1,2.93-1.4,3.67,3.67,0,0,1,2.57,1,4.26,4.26,0,0,1,1.39,3.28v.72H30.67a3.35,3.35,0,0,0,.43,1,2.32,2.32,0,0,0,2,1.15,2.66,2.66,0,0,0,2.2-1.12ZM35.64,7.2a1.82,1.82,0,0,0-.49-1.13,2.53,2.53,0,0,0-2-1,2.2,2.2,0,0,0-1.06.27A2.68,2.68,0,0,0,30.67,7.2Z"/><path class="cls-1" d="M43,3.6h.72V5H43a2.22,2.22,0,0,0-1.08.27,2.63,2.63,0,0,0-1.22,2.5v4.43H39.24V3.6h1.44v.76A3.68,3.68,0,0,1,43,3.6Z"/><path class="cls-1" d="M45.05,2.5V1.06h1.46V2.5H45.05Zm0,1.1h1.44v8.64H45.05V3.6Z"/><path class="cls-1" d="M55.51,10.55a4,4,0,0,1-3.35,1.69,3.75,3.75,0,0,1-2.59-1A4.32,4.32,0,0,1,48.2,7.92a4.42,4.42,0,0,1,1-2.92,3.75,3.75,0,0,1,5.51-.36,4.29,4.29,0,0,1,1.38,3.28v.72h-6.4a2.91,2.91,0,0,0,.43,1,2.29,2.29,0,0,0,2,1.15,2.66,2.66,0,0,0,2.2-1.12ZM54.68,7.2a1.86,1.86,0,0,0-.48-1.13,2.55,2.55,0,0,0-2-1,2.23,2.23,0,0,0-1.06.27A2.65,2.65,0,0,0,49.72,7.2Z"/><path class="cls-1" d="M65.14,12.26H63.72l0-.72,0-4.21A2.55,2.55,0,0,0,63.34,6,1.82,1.82,0,0,0,61.7,5a1.72,1.72,0,0,0-1.11.4,2.26,2.26,0,0,0-.87,1.89v4.91H58.28V3.6h1.44v.68a3.32,3.32,0,0,1,2-.68,3.17,3.17,0,0,1,2.15.83,3.63,3.63,0,0,1,1.27,2.9v4.19Z"/><path class="cls-1" d="M74.34,10.58a3.71,3.71,0,0,1-3.19,1.66,3.54,3.54,0,0,1-2.5-1,4.31,4.31,0,0,1-1.37-3.29,4.46,4.46,0,0,1,1-2.93A3.55,3.55,0,0,1,71.15,3.6a3.74,3.74,0,0,1,3.21,1.55L73.17,6a2.29,2.29,0,0,0-2-.94,2.06,2.06,0,0,0-1.45.58,2.89,2.89,0,0,0-1,2.3,3.28,3.28,0,0,0,.47,1.71,2.21,2.21,0,0,0,2,1.17,2.55,2.55,0,0,0,2-1Z"/><path class="cls-1" d="M83.23,10.55a4,4,0,0,1-3.35,1.69,3.75,3.75,0,0,1-2.59-1,4.32,4.32,0,0,1-1.37-3.28A4.42,4.42,0,0,1,77,5a3.75,3.75,0,0,1,5.51-.36,4.29,4.29,0,0,1,1.38,3.28v.72h-6.4a2.91,2.91,0,0,0,.43,1,2.29,2.29,0,0,0,2,1.15,2.66,2.66,0,0,0,2.2-1.12ZM82.4,7.2a1.86,1.86,0,0,0-.48-1.13,2.57,2.57,0,0,0-2-1,2.23,2.23,0,0,0-1.06.27A2.65,2.65,0,0,0,77.44,7.2Z"/></g></g></svg>