<svg xmlns="http://www.w3.org/2000/svg" viewBox="0 0 28.76 120.25"><g id="레이어_2" data-name="레이어 2"><g id="Layer_1" data-name="Layer 1"><g id="path0_fill" data-name="path0 fill"><path d="M7.39,42.36a7.4,7.4,0,0,1,0-14.79h7.4V35A7.41,7.41,0,0,1,7.39,42.36Zm0-13.79a6.4,6.4,0,1,0,6.4,6.4v-6.4Z"/></g><g id="path1_fill" data-name="path1 fill"><path d="M14.79,28.57H7.39a7.39,7.39,0,0,1,0-14.78h7.4ZM7.39,14.79a6.39,6.39,0,0,0,0,12.78h6.4V14.79Z"/></g><g id="path1_fill-2" data-name="path1 fill"><path d="M14.79,14.79H7.39A7.4,7.4,0,0,1,7.39,0h7.4ZM7.39,1a6.4,6.4,0,0,0,0,12.79h6.4V1Z"/></g><g id="path2_fill" data-name="path2 fill"><path d="M21.18,14.79H13.79V0h7.39a7.4,7.4,0,0,1,0,14.79Zm-6.39-1h6.39A6.4,6.4,0,0,0,21.18,1H14.79Z"/></g><g id="path3_fill" data-name="path3 fill"><path d="M21.18,28.57a7.39,7.39,0,1,1,7.39-7.39A7.39,7.39,0,0,1,21.18,28.57Zm0-13.78a6.39,6.39,0,1,0,6.39,6.39A6.4,6.4,0,0,0,21.18,14.79Z"/></g><path d="M.43,115.23a3.76,3.76,0,0,1,2-2.18,2.61,2.61,0,0,1-.52-.32A2.64,2.64,0,0,1,.7,110.55a2.68,2.68,0,0,1,.68-1.78A3.32,3.32,0,0,1,4,107.64a3.5,3.5,0,0,1,2.1.66,2.68,2.68,0,0,1,1.19,2.25,2.63,2.63,0,0,1-.09.67,2.84,2.84,0,0,1-1.6,1.83,4.41,4.41,0,0,1,.9.6,3.68,3.68,0,0,1,1.28,2.84,3.56,3.56,0,0,1-.92,2.43A3.64,3.64,0,0,1,4,120.24a3.75,3.75,0,0,1-2.5-.92,3.57,3.57,0,0,1-1.3-2.83A3.63,3.63,0,0,1,.43,115.23Zm3.6-1.8H3.78a3,3,0,0,0-1.71.69,2.9,2.9,0,0,0-1.14,2.37,3,3,0,0,0,.65,1.87A3,3,0,0,0,4,119.52a3.08,3.08,0,0,0,1.93-.67,2.88,2.88,0,0,0,1.15-2.36,3.06,3.06,0,0,0-.56-1.76,3,3,0,0,0-2.25-1.3Zm-2.24-1.78a2.52,2.52,0,0,0,2,1h.5a2.8,2.8,0,0,0,1.28-.41,2,2,0,0,0,.56-3A2.61,2.61,0,0,0,4,108.36a2.87,2.87,0,0,0-1.55.43,2,2,0,0,0-1.06,1.76A1.8,1.8,0,0,0,1.79,111.65Z"/><path d="M10.47,109.31a3.15,3.15,0,0,1,2.61-1.67,3.05,3.05,0,0,1,2.4,1.44,8.1,8.1,0,0,1,1.36,4.86,8.29,8.29,0,0,1-1.22,4.64,3,3,0,0,1-2.54,1.67,3.11,3.11,0,0,1-2.45-1.45,8,8,0,0,1-1.38-4.86A8.33,8.33,0,0,1,10.47,109.31Zm.34,8.46c.6,1.18,1.36,1.76,2.27,1.76A2.43,2.43,0,0,0,15,118.26a7.82,7.82,0,0,0,1.09-4.32,8.3,8.3,0,0,0-.83-3.84c-.59-1.16-1.33-1.74-2.21-1.74a2.5,2.5,0,0,0-2,1.29A7.64,7.64,0,0,0,10,113.94,8.28,8.28,0,0,0,10.81,117.77Z"/><path d="M27.82,108h.94l-.47.59-9.36,11.52-.11.13h-.93l.47-.6,9.36-11.52Zm-5.7.19a2.45,2.45,0,0,1,1.53,2.61,3.7,3.7,0,0,1-.4,1.84A2.33,2.33,0,0,1,21,113.88a2.94,2.94,0,0,1-1.23-.25,2.76,2.76,0,0,1-1.53-2.81,3,3,0,0,1,.44-1.65A2.44,2.44,0,0,1,21,108,3.5,3.5,0,0,1,22.12,108.19Zm-1.95.67a1.87,1.87,0,0,0-1.17,2,2.93,2.93,0,0,0,.24,1.23,1.84,1.84,0,0,0,1.8,1.11,2,2,0,0,0,.79-.16,2.11,2.11,0,0,0,1.1-2.2,2.45,2.45,0,0,0-.16-1A1.69,1.69,0,0,0,21,108.72,2.56,2.56,0,0,0,20.17,108.86Zm3.21,6.7a2.28,2.28,0,0,1,2.21-1.26,3.26,3.26,0,0,1,1.1.21,2.8,2.8,0,0,1,1.57,2.88,3.4,3.4,0,0,1-.31,1.48,2.41,2.41,0,0,1-2.34,1.37,3.89,3.89,0,0,1-.85-.09c-1.16-.3-1.76-1.2-1.8-2.69A4,4,0,0,1,23.38,115.56Zm.43,2.68a1.68,1.68,0,0,0,1.8,1.28,2.11,2.11,0,0,0,.7-.13,1.86,1.86,0,0,0,1.23-2,3.19,3.19,0,0,0-.2-1.15A1.76,1.76,0,0,0,25.59,115a1.9,1.9,0,0,0-.86.19,2.31,2.31,0,0,0-1.05,2.25A3.74,3.74,0,0,0,23.81,118.24Z"/></g></g></svg>