<svg xmlns="http://www.w3.org/2000/svg" viewBox="0 0 28.57 42.36"><g id="레이어_2" data-name="레이어 2"><g id="Layer_1" data-name="Layer 1"><g id="path0_fill" data-name="path0 fill"><path d="M7.39,42.36a7.4,7.4,0,0,1,0-14.79h7.4V35A7.41,7.41,0,0,1,7.39,42.36Zm0-13.79a6.4,6.4,0,1,0,6.4,6.4v-6.4Z"/></g><g id="path1_fill" data-name="path1 fill"><path d="M14.79,28.57H7.39a7.39,7.39,0,0,1,0-14.78h7.4ZM7.39,14.79a6.39,6.39,0,0,0,0,12.78h6.4V14.79Z"/></g><g id="path1_fill-2" data-name="path1 fill"><path d="M14.79,14.79H7.39A7.4,7.4,0,0,1,7.39,0h7.4ZM7.39,1a6.4,6.4,0,0,0,0,12.79h6.4V1Z"/></g><g id="path2_fill" data-name="path2 fill"><path d="M21.18,14.79H13.79V0h7.39a7.4,7.4,0,0,1,0,14.79Zm-6.39-1h6.39A6.4,6.4,0,0,0,21.18,1H14.79Z"/></g><g id="path3_fill" data-name="path3 fill"><path d="M21.18,28.57a7.39,7.39,0,1,1,7.39-7.39A7.39,7.39,0,0,1,21.18,28.57Zm0-13.78a6.39,6.39,0,1,0,6.39,6.39A6.4,6.4,0,0,0,21.18,14.79Z"/></g></g></g></svg>