<svg xmlns="http://www.w3.org/2000/svg" viewBox="0 0 124.01 27.32"><defs><style>.cls-1{fill:#fff;}</style></defs><g id="레이어_2" data-name="레이어 2"><g id="레이어_1-2" data-name="레이어 1"><path class="cls-1" d="M2.44,22.46H0l.67-1.57L8,4.08l.3-.67H9.72l.31.67,7.28,16.81L18,22.46H15.55l-.31-.67L9,7.36,2.75,21.79Z"/><path class="cls-1" d="M20.2,3.41V2.29h2.24v8.26A5.87,5.87,0,0,1,26.36,9a5.67,5.67,0,0,1,4,1.63,6.6,6.6,0,0,1,2.16,5.1,6.81,6.81,0,0,1-1.66,4.56,5.66,5.66,0,0,1-4.51,2.16,5.75,5.75,0,0,1-3.92-1.54v1.54H20.2v-19Zm3,15a3.61,3.61,0,0,0,3.14,1.77,3.52,3.52,0,0,0,2.36-.9,4.54,4.54,0,0,0,1.56-3.58A4.83,4.83,0,0,0,29.47,13,3.58,3.58,0,0,0,24,12.15a4.55,4.55,0,0,0-1.57,3.61A4.84,4.84,0,0,0,23.22,18.45Z"/><path class="cls-1" d="M36.42,11.17a5.77,5.77,0,0,1,8.52-.53,6.63,6.63,0,0,1,2.15,5.1,6.81,6.81,0,0,1-1.65,4.56,5.77,5.77,0,0,1-8.52.53,6.62,6.62,0,0,1-2.15-5.09A6.81,6.81,0,0,1,36.42,11.17Zm1.4,7.28a3.58,3.58,0,0,0,3.11,1.77,3.48,3.48,0,0,0,2.35-.9,4.51,4.51,0,0,0,1.57-3.58A4.83,4.83,0,0,0,44,13a3.58,3.58,0,0,0-3.11-1.77,3.48,3.48,0,0,0-2.35.9A4.52,4.52,0,0,0,37,15.74,4.82,4.82,0,0,0,37.82,18.45Z"/><path class="cls-1" d="M49.92,9h2.27l0,1.12,0,7.17a2.63,2.63,0,0,0,.53,1.6,3.16,3.16,0,0,0,2.66,1.29,3.38,3.38,0,0,0,1.74-.48,2.69,2.69,0,0,0,1.42-2.41v-7.2l0-1.09h2.27l0,1.12,0,7.17a4.87,4.87,0,0,1-1.18,3.2,5.25,5.25,0,0,1-4.23,1.93,5.42,5.42,0,0,1-3.5-1.21,4.78,4.78,0,0,1-1.93-3.92v-7.2Z"/><path class="cls-1" d="M67.1,18.51q0,1.65,2,1.71h1.12v2.24H69.14a6.39,6.39,0,0,1-1.48-.17,3.41,3.41,0,0,1-2.8-3.75V11.25H63V9h1.88V6.07l0-1.09h2.27l0,1.12V9h3.14v2.24H67.12Z"/><path class="cls-1" d="M124,12.69h0A13.4,13.4,0,0,0,111.78,27v.09l-3.55.25v-.09a12.31,12.31,0,0,1,4.22-9.88,18.6,18.6,0,0,1,8.88-4.47h-41l0-.19h41a18.62,18.62,0,0,1-9.44-3.16A12.31,12.31,0,0,1,106.31.35V.25L109.86,0V.09a13.32,13.32,0,0,0,4.53,9.11,13.25,13.25,0,0,0,9.6,3.3Z"/></g></g></svg>