<svg xmlns="http://www.w3.org/2000/svg" viewBox="0 0 123.7 27.32"><defs><style>.cls-1{fill:#fff;}</style></defs><g id="레이어_2" data-name="레이어 2"><g id="레이어_1-2" data-name="레이어 1"><path class="cls-1" d="M0,3.41H2.3l.19.87L5.38,17.42,10.45,4.14l.25-.73h1.57l.25.73,5.07,13.28L20.48,4.28l.2-.87H23l-.31,1.37L19,21.59l-.2.87H17.09l-.25-.73-5.35-14-5.35,14-.26.73H4.2L4,21.59.31,4.78Z"/><path class="cls-1" d="M26,11.17a5.76,5.76,0,0,1,8.51-.53,6.6,6.6,0,0,1,2.16,5.1,6.81,6.81,0,0,1-1.65,4.56,5.77,5.77,0,0,1-8.52.53,6.6,6.6,0,0,1-2.16-5.09A6.77,6.77,0,0,1,26,11.17Zm1.4,7.28a3.58,3.58,0,0,0,3.11,1.77,3.5,3.5,0,0,0,2.35-.9,4.51,4.51,0,0,0,1.57-3.58A4.85,4.85,0,0,0,33.65,13a3.59,3.59,0,0,0-3.11-1.77,3.5,3.5,0,0,0-2.36.9,4.55,4.55,0,0,0-1.57,3.59A4.75,4.75,0,0,0,27.43,18.45Z"/><path class="cls-1" d="M45.89,9H47v2.24H45.89a3.38,3.38,0,0,0-1.68.42c-1.25.69-1.89,2-1.91,3.9v6.89H40.06V9H42.3v1.18A5.82,5.82,0,0,1,45.89,9Z"/><path class="cls-1" d="M51.77,16.86v5.6H49.53V2.29h2.24V14.61h.39l5.55-5.29L58.05,9H61.3l-2,1.93-5,4.8,5,4.79,2,1.93H58.05l-.34-.31-5.55-5.29Z"/><path class="cls-1" d="M123.7,12.69h0A13.38,13.38,0,0,0,111.48,27v.09l-3.55.25v-.09a12.27,12.27,0,0,1,4.21-9.88A18.6,18.6,0,0,1,121,12.88H80l0-.19h41a18.56,18.56,0,0,1-9.43-3.16A12.25,12.25,0,0,1,106,.35V.25L109.55,0V.09a13.31,13.31,0,0,0,4.52,9.11,13.25,13.25,0,0,0,9.6,3.3Z"/></g></g></svg>