<svg xmlns="http://www.w3.org/2000/svg" viewBox="0 0 368.45 41.64"><defs><style>.cls-1{fill:#fff;}</style></defs><g id="레이어_2" data-name="레이어 2"><g id="레이어_1-2" data-name="레이어 1"><path class="cls-1" d="M0,1.8H3.6v27H18v3.6H0V1.8Z"/><path class="cls-1" d="M39,28.15a9.93,9.93,0,0,1-8.37,4.23,9.3,9.3,0,0,1-6.48-2.61,10.73,10.73,0,0,1-3.41-8.18,11.09,11.09,0,0,1,2.56-7.29,9.23,9.23,0,0,1,7.33-3.51A9.13,9.13,0,0,1,37,13.4a10.65,10.65,0,0,1,3.47,8.19v1.8h-16a7.77,7.77,0,0,0,1.08,2.51,5.78,5.78,0,0,0,5,2.88A6.66,6.66,0,0,0,36.07,26Zm-2.07-8.36A4.72,4.72,0,0,0,35.66,17a6.4,6.4,0,0,0-5.08-2.56,5.53,5.53,0,0,0-2.65.68,6.67,6.67,0,0,0-3.47,4.72Z"/><path class="cls-1" d="M49.78,26q0,2.66,3.29,2.74h1.8v3.6h-1.8a10.24,10.24,0,0,1-2.39-.27q-4.49-1-4.49-6V14.39h-3v-3.6h3V6.07l0-1.75h3.64l0,1.8v4.67h5v3.6h-5Z"/><path class="cls-1" d="M58.46,1.8h3.6V12.1h-3.6V1.8Z"/><path class="cls-1" d="M77.22,17a1.88,1.88,0,0,0-.5-1.25,4.36,4.36,0,0,0-3.6-1.4,6.35,6.35,0,0,0-1.84.27C69.78,15.14,69,15.94,69,17a1.2,1.2,0,0,0,.27.72c.42.51,1.8,1.13,4.14,1.85,1.5.45,2.61.82,3.33,1.12,3.17,1.29,4.75,3.09,4.72,5.4a5.27,5.27,0,0,1-1.35,3.42q-2.43,2.84-7,2.83a10,10,0,0,1-5.62-1.57,5.55,5.55,0,0,1-2.74-4.68h3.6a1.83,1.83,0,0,0,.54,1.26c.83.93,2.24,1.39,4.22,1.39a8.17,8.17,0,0,0,2.07-.27c1.8-.45,2.7-1.24,2.7-2.38a1.39,1.39,0,0,0-.22-.68c-.42-.51-1.79-1.1-4.1-1.79-1.47-.45-2.58-.83-3.32-1.13Q65.48,20.6,65.43,17a5.56,5.56,0,0,1,1.35-3.55,7.79,7.79,0,0,1,6.34-2.7,8.62,8.62,0,0,1,5,1.49A5.65,5.65,0,0,1,80.81,17Z"/><path class="cls-1" d="M122.68,28.15a9.92,9.92,0,0,1-8.36,4.23,9.3,9.3,0,0,1-6.48-2.61,10.7,10.7,0,0,1-3.42-8.18A11.1,11.1,0,0,1,107,14.3a9.23,9.23,0,0,1,7.33-3.51,9.13,9.13,0,0,1,6.43,2.61,10.64,10.64,0,0,1,3.46,8.19v1.8h-16a7.77,7.77,0,0,0,1.08,2.51,5.78,5.78,0,0,0,5,2.88A6.64,6.64,0,0,0,119.8,26Zm-2.07-8.36A4.7,4.7,0,0,0,119.4,17a6.4,6.4,0,0,0-5.08-2.56,5.57,5.57,0,0,0-2.66.68,6.69,6.69,0,0,0-3.46,4.72Z"/><path class="cls-1" d="M145.44,29.5l2.16,2.88h-4.5l-.54-.72L136.8,24l-5.75,7.65-.54.72H126l2.16-2.88,6.38-8.5L129,13.67l-2.16-2.88h4.5l.54.72L136.8,18l4.91-6.52.53-.72h4.5l-2.16,2.88L139.05,21Z"/><path class="cls-1" d="M151.19,12.59v-1.8h3.6v2.48a9.18,9.18,0,0,1,6.34-2.48,9.09,9.09,0,0,1,6.39,2.61A10.64,10.64,0,0,1,171,21.59a10.91,10.91,0,0,1-2.65,7.33,9.1,9.1,0,0,1-7.24,3.46,9.24,9.24,0,0,1-6.3-2.47V41.64h-3.6v-29ZM156.1,26a5.74,5.74,0,0,0,5,2.83,5.62,5.62,0,0,0,3.78-1.44,7.29,7.29,0,0,0,2.51-5.75,7.78,7.78,0,0,0-1.3-4.37,5.72,5.72,0,0,0-5-2.83,5.85,5.85,0,0,0-3.78,1.4,7.58,7.58,0,0,0-2.56,5.8A7.76,7.76,0,0,0,156.1,26Z"/><path class="cls-1" d="M176.38,0H180V32.38h-3.6V0Z"/><path class="cls-1" d="M185.91,14.26a9.26,9.26,0,0,1,13.67-.86,10.65,10.65,0,0,1,3.47,8.19,10.92,10.92,0,0,1-2.66,7.33,9.27,9.27,0,0,1-13.67.85,10.63,10.63,0,0,1-3.46-8.18A10.91,10.91,0,0,1,185.91,14.26ZM188.16,26a5.75,5.75,0,0,0,5,2.83,5.62,5.62,0,0,0,3.78-1.44,7.27,7.27,0,0,0,2.52-5.75,7.86,7.86,0,0,0-1.3-4.37,5.76,5.76,0,0,0-5-2.83,5.58,5.58,0,0,0-3.77,1.44,7.29,7.29,0,0,0-2.52,5.76A7.75,7.75,0,0,0,188.16,26Z"/><path class="cls-1" d="M217.8,10.79h1.8v3.6h-1.8a5.47,5.47,0,0,0-2.7.68c-2,1.1-3,3.19-3.06,6.25V32.38h-3.6V10.79H212v1.89A9.35,9.35,0,0,1,217.8,10.79Z"/><path class="cls-1" d="M240.1,28.15a9.9,9.9,0,0,1-8.36,4.23,9.3,9.3,0,0,1-6.48-2.61,10.69,10.69,0,0,1-3.41-8.18,11.09,11.09,0,0,1,2.56-7.29,9.23,9.23,0,0,1,7.33-3.51,9.13,9.13,0,0,1,6.43,2.61,10.64,10.64,0,0,1,3.46,8.19v1.8h-16a7.77,7.77,0,0,0,1.08,2.51,5.78,5.78,0,0,0,5,2.88A6.66,6.66,0,0,0,237.23,26ZM238,19.79A4.7,4.7,0,0,0,236.82,17a6.4,6.4,0,0,0-5.08-2.56,5.53,5.53,0,0,0-2.65.68,6.67,6.67,0,0,0-3.47,4.72Z"/><path class="cls-1" d="M280.67,13.85a7.59,7.59,0,0,1,11.06-1.21,8.5,8.5,0,0,1,3.06,6.79V30.58l0,1.84h-3.55l0-1.79-.05-11.2a5.91,5.91,0,0,0-.67-2.75,4.11,4.11,0,0,0-3.74-2.29,4,4,0,0,0-2.42.81,5,5,0,0,0-2,4.23V30.58l0,1.84h-3.55l-.05-1.79,0-9.4v-1.8a5.92,5.92,0,0,0-.68-2.75,4.14,4.14,0,0,0-6.16-1.48,5,5,0,0,0-2,4.23v13h-3.59V10.79H270v1.44a7.74,7.74,0,0,1,4.41-1.44,8,8,0,0,1,6.21,3.15S280.64,13.91,280.67,13.85Z"/><path class="cls-1" d="M302.84,14.26a9.26,9.26,0,0,1,13.67-.86A10.64,10.64,0,0,1,320,21.59a10.91,10.91,0,0,1-2.65,7.33,9.27,9.27,0,0,1-13.67.85,10.63,10.63,0,0,1-3.46-8.18A10.91,10.91,0,0,1,302.84,14.26ZM305.09,26a5.75,5.75,0,0,0,5,2.83,5.62,5.62,0,0,0,3.78-1.44,7.27,7.27,0,0,0,2.52-5.75,7.79,7.79,0,0,0-1.31-4.37,5.75,5.75,0,0,0-5-2.83,5.62,5.62,0,0,0-3.78,1.44,7.29,7.29,0,0,0-2.52,5.76A7.76,7.76,0,0,0,305.09,26Z"/><path class="cls-1" d="M334.72,10.79h1.8v3.6h-1.8a5.43,5.43,0,0,0-2.69.68c-2,1.1-3,3.19-3.06,6.25V32.38h-3.6V10.79H329v1.89A9.34,9.34,0,0,1,334.72,10.79Z"/><path class="cls-1" d="M357,28.15a9.93,9.93,0,0,1-8.37,4.23,9.29,9.29,0,0,1-6.47-2.61,10.7,10.7,0,0,1-3.42-8.18,11.14,11.14,0,0,1,2.56-7.29,9.25,9.25,0,0,1,7.33-3.51,9.15,9.15,0,0,1,6.44,2.61,10.67,10.67,0,0,1,3.46,8.19v1.8h-16a7.77,7.77,0,0,0,1.08,2.51,5.77,5.77,0,0,0,5,2.88A6.66,6.66,0,0,0,354.15,26ZM355,19.79A4.7,4.7,0,0,0,353.75,17a6.42,6.42,0,0,0-5.09-2.56,5.53,5.53,0,0,0-2.65.68,6.66,6.66,0,0,0-3.46,4.72Z"/><path class="cls-1" d="M364.85,1.8h3.6V25.63h-3.6V1.8Zm0,27h3.6v3.64h-3.6V28.83Z"/></g></g></svg>