<svg xmlns="http://www.w3.org/2000/svg" viewBox="0 0 1081.28 50.93"><g id="레이어_2" data-name="레이어 2"><g id="Layer_1" data-name="Layer 1"><path d="M0,2.2H4.51L4.9,3.91,10.56,29.7l10-26.07L21,2.2h3.08l.49,1.43,10,26.07L40.21,3.91l.38-1.71H45.1l-.6,2.7-7.26,33-.39,1.7h-3.3l-.49-1.43L22.55,10.62,12,38.17l-.49,1.43H8.25l-.38-1.7L.61,4.9Z"/><path d="M51.1,17.44a11.33,11.33,0,0,1,16.72-1.05,13,13,0,0,1,4.23,10,13.37,13.37,0,0,1-3.24,9,11.35,11.35,0,0,1-16.73,1,13,13,0,0,1-4.23-10A13.32,13.32,0,0,1,51.1,17.44Zm2.75,14.3A7,7,0,0,0,60,35.2a6.9,6.9,0,0,0,4.62-1.76,8.92,8.92,0,0,0,3.08-7,9.5,9.5,0,0,0-1.59-5.33A7.05,7.05,0,0,0,60,17.6a6.9,6.9,0,0,0-4.62,1.76,8.92,8.92,0,0,0-3.08,7A9.48,9.48,0,0,0,53.85,31.74Z"/><path d="M77.6,13.26h4.46L82,15.46l0,14.08a5.23,5.23,0,0,0,1,3.13,6.23,6.23,0,0,0,5.23,2.53,6.65,6.65,0,0,0,3.41-.93,5.29,5.29,0,0,0,2.8-4.73V15.4l.06-2.14h4.45l0,2.2-.06,14.08a9.5,9.5,0,0,1-2.31,6.27,10.22,10.22,0,0,1-8.3,3.79,10.77,10.77,0,0,1-6.88-2.36,9.44,9.44,0,0,1-3.79-7.7V15.4Z"/><path d="M106.53,0h4.4V39.6h-4.4V0Z"/><path d="M118.19,17.44a11.14,11.14,0,0,1,8.86-4.24,11.3,11.3,0,0,1,7.7,3V0h4.4V39.6h-4.4v-3a11.54,11.54,0,0,1-7.7,3,11.18,11.18,0,0,1-7.87-3.19,13,13,0,0,1-4.23-10A13.37,13.37,0,0,1,118.19,17.44Zm2.75,14.3a7.06,7.06,0,0,0,6.11,3.46,6.9,6.9,0,0,0,4.62-1.76,8.92,8.92,0,0,0,3.08-7,9.43,9.43,0,0,0-1.6-5.33,7,7,0,0,0-6.1-3.47,6.86,6.86,0,0,0-4.62,1.76,8.89,8.89,0,0,0-3.08,7A9.55,9.55,0,0,0,120.94,31.74Z"/><path d="M185.46,13.2h4.73l-1.16,3-8.14,21.95q-2.25,7.47-4.62,10.34a7.14,7.14,0,0,1-5.77,2.47h-2.2v-4.4h2.2a3.49,3.49,0,0,0,2.8-1.32c.88-1,1.95-3.61,3.19-7.75l-8-21.29-1.15-3H172l.49,1.43,6.27,16.5L185,14.63Z"/><path d="M196.84,17.44a11.33,11.33,0,0,1,16.72-1.05,13,13,0,0,1,4.24,10,13.33,13.33,0,0,1-3.25,9,11.34,11.34,0,0,1-16.72,1,13,13,0,0,1-4.23-10A13.37,13.37,0,0,1,196.84,17.44Zm2.75,14.3a7.06,7.06,0,0,0,6.11,3.46,6.9,6.9,0,0,0,4.62-1.76,8.92,8.92,0,0,0,3.08-7,9.43,9.43,0,0,0-1.6-5.33,7,7,0,0,0-6.1-3.47,6.86,6.86,0,0,0-4.62,1.76,8.89,8.89,0,0,0-3.08,7A9.55,9.55,0,0,0,199.59,31.74Z"/><path d="M223.35,13.26h4.46l-.06,2.2-.05,14.08a5.16,5.16,0,0,0,1,3.13A6.21,6.21,0,0,0,234,35.2a6.68,6.68,0,0,0,3.41-.93,5.29,5.29,0,0,0,2.8-4.73V15.4l.06-2.14h4.45l-.05,2.2-.06,14.08a9.5,9.5,0,0,1-2.31,6.27A10.23,10.23,0,0,1,234,39.6a10.75,10.75,0,0,1-6.88-2.36,9.44,9.44,0,0,1-3.79-7.7V15.4Z"/><path d="M275.93,0h4.4V39.6h-4.4V0Z"/><path d="M285.72,9.85V5.45h4.46v4.4h-4.46Zm0,3.35h4.4V39.6h-4.4V13.2Z"/><path d="M301.94,28.6v11h-4.4V0h4.4V24.2h.77L313.6,13.81l.66-.61h6.38l-4,3.8-9.9,9.4,9.9,9.41,4,3.79h-6.38l-.66-.6L302.71,28.6Z"/><path d="M344.08,34.43a12.14,12.14,0,0,1-10.24,5.17,11.38,11.38,0,0,1-7.92-3.19,13.1,13.1,0,0,1-4.17-10,13.56,13.56,0,0,1,3.13-8.91,11.3,11.3,0,0,1,9-4.29,11.16,11.16,0,0,1,7.87,3.19,13,13,0,0,1,4.24,10v2.2H326.37a9.43,9.43,0,0,0,1.31,3.08,7.06,7.06,0,0,0,6.16,3.52,8.14,8.14,0,0,0,6.71-3.41ZM341.54,24.2a5.72,5.72,0,0,0-1.48-3.46,7.82,7.82,0,0,0-6.22-3.14,6.79,6.79,0,0,0-3.24.83,8.13,8.13,0,0,0-4.23,5.77Z"/><path d="M381,31.85q0,3.24,4,3.35h2.2v4.4H385a12.48,12.48,0,0,1-2.91-.33q-5.5-1.26-5.5-7.37V17.6h-3.69V13.2h3.69V7.43l.05-2.15h4.46L381,7.48V13.2h6.16v4.4H381Z"/><path d="M393.74,17.44a11.33,11.33,0,0,1,16.72-1.05,13,13,0,0,1,4.23,10,13.37,13.37,0,0,1-3.24,9,11.34,11.34,0,0,1-16.72,1,13,13,0,0,1-4.24-10A13.32,13.32,0,0,1,393.74,17.44Zm2.75,14.3a7,7,0,0,0,6.1,3.46,6.86,6.86,0,0,0,4.62-1.76,8.89,8.89,0,0,0,3.08-7,9.5,9.5,0,0,0-1.59-5.33,7.05,7.05,0,0,0-6.11-3.47A6.9,6.9,0,0,0,398,19.36a8.92,8.92,0,0,0-3.08,7A9.48,9.48,0,0,0,396.49,31.74Z"/><path d="M446,17.44a11.11,11.11,0,0,1,8.85-4.24,11.28,11.28,0,0,1,7.7,3V15.4l.06-2.14h4.45l-.05,2.2-.06,21.94a12.76,12.76,0,0,1-.55,3.63,15,15,0,0,1-1.62,3.63,16.5,16.5,0,0,1-2.5,3.16,11.22,11.22,0,0,1-3.36,2.26,9.76,9.76,0,0,1-4,.85h-2.2v-4.4h2.2a6.89,6.89,0,0,0,5.22-2.69,9.69,9.69,0,0,0,2.42-6.44v-.82a11.52,11.52,0,0,1-7.7,3A11.14,11.14,0,0,1,447,36.41a13,13,0,0,1-4.24-10A13.32,13.32,0,0,1,446,17.44Zm2.75,14.3a7,7,0,0,0,6.1,3.46,6.86,6.86,0,0,0,4.62-1.76,8.92,8.92,0,0,0,3.08-7A9.5,9.5,0,0,0,461,21.07a7.05,7.05,0,0,0-6.11-3.47,6.9,6.9,0,0,0-4.62,1.76,8.92,8.92,0,0,0-3.08,7A9.48,9.48,0,0,0,448.74,31.74Z"/><path d="M476.79,17.44a11.33,11.33,0,0,1,16.72-1.05,13,13,0,0,1,4.23,10,13.37,13.37,0,0,1-3.24,9,11.34,11.34,0,0,1-16.72,1,13,13,0,0,1-4.24-10A13.32,13.32,0,0,1,476.79,17.44Zm2.75,14.3a7,7,0,0,0,6.1,3.46,6.86,6.86,0,0,0,4.62-1.76,8.92,8.92,0,0,0,3.08-7,9.5,9.5,0,0,0-1.59-5.33,7.05,7.05,0,0,0-6.11-3.47A6.9,6.9,0,0,0,481,19.36a8.92,8.92,0,0,0-3.08,7A9.48,9.48,0,0,0,479.54,31.74Z"/><path d="M529,17.44a11.33,11.33,0,0,1,16.72-1.05,13,13,0,0,1,4.23,10,13.37,13.37,0,0,1-3.24,9,11.34,11.34,0,0,1-16.72,1,13,13,0,0,1-4.24-10A13.32,13.32,0,0,1,529,17.44Zm2.75,14.3a7,7,0,0,0,6.1,3.46,6.9,6.9,0,0,0,4.62-1.76,8.92,8.92,0,0,0,3.08-7A9.5,9.5,0,0,0,544,21.07a7.05,7.05,0,0,0-6.11-3.47,6.9,6.9,0,0,0-4.62,1.76,8.92,8.92,0,0,0-3.08,7A9.48,9.48,0,0,0,531.79,31.74Z"/><path d="M577.55,39.66H573.2l-.05-2.2-.06-12.87a7.92,7.92,0,0,0-1-4,5.61,5.61,0,0,0-5-3,5.37,5.37,0,0,0-3.41,1.21A7,7,0,0,0,561,24.59v15h-4.4V13.2H561v2.09a10.08,10.08,0,0,1,6-2.09,9.55,9.55,0,0,1,6.54,2.53,11.1,11.1,0,0,1,3.91,8.86V37.4Z"/><path d="M611,17.44a11.14,11.14,0,0,1,8.86-4.24,11.28,11.28,0,0,1,7.7,3v-3h4.4V39.6h-4.4v-3a11.52,11.52,0,0,1-7.7,3A11.18,11.18,0,0,1,612,36.41a13,13,0,0,1-4.23-10A13.37,13.37,0,0,1,611,17.44Zm2.75,14.3a7.06,7.06,0,0,0,6.11,3.46,6.9,6.9,0,0,0,4.62-1.76,8.92,8.92,0,0,0,3.08-7,9.43,9.43,0,0,0-1.6-5.33,7,7,0,0,0-6.1-3.47,6.9,6.9,0,0,0-4.62,1.76,8.92,8.92,0,0,0-3.08,7A9.55,9.55,0,0,0,613.73,31.74Z"/><path d="M669.17,31.85q.06,3.24,4,3.35h2.2v4.4h-2.2a12.5,12.5,0,0,1-2.92-.33q-5.49-1.26-5.5-7.37V17.6h-3.68V13.2h3.68V7.43l.06-2.15h4.45l0,2.2V13.2h6.16v4.4h-6.16Z"/><path d="M692.33,13.2h2.2v4.4h-2.2a6.68,6.68,0,0,0-3.3.83q-3.69,2-3.74,7.64V39.6h-4.4V13.2h4.4v2.31A11.46,11.46,0,0,1,692.33,13.2Z"/><path d="M698.65,9.85V5.45h4.46v4.4h-4.46Zm0,3.35h4.4V39.6h-4.4V13.2Z"/><path d="M710.48,15.4V13.2h4.4v3a11.2,11.2,0,0,1,7.75-3,11.08,11.08,0,0,1,7.81,3.19,13,13,0,0,1,4.24,10,13.33,13.33,0,0,1-3.25,9,11.13,11.13,0,0,1-8.85,4.23,11.32,11.32,0,0,1-7.7-3V50.93h-4.4V15.4Zm6,16.34a7.06,7.06,0,0,0,6.11,3.46,6.9,6.9,0,0,0,4.62-1.76,8.92,8.92,0,0,0,3.08-7,9.43,9.43,0,0,0-1.6-5.33,7,7,0,0,0-6-3.47A7.15,7.15,0,0,0,718,19.31a9.26,9.26,0,0,0-3.13,7.09A9.55,9.55,0,0,0,716.47,31.74Z"/><path d="M769.71,31.85q.06,3.24,4,3.35h2.2v4.4h-2.2a12.5,12.5,0,0,1-2.92-.33q-5.49-1.26-5.5-7.37V17.6h-3.68V13.2h3.68V7.43l.06-2.15h4.45l-.05,2.2V13.2h6.16v4.4h-6.16Z"/><path d="M782.47,17.44a11.33,11.33,0,0,1,16.72-1.05,13,13,0,0,1,4.24,10,13.38,13.38,0,0,1-3.25,9,11.34,11.34,0,0,1-16.72,1,13,13,0,0,1-4.23-10A13.37,13.37,0,0,1,782.47,17.44Zm2.75,14.3a7.06,7.06,0,0,0,6.11,3.46A6.9,6.9,0,0,0,796,33.44a8.92,8.92,0,0,0,3.08-7,9.51,9.51,0,0,0-1.6-5.33,7,7,0,0,0-6.1-3.47,6.86,6.86,0,0,0-4.62,1.76,8.89,8.89,0,0,0-3.08,7A9.55,9.55,0,0,0,785.22,31.74Z"/><path d="M838.46,31.85c0,2.16,1.37,3.28,4,3.35h2.2v4.4h-2.2a12.5,12.5,0,0,1-2.92-.33q-5.5-1.26-5.5-7.37V17.6h-3.68V13.2h3.68V7.43l.06-2.15h4.45l-.05,2.2V13.2h6.16v4.4h-6.16Z"/><path d="M860.62,13.2a9.59,9.59,0,0,1,6.55,2.53,11.13,11.13,0,0,1,3.91,8.86V37.4l0,2.26h-4.34l-.06-2.2-.05-12.87a7.83,7.83,0,0,0-1-4,5.6,5.6,0,0,0-5-3,5.34,5.34,0,0,0-3.4,1.21,7,7,0,0,0-2.64,5.78v15h-4.4V3.52h4.4V15.29A10,10,0,0,1,860.62,13.2Z"/><path d="M900,34.43a12.11,12.11,0,0,1-10.23,5.17,11.37,11.37,0,0,1-7.92-3.19,13.11,13.11,0,0,1-4.18-10,13.57,13.57,0,0,1,3.14-8.91,11.3,11.3,0,0,1,9-4.29,11.16,11.16,0,0,1,7.87,3.19,13,13,0,0,1,4.24,10v2.2H882.29a9.67,9.67,0,0,0,1.32,3.08,7.06,7.06,0,0,0,6.16,3.52,8.14,8.14,0,0,0,6.71-3.41ZM897.47,24.2A5.72,5.72,0,0,0,896,20.74a7.82,7.82,0,0,0-6.22-3.14,6.79,6.79,0,0,0-3.24.83,8.17,8.17,0,0,0-4.24,5.77Z"/><path d="M949.61,16.94a9.3,9.3,0,0,1,13.53-1.48,10.36,10.36,0,0,1,3.74,8.3V37.4l.06,2.26h-4.35l-.05-2.2-.06-13.7a7.18,7.18,0,0,0-.82-3.35,5.06,5.06,0,0,0-7.54-1.82,6.08,6.08,0,0,0-2.42,5.17V37.4l.06,2.26h-4.35l0-2.2L947.3,26v-2.2a7.18,7.18,0,0,0-.82-3.35,5.06,5.06,0,0,0-7.54-1.82,6.08,6.08,0,0,0-2.42,5.17V39.6h-4.4V13.2h4.4V15a9.48,9.48,0,0,1,5.39-1.76,9.8,9.8,0,0,1,7.59,3.85S949.58,17,949.61,16.94Z"/><path d="M976.73,17.44a11.33,11.33,0,0,1,16.72-1.05,13,13,0,0,1,4.23,10,13.37,13.37,0,0,1-3.24,9,11.34,11.34,0,0,1-16.72,1,13,13,0,0,1-4.24-10A13.32,13.32,0,0,1,976.73,17.44Zm2.75,14.3a7,7,0,0,0,6.1,3.46,6.86,6.86,0,0,0,4.62-1.76,8.89,8.89,0,0,0,3.08-7,9.5,9.5,0,0,0-1.59-5.33,7.05,7.05,0,0,0-6.11-3.47A6.9,6.9,0,0,0,981,19.36a8.92,8.92,0,0,0-3.08,7A9.48,9.48,0,0,0,979.48,31.74Z"/><path d="M1005.33,17.44a11.33,11.33,0,0,1,16.72-1.05,13,13,0,0,1,4.23,10,13.37,13.37,0,0,1-3.24,9,11.34,11.34,0,0,1-16.72,1,13,13,0,0,1-4.24-10A13.32,13.32,0,0,1,1005.33,17.44Zm2.75,14.3a7,7,0,0,0,6.1,3.46,6.86,6.86,0,0,0,4.62-1.76,8.89,8.89,0,0,0,3.08-7,9.5,9.5,0,0,0-1.59-5.33,7.05,7.05,0,0,0-6.11-3.47,6.9,6.9,0,0,0-4.62,1.76,8.92,8.92,0,0,0-3.08,7A9.48,9.48,0,0,0,1008.08,31.74Z"/><path d="M1053.84,39.66h-4.35l0-2.2-.06-12.87a7.92,7.92,0,0,0-1-4,5.6,5.6,0,0,0-5-3,5.39,5.39,0,0,0-3.41,1.21,7,7,0,0,0-2.64,5.78v15h-4.4V13.2h4.4v2.09a10.1,10.1,0,0,1,6-2.09,9.59,9.59,0,0,1,6.55,2.53,11.12,11.12,0,0,1,3.9,8.86V37.4Z"/><path d="M1064.78,14.79h-4.4V12.6a10.29,10.29,0,0,1,2.26-6.77,10,10,0,0,1,8.25-3.63,11,11,0,0,1,6,1.87,9.86,9.86,0,0,1,4.34,8.58,10.15,10.15,0,0,1-.82,4.13,17.06,17.06,0,0,1-3.85,4.67,7.88,7.88,0,0,0-.94.88q-2.58,2.42-2.58,4.79v4.23h-4.4V27a11.62,11.62,0,0,1,2.64-7.65,42,42,0,0,1,3.35-3.13c1.47-1.29,2.2-2.48,2.2-3.58a6.09,6.09,0,0,0-.93-3.3,5.83,5.83,0,0,0-5.17-2.75,7,7,0,0,0-3,.66,5.55,5.55,0,0,0-3,5.34Zm3.91,20.41h4.4v4.51h-4.4V35.2Z"/></g></g></svg>