<svg xmlns="http://www.w3.org/2000/svg" viewBox="0 0 344.22 57.37"><g id="레이어_2" data-name="레이어 2"><g id="Layer_1" data-name="Layer 1"><g id="그룹_1" data-name="그룹 1"><path id="패스_1" data-name="패스 1" d="M30.06,12h0Z"/><path id="패스_2" data-name="패스 2" d="M42.71,25.41A4.45,4.45,0,0,0,40,22.7c-.73-.26-2.25-.79-12.61.7C16,25.05,15.61,25.87,14.77,27.66a4.17,4.17,0,0,0,1.71,5.43,3.65,3.65,0,0,0,3.13.13c.84-.35.34-.21.29-.19a105.81,105.81,0,0,1,14.27-2.32c.17,0,0,.22-.12.47A15.52,15.52,0,0,1,33,34.27a2.25,2.25,0,0,1-1.1.92c-3.95,1.61-11.12,4.26-14.67,4.4a9.26,9.26,0,0,1-9.14-6c-.52-1.18-.81-3,.9-7.33,1.5-3.8,7-8.86,9.41-11l1.11-1c4.17-4,7.24-5.71,8.84-6.08a13.25,13.25,0,0,1,1.73,3.76,3.79,3.79,0,0,0,4.59,2.78l.16,0a4.09,4.09,0,0,0,2.6-5c-.65-2.34-3.22-10-9-9.65C24.6.22,19.87,3,14.35,8.24c-.23.23-.58.55-1,.91-3.24,3-9.27,8.47-11.47,14S-.59,33.12,1.1,37A16.77,16.77,0,0,0,17.48,47.69a52.26,52.26,0,0,0,13.69-3.58v9.21a3.84,3.84,0,0,0,7.66.43V39.26C44,29,43.15,26.59,42.71,25.41Z"/><path id="패스_4" data-name="패스 4" d="M64.52,29.51l-.2-.19a20.31,20.31,0,0,0,3.43-2.4c3.65-3.43,4.26-10.52,4-14.17C71.45,7,65.87,1.12,60.74,1.12a52.48,52.48,0,0,0-10.09,2,4.76,4.76,0,0,0-3.16,5.78,4.53,4.53,0,0,0,3.85,3.47A27.67,27.67,0,0,1,50.6,16a40,40,0,0,0-1.41,6.31l-.6-.06a4.55,4.55,0,0,0-4.84,4.25v0a4.67,4.67,0,0,0,3.76,5.07,121.62,121.62,0,0,0-.38,14.54,3.84,3.84,0,0,0,7.67.26c0-.14,0-.27,0-.41-.07-4.09,0-8.88.12-11.5L59,37l9.64,8.89a4.3,4.3,0,0,0,6.07-.19l.23-.27a4.9,4.9,0,0,0-.43-6.66ZM62.87,13.34a13.65,13.65,0,0,1-1.1,6.56,23.75,23.75,0,0,1-4.84,2.72,30.63,30.63,0,0,1,.77-3.57,48,48,0,0,0,1.61-8.31,10.92,10.92,0,0,1,1.28-.16,4.59,4.59,0,0,1,2.29,2.76Z"/><path id="패스_5" data-name="패스 5" d="M104,13.8a5.41,5.41,0,0,0,3.8-6.49,5.1,5.1,0,0,0-6-4l-.16,0L82.55,8.69a5.51,5.51,0,0,0-2.4,9.09c-.13,2.67-.3,5-.49,6.13a5.07,5.07,0,0,0-.6,2.44c-.07.25-.13.5-.2.76-1.64,6.06-2.15,8.39-1.9,10.22.51,3.73,5.46,8.69,8.66,9.54a33.58,33.58,0,0,0,11.31.45,4.74,4.74,0,0,0,3.25-5.73,4.44,4.44,0,0,0-5.25-3.47l-.16,0,.07,0A31.27,31.27,0,0,1,88,37.74a9.58,9.58,0,0,1-2.06-2c.23-1.22.78-3.33,1.2-4.92L101,29.9a4.64,4.64,0,0,0,4.19-5,4.56,4.56,0,0,0-4.69-4.43h0l-11.57.76c.08-1.07.14-2.17.18-3.22Z"/><path id="패스_6" data-name="패스 6" d="M140.38,7.31a5.1,5.1,0,0,0-6-4l-.16,0-21.7,5.4a5.52,5.52,0,0,0-3.7,6.86,5.41,5.41,0,0,0,1.3,2.23c-.13,2.67-.31,5-.49,6.14a4.8,4.8,0,0,0-.6,2.44l-.21.75c-1.63,6.06-2.14,8.39-1.89,10.22.5,3.73,5.46,8.69,8.66,9.54a33.57,33.57,0,0,0,11.31.45,4.75,4.75,0,0,0,3.25-5.73,4.45,4.45,0,0,0-5.25-3.47l-.17,0,.08,0a31.42,31.42,0,0,1-6.85-.39,9.16,9.16,0,0,1-1.84-1.56c-.24-.25-.21-.49-.07-1.11.25-1.14.65-2.68,1-4l.08-.3h.21L131,29.9a4.63,4.63,0,0,0,4.18-5,4.55,4.55,0,0,0-4.68-4.43h-.05l-11.56.76c.07-1,.13-2.07.18-3.07L136.6,13.8A5.41,5.41,0,0,0,140.38,7.31Z"/><path id="패스_7" data-name="패스 7" d="M151,3.28s0,.13.1.26v0Z"/><path id="패스_8" data-name="패스 8" d="M165.72,2.25a3.92,3.92,0,0,0-3.93,3.92v0l-.64,19.27c0,.79-.08,1.82-.14,3-.4-.87-.74-1.59-1-2a26,26,0,0,0-1.69-2.62,61.56,61.56,0,0,1-4.43-7.18,37,37,0,0,1-1.89-5,26.39,26.39,0,0,0-.95-8A4.39,4.39,0,0,0,145.56.66l-.19.06a4.8,4.8,0,0,0-2.67,6.06l0-.12a24.25,24.25,0,0,1,.41,6.64,125.39,125.39,0,0,1-1.59,16.87c-.89,4-1.75,11.21-1.78,11.52A4.67,4.67,0,0,0,143.58,47a4.52,4.52,0,0,0,5-4v-.09c0-.07.84-7,1.62-10.52a54.2,54.2,0,0,0,.84-5.47l1.14,1.66c.46.67,1,1.51,1.17,1.76,1,1.89,4.84,10.82,6.25,14.1a3.92,3.92,0,0,0,.52.88,3.82,3.82,0,1,0,7.63.39v-.22h0c0-.59.86-14.49,1.07-19.65l.64-19.41A4,4,0,0,0,165.72,2.25Z"/><path id="패스_9" data-name="패스 9" d="M203.87,23.4c4.52-2.87,4.74-10.18,4.47-12.51-.56-4.78-6.78-8.25-10.86-8.82a38,38,0,0,0-13.37.1c-3.59,1-10.57,3.62-10.86,3.74A4.8,4.8,0,0,0,170.57,12a4.41,4.41,0,0,0,5.52,2.9l.21-.07c1.14-.44,3.61-1.36,6-2.17l-.5,8.49c-.9.21-1.51.35-1.59.38a4.72,4.72,0,0,0-3.36,5.66,4.51,4.51,0,0,0,4.38,3.66l0,.26C181,35.62,181,45.91,181,46.34a3.84,3.84,0,0,0,7.66.46,3.53,3.53,0,0,0,0-.46c0-.11,0-10.52.21-14.87l.14-2.34c1.25-.27,2.38-.5,3.1-.62A42.88,42.88,0,0,0,203.87,23.4Zm-14.35-4L190,11a44,44,0,0,1,6.29.46,5.46,5.46,0,0,1,3.07,1.42,4.28,4.28,0,0,1-.41,2.63,35.5,35.5,0,0,1-8.28,3.69l-1.16.22Z"/><path id="패스_10" data-name="패스 10" d="M226.47,37.09a3.74,3.74,0,0,0-5,1.6l-.1.21.06-.11a3.28,3.28,0,0,1-3,1.47c-4.2,0-6.15-.42-6.93-1.53-.62-.86-.63-3.43.29-6.42a16,16,0,0,1,4.2-.2c2.45.42,6.36-.17,11.48-1.19l.84-.17A18.61,18.61,0,0,0,232.92,29a4.86,4.86,0,0,0,2-6.34,4.35,4.35,0,0,0-5.74-2.23l-.25.12h0a13.23,13.23,0,0,1-2.16.92l-1,.2a34.6,34.6,0,0,1-8.36,1.15,12.23,12.23,0,0,0-1.71-.17c.84-1.95,1.7-3.91,2.45-5.62a2.76,2.76,0,0,0,.4-.06l10.24-2.65a64.22,64.22,0,0,0,11-3.38,5.49,5.49,0,0,0,3-6.94A5,5,0,0,0,236.4.7l-.24.09a56.74,56.74,0,0,1-8.83,2.83l-.42,0-.4.11-10.43,2.7a5.29,5.29,0,0,0-3.85,4.73c-1.2,2.7-4.14,9.4-6,13.93a4.86,4.86,0,0,0-.74,1.79c-.29.74-.54,1.36-.7,1.82-1,2.84-3,10,.53,14.87,3.12,4.41,8.38,4.77,13.06,4.77a10.86,10.86,0,0,0,9.81-5.83A4.18,4.18,0,0,0,226.47,37.09Z"/><path id="패스_11" data-name="패스 11" d="M258.91,3.47A5.54,5.54,0,0,0,253.78,2c-3.18.79-5.47,4.17-9.76,14.47-1.46,3.48-2.65,6.31-3.65,8.66a5.45,5.45,0,0,0-3.11,7.23L236,35.12l-.43,1c-1.05,2.39-3.06,6.32-3.09,6.36a4.18,4.18,0,0,0,1.55,5.49,3.73,3.73,0,0,0,5.08-1.41,1.51,1.51,0,0,0,.11-.22c.09-.17,2.14-4.19,3.3-6.8l.41-.94c.37-.82.81-1.81,1.37-3.11l10.93-.72c0,5-.07,9.68-.07,9.76a3.83,3.83,0,1,0,7.65.49c0-.13,0-.26,0-.39,0-.52.15-13.13,0-19.06C262.36,7.94,260.7,5.06,258.91,3.47ZM251,19.69c1.34-3.2,3.13-6.91,3.13-6.91l.24.45s.5,5.18.73,10.69l-6,.4L251,19.69Z"/><path id="패스_12" data-name="패스 12" d="M344.17,7.05a5.18,5.18,0,0,0-5.56-4.77h-.09c-.42.06-10.52,1.25-12.8,1.6L321,4.61c-2.83.43-7.11,1.1-7.62,1.16-1.42.18-4,.64-5.36.9a4.43,4.43,0,0,0-4.42,2.83v0a5.38,5.38,0,0,0-.45,1.11,41.59,41.59,0,0,0-1.79,5c-.12.38-.56,1.65-.95,2.8-.75,2.16-1.49,4.34-2.15,6.36a4.94,4.94,0,0,0-.48,1.51c-.7,2.21-1.27,4.17-1.55,5.56a12.83,12.83,0,0,0-.21,1.62,4.35,4.35,0,0,0-.83-.43c-2.31-.92-3.27-.73-5.75,2.76h0a10.64,10.64,0,0,1-6.27.82,18.17,18.17,0,0,1-3.75-1.51,24.53,24.53,0,0,1-5.26-3.46,8.67,8.67,0,0,1-1-6.06,13.19,13.19,0,0,1,1.41-3.3,27.4,27.4,0,0,1,8.58-7.15c2.61-1.47,3.55-.87,3.79-.45s-.24,1.94-.24,1.94c-.24,3.63-.52,4.15.88,6.31a4.32,4.32,0,0,0,5.94,1.4,2.11,2.11,0,0,0,.27-.18,13.32,13.32,0,0,0,3.63-5.71,11.78,11.78,0,0,0-.63-9.94,7,7,0,0,0-5.55-3.75l-.94-.09a17,17,0,0,0-11.36,2.15,36.42,36.42,0,0,0-11,9.14A15.6,15.6,0,0,0,263.71,24c-.55,3.47-.86,9.9,3.26,14a44.49,44.49,0,0,0,8.73,6.18c.81.47,1.57.93,2.27,1.37a17.18,17.18,0,0,0,12.08,2.3c3.64-.48,5.95-4.32,7.21-7.33a11.7,11.7,0,0,0,1.07,1.8c3.22,5.1,9.47,5.11,13.66,5.11a18.29,18.29,0,0,0,10.86-4.06,4.9,4.9,0,0,0,.71-6.63,4.29,4.29,0,0,0-6-1l-.27.21,0,0A9.69,9.69,0,0,1,312,38c-3.8,0-5.91-.32-6.26-1l-.23-.41-.2-.23a3.44,3.44,0,0,1-.32-2.59c.12-.58.33-1.36.59-2.26.65,0,1.26-.06,1.69-.1,1.28-.12,7-.43,7.71-.44l7.62-.11a4.73,4.73,0,0,0-.14-9.45l-7.48.12c-.84,0-4,.17-6.24.31l.09-.26c.88-2.54,1.12-3.26,1.24-3.79,0-.14.12-.35.23-.64,1.41-.26,3.34-.6,4.32-.72.56-.07,3.5-.53,7.9-1.21l4.67-.72c1.71-.26,8.93-1.13,12.5-1.56A5.33,5.33,0,0,0,344.17,7.05Z"/></g></g></g></svg>