<svg xmlns="http://www.w3.org/2000/svg" viewBox="0 0 29.73 14.17"><defs><style>.cls-1{fill:#fff;}</style></defs><g id="레이어_2" data-name="레이어 2"><g id="레이어_2-2" data-name="레이어 2"><rect width="29.73" height="14.17"/><path class="cls-1" d="M6.51,10.68v.48h-1V7.56H1.47v3.6h-1V3h1V6.6H5.55V3h1v7.68Z"/><path class="cls-1" d="M8.9,6.32a2.47,2.47,0,0,1,3.65-.22,2.83,2.83,0,0,1,.92,2.18,2.89,2.89,0,0,1-.71,2,2.44,2.44,0,0,1-1.93.92,2.39,2.39,0,0,1-1.71-.7,2.81,2.81,0,0,1-.93-2.18A3,3,0,0,1,8.9,6.32Zm.6,3.13a1.55,1.55,0,0,0,2.34.37,2,2,0,0,0,.67-1.54,2.08,2.08,0,0,0-.35-1.16,1.52,1.52,0,0,0-1.33-.76,1.55,1.55,0,0,0-1,.38,2,2,0,0,0-.67,1.54A2.14,2.14,0,0,0,9.5,9.45Z"/><path class="cls-1" d="M18.73,6.22a2,2,0,0,1,1.63-.82,2,2,0,0,1,1.32.49,2.29,2.29,0,0,1,.81,1.81v3l0,.49h-1v-.48l0-3A1.58,1.58,0,0,0,21.35,7a1.09,1.09,0,0,0-1-.61,1.06,1.06,0,0,0-.65.22,1.32,1.32,0,0,0-.53,1.12v3.47h-.94l0-.48v-3A1.58,1.58,0,0,0,18,7a1.09,1.09,0,0,0-1-.61,1,1,0,0,0-.65.22,1.32,1.32,0,0,0-.53,1.12v3.46h-1V5.4h1v.38a2.12,2.12,0,0,1,1.18-.38,2.16,2.16,0,0,1,1.65.84Z"/><path class="cls-1" d="M28.81,10a2.67,2.67,0,0,1-2.24,1.13,2.45,2.45,0,0,1-1.72-.7,2.83,2.83,0,0,1-.92-2.18,2.94,2.94,0,0,1,.69-1.94,2.48,2.48,0,0,1,3.67-.24,2.8,2.8,0,0,1,.92,2.18v.48H24.94a2,2,0,0,0,.29.67,1.52,1.52,0,0,0,1.34.77A1.8,1.8,0,0,0,28,9.46ZM28.25,7.8A1.25,1.25,0,0,0,27.93,7a1.73,1.73,0,0,0-1.36-.68,1.46,1.46,0,0,0-.7.18,1.81,1.81,0,0,0-.93,1.26Z"/></g></g></svg>