<svg xmlns="http://www.w3.org/2000/svg" viewBox="0 0 60.1 14.17"><defs><style>.cls-1{fill:#fff;}</style></defs><g id="레이어_2" data-name="레이어 2"><g id="레이어_2-2" data-name="레이어 2"><rect width="60.1" height="14.17"/><path class="cls-1" d="M22.06,10.37v.48h-1V7.26H17v3.59h-1V2.69h1V6.3H21.1V2.69h1v7.68Z"/><path class="cls-1" d="M24.45,6a2.41,2.41,0,0,1,1.93-.92,2.44,2.44,0,0,1,1.71.69A2.84,2.84,0,0,1,29,8a2.91,2.91,0,0,1-.71,1.95,2.41,2.41,0,0,1-1.93.92,2.46,2.46,0,0,1-1.72-.69A2.86,2.86,0,0,1,23.74,8,2.87,2.87,0,0,1,24.45,6Zm.6,3.12a1.54,1.54,0,0,0,1.33.76,1.51,1.51,0,0,0,1-.39A2,2,0,0,0,28.06,8a2.09,2.09,0,0,0-.35-1.17,1.54,1.54,0,0,0-1.33-.75,1.48,1.48,0,0,0-1,.38A1.93,1.93,0,0,0,24.7,8,2,2,0,0,0,25.05,9.14Z"/><path class="cls-1" d="M34.27,5.91A2,2,0,0,1,35.9,5.1a2,2,0,0,1,1.32.49A2.24,2.24,0,0,1,38,7.4v3.47h-.94l0-.48v-3a1.55,1.55,0,0,0-.18-.73,1.11,1.11,0,0,0-1.64-.4,1.3,1.3,0,0,0-.53,1.13v3.47h-1V7.4a1.55,1.55,0,0,0-.18-.73,1.09,1.09,0,0,0-1-.61,1.12,1.12,0,0,0-.65.21,1.32,1.32,0,0,0-.52,1.13v3.45h-1V5.1h1v.38a2,2,0,0,1,1.17-.38,2.11,2.11,0,0,1,1.66.84S34.26,5.93,34.27,5.91Z"/><path class="cls-1" d="M44.35,9.73a2.64,2.64,0,0,1-2.23,1.12,2.5,2.5,0,0,1-1.73-.69A2.85,2.85,0,0,1,39.48,8,3,3,0,0,1,40.16,6a2.51,2.51,0,0,1,3.68-.24A2.87,2.87,0,0,1,44.76,8v.47H40.49a1.94,1.94,0,0,0,.29.68,1.53,1.53,0,0,0,1.34.77,1.76,1.76,0,0,0,1.46-.75ZM43.8,7.49a1.27,1.27,0,0,0-.32-.75,1.7,1.7,0,0,0-1.36-.68,1.49,1.49,0,0,0-.71.17,1.77,1.77,0,0,0-.92,1.26Z"/></g></g></svg>