<svg xmlns="http://www.w3.org/2000/svg" viewBox="0 0 43.06 12.26"><defs><style>.cls-1{fill:#fff;}</style></defs><title>Asset 7</title><g id="Layer_2" data-name="Layer 2"><g id="Layer_1-2" data-name="Layer 1"><path class="cls-1" d="M9,11.52v.72H7.56V6.84H1.44v5.4H0V0H1.44V5.4H7.56V0H9V11.52Z"/><path class="cls-1" d="M12.58,5a3.71,3.71,0,0,1,5.47-.35,4.26,4.26,0,0,1,1.39,3.28,4.33,4.33,0,0,1-1.06,2.93,3.71,3.71,0,0,1-5.47.35,4.26,4.26,0,0,1-1.39-3.28A4.33,4.33,0,0,1,12.58,5Zm.9,4.68a2.32,2.32,0,0,0,2,1.13A2.22,2.22,0,0,0,17,10.22a2.9,2.9,0,0,0,1-2.3,3.1,3.1,0,0,0-.52-1.75,2.32,2.32,0,0,0-2-1.13A2.22,2.22,0,0,0,14,5.62a2.9,2.9,0,0,0-1,2.3A3.1,3.1,0,0,0,13.48,9.67Z"/><path class="cls-1" d="M27.32,4.82a3,3,0,0,1,4.43-.48A3.39,3.39,0,0,1,33,7.06v5.2H31.57l0-.72V7.06A2.35,2.35,0,0,0,31.27,6a1.66,1.66,0,0,0-2.47-.6A2,2,0,0,0,28,7.06v4.46l0,.74H26.6v-.72l0-3.76V7.06A2.35,2.35,0,0,0,26.3,6,1.65,1.65,0,0,0,24.8,5a1.68,1.68,0,0,0-1,.32A2,2,0,0,0,23,7.06v5.18H21.6V3.6H23v.58A3,3,0,0,1,24.8,3.6a3.18,3.18,0,0,1,2.49,1.26S27.31,4.85,27.32,4.82Z"/><path class="cls-1" d="M42.44,10.55a4,4,0,0,1-3.34,1.69,3.75,3.75,0,0,1-2.6-1,4.31,4.31,0,0,1-1.36-3.28,4.46,4.46,0,0,1,1-2.92A3.71,3.71,0,0,1,39.1,3.6a3.67,3.67,0,0,1,2.57,1,4.3,4.3,0,0,1,1.39,3.28v.72H36.65a3.11,3.11,0,0,0,.43,1,2.31,2.31,0,0,0,2,1.15,2.64,2.64,0,0,0,2.19-1.12ZM41.62,7.2a1.88,1.88,0,0,0-.49-1.13,2.53,2.53,0,0,0-2-1A2.24,2.24,0,0,0,38,5.31,2.65,2.65,0,0,0,36.65,7.2Z"/></g></g></svg>