<svg width="204" height="15" viewBox="0 0 204 15" fill="none" xmlns="http://www.w3.org/2000/svg">
<g clip-path="url(#clip0_1839_3154)">
<path d="M5.2829 14.108C3.65101 13.5178 2.35103 12.667 1.41062 11.5828C0.470205 10.4849 0 9.2086 0 7.75389C0 6.18939 0.442546 4.83074 1.34147 3.6505C2.24039 2.47027 3.47122 1.57823 5.06162 0.946935C6.65202 0.315645 8.47753 0 10.5243 0C12.4328 0 14.1753 0.26075 15.7242 0.768527C17.2731 1.2763 18.504 2.03111 19.4029 3.00549C20.3018 3.97987 20.7582 5.11894 20.7582 6.43641C20.7582 7.36962 20.5093 8.24794 20.0114 9.08509C19.5135 9.92223 18.8082 10.581 17.9093 11.075C16.9965 11.5691 15.9732 11.7749 14.8115 11.72V10.4849C14.2168 10.9515 13.4977 11.3083 12.6679 11.5691C11.8381 11.8298 10.9392 11.9671 9.99878 11.9671C8.82327 11.9671 7.74456 11.7749 6.76266 11.3769C5.78076 10.9927 4.99248 10.4575 4.42546 9.785C3.84462 9.11253 3.56803 8.38518 3.56803 7.5892C3.56803 6.79323 3.85845 6.05215 4.42546 5.37969C4.99248 4.70723 5.78076 4.172 6.76266 3.78774C7.74456 3.40348 8.82327 3.19762 9.99878 3.19762C10.9392 3.19762 11.8243 3.33486 12.6679 3.59561C13.5115 3.85636 14.2168 4.2269 14.8115 4.67978V3.26624L16.4157 3.56816V10.5535C16.9136 10.3477 17.3699 10.0183 17.7987 9.59286C18.2135 9.1537 18.5455 8.65965 18.7944 8.1107C19.0433 7.56176 19.154 6.99908 19.154 6.43641C19.154 5.42086 18.7667 4.52882 17.9784 3.77402C17.1902 3.01921 16.1391 2.44282 14.8391 2.05855C13.5253 1.66057 12.1009 1.46844 10.552 1.46844C8.89242 1.46844 7.38499 1.72919 6.02969 2.23696C4.6744 2.74474 3.60952 3.4721 2.82123 4.40531C2.03295 5.33852 1.64572 6.43641 1.64572 7.67155C1.64572 8.85178 2.06061 9.88106 2.89038 10.7731C3.72015 11.6651 4.84035 12.3513 6.23714 12.8179C7.64775 13.2983 9.18284 13.5316 10.8562 13.5316C12.17 13.5316 13.4147 13.4492 14.604 13.2708C15.7934 13.0924 16.7476 12.8179 17.4944 12.4337V14.0531C16.0146 14.6844 13.7881 14.9863 10.8009 14.9863C8.78178 14.9863 6.94245 14.6844 5.31056 14.0942L5.2829 14.108ZM12.3498 10.1418C13.0828 9.89478 13.6774 9.55169 14.12 9.09881C14.5625 8.65965 14.7838 8.15188 14.7838 7.5892C14.7838 7.02653 14.5625 6.53248 14.12 6.0796C13.6774 5.64044 13.0828 5.28362 12.3498 5.0366C11.6168 4.78957 10.8147 4.66606 9.97112 4.66606C9.12752 4.66606 8.3254 4.78957 7.59243 5.0366C6.85947 5.28362 6.2648 5.62671 5.82225 6.0796C5.3797 6.51875 5.15843 7.02653 5.15843 7.5892C5.15843 8.15188 5.3797 8.64593 5.82225 9.09881C6.2648 9.53797 6.85947 9.89478 7.59243 10.1418C8.3254 10.3888 9.12752 10.5124 9.97112 10.5124C10.8147 10.5124 11.6168 10.3888 12.3498 10.1418Z" fill="white"/>
<path d="M34.4908 11.7193V10.3332C33.7993 10.841 32.9419 11.239 31.9462 11.5272C30.9505 11.8154 29.8856 11.9663 28.7654 11.9663C27.4516 11.9663 26.2207 11.7742 25.1005 11.3762C23.9665 10.9782 23.0814 10.4567 22.4176 9.78427C21.7538 9.12553 21.4219 8.39818 21.4219 7.6022C21.4219 6.80623 21.7538 6.06515 22.4176 5.39269C23.0814 4.72023 23.9803 4.185 25.1005 3.80074C26.2346 3.40275 27.4516 3.21062 28.7654 3.21062C29.8994 3.21062 30.9505 3.36158 31.9462 3.64978C32.9419 3.93797 33.7855 4.33596 34.4908 4.84374V0.191406H36.1504V11.7193H34.4908ZM31.4898 10.1411C32.3472 9.89406 33.0387 9.55097 33.5504 9.09808C34.0759 8.65893 34.3249 8.15115 34.3249 7.58848C34.3249 7.02581 34.0621 6.53175 33.5504 6.07887C33.0249 5.63971 32.3472 5.2829 31.4898 5.03587C30.6324 4.78884 29.7196 4.66533 28.7654 4.66533C27.8111 4.66533 26.8984 4.78884 26.041 5.03587C25.1835 5.2829 24.5059 5.62599 23.9803 6.07887C23.4548 6.51803 23.2059 7.02581 23.2059 7.58848C23.2059 8.15115 23.4687 8.6452 23.9803 9.09808C24.5059 9.53724 25.1835 9.89406 26.041 10.1411C26.8984 10.3881 27.7973 10.5116 28.7654 10.5116C29.7334 10.5116 30.6324 10.3881 31.4898 10.1411Z" fill="white"/>
<path d="M40.9091 11.3903C39.7751 11.006 38.89 10.4708 38.2262 9.79831C37.5624 9.12585 37.2305 8.39849 37.2305 7.60252C37.2305 6.80655 37.5624 6.06547 38.2262 5.39301C38.89 4.72054 39.7889 4.18532 40.9091 3.80106C42.0432 3.40307 43.2602 3.21094 44.5878 3.21094C45.9154 3.21094 47.1324 3.40307 48.2526 3.80106C49.3867 4.19904 50.2718 4.73427 50.9356 5.39301C51.5994 6.05174 51.9313 6.79282 51.9313 7.60252C51.9313 8.41222 51.5994 9.12585 50.9356 9.78459C50.2718 10.4433 49.3728 10.9785 48.2526 11.3765C47.1186 11.7745 45.9016 11.9667 44.5878 11.9667C43.274 11.9667 42.0293 11.7745 40.9091 11.3765V11.3903ZM47.3122 10.1414C48.1697 9.89438 48.8473 9.55129 49.3728 9.0984C49.8984 8.65925 50.1473 8.15147 50.1473 7.5888C50.1473 7.02613 49.8845 6.53207 49.3728 6.07919C48.8473 5.64003 48.1697 5.28322 47.3122 5.03619C46.4548 4.78916 45.5559 4.66565 44.5878 4.66565C43.6197 4.66565 42.7208 4.78916 41.8634 5.03619C41.0059 5.28322 40.3145 5.62631 39.8028 6.07919C39.2772 6.51835 39.0283 7.02613 39.0283 7.5888C39.0283 8.15147 39.2911 8.64552 39.8028 9.0984C40.3283 9.53756 41.0059 9.89438 41.8634 10.1414C42.7208 10.3884 43.6336 10.5119 44.5878 10.5119C45.542 10.5119 46.4548 10.3884 47.3122 10.1414Z" fill="white"/>
<path d="M52.2773 3.52734H53.9369L56.9103 10.6225L59.9942 3.52734H62.2623L65.3463 10.6225L68.3197 3.52734H69.9792L66.5495 11.7616H64.2123L61.1421 4.69386L58.0581 11.7616H55.7209L52.2912 3.52734H52.2773Z" fill="white"/>
<path d="M70.7248 3.48489H72.2184L72.3843 4.73375C72.979 4.26714 73.6843 3.92405 74.4864 3.69075C75.2885 3.45745 76.146 3.34766 77.0449 3.34766C78.1651 3.34766 79.23 3.52606 80.2395 3.86916C81.2491 4.21225 82.0788 4.7063 82.7012 5.33759C83.3235 5.96888 83.6416 6.70996 83.6416 7.53338V11.7191H81.982V7.50594C81.8991 6.92954 81.6363 6.43549 81.1799 6.0375C80.7235 5.63951 80.1427 5.33759 79.4512 5.13174C78.7597 4.92588 78.0129 4.82982 77.2247 4.82982C76.3811 4.82982 75.5928 4.9396 74.8598 5.17291C74.1268 5.39249 73.5322 5.73558 73.062 6.17474C72.6056 6.6139 72.3705 7.14912 72.3705 7.76669V11.7328H70.7109V3.48489H70.7248Z" fill="white"/>
<path d="M84.7344 0.191406H86.3939V11.7193H84.7344V0.191406Z" fill="white"/>
<path d="M91.1513 11.3903C90.0173 11.006 89.1322 10.4708 88.4684 9.79831C87.8046 9.12585 87.4727 8.39849 87.4727 7.60252C87.4727 6.80655 87.8046 6.06547 88.4684 5.39301C89.1322 4.72054 90.0311 4.18532 91.1513 3.80106C92.2854 3.40307 93.5023 3.21094 94.83 3.21094C96.1576 3.21094 97.3746 3.40307 98.4948 3.80106C99.6289 4.19904 100.514 4.73427 101.178 5.39301C101.842 6.05174 102.173 6.79282 102.173 7.60252C102.173 8.41222 101.842 9.12585 101.178 9.78459C100.514 10.4433 99.615 10.9785 98.4948 11.3765C97.3608 11.7745 96.1438 11.9667 94.83 11.9667C93.5162 11.9667 92.2715 11.7745 91.1513 11.3765V11.3903ZM97.5682 10.1414C98.4257 9.89438 99.1033 9.55129 99.6288 9.0984C100.154 8.65925 100.403 8.15147 100.403 7.5888C100.403 7.02613 100.141 6.53207 99.6288 6.07919C99.1033 5.64003 98.4257 5.28322 97.5682 5.03619C96.7108 4.78916 95.8119 4.66565 94.8438 4.66565C93.8758 4.66565 92.9768 4.78916 92.1194 5.03619C91.262 5.28322 90.5705 5.62631 90.0588 6.07919C89.5333 6.51835 89.2843 7.02613 89.2843 7.5888C89.2843 8.15147 89.5471 8.64552 90.0588 9.0984C90.5843 9.53756 91.262 9.89438 92.1194 10.1414C92.9768 10.3884 93.8896 10.5119 94.8438 10.5119C95.7981 10.5119 96.7108 10.3884 97.5682 10.1414Z" fill="white"/>
<path d="M106.542 11.3903C105.408 11.006 104.523 10.4708 103.859 9.79831C103.195 9.12585 102.863 8.39849 102.863 7.60252C102.863 6.80655 103.195 6.06547 103.859 5.39301C104.523 4.72054 105.422 4.18532 106.542 3.80106C107.676 3.40307 108.893 3.21094 110.221 3.21094C111.341 3.21094 112.392 3.34817 113.388 3.63637C114.383 3.92457 115.227 4.32256 115.918 4.81661V3.48541H117.578V11.7196H115.918V10.3473C115.227 10.855 114.383 11.253 113.388 11.5275C112.392 11.8157 111.341 11.9529 110.221 11.9529C108.893 11.9529 107.662 11.7608 106.542 11.3628V11.3903ZM112.945 10.1414C113.802 9.89438 114.48 9.55128 115.006 9.0984C115.531 8.65924 115.78 8.15147 115.78 7.5888C115.78 7.02613 115.517 6.53207 115.006 6.07919C114.48 5.64003 113.802 5.28322 112.945 5.03619C112.088 4.78916 111.189 4.66565 110.221 4.66565C109.253 4.66565 108.354 4.78916 107.496 5.03619C106.639 5.28322 105.947 5.62631 105.436 6.07919C104.91 6.51835 104.661 7.02613 104.661 7.5888C104.661 8.15147 104.924 8.64552 105.436 9.0984C105.961 9.53756 106.639 9.89438 107.496 10.1414C108.354 10.3884 109.266 10.5119 110.221 10.5119C111.175 10.5119 112.088 10.3884 112.945 10.1414Z" fill="white"/>
<path d="M131.725 11.7193V10.3332C131.034 10.841 130.176 11.239 129.181 11.5272C128.185 11.8154 127.12 11.9663 126 11.9663C124.686 11.9663 123.455 11.7742 122.335 11.3762C121.201 10.9782 120.316 10.4567 119.652 9.78427C118.988 9.12553 118.656 8.39818 118.656 7.6022C118.656 6.80623 118.988 6.06515 119.652 5.39269C120.316 4.72023 121.215 4.185 122.335 3.80074C123.469 3.40275 124.686 3.21062 126 3.21062C127.134 3.21062 128.185 3.36158 129.181 3.64978C130.176 3.93797 131.02 4.33596 131.725 4.84374V0.191406H133.385V11.7193H131.725ZM128.738 10.1411C129.595 9.89406 130.287 9.55097 130.799 9.09808C131.324 8.65893 131.573 8.15115 131.573 7.58848C131.573 7.02581 131.31 6.53175 130.799 6.07887C130.273 5.63971 129.595 5.2829 128.738 5.03587C127.881 4.78884 126.968 4.66533 126.014 4.66533C125.059 4.66533 124.147 4.78884 123.289 5.03587C122.432 5.2829 121.754 5.62599 121.229 6.07887C120.703 6.51803 120.454 7.02581 120.454 7.58848C120.454 8.15115 120.717 8.6452 121.229 9.09808C121.754 9.53724 122.432 9.89406 123.289 10.1411C124.147 10.3881 125.046 10.5116 126.014 10.5116C126.982 10.5116 127.881 10.3881 128.738 10.1411Z" fill="white"/>
<path d="M134.879 3.4852H136.345L136.511 4.73406C137.009 4.24001 137.576 3.86947 138.226 3.63616C138.876 3.38914 139.554 3.27935 140.259 3.27935C141.144 3.27935 141.974 3.45776 142.762 3.81457C143.55 4.17139 144.145 4.65172 144.574 5.24184C145.058 4.5831 145.68 4.08905 146.413 3.75968C147.16 3.43031 147.948 3.26562 148.792 3.26562C149.677 3.26562 150.52 3.44403 151.323 3.78713C152.125 4.14394 152.775 4.63799 153.259 5.29673C153.743 5.95547 153.992 6.69655 153.992 7.54742V11.7331H152.36V7.45135C152.277 6.60048 151.917 5.94175 151.267 5.47514C150.617 5.00853 149.857 4.78895 148.972 4.78895C148.363 4.78895 147.782 4.89874 147.243 5.13205C146.704 5.36535 146.247 5.69472 145.915 6.1476C145.583 6.58676 145.404 7.12198 145.404 7.73955V11.7469H143.772V7.46508C143.716 6.88868 143.523 6.40835 143.177 6.01036C142.845 5.61238 142.416 5.31046 141.891 5.11832C141.365 4.92619 140.812 4.8164 140.231 4.8164C139.595 4.8164 138.987 4.92619 138.406 5.15949C137.825 5.3928 137.369 5.72217 137.009 6.16132C136.649 6.60048 136.483 7.10826 136.483 7.7121V11.7469H134.852V3.4852H134.879Z" fill="white"/>
<path d="M158.351 11.3903C157.217 11.006 156.331 10.4708 155.668 9.79831C155.004 9.12585 154.672 8.39849 154.672 7.60252C154.672 6.80655 155.004 6.06547 155.668 5.39301C156.331 4.72054 157.23 4.18532 158.351 3.80106C159.485 3.40307 160.702 3.21094 162.029 3.21094C163.357 3.21094 164.574 3.40307 165.694 3.80106C166.828 4.19904 167.713 4.73427 168.377 5.39301C169.041 6.05174 169.373 6.79282 169.373 7.60252C169.373 8.41222 169.041 9.12585 168.377 9.78459C167.713 10.4433 166.814 10.9785 165.694 11.3765C164.56 11.7745 163.343 11.9667 162.029 11.9667C160.715 11.9667 159.471 11.7745 158.351 11.3765V11.3903ZM164.754 10.1414C165.611 9.89438 166.289 9.55129 166.814 9.0984C167.34 8.65925 167.589 8.15147 167.589 7.5888C167.589 7.02613 167.326 6.53207 166.814 6.07919C166.289 5.64003 165.611 5.28322 164.754 5.03619C163.896 4.78916 162.997 4.66565 162.029 4.66565C161.061 4.66565 160.162 4.78916 159.305 5.03619C158.447 5.28322 157.756 5.62631 157.244 6.07919C156.719 6.51835 156.47 7.02613 156.47 7.5888C156.47 8.15147 156.732 8.64552 157.244 9.0984C157.77 9.53756 158.447 9.89438 159.305 10.1414C160.162 10.3884 161.075 10.5119 162.029 10.5119C162.983 10.5119 163.896 10.3884 164.754 10.1414Z" fill="white"/>
<path d="M173.922 11.3913C172.927 11.0345 172.111 10.4856 171.447 9.73076C170.783 8.97596 170.465 8.02903 170.465 6.88996V3.44531H172.124V6.90368C172.207 8.11137 172.705 9.00341 173.59 9.5798C174.475 10.1562 175.596 10.4444 176.923 10.4444C177.808 10.4444 178.61 10.3072 179.343 10.0464C180.063 9.77194 180.643 9.36023 181.086 8.79755C181.529 8.23488 181.736 7.52125 181.736 6.67038V3.45904H183.395V6.90368C183.395 8.04275 183.064 8.98969 182.414 9.74449C181.764 10.4993 180.934 11.0482 179.938 11.4051C178.942 11.7619 177.947 11.9266 176.923 11.9266C175.9 11.9266 174.918 11.7481 173.922 11.4051V11.3913Z" fill="white"/>
<path d="M184.887 3.4852H186.353L186.519 4.73406C187.017 4.24001 187.584 3.86947 188.234 3.63616C188.884 3.38914 189.561 3.27935 190.267 3.27935C191.152 3.27935 191.982 3.45776 192.77 3.81457C193.558 4.17139 194.153 4.65172 194.582 5.24184C195.066 4.5831 195.688 4.08905 196.421 3.75968C197.168 3.43031 197.956 3.26562 198.8 3.26562C199.685 3.26562 200.528 3.44403 201.33 3.78713C202.133 4.14394 202.782 4.63799 203.267 5.29673C203.751 5.95547 203.999 6.69655 203.999 7.54742V11.7331H202.368V7.45135C202.285 6.60048 201.925 5.94175 201.275 5.47514C200.625 5.00853 199.864 4.78895 198.979 4.78895C198.371 4.78895 197.79 4.89874 197.251 5.13205C196.711 5.36535 196.255 5.69472 195.923 6.1476C195.591 6.58676 195.411 7.12198 195.411 7.73955V11.7469H193.779V7.46508C193.724 6.88868 193.531 6.40835 193.185 6.01036C192.853 5.61238 192.424 5.31046 191.899 5.11832C191.373 4.92619 190.82 4.8164 190.239 4.8164C189.603 4.8164 188.994 4.92619 188.414 5.15949C187.833 5.3928 187.376 5.72217 187.017 6.16132C186.657 6.60048 186.491 7.10826 186.491 7.7121V11.7469H184.859V3.4852H184.887Z" fill="white"/>
</g>
<defs>
<clipPath id="clip0_1839_3154">
<rect width="204" height="15" fill="white"/>
</clipPath>
</defs>
</svg>
