<svg xmlns="http://www.w3.org/2000/svg" viewBox="0 0 489.29 98.22"><defs><style>.cls-1{fill:#fff;}</style></defs><g id="레이어_2" data-name="레이어 2"><g id="레이어_2-2" data-name="레이어 2"><path class="cls-1" d="M8.94,8.92A4.39,4.39,0,0,1,8,10a4.85,4.85,0,0,1-3.18,1.2A4.46,4.46,0,0,1,1.46,9.69,5.58,5.58,0,0,1,0,5.78,5.64,5.64,0,0,1,1.46,1.86,4.36,4.36,0,0,1,4.81.32,4.77,4.77,0,0,1,7,.85a4.35,4.35,0,0,1,2,1.81L8.34,3a3.39,3.39,0,0,0-.8-1A4.18,4.18,0,0,0,4.81,1,3.85,3.85,0,0,0,1.94,2.28a5,5,0,0,0-1.3,3.5A5.05,5.05,0,0,0,1.83,9.13a3.76,3.76,0,0,0,3,1.46,4.16,4.16,0,0,0,1.69-.37A4,4,0,0,0,8.39,8.6Z"/><path class="cls-1" d="M11.2,4.77a3.28,3.28,0,0,1,2.6-1.24,3.64,3.64,0,0,1,.56.05,3.41,3.41,0,0,1,2.33,1.59V3.53h.64v7.7h-.64V9.6c-.09.12-.18.26-.29.4a3.36,3.36,0,0,1-4.93.29,3.87,3.87,0,0,1-1.2-2.91A4,4,0,0,1,11.2,4.77Zm.39,4.68a2.65,2.65,0,0,0,2.21,1.14,2.68,2.68,0,0,0,1.83-.72,3.23,3.23,0,0,0,1.06-2.49A3.4,3.4,0,0,0,16,5.31,2.65,2.65,0,0,0,13.8,4.17,2.68,2.68,0,0,0,12,4.89a3.22,3.22,0,0,0-1.06,2.49A3.4,3.4,0,0,0,11.59,9.45Z"/><path class="cls-1" d="M26,11.25h-.62l0-.32,0-4.14a2.7,2.7,0,0,0-.49-1.59,2.22,2.22,0,0,0-1.91-1,2.26,2.26,0,0,0-1.46.53,2.59,2.59,0,0,0-.95,2.09v4.44H19.9V3.53h.64V4.78a.47.47,0,0,1,.1-.11A2.84,2.84,0,0,1,23,3.53a2.94,2.94,0,0,1,1.94.74A3.2,3.2,0,0,1,26,6.79v4.46Z"/><path class="cls-1" d="M28.24.32h.64V3.51h-.64V.32Z"/><path class="cls-1" d="M32.11,9.13v.14c.08.88.72,1.32,1.91,1.32h.32v.64H34a4.53,4.53,0,0,1-.52,0,2,2,0,0,1-2-2.07v-5h-1.3V3.53h1.3v-2h.64v2h2.23v.64H32.11Z"/><path class="cls-1" d="M43.26.32h.64V11.23h-.64V.32Z"/><path class="cls-1" d="M46.69,3.51h-.64V3.19a2.79,2.79,0,0,1,.66-1.86,2.93,2.93,0,0,1,2.39-1,3.29,3.29,0,0,1,1.78.53,2.64,2.64,0,0,1,1.27,2.36,2.29,2.29,0,0,1-.24,1,4.5,4.5,0,0,1-1.16,1.31c-.18.15-.31.27-.4.36a2.43,2.43,0,0,0-.91,1.78h0v1H48.8v-1a3,3,0,0,1,.35-1.45A5,5,0,0,1,50.4,4.88l.32-.29a1.93,1.93,0,0,0,.79-1.38,2.15,2.15,0,0,0-.45-1.35,2.4,2.4,0,0,0-2-.9,2.85,2.85,0,0,0-1.27.29,2.06,2.06,0,0,0-1.14,1.94Zm2.11,7.08h.64v.67H48.8v-.67Z"/><path class="cls-1" d="M61.39.32H62V11.23h-.64V.32Z"/><path class="cls-1" d="M71,3.53h.66l.06.24,1.68,6.15,2.52-6.2.1-.19h.42l.09.19L79,9.92l1.69-6.15.06-.24h.66l-.11.4L79.41,11l-.06.24H78.9L78.8,11,76.22,4.7,73.64,11l-.1.19h-.45L73,11,71.1,3.93Z"/><path class="cls-1" d="M83.36,2.23V1.59H84v.64h-.66Zm0,1.3H84v7.7h-.64V3.53Z"/><path class="cls-1" d="M90.9,5.6a1.15,1.15,0,0,0-.32-.77,2.3,2.3,0,0,0-1.75-.66,2.8,2.8,0,0,0-1.16.24,1.34,1.34,0,0,0-.91,1.19.8.8,0,0,0,0,.26c.13.34.66.67,1.6,1,1.16.39,1.78.6,1.86.64,1,.43,1.55,1,1.55,1.67a1.64,1.64,0,0,1-.5,1.14,3.27,3.27,0,0,1-2.49.93,3.73,3.73,0,0,1-2-.51,1.81,1.81,0,0,1-1-1.56h.64a1.19,1.19,0,0,0,.37.79,2.77,2.77,0,0,0,2,.64,3.39,3.39,0,0,0,1.33-.26c.68-.27,1-.66,1-1.17a.56.56,0,0,0,0-.25c-.12-.35-.65-.67-1.58-1l-1.87-.64c-1-.43-1.55-1-1.55-1.69a1.69,1.69,0,0,1,.46-1.15,2.85,2.85,0,0,1,2.25-.92A3.15,3.15,0,0,1,90.56,4a1.84,1.84,0,0,1,1,1.59Z"/><path class="cls-1" d="M94.48,4.67a2.84,2.84,0,0,1,2.31-1.14,2.92,2.92,0,0,1,1.94.74,3.2,3.2,0,0,1,1.11,2.52v4.46h-.62l0-.32V6.79a2.71,2.71,0,0,0-.5-1.59,2.22,2.22,0,0,0-1.91-1,2.28,2.28,0,0,0-1.46.53,2.59,2.59,0,0,0-1,2.09v4.44h-.64V1h.64V4.78Z"/><path class="cls-1" d="M109.72.32h.65V11.23h-.65V.32Z"/><path class="cls-1" d="M120.79,4.67a2.84,2.84,0,0,1,2.31-1.14,3,3,0,0,1,2,.74,3.19,3.19,0,0,1,1.1,2.52v4.12l0,.34h-.63v-.32l0-4.14A2.64,2.64,0,0,0,125,5.2a2.21,2.21,0,0,0-1.91-1,2.3,2.3,0,0,0-1.46.53,2.58,2.58,0,0,0-.94,2.09v4.44h-.64V1h.64V4.78Z"/><path class="cls-1" d="M129,4.77a3.28,3.28,0,0,1,2.6-1.24,3.64,3.64,0,0,1,.56.05,3.41,3.41,0,0,1,2.33,1.59V3.53h.64v7.7h-.64V9.6c-.09.12-.18.26-.29.4a3.36,3.36,0,0,1-4.93.29,3.87,3.87,0,0,1-1.2-2.91A4,4,0,0,1,129,4.77Zm.39,4.68a2.65,2.65,0,0,0,2.21,1.14,2.68,2.68,0,0,0,1.83-.72,3.23,3.23,0,0,0,1.06-2.49,3.4,3.4,0,0,0-.68-2.07,2.7,2.7,0,0,0-4-.42,3.22,3.22,0,0,0-1.06,2.49A3.4,3.4,0,0,0,129.4,9.45Z"/><path class="cls-1" d="M138,4.77a3.27,3.27,0,0,1,2.6-1.24,3.75,3.75,0,0,1,.56.05,3.37,3.37,0,0,1,2.32,1.59V0h.65V11.23h-.65V9.6l-.28.4a3.36,3.36,0,0,1-4.93.29,3.87,3.87,0,0,1-1.2-2.91A4,4,0,0,1,138,4.77Zm.38,4.68a2.68,2.68,0,0,0,2.22,1.14,2.64,2.64,0,0,0,1.82-.72,3.19,3.19,0,0,0,1.06-2.49,3.39,3.39,0,0,0-.67-2.07,2.67,2.67,0,0,0-2.21-1.14,2.65,2.65,0,0,0-1.83.72,3.22,3.22,0,0,0-1.06,2.49A3.39,3.39,0,0,0,138.38,9.45Z"/><path class="cls-1" d="M153.67,2.23V1.59h.66v.64h-.66Zm0,1.3h.65v7.7h-.65V3.53Z"/><path class="cls-1" d="M162.92,11.25h-.63l0-.32V6.79a2.71,2.71,0,0,0-.5-1.59,2.22,2.22,0,0,0-1.91-1,2.3,2.3,0,0,0-1.46.53,2.59,2.59,0,0,0-.95,2.09v4.44h-.64V3.53h.64V4.78l.1-.11a2.84,2.84,0,0,1,2.31-1.14,2.92,2.92,0,0,1,1.94.74,3.2,3.2,0,0,1,1.11,2.52v4.12Z"/><path class="cls-1" d="M166.45,9.13v.14c.08.88.72,1.32,1.91,1.32h.32v.64h-.32a4.41,4.41,0,0,1-.52,0q-2-.21-2-2.07v-5h-1.3V3.53h1.3v-2h.65v2h2.23v.64h-2.23Z"/><path class="cls-1" d="M171,4.93a3.41,3.41,0,0,1,3-1.4h.32v.64h-.32a3.23,3.23,0,0,0-1.59.39,2.85,2.85,0,0,0-1.43,2.68v4h-.64V3.53h.64V5Z"/><path class="cls-1" d="M176,4.77a3.34,3.34,0,0,1,4.93-.29,3.86,3.86,0,0,1,1.2,2.9,4,4,0,0,1-.93,2.62,3.35,3.35,0,0,1-4.92.29,3.84,3.84,0,0,1-1.21-2.91A4,4,0,0,1,176,4.77Zm.39,4.68a2.7,2.7,0,0,0,4,.42,3.19,3.19,0,0,0,1.06-2.49,3.39,3.39,0,0,0-.67-2.07,2.71,2.71,0,0,0-4.05-.42,3.25,3.25,0,0,0-1,2.49A3.39,3.39,0,0,0,176.38,9.45Z"/><path class="cls-1" d="M184.34,4.77a3.27,3.27,0,0,1,2.6-1.24,3.64,3.64,0,0,1,.56.05,3.41,3.41,0,0,1,2.33,1.59V0h.64V11.23h-.64V9.6l-.29.4a3.36,3.36,0,0,1-4.93.29,3.87,3.87,0,0,1-1.2-2.91A4,4,0,0,1,184.34,4.77Zm.38,4.68a2.71,2.71,0,0,0,4.05.42,3.23,3.23,0,0,0,1.06-2.49,3.4,3.4,0,0,0-.68-2.07,2.67,2.67,0,0,0-2.21-1.14,2.65,2.65,0,0,0-1.83.72,3.22,3.22,0,0,0-1.06,2.49A3.39,3.39,0,0,0,184.72,9.45Z"/><path class="cls-1" d="M192.73,3.55h.66l0,.32V8.38a2,2,0,0,0,.48,1.31,2.46,2.46,0,0,0,2,.9,2.55,2.55,0,0,0,1.47-.45,2,2,0,0,0,1-1.76V3.85l0-.3H199l0,.32,0,4.51a2.67,2.67,0,0,1-.67,1.78,3.07,3.07,0,0,1-2.42,1.07,3.22,3.22,0,0,1-2-.69,2.68,2.68,0,0,1-1.09-2.16V3.85Z"/><path class="cls-1" d="M206.88,9.72A3.31,3.31,0,0,1,204,11.23a3.2,3.2,0,0,1-2.28-.93,3.88,3.88,0,0,1-1.2-2.92,4,4,0,0,1,.9-2.58A3.16,3.16,0,0,1,204,3.53a3.34,3.34,0,0,1,2.89,1.41l-.55.35a2.84,2.84,0,0,0-4.14-.41,3.25,3.25,0,0,0-1,2.5,3.45,3.45,0,0,0,.64,2.06,2.62,2.62,0,0,0,2.2,1.15,2.86,2.86,0,0,0,2.36-1.22Z"/><path class="cls-1" d="M214.81,9.69a3.63,3.63,0,0,1-3.05,1.54,3.3,3.3,0,0,1-2.31-.93,3.86,3.86,0,0,1-1.22-2.92,3.93,3.93,0,0,1,.91-2.58,3.25,3.25,0,0,1,2.62-1.27,3.33,3.33,0,0,1,2.33,1,3.86,3.86,0,0,1,1.2,2.9V7.7h-6.4a3.61,3.61,0,0,0,.64,1.74,2.67,2.67,0,0,0,2.23,1.15,3,3,0,0,0,2.53-1.28Zm-.16-2.63a2.83,2.83,0,0,0-.68-1.8,2.76,2.76,0,0,0-2.21-1.09,2.72,2.72,0,0,0-1.65.56,3.15,3.15,0,0,0-1.22,2.33Z"/><path class="cls-1" d="M217.5,4.77a3.3,3.3,0,0,1,2.6-1.24,3.77,3.77,0,0,1,.57.05A3.39,3.39,0,0,1,223,5.17V0h.64V11.23H223V9.6c-.08.12-.18.26-.29.4a3.35,3.35,0,0,1-4.92.29,3.84,3.84,0,0,1-1.21-2.91A4,4,0,0,1,217.5,4.77Zm.39,4.68a2.67,2.67,0,0,0,2.21,1.14,2.65,2.65,0,0,0,1.83-.72A3.19,3.19,0,0,0,223,7.38a3.39,3.39,0,0,0-.67-2.07,2.71,2.71,0,0,0-4-.42,3.25,3.25,0,0,0-1.05,2.49A3.39,3.39,0,0,0,217.89,9.45Z"/><path class="cls-1" d="M238.48,4.61a2.48,2.48,0,0,1,2.07-1.08,2.52,2.52,0,0,1,1.67.64,3,3,0,0,1,1,2.36v4.38l0,.34h-.63v-.32l0-4.4a2.6,2.6,0,0,0-.4-1.41,1.91,1.91,0,0,0-1.65-1,1.87,1.87,0,0,0-1.21.45,2.38,2.38,0,0,0-.85,1.91v4.38l0,.34h-.63v-.32l0-4.08V6.53a2.6,2.6,0,0,0-.4-1.41,1.91,1.91,0,0,0-1.65-1,1.87,1.87,0,0,0-1.21.45,2.38,2.38,0,0,0-.85,1.91v4.7h-.64V3.53h.64V4.59a2.52,2.52,0,0,1,2.06-1.06,2.16,2.16,0,0,1,.66.1,2.62,2.62,0,0,1,1.71,1.47A3.66,3.66,0,0,1,238.48,4.61Z"/><path class="cls-1" d="M250.32,3.74l.08-.21h.69l-.16.43L248.22,11A8.85,8.85,0,0,1,247,13.45a2.26,2.26,0,0,1-1.8.77h-.32v-.64h.32a1.72,1.72,0,0,0,1.06-.33,5.76,5.76,0,0,0,1.33-2.34L244.86,4l-.16-.43h.69l.08.21L247.91,10Z"/><path class="cls-1" d="M257.28,5.6a1.1,1.1,0,0,0-.32-.77,2.3,2.3,0,0,0-1.75-.66,2.72,2.72,0,0,0-1.15.24,1.34,1.34,0,0,0-.92,1.19.8.8,0,0,0,.05.26c.13.34.66.67,1.6,1l1.87.64c1,.43,1.54,1,1.54,1.67a1.64,1.64,0,0,1-.5,1.14,3.27,3.27,0,0,1-2.49.93,3.75,3.75,0,0,1-2-.51,1.81,1.81,0,0,1-1-1.56h.64a1.19,1.19,0,0,0,.37.79,2.78,2.78,0,0,0,2,.64,3.39,3.39,0,0,0,1.33-.26c.68-.27,1-.66,1-1.17a.73.73,0,0,0,0-.25c-.13-.35-.66-.67-1.59-1-1.16-.39-1.78-.6-1.86-.64-1-.43-1.56-1-1.56-1.69A1.7,1.7,0,0,1,253,4.45a2.81,2.81,0,0,1,2.24-.92A3.18,3.18,0,0,1,257,4a1.85,1.85,0,0,1,1,1.59Z"/><path class="cls-1" d="M266.06,9.69A3.63,3.63,0,0,1,263,11.23a3.3,3.3,0,0,1-2.31-.93,3.86,3.86,0,0,1-1.22-2.92,3.94,3.94,0,0,1,.92-2.58A3.22,3.22,0,0,1,263,3.53a3.33,3.33,0,0,1,2.33,1,3.86,3.86,0,0,1,1.2,2.9V7.7h-6.4a3.61,3.61,0,0,0,.64,1.74A2.67,2.67,0,0,0,263,10.59a3.07,3.07,0,0,0,2.54-1.28Zm-.16-2.63a2.87,2.87,0,0,0-.67-1.8A2.79,2.79,0,0,0,263,4.17a2.72,2.72,0,0,0-1.65.56,3.15,3.15,0,0,0-1.22,2.33Z"/><path class="cls-1" d="M268.47,0h.64V11.23h-.64V0Z"/><path class="cls-1" d="M274.45,3.53h.32v.64h-2.24v7.06h-.65V4.17H270.6V3.53h1.3a5.05,5.05,0,0,1,.31-1.6A2.24,2.24,0,0,1,274.45.3h.32V1h-.32a1.61,1.61,0,0,0-.61.11c-.78.3-1.21,1.12-1.3,2.47Z"/><path class="cls-1" d="M284.21,4.78a3.24,3.24,0,0,1,2.61-1.25,3.28,3.28,0,0,1,2.31,1,3.83,3.83,0,0,1,1.21,2.9,4,4,0,0,1-.93,2.62,3.32,3.32,0,0,1-2.6,1.23,2.65,2.65,0,0,1-.56-.05,3.4,3.4,0,0,1-2.33-1.58v4.62h-.64V3.53h.64V5.18A4.41,4.41,0,0,1,284.21,4.78Zm.38,4.67a2.71,2.71,0,0,0,4.05.42,3.23,3.23,0,0,0,1.06-2.49A3.47,3.47,0,0,0,289,5.29a2.68,2.68,0,0,0-4-.41,3.46,3.46,0,0,0-.42,4.57Z"/><path class="cls-1" d="M293,4.93a3.43,3.43,0,0,1,3-1.4h.32v.64h-.32a3.23,3.23,0,0,0-1.59.39,2.84,2.84,0,0,0-1.42,2.68v4h-.65V3.53h.65V5Z"/><path class="cls-1" d="M298,4.77a3.33,3.33,0,0,1,4.92-.29,3.87,3.87,0,0,1,1.21,2.9,4,4,0,0,1-.94,2.62,3.35,3.35,0,0,1-4.92.29A3.88,3.88,0,0,1,297,7.38,4,4,0,0,1,298,4.77Zm.38,4.68a2.68,2.68,0,0,0,2.22,1.14,2.64,2.64,0,0,0,1.82-.72,3.19,3.19,0,0,0,1.06-2.49,3.39,3.39,0,0,0-.67-2.07,2.67,2.67,0,0,0-2.21-1.14,2.65,2.65,0,0,0-1.83.72,3.22,3.22,0,0,0-1.06,2.49A3.39,3.39,0,0,0,298.36,9.45Z"/><path class="cls-1" d="M307,4.78a3.26,3.26,0,0,1,2.62-1.25,3.31,3.31,0,0,1,2.31,1,3.86,3.86,0,0,1,1.2,2.9,4,4,0,0,1-.93,2.62,3.3,3.3,0,0,1-2.6,1.23,2.71,2.71,0,0,1-.56-.05,3.43,3.43,0,0,1-2.33-1.58v4.62H306V3.53h.64V5.18C306.76,5.05,306.85,4.92,307,4.78Zm.39,4.67a2.7,2.7,0,0,0,4,.42,3.19,3.19,0,0,0,1.06-2.49,3.41,3.41,0,0,0-.69-2.09,2.68,2.68,0,0,0-4-.41,3.45,3.45,0,0,0-.41,4.57Z"/><path class="cls-1" d="M321,9.69a3.61,3.61,0,0,1-3.05,1.54,3.34,3.34,0,0,1-2.31-.93,3.86,3.86,0,0,1-1.22-2.92,3.94,3.94,0,0,1,.92-2.58,3.23,3.23,0,0,1,2.61-1.27,3.31,3.31,0,0,1,2.33,1,3.86,3.86,0,0,1,1.2,2.9V7.7H315a3.71,3.71,0,0,0,.64,1.74,2.68,2.68,0,0,0,2.23,1.15,3.06,3.06,0,0,0,2.54-1.28Zm-.16-2.63a2.82,2.82,0,0,0-.67-1.8,2.79,2.79,0,0,0-2.22-1.09,2.74,2.74,0,0,0-1.65.56A3.19,3.19,0,0,0,315,7.06Z"/><path class="cls-1" d="M324.05,4.93a3.41,3.41,0,0,1,3-1.4h.32v.64H327a3.23,3.23,0,0,0-1.59.39A2.85,2.85,0,0,0,324,7.24v4h-.64V3.53H324V5Z"/><path class="cls-1" d="M328.78,0h.65V11.23h-.65V0Z"/><path class="cls-1" d="M336.39,3.74l.08-.21h.69L337,4,334.29,11A8.85,8.85,0,0,1,333,13.45a2.26,2.26,0,0,1-1.8.77h-.32v-.64h.32a1.7,1.7,0,0,0,1.06-.33,5.76,5.76,0,0,0,1.33-2.34L330.93,4l-.16-.43h.69l.08.21L334,10Z"/><path class="cls-1" d="M348.73,3.53h.32v.64H346.8v7.06h-.64V4.17h-1.28V3.53h1.3a5.36,5.36,0,0,1,.3-1.6A2.26,2.26,0,0,1,348.73.3h.32V1h-.32a1.54,1.54,0,0,0-.61.11c-.78.3-1.22,1.12-1.3,2.47Z"/><path class="cls-1" d="M351.34,4.93a3.43,3.43,0,0,1,3-1.4h.32v.64h-.32a3.26,3.26,0,0,0-1.59.39,2.84,2.84,0,0,0-1.42,2.68v4h-.64V3.53h.64V5Z"/><path class="cls-1" d="M356.37,4.77a3.33,3.33,0,0,1,4.92-.29,3.87,3.87,0,0,1,1.21,2.9,4,4,0,0,1-.93,2.62,3.36,3.36,0,0,1-4.93.29,3.87,3.87,0,0,1-1.2-2.91A4,4,0,0,1,356.37,4.77Zm.38,4.68A2.68,2.68,0,0,0,359,10.59a2.64,2.64,0,0,0,1.82-.72,3.19,3.19,0,0,0,1.06-2.49,3.39,3.39,0,0,0-.67-2.07A2.67,2.67,0,0,0,359,4.17a2.65,2.65,0,0,0-1.83.72,3.22,3.22,0,0,0-1.06,2.49A3.39,3.39,0,0,0,356.75,9.45Z"/><path class="cls-1" d="M369.8,4.61a2.48,2.48,0,0,1,2.07-1.08,2.52,2.52,0,0,1,1.67.64,3,3,0,0,1,1,2.36v4.38l0,.34H374v-.32l0-4.4a2.6,2.6,0,0,0-.4-1.41,1.91,1.91,0,0,0-1.65-1,1.87,1.87,0,0,0-1.21.45,2.38,2.38,0,0,0-.85,1.91v4.38l0,.34h-.63v-.32l0-4.08V6.53a2.6,2.6,0,0,0-.4-1.41,1.91,1.91,0,0,0-1.65-1,1.83,1.83,0,0,0-1.2.45,2.35,2.35,0,0,0-.86,1.91v4.7h-.64V3.53h.64V4.59a2.52,2.52,0,0,1,2.06-1.06,2.16,2.16,0,0,1,.66.1,2.6,2.6,0,0,1,1.71,1.47A3.66,3.66,0,0,1,369.8,4.61Z"/><path class="cls-1" d="M385,9.13v.14c.08.88.72,1.32,1.91,1.32h.32v.64h-.32a4.36,4.36,0,0,1-.51,0q-2-.21-2-2.07v-5h-1.3V3.53h1.3v-2H385v2h2.23v.64H385Z"/><path class="cls-1" d="M389.58,4.67a2.84,2.84,0,0,1,2.31-1.14,2.91,2.91,0,0,1,1.94.74,3.2,3.2,0,0,1,1.11,2.52v4.12l0,.34h-.63v-.32l0-4.14a2.71,2.71,0,0,0-.5-1.59,2.22,2.22,0,0,0-1.91-1,2.3,2.3,0,0,0-1.46.53,2.58,2.58,0,0,0-.94,2.09v4.44h-.65V1h.65V4.78Z"/><path class="cls-1" d="M403.45,9.69a3.63,3.63,0,0,1-3.05,1.54,3.3,3.3,0,0,1-2.31-.93,3.82,3.82,0,0,1-1.22-2.92,3.93,3.93,0,0,1,.91-2.58,3.25,3.25,0,0,1,2.62-1.27,3.3,3.3,0,0,1,2.32,1,3.83,3.83,0,0,1,1.21,2.9V7.7h-6.4a3.51,3.51,0,0,0,.64,1.74,2.67,2.67,0,0,0,2.23,1.15,3,3,0,0,0,2.53-1.28Zm-.16-2.63a2.83,2.83,0,0,0-.68-1.8,2.79,2.79,0,0,0-2.21-1.09,2.72,2.72,0,0,0-1.65.56,3.15,3.15,0,0,0-1.22,2.33Z"/><path class="cls-1" d="M412.75.32V0h.64V5.17l.29-.39a3.33,3.33,0,0,1,4.93-.3,3.86,3.86,0,0,1,1.2,2.9,4,4,0,0,1-.93,2.62,3.29,3.29,0,0,1-2.6,1.23,2.59,2.59,0,0,1-.56-.05,3.43,3.43,0,0,1-2.33-1.58v1.63h-.64V.32Zm1.33,9.13a2.69,2.69,0,0,0,4,.42,3.19,3.19,0,0,0,1.06-2.49,3.39,3.39,0,0,0-.67-2.07,2.71,2.71,0,0,0-4.05-.42,3.27,3.27,0,0,0-1.06,2.51A3.27,3.27,0,0,0,414.08,9.45Z"/><path class="cls-1" d="M427.68,9.69a3.63,3.63,0,0,1-3.05,1.54,3.3,3.3,0,0,1-2.31-.93,3.82,3.82,0,0,1-1.22-2.92A3.93,3.93,0,0,1,422,4.8a3.25,3.25,0,0,1,2.62-1.27,3.3,3.3,0,0,1,2.32,1,3.83,3.83,0,0,1,1.21,2.9V7.7h-6.41a3.62,3.62,0,0,0,.65,1.74,2.65,2.65,0,0,0,2.23,1.15,3,3,0,0,0,2.53-1.28Zm-.16-2.63a2.83,2.83,0,0,0-.68-1.8A2.77,2.77,0,0,0,423,4.73a3.22,3.22,0,0,0-1.22,2.33Z"/><path class="cls-1" d="M430.37,4.77A3.28,3.28,0,0,1,433,3.53a3.64,3.64,0,0,1,.56.05,3.39,3.39,0,0,1,2.33,1.59V3.55h.67v.32l0,7a3.15,3.15,0,0,1-.77,2A3.41,3.41,0,0,1,433,14.22h-.32v-.64H433a2.87,2.87,0,0,0,2-.87,2.52,2.52,0,0,0,.84-1.8V9.6c-.09.12-.18.26-.29.4a3.36,3.36,0,0,1-4.93.29,3.87,3.87,0,0,1-1.2-2.91A4,4,0,0,1,430.37,4.77Zm.39,4.68a2.7,2.7,0,0,0,4,.42,3.19,3.19,0,0,0,1.06-2.49,3.46,3.46,0,0,0-.67-2.07,2.71,2.71,0,0,0-4.05-.42,3.26,3.26,0,0,0-1.06,2.49A3.4,3.4,0,0,0,430.76,9.45Z"/><path class="cls-1" d="M439.15,2.23V1.59h.66v.64h-.66Zm0,1.3h.64v7.7h-.64V3.53Z"/><path class="cls-1" d="M448.39,11.25h-.62l0-.32,0-4.14a2.7,2.7,0,0,0-.49-1.59,2.23,2.23,0,0,0-1.91-1,2.26,2.26,0,0,0-1.46.53,2.59,2.59,0,0,0-.95,2.09v4.44h-.64V3.53h.64V4.78a.47.47,0,0,1,.1-.11,2.84,2.84,0,0,1,2.31-1.14,2.94,2.94,0,0,1,1.94.74,3.2,3.2,0,0,1,1.11,2.52v4.46Z"/><path class="cls-1" d="M457.06,11.25h-.63v-.32l0-4.14a2.71,2.71,0,0,0-.5-1.59,2.22,2.22,0,0,0-1.91-1,2.3,2.3,0,0,0-1.46.53,2.59,2.59,0,0,0-.95,2.09v4.44h-.64V3.53h.64V4.78l.1-.11A2.84,2.84,0,0,1,454,3.53a2.91,2.91,0,0,1,1.94.74A3.2,3.2,0,0,1,457,6.79v4.12Z"/><path class="cls-1" d="M459.69,2.23V1.59h.65v.64h-.65Zm0,1.3h.64v7.7h-.64V3.53Z"/><path class="cls-1" d="M468.93,11.25h-.63v-.32l0-4.14a2.7,2.7,0,0,0-.49-1.59,2.23,2.23,0,0,0-1.91-1,2.26,2.26,0,0,0-1.46.53,2.56,2.56,0,0,0-1,2.09v4.44h-.64V3.53h.64V4.78l.09-.11a2.86,2.86,0,0,1,2.32-1.14,2.94,2.94,0,0,1,1.94.74,3.19,3.19,0,0,1,1.1,2.52v4.12Z"/><path class="cls-1" d="M471.77,4.77a3.28,3.28,0,0,1,2.6-1.24,3.64,3.64,0,0,1,.56.05,3.39,3.39,0,0,1,2.33,1.59V3.55h.67v.32l0,7a3.15,3.15,0,0,1-.77,2,3.41,3.41,0,0,1-2.74,1.35h-.32v-.64h.32a2.87,2.87,0,0,0,2-.87,2.52,2.52,0,0,0,.84-1.8V9.6c-.09.12-.18.26-.29.4a3.36,3.36,0,0,1-4.93.29,3.87,3.87,0,0,1-1.2-2.91A4,4,0,0,1,471.77,4.77Zm.39,4.68a2.65,2.65,0,0,0,2.21,1.14,2.68,2.68,0,0,0,1.83-.72,3.19,3.19,0,0,0,1.06-2.49,3.4,3.4,0,0,0-.68-2.07,2.65,2.65,0,0,0-2.21-1.14,2.68,2.68,0,0,0-1.83.72,3.22,3.22,0,0,0-1.06,2.49A3.4,3.4,0,0,0,472.16,9.45Z"/><path class="cls-1" d="M482,10.06h.66l-.07.39a2.87,2.87,0,0,1-1.62,2.16l-.46.23v-.72l.17-.08a2.29,2.29,0,0,0,1.27-1.72Z"/><path class="cls-1" d="M79,21.32V21h.64v5.17l.29-.39a3.33,3.33,0,0,1,4.93-.3,3.86,3.86,0,0,1,1.2,2.9A4,4,0,0,1,85.14,31a3.29,3.29,0,0,1-2.6,1.23,2.59,2.59,0,0,1-.56,0,3.43,3.43,0,0,1-2.33-1.58v1.63H79V21.32Zm1.33,9.13a2.69,2.69,0,0,0,4,.42,3.19,3.19,0,0,0,1.06-2.49,3.39,3.39,0,0,0-.67-2.07,2.71,2.71,0,0,0-4.05-.42,3.45,3.45,0,0,0-.37,4.56Z"/><path class="cls-1" d="M87.69,24.55h.66v.32l0,4.51a2,2,0,0,0,.48,1.31,2.47,2.47,0,0,0,2,.9,2.56,2.56,0,0,0,1.48-.45,2,2,0,0,0,1-1.76V24.55h.66l0,.32v4.51a2.68,2.68,0,0,1-.68,1.78,3.06,3.06,0,0,1-2.42,1.07,3.19,3.19,0,0,1-2-.69,2.65,2.65,0,0,1-1.09-2.16V24.55Z"/><path class="cls-1" d="M97.11,30.13v.14c.09.88.72,1.32,1.91,1.32h.32v.64H99l-.51,0q-2-.21-2-2.07v-5h-1.3v-.64h1.3v-2h.64v2h2.23v.64H97.11Z"/><path class="cls-1" d="M108.26,21.32h.65V32.23h-.65V21.32Z"/><path class="cls-1" d="M119.58,30.13v.14c.08.88.72,1.32,1.91,1.32h.32v.64h-.32a4.41,4.41,0,0,1-.52,0q-2-.21-2-2.07v-5h-1.3v-.64h1.3v-2h.65v2h2.23v.64h-2.23Z"/><path class="cls-1" d="M124.15,25.67a2.84,2.84,0,0,1,2.31-1.14,2.92,2.92,0,0,1,1.94.74,3.2,3.2,0,0,1,1.11,2.52v4.12l0,.34h-.63l0-.32V27.79a2.71,2.71,0,0,0-.5-1.59,2.22,2.22,0,0,0-1.91-1,2.3,2.3,0,0,0-1.46.53,2.59,2.59,0,0,0-1,2.09v4.44h-.64V22h.64v3.75Z"/><path class="cls-1" d="M132.37,25.77A3.26,3.26,0,0,1,135,24.53a3.31,3.31,0,0,1,2.33.95,3.87,3.87,0,0,1,1.21,2.9,4,4,0,0,1-.94,2.62,3.35,3.35,0,0,1-4.92.29,3.88,3.88,0,0,1-1.21-2.91A4,4,0,0,1,132.37,25.77Zm.38,4.68A2.67,2.67,0,0,0,135,31.59a2.65,2.65,0,0,0,1.83-.72,3.19,3.19,0,0,0,1.06-2.49,3.39,3.39,0,0,0-.67-2.07A2.68,2.68,0,0,0,135,25.17a2.64,2.64,0,0,0-1.82.72,3.22,3.22,0,0,0-1.06,2.49A3.39,3.39,0,0,0,132.75,30.45Z"/><path class="cls-1" d="M140.12,24.55h.65v.32l0,4.51a2,2,0,0,0,.48,1.31,2.48,2.48,0,0,0,2,.9,2.56,2.56,0,0,0,1.48-.45,2,2,0,0,0,1-1.76V24.55h.66v.32l0,4.51a2.72,2.72,0,0,1-.67,1.78,3.09,3.09,0,0,1-2.43,1.07,3.19,3.19,0,0,1-2-.69,2.65,2.65,0,0,1-1.09-2.16V24.85Z"/><path class="cls-1" d="M148.84,25.77a3.3,3.3,0,0,1,2.6-1.24,3.64,3.64,0,0,1,.56,0,3.39,3.39,0,0,1,2.33,1.59V24.55H155l0,.32,0,7a3.09,3.09,0,0,1-.77,2,3.4,3.4,0,0,1-2.74,1.35h-.32v-.64h.32a2.91,2.91,0,0,0,2-.87,2.55,2.55,0,0,0,.83-1.8V30.6c-.08.12-.18.26-.29.4a3.35,3.35,0,0,1-4.92.29,3.84,3.84,0,0,1-1.21-2.91A4,4,0,0,1,148.84,25.77Zm.39,4.68a2.7,2.7,0,0,0,4,.42,3.19,3.19,0,0,0,1.06-2.49,3.39,3.39,0,0,0-.67-2.07,2.71,2.71,0,0,0-4-.42,3.25,3.25,0,0,0-1.05,2.49A3.39,3.39,0,0,0,149.23,30.45Z"/><path class="cls-1" d="M158.28,25.67a2.84,2.84,0,0,1,2.31-1.14,2.92,2.92,0,0,1,1.94.74,3.2,3.2,0,0,1,1.11,2.52v4.12l0,.34H163l0-.32V27.79a2.71,2.71,0,0,0-.5-1.59,2.22,2.22,0,0,0-1.91-1,2.3,2.3,0,0,0-1.46.53,2.59,2.59,0,0,0-.95,2.09v4.44h-.64V22h.64v3.75Z"/><path class="cls-1" d="M167.19,30.13v.14c.08.88.72,1.32,1.9,1.32h.33v.64h-.33l-.51,0q-2-.21-2-2.07v-5h-1.3v-.64h1.3v-2h.65v2h2.23v.64h-2.23Z"/><path class="cls-1" d="M178.9,30.13v.14c.08.88.72,1.32,1.91,1.32h.32v.64h-.32a4.53,4.53,0,0,1-.52,0,2,2,0,0,1-2-2.07v-5H177v-.64h1.3v-2h.64v2h2.23v.64H178.9Z"/><path class="cls-1" d="M183.47,25.67a2.84,2.84,0,0,1,2.31-1.14,2.91,2.91,0,0,1,1.94.74,3.2,3.2,0,0,1,1.11,2.52v4.12l0,.34h-.63v-.32l0-4.14a2.71,2.71,0,0,0-.5-1.59,2.22,2.22,0,0,0-1.91-1,2.3,2.3,0,0,0-1.46.53,2.58,2.58,0,0,0-.94,2.09v4.44h-.65V22h.65v3.75Z"/><path class="cls-1" d="M191.48,23.23v-.64h.66v.64h-.66Zm0,1.3h.64v7.7h-.64v-7.7Z"/><path class="cls-1" d="M199,26.6a1.15,1.15,0,0,0-.32-.77,2.3,2.3,0,0,0-1.75-.66,2.8,2.8,0,0,0-1.16.24,1.34,1.34,0,0,0-.91,1.19.8.8,0,0,0,.05.26c.13.34.66.67,1.6,1,1.16.39,1.78.6,1.86.64,1,.43,1.55,1,1.55,1.67a1.64,1.64,0,0,1-.5,1.14,3.27,3.27,0,0,1-2.49.93,3.73,3.73,0,0,1-2-.51,1.81,1.81,0,0,1-1-1.56h.64A1.19,1.19,0,0,0,195,31a2.77,2.77,0,0,0,2,.64,3.39,3.39,0,0,0,1.33-.26c.68-.27,1-.66,1-1.17a.73.73,0,0,0,0-.25c-.13-.35-.66-.67-1.59-1l-1.87-.64c-1-.43-1.55-1-1.55-1.69a1.69,1.69,0,0,1,.46-1.15,2.85,2.85,0,0,1,2.25-.92,3.15,3.15,0,0,1,1.73.48,1.84,1.84,0,0,1,1,1.59Z"/><path class="cls-1" d="M208,24.53h.66l.06.24,1.69,6.15,2.52-6.2.09-.19h.42l.1.19,2.52,6.2,1.68-6.15.07-.24h.65l-.11.4L216.45,32l-.07.24h-.45l-.09-.19-2.59-6.34L210.67,32l-.1.19h-.45l-.06-.24-1.93-7.06Z"/><path class="cls-1" d="M220.6,25.77a3.28,3.28,0,0,1,2.6-1.24,3.33,3.33,0,0,1,2.33.95,3.86,3.86,0,0,1,1.2,2.9A4,4,0,0,1,225.8,31a3.35,3.35,0,0,1-4.92.29,3.84,3.84,0,0,1-1.21-2.91A4,4,0,0,1,220.6,25.77Zm.39,4.68a2.7,2.7,0,0,0,4,.42,3.19,3.19,0,0,0,1.06-2.49,3.39,3.39,0,0,0-.67-2.07,2.71,2.71,0,0,0-4-.42,3.26,3.26,0,0,0-1.06,2.49A3.4,3.4,0,0,0,221,30.45Z"/><path class="cls-1" d="M228.35,24.55H229l0,.32v4.51a2,2,0,0,0,.48,1.31,2.46,2.46,0,0,0,2,.9,2.53,2.53,0,0,0,1.47-.45,2,2,0,0,0,1-1.76V24.85l0-.3h.66l0,.32v4.51a2.68,2.68,0,0,1-.68,1.78,3.07,3.07,0,0,1-2.42,1.07,3.19,3.19,0,0,1-2-.69,2.65,2.65,0,0,1-1.09-2.16V24.55Z"/><path class="cls-1" d="M236.79,21h.64V32.23h-.64V21Z"/><path class="cls-1" d="M240.18,25.77a3.27,3.27,0,0,1,2.6-1.24,3.64,3.64,0,0,1,.56,0,3.41,3.41,0,0,1,2.33,1.59V21h.64V32.23h-.64V30.6l-.29.4a3.36,3.36,0,0,1-4.93.29,3.87,3.87,0,0,1-1.2-2.91A4,4,0,0,1,240.18,25.77Zm.38,4.68a2.71,2.71,0,0,0,4.05.42,3.23,3.23,0,0,0,1.06-2.49,3.4,3.4,0,0,0-.68-2.07,2.7,2.7,0,0,0-4-.42,3.22,3.22,0,0,0-1.06,2.49A3.39,3.39,0,0,0,240.56,30.45Z"/><path class="cls-1" d="M255.78,21.32V21h.64v5.17a3.58,3.58,0,0,1,2.88-1.64,3.31,3.31,0,0,1,2.33.95,3.86,3.86,0,0,1,1.2,2.9A3.93,3.93,0,0,1,261.9,31a3.29,3.29,0,0,1-2.6,1.23,2.59,2.59,0,0,1-.56,0,3.39,3.39,0,0,1-2.32-1.58v1.63h-.64V21.32Zm1.33,9.13a2.68,2.68,0,0,0,4,.42,3.19,3.19,0,0,0,1.06-2.49,3.39,3.39,0,0,0-.67-2.07,2.68,2.68,0,0,0-2.22-1.14,2.64,2.64,0,0,0-1.82.72,3.24,3.24,0,0,0-1.06,2.51A3.27,3.27,0,0,0,257.11,30.45Z"/><path class="cls-1" d="M270.7,30.69a3.63,3.63,0,0,1-3.05,1.54,3.3,3.3,0,0,1-2.31-.93,3.86,3.86,0,0,1-1.22-2.92A3.93,3.93,0,0,1,265,25.8a3.25,3.25,0,0,1,2.62-1.27,3.33,3.33,0,0,1,2.33.95,3.86,3.86,0,0,1,1.2,2.9v.32h-6.4a3.61,3.61,0,0,0,.64,1.74,2.67,2.67,0,0,0,2.23,1.15,3,3,0,0,0,2.53-1.28Zm-.16-2.63a2.83,2.83,0,0,0-.68-1.8,2.77,2.77,0,0,0-2.21-1.09,2.72,2.72,0,0,0-1.65.56,3.15,3.15,0,0,0-1.22,2.33Z"/><path class="cls-1" d="M280.29,25.77a3.3,3.3,0,0,1,2.6-1.24,3.64,3.64,0,0,1,.56,0,3.39,3.39,0,0,1,2.33,1.59V24.53h.64v7.7h-.64V30.6c-.08.12-.18.26-.29.4a3.35,3.35,0,0,1-4.92.29,3.84,3.84,0,0,1-1.21-2.91A4,4,0,0,1,280.29,25.77Zm.39,4.68a2.7,2.7,0,0,0,4,.42,3.19,3.19,0,0,0,1.06-2.49,3.39,3.39,0,0,0-.67-2.07,2.71,2.71,0,0,0-4.05-.42A3.26,3.26,0,0,0,280,28.38,3.4,3.4,0,0,0,280.68,30.45Z"/><path class="cls-1" d="M295.89,21.32V21h.64v5.17c.09-.13.18-.26.29-.39a3.33,3.33,0,0,1,4.93-.3,3.86,3.86,0,0,1,1.2,2.9A4,4,0,0,1,302,31a3.3,3.3,0,0,1-2.6,1.23,2.59,2.59,0,0,1-.56,0,3.4,3.4,0,0,1-2.33-1.58v1.63h-.64V21.32Zm1.33,9.13a2.69,2.69,0,0,0,4,.42,3.19,3.19,0,0,0,1.06-2.49,3.4,3.4,0,0,0-.68-2.07,2.65,2.65,0,0,0-2.21-1.14,2.68,2.68,0,0,0-1.83.72,3.24,3.24,0,0,0-1.06,2.51A3.27,3.27,0,0,0,297.22,30.45Z"/><path class="cls-1" d="M310.81,30.69a3.61,3.61,0,0,1-3.05,1.54,3.34,3.34,0,0,1-2.31-.93,3.86,3.86,0,0,1-1.22-2.92,3.94,3.94,0,0,1,.92-2.58,3.23,3.23,0,0,1,2.61-1.27,3.31,3.31,0,0,1,2.33.95,3.86,3.86,0,0,1,1.2,2.9v.32h-6.4a3.71,3.71,0,0,0,.64,1.74,2.68,2.68,0,0,0,2.23,1.15,3.06,3.06,0,0,0,2.54-1.28Zm-.16-2.63a3,3,0,0,0-2.89-2.89,2.76,2.76,0,0,0-1.65.56,3.19,3.19,0,0,0-1.22,2.33Z"/><path class="cls-1" d="M314.2,30.13v.14c.08.88.72,1.32,1.91,1.32h.32v.64h-.32l-.52,0a2,2,0,0,1-2-2.07v-5h-1.3v-.64h1.3v-2h.64v2h2.23v.64H314.2Z"/><path class="cls-1" d="M319,30.13v.14c.09.88.72,1.32,1.91,1.32h.32v.64h-.32l-.51,0q-2-.21-2-2.07v-5h-1.3v-.64h1.3v-2H319v2h2.23v.64H319Z"/><path class="cls-1" d="M328.78,30.69a3.61,3.61,0,0,1-3,1.54,3.34,3.34,0,0,1-2.32-.93,3.85,3.85,0,0,1-1.21-2.92,3.93,3.93,0,0,1,.91-2.58,3.25,3.25,0,0,1,2.62-1.27,3.3,3.3,0,0,1,2.32.95,3.87,3.87,0,0,1,1.21,2.9v.32h-6.41a3.71,3.71,0,0,0,.64,1.74,2.68,2.68,0,0,0,2.24,1.15,3.06,3.06,0,0,0,2.53-1.28Zm-.16-2.63a2.82,2.82,0,0,0-.67-1.8,2.77,2.77,0,0,0-3.87-.53,3.22,3.22,0,0,0-1.22,2.33Z"/><path class="cls-1" d="M331.88,25.93a3.41,3.41,0,0,1,3-1.4h.32v.64h-.32a3.23,3.23,0,0,0-1.59.39,2.85,2.85,0,0,0-1.43,2.68v4h-.64v-7.7h.64V26Z"/><path class="cls-1" d="M342.78,24.53h.65l.07.24,1.68,6.15,2.52-6.2.1-.19h.42l.09.19,2.52,6.2,1.69-6.15.06-.24h.66l-.11.4L351.2,32l-.06.24h-.45l-.1-.19L348,25.7,345.42,32l-.09.19h-.45l-.07-.24-1.92-7.06Z"/><path class="cls-1" d="M355.36,25.77a3.27,3.27,0,0,1,2.6-1.24,3.64,3.64,0,0,1,.56,0,3.37,3.37,0,0,1,2.32,1.59V24.53h.65v7.7h-.65V30.6l-.28.4a3.36,3.36,0,0,1-4.93.29,3.87,3.87,0,0,1-1.2-2.91A4,4,0,0,1,355.36,25.77Zm.38,4.68a2.71,2.71,0,0,0,4.05.42,3.22,3.22,0,0,0,1-2.49,3.39,3.39,0,0,0-.67-2.07A2.67,2.67,0,0,0,358,25.17a2.65,2.65,0,0,0-1.83.72,3.22,3.22,0,0,0-1.06,2.49A3.39,3.39,0,0,0,355.74,30.45Z"/><path class="cls-1" d="M368.56,24.74l.08-.21h.69l-.16.43L366.46,32a8.58,8.58,0,0,1-1.25,2.43,2.26,2.26,0,0,1-1.8.77h-.32v-.64h.32a1.7,1.7,0,0,0,1.06-.33,5.65,5.65,0,0,0,1.33-2.34L363.11,25l-.16-.43h.69l.08.21L366.16,31Z"/><path class="cls-1" d="M371.43,31.61h.65v.32h0v.32h-.65v-.32h0Z"/><path class="cls-1" d="M389.1,27.16a2.69,2.69,0,0,1,.39,4A3.19,3.19,0,0,1,387,32.23h-4.83V21.34h.32l3.84,0a3.32,3.32,0,0,1,2.08.71,2.64,2.64,0,0,1,1.13,2.18,2.49,2.49,0,0,1-.05.46,2.78,2.78,0,0,1-1.41,2A3.38,3.38,0,0,1,389.1,27.16Zm-2.74-.7a2.79,2.79,0,0,0,1.57-.47,2.07,2.07,0,0,0,.48-3.13,2.56,2.56,0,0,0-2.05-.9h-3.53v4.51Zm-3.52,5.15,4.18,0a2.7,2.7,0,0,0,1.55-.48,2,2,0,0,0,1-1.77A2,2,0,0,0,389,28a2.54,2.54,0,0,0-2-.9h-4.18Z"/><path class="cls-1" d="M391.83,24.55h.66l0,.32v4.51a2,2,0,0,0,.48,1.31,2.46,2.46,0,0,0,2,.9,2.55,2.55,0,0,0,1.47-.45,2,2,0,0,0,1-1.76V24.85l0-.3h.66l0,.32,0,4.51a2.67,2.67,0,0,1-.67,1.78,3.07,3.07,0,0,1-2.42,1.07,3.22,3.22,0,0,1-2-.69,2.68,2.68,0,0,1-1.09-2.16V24.85Z"/><path class="cls-1" d="M401.25,30.13v.14c.08.88.72,1.32,1.91,1.32h.32v.64h-.32l-.52,0a2,2,0,0,1-2-2.07v-5h-1.3v-.64h1.3v-2h.64v2h2.23v.64h-2.23Z"/><path class="cls-1" d="M417.7,30.72a3.34,3.34,0,0,1-2.88,1.51,3.23,3.23,0,0,1-2.28-.93,3.88,3.88,0,0,1-1.2-2.92,4,4,0,0,1,.9-2.58,3.18,3.18,0,0,1,2.58-1.27,3.33,3.33,0,0,1,2.89,1.41l-.54.35a2.68,2.68,0,0,0-2.35-1.12,2.6,2.6,0,0,0-1.79.71,3.23,3.23,0,0,0-1,2.5,3.52,3.52,0,0,0,.64,2.06,2.62,2.62,0,0,0,2.2,1.15,2.85,2.85,0,0,0,2.36-1.22Z"/><path class="cls-1" d="M420,25.77a3.3,3.3,0,0,1,2.6-1.24,3.64,3.64,0,0,1,.56,0,3.39,3.39,0,0,1,2.33,1.59V24.53h.64v7.7h-.64V30.6c-.08.12-.18.26-.29.4a3.35,3.35,0,0,1-4.92.29A3.84,3.84,0,0,1,419,28.38,4,4,0,0,1,420,25.77Zm.39,4.68a2.7,2.7,0,0,0,4,.42,3.19,3.19,0,0,0,1.06-2.49,3.39,3.39,0,0,0-.67-2.07,2.71,2.71,0,0,0-4.05-.42,3.25,3.25,0,0,0-1.05,2.49A3.39,3.39,0,0,0,420.36,30.45Z"/><path class="cls-1" d="M434.79,32.25h-.63l0-.32V27.79a2.71,2.71,0,0,0-.5-1.59,2.22,2.22,0,0,0-1.91-1,2.3,2.3,0,0,0-1.46.53,2.59,2.59,0,0,0-.95,2.09v4.44h-.64v-7.7h.64v1.25l.1-.11a2.84,2.84,0,0,1,2.31-1.14,2.92,2.92,0,0,1,1.94.74,3.2,3.2,0,0,1,1.11,2.52v4.12Z"/><path class="cls-1" d="M437,21.32h.64v3.19H437V21.32Z"/><path class="cls-1" d="M440.88,30.13v.14c.09.88.72,1.32,1.91,1.32h.32v.64h-.32l-.51,0q-2-.21-2-2.07v-5h-1.3v-.64h1.3v-2h.64v2h2.23v.64h-2.23Z"/><path class="cls-1" d="M452,21.32h.65V32.23H452V21.32Z"/><path class="cls-1" d="M466.78,26.6a1.15,1.15,0,0,0-.32-.77,2.3,2.3,0,0,0-1.75-.66,2.8,2.8,0,0,0-1.16.24,1.34,1.34,0,0,0-.91,1.19.8.8,0,0,0,.05.26c.13.34.66.67,1.6,1,1.16.39,1.78.6,1.86.64,1,.43,1.55,1,1.55,1.67a1.64,1.64,0,0,1-.5,1.14,3.27,3.27,0,0,1-2.49.93,3.73,3.73,0,0,1-2-.51,1.81,1.81,0,0,1-1-1.56h.64a1.19,1.19,0,0,0,.37.79,2.77,2.77,0,0,0,2,.64,3.39,3.39,0,0,0,1.33-.26c.68-.27,1-.66,1-1.17a.56.56,0,0,0-.05-.25c-.12-.35-.65-.67-1.58-1l-1.87-.64c-1-.43-1.55-1-1.55-1.69a1.69,1.69,0,0,1,.46-1.15,2.85,2.85,0,0,1,2.25-.92,3.15,3.15,0,0,1,1.73.48,1.84,1.84,0,0,1,1,1.59Z"/><path class="cls-1" d="M470.6,30.13v.14c.08.88.72,1.32,1.91,1.32h.32v.64h-.32l-.51,0q-2-.21-2-2.07v-5h-1.3v-.64H470v-2h.64v2h2.23v.64H470.6Z"/><path class="cls-1" d="M474.51,23.23v-.64h.66v.64h-.66Zm0,1.3h.65v7.7h-.65v-7.7Z"/><path class="cls-1" d="M477.64,21h.65V32.23h-.65V21Z"/><path class="cls-1" d="M480.74,21h.64V32.23h-.64V21Z"/><path class="cls-1" d="M483.84,24.51h-.64v-.32a2.83,2.83,0,0,1,.65-1.86,2.94,2.94,0,0,1,2.39-1,3.33,3.33,0,0,1,1.79.53,2.65,2.65,0,0,1,1.26,2.36,2.29,2.29,0,0,1-.24,1,4.43,4.43,0,0,1-1.15,1.31,3.24,3.24,0,0,0-.4.36,2.44,2.44,0,0,0-.92,1.78h0v1h-.64v-1a3.08,3.08,0,0,1,.35-1.45,5.21,5.21,0,0,1,1.25-1.36l.33-.29a2,2,0,0,0,.78-1.38,2.15,2.15,0,0,0-.45-1.35,2.4,2.4,0,0,0-2-.9,2.78,2.78,0,0,0-1.26.29,2.06,2.06,0,0,0-1.14,1.94Zm2.1,7.08h.64v.67h-.64v-.67Z"/><path class="cls-1" d="M106.66,42.32h.64V53.23h-.64V42.32Z"/><path class="cls-1" d="M122.71,51.72a3.34,3.34,0,0,1-2.88,1.51,3.23,3.23,0,0,1-2.28-.93,3.88,3.88,0,0,1-1.2-2.92,4,4,0,0,1,.9-2.58,3.16,3.16,0,0,1,2.58-1.27,3.33,3.33,0,0,1,2.89,1.41l-.54.35a2.68,2.68,0,0,0-2.35-1.12,2.6,2.6,0,0,0-1.79.71,3.23,3.23,0,0,0-1.05,2.5,3.52,3.52,0,0,0,.64,2.06,2.62,2.62,0,0,0,2.2,1.15,2.85,2.85,0,0,0,2.36-1.22Z"/><path class="cls-1" d="M125,46.77a3.3,3.3,0,0,1,2.6-1.24,3.64,3.64,0,0,1,.56,0,3.39,3.39,0,0,1,2.33,1.59V45.53h.64v7.7h-.64V51.6c-.08.12-.18.26-.29.4a3.35,3.35,0,0,1-4.92.29,3.84,3.84,0,0,1-1.21-2.91A4,4,0,0,1,125,46.77Zm.39,4.68a2.7,2.7,0,0,0,4,.42,3.19,3.19,0,0,0,1.06-2.49,3.39,3.39,0,0,0-.67-2.07,2.71,2.71,0,0,0-4.05-.42,3.25,3.25,0,0,0-1,2.49A3.39,3.39,0,0,0,125.37,51.45Z"/><path class="cls-1" d="M139.06,46.61a2.5,2.5,0,0,1,3.73-.44,3,3,0,0,1,1,2.36v4.38l0,.34h-.63v-.32l0-4.4a2.6,2.6,0,0,0-.4-1.41,1.91,1.91,0,0,0-1.65-.95,1.87,1.87,0,0,0-1.21.45,2.38,2.38,0,0,0-.85,1.91v4.38l0,.34h-.63v-.32l0-4.08v-.32a2.6,2.6,0,0,0-.4-1.41,1.91,1.91,0,0,0-1.65-.95,1.87,1.87,0,0,0-1.21.45,2.38,2.38,0,0,0-.85,1.91v4.7h-.64v-7.7h.64v1.06a2.52,2.52,0,0,1,2.06-1.06,2.05,2.05,0,0,1,.65.1,2.62,2.62,0,0,1,1.72,1.47A3.66,3.66,0,0,1,139.06,46.61Z"/><path class="cls-1" d="M152.33,51.69a3.63,3.63,0,0,1-3.05,1.54A3.3,3.3,0,0,1,147,52.3a3.82,3.82,0,0,1-1.22-2.92,3.93,3.93,0,0,1,.91-2.58,3.25,3.25,0,0,1,2.62-1.27,3.3,3.3,0,0,1,2.32.95,3.83,3.83,0,0,1,1.21,2.9v.32h-6.4a3.51,3.51,0,0,0,.64,1.74,2.65,2.65,0,0,0,2.23,1.15,3,3,0,0,0,2.53-1.28Zm-.16-2.63a2.83,2.83,0,0,0-.68-1.8,2.77,2.77,0,0,0-3.87-.53,3.18,3.18,0,0,0-1.21,2.33Z"/><path class="cls-1" d="M162.37,46.67a2.84,2.84,0,0,1,2.31-1.14,2.92,2.92,0,0,1,1.94.74,3.2,3.2,0,0,1,1.11,2.52v4.12l0,.34h-.63l0-.32V48.79a2.71,2.71,0,0,0-.5-1.59,2.22,2.22,0,0,0-1.91-1,2.3,2.3,0,0,0-1.46.53,2.59,2.59,0,0,0-.95,2.09v4.44h-.64V43h.64v3.75Z"/><path class="cls-1" d="M176.23,51.69a3.61,3.61,0,0,1-3,1.54,3.3,3.3,0,0,1-2.31-.93,3.82,3.82,0,0,1-1.22-2.92,3.93,3.93,0,0,1,.91-2.58,3.25,3.25,0,0,1,2.62-1.27,3.3,3.3,0,0,1,2.32.95,3.87,3.87,0,0,1,1.21,2.9v.32h-6.41a3.62,3.62,0,0,0,.65,1.74,2.65,2.65,0,0,0,2.23,1.15,3.06,3.06,0,0,0,2.53-1.28Zm-.16-2.63a2.82,2.82,0,0,0-.67-1.8,2.77,2.77,0,0,0-3.87-.53,3.22,3.22,0,0,0-1.22,2.33Z"/><path class="cls-1" d="M179.33,46.93a3.41,3.41,0,0,1,3-1.4h.32v.64h-.32a3.23,3.23,0,0,0-1.59.39,2.85,2.85,0,0,0-1.43,2.68v4h-.64v-7.7h.64V47Z"/><path class="cls-1" d="M190,51.69A3.61,3.61,0,0,1,187,53.23a3.34,3.34,0,0,1-2.31-.93,3.86,3.86,0,0,1-1.22-2.92,3.94,3.94,0,0,1,.92-2.58A3.22,3.22,0,0,1,187,45.53a3.31,3.31,0,0,1,2.33.95,3.86,3.86,0,0,1,1.2,2.9v.32h-6.4a3.71,3.71,0,0,0,.64,1.74A2.67,2.67,0,0,0,187,52.59a3.06,3.06,0,0,0,2.54-1.28Zm-.16-2.63A3,3,0,0,0,187,46.17a2.72,2.72,0,0,0-1.65.56,3.19,3.19,0,0,0-1.22,2.33Z"/><path class="cls-1" d="M199.31,45.29h-.64V45a2.65,2.65,0,0,1,.74-1.86A3.39,3.39,0,0,1,202.05,42a3.6,3.6,0,0,1,2.25.74A2.71,2.71,0,0,1,205.44,45a3.57,3.57,0,0,1-1,2.32A16.5,16.5,0,0,1,202,49.43l-1.21.93a3.26,3.26,0,0,0-1.48,2.25h6.13v.64h-6.77v-.32a3.05,3.05,0,0,1,.33-1.35,8.66,8.66,0,0,1,2.28-2.41c1.17-.92,1.81-1.43,1.93-1.54A3.83,3.83,0,0,0,204.8,45a2.1,2.1,0,0,0-.56-1.41,2.81,2.81,0,0,0-2.19-.92,3,3,0,0,0-1.7.5,2.14,2.14,0,0,0-1,1.83Z"/><path class="cls-1" d="M207.81,43.49A2.83,2.83,0,0,1,210.14,42a2.72,2.72,0,0,1,2.13,1.28,7.19,7.19,0,0,1,1.22,4.34,7.42,7.42,0,0,1-1.09,4.14,2.72,2.72,0,0,1-2.26,1.49A2.79,2.79,0,0,1,208,52a7.06,7.06,0,0,1-1.24-4.33A7.47,7.47,0,0,1,207.81,43.49Zm.31,7.54c.53,1,1.21,1.58,2,1.58a2.16,2.16,0,0,0,1.73-1.14,6.9,6.9,0,0,0,1-3.85,7.37,7.37,0,0,0-.74-3.42c-.53-1-1.19-1.56-2-1.56a2.22,2.22,0,0,0-1.78,1.16,6.77,6.77,0,0,0-1,3.82A7.36,7.36,0,0,0,208.12,51Z"/><path class="cls-1" d="M216.91,52.06h.66l-.06.39a2.9,2.9,0,0,1-1.63,2.16l-.46.23v-.72l.18-.08a2.3,2.3,0,0,0,1.26-1.72Z"/><path class="cls-1" d="M219.72,43.49A2.82,2.82,0,0,1,222.05,42a2.72,2.72,0,0,1,2.13,1.28,7.26,7.26,0,0,1,1.22,4.34,7.42,7.42,0,0,1-1.09,4.14,2.73,2.73,0,0,1-2.26,1.49,2.81,2.81,0,0,1-2.19-1.3,7.12,7.12,0,0,1-1.23-4.33A7.39,7.39,0,0,1,219.72,43.49ZM220,51c.54,1,1.21,1.58,2,1.58a2.16,2.16,0,0,0,1.73-1.14,7,7,0,0,0,1-3.85A7.5,7.5,0,0,0,224,44.2c-.54-1-1.19-1.56-2-1.56a2.23,2.23,0,0,0-1.79,1.16,6.77,6.77,0,0,0-1,3.82A7.36,7.36,0,0,0,220,51Z"/><path class="cls-1" d="M227.78,43.49A2.81,2.81,0,0,1,230.1,42a2.76,2.76,0,0,1,2.14,1.28,7.26,7.26,0,0,1,1.22,4.34,7.43,7.43,0,0,1-1.1,4.14,2.72,2.72,0,0,1-2.26,1.49,2.79,2.79,0,0,1-2.18-1.3,7.12,7.12,0,0,1-1.24-4.33A7.39,7.39,0,0,1,227.78,43.49Zm.3,7.54c.53,1,1.21,1.58,2,1.58a2.16,2.16,0,0,0,1.73-1.14,6.9,6.9,0,0,0,1-3.85,7.49,7.49,0,0,0-.73-3.42q-.81-1.56-2-1.56a2.22,2.22,0,0,0-1.78,1.16,6.77,6.77,0,0,0-1,3.82A7.36,7.36,0,0,0,228.08,51Z"/><path class="cls-1" d="M235.83,43.49A2.82,2.82,0,0,1,238.16,42a2.72,2.72,0,0,1,2.13,1.28,7.26,7.26,0,0,1,1.22,4.34,7.42,7.42,0,0,1-1.09,4.14,2.73,2.73,0,0,1-2.26,1.49A2.81,2.81,0,0,1,236,52a7.12,7.12,0,0,1-1.23-4.33A7.39,7.39,0,0,1,235.83,43.49Zm.3,7.54c.54,1,1.21,1.58,2,1.58a2.16,2.16,0,0,0,1.73-1.14,7,7,0,0,0,1-3.85,7.5,7.5,0,0,0-.74-3.42c-.54-1-1.19-1.56-2-1.56a2.21,2.21,0,0,0-1.78,1.16,6.7,6.7,0,0,0-1,3.82A7.36,7.36,0,0,0,236.13,51Z"/><path class="cls-1" d="M250.34,42H251V53.23h-.64V42Z"/><path class="cls-1" d="M253.51,44.23v-.64h.66v.64h-.66Zm0,1.3h.65v7.7h-.65v-7.7Z"/><path class="cls-1" d="M256.93,46.77a3.28,3.28,0,0,1,2.6-1.24,3.64,3.64,0,0,1,.56,0,3.39,3.39,0,0,1,2.33,1.59V45.55h.67v.32l0,7a3.15,3.15,0,0,1-.77,2,3.41,3.41,0,0,1-2.74,1.35h-.32v-.64h.32a2.87,2.87,0,0,0,2-.87,2.52,2.52,0,0,0,.84-1.8V51.6c-.09.12-.18.26-.29.4a3.36,3.36,0,0,1-4.93.29,3.87,3.87,0,0,1-1.2-2.91A4,4,0,0,1,256.93,46.77Zm.39,4.68a2.65,2.65,0,0,0,2.21,1.14,2.68,2.68,0,0,0,1.83-.72,3.19,3.19,0,0,0,1.06-2.49,3.46,3.46,0,0,0-.67-2.07,2.71,2.71,0,0,0-4.05-.42,3.26,3.26,0,0,0-1.06,2.49A3.4,3.4,0,0,0,257.32,51.45Z"/><path class="cls-1" d="M266.37,46.67a2.84,2.84,0,0,1,2.31-1.14,2.94,2.94,0,0,1,1.94.74,3.19,3.19,0,0,1,1.1,2.52v4.12l0,.34h-.62l0-.32,0-4.14a2.7,2.7,0,0,0-.49-1.59,2.23,2.23,0,0,0-1.91-1,2.26,2.26,0,0,0-1.46.53,2.56,2.56,0,0,0-1,2.09v4.44h-.64V43h.64v3.75A.47.47,0,0,1,266.37,46.67Z"/><path class="cls-1" d="M275.27,51.13v.14c.09.88.72,1.32,1.91,1.32h.32v.64h-.32l-.51,0q-2-.21-2-2.07v-5h-1.3v-.64h1.3v-2h.64v2h2.23v.64h-2.23Z"/><path class="cls-1" d="M290.52,45.74l.08-.21h.69l-.17.43L288.41,53a8.33,8.33,0,0,1-1.25,2.43,2.26,2.26,0,0,1-1.8.77H285v-.64h.32a1.7,1.7,0,0,0,1.06-.33,5.75,5.75,0,0,0,1.34-2.34L285.06,46l-.16-.43h.69l.08.21L288.11,52Z"/><path class="cls-1" d="M299,51.69A3.61,3.61,0,0,1,296,53.23a3.34,3.34,0,0,1-2.31-.93,3.86,3.86,0,0,1-1.22-2.92,3.94,3.94,0,0,1,.92-2.58A3.23,3.23,0,0,1,296,45.53a3.31,3.31,0,0,1,2.33.95,3.86,3.86,0,0,1,1.2,2.9v.32h-6.4a3.71,3.71,0,0,0,.64,1.74A2.67,2.67,0,0,0,296,52.59a3.06,3.06,0,0,0,2.54-1.28Zm-.16-2.63A3,3,0,0,0,296,46.17a2.74,2.74,0,0,0-1.65.56,3.19,3.19,0,0,0-1.22,2.33Z"/><path class="cls-1" d="M301.7,46.77a3.28,3.28,0,0,1,2.6-1.24,3.64,3.64,0,0,1,.56,0,3.41,3.41,0,0,1,2.33,1.59V45.53h.64v7.7h-.64V51.6l-.29.4a3.36,3.36,0,0,1-4.93.29,3.87,3.87,0,0,1-1.2-2.91A4,4,0,0,1,301.7,46.77Zm.38,4.68a2.71,2.71,0,0,0,4.05.42,3.23,3.23,0,0,0,1.06-2.49,3.4,3.4,0,0,0-.68-2.07,2.7,2.7,0,0,0-4-.42,3.22,3.22,0,0,0-1.06,2.49A3.46,3.46,0,0,0,302.08,51.45Z"/><path class="cls-1" d="M311.09,46.93a3.4,3.4,0,0,1,3-1.4h.33v.64h-.33a3.22,3.22,0,0,0-1.58.39A2.85,2.85,0,0,0,311,49.24v4h-.64v-7.7H311V47Z"/><path class="cls-1" d="M320.23,47.6a1.1,1.1,0,0,0-.32-.77,2.3,2.3,0,0,0-1.75-.66,2.75,2.75,0,0,0-1.15.24,1.34,1.34,0,0,0-.92,1.19.8.8,0,0,0,.05.26c.13.34.66.67,1.61,1l1.86.64c1,.43,1.54,1,1.54,1.67a1.64,1.64,0,0,1-.5,1.14,3.27,3.27,0,0,1-2.49.93,3.75,3.75,0,0,1-2-.51,1.81,1.81,0,0,1-1-1.56h.64a1.19,1.19,0,0,0,.37.79,2.78,2.78,0,0,0,2,.64,3.39,3.39,0,0,0,1.33-.26c.68-.27,1-.66,1-1.17a.73.73,0,0,0,0-.25c-.13-.35-.66-.67-1.59-1-1.16-.39-1.78-.6-1.86-.64-1-.43-1.56-1-1.56-1.69a1.7,1.7,0,0,1,.47-1.15,2.81,2.81,0,0,1,2.24-.92,3.18,3.18,0,0,1,1.74.48,1.85,1.85,0,0,1,1,1.59Z"/><path class="cls-1" d="M331,51.13v.14c.09.88.72,1.32,1.91,1.32h.32v.64h-.32l-.51,0q-2-.21-2-2.07v-5H329v-.64h1.3v-2H331v2h2.23v.64H331Z"/><path class="cls-1" d="M335.07,46.77a3.34,3.34,0,0,1,4.93-.29,3.86,3.86,0,0,1,1.2,2.9,4,4,0,0,1-.93,2.62,3.35,3.35,0,0,1-4.92.29,3.84,3.84,0,0,1-1.21-2.91A4,4,0,0,1,335.07,46.77Zm.39,4.68a2.67,2.67,0,0,0,2.21,1.14,2.65,2.65,0,0,0,1.83-.72,3.19,3.19,0,0,0,1.06-2.49,3.39,3.39,0,0,0-.67-2.07,2.71,2.71,0,0,0-4.05-.42,3.25,3.25,0,0,0-1,2.49A3.39,3.39,0,0,0,335.46,51.45Z"/><path class="cls-1" d="M355.41,46.61a2.5,2.5,0,0,1,3.73-.44,3,3,0,0,1,1,2.36v4.38l0,.34h-.63l0-.32v-4.4a2.6,2.6,0,0,0-.4-1.41,1.91,1.91,0,0,0-1.65-.95,1.87,1.87,0,0,0-1.21.45,2.38,2.38,0,0,0-.85,1.91v4.38l0,.34h-.63v-.32l0-4.08v-.32a2.6,2.6,0,0,0-.4-1.41,1.91,1.91,0,0,0-1.65-.95,1.87,1.87,0,0,0-1.21.45,2.38,2.38,0,0,0-.85,1.91v4.7H350v-7.7h.64v1.06a2.52,2.52,0,0,1,2.06-1.06,2.05,2.05,0,0,1,.65.1,2.62,2.62,0,0,1,1.72,1.47A3.66,3.66,0,0,1,355.41,46.61Z"/><path class="cls-1" d="M368.68,51.69a3.63,3.63,0,0,1-3.05,1.54,3.3,3.3,0,0,1-2.31-.93,3.82,3.82,0,0,1-1.22-2.92A3.93,3.93,0,0,1,363,46.8a3.25,3.25,0,0,1,2.62-1.27,3.3,3.3,0,0,1,2.32.95,3.83,3.83,0,0,1,1.21,2.9v.32h-6.41a3.62,3.62,0,0,0,.65,1.74,2.65,2.65,0,0,0,2.23,1.15,3,3,0,0,0,2.53-1.28Zm-.16-2.63a2.83,2.83,0,0,0-.68-1.8,2.77,2.77,0,0,0-3.87-.53,3.22,3.22,0,0,0-1.22,2.33Z"/><path class="cls-1" d="M377,51.69a3.63,3.63,0,0,1-3,1.54,3.3,3.3,0,0,1-2.31-.93,3.86,3.86,0,0,1-1.22-2.92,3.94,3.94,0,0,1,.92-2.58A3.22,3.22,0,0,1,374,45.53a3.33,3.33,0,0,1,2.33.95,3.86,3.86,0,0,1,1.2,2.9v.32h-6.4a3.61,3.61,0,0,0,.64,1.74A2.67,2.67,0,0,0,374,52.59a3.07,3.07,0,0,0,2.54-1.28Zm-.16-2.63a2.87,2.87,0,0,0-.67-1.8A2.79,2.79,0,0,0,374,46.17a2.72,2.72,0,0,0-1.65.56,3.15,3.15,0,0,0-1.22,2.33Z"/><path class="cls-1" d="M380.41,51.13v.14c.08.88.72,1.32,1.9,1.32h.33v.64h-.33l-.51,0q-2-.21-2-2.07v-5h-1.3v-.64h1.3v-2h.65v2h2.23v.64h-2.23Z"/><path class="cls-1" d="M395.65,45.74l.08-.21h.69l-.16.43L393.55,53a8.85,8.85,0,0,1-1.25,2.43,2.26,2.26,0,0,1-1.8.77h-.32v-.64h.32a1.7,1.7,0,0,0,1.06-.33,5.76,5.76,0,0,0,1.33-2.34L390.19,46l-.16-.43h.69l.08.21L393.24,52Z"/><path class="cls-1" d="M398.49,46.77a3.27,3.27,0,0,1,2.6-1.24,3.34,3.34,0,0,1,2.33.95,3.86,3.86,0,0,1,1.2,2.9,4,4,0,0,1-.93,2.62,3.36,3.36,0,0,1-4.93.29,3.87,3.87,0,0,1-1.2-2.91A4,4,0,0,1,398.49,46.77Zm.38,4.68a2.71,2.71,0,0,0,4.05.42A3.23,3.23,0,0,0,404,49.38a3.4,3.4,0,0,0-.68-2.07,2.7,2.7,0,0,0-4-.42,3.22,3.22,0,0,0-1.06,2.49A3.39,3.39,0,0,0,398.87,51.45Z"/><path class="cls-1" d="M406.24,45.55h.66l0,.32,0,4.51a2,2,0,0,0,.49,1.31,2.46,2.46,0,0,0,2,.9,2.55,2.55,0,0,0,1.47-.45,2,2,0,0,0,1-1.76V45.85l0-.3h.65v.32l0,4.51a2.67,2.67,0,0,1-.67,1.78,3.07,3.07,0,0,1-2.42,1.07,3.22,3.22,0,0,1-2-.69,2.68,2.68,0,0,1-1.09-2.16V45.85Z"/><path class="cls-1" d="M421.66,44.23v-.64h.66v.64h-.66Zm0,1.3h.64v7.7h-.64v-7.7Z"/><path class="cls-1" d="M430.9,53.25h-.62l0-.32,0-4.14a2.7,2.7,0,0,0-.49-1.59,2.23,2.23,0,0,0-1.91-1,2.26,2.26,0,0,0-1.46.53,2.59,2.59,0,0,0-.95,2.09v4.44h-.64v-7.7h.64v1.25a.47.47,0,0,1,.1-.11,2.84,2.84,0,0,1,2.31-1.14,2.94,2.94,0,0,1,1.94.74,3.19,3.19,0,0,1,1.1,2.52v4.12Z"/><path class="cls-1" d="M441.28,46.78a3.33,3.33,0,0,1,4.93-.3,3.86,3.86,0,0,1,1.2,2.9,4,4,0,0,1-.93,2.62,3.29,3.29,0,0,1-2.6,1.23,2.71,2.71,0,0,1-.56,0A3.39,3.39,0,0,1,441,51.6v4.62h-.65V45.53H441v1.65C441.08,47.05,441.18,46.92,441.28,46.78Zm.39,4.67a2.7,2.7,0,0,0,4,.42,3.19,3.19,0,0,0,1.06-2.49,3.41,3.41,0,0,0-.69-2.09,2.67,2.67,0,0,0-4-.41,3.46,3.46,0,0,0-.42,4.57Z"/><path class="cls-1" d="M455.28,51.69a3.64,3.64,0,0,1-3,1.54,3.3,3.3,0,0,1-2.31-.93,3.82,3.82,0,0,1-1.22-2.92,3.93,3.93,0,0,1,.91-2.58,3.25,3.25,0,0,1,2.62-1.27,3.3,3.3,0,0,1,2.32.95,3.83,3.83,0,0,1,1.21,2.9v.32h-6.41a3.62,3.62,0,0,0,.65,1.74,2.65,2.65,0,0,0,2.23,1.15,3.06,3.06,0,0,0,2.53-1.28Zm-.16-2.63a2.83,2.83,0,0,0-.68-1.8,2.77,2.77,0,0,0-3.87-.53,3.22,3.22,0,0,0-1.22,2.33Z"/><path class="cls-1" d="M458.37,46.93a3.43,3.43,0,0,1,3-1.4h.32v.64h-.32a3.23,3.23,0,0,0-1.59.39,2.87,2.87,0,0,0-1.43,2.68v4h-.64v-7.7h.64V47Z"/><path class="cls-1" d="M467.52,47.6a1.15,1.15,0,0,0-.32-.77,2.3,2.3,0,0,0-1.75-.66,2.8,2.8,0,0,0-1.16.24,1.33,1.33,0,0,0-.91,1.19.6.6,0,0,0,.05.26c.13.34.66.67,1.6,1,1.16.39,1.78.6,1.86.64,1,.43,1.54,1,1.54,1.67a1.63,1.63,0,0,1-.49,1.14,3.27,3.27,0,0,1-2.49.93,3.79,3.79,0,0,1-2-.51,1.83,1.83,0,0,1-1-1.56h.65a1.22,1.22,0,0,0,.36.79,2.79,2.79,0,0,0,2,.64,3.43,3.43,0,0,0,1.33-.26c.67-.27,1-.66,1-1.17a.56.56,0,0,0-.05-.25c-.12-.35-.65-.67-1.59-1l-1.86-.64c-1-.43-1.55-1-1.55-1.69a1.69,1.69,0,0,1,.46-1.15,2.85,2.85,0,0,1,2.25-.92,3.15,3.15,0,0,1,1.73.48,1.86,1.86,0,0,1,1,1.59Z"/><path class="cls-1" d="M470.65,46.77a3.33,3.33,0,0,1,4.92-.29,3.83,3.83,0,0,1,1.21,2.9,4,4,0,0,1-.93,2.62,3.36,3.36,0,0,1-4.93.29,3.87,3.87,0,0,1-1.2-2.91A4,4,0,0,1,470.65,46.77Zm.38,4.68a2.71,2.71,0,0,0,4.05.42,3.23,3.23,0,0,0,1.06-2.49,3.4,3.4,0,0,0-.68-2.07,2.7,2.7,0,0,0-4-.42,3.22,3.22,0,0,0-1.06,2.49A3.39,3.39,0,0,0,471,51.45Z"/><path class="cls-1" d="M484.82,53.25h-.63l0-.32V48.79a2.71,2.71,0,0,0-.5-1.59,2.22,2.22,0,0,0-1.91-1,2.3,2.3,0,0,0-1.46.53,2.59,2.59,0,0,0-1,2.09v4.44h-.64v-7.7h.64v1.25l.1-.11a2.84,2.84,0,0,1,2.31-1.14,2.91,2.91,0,0,1,1.94.74,3.2,3.2,0,0,1,1.11,2.52v4.12Z"/><path class="cls-1" d="M487.69,52.61h.64v.32h0v.32h-.64v-.32h0Z"/><path class="cls-1" d="M1.91,63.32h.64V74.23H1.91V63.32Z"/><path class="cls-1" d="M5,63.32h.64v3.19H5V63.32Z"/><path class="cls-1" d="M13.29,67.61A2.5,2.5,0,0,1,17,67.17a3,3,0,0,1,1,2.36v4.38l0,.34h-.63l0-.32v-4.4a2.6,2.6,0,0,0-.4-1.41,1.91,1.91,0,0,0-1.65-1,1.87,1.87,0,0,0-1.21.45,2.35,2.35,0,0,0-.85,1.91v4.38l0,.34h-.63v-.32l0-4.08v-.32a2.6,2.6,0,0,0-.4-1.41,1.91,1.91,0,0,0-1.65-1,1.87,1.87,0,0,0-1.21.45,2.35,2.35,0,0,0-.85,1.91v4.7H7.91v-7.7h.64v1.06a2.52,2.52,0,0,1,2.06-1.06,2.05,2.05,0,0,1,.65.1A2.62,2.62,0,0,1,13,68.1,3.66,3.66,0,0,1,13.29,67.61Z"/><path class="cls-1" d="M33.63,74.25H33l0-.32,0-4.14a2.7,2.7,0,0,0-.49-1.59,2.22,2.22,0,0,0-1.91-1,2.26,2.26,0,0,0-1.46.53,2.59,2.59,0,0,0-.95,2.09v4.44h-.64v-7.7h.64v1.25a.47.47,0,0,1,.1-.11,2.84,2.84,0,0,1,2.31-1.14,2.94,2.94,0,0,1,1.94.74,3.2,3.2,0,0,1,1.11,2.52v4.46Z"/><path class="cls-1" d="M36.47,67.77a3.28,3.28,0,0,1,2.6-1.24,3.33,3.33,0,0,1,2.33,1,3.86,3.86,0,0,1,1.2,2.9A4,4,0,0,1,41.67,73a3.35,3.35,0,0,1-4.92.29,3.84,3.84,0,0,1-1.21-2.91A4,4,0,0,1,36.47,67.77Zm.39,4.68a2.7,2.7,0,0,0,4,.42A3.19,3.19,0,0,0,42,70.38a3.39,3.39,0,0,0-.67-2.07,2.71,2.71,0,0,0-4-.42,3.26,3.26,0,0,0-1.06,2.49A3.4,3.4,0,0,0,36.86,72.45Z"/><path class="cls-1" d="M45.51,72.13v.14c.08.88.72,1.32,1.91,1.32h.32v.64h-.32a4.41,4.41,0,0,1-.52,0q-2-.21-2-2.07v-5h-1.3v-.64h1.3v-2h.65v2h2.23v.64H45.51Z"/><path class="cls-1" d="M56.53,67.77a3.28,3.28,0,0,1,2.6-1.24,3.64,3.64,0,0,1,.56,0A3.41,3.41,0,0,1,62,68.17V66.53h.64v7.7H62V72.6l-.29.4a3.36,3.36,0,0,1-4.93.29,3.87,3.87,0,0,1-1.2-2.91A4,4,0,0,1,56.53,67.77Zm.39,4.68a2.65,2.65,0,0,0,2.21,1.14A2.68,2.68,0,0,0,61,72.87,3.23,3.23,0,0,0,62,70.38a3.4,3.4,0,0,0-.68-2.07,2.7,2.7,0,0,0-4-.42,3.22,3.22,0,0,0-1.06,2.49A3.4,3.4,0,0,0,56.92,72.45Z"/><path class="cls-1" d="M69.64,68.6a1.15,1.15,0,0,0-.32-.77,2.3,2.3,0,0,0-1.75-.66,2.8,2.8,0,0,0-1.16.24,1.33,1.33,0,0,0-.91,1.19.6.6,0,0,0,0,.26c.13.34.66.67,1.6,1,1.16.39,1.78.6,1.86.64,1,.43,1.54,1,1.54,1.67a1.63,1.63,0,0,1-.49,1.14,3.27,3.27,0,0,1-2.49.93,3.79,3.79,0,0,1-2-.51,1.83,1.83,0,0,1-1-1.56h.65a1.22,1.22,0,0,0,.36.79,2.79,2.79,0,0,0,2,.64,3.43,3.43,0,0,0,1.33-.26c.67-.27,1-.66,1-1.17a.56.56,0,0,0,0-.25c-.12-.35-.65-.67-1.59-1l-1.86-.64c-1-.43-1.55-1-1.55-1.69a1.69,1.69,0,0,1,.46-1.15,2.85,2.85,0,0,1,2.25-.92A3.15,3.15,0,0,1,69.3,67a1.86,1.86,0,0,1,1,1.59Z"/><path class="cls-1" d="M73.12,70.7v3.53h-.64V63h.64v7.06h.82l3.77-3.45.1-.08h.94l-.59.56-3.59,3.29,3.59,3.29.59.56h-.94l-.1-.08L73.94,70.7Z"/><path class="cls-1" d="M80.26,65.23v-.64h.66v.64h-.66Zm0,1.3h.64v7.7h-.64v-7.7Z"/><path class="cls-1" d="M89.5,74.25h-.62l0-.32V69.79a2.71,2.71,0,0,0-.5-1.59,2.22,2.22,0,0,0-1.91-1A2.3,2.3,0,0,0,85,67.7a2.59,2.59,0,0,0-1,2.09v4.44h-.64v-7.7H84v1.25l.1-.11a2.84,2.84,0,0,1,2.31-1.14,2.92,2.92,0,0,1,1.94.74,3.2,3.2,0,0,1,1.11,2.52v4.46Z"/><path class="cls-1" d="M92.34,67.77a3.3,3.3,0,0,1,2.6-1.24,3.64,3.64,0,0,1,.56,0,3.39,3.39,0,0,1,2.33,1.59V66.55h.68l0,.32,0,7a3.09,3.09,0,0,1-.77,2A3.4,3.4,0,0,1,95,77.22h-.32v-.64H95a2.91,2.91,0,0,0,2-.87,2.55,2.55,0,0,0,.83-1.8V72.6c-.08.12-.18.26-.29.4a3.35,3.35,0,0,1-4.92.29,3.84,3.84,0,0,1-1.21-2.91A4,4,0,0,1,92.34,67.77Zm.39,4.68a2.7,2.7,0,0,0,4,.42,3.19,3.19,0,0,0,1.06-2.49,3.39,3.39,0,0,0-.67-2.07,2.71,2.71,0,0,0-4-.42,3.25,3.25,0,0,0-1,2.49A3.39,3.39,0,0,0,92.73,72.45Z"/><path class="cls-1" d="M112.45,66.74l.08-.21h.69l-.16.43L110.35,74a8.85,8.85,0,0,1-1.25,2.43,2.26,2.26,0,0,1-1.8.77H107v-.64h.32a1.7,1.7,0,0,0,1.06-.33,5.65,5.65,0,0,0,1.33-2.34L107,67l-.16-.43h.69l.08.21L110,73Z"/><path class="cls-1" d="M115.29,67.77a3.28,3.28,0,0,1,2.6-1.24,3.33,3.33,0,0,1,2.33,1,3.86,3.86,0,0,1,1.2,2.9,4,4,0,0,1-.93,2.62,3.36,3.36,0,0,1-4.93.29,3.87,3.87,0,0,1-1.2-2.91A4,4,0,0,1,115.29,67.77Zm.39,4.68a2.65,2.65,0,0,0,2.21,1.14,2.68,2.68,0,0,0,1.83-.72,3.23,3.23,0,0,0,1.06-2.49,3.4,3.4,0,0,0-.68-2.07,2.65,2.65,0,0,0-2.21-1.14,2.68,2.68,0,0,0-1.83.72A3.22,3.22,0,0,0,115,70.38,3.4,3.4,0,0,0,115.68,72.45Z"/><path class="cls-1" d="M123,66.55h.66l0,.32v4.51a2,2,0,0,0,.48,1.31,2.46,2.46,0,0,0,2,.9,2.55,2.55,0,0,0,1.47-.45,2,2,0,0,0,1-1.76V66.85l0-.3h.66l0,.32,0,4.51a2.67,2.67,0,0,1-.67,1.78,3.07,3.07,0,0,1-2.42,1.07,3.17,3.17,0,0,1-2-.69,2.66,2.66,0,0,1-1.1-2.16V66.85Z"/><path class="cls-1" d="M139.36,72.13v.14c.08.88.72,1.32,1.91,1.32h.32v.64h-.32l-.52,0a2,2,0,0,1-2-2.07v-5h-1.3v-.64h1.3v-2h.64v2h2.23v.64h-2.23Z"/><path class="cls-1" d="M143.48,67.77a3.34,3.34,0,0,1,4.93-.29,3.86,3.86,0,0,1,1.2,2.9,4,4,0,0,1-.93,2.62,3.35,3.35,0,0,1-4.92.29,3.84,3.84,0,0,1-1.21-2.91A4,4,0,0,1,143.48,67.77Zm.39,4.68a2.7,2.7,0,0,0,4,.42A3.19,3.19,0,0,0,149,70.38a3.39,3.39,0,0,0-.67-2.07,2.71,2.71,0,0,0-4.05-.42,3.26,3.26,0,0,0-1.06,2.49A3.4,3.4,0,0,0,143.87,72.45Z"/><path class="cls-1" d="M158.13,66.55h.66v.32l0,4.51a2,2,0,0,0,.48,1.31,2.47,2.47,0,0,0,2,.9,2.56,2.56,0,0,0,1.48-.45,2,2,0,0,0,1-1.76V66.55h.66l0,.32v4.51a2.68,2.68,0,0,1-.68,1.78,3.07,3.07,0,0,1-2.42,1.07,3.19,3.19,0,0,1-2-.69,2.65,2.65,0,0,1-1.09-2.16V66.55Z"/><path class="cls-1" d="M172.69,74.25h-.63l0-.32V69.79a2.71,2.71,0,0,0-.5-1.59,2.22,2.22,0,0,0-1.91-1,2.3,2.3,0,0,0-1.46.53,2.59,2.59,0,0,0-.95,2.09v4.44h-.64v-7.7h.64v1.25l.1-.11a2.84,2.84,0,0,1,2.31-1.14,2.91,2.91,0,0,1,1.94.74,3.2,3.2,0,0,1,1.11,2.52v4.12Z"/><path class="cls-1" d="M175.53,67.77a3.27,3.27,0,0,1,2.6-1.24,3.64,3.64,0,0,1,.56,0A3.37,3.37,0,0,1,181,68.17V63h.65V74.23H181V72.6l-.28.4a3.36,3.36,0,0,1-4.93.29,3.87,3.87,0,0,1-1.2-2.91A4,4,0,0,1,175.53,67.77Zm.38,4.68a2.71,2.71,0,0,0,4.05.42,3.22,3.22,0,0,0,1-2.49,3.39,3.39,0,0,0-.67-2.07,2.67,2.67,0,0,0-2.21-1.14,2.65,2.65,0,0,0-1.83.72,3.22,3.22,0,0,0-1.06,2.49A3.39,3.39,0,0,0,175.91,72.45Z"/><path class="cls-1" d="M190.16,72.69a3.61,3.61,0,0,1-3,1.54,3.34,3.34,0,0,1-2.31-.93,3.86,3.86,0,0,1-1.22-2.92,3.94,3.94,0,0,1,.92-2.58,3.22,3.22,0,0,1,2.61-1.27,3.31,3.31,0,0,1,2.33,1,3.86,3.86,0,0,1,1.2,2.9v.32h-6.4a3.61,3.61,0,0,0,.64,1.74,2.67,2.67,0,0,0,2.23,1.15,3.06,3.06,0,0,0,2.54-1.28ZM190,70.06a3,3,0,0,0-2.89-2.89,2.72,2.72,0,0,0-1.65.56,3.19,3.19,0,0,0-1.22,2.33Z"/><path class="cls-1" d="M193.26,67.93a3.41,3.41,0,0,1,3-1.4h.32v.64h-.32a3.23,3.23,0,0,0-1.59.39,2.85,2.85,0,0,0-1.43,2.68v4h-.64v-7.7h.64V68Z"/><path class="cls-1" d="M202.4,68.6a1.1,1.1,0,0,0-.32-.77,2.28,2.28,0,0,0-1.75-.66,2.75,2.75,0,0,0-1.15.24,1.34,1.34,0,0,0-.92,1.19.8.8,0,0,0,.05.26c.13.34.67.67,1.61,1l1.86.64c1,.43,1.54,1,1.54,1.67a1.64,1.64,0,0,1-.5,1.14,3.27,3.27,0,0,1-2.49.93,3.78,3.78,0,0,1-2-.51,1.83,1.83,0,0,1-1-1.56H198a1.19,1.19,0,0,0,.37.79,2.78,2.78,0,0,0,2,.64,3.44,3.44,0,0,0,1.34-.26c.67-.27,1-.66,1-1.17a.74.74,0,0,0-.05-.25c-.13-.35-.66-.67-1.59-1-1.16-.39-1.78-.6-1.86-.64-1-.43-1.56-1-1.56-1.69a1.7,1.7,0,0,1,.47-1.15,2.81,2.81,0,0,1,2.24-.92,3.18,3.18,0,0,1,1.74.48,1.86,1.86,0,0,1,1,1.59Z"/><path class="cls-1" d="M206.22,72.13v.14c.09.88.73,1.32,1.91,1.32h.32v.64h-.32a4.36,4.36,0,0,1-.51,0q-2-.21-2-2.07v-5h-1.3v-.64h1.3v-2h.64v2h2.23v.64h-2.23Z"/><path class="cls-1" d="M210.35,67.77a3.27,3.27,0,0,1,2.6-1.24,3.64,3.64,0,0,1,.56,0,3.37,3.37,0,0,1,2.32,1.59V66.53h.65v7.7h-.65V72.6l-.28.4a3.36,3.36,0,0,1-4.93.29,3.87,3.87,0,0,1-1.2-2.91A4,4,0,0,1,210.35,67.77Zm.38,4.68a2.71,2.71,0,0,0,4.05.42,3.22,3.22,0,0,0,1.05-2.49,3.39,3.39,0,0,0-.67-2.07A2.67,2.67,0,0,0,213,67.17a2.65,2.65,0,0,0-1.83.72,3.22,3.22,0,0,0-1.06,2.49A3.39,3.39,0,0,0,210.73,72.45Z"/><path class="cls-1" d="M225.16,74.25h-.63v-.32l0-4.14a2.71,2.71,0,0,0-.5-1.59,2.22,2.22,0,0,0-1.91-1,2.3,2.3,0,0,0-1.46.53,2.58,2.58,0,0,0-.94,2.09v4.44H219v-7.7h.65v1.25l.09-.11a2.84,2.84,0,0,1,2.31-1.14,2.91,2.91,0,0,1,1.94.74,3.2,3.2,0,0,1,1.11,2.52v4.12Z"/><path class="cls-1" d="M228,67.77a3.27,3.27,0,0,1,2.6-1.24,3.64,3.64,0,0,1,.56,0,3.41,3.41,0,0,1,2.33,1.59V63h.64V74.23h-.64V72.6l-.29.4a3.36,3.36,0,0,1-4.93.29,3.87,3.87,0,0,1-1.2-2.91A4,4,0,0,1,228,67.77Zm.38,4.68a2.71,2.71,0,0,0,4.05.42,3.23,3.23,0,0,0,1.06-2.49,3.4,3.4,0,0,0-.68-2.07,2.7,2.7,0,0,0-4-.42,3.22,3.22,0,0,0-1.06,2.49A3.39,3.39,0,0,0,228.38,72.45Z"/><path class="cls-1" d="M243.88,67.77a3.34,3.34,0,0,1,4.93-.29,3.86,3.86,0,0,1,1.2,2.9,4,4,0,0,1-.93,2.62,3.35,3.35,0,0,1-4.92.29A3.84,3.84,0,0,1,243,70.38,4,4,0,0,1,243.88,67.77Zm.39,4.68a2.7,2.7,0,0,0,4,.42,3.19,3.19,0,0,0,1.06-2.49,3.39,3.39,0,0,0-.67-2.07,2.71,2.71,0,0,0-4-.42,3.26,3.26,0,0,0-1.06,2.49A3.4,3.4,0,0,0,244.27,72.45Z"/><path class="cls-1" d="M252.63,67.93a3.41,3.41,0,0,1,3-1.4h.32v.64h-.32a3.23,3.23,0,0,0-1.59.39,2.85,2.85,0,0,0-1.43,2.68v4h-.64v-7.7h.64V68Z"/><path class="cls-1" d="M270,72.72a3.31,3.31,0,0,1-2.87,1.51,3.23,3.23,0,0,1-2.28-.93,3.88,3.88,0,0,1-1.2-2.92,4,4,0,0,1,.9-2.58,3.16,3.16,0,0,1,2.58-1.27A3.33,3.33,0,0,1,270,67.94l-.54.35a2.68,2.68,0,0,0-2.35-1.12,2.6,2.6,0,0,0-1.79.71,3.23,3.23,0,0,0-1.05,2.5,3.52,3.52,0,0,0,.64,2.06,2.62,2.62,0,0,0,2.2,1.15,2.85,2.85,0,0,0,2.36-1.22Z"/><path class="cls-1" d="M272.25,67.77a3.34,3.34,0,0,1,4.93-.29,3.86,3.86,0,0,1,1.2,2.9,4,4,0,0,1-.93,2.62,3.35,3.35,0,0,1-4.92.29,3.84,3.84,0,0,1-1.21-2.91A4,4,0,0,1,272.25,67.77Zm.39,4.68a2.7,2.7,0,0,0,4,.42,3.19,3.19,0,0,0,1.06-2.49,3.39,3.39,0,0,0-.67-2.07,2.71,2.71,0,0,0-4.05-.42A3.26,3.26,0,0,0,272,70.38,3.4,3.4,0,0,0,272.64,72.45Z"/><path class="cls-1" d="M285.68,67.61a2.51,2.51,0,0,1,3.74-.44,3,3,0,0,1,1,2.36v4.38l0,.34h-.63l0-.32v-4.4a2.68,2.68,0,0,0-.4-1.41,1.92,1.92,0,0,0-1.66-1,1.83,1.83,0,0,0-1.2.45,2.35,2.35,0,0,0-.85,1.91v4.38l0,.34h-.63l0-.32v-4.4a2.68,2.68,0,0,0-.4-1.41,1.92,1.92,0,0,0-1.66-1,1.85,1.85,0,0,0-1.2.45,2.35,2.35,0,0,0-.85,1.91v4.7h-.64v-7.7H281v1.06A2.51,2.51,0,0,1,283,66.53a2.07,2.07,0,0,1,.66.1,2.64,2.64,0,0,1,1.72,1.47A3.58,3.58,0,0,1,285.68,67.61Z"/><path class="cls-1" d="M294,67.78a3.23,3.23,0,0,1,2.61-1.25,3.28,3.28,0,0,1,2.31,1,3.83,3.83,0,0,1,1.21,2.9,4,4,0,0,1-.93,2.62,3.32,3.32,0,0,1-2.6,1.23,2.81,2.81,0,0,1-.57,0,3.41,3.41,0,0,1-2.32-1.58v4.62H293V66.53h.64v1.65A4.41,4.41,0,0,1,294,67.78Zm.38,4.67a2.71,2.71,0,0,0,4.05.42,3.22,3.22,0,0,0,1.05-2.49,3.46,3.46,0,0,0-.68-2.09,2.68,2.68,0,0,0-4-.41,3.46,3.46,0,0,0-.42,4.57Z"/><path class="cls-1" d="M307.94,72.69a3.63,3.63,0,0,1-3.05,1.54,3.3,3.3,0,0,1-2.31-.93,3.86,3.86,0,0,1-1.22-2.92,3.94,3.94,0,0,1,.92-2.58,3.22,3.22,0,0,1,2.61-1.27,3.33,3.33,0,0,1,2.33,1,3.86,3.86,0,0,1,1.2,2.9v.32H302a3.61,3.61,0,0,0,.64,1.74,2.67,2.67,0,0,0,2.23,1.15,3.07,3.07,0,0,0,2.54-1.28Zm-.16-2.63a2.87,2.87,0,0,0-.67-1.8,2.79,2.79,0,0,0-2.22-1.09,2.72,2.72,0,0,0-1.65.56A3.15,3.15,0,0,0,302,70.06Z"/><path class="cls-1" d="M316.46,74.25h-.63v-.32l0-4.14a2.64,2.64,0,0,0-.5-1.59,2.21,2.21,0,0,0-1.91-1,2.3,2.3,0,0,0-1.46.53,2.58,2.58,0,0,0-.94,2.09v4.44h-.64v-7.7H311v1.25l.09-.11a2.84,2.84,0,0,1,2.31-1.14,3,3,0,0,1,1.95.74,3.19,3.19,0,0,1,1.1,2.52v4.12Z"/><path class="cls-1" d="M323.42,68.6a1.1,1.1,0,0,0-.32-.77,2.28,2.28,0,0,0-1.75-.66,2.75,2.75,0,0,0-1.15.24,1.34,1.34,0,0,0-.92,1.19.8.8,0,0,0,.05.26c.13.34.67.67,1.61,1l1.86.64c1,.43,1.54,1,1.54,1.67a1.64,1.64,0,0,1-.5,1.14,3.27,3.27,0,0,1-2.49.93,3.78,3.78,0,0,1-2-.51,1.83,1.83,0,0,1-1-1.56H319a1.19,1.19,0,0,0,.37.79,2.78,2.78,0,0,0,2,.64,3.48,3.48,0,0,0,1.34-.26c.67-.27,1-.66,1-1.17a.74.74,0,0,0-.05-.25c-.13-.35-.66-.67-1.59-1-1.16-.39-1.78-.6-1.86-.64-1-.43-1.56-1-1.56-1.69a1.7,1.7,0,0,1,.47-1.15,2.81,2.81,0,0,1,2.24-.92,3.18,3.18,0,0,1,1.74.48,1.86,1.86,0,0,1,1,1.59Z"/><path class="cls-1" d="M326.55,67.77a3.3,3.3,0,0,1,2.6-1.24,3.64,3.64,0,0,1,.56,0A3.39,3.39,0,0,1,332,68.17V66.53h.64v7.7H332V72.6c-.08.12-.18.26-.29.4a3.35,3.35,0,0,1-4.92.29,3.84,3.84,0,0,1-1.21-2.91A4,4,0,0,1,326.55,67.77Zm.39,4.68a2.7,2.7,0,0,0,4,.42A3.19,3.19,0,0,0,332,70.38a3.39,3.39,0,0,0-.67-2.07,2.71,2.71,0,0,0-4.05-.42,3.26,3.26,0,0,0-1.06,2.49A3.4,3.4,0,0,0,326.94,72.45Z"/><path class="cls-1" d="M336.23,72.13v.14c.08.88.72,1.32,1.91,1.32h.32v.64h-.32a4.53,4.53,0,0,1-.52,0,2,2,0,0,1-2-2.07v-5h-1.3v-.64h1.3v-2h.64v2h2.23v.64h-2.23Z"/><path class="cls-1" d="M346,72.69A3.63,3.63,0,0,1,343,74.23a3.34,3.34,0,0,1-2.31-.93,3.86,3.86,0,0,1-1.22-2.92,3.94,3.94,0,0,1,.92-2.58A3.22,3.22,0,0,1,343,66.53a3.31,3.31,0,0,1,2.33,1,3.86,3.86,0,0,1,1.2,2.9v.32h-6.4a3.61,3.61,0,0,0,.64,1.74A2.67,2.67,0,0,0,343,73.59a3.07,3.07,0,0,0,2.54-1.28Zm-.16-2.63A3,3,0,0,0,343,67.17a2.72,2.72,0,0,0-1.65.56,3.19,3.19,0,0,0-1.22,2.33Z"/><path class="cls-1" d="M360.68,67.61a2.51,2.51,0,0,1,3.74-.44,3,3,0,0,1,1,2.36v4.72h-.62l0-.32v-4.4a2.68,2.68,0,0,0-.4-1.41,1.92,1.92,0,0,0-1.66-1,1.83,1.83,0,0,0-1.2.45,2.35,2.35,0,0,0-.85,1.91v4.72h-.62l0-.32v-4.4a2.68,2.68,0,0,0-.4-1.41,1.92,1.92,0,0,0-1.66-1,1.83,1.83,0,0,0-1.2.45,2.35,2.35,0,0,0-.85,1.91v4.7h-.64v-7.7H356v1.06A2.51,2.51,0,0,1,358,66.53a2.07,2.07,0,0,1,.66.1,2.64,2.64,0,0,1,1.72,1.47A2.8,2.8,0,0,1,360.68,67.61Z"/><path class="cls-1" d="M374,72.69a3.61,3.61,0,0,1-3.05,1.54,3.34,3.34,0,0,1-2.31-.93,3.86,3.86,0,0,1-1.22-2.92,3.94,3.94,0,0,1,.92-2.58,3.23,3.23,0,0,1,2.61-1.27,3.31,3.31,0,0,1,2.33,1,3.86,3.86,0,0,1,1.2,2.9v.32H368a3.71,3.71,0,0,0,.64,1.74,2.68,2.68,0,0,0,2.23,1.15,3.06,3.06,0,0,0,2.54-1.28Zm-.16-2.63a3,3,0,0,0-2.89-2.89,2.74,2.74,0,0,0-1.65.56A3.19,3.19,0,0,0,368,70.06Z"/><path class="cls-1" d="M386.15,66.53h.32v.64h-2.25v7.06h-.64V67.17H382.3v-.64h1.3a5.36,5.36,0,0,1,.3-1.6,2.26,2.26,0,0,1,2.25-1.63h.32V64h-.32a1.54,1.54,0,0,0-.61.11c-.78.3-1.22,1.12-1.3,2.47Z"/><path class="cls-1" d="M388.36,67.77a3.28,3.28,0,0,1,2.6-1.24,3.33,3.33,0,0,1,2.33,1,3.86,3.86,0,0,1,1.2,2.9,4,4,0,0,1-.93,2.62,3.36,3.36,0,0,1-4.93.29,3.87,3.87,0,0,1-1.2-2.91A4,4,0,0,1,388.36,67.77Zm.39,4.68a2.7,2.7,0,0,0,4,.42,3.19,3.19,0,0,0,1.06-2.49,3.46,3.46,0,0,0-.67-2.07,2.71,2.71,0,0,0-4.05-.42,3.26,3.26,0,0,0-1.06,2.49A3.4,3.4,0,0,0,388.75,72.45Z"/><path class="cls-1" d="M397.11,67.93a3.41,3.41,0,0,1,3-1.4h.32v.64h-.32a3.23,3.23,0,0,0-1.59.39,2.85,2.85,0,0,0-1.43,2.68v4h-.64v-7.7h.64V68Z"/><path class="cls-1" d="M409,67.77a3.28,3.28,0,0,1,2.6-1.24,3.64,3.64,0,0,1,.56,0,3.41,3.41,0,0,1,2.33,1.59V66.53h.64v7.7h-.64V72.6l-.29.4a3.36,3.36,0,0,1-4.93.29,3.87,3.87,0,0,1-1.2-2.91A4,4,0,0,1,409,67.77Zm.39,4.68a2.65,2.65,0,0,0,2.21,1.14,2.68,2.68,0,0,0,1.83-.72,3.23,3.23,0,0,0,1.06-2.49,3.4,3.4,0,0,0-.68-2.07,2.7,2.7,0,0,0-4-.42,3.22,3.22,0,0,0-1.06,2.49A3.4,3.4,0,0,0,409.42,72.45Z"/><path class="cls-1" d="M417.73,63.32V63h.64v5.17a3.34,3.34,0,0,1,5.21-.69,3.83,3.83,0,0,1,1.21,2.9,4,4,0,0,1-.93,2.62,3.32,3.32,0,0,1-2.6,1.23,2.69,2.69,0,0,1-.57,0,3.41,3.41,0,0,1-2.32-1.58v1.63h-.64V63.32Zm1.33,9.13a2.69,2.69,0,0,0,4,.42,3.22,3.22,0,0,0,1.05-2.49,3.39,3.39,0,0,0-.67-2.07,2.7,2.7,0,0,0-4-.42,3.24,3.24,0,0,0-1.06,2.51A3.27,3.27,0,0,0,419.06,72.45Z"/><path class="cls-1" d="M427,67.77a3.28,3.28,0,0,1,2.6-1.24,3.64,3.64,0,0,1,.56,0,3.39,3.39,0,0,1,2.33,1.59V66.53h.64v7.7h-.64V72.6c-.09.12-.18.26-.29.4a3.36,3.36,0,0,1-4.93.29,3.87,3.87,0,0,1-1.2-2.91A4,4,0,0,1,427,67.77Zm.39,4.68a2.7,2.7,0,0,0,4,.42,3.19,3.19,0,0,0,1.06-2.49,3.46,3.46,0,0,0-.67-2.07,2.71,2.71,0,0,0-4.05-.42,3.26,3.26,0,0,0-1.06,2.49A3.4,3.4,0,0,0,427.39,72.45Z"/><path class="cls-1" d="M441.81,74.25h-.62l0-.32,0-4.14a2.7,2.7,0,0,0-.49-1.59,2.22,2.22,0,0,0-1.91-1,2.28,2.28,0,0,0-1.46.53,2.59,2.59,0,0,0-1,2.09v4.44h-.64v-7.7h.64v1.25a.47.47,0,0,1,.1-.11,2.84,2.84,0,0,1,2.31-1.14,2.94,2.94,0,0,1,1.94.74,3.2,3.2,0,0,1,1.11,2.52v4.46Z"/><path class="cls-1" d="M444.65,67.77a3.28,3.28,0,0,1,2.6-1.24,3.64,3.64,0,0,1,.56,0,3.39,3.39,0,0,1,2.33,1.59V63h.64V74.23h-.64V72.6c-.09.12-.18.26-.29.4a3.36,3.36,0,0,1-4.93.29,3.87,3.87,0,0,1-1.2-2.91A4,4,0,0,1,444.65,67.77Zm.39,4.68a2.7,2.7,0,0,0,4,.42,3.19,3.19,0,0,0,1.06-2.49,3.39,3.39,0,0,0-.67-2.07,2.71,2.71,0,0,0-4.05-.42,3.26,3.26,0,0,0-1.06,2.49A3.4,3.4,0,0,0,445,72.45Z"/><path class="cls-1" d="M453.64,67.77a3.33,3.33,0,0,1,4.92-.29,3.83,3.83,0,0,1,1.21,2.9,4,4,0,0,1-.93,2.62,3.36,3.36,0,0,1-4.93.29,3.87,3.87,0,0,1-1.2-2.91A4,4,0,0,1,453.64,67.77Zm.38,4.68a2.71,2.71,0,0,0,4.05.42,3.23,3.23,0,0,0,1.06-2.49,3.4,3.4,0,0,0-.68-2.07,2.7,2.7,0,0,0-4-.42,3.22,3.22,0,0,0-1.06,2.49A3.39,3.39,0,0,0,454,72.45Z"/><path class="cls-1" d="M467.81,74.25h-.63v-.32l0-4.14a2.71,2.71,0,0,0-.5-1.59,2.22,2.22,0,0,0-1.91-1,2.3,2.3,0,0,0-1.46.53,2.59,2.59,0,0,0-.95,2.09v4.44h-.64v-7.7h.64v1.25l.1-.11a2.84,2.84,0,0,1,2.31-1.14,2.91,2.91,0,0,1,1.94.74,3.2,3.2,0,0,1,1.11,2.52v4.12Z"/><path class="cls-1" d="M470.44,65.23v-.64h.66v.64h-.66Zm0,1.3h.64v7.7h-.64v-7.7Z"/><path class="cls-1" d="M479.68,74.25h-.63v-.32l0-4.14a2.7,2.7,0,0,0-.49-1.59,2.23,2.23,0,0,0-1.91-1,2.26,2.26,0,0,0-1.46.53,2.56,2.56,0,0,0-1,2.09v4.44h-.64v-7.7h.64v1.25l.09-.11a2.86,2.86,0,0,1,2.32-1.14,2.94,2.94,0,0,1,1.94.74,3.19,3.19,0,0,1,1.1,2.52v4.12Z"/><path class="cls-1" d="M482.52,67.77a3.28,3.28,0,0,1,2.6-1.24,3.64,3.64,0,0,1,.56,0A3.39,3.39,0,0,1,488,68.17V66.55h.67v.32l0,7a3.15,3.15,0,0,1-.77,2,3.41,3.41,0,0,1-2.74,1.35h-.32v-.64h.32a2.87,2.87,0,0,0,2-.87,2.52,2.52,0,0,0,.84-1.8V72.6c-.09.12-.18.26-.29.4a3.36,3.36,0,0,1-4.93.29,3.87,3.87,0,0,1-1.2-2.91A4,4,0,0,1,482.52,67.77Zm.39,4.68a2.65,2.65,0,0,0,2.21,1.14,2.68,2.68,0,0,0,1.83-.72A3.19,3.19,0,0,0,488,70.38a3.4,3.4,0,0,0-.68-2.07,2.65,2.65,0,0,0-2.21-1.14,2.68,2.68,0,0,0-1.83.72,3.22,3.22,0,0,0-1.06,2.49A3.4,3.4,0,0,0,482.91,72.45Z"/><path class="cls-1" d="M122.93,88.61a2.51,2.51,0,0,1,3.74-.44,3,3,0,0,1,1,2.36v4.72h-.62l0-.32,0-4.4a2.6,2.6,0,0,0-.4-1.41,1.9,1.9,0,0,0-1.65-1,1.83,1.83,0,0,0-1.2.45,2.35,2.35,0,0,0-.85,1.91v4.72h-.62l0-.32,0-4.08v-.32a2.6,2.6,0,0,0-.4-1.41,1.9,1.9,0,0,0-1.65-1,1.83,1.83,0,0,0-1.2.45,2.35,2.35,0,0,0-.85,1.91v4.7h-.65v-7.7h.65v1.06a2.51,2.51,0,0,1,2-1.06,2.16,2.16,0,0,1,.66.1,2.6,2.6,0,0,1,1.71,1.47A3.66,3.66,0,0,1,122.93,88.61Z"/><path class="cls-1" d="M134.77,87.74l.08-.21h.69l-.16.43L132.67,95a8.58,8.58,0,0,1-1.25,2.43,2.26,2.26,0,0,1-1.8.77h-.32v-.64h.32a1.7,1.7,0,0,0,1.06-.33A5.65,5.65,0,0,0,132,94.91l-2.69-7-.16-.43h.69l.08.21L132.37,94Z"/><path class="cls-1" d="M148.64,89.6a1.15,1.15,0,0,0-.32-.77,2.31,2.31,0,0,0-1.75-.66,2.77,2.77,0,0,0-1.16.24,1.33,1.33,0,0,0-.91,1.19.78.78,0,0,0,0,.26c.13.34.67.67,1.61,1l1.86.64c1,.43,1.54,1,1.54,1.67a1.64,1.64,0,0,1-.5,1.14,3.25,3.25,0,0,1-2.48.93,3.79,3.79,0,0,1-2-.51,1.83,1.83,0,0,1-1-1.56h.64a1.23,1.23,0,0,0,.37.79,2.79,2.79,0,0,0,2,.64,3.43,3.43,0,0,0,1.33-.26c.67-.27,1-.66,1-1.17a.74.74,0,0,0,0-.25c-.13-.35-.66-.67-1.59-1l-1.86-.64c-1-.43-1.56-1-1.56-1.69a1.7,1.7,0,0,1,.47-1.15,2.83,2.83,0,0,1,2.25-.92,3.15,3.15,0,0,1,1.73.48,1.86,1.86,0,0,1,1,1.59Z"/><path class="cls-1" d="M152.46,93.13v.14c.08.88.72,1.32,1.9,1.32h.33v.64h-.33a4.36,4.36,0,0,1-.51,0q-2-.21-2-2.07v-5h-1.3v-.64h1.3v-2h.65v2h2.23v.64h-2.23Z"/><path class="cls-1" d="M156.58,88.77a3.27,3.27,0,0,1,2.6-1.24,3.64,3.64,0,0,1,.56,0,3.41,3.41,0,0,1,2.33,1.59V87.53h.64v7.7h-.64V93.6l-.29.4a3.36,3.36,0,0,1-4.93.29,3.87,3.87,0,0,1-1.2-2.91A4,4,0,0,1,156.58,88.77Zm.38,4.68a2.71,2.71,0,0,0,4,.42,3.23,3.23,0,0,0,1.06-2.49,3.4,3.4,0,0,0-.68-2.07,2.7,2.7,0,0,0-4-.42,3.22,3.22,0,0,0-1.06,2.49A3.39,3.39,0,0,0,157,93.45Z"/><path class="cls-1" d="M166,88.93a3.43,3.43,0,0,1,3-1.4h.32v.64h-.32a3.26,3.26,0,0,0-1.59.39,2.84,2.84,0,0,0-1.42,2.68v4h-.64v-7.7h.64V89Z"/><path class="cls-1" d="M172.19,94.06h.66l-.06.39a2.9,2.9,0,0,1-1.63,2.16l-.46.23v-.72l.18-.08a2.3,2.3,0,0,0,1.26-1.72Z"/><path class="cls-1" d="M187.39,93.69a3.63,3.63,0,0,1-3,1.54A3.3,3.3,0,0,1,182,94.3a3.82,3.82,0,0,1-1.22-2.92,3.93,3.93,0,0,1,.91-2.58,3.25,3.25,0,0,1,2.62-1.27,3.34,3.34,0,0,1,2.33,1,3.86,3.86,0,0,1,1.2,2.9v.32h-6.4a3.51,3.51,0,0,0,.64,1.74,2.67,2.67,0,0,0,2.23,1.15,3,3,0,0,0,2.53-1.28Zm-.16-2.63a2.83,2.83,0,0,0-.68-1.8,2.79,2.79,0,0,0-2.21-1.09,2.72,2.72,0,0,0-1.65.56,3.15,3.15,0,0,0-1.22,2.33Z"/><path class="cls-1" d="M189,87.53h.69l.08.19,2.62,6.34,2.56-6.34.1-.19h.69l-.18.45L192.68,95l-.09.19h-.42l-.08-.19L189.18,88Z"/><path class="cls-1" d="M203.43,93.69a3.61,3.61,0,0,1-3.05,1.54,3.34,3.34,0,0,1-2.31-.93,3.86,3.86,0,0,1-1.22-2.92,3.94,3.94,0,0,1,.92-2.58,3.22,3.22,0,0,1,2.61-1.27,3.31,3.31,0,0,1,2.33,1,3.86,3.86,0,0,1,1.2,2.9v.32h-6.4a3.71,3.71,0,0,0,.64,1.74,2.67,2.67,0,0,0,2.23,1.15,3.06,3.06,0,0,0,2.54-1.28Zm-.16-2.63a3,3,0,0,0-2.89-2.89,2.74,2.74,0,0,0-1.65.56,3.19,3.19,0,0,0-1.22,2.33Z"/><path class="cls-1" d="M206.53,88.93a3.41,3.41,0,0,1,3-1.4h.32v.64h-.32a3.23,3.23,0,0,0-1.59.39,2.85,2.85,0,0,0-1.43,2.68v4h-.64v-7.7h.64V89Z"/><path class="cls-1" d="M215.77,87.74l.08-.21h.69l-.16.43L213.67,95a8.58,8.58,0,0,1-1.25,2.43,2.26,2.26,0,0,1-1.8.77h-.32v-.64h.32a1.7,1.7,0,0,0,1.06-.33A5.65,5.65,0,0,0,213,94.91l-2.69-7-.16-.43h.69l.08.21L213.37,94Z"/><path class="cls-1" d="M218.61,88.77a3.34,3.34,0,0,1,4.93-.29,3.86,3.86,0,0,1,1.2,2.9,4,4,0,0,1-.93,2.62,3.35,3.35,0,0,1-4.92.29,3.84,3.84,0,0,1-1.21-2.91A4,4,0,0,1,218.61,88.77Zm.39,4.68a2.7,2.7,0,0,0,4,.42,3.19,3.19,0,0,0,1.06-2.49,3.39,3.39,0,0,0-.67-2.07,2.71,2.71,0,0,0-4.05-.42,3.26,3.26,0,0,0-1.06,2.49A3.4,3.4,0,0,0,219,93.45Z"/><path class="cls-1" d="M232.78,95.25h-.62l0-.32,0-4.14a2.7,2.7,0,0,0-.49-1.59,2.23,2.23,0,0,0-1.91-1,2.26,2.26,0,0,0-1.46.53,2.56,2.56,0,0,0-.95,2.09v4.44h-.64v-7.7h.64v1.25a.47.47,0,0,1,.1-.11,2.84,2.84,0,0,1,2.31-1.14,2.94,2.94,0,0,1,1.94.74,3.19,3.19,0,0,1,1.1,2.52v4.12Z"/><path class="cls-1" d="M241.27,93.69a3.63,3.63,0,0,1-3.05,1.54,3.3,3.3,0,0,1-2.31-.93,3.86,3.86,0,0,1-1.22-2.92,3.94,3.94,0,0,1,.92-2.58,3.22,3.22,0,0,1,2.61-1.27,3.33,3.33,0,0,1,2.33,1,3.86,3.86,0,0,1,1.2,2.9v.32h-6.4a3.61,3.61,0,0,0,.64,1.74,2.67,2.67,0,0,0,2.23,1.15,3.07,3.07,0,0,0,2.54-1.28Zm-.16-2.63a2.87,2.87,0,0,0-.67-1.8,2.79,2.79,0,0,0-2.22-1.09,2.72,2.72,0,0,0-1.65.56,3.15,3.15,0,0,0-1.22,2.33Z"/><path class="cls-1" d="M245.17,94.06h.66l-.07.39a2.87,2.87,0,0,1-1.62,2.16l-.46.23v-.72l.17-.08a2.29,2.29,0,0,0,1.27-1.72Z"/><path class="cls-1" d="M260.36,93.69a3.61,3.61,0,0,1-3.05,1.54A3.34,3.34,0,0,1,255,94.3a3.86,3.86,0,0,1-1.22-2.92,3.94,3.94,0,0,1,.92-2.58,3.23,3.23,0,0,1,2.61-1.27,3.31,3.31,0,0,1,2.33,1,3.86,3.86,0,0,1,1.2,2.9v.32h-6.4a3.71,3.71,0,0,0,.64,1.74,2.68,2.68,0,0,0,2.23,1.15,3.06,3.06,0,0,0,2.54-1.28Zm-.16-2.63a3,3,0,0,0-2.89-2.89,2.76,2.76,0,0,0-1.65.56,3.19,3.19,0,0,0-1.22,2.33Z"/><path class="cls-1" d="M262,87.53h.69l.08.19,2.61,6.34,2.57-6.34.1-.19h.69l-.18.45L265.66,95l-.1.19h-.41l-.08-.19L262.16,88Z"/><path class="cls-1" d="M276.41,93.69a3.63,3.63,0,0,1-3.05,1.54,3.32,3.32,0,0,1-2.31-.93,3.86,3.86,0,0,1-1.22-2.92,3.94,3.94,0,0,1,.92-2.58,3.22,3.22,0,0,1,2.61-1.27,3.33,3.33,0,0,1,2.33,1,3.86,3.86,0,0,1,1.2,2.9v.32h-6.4a3.61,3.61,0,0,0,.64,1.74,2.67,2.67,0,0,0,2.23,1.15,3.07,3.07,0,0,0,2.54-1.28Zm-.16-2.63a3,3,0,0,0-2.89-2.89,2.72,2.72,0,0,0-1.65.56,3.15,3.15,0,0,0-1.22,2.33Z"/><path class="cls-1" d="M279.51,88.93a3.41,3.41,0,0,1,3-1.4h.32v.64h-.32a3.23,3.23,0,0,0-1.59.39,2.85,2.85,0,0,0-1.43,2.68v4h-.64v-7.7h.64V89Z"/><path class="cls-1" d="M288.75,87.74l.08-.21h.69l-.16.43L286.65,95a8.85,8.85,0,0,1-1.25,2.43,2.26,2.26,0,0,1-1.8.77h-.32v-.64h.32a1.7,1.7,0,0,0,1.06-.33A5.65,5.65,0,0,0,286,94.91l-2.7-7-.16-.43h.69l.08.21L286.34,94Z"/><path class="cls-1" d="M292.28,93.13v.14c.08.88.72,1.32,1.91,1.32h.32v.64h-.32l-.52,0a2,2,0,0,1-2-2.07v-5h-1.3v-.64h1.3v-2h.64v2h2.23v.64h-2.23Z"/><path class="cls-1" d="M296.85,88.67a2.84,2.84,0,0,1,2.31-1.14,2.91,2.91,0,0,1,1.94.74,3.2,3.2,0,0,1,1.11,2.52v4.12l0,.34h-.63v-.32l0-4.14a2.71,2.71,0,0,0-.5-1.59,2.22,2.22,0,0,0-1.91-1,2.3,2.3,0,0,0-1.46.53,2.58,2.58,0,0,0-.94,2.09v4.44h-.65V85h.65v3.75Z"/><path class="cls-1" d="M304.86,86.23v-.64h.66v.64h-.66Zm0,1.3h.64v7.7h-.64v-7.7Z"/><path class="cls-1" d="M314.1,95.25h-.62l0-.32,0-4.14A2.7,2.7,0,0,0,313,89.2a2.22,2.22,0,0,0-1.91-1,2.28,2.28,0,0,0-1.46.53,2.59,2.59,0,0,0-.95,2.09v4.44H308v-7.7h.64v1.25a.47.47,0,0,1,.1-.11A2.84,2.84,0,0,1,311,87.53a2.94,2.94,0,0,1,1.94.74,3.2,3.2,0,0,1,1.11,2.52v4.46Z"/><path class="cls-1" d="M316.94,88.77a3.28,3.28,0,0,1,2.6-1.24,3.64,3.64,0,0,1,.56,0,3.39,3.39,0,0,1,2.33,1.59V87.55h.67v.32l0,7a3.15,3.15,0,0,1-.77,2,3.41,3.41,0,0,1-2.74,1.35h-.32v-.64h.32a2.87,2.87,0,0,0,2-.87,2.52,2.52,0,0,0,.84-1.8V93.6c-.09.12-.18.26-.29.4a3.36,3.36,0,0,1-4.93.29,3.87,3.87,0,0,1-1.2-2.91A4,4,0,0,1,316.94,88.77Zm.39,4.68a2.7,2.7,0,0,0,4,.42,3.19,3.19,0,0,0,1.06-2.49,3.39,3.39,0,0,0-.67-2.07,2.71,2.71,0,0,0-4.05-.42,3.26,3.26,0,0,0-1.06,2.49A3.4,3.4,0,0,0,317.33,93.45Z"/><path class="cls-1" d="M327.13,94.06h.66l-.06.39a2.9,2.9,0,0,1-1.63,2.16l-.46.23v-.72l.18-.08a2.3,2.3,0,0,0,1.26-1.72Z"/><path class="cls-1" d="M336.68,88.77a3.27,3.27,0,0,1,2.6-1.24,3.64,3.64,0,0,1,.56,0,3.41,3.41,0,0,1,2.33,1.59V87.53h.64v7.7h-.64V93.6l-.29.4a3.36,3.36,0,0,1-4.93.29,3.87,3.87,0,0,1-1.2-2.91A4,4,0,0,1,336.68,88.77Zm.38,4.68a2.71,2.71,0,0,0,4.05.42,3.23,3.23,0,0,0,1.06-2.49,3.4,3.4,0,0,0-.68-2.07,2.7,2.7,0,0,0-4-.42,3.22,3.22,0,0,0-1.06,2.49A3.46,3.46,0,0,0,337.06,93.45Z"/><path class="cls-1" d="M351.49,95.25h-.63v-.32l0-4.14a2.64,2.64,0,0,0-.5-1.59,2.21,2.21,0,0,0-1.91-1,2.3,2.3,0,0,0-1.46.53,2.58,2.58,0,0,0-.94,2.09v4.44h-.64v-7.7H346v1.25l.09-.11a2.84,2.84,0,0,1,2.31-1.14,3,3,0,0,1,1.95.74,3.22,3.22,0,0,1,1.1,2.52v4.12Z"/><path class="cls-1" d="M354.33,88.77a3.28,3.28,0,0,1,2.6-1.24,3.64,3.64,0,0,1,.56,0,3.41,3.41,0,0,1,2.33,1.59V84h.64V95.23h-.64V93.6l-.29.4a3.36,3.36,0,0,1-4.93.29,3.87,3.87,0,0,1-1.2-2.91A4,4,0,0,1,354.33,88.77Zm.38,4.68a2.71,2.71,0,0,0,4.05.42,3.23,3.23,0,0,0,1.06-2.49,3.4,3.4,0,0,0-.68-2.07,2.7,2.7,0,0,0-4-.42A3.22,3.22,0,0,0,354,91.38,3.46,3.46,0,0,0,354.71,93.45Z"/><path class="cls-1" d="M372.81,87.53h.33v.64h-2.25v7.06h-.64V88.17H369v-.64h1.3a5.35,5.35,0,0,1,.31-1.6,2.25,2.25,0,0,1,2.24-1.63h.33V85h-.33a1.52,1.52,0,0,0-.6.11c-.79.3-1.22,1.12-1.3,2.47Z"/><path class="cls-1" d="M375.43,88.93a3.41,3.41,0,0,1,3-1.4h.32v.64h-.32a3.23,3.23,0,0,0-1.59.39,2.85,2.85,0,0,0-1.43,2.68v4h-.64v-7.7h.64V89Z"/><path class="cls-1" d="M386.1,93.69a3.63,3.63,0,0,1-3.05,1.54,3.34,3.34,0,0,1-2.31-.93,3.86,3.86,0,0,1-1.22-2.92,3.94,3.94,0,0,1,.92-2.58,3.22,3.22,0,0,1,2.61-1.27,3.31,3.31,0,0,1,2.33,1,3.86,3.86,0,0,1,1.2,2.9v.32h-6.4a3.61,3.61,0,0,0,.64,1.74,2.67,2.67,0,0,0,2.23,1.15,3.07,3.07,0,0,0,2.54-1.28Zm-.16-2.63a3,3,0,0,0-2.89-2.89,2.72,2.72,0,0,0-1.65.56,3.15,3.15,0,0,0-1.22,2.33Z"/><path class="cls-1" d="M394.44,93.69a3.61,3.61,0,0,1-3,1.54,3.34,3.34,0,0,1-2.32-.93,3.85,3.85,0,0,1-1.21-2.92,3.93,3.93,0,0,1,.91-2.58,3.25,3.25,0,0,1,2.62-1.27,3.3,3.3,0,0,1,2.32,1,3.87,3.87,0,0,1,1.21,2.9v.32h-6.41a3.62,3.62,0,0,0,.65,1.74,2.65,2.65,0,0,0,2.23,1.15,3.06,3.06,0,0,0,2.53-1.28Zm-.16-2.63a2.82,2.82,0,0,0-.67-1.8,2.77,2.77,0,0,0-3.87-.53,3.22,3.22,0,0,0-1.22,2.33Z"/><path class="cls-1" d="M404.73,93.13v.14c.09.88.72,1.32,1.91,1.32H407v.64h-.32a4.36,4.36,0,0,1-.51,0q-2-.21-2-2.07v-5h-1.3v-.64h1.3v-2h.64v2H407v.64h-2.23Z"/><path class="cls-1" d="M409.25,88.93a3.43,3.43,0,0,1,3-1.4h.32v.64h-.32a3.26,3.26,0,0,0-1.59.39,2.84,2.84,0,0,0-1.42,2.68v4h-.64v-7.7h.64V89Z"/><path class="cls-1" d="M414.28,88.77a3.27,3.27,0,0,1,2.6-1.24,3.64,3.64,0,0,1,.56,0,3.41,3.41,0,0,1,2.33,1.59V87.53h.64v7.7h-.64V93.6l-.29.4a3.36,3.36,0,0,1-4.93.29,3.87,3.87,0,0,1-1.2-2.91A4,4,0,0,1,414.28,88.77Zm.38,4.68a2.71,2.71,0,0,0,4,.42,3.23,3.23,0,0,0,1.06-2.49,3.4,3.4,0,0,0-.68-2.07,2.7,2.7,0,0,0-4-.42A3.22,3.22,0,0,0,414,91.38,3.39,3.39,0,0,0,414.66,93.45Z"/><path class="cls-1" d="M422.17,87.53h.69l.08.19,2.62,6.34,2.56-6.34.1-.19h.69l-.18.45L425.86,95l-.09.19h-.42l-.08-.19L422.36,88Z"/><path class="cls-1" d="M436.61,93.69a3.61,3.61,0,0,1-3.05,1.54,3.34,3.34,0,0,1-2.31-.93A3.86,3.86,0,0,1,430,91.38,3.94,3.94,0,0,1,431,88.8a3.23,3.23,0,0,1,2.61-1.27,3.31,3.31,0,0,1,2.33,1,3.86,3.86,0,0,1,1.2,2.9v.32h-6.4a3.71,3.71,0,0,0,.64,1.74,2.68,2.68,0,0,0,2.23,1.15,3.06,3.06,0,0,0,2.54-1.28Zm-.16-2.63a3,3,0,0,0-2.89-2.89,2.76,2.76,0,0,0-1.65.56,3.19,3.19,0,0,0-1.22,2.33Z"/><path class="cls-1" d="M439,84h.64V95.23H439V84Z"/><path class="cls-1" d="M449.71,88.93a3.41,3.41,0,0,1,3-1.4H453v.64h-.32a3.23,3.23,0,0,0-1.59.39,2.85,2.85,0,0,0-1.43,2.68v4H449v-7.7h.64V89Z"/><path class="cls-1" d="M454.52,86.23v-.64h.66v.64h-.66Zm0,1.3h.64v7.7h-.64v-7.7Z"/><path class="cls-1" d="M457.94,88.77a3.27,3.27,0,0,1,2.6-1.24,3.64,3.64,0,0,1,.56,0,3.41,3.41,0,0,1,2.33,1.59V87.55h.67l0,.32v7a3.15,3.15,0,0,1-.77,2,3.42,3.42,0,0,1-2.75,1.35h-.32v-.64h.32a2.91,2.91,0,0,0,2-.87,2.52,2.52,0,0,0,.84-1.8V93.6l-.29.4a3.36,3.36,0,0,1-4.93.29,3.87,3.87,0,0,1-1.2-2.91A4,4,0,0,1,457.94,88.77Zm.38,4.68a2.71,2.71,0,0,0,4.05.42,3.23,3.23,0,0,0,1.06-2.49,3.4,3.4,0,0,0-.68-2.07,2.7,2.7,0,0,0-4-.42,3.22,3.22,0,0,0-1.06,2.49A3.46,3.46,0,0,0,458.32,93.45Z"/><path class="cls-1" d="M467.37,88.67a2.84,2.84,0,0,1,2.31-1.14,3,3,0,0,1,1.95.74,3.19,3.19,0,0,1,1.1,2.52v4.12l0,.34h-.63v-.32l0-4.14a2.64,2.64,0,0,0-.5-1.59,2.21,2.21,0,0,0-1.91-1,2.3,2.3,0,0,0-1.46.53,2.58,2.58,0,0,0-.94,2.09v4.44h-.64V85h.64v3.75Z"/><path class="cls-1" d="M476.28,93.13v.14c.08.88.72,1.32,1.91,1.32h.32v.64h-.32l-.52,0a2,2,0,0,1-2-2.07v-5h-1.3v-.64h1.3v-2h.64v2h2.23v.64h-2.23Z"/><path class="cls-1" d="M484.53,89.6a1.15,1.15,0,0,0-.32-.77,2.3,2.3,0,0,0-1.75-.66,2.8,2.8,0,0,0-1.16.24,1.33,1.33,0,0,0-.91,1.19.6.6,0,0,0,.05.26c.12.34.66.67,1.6,1,1.16.39,1.78.6,1.86.64,1,.43,1.54,1,1.54,1.67a1.6,1.6,0,0,1-.5,1.14,3.24,3.24,0,0,1-2.48.93,3.79,3.79,0,0,1-2-.51,1.83,1.83,0,0,1-1-1.56h.65a1.17,1.17,0,0,0,.36.79,2.79,2.79,0,0,0,2,.64,3.43,3.43,0,0,0,1.33-.26c.67-.27,1-.66,1-1.17a.74.74,0,0,0-.05-.25c-.13-.35-.66-.67-1.59-1l-1.86-.64c-1-.43-1.55-1-1.55-1.69a1.69,1.69,0,0,1,.46-1.15,2.83,2.83,0,0,1,2.25-.92,3.15,3.15,0,0,1,1.73.48,1.86,1.86,0,0,1,1,1.59Z"/><path class="cls-1" d="M487.69,94.61h.64v.32h0v.32h-.64v-.32h0Z"/></g></g></svg>