<svg xmlns="http://www.w3.org/2000/svg" viewBox="0 0 848 319.63"><defs><style>.cls-1{fill:#fff;}</style></defs><g id="레이어_2" data-name="레이어 2"><g id="Layer_1" data-name="Layer 1"><ellipse cx="396.05" cy="189.83" rx="13.57" ry="13.17"/><circle cx="629.59" cy="162.02" r="157.11"/><path class="cls-1" d="M629.59,319.63C542.69,319.63,472,248.93,472,162S542.69,4.41,629.59,4.41,787.21,75.11,787.21,162,716.5,319.63,629.59,319.63Zm0-314.22C543.24,5.41,473,75.66,473,162s70.26,156.61,156.61,156.61S786.21,248.38,786.21,162,716,5.41,629.59,5.41Z"/><path d="M273.16,24a8.18,8.18,0,0,1,6.19-2.81A8.36,8.36,0,0,1,285.57,24a10.42,10.42,0,0,1,2.75,7.32,10.49,10.49,0,0,1-2.78,7.36,8.17,8.17,0,0,1-6.19,2.81,8.38,8.38,0,0,1-6.22-2.84,10.44,10.44,0,0,1-2.75-7.33A10.46,10.46,0,0,1,273.16,24Zm1.35,12.62a5.91,5.91,0,0,0,4.84,2.51,6,6,0,0,0,4.4-2,8.16,8.16,0,0,0,2.18-5.78A8.48,8.48,0,0,0,284.2,26a5.94,5.94,0,0,0-4.85-2.51,6,6,0,0,0-4.39,2,8.12,8.12,0,0,0-2.19,5.77A8.43,8.43,0,0,0,274.51,36.57Z"/><path d="M298.73,27.12h1.19v2.39h-1.19a3.64,3.64,0,0,0-1.8.45q-2,1.11-2,4.15v7.36h-2.39V27.12h2.39v1.25A6.24,6.24,0,0,1,298.73,27.12Z"/><path d="M302.61,21.14v-1.2H305v8.82a6.29,6.29,0,0,1,4.19-1.64,6.12,6.12,0,0,1,4.28,1.73,7.09,7.09,0,0,1,2.3,5.44A7.26,7.26,0,0,1,314,39.17a6.06,6.06,0,0,1-4.81,2.3A6.19,6.19,0,0,1,305,39.83v1.64h-2.39V21.14Zm3.23,16a3.85,3.85,0,0,0,3.35,1.89,3.72,3.72,0,0,0,2.51-1,4.84,4.84,0,0,0,1.68-3.83,5.17,5.17,0,0,0-.87-2.9,3.84,3.84,0,0,0-3.32-1.88,3.8,3.8,0,0,0-2.51,1A4.85,4.85,0,0,0,305,34.32,5.11,5.11,0,0,0,305.84,37.19Z"/><path d="M318.91,25.29V22.9h2.42v2.39h-2.42Zm0,1.83h2.39V41.47h-2.39V27.12Z"/><path d="M327.94,37.25c0,1.18.74,1.79,2.18,1.83h1.2v2.39h-1.2a6.79,6.79,0,0,1-1.59-.18c-2-.46-3-1.79-3-4V29.51h-2V27.12h2V24l0-1.17H328l0,1.2v3.11h3.35v2.39H328Z"/><path d="M424,246.19c-113.15,0-219.54-8.51-299.55-24C44.19,206.73,0,186,0,163.9s44.19-42.82,124.44-58.32c80-15.46,186.41-24,299.55-24,23.44,0,45.6.36,69.74,1.15l0,1C469.57,83,447.42,82.61,424,82.61,190.75,82.61,1,119.08,1,163.9s189.75,81.29,423,81.29c29.4,0,59-.59,87.87-1.76,104-4.25,195.43-15.84,257.31-32.64C820.09,197,847,180.75,847,163.9c0-15.68-23.59-30.94-68.2-44.15l.28-1c45.09,13.35,68.92,29,68.92,45.11,0,17.35-27.17,33.9-78.57,47.86C707.48,228.57,616,240.18,511.9,244.43,483,245.6,453.4,246.19,424,246.19Z"/><circle cx="100.59" cy="95.17" r="94.67"/><path class="cls-1" d="M100.59,190.33a95.17,95.17,0,1,1,95.16-95.16A95.27,95.27,0,0,1,100.59,190.33ZM100.59,1a94.17,94.17,0,1,0,94.16,94.17A94.27,94.27,0,0,0,100.59,1Z"/><rect x="301.89" y="53.28" width="1" height="32.61"/><path d="M382.48,97.12a5.29,5.29,0,0,1,2.1,4.28,5.23,5.23,0,0,1-1.41,3.58,5.92,5.92,0,0,1-4.69,2.1h-8.85V96.91l0-8.94v-1.2h1.19l6.52,0a6.24,6.24,0,0,1,4.07,1.43,5.37,5.37,0,0,1,2.06,4.25,5.5,5.5,0,0,1-1.91,4.09A6.29,6.29,0,0,1,382.48,97.12Zm-5.11-1.41a4,4,0,0,0,2.12-.59,3,3,0,0,0,1.62-2.69,3,3,0,0,0-.69-1.89,3.73,3.73,0,0,0-3.05-1.4H372v6.61Zm-5.32,9,6.43,0a3.84,3.84,0,0,0,2.09-.59,3,3,0,0,0,1.62-2.69,3.06,3.06,0,0,0-.66-1.89,3.69,3.69,0,0,0-3-1.4h-6.43Z"/><path d="M388.73,95a6.15,6.15,0,0,1,9-.66V92.72h2.4v14.36h-2.4v-1.65a6.23,6.23,0,0,1-4.18,1.65,6.07,6.07,0,0,1-4.28-1.74A7.08,7.08,0,0,1,387,99.9,7.27,7.27,0,0,1,388.73,95Zm1.5,7.77a3.81,3.81,0,0,0,3.32,1.88,3.73,3.73,0,0,0,2.51-1,4.83,4.83,0,0,0,1.67-3.83,5.22,5.22,0,0,0-.86-2.9,3.85,3.85,0,0,0-3.32-1.88,3.74,3.74,0,0,0-2.51.95,4.85,4.85,0,0,0-1.68,3.83A5.15,5.15,0,0,0,390.23,102.8Z"/><path d="M411.13,92.72h1.19v2.4h-1.19a3.64,3.64,0,0,0-1.8.45c-1.33.73-2,2.12-2,4.15v7.36h-2.39V92.72h2.39V94A6.26,6.26,0,0,1,411.13,92.72Z"/><path d="M422.55,92.72h2.57l-.63,1.62-4.42,11.93a17.36,17.36,0,0,1-2.51,5.62,3.89,3.89,0,0,1-3.14,1.35h-1.2v-2.4h1.2a1.92,1.92,0,0,0,1.52-.71,14.12,14.12,0,0,0,1.74-4.22l-4.37-11.57-.63-1.62h2.57l.27.78,3.41,9,3.35-9Z"/><path d="M368.79,131.33a6.19,6.19,0,0,1-5.29,2.75,5.92,5.92,0,0,1-4.16-1.71,7.16,7.16,0,0,1-2.27-5.47,7.39,7.39,0,0,1,1.71-4.87,5.9,5.9,0,0,1,4.72-2.31,6.22,6.22,0,0,1,5.32,2.58l-2,1.37a3.86,3.86,0,0,0-3.35-1.55,3.5,3.5,0,0,0-2.42.95,4.82,4.82,0,0,0-1.62,3.83,5.37,5.37,0,0,0,.78,2.84,3.66,3.66,0,0,0,3.26,1.94,4.19,4.19,0,0,0,3.38-1.73Z"/><path d="M383.56,131.27a6.6,6.6,0,0,1-5.56,2.81,6.15,6.15,0,0,1-4.3-1.74,7.1,7.1,0,0,1-2.28-5.44,7.34,7.34,0,0,1,1.71-4.84,6.19,6.19,0,0,1,9.15-.6,7.08,7.08,0,0,1,2.3,5.44v1.2H373.93a5.26,5.26,0,0,0,.72,1.67,3.83,3.83,0,0,0,3.35,1.91,4.41,4.41,0,0,0,3.65-1.85Zm-1.37-5.57a3.13,3.13,0,0,0-.81-1.88,4.23,4.23,0,0,0-3.38-1.7,3.63,3.63,0,0,0-1.76.45,4.42,4.42,0,0,0-2.31,3.13Z"/><path d="M399.56,134.11H397.2l0-1.2,0-7a4.24,4.24,0,0,0-.57-2.15,3.05,3.05,0,0,0-2.72-1.64,3,3,0,0,0-1.86.65,3.81,3.81,0,0,0-1.43,3.14v8.17h-2.39V119.72h2.39v1.14a5.51,5.51,0,0,1,3.29-1.14,5.19,5.19,0,0,1,3.55,1.38,6,6,0,0,1,2.13,4.81v7Z"/><path d="M406.91,129.86c0,1.18.75,1.78,2.18,1.82h1.2v2.4h-1.2a6.77,6.77,0,0,1-1.58-.18q-3-.69-3-4v-7.77h-2v-2.4h2v-3.14l0-1.16H407l0,1.2v3.1h3.35v2.4h-3.35Z"/><path d="M424.22,131.27a6.6,6.6,0,0,1-5.56,2.81,6.15,6.15,0,0,1-4.3-1.74,7.09,7.09,0,0,1-2.27-5.44,7.34,7.34,0,0,1,1.7-4.84,6.19,6.19,0,0,1,9.15-.6,7.08,7.08,0,0,1,2.3,5.44v1.2H414.6a5.23,5.23,0,0,0,.71,1.67,3.84,3.84,0,0,0,3.35,1.91,4.41,4.41,0,0,0,3.65-1.85Zm-1.37-5.57a3.13,3.13,0,0,0-.81-1.88,4.23,4.23,0,0,0-3.38-1.7,3.66,3.66,0,0,0-1.76.45,4.38,4.38,0,0,0-2.3,3.13Z"/><path d="M435.05,119.72h1.19v2.4h-1.19a3.64,3.64,0,0,0-1.8.45c-1.33.73-2,2.12-2,4.15v7.36h-2.39V119.72h2.39V121A6.26,6.26,0,0,1,435.05,119.72Z"/><path class="cls-1" d="M599.1,157.91h-2.39V137.58h2l.3.72,7,15.48,7-15.48.3-.72h2v1.19l0,17.94v1.2h-2.39v-1.2l0-12.38-5.77,12.86-.3.72H605.2l-.3-.72-5.8-12.86v13.58Z"/><path class="cls-1" d="M621.19,145.86a6.17,6.17,0,0,1,9.09-.57,7.07,7.07,0,0,1,2.31,5.44,7.26,7.26,0,0,1-1.77,4.88,6.16,6.16,0,0,1-9.09.56,7.06,7.06,0,0,1-2.3-5.44A7.29,7.29,0,0,1,621.19,145.86Zm1.5,7.77a3.82,3.82,0,0,0,3.32,1.89,3.72,3.72,0,0,0,2.51-1,4.83,4.83,0,0,0,1.67-3.83,5.16,5.16,0,0,0-.86-2.9A3.85,3.85,0,0,0,626,146a3.7,3.7,0,0,0-2.51,1,4.82,4.82,0,0,0-1.68,3.82A5.12,5.12,0,0,0,622.69,153.63Z"/><path class="cls-1" d="M636.74,145.86a6.17,6.17,0,0,1,9.09-.57,7.06,7.06,0,0,1,2.3,5.44,7.25,7.25,0,0,1-1.76,4.88,6.16,6.16,0,0,1-9.09.56,7,7,0,0,1-2.3-5.44A7.29,7.29,0,0,1,636.74,145.86Zm1.5,7.77a3.81,3.81,0,0,0,3.32,1.89,3.74,3.74,0,0,0,2.51-1,4.86,4.86,0,0,0,1.67-3.83,5.17,5.17,0,0,0-.87-2.9,3.82,3.82,0,0,0-3.31-1.88,3.75,3.75,0,0,0-2.52,1,4.84,4.84,0,0,0-1.67,3.82A5.12,5.12,0,0,0,638.24,153.63Z"/><path class="cls-1" d="M663.11,157.94h-2.36l0-1.2,0-7a4.25,4.25,0,0,0-.57-2.16A3,3,0,0,0,657.4,146a2.91,2.91,0,0,0-1.85.66,3.78,3.78,0,0,0-1.44,3.14v8.16h-2.39V143.56h2.39v1.13a5.55,5.55,0,0,1,3.29-1.13,5.25,5.25,0,0,1,3.56,1.37,6.06,6.06,0,0,1,2.12,4.82v7Z"/><path class="cls-1" d="M569.59,164h2.78l-1.11,1.82c-.46.76-.85,1.47-1.19,2.13a21.08,21.08,0,0,0-2.22,9.5q0,7,3.35,11.55l1.44,1.91h-3l-.36-.48q-3.82-5.11-3.83-13a26.67,26.67,0,0,1,.48-4.93,24.07,24.07,0,0,1,3.29-7.95Z"/><path class="cls-1" d="M575.63,184.91V164.58h7.89a8,8,0,0,1,5.56,3.08,9.5,9.5,0,0,1,2.1,7.08,9.77,9.77,0,0,1-2,7,7.89,7.89,0,0,1-5.65,3.17h-7.89Zm7.71-2.39a5.41,5.41,0,0,0,3.8-2.13,7.65,7.65,0,0,0,1.64-5.65v-.09a7.87,7.87,0,0,0-1.19-5,5.47,5.47,0,0,0-4.25-2.72H578v15.55Z"/><path class="cls-1" d="M606.3,182.1a6.59,6.59,0,0,1-5.56,2.81,6.15,6.15,0,0,1-4.3-1.74,7.07,7.07,0,0,1-2.27-5.44,7.34,7.34,0,0,1,1.7-4.84,6.21,6.21,0,0,1,9.15-.6,7.09,7.09,0,0,1,2.3,5.44v1.2H596.68a5.36,5.36,0,0,0,.71,1.67,3.85,3.85,0,0,0,3.35,1.92,4.42,4.42,0,0,0,3.65-1.86Zm-1.37-5.56a3.13,3.13,0,0,0-.81-1.89,4.26,4.26,0,0,0-3.38-1.7,3.66,3.66,0,0,0-1.76.45,4.42,4.42,0,0,0-2.3,3.14Z"/><path class="cls-1" d="M618,174.71a1.31,1.31,0,0,0-.32-.83,2.9,2.9,0,0,0-2.4-.93,4.24,4.24,0,0,0-1.22.18c-1,.32-1.5.85-1.5,1.58a.8.8,0,0,0,.18.48,7.12,7.12,0,0,0,2.75,1.23q1.5.45,2.22.75c2.11.85,3.15,2.05,3.13,3.58a3.5,3.5,0,0,1-.89,2.28,5.83,5.83,0,0,1-4.67,1.88,6.58,6.58,0,0,1-3.73-1,3.67,3.67,0,0,1-1.83-3.11h2.39a1.22,1.22,0,0,0,.36.84,3.64,3.64,0,0,0,2.81.93,5.45,5.45,0,0,0,1.38-.18c1.19-.3,1.79-.83,1.79-1.59a.86.86,0,0,0-.15-.45,7,7,0,0,0-2.72-1.19c-1-.3-1.71-.55-2.21-.75-2.11-.86-3.18-2.07-3.2-3.65a3.69,3.69,0,0,1,.9-2.36,5.18,5.18,0,0,1,4.21-1.79,5.75,5.75,0,0,1,3.32,1,3.76,3.76,0,0,1,1.8,3.17Z"/><path class="cls-1" d="M624,168.73v-2.39h2.43v2.39H624Zm0,1.83h2.4v14.35H624V170.56Z"/><path class="cls-1" d="M631,172.86a6.07,6.07,0,0,1,4.81-2.3A6.17,6.17,0,0,1,640,172.2v-.45l0-1.16h2.42l0,1.19,0,11.93a7,7,0,0,1-.3,2,8.39,8.39,0,0,1-.88,2,8.81,8.81,0,0,1-1.36,1.72A6,6,0,0,1,638,190.6a5.36,5.36,0,0,1-2.19.47h-1.19v-2.39h1.19a3.76,3.76,0,0,0,2.85-1.47,5.31,5.31,0,0,0,1.31-3.5v-.45a6.25,6.25,0,0,1-4.19,1.65,6,6,0,0,1-4.27-1.74,7,7,0,0,1-2.3-5.44A7.24,7.24,0,0,1,631,172.86Zm1.5,7.77a3.81,3.81,0,0,0,3.31,1.89,3.75,3.75,0,0,0,2.52-1,4.86,4.86,0,0,0,1.67-3.83,5.17,5.17,0,0,0-.87-2.9,3.82,3.82,0,0,0-3.32-1.88,3.74,3.74,0,0,0-2.51,1,4.84,4.84,0,0,0-1.67,3.82A5.12,5.12,0,0,0,632.47,180.63Z"/><path class="cls-1" d="M658.54,184.94h-2.36l0-1.2,0-7a4.25,4.25,0,0,0-.56-2.16,3.05,3.05,0,0,0-2.72-1.64,2.94,2.94,0,0,0-1.86.66,3.8,3.8,0,0,0-1.43,3.14v8.16h-2.39V170.56h2.39v1.13a5.5,5.5,0,0,1,3.29-1.13,5.22,5.22,0,0,1,3.55,1.37,6,6,0,0,1,2.13,4.82v7Z"/><path class="cls-1" d="M674.23,182.1a6.59,6.59,0,0,1-5.56,2.81,6.15,6.15,0,0,1-4.3-1.74,7.07,7.07,0,0,1-2.27-5.44,7.34,7.34,0,0,1,1.7-4.84,6.21,6.21,0,0,1,9.15-.6,7.09,7.09,0,0,1,2.3,5.44v1.2H664.61a5.36,5.36,0,0,0,.71,1.67,3.85,3.85,0,0,0,3.35,1.92,4.42,4.42,0,0,0,3.65-1.86Zm-1.37-5.56a3.13,3.13,0,0,0-.81-1.89,4.26,4.26,0,0,0-3.38-1.7,3.66,3.66,0,0,0-1.76.45,4.42,4.42,0,0,0-2.3,3.14Z"/><path class="cls-1" d="M685.06,170.56h1.19V173h-1.19a3.64,3.64,0,0,0-1.8.45q-2,1.11-2,4.15v7.36h-2.39V170.56h2.39v1.25A6.26,6.26,0,0,1,685.06,170.56Z"/><path class="cls-1" d="M686.82,164h2.78l.36.57a24.69,24.69,0,0,1,3.77,12.88,21.64,21.64,0,0,1-.24,3.2,24.07,24.07,0,0,1-3.53,9.72l-.36.54h-2.87l1.2-1.85a12.89,12.89,0,0,0,.69-1.17,21.46,21.46,0,0,0,2.72-10.44,22.77,22.77,0,0,0-3.41-11.63Z"/><path class="cls-1" d="M62.42,80.89l0-8.94v-1.2h1.2l7.59,0a6.21,6.21,0,0,1,4,1.44A5.36,5.36,0,0,1,76,80a6,6,0,0,1-4.73,2.06H64.81v9H62.42V80.89Zm8.82-1.2a4.09,4.09,0,0,0,2.06-.54A3,3,0,0,0,75,76.43a3.06,3.06,0,0,0-.66-1.88,3.66,3.66,0,0,0-3.08-1.44H64.81v6.61Z"/><path class="cls-1" d="M81,69.53h2.39V91.05H81V69.53Z"/><path class="cls-1" d="M87.3,79a6.06,6.06,0,0,1,4.81-2.3,6.16,6.16,0,0,1,4.19,1.65V76.7h2.39V91.05H96.3V89.41a6.26,6.26,0,0,1-4.19,1.64,6.08,6.08,0,0,1-4.28-1.73,7.09,7.09,0,0,1-2.3-5.44A7.26,7.26,0,0,1,87.3,79Zm1.49,7.78a3.84,3.84,0,0,0,3.32,1.88,3.76,3.76,0,0,0,2.51-1,4.85,4.85,0,0,0,1.68-3.83,5.12,5.12,0,0,0-.87-2.9,3.82,3.82,0,0,0-3.32-1.89,3.72,3.72,0,0,0-2.51,1,4.84,4.84,0,0,0-1.68,3.83A5.17,5.17,0,0,0,88.79,86.78Z"/><path class="cls-1" d="M114.86,91.08H112.5l0-1.19,0-7a4.22,4.22,0,0,0-.57-2.15,3,3,0,0,0-2.72-1.65,2.91,2.91,0,0,0-1.85.66,3.79,3.79,0,0,0-1.44,3.14v8.16h-2.39V76.7h2.39v1.14a5.49,5.49,0,0,1,3.29-1.14,5.21,5.21,0,0,1,3.56,1.38,6,6,0,0,1,2.12,4.81v7Z"/><path class="cls-1" d="M130.56,88.24A6.57,6.57,0,0,1,125,91.05a6.18,6.18,0,0,1-4.31-1.73,7.14,7.14,0,0,1-2.27-5.44A7.37,7.37,0,0,1,120.13,79a6.2,6.2,0,0,1,9.15-.59,7.08,7.08,0,0,1,2.3,5.44v1.19H120.93a5.21,5.21,0,0,0,.72,1.68A3.85,3.85,0,0,0,125,88.66a4.45,4.45,0,0,0,3.65-1.85Zm-1.37-5.56a3.11,3.11,0,0,0-.81-1.88A4.26,4.26,0,0,0,125,79.09a3.63,3.63,0,0,0-1.76.45,4.45,4.45,0,0,0-2.31,3.14Z"/><path class="cls-1" d="M137.77,86.84c0,1.17.74,1.78,2.18,1.82h1.19v2.39H140a6.79,6.79,0,0,1-1.59-.18c-2-.45-3-1.79-3-4V79.09h-2V76.7h2V73.56l0-1.16h2.43l0,1.19V76.7h3.34v2.39H137.8Z"/><path class="cls-1" d="M61.76,97.12h2.78L63.44,99c-.46.76-.86,1.46-1.2,2.12A21.21,21.21,0,0,0,60,110.58q0,7,3.35,11.54L64.81,124h-3l-.36-.47q-3.83-5.11-3.82-13a26.59,26.59,0,0,1,.48-4.93,23.78,23.78,0,0,1,3.28-8Z"/><path class="cls-1" d="M82.6,113.75a8.07,8.07,0,0,1-1.73,2A9,9,0,0,1,75,118.05a8.23,8.23,0,0,1-6.19-2.84,11.13,11.13,0,0,1,0-14.68A8.07,8.07,0,0,1,75,97.72a8.84,8.84,0,0,1,4,1,8,8,0,0,1,3.64,3.41l-2.15,1.07a5.09,5.09,0,0,0-1.11-1.4A6.42,6.42,0,0,0,75,100.11a6,6,0,0,0-4.4,2,8.2,8.2,0,0,0-2.15,5.77,8.51,8.51,0,0,0,1.7,5.23A5.88,5.88,0,0,0,75,115.66a6.33,6.33,0,0,0,2.45-.51,6,6,0,0,0,3.11-2.6Z"/><path class="cls-1" d="M86.34,96.53h2.39v21.52H86.34V96.53Z"/><path class="cls-1" d="M91.66,101.88V99.49h2.42v2.39H91.66Zm0,1.82h2.39v14.35H91.66V103.7Z"/><path class="cls-1" d="M109,115.24a6.57,6.57,0,0,1-5.56,2.81,6.14,6.14,0,0,1-4.3-1.73,7.11,7.11,0,0,1-2.28-5.44A7.37,7.37,0,0,1,98.6,106a6.14,6.14,0,0,1,4.87-2.33,6.07,6.07,0,0,1,4.28,1.74,7.08,7.08,0,0,1,2.3,5.44v1.19H99.4a5.21,5.21,0,0,0,.72,1.68,3.86,3.86,0,0,0,3.35,1.91,4.44,4.44,0,0,0,3.65-1.85Zm-1.37-5.56a3.11,3.11,0,0,0-.81-1.88,4.24,4.24,0,0,0-3.38-1.71,3.63,3.63,0,0,0-1.76.45,4.45,4.45,0,0,0-2.31,3.14Z"/><path class="cls-1" d="M125,118.08h-2.36l0-1.19,0-7a4.22,4.22,0,0,0-.57-2.15,3,3,0,0,0-2.72-1.65,2.94,2.94,0,0,0-1.86.66,3.81,3.81,0,0,0-1.43,3.14v8.16h-2.39V103.7H116v1.14a5.47,5.47,0,0,1,3.29-1.14,5.23,5.23,0,0,1,3.56,1.38,6,6,0,0,1,2.12,4.81v7Z"/><path class="cls-1" d="M132.38,113.84c0,1.17.75,1.78,2.19,1.82h1.19v2.39h-1.19a6.79,6.79,0,0,1-1.59-.18c-2-.45-3-1.79-3-4v-7.78h-2V103.7h2v-3.14l0-1.16h2.42l0,1.19v3.11h3.35v2.39h-3.35Z"/><path class="cls-1" d="M136.63,97.12h2.78l.36.57a24.82,24.82,0,0,1,3.77,12.89,21.75,21.75,0,0,1-.24,3.2,24.13,24.13,0,0,1-3.53,9.72l-.36.53h-2.87l1.19-1.85a12.89,12.89,0,0,0,.69-1.17,21.29,21.29,0,0,0,2.72-10.43A22.65,22.65,0,0,0,137.73,99Z"/><rect x="395.71" y="144.04" width="1" height="32.61"/></g></g></svg>