<svg xmlns="http://www.w3.org/2000/svg" viewBox="0 0 946.66 24.41"><g id="레이어_2" data-name="레이어 2"><g id="Layer_1" data-name="Layer 1"><path d="M0,10.55H20.6v2.16H0ZM3.68,20.3v1.62H19.54v2.16H1.41V18.24H16.93V16.75H1.41V14.59H19.2V20.3ZM16.75,5.09l.13-2H1.43V1H19.31l-.64,8.62H16.4l.19-2.32H1.66V5.09Z"/><path d="M24.9,23V10.68H34V3.86H24.9V1.7H36.22V12.84h-9v7.74L38,19.45v2.16Zm15.88,1.08V.62h2.27v9.77h3v2.16h-3V24.08Z"/><path d="M49.07,17.34V6.89a6,6,0,1,1,12,0V17.34a6,6,0,1,1-12,0Zm9.75.13V6.77a3.74,3.74,0,1,0-7.48,0v10.7a3.74,3.74,0,1,0,7.48,0Zm7.06,6.61V.62h2.27V24.08Z"/><path d="M73.24,8.88V6.15C73.24,2.5,75.85.59,79,.59s5.79,1.91,5.79,5.56v.38h5.26V.62h2.27v17H90.07V8.7H84.81v.18c0,3.67-2.61,5.55-5.79,5.55S73.24,12.55,73.24,8.88Zm3.49,13h16v2.16H74.46V16.23h2.27ZM75.51,8.77a3.52,3.52,0,0,0,7,0V6.28a3.52,3.52,0,1,0-7,0Z"/><path d="M96.68,23.39V21.22h20.6v2.17Zm1.41-20V1.24h17.79V3.4Zm0,11.86V6.41h17.7V8.57H100.36v4.52H116.1v2.17Z"/><path d="M121,23.49V21.33l6.37-.49v-5h2.27v4.81l6.7-.52V22.3ZM122.14,9V6.64c0-3.86,2.84-5.82,6.27-5.82s6.26,2,6.26,5.82V9c0,3.86-2.86,5.77-6.26,5.77S122.14,12.81,122.14,9ZM132.4,9V6.61c0-2.29-1.75-3.63-4-3.63s-4,1.34-4,3.63V9c0,2.24,1.77,3.57,4,3.57S132.4,11.22,132.4,9Zm5.06,15.1V.62h2.27v9.62h3V12.4h-3V24.08Z"/><path d="M173.91,13.4h-9.17v2.47h4.4c2.32,0,3.7,2,3.7,4.12s-1.38,4.14-3.7,4.14H158.07c-2.31,0-3.7-1.93-3.7-4.14s1.39-4.12,3.7-4.12h4.4V13.4h-9.16V11.24h20.6ZM154.35,9.78V7.62c4.36-.11,8.08-2.06,8.08-4.33v0h-7.72V1.11H172.5V3.27h-7.71v0c0,2.27,3.72,4.22,8.07,4.33V9.78c-4.51-.13-8.19-1.75-9.25-4.07C162.54,8,158.86,9.65,154.35,9.78ZM168.67,18H158.5A1.84,1.84,0,0,0,156.64,20a1.87,1.87,0,0,0,1.86,2h10.17a1.89,1.89,0,0,0,1.9-2A1.86,1.86,0,0,0,168.67,18Z"/><path d="M177.84,10.24c2.77-1,5.49-3.6,5.49-7.08V.9h2.27V3.16c0,3.48,2.72,6.08,5.49,7.08v2.37c-2.86-.88-5.81-3.12-6.63-5.79-.81,2.67-3.81,4.91-6.62,5.79Zm1.59,13.84V14.69h17.74v9.39H194.9v-.77Zm2.27-2.26,13.2-.67v-4.3H181.7Zm13.2-8.31V.62h2.27V13.51Z"/><path d="M201.65,12.48V10.32h20.6v2.16Zm5-4.09a3.7,3.7,0,0,1-3.81-3.79A3.7,3.7,0,0,1,206.64.82h10.62a3.72,3.72,0,0,1,3.81,3.78,3.72,3.72,0,0,1-3.81,3.79Zm-3.59,15.69V18.16h15.52V16.59H203.05V14.43h17.79v5.79H205.32v1.7h15.86v2.16ZM216.94,6.23a1.68,1.68,0,0,0,1.86-1.65A1.66,1.66,0,0,0,216.94,3H207a1.66,1.66,0,0,0-1.87,1.6A1.68,1.68,0,0,0,207,6.23Z"/><path d="M234.83,12V1.16h11.32V12Zm.43,9.88C240,21.82,243,20,243,17.52V16.8h-7.56V14.64h17.79V16.8H245.7v.72c.09,2.52,3.06,4.3,7.8,4.4v2.16c-4.76-.13-8.1-1.72-9.12-4.09-1,2.37-4.36,4-9.12,4.09Zm1.84-12h6.78V3.32H237.1Zm13.75,3.58V.62h2.26v5H256V7.77h-2.91v5.69Z"/><path d="M267.44,24.34V17.13h-9.17V15h20.6v2.16h-9.16v7.21ZM259.16,10.7c4-.15,8-2.72,8.23-6.07h-8V2.47h8.06V0h2.27V2.47h8.05V4.63h-8C270,8,274,10.55,278,10.7v2.16c-4.49-.15-8.28-2.6-9.42-5.48-1.13,2.88-4.92,5.33-9.41,5.48Z"/><path d="M300,.62h2.27V24.08H300V17.42h-5.49V23h-2.27V21.79L283.3,23V1.7h11.19V6.38H300Zm-7.76,19V3.86h-6.65V20.5ZM300,15.26V8.54h-5.49v6.72Z"/><path d="M315.48,7.33V5.89c0-3.5,2.61-5.3,5.79-5.3s5.79,1.8,5.79,5.3V7.33c0,3.53-2.61,5.3-5.79,5.3S315.48,10.86,315.48,7.33Zm1.09,16.75V18h15.07V16.23H316.57V14.07h17.34v6H318.84v1.88h15.52v2.16Zm8.22-16.85V6c0-2.16-1.52-3.27-3.5-3.27S317.75,3.86,317.75,6V7.23c0,2.16,1.52,3.24,3.54,3.24S324.79,9.39,324.79,7.23Zm6.85,5.66V.62h2.27V5.17h2.9V7.33h-2.9v5.56Z"/><path d="M339.79,12V1.16h11.32V12Zm.43,9.88c4.72-.1,7.74-1.88,7.78-4.4V16.8h-7.55V14.64h17.79V16.8h-7.58v.72c.09,2.52,3.06,4.3,7.8,4.4v2.16c-4.76-.13-8.09-1.72-9.12-4.09-1,2.37-4.35,4-9.12,4.09Zm1.84-12h6.78V3.32h-6.78Zm13.75,3.58V.62h2.27v5H361V7.77h-2.9v5.69Z"/><path d="M363.24,14.79V12.63h20.6v2.16Zm5-4.86c-2.14,0-3.81-1.88-3.81-4.55S366.09.82,368.23.82h10.62c2.11,0,3.81,1.88,3.81,4.56s-1.7,4.55-3.81,4.55Zm-3.59,14.15V16.57h2.27v5.35h15.86v2.16ZM378.53,7.77c1,0,1.86-.9,1.86-2.42S379.57,3,378.53,3h-10c-1.06,0-1.86.88-1.86,2.37s.8,2.42,1.86,2.42Z"/><path d="M395.69,14.1V11.94H408V14.1h-5.15l-1.63,10h-2.32l1.64-10Zm1.2-10.7V1.24h9.92l-.75,9h-2.29l.59-6.81Zm7.6,15.82V17.06h4.56V.62h2.27V24.08h-2.27V19.22Zm9.12,4.86V.62h2.27V24.08Z"/><path d="M419.86,23.39V21.22H429V15.1h2.26v6.12h9.17v2.17Zm1.41-9.68V1.24h17.78V3.4H423.54v8.15h15.74v2.16Z"/><path d="M444,13.43V11.27h20.6v2.16Zm1.41-3.65V4.27H461V3.11H445.44V1h17.79V6.33H447.71V7.62h15.63V9.78Zm0,14.3V18.42H461V17.08H445.44V14.92h17.79v5.56H447.71v1.44h15.86v2.16Z"/><path d="M476.71,20c2-1.9,4-5.58,4-11.16V4h-3.81V1.85h9.85V4H483V8.8c0,5.58,2,9.26,4,11.16v3a13.7,13.7,0,0,1-5.18-8.33,13.65,13.65,0,0,1-5.17,8.33Zm8.9-7.82V10h4.06V.62h2.27V24.08h-2.27V12.14Zm8.66,11.94V.62h2.27V24.08Z"/><path d="M500.84,20.14a14.14,14.14,0,0,0,6-11.7V1.29h2.26V8.44a14.13,14.13,0,0,0,6,11.7v2.78a15.84,15.84,0,0,1-7.1-9.29,16,16,0,0,1-7.12,9.29Zm17.22,3.94V.62h2.27V24.08Z"/><path d="M525.05,4.86V2.7h5.67V0H533V2.7h5.68V4.86Zm4.29,1.42h5c2,0,3.79,1.72,3.79,4.42s-1.75,4.43-3.79,4.43h-5c-2,0-3.79-1.73-3.79-4.43S527.3,6.28,529.34,6.28Zm-2.7,17.8V16.64h2.27v5.28h15.38v2.16Zm7-11.11a2.14,2.14,0,0,0,2.27-2.27,2.13,2.13,0,0,0-2.27-2.26h-3.54a2.13,2.13,0,0,0-2.27,2.26A2.13,2.13,0,0,0,530.09,13Zm7.94,5V.62h2.27V7.43h2.9V9.6h-2.9V18Z"/><path d="M550.13,23V1.7h11.19V3.86H552.4V20.58l9.94-1.08v2.16ZM565,24.08V.62h2.27v9.62h3.63V12.4h-3.63V24.08Z"/><path d="M573.21,14V12.45h20.51V14Zm1.61-5V.77h1.36V7.46h16V9Zm0,15.08V16.44h1.36v6.1h16.27V24Z"/><path d="M606,22.61V21.1l16-1.21v1.49Zm1.25-13.25V6.79C607.28,3,610.07,1,613.45,1s6.17,2,6.17,5.84V9.36c0,3.81-2.79,5.82-6.17,5.82S607.28,13.17,607.28,9.36Zm11,0V6.79c0-2.73-2.07-4.35-4.81-4.35s-4.81,1.62-4.81,4.35V9.36c0,2.71,2.08,4.33,4.81,4.33S618.26,12.07,618.26,9.36ZM623.68,24V.69H625V24Z"/><path d="M630.83,22.87v-21H642.2v21h-1.36V21.56Zm1.37-1.72L640.84,20V3.34H632.2ZM647.83,24V.69h1.36V24Z"/><path d="M654,13.12V11.63h20.52v1.49Zm1.62-3.6v-5h15.92V2.6H655.62V1.11h17.29V6H657V8h16V9.52Zm0,14.51V18.88h15.92V16.8H655.62V15.28h17.29v5H657v2.22h16.27V24Z"/><path d="M687.64,12.09V1.26H697.8V2.78H689v7.69l10.42-.9v1.49Zm1,11.94V14.74h16.2V24h-1.36v-.77Zm1.36-1.6,13.48-.67V16.23H690Zm13.48-9V.69h1.36V5.87h3.45V7.38h-3.45v6Z"/><path d="M711.45,17.29V6.84a5.63,5.63,0,1,1,11.25,0V17.29a5.63,5.63,0,1,1-11.25,0Zm9.89.08V6.77a4.27,4.27,0,1,0-8.53,0v10.6a4.27,4.27,0,1,0,8.53,0ZM727.78,24V.69h1.36v9.83h3.27V12h-3.27V24Z"/><path d="M744.81,22.87v-21h10.77V3.34h-9.41V21.2L756.74,20v1.5ZM760.89,24V.69h1.37V24Z"/><path d="M767.43,20.86a13.93,13.93,0,0,0,6.34-11.34v-6h-5.63V2.06h12.61V3.55h-5.62v6a13.88,13.88,0,0,0,6.35,11.34v1.91a14.59,14.59,0,0,1-7-9.39,14.67,14.67,0,0,1-7,9.39Zm17,3.17V.69h1.36v9.83H789V12h-3.27V24Z"/><path d="M792.24,8.82V6.17c0-3.62,2.68-5.53,6-5.53s5.94,1.91,5.94,5.53V8.82c0,3.66-2.65,5.54-5.94,5.54S792.24,12.48,792.24,8.82ZM793.56,24V16.28h1.36v6.26h16.49V24Zm9.21-15.28V6.28c0-2.68-1.95-4.12-4.56-4.12S793.6,3.6,793.6,6.28V8.75c0,2.67,2,4.09,4.61,4.09S802.77,11.42,802.77,8.75Zm6.85,8.77V.69H811V17.52Z"/><path d="M824.29,5.89V4.4h5.37V.31H831V4.4h5.37V5.89Zm.41,11.68V13.89a5.65,5.65,0,1,1,11.29,0v3.68a5.65,5.65,0,1,1-11.29,0Zm9.93-.1V14a4.29,4.29,0,0,0-8.57,0v3.47a4.29,4.29,0,0,0,8.57,0ZM841,24V.69h1.36v10h3.27v1.49h-3.27V24Z"/><path d="M848.87,8.33V5.89c0-3.45,2.56-5.25,5.69-5.25,2.38,0,4.42,1,5.26,3h6.43v-3h1.36V14.2h-1.36V10.39h-6.36c-.81,2.11-2.9,3.19-5.33,3.19C851.43,13.58,848.87,11.78,848.87,8.33Zm15.63,8.93A5.45,5.45,0,0,0,869,22.54V24c-2.42-.46-4.69-2.09-5.19-4.25-.43,2.06-2.48,3.84-4.81,4.63-2.34-.82-4.36-2.62-4.79-4.63-.48,2.16-2.79,3.79-5.26,4.25V22.54a5.48,5.48,0,0,0,4.58-5.23V15.36h1.36v1.95a4.32,4.32,0,1,0,8.24,0V15.1h1.36Zm-14.27-9c0,2.49,1.86,3.81,4.35,3.81s4.31-1.32,4.31-3.81V6c0-2.49-1.86-3.83-4.31-3.83S850.23,3.5,850.23,6Zm16-3.06h-6c0,.23,0,.46,0,.69V8.33a5.15,5.15,0,0,1,0,.57h6Z"/><path d="M872.22,12.5V11h20.51V12.5Zm1.2-5.71c4-.15,8.37-2,8.37-4.91V.64h1.37V1.88c0,2.91,4.4,4.76,8.37,4.91V8.31c-4.36-.15-8.22-2.11-9.06-4.3-.83,2.19-4.69,4.15-9.05,4.3ZM873.83,24V14.48h1.36v2.94h14.57V14.48h1.36V24h-1.36v-.67Zm1.36-1.57,14.57-.59v-3H875.19Z"/><path d="M898.11,22.87V1.72h1.36v19.4l10.62-1.23v1.57ZM914.2,24V.69h1.36V24Z"/><path d="M921.92,22.87v-21h10.76V3.34h-9.4V21.2L933.7,20v1.5ZM937.08,24V.69h1.36v9.83h3.9V12h-3.9V24Z"/><path d="M945,23.15V21.22h1.7v1.93Z"/></g></g></svg>