<svg xmlns="http://www.w3.org/2000/svg" viewBox="0 0 224.84 50.93"><g id="레이어_2" data-name="레이어 2"><g id="Layer_1" data-name="Layer 1"><path d="M4.4,23.1V39.6H0V2.2H4.4V18.7H6.82L22.66,2.86l.6-.66h6.28l-3.8,3.74-14.91,15,14.91,15,3.8,3.74H23.26l-.6-.66L6.82,23.1Z"/><path d="M53.13,34.43A12.13,12.13,0,0,1,42.9,39.6,11.35,11.35,0,0,1,35,36.41a13.07,13.07,0,0,1-4.18-10,13.56,13.56,0,0,1,3.13-8.91,11.3,11.3,0,0,1,9-4.29,11.14,11.14,0,0,1,7.86,3.19A13,13,0,0,1,55,26.4v2.2H35.42a9.67,9.67,0,0,0,1.32,3.08A7,7,0,0,0,42.9,35.2a8.15,8.15,0,0,0,6.71-3.41ZM50.6,24.2a5.78,5.78,0,0,0-1.49-3.47A7.79,7.79,0,0,0,42.9,17.6a6.8,6.8,0,0,0-3.25.83,8.16,8.16,0,0,0-4.23,5.77Z"/><path d="M75.46,13.2h4.73l-1.16,3L70.89,38.12q-2.25,7.47-4.62,10.34a7.13,7.13,0,0,1-5.77,2.47H58.3v-4.4h2.2a3.47,3.47,0,0,0,2.8-1.32c.88-1,2-3.61,3.19-7.75l-8-21.29-1.15-3H62l.49,1.43,6.27,16.5L75,14.63Z"/><path d="M105.6,2.2h4.51l.38,1.71,5.67,25.79,10-26.07.5-1.43h3.08l.49,1.43,10,26.07L145.8,3.91l.39-1.71h4.51l-.61,2.69-7.26,33-.38,1.71h-3.3l-.5-1.43-10.5-27.55L117.64,38.17l-.49,1.43h-3.3l-.39-1.71-7.26-33Z"/><path d="M156.69,17.44a11.33,11.33,0,0,1,16.72-1.05,13,13,0,0,1,4.24,10,13.35,13.35,0,0,1-3.25,9,11.34,11.34,0,0,1-16.72,1,13,13,0,0,1-4.23-10A13.33,13.33,0,0,1,156.69,17.44Zm2.75,14.29a7.05,7.05,0,0,0,6.11,3.47,6.9,6.9,0,0,0,4.62-1.76,8.92,8.92,0,0,0,3.08-7,9.48,9.48,0,0,0-1.6-5.34,7,7,0,0,0-6.1-3.46,6.86,6.86,0,0,0-4.62,1.76,8.89,8.89,0,0,0-3.08,7A9.5,9.5,0,0,0,159.44,31.73Z"/><path d="M195.69,13.2h2.2v4.4h-2.2a6.68,6.68,0,0,0-3.3.83q-3.69,2-3.74,7.64V39.6h-4.4V13.2h4.4v2.31A11.46,11.46,0,0,1,195.69,13.2Z"/><path d="M203.88,17.44a11.14,11.14,0,0,1,8.86-4.24,11.33,11.33,0,0,1,7.7,3V0h4.4V39.6h-4.4v-3a11.59,11.59,0,0,1-7.7,3,11.18,11.18,0,0,1-7.87-3.19,13,13,0,0,1-4.23-10A13.33,13.33,0,0,1,203.88,17.44Zm2.75,14.29a7.05,7.05,0,0,0,6.11,3.47,6.9,6.9,0,0,0,4.62-1.76,8.92,8.92,0,0,0,3.08-7,9.48,9.48,0,0,0-1.6-5.34,7,7,0,0,0-6.1-3.46,6.86,6.86,0,0,0-4.62,1.76,8.89,8.89,0,0,0-3.08,7A9.5,9.5,0,0,0,206.63,31.73Z"/></g></g></svg>