<svg xmlns="http://www.w3.org/2000/svg" viewBox="0 0 190.95 30.11"><defs><style>.cls-1{fill:#fff;}</style></defs><title>Asset 3</title><g id="Layer_2" data-name="Layer 2"><g id="Layer_1-2" data-name="Layer 1"><path class="cls-1" d="M0,.48H1V8.64H0V.48Z"/><path class="cls-1" d="M4.73,2.88h.48v1H3.84v4.8h-1V3.84H2.09v-1h.8a6,6,0,0,1,.15-1C3.3.78,3.86.23,4.73.23h.48v1H4.73c-.5,0-.79.57-.87,1.69Z"/><path class="cls-1" d="M10.93,2.88h1l.11.35,1,3.48,1.47-3.53.12-.3h.65l.12.3,1.48,3.53,1-3.48.11-.35h1l-.16.61-1.35,4.8-.11.35h-.68l-.12-.3L14.93,4.6,13.36,8.34l-.12.3h-.69l-.11-.35L11.1,3.49Z"/><path class="cls-1" d="M24.6,7.51a2.66,2.66,0,0,1-2.23,1.13,2.45,2.45,0,0,1-1.73-.7,2.82,2.82,0,0,1-.91-2.18,3,3,0,0,1,.68-1.94,2.46,2.46,0,0,1,2-.94,2.39,2.39,0,0,1,1.71.7A2.81,2.81,0,0,1,25,5.76v.48H20.73a2.35,2.35,0,0,0,.29.67,1.56,1.56,0,0,0,1.35.77,1.78,1.78,0,0,0,1.46-.74Zm-.55-2.23a1.27,1.27,0,0,0-.33-.76,1.69,1.69,0,0,0-1.35-.68,1.47,1.47,0,0,0-.71.18,1.81,1.81,0,0,0-.93,1.26Z"/><path class="cls-1" d="M35.83,7.54a2.5,2.5,0,0,1-2.12,1.1A2.4,2.4,0,0,1,32,8a2.87,2.87,0,0,1-.91-2.2,3,3,0,0,1,.68-2,2.39,2.39,0,0,1,1.9-.92,2.49,2.49,0,0,1,2.13,1l-.79.55a1.56,1.56,0,0,0-1.34-.62,1.45,1.45,0,0,0-1,.38,1.94,1.94,0,0,0-.64,1.54A2.12,2.12,0,0,0,32.4,6.9a1.47,1.47,0,0,0,1.31.78A1.69,1.69,0,0,0,35.06,7Z"/><path class="cls-1" d="M37.59,3.8a2.49,2.49,0,0,1,3.62-.26V2.88h1V8.64h-1V8a2.54,2.54,0,0,1-1.68.66,2.43,2.43,0,0,1-1.72-.7,2.8,2.8,0,0,1-.92-2.18A3,3,0,0,1,37.59,3.8Zm.6,3.12a1.54,1.54,0,0,0,1.34.76,1.5,1.5,0,0,0,1-.38,2,2,0,0,0,.68-1.54,2.08,2.08,0,0,0-.35-1.16,1.53,1.53,0,0,0-1.33-.76,1.51,1.51,0,0,0-1,.38,2,2,0,0,0-.67,1.54A2.07,2.07,0,0,0,38.19,6.92Z"/><path class="cls-1" d="M48.66,8.65h-.95V5.36a1.7,1.7,0,0,0-.23-.86,1.22,1.22,0,0,0-1.84-.4,1.54,1.54,0,0,0-.57,1.26V8.64h-1V2.88h1v.46a2.18,2.18,0,0,1,1.32-.46,2.06,2.06,0,0,1,1.42.55,2.42,2.42,0,0,1,.86,1.93V8.65Z"/><path class="cls-1" d="M50.33.48h1V3.23h-1V.48Z"/><path class="cls-1" d="M53.53,7c0,.47.3.71.88.73h.48v1h-.48a2.62,2.62,0,0,1-.64-.07A1.47,1.47,0,0,1,52.57,7h0V3.84h-.8v-1h.8V1.15h1V2.88h1.35v1H53.54Z"/><path class="cls-1" d="M61.47,3.8a2.49,2.49,0,0,1,3.62-.26V2.89h1V8.16a2.76,2.76,0,0,1-.12.79,3.11,3.11,0,0,1-.36.79,3.37,3.37,0,0,1-.54.69,2.54,2.54,0,0,1-.74.5,2.19,2.19,0,0,1-.87.18h-.48v-1h.48a1.5,1.5,0,0,0,1.14-.59,2.11,2.11,0,0,0,.53-1.4V8a2.54,2.54,0,0,1-1.68.66,2.43,2.43,0,0,1-1.72-.7,2.8,2.8,0,0,1-.92-2.18A3,3,0,0,1,61.47,3.8Zm.6,3.12a1.54,1.54,0,0,0,1.34.76,1.5,1.5,0,0,0,1-.38,2,2,0,0,0,.68-1.54,2.08,2.08,0,0,0-.35-1.16,1.53,1.53,0,0,0-1.33-.76,1.51,1.51,0,0,0-1,.38,2,2,0,0,0-.67,1.54A2.07,2.07,0,0,0,62.07,6.92Z"/><path class="cls-1" d="M68.19,3.8a2.46,2.46,0,0,1,1.94-.92,2.41,2.41,0,0,1,1.71.7,2.81,2.81,0,0,1,.93,2.18,3,3,0,0,1-.71,2,2.47,2.47,0,0,1-3.65.22,2.8,2.8,0,0,1-.92-2.18A3,3,0,0,1,68.19,3.8Zm.6,3.12a1.54,1.54,0,0,0,1.34.76,1.5,1.5,0,0,0,1-.38,2,2,0,0,0,.68-1.54,2.08,2.08,0,0,0-.35-1.16,1.53,1.53,0,0,0-1.33-.76,1.51,1.51,0,0,0-1,.38,2,2,0,0,0-.67,1.54A2.07,2.07,0,0,0,68.79,6.92Z"/><path class="cls-1" d="M79.59,3.8a2.49,2.49,0,0,1,3.62-.26V2.88h1V8.64h-1V8a2.54,2.54,0,0,1-1.68.66,2.43,2.43,0,0,1-1.72-.7,2.8,2.8,0,0,1-.92-2.18A3,3,0,0,1,79.59,3.8Zm.6,3.12a1.54,1.54,0,0,0,1.34.76,1.5,1.5,0,0,0,1-.38,2,2,0,0,0,.68-1.54,2.08,2.08,0,0,0-.35-1.16,1.53,1.53,0,0,0-1.33-.76,1.51,1.51,0,0,0-1,.38,2,2,0,0,0-.67,1.54A2.07,2.07,0,0,0,80.19,6.92Z"/><path class="cls-1" d="M87.13,7c0,.47.3.71.88.73h.48v1H88a2.62,2.62,0,0,1-.64-.07A1.47,1.47,0,0,1,86.17,7h0V3.84h-.8v-1h.8V1.15h1V2.88h1.35v1H87.14Z"/><path class="cls-1" d="M95.89,7c0,.47.3.71.88.73h.48v1h-.48a2.62,2.62,0,0,1-.64-.07A1.47,1.47,0,0,1,94.93,7h0V3.84h-.8v-1h.8V1.15h1V2.88h1.35v1H95.9Z"/><path class="cls-1" d="M100.73,2.88a2.06,2.06,0,0,1,1.42.55A2.42,2.42,0,0,1,103,5.36V8.65h-1V5.36a1.7,1.7,0,0,0-.23-.86A1.22,1.22,0,0,0,100,4.1a1.54,1.54,0,0,0-.57,1.26V8.64h-1V.77h1V3.34A2.18,2.18,0,0,1,100.73,2.88Z"/><path class="cls-1" d="M109.32,7.51a2.66,2.66,0,0,1-2.23,1.13,2.45,2.45,0,0,1-1.73-.7,2.82,2.82,0,0,1-.91-2.18,2.93,2.93,0,0,1,.68-1.94,2.46,2.46,0,0,1,2-.94,2.41,2.41,0,0,1,1.71.7,2.81,2.81,0,0,1,.93,2.18v.48h-4.28a2.35,2.35,0,0,0,.29.67,1.56,1.56,0,0,0,1.35.77,1.78,1.78,0,0,0,1.46-.74Zm-.55-2.23a1.27,1.27,0,0,0-.33-.76,1.71,1.71,0,0,0-1.35-.68,1.47,1.47,0,0,0-.71.18,1.81,1.81,0,0,0-.93,1.26Z"/><path class="cls-1" d="M119.17,4.55a.52.52,0,0,0-.13-.34,1.15,1.15,0,0,0-1-.37,1.61,1.61,0,0,0-.49.07c-.4.13-.6.34-.6.64a.3.3,0,0,0,.07.19,2.75,2.75,0,0,0,1.1.49c.4.12.7.22.89.3q1.28.52,1.26,1.44a1.38,1.38,0,0,1-.36.91,2.31,2.31,0,0,1-1.87.76,2.64,2.64,0,0,1-1.5-.42A1.48,1.48,0,0,1,115.85,7h1a.48.48,0,0,0,.14.34,1.45,1.45,0,0,0,1.13.37,2.08,2.08,0,0,0,.55-.07c.48-.12.72-.33.72-.64a.38.38,0,0,0-.06-.18,3,3,0,0,0-1.09-.48c-.39-.12-.69-.22-.89-.3-.85-.34-1.28-.83-1.28-1.46a1.48,1.48,0,0,1,.36-.95,2.07,2.07,0,0,1,1.69-.72,2.25,2.25,0,0,1,1.33.4,1.5,1.5,0,0,1,.72,1.27Z"/><path class="cls-1" d="M121.75,3.36V2.88h1v.66a2.45,2.45,0,0,1,1.69-.66,2.42,2.42,0,0,1,1.71.7A2.83,2.83,0,0,1,127,5.76a3,3,0,0,1-.71,2,2.44,2.44,0,0,1-1.93.92A2.48,2.48,0,0,1,122.71,8v3.13h-1V5.76h0Zm1.31,3.56a1.54,1.54,0,0,0,2.34.38,2,2,0,0,0,.67-1.54,2.08,2.08,0,0,0-.35-1.16,1.5,1.5,0,0,0-1.32-.76,1.56,1.56,0,0,0-1,.37,2,2,0,0,0-.68,1.55A2.08,2.08,0,0,0,123.06,6.92Z"/><path class="cls-1" d="M132.86,7.51a2.65,2.65,0,0,1-2.23,1.13,2.47,2.47,0,0,1-1.73-.7A2.82,2.82,0,0,1,128,5.76a3,3,0,0,1,.68-1.94,2.46,2.46,0,0,1,2-.94,2.43,2.43,0,0,1,1.72.7,2.83,2.83,0,0,1,.92,2.18v.48H129a1.9,1.9,0,0,0,.29.67,1.53,1.53,0,0,0,1.34.77,1.78,1.78,0,0,0,1.46-.74Zm-.55-2.23a1.32,1.32,0,0,0-.32-.76,1.73,1.73,0,0,0-1.36-.68,1.5,1.5,0,0,0-.71.18A1.77,1.77,0,0,0,129,5.28Z"/><path class="cls-1" d="M139.1,7.51a2.65,2.65,0,0,1-2.23,1.13,2.47,2.47,0,0,1-1.73-.7,2.82,2.82,0,0,1-.91-2.18,3,3,0,0,1,.68-1.94,2.46,2.46,0,0,1,2-.94,2.43,2.43,0,0,1,1.72.7,2.83,2.83,0,0,1,.92,2.18v.48h-4.27a1.9,1.9,0,0,0,.29.67,1.53,1.53,0,0,0,1.34.77,1.78,1.78,0,0,0,1.46-.74Zm-.55-2.23a1.32,1.32,0,0,0-.32-.76,1.73,1.73,0,0,0-1.36-.68,1.5,1.5,0,0,0-.71.18,1.77,1.77,0,0,0-.92,1.26Z"/><path class="cls-1" d="M141.18,3.8a2.44,2.44,0,0,1,1.93-.92,2.48,2.48,0,0,1,1.68.66V0h1V8.64h-1V8a2.54,2.54,0,0,1-1.68.66,2.43,2.43,0,0,1-1.72-.7,2.83,2.83,0,0,1-.92-2.18A3,3,0,0,1,141.18,3.8Zm.6,3.12a1.54,1.54,0,0,0,2.34.38,2,2,0,0,0,.67-1.54,2.08,2.08,0,0,0-.35-1.16,1.54,1.54,0,0,0-2.34-.38,2,2,0,0,0-.67,1.54A2,2,0,0,0,141.78,6.92Z"/><path class="cls-1" d="M153.06,3.8a2.47,2.47,0,0,1,3.65-.22,2.83,2.83,0,0,1,.92,2.18,3,3,0,0,1-.71,2,2.47,2.47,0,0,1-3.65.22,2.83,2.83,0,0,1-.92-2.18A2.9,2.9,0,0,1,153.06,3.8Zm.6,3.12A1.54,1.54,0,0,0,156,7.3a2,2,0,0,0,.67-1.54,2.08,2.08,0,0,0-.35-1.16A1.54,1.54,0,0,0,154,4.22a2,2,0,0,0-.67,1.54A2,2,0,0,0,153.66,6.92Z"/><path class="cls-1" d="M161,2.88h.48v1H160.1v4.8h-1V3.84h-.79v-1h.8a7.18,7.18,0,0,1,.15-1c.26-1.09.83-1.64,1.69-1.64h.48v1H161c-.5,0-.78.57-.86,1.69Z"/><path class="cls-1" d="M167.83,0h1V8.64h-1V0Z"/><path class="cls-1" d="M170,2.15v-1h1v1h-1Zm0,.73h1V8.64h-1V2.88Z"/><path class="cls-1" d="M172.77,3.8a2.48,2.48,0,0,1,3.61-.26V3.36l0-.47h1v.48l0,4.79a2.76,2.76,0,0,1-.12.79,3.08,3.08,0,0,1-.35.79,3.75,3.75,0,0,1-.54.69,2.54,2.54,0,0,1-.74.5,2.19,2.19,0,0,1-.87.18h-.48v-1h.48a1.5,1.5,0,0,0,1.14-.59,2.1,2.1,0,0,0,.52-1.4V8a2.49,2.49,0,0,1-1.67.66,2.41,2.41,0,0,1-1.72-.7,2.81,2.81,0,0,1-.93-2.18A3,3,0,0,1,172.77,3.8Zm.6,3.12a1.54,1.54,0,0,0,1.34.76,1.5,1.5,0,0,0,1-.38,2,2,0,0,0,.67-1.54A2.07,2.07,0,0,0,176,4.6a1.53,1.53,0,0,0-1.33-.76,1.51,1.51,0,0,0-1,.38A2,2,0,0,0,173,5.76,2.08,2.08,0,0,0,173.37,6.92Z"/><path class="cls-1" d="M181.54,2.88a2.07,2.07,0,0,1,1.43.55,2.42,2.42,0,0,1,.86,1.93V8.65h-1V5.36a1.7,1.7,0,0,0-.23-.86,1.23,1.23,0,0,0-1.1-.66,1.19,1.19,0,0,0-.74.26,1.55,1.55,0,0,0-.58,1.26V8.64h-1V.77h1V3.34A2.23,2.23,0,0,1,181.54,2.88Z"/><path class="cls-1" d="M186.79,7c0,.47.3.71.88.73h.47v1h-.47a2.62,2.62,0,0,1-.64-.07A1.47,1.47,0,0,1,185.83,7h0V3.84H185v-1h.8V1.15h1V2.88h1.34v1H186.8Z"/><path class="cls-1" d="M190,7.37h1l0,.53a2.5,2.5,0,0,1-.76,1.69L190,9.7H188.5l1-.86a1.55,1.55,0,0,0,.43-1Z"/><path class="cls-1" d="M44,26c0,.47.3.71.87.73h.48v1H44.9a2.59,2.59,0,0,1-.63-.07A1.47,1.47,0,0,1,43.07,26h0V22.84h-.81v-1h.81V20.15h1v1.73h1.34v1H44Z"/><path class="cls-1" d="M48.86,21.88a2.09,2.09,0,0,1,1.43.55,2.41,2.41,0,0,1,.85,1.93v3.29h-.94l0-.48V24.36A1.61,1.61,0,0,0,50,23.5a1.21,1.21,0,0,0-1.09-.66,1.19,1.19,0,0,0-.74.26,1.52,1.52,0,0,0-.58,1.26v3.28h-1V19.77h1v2.57A2.18,2.18,0,0,1,48.86,21.88Z"/><path class="cls-1" d="M53.29,22.8a2.48,2.48,0,0,1,3.61-.26v-.66h1v5.76h-1V27a2.54,2.54,0,0,1-1.68.66,2.39,2.39,0,0,1-1.71-.7,2.81,2.81,0,0,1-.93-2.18A3,3,0,0,1,53.29,22.8Zm.6,3.12a1.54,1.54,0,0,0,2.34.38,2,2,0,0,0,.67-1.54,2,2,0,0,0-.35-1.16,1.52,1.52,0,0,0-1.33-.76,1.55,1.55,0,0,0-1,.38,2,2,0,0,0-.67,1.54A2.08,2.08,0,0,0,53.89,25.92Z"/><path class="cls-1" d="M60.83,26c0,.47.3.71.87.73h.48v1H61.7a2.59,2.59,0,0,1-.63-.07A1.47,1.47,0,0,1,59.87,26h0V22.84h-.81v-1h.81V20.15h1v1.73h1.34v1H60.84Z"/><path class="cls-1" d="M72.36,22.7a2,2,0,0,1,3-.33,2.29,2.29,0,0,1,.82,1.81v3.47h-1V24.18a1.58,1.58,0,0,0-.18-.73,1.1,1.1,0,0,0-1-.61,1.06,1.06,0,0,0-.65.22,1.32,1.32,0,0,0-.53,1.12v3l0,.49h-1v-.48l0-2.51v-.48a1.58,1.58,0,0,0-.18-.73,1.08,1.08,0,0,0-1-.61,1.06,1.06,0,0,0-.65.22,1.32,1.32,0,0,0-.53,1.12v3.46h-1V21.88h1v.38a2,2,0,0,1,2.83.46Z"/><path class="cls-1" d="M78.27,22.8a2.46,2.46,0,0,1,1.94-.92,2.41,2.41,0,0,1,1.71.7,2.81,2.81,0,0,1,.93,2.18,3,3,0,0,1-.71,2,2.47,2.47,0,0,1-3.65.22,2.8,2.8,0,0,1-.92-2.18A3,3,0,0,1,78.27,22.8Zm.6,3.12a1.54,1.54,0,0,0,1.34.76,1.5,1.5,0,0,0,1-.38,2,2,0,0,0,.68-1.54,2.08,2.08,0,0,0-.35-1.16,1.53,1.53,0,0,0-1.33-.76,1.51,1.51,0,0,0-1,.38,2,2,0,0,0-.67,1.54A2.07,2.07,0,0,0,78.87,25.92Z"/><path class="cls-1" d="M84.51,22.8a2.46,2.46,0,0,1,1.94-.92,2.41,2.41,0,0,1,1.71.7,2.81,2.81,0,0,1,.93,2.18,3,3,0,0,1-.71,2,2.47,2.47,0,0,1-3.65.22,2.8,2.8,0,0,1-.92-2.18A3,3,0,0,1,84.51,22.8Zm.6,3.12a1.54,1.54,0,0,0,1.34.76,1.5,1.5,0,0,0,1-.38,2,2,0,0,0,.68-1.54,2.08,2.08,0,0,0-.35-1.16,1.53,1.53,0,0,0-1.33-.76,1.51,1.51,0,0,0-1,.38,2,2,0,0,0-.67,1.54A2.07,2.07,0,0,0,85.11,25.92Z"/><path class="cls-1" d="M95.1,27.65h-.95V24.36a1.7,1.7,0,0,0-.23-.86,1.22,1.22,0,0,0-1.84-.4,1.54,1.54,0,0,0-.57,1.26v3.28h-1V21.88h1v.46a2.18,2.18,0,0,1,1.32-.46,2.06,2.06,0,0,1,1.42.55,2.42,2.42,0,0,1,.86,1.93v3.29Z"/><path class="cls-1" d="M97,19h1v8.64H97V19Z"/><path class="cls-1" d="M99.14,21.15v-1h1v1h-1Zm0,.73h1v5.76h-1V21.88Z"/><path class="cls-1" d="M102,22.8a2.48,2.48,0,0,1,3.61-.26v-.65h1l0,.48v4.79a2.76,2.76,0,0,1-.12.79,3.46,3.46,0,0,1-.35.79,3.41,3.41,0,0,1-.55.69,2.49,2.49,0,0,1-.73.5,2.2,2.2,0,0,1-.88.18h-.48v-1h.48a1.47,1.47,0,0,0,1.14-.59,2.06,2.06,0,0,0,.53-1.4V27a2.54,2.54,0,0,1-1.68.66,2.39,2.39,0,0,1-1.71-.7,2.81,2.81,0,0,1-.93-2.18A3,3,0,0,1,102,22.8Zm.6,3.12a1.54,1.54,0,0,0,2.34.38,2,2,0,0,0,.67-1.54,2,2,0,0,0-.35-1.16,1.52,1.52,0,0,0-1.33-.76,1.55,1.55,0,0,0-1,.38,2,2,0,0,0-.67,1.54A2.08,2.08,0,0,0,102.55,25.92Z"/><path class="cls-1" d="M110.72,21.88a2.09,2.09,0,0,1,1.43.55,2.41,2.41,0,0,1,.85,1.93v3.29h-.94l0-.48V24.36a1.61,1.61,0,0,0-.23-.86,1.21,1.21,0,0,0-1.09-.66,1.19,1.19,0,0,0-.74.26,1.52,1.52,0,0,0-.58,1.26v3.28h-1V19.77h1v2.57A2.18,2.18,0,0,1,110.72,21.88Z"/><path class="cls-1" d="M116,26c0,.47.3.71.87.73h.48v1h-.48a2.59,2.59,0,0,1-.63-.07A1.47,1.47,0,0,1,115,26h0V22.84h-.81v-1H115V20.15h1v1.73h1.34v1H116Z"/><path class="cls-1" d="M123.05,21.88h1l.11.35,1,3.48,1.48-3.53.12-.3h.65l.12.3L129,25.71l1-3.48.11-.35h1l-.17.61-1.34,4.8-.11.35h-.69l-.12-.3L127,23.6l-1.57,3.74-.12.3h-.68l-.11-.35-1.35-4.8Z"/><path class="cls-1" d="M132.14,21.15v-1h1v1h-1Zm0,.73h1v5.76h-1V21.88Z"/><path class="cls-1" d="M134.72,19h1v8.64h-1V19Z"/><path class="cls-1" d="M137,19h1v8.64h-1V19Z"/><path class="cls-1" d="M144.74,22.8a2.48,2.48,0,0,1,3.61-.26v-.18l0-.47h1v.48l0,4.79a2.76,2.76,0,0,1-.12.79,3.08,3.08,0,0,1-.35.79,3.41,3.41,0,0,1-.55.69,2.49,2.49,0,0,1-.73.5,2.19,2.19,0,0,1-.87.18h-.48v-1h.48a1.5,1.5,0,0,0,1.14-.59,2.1,2.1,0,0,0,.52-1.4V27a2.5,2.5,0,0,1-1.68.66,2.41,2.41,0,0,1-1.71-.7,2.81,2.81,0,0,1-.93-2.18A3,3,0,0,1,144.74,22.8Zm.6,3.12a1.53,1.53,0,0,0,1.33.76,1.51,1.51,0,0,0,1-.38,2,2,0,0,0,.67-1.54A2.07,2.07,0,0,0,148,23.6a1.54,1.54,0,0,0-1.34-.76,1.5,1.5,0,0,0-1,.38,2,2,0,0,0-.68,1.54A2.08,2.08,0,0,0,145.34,25.92Z"/><path class="cls-1" d="M151,21.89h1l0,.48v3.07a1.17,1.17,0,0,0,.23.69,1.35,1.35,0,0,0,1.14.55,1.56,1.56,0,0,0,.75-.2,1.18,1.18,0,0,0,.61-1V21.89h1v3.55a2,2,0,0,1-.51,1.37,2.23,2.23,0,0,1-1.81.83,2.3,2.3,0,0,1-1.5-.52,2.06,2.06,0,0,1-.83-1.68V21.89Z"/><path class="cls-1" d="M157.14,21.15v-1h1v1h-1Zm0,.73h1v5.76h-1V21.88Z"/><path class="cls-1" d="M160,22.8a2.42,2.42,0,0,1,1.93-.92,2.48,2.48,0,0,1,1.68.66V19h1v8.64h-1V27a2.54,2.54,0,0,1-1.68.66,2.43,2.43,0,0,1-1.72-.7,2.8,2.8,0,0,1-.92-2.18A2.9,2.9,0,0,1,160,22.8Zm.59,3.12a1.55,1.55,0,0,0,1.34.76,1.5,1.5,0,0,0,1-.38,2,2,0,0,0,.68-1.54,2.08,2.08,0,0,0-.35-1.16,1.54,1.54,0,0,0-2.34-.38,2,2,0,0,0-.67,1.54A2.07,2.07,0,0,0,160.54,25.92Z"/><path class="cls-1" d="M170.83,26.51a2.65,2.65,0,0,1-2.23,1.13,2.45,2.45,0,0,1-1.73-.7,2.82,2.82,0,0,1-.91-2.18,3,3,0,0,1,.68-1.94,2.46,2.46,0,0,1,2-.94,2.39,2.39,0,0,1,1.71.7,2.81,2.81,0,0,1,.93,2.18v.48H167a2.35,2.35,0,0,0,.29.67,1.56,1.56,0,0,0,1.35.77,1.78,1.78,0,0,0,1.46-.74Zm-.55-2.23a1.27,1.27,0,0,0-.33-.76,1.69,1.69,0,0,0-1.35-.68,1.47,1.47,0,0,0-.71.18,1.81,1.81,0,0,0-.93,1.26Z"/><path class="cls-1" d="M177.61,21.89h1v3.55a1.1,1.1,0,0,0,.23.69,1.32,1.32,0,0,0,1.13.55,1.5,1.5,0,0,0,.75-.2,1.16,1.16,0,0,0,.61-1V21.89h1v3.55a2.08,2.08,0,0,1-.5,1.37,2.25,2.25,0,0,1-1.82.83,2.34,2.34,0,0,1-1.5-.52,2.06,2.06,0,0,1-.82-1.68V21.89Z"/><path class="cls-1" d="M186.76,23.55a.52.52,0,0,0-.13-.34,1.15,1.15,0,0,0-1-.37,1.61,1.61,0,0,0-.49.07c-.4.13-.6.34-.6.64a.3.3,0,0,0,.07.19,2.74,2.74,0,0,0,1.11.49c.4.12.69.22.88.3q1.28.52,1.26,1.44a1.34,1.34,0,0,1-.36.91,2.3,2.3,0,0,1-1.87.76,2.69,2.69,0,0,1-1.5-.42,1.48,1.48,0,0,1-.73-1.25h1a.53.53,0,0,0,.14.34,1.46,1.46,0,0,0,1.13.37,2,2,0,0,0,.55-.07c.49-.12.72-.33.72-.64a.38.38,0,0,0-.06-.18,2.87,2.87,0,0,0-1.09-.48c-.39-.12-.69-.22-.89-.3-.84-.34-1.27-.83-1.28-1.46a1.48,1.48,0,0,1,.36-.95,2.07,2.07,0,0,1,1.69-.72,2.23,2.23,0,0,1,1.33.4,1.5,1.5,0,0,1,.72,1.27Z"/><path class="cls-1" d="M189.58,26.69h1v.48h0v.48h-1v-.48h0Z"/></g></g></svg>