<svg xmlns="http://www.w3.org/2000/svg" viewBox="0 0 1028.48 343.78"><defs><style>.cls-1{font-size:22px;font-family:SDGyeokdongG202Ul-KSCpc-EUC-H, Sandoll GyeokdongG2;letter-spacing:0.06em;}.cls-2{fill:#231f20;}.cls-3{fill:#fff;}.cls-3,.cls-4,.cls-7{stroke:#231f20;}.cls-3,.cls-4,.cls-7,.cls-8{stroke-miterlimit:10;}.cls-3,.cls-4{stroke-width:0.75px;}.cls-4,.cls-7,.cls-8{fill:none;}.cls-5{font-size:38.02px;}.cls-5,.cls-6{font-family:Adam-Medium, Adam;font-weight:500;}.cls-6{font-size:36.6px;}.cls-8{stroke:#000;}</style></defs><g id="레이어_2" data-name="레이어 2"><g id="Layer_1" data-name="Layer 1"><text class="cls-1" transform="translate(47.97 300.89) scale(1.15 1.3)">보름달<tspan x="0" y="25.78">초승달</tspan></text><text class="cls-1" transform="translate(441.48 317.65) scale(1.15 1.3)">슬로건</text><path class="cls-2" d="M945.62,139.34a56.36,56.36,0,0,1-41.45,54.36,56.41,56.41,0,0,0-69.27-69.25,56.36,56.36,0,0,1,110.72,14.89Z"/><path class="cls-3" d="M906.16,178.81a56.26,56.26,0,0,1-2,14.89,56.4,56.4,0,0,1-69.27-69.25,56.41,56.41,0,0,1,71.26,54.36Z"/><path class="cls-4" d="M906.16,178.81a56.41,56.41,0,1,1-56.37-56.35A56.26,56.26,0,0,1,906.16,178.81Z"/><text class="cls-5" transform="translate(821.64 130.51) rotate(-77.91)">t</text><text class="cls-5" transform="matrix(0.41, -0.91, 0.91, 0.41, 822.97, 121.09)">h</text><text class="cls-5" transform="matrix(0.63, -0.78, 0.78, 0.63, 830.16, 104.31)">e</text><text class="cls-5" transform="translate(841.2 90.51) rotate(-37.69)"> </text><text class="cls-5" transform="translate(852.6 81.69) rotate(-26.97)">r</text><text class="cls-5" transform="translate(862.08 76.23) rotate(-14.97)">e</text><text class="cls-5" transform="translate(879.02 71.52) rotate(-0.98)">v</text><text class="cls-5" transform="matrix(0.97, 0.23, -0.23, 0.97, 895.12, 70.88)">o</text><text class="cls-5" transform="translate(912.47 75.32) rotate(23.08)">l</text><text class="cls-5" transform="translate(917.88 76.91) rotate(32.8)">u</text><text class="cls-5" transform="translate(932.35 86.47) rotate(44.02)">t</text><text class="cls-5" transform="matrix(0.63, 0.78, -0.78, 0.63, 939.48, 93.39)">i</text><text class="cls-5" transform="translate(943.7 97.48) rotate(60.9)">o</text><text class="cls-5" transform="matrix(0.24, 0.97, -0.97, 0.24, 952.52, 112.64)">n</text><text class="cls-5" transform="matrix(0.01, 1, -1, 0.01, 957.02, 130.45)"> </text><text class="cls-5" transform="matrix(-0.22, 0.98, -0.98, -0.22, 957.62, 144.72)">o</text><text class="cls-5" transform="matrix(-0.41, 0.91, -0.91, -0.41, 953.47, 161.99)">f</text><text class="cls-5" transform="translate(949.88 170.87) rotate(124.41)"> </text><text class="cls-5" transform="matrix(-0.7, 0.71, -0.71, -0.7, 941.59, 182.86)">t</text><text class="cls-5" transform="matrix(-0.83, 0.55, -0.55, -0.83, 935.44, 190.08)">h</text><text class="cls-5" transform="translate(920.33 200.4) rotate(161.39)">e</text><text class="cls-5" transform="translate(903.63 206.08) rotate(174.66)"> </text><text class="cls-5" transform="translate(889.76 208.78) rotate(-168.02)">m</text><text class="cls-5" transform="matrix(-0.86, -0.51, 0.51, -0.86, 863.03, 202.69)">o</text><text class="cls-5" transform="matrix(-0.7, -0.71, 0.71, -0.7, 847.81, 193.97)">o</text><text class="cls-5" transform="matrix(-0.49, -0.87, 0.87, -0.49, 835.25, 181.75)">n</text><text class="cls-6" transform="matrix(0.29, -0.96, 0.96, 0.29, 417.7, 139.61)">t</text><text class="cls-6" transform="translate(419.71 130.68) rotate(-61.38)">h</text><text class="cls-6" transform="matrix(0.69, -0.73, 0.73, 0.69, 427.93, 115.14)">e</text><text class="cls-6" transform="matrix(0.84, -0.55, 0.55, 0.84, 439.56, 102.81)"> </text><text class="cls-6" transform="matrix(0.93, -0.38, 0.38, 0.93, 451.23, 95.21)">r</text><text class="cls-6" transform="translate(460.71 90.73) rotate(-10.33)">e</text><text class="cls-6" transform="translate(477.34 87.53) rotate(3.66)">v</text><text class="cls-6" transform="translate(492.78 88.16) rotate(17.73)">o</text><text class="cls-6" transform="translate(509.13 93.78) rotate(27.72)">l</text><text class="cls-6" transform="translate(514.19 95.73) rotate(37.44)">u</text><text class="cls-6" transform="matrix(0.66, 0.75, -0.75, 0.66, 527.33, 106.02)">t</text><text class="cls-6" transform="translate(533.6 113.18) rotate(55.43)">i</text><text class="cls-6" transform="translate(537.34 117.44) rotate(65.49)">o</text><text class="cls-6" transform="translate(544.64 132.66) rotate(80.44)">n</text><text class="cls-6" transform="matrix(-0.07, 1, -1, -0.07, 547.59, 150.1)"> </text><text class="cls-6" transform="translate(547.07 163.79) rotate(107.34)">o</text><text class="cls-6" transform="translate(541.76 180.07) rotate(118.89)">f</text><text class="cls-6" transform="matrix(-0.63, 0.78, -0.78, -0.63, 537.63, 188.3)"> </text><text class="cls-6" transform="matrix(-0.76, 0.65, -0.65, -0.76, 528.77, 199.16)">t</text><text class="cls-6" transform="translate(522.31 205.61) rotate(150.93)">h</text><text class="cls-6" transform="translate(507.03 214.37) rotate(165.95)">e</text><text class="cls-6" transform="matrix(-1, 0.01, -0.01, -1, 490.57, 218.54)"> </text><text class="cls-6" transform="matrix(-0.96, -0.28, 0.28, -0.96, 477.09, 220.08)">m</text><text class="cls-6" transform="translate(451.9 212.2) rotate(-144.72)">o</text><text class="cls-6" transform="matrix(-0.64, -0.76, 0.76, -0.64, 437.97, 202.69)">o</text><text class="cls-6" transform="translate(426.84 190.01) rotate(-115.03)">n</text><path class="cls-2" d="M164.37,133.58a56.37,56.37,0,0,1-41.47,54.36,56.4,56.4,0,0,0-69.26-69.26,56.37,56.37,0,0,1,110.73,14.9Z"/><path class="cls-3" d="M124.89,173a56.75,56.75,0,0,1-2,14.9,56.42,56.42,0,0,1-69.26-69.26A56.4,56.4,0,0,1,124.89,173Z"/><path class="cls-3" d="M124.89,173a56.4,56.4,0,1,1-56.37-56.35A56.75,56.75,0,0,1,124.89,173Z"/><line class="cls-4" y1="77.21" x2="176.54" y2="77.21"/><path class="cls-7" d="M164.37,133.58a56.37,56.37,0,0,1-41.47,54.36,56.4,56.4,0,0,0-69.26-69.26,56.37,56.37,0,0,1,110.73,14.9Z"/><path class="cls-3" d="M124.89,173a56.75,56.75,0,0,1-2,14.9,56.42,56.42,0,0,1-69.26-69.26A56.4,56.4,0,0,1,124.89,173Z"/><path class="cls-4" d="M124.89,173a56.4,56.4,0,1,1-56.37-56.35A56.75,56.75,0,0,1,124.89,173Z"/><line class="cls-4" x1="12.17" y1="241.58" x2="12.17" y2="65.04"/><line class="cls-4" y1="229.41" x2="176.54" y2="229.41"/><line class="cls-4" x1="164.37" y1="241.58" x2="164.37" y2="65.04"/><line class="cls-4" x1="12.17" y1="77.21" x2="164.37" y2="229.41"/><line class="cls-4" x1="164.37" y1="77.21" x2="12.17" y2="229.41"/><line class="cls-8" x1="257.46" y1="166.23" x2="297.56" y2="166.23"/><line class="cls-8" x1="661.05" y1="174.69" x2="701.15" y2="174.69"/><line class="cls-8" x1="661.05" y1="157.77" x2="701.15" y2="157.77"/><line class="cls-8" x1="277.51" y1="186.28" x2="277.51" y2="146.18"/></g></g></svg>