<svg xmlns="http://www.w3.org/2000/svg" viewBox="0 0 458.88 56.54"><defs><style>.cls-1{fill:#fff;}</style></defs><g id="레이어_2" data-name="레이어 2"><g id="Layer_1" data-name="Layer 1"><path class="cls-1" d="M7.92.68h.66V2H5v10.2H3.64V2H0V.68H7.92Z"/><path class="cls-1" d="M13.36,4.08a2.84,2.84,0,0,1,2,.78A3.49,3.49,0,0,1,16.49,7.6v4l0,.7h-1.3l0-.68,0-4a2.43,2.43,0,0,0-.31-1.22,1.65,1.65,0,0,0-2.53-.57,2.22,2.22,0,0,0-.79,1.79v4.64H10.22V1.09h1.32V4.73A3,3,0,0,1,13.36,4.08Z"/><path class="cls-1" d="M25.16,10.64a3.59,3.59,0,0,1-3.06,1.6,3.37,3.37,0,0,1-2.38-1,4.11,4.11,0,0,1-1.25-3.09,4.25,4.25,0,0,1,.94-2.75,3.35,3.35,0,0,1,5.05-.34,4.08,4.08,0,0,1,1.26,3.09v.68H19.85a3,3,0,0,0,.4.95,2.1,2.1,0,0,0,1.85,1.09,2.42,2.42,0,0,0,2-1.05Zm-.75-3.16A1.78,1.78,0,0,0,24,6.41a2.31,2.31,0,0,0-1.86-1,2,2,0,0,0-1,.26,2.51,2.51,0,0,0-1.27,1.78Z"/><path class="cls-1" d="M40,5.24a2.72,2.72,0,0,1,2.24-1.16,2.66,2.66,0,0,1,1.81.7,3.24,3.24,0,0,1,1.13,2.56v4.92h-1.3l0-.68V7.34a2.33,2.33,0,0,0-.25-1,1.49,1.49,0,0,0-1.37-.87,1.44,1.44,0,0,0-.89.31,1.9,1.9,0,0,0-.73,1.59v4.22l0,.7h-1.3l0-.68V7.34a2.33,2.33,0,0,0-.25-1,1.5,1.5,0,0,0-1.37-.87,1.42,1.42,0,0,0-.89.31,1.9,1.9,0,0,0-.73,1.59v4.9H34.79V4.08h1.32v.54a2.81,2.81,0,0,1,1.62-.54A2.92,2.92,0,0,1,40,5.27S40,5.26,40,5.24Z"/><path class="cls-1" d="M48.17,5.39a3.32,3.32,0,0,1,5-.32,4,4,0,0,1,1.27,3.09,4.23,4.23,0,0,1-1,2.77,3.33,3.33,0,0,1-5,.32,4.09,4.09,0,0,1-1.27-3.09A4.19,4.19,0,0,1,48.17,5.39ZM49,9.81a2.1,2.1,0,0,0,1.83,1.07,2,2,0,0,0,1.39-.54,2.82,2.82,0,0,0,.92-2.18,3,3,0,0,0-.48-1.65,2.1,2.1,0,0,0-1.83-1.07A2,2,0,0,0,49.44,6a2.79,2.79,0,0,0-.93,2.18A3,3,0,0,0,49,9.81Z"/><path class="cls-1" d="M56.74,5.39A3.32,3.32,0,0,1,59.4,4.08a3.27,3.27,0,0,1,2.35,1A4,4,0,0,1,63,8.16a4.18,4.18,0,0,1-1,2.77,3.32,3.32,0,0,1-5,.32,4,4,0,0,1-1.27-3.09A4.18,4.18,0,0,1,56.74,5.39Zm.83,4.42a2.1,2.1,0,0,0,1.83,1.07,2,2,0,0,0,1.38-.54,2.79,2.79,0,0,0,.93-2.18,3,3,0,0,0-.48-1.65A2.1,2.1,0,0,0,59.4,5.44,2,2,0,0,0,58,6a2.82,2.82,0,0,0-.92,2.18A3,3,0,0,0,57.57,9.81Z"/><path class="cls-1" d="M71.29,12.26H70v-.68l0-4a2.43,2.43,0,0,0-.31-1.22,1.68,1.68,0,0,0-1.5-.94,1.65,1.65,0,0,0-1,.37,2.22,2.22,0,0,0-.79,1.79v4.64H65V4.08h1.32v.65a3,3,0,0,1,1.82-.65,2.84,2.84,0,0,1,2,.78A3.49,3.49,0,0,1,71.27,7.6v4Z"/><path class="cls-1" d="M84.13,4.08a2.82,2.82,0,0,1,2,.78A3.49,3.49,0,0,1,87.26,7.6v4l0,.7H86l0-.68v-4a2.44,2.44,0,0,0-.32-1.22,1.64,1.64,0,0,0-2.52-.57,2.19,2.19,0,0,0-.79,1.79v4.64H81V1.09h1.32V4.73A3,3,0,0,1,84.13,4.08Z"/><path class="cls-1" d="M90.22,5.39a3.32,3.32,0,0,1,5-.37V4.08H96.5v8.16H95.18v-.93a3.39,3.39,0,0,1-2.31.93,3.29,3.29,0,0,1-2.36-1,4.09,4.09,0,0,1-1.27-3.09A4.19,4.19,0,0,1,90.22,5.39ZM91,9.81a2.1,2.1,0,0,0,1.83,1.07,2,2,0,0,0,1.39-.54,2.82,2.82,0,0,0,.92-2.18,3,3,0,0,0-.48-1.65,2.1,2.1,0,0,0-1.83-1.07A2,2,0,0,0,91.49,6a2.79,2.79,0,0,0-.93,2.18A3,3,0,0,0,91,9.81Z"/><path class="cls-1" d="M103,6.44a.71.71,0,0,0-.18-.47,1.57,1.57,0,0,0-1.32-.53,2.18,2.18,0,0,0-.67.1c-.55.18-.83.48-.83.9a.5.5,0,0,0,.1.27,3.76,3.76,0,0,0,1.52.7,11,11,0,0,1,1.22.43c1.16.48,1.74,1.16,1.73,2a2,2,0,0,1-.49,1.29,3.18,3.18,0,0,1-2.58,1.07,3.64,3.64,0,0,1-2.06-.59,2.12,2.12,0,0,1-1-1.77H99.8a.67.67,0,0,0,.19.47,2,2,0,0,0,1.55.53,2.78,2.78,0,0,0,.76-.1q1-.26,1-.9a.46.46,0,0,0-.08-.26,3.69,3.69,0,0,0-1.5-.68c-.54-.17-.95-.31-1.22-.42C99.32,8,98.74,7.34,98.72,6.44a2.15,2.15,0,0,1,.5-1.34,2.81,2.81,0,0,1,2.32-1,3.13,3.13,0,0,1,1.84.56,2.14,2.14,0,0,1,1,1.8Z"/><path class="cls-1" d="M116.81,4.08a2.84,2.84,0,0,1,2,.78A3.49,3.49,0,0,1,120,7.6v4.66h-1.3l0-.68v-4a2.44,2.44,0,0,0-.32-1.22,1.64,1.64,0,0,0-2.52-.57A2.19,2.19,0,0,0,115,7.6v4.64h-1.32V1.09H115V4.73A3,3,0,0,1,116.81,4.08Z"/><path class="cls-1" d="M122.9,5.39a3.32,3.32,0,0,1,5-.37V4.08h1.32v8.16h-1.32v-.93a3.39,3.39,0,0,1-2.31.93,3.27,3.27,0,0,1-2.35-1,4,4,0,0,1-1.27-3.09A4.18,4.18,0,0,1,122.9,5.39Zm.82,4.42a2.11,2.11,0,0,0,1.83,1.07,2,2,0,0,0,1.39-.54,2.82,2.82,0,0,0,.92-2.18,3,3,0,0,0-.48-1.65,2.1,2.1,0,0,0-1.83-1.07,2,2,0,0,0-1.38.54,2.78,2.78,0,0,0-.92,2.18A3,3,0,0,0,123.72,9.81Z"/><path class="cls-1" d="M132.13,5.39a3.33,3.33,0,0,1,5-.37V0h1.32V12.24H137.1v-.93a3.39,3.39,0,0,1-2.31.93,3.29,3.29,0,0,1-2.36-1,4,4,0,0,1-1.27-3.09A4.18,4.18,0,0,1,132.13,5.39ZM133,9.81a2.1,2.1,0,0,0,1.83,1.07,2,2,0,0,0,1.38-.54,2.79,2.79,0,0,0,.93-2.18,3,3,0,0,0-.48-1.65,2.1,2.1,0,0,0-1.83-1.07A2,2,0,0,0,133.4,6a2.82,2.82,0,0,0-.92,2.18A3,3,0,0,0,133,9.81Z"/><path class="cls-1" d="M148.46,5.39a3.32,3.32,0,0,1,5-.37V4.08h1.32v8.16h-1.32v-.93a3.39,3.39,0,0,1-2.31.93,3.31,3.31,0,0,1-2.36-1,4.08,4.08,0,0,1-1.26-3.09A4.18,4.18,0,0,1,148.46,5.39Zm.82,4.42a2.1,2.1,0,0,0,1.83,1.07,2,2,0,0,0,1.39-.54,2.82,2.82,0,0,0,.92-2.18,3,3,0,0,0-.48-1.65,2.1,2.1,0,0,0-1.83-1.07,2,2,0,0,0-1.38.54,2.79,2.79,0,0,0-.93,2.18A3,3,0,0,0,149.28,9.81Z"/><path class="cls-1" d="M161.29,6.44a.71.71,0,0,0-.18-.47,1.59,1.59,0,0,0-1.32-.53,2.24,2.24,0,0,0-.68.1c-.55.18-.82.48-.82.9a.48.48,0,0,0,.09.27,3.76,3.76,0,0,0,1.52.7,11,11,0,0,1,1.22.43c1.17.48,1.75,1.16,1.73,2a2,2,0,0,1-.49,1.29,3.16,3.16,0,0,1-2.57,1.07,3.61,3.61,0,0,1-2.06-.59,2.1,2.1,0,0,1-1-1.77H158a.69.69,0,0,0,.2.47,1.92,1.92,0,0,0,1.55.53,2.76,2.76,0,0,0,.75-.1c.67-.17,1-.47,1-.9a.48.48,0,0,0-.09-.26,3.69,3.69,0,0,0-1.5-.68c-.54-.17-.94-.31-1.22-.42C157.57,8,157,7.34,157,6.44a2.13,2.13,0,0,1,.49-1.34,2.83,2.83,0,0,1,2.33-1,3.12,3.12,0,0,1,1.83.56,2.15,2.15,0,0,1,1,1.8Z"/><path class="cls-1" d="M177.17,5.24a2.72,2.72,0,0,1,2.24-1.16,2.68,2.68,0,0,1,1.81.7,3.23,3.23,0,0,1,1.12,2.56v4.22l0,.7h-1.3l0-.68V7.34a2.33,2.33,0,0,0-.25-1,1.5,1.5,0,0,0-1.37-.87,1.42,1.42,0,0,0-.89.31,1.9,1.9,0,0,0-.73,1.59v4.22l0,.7h-1.3l0-.68,0-3.56V7.34a2.32,2.32,0,0,0-.24-1,1.5,1.5,0,0,0-1.37-.87,1.42,1.42,0,0,0-.89.31,1.87,1.87,0,0,0-.73,1.59v4.9h-1.32V4.08h1.32v.54a2.79,2.79,0,0,1,1.62-.54,2.89,2.89,0,0,1,2.27,1.19A.05.05,0,0,0,177.17,5.24Z"/><path class="cls-1" d="M184.67,4.1H186l0,.68,0,4.35a1.66,1.66,0,0,0,.32,1,1.83,1.83,0,0,0,1.56.78,2,2,0,0,0,1-.29,1.64,1.64,0,0,0,.84-1.46v-5h1.34l0,.68V9.13a3.15,3.15,0,0,1-3.19,3.11,3.13,3.13,0,0,1-2.06-.73,3,3,0,0,1-1.14-2.38V4.76Z"/><path class="cls-1" d="M199.15,10.68a3.39,3.39,0,0,1-2.92,1.56,3.19,3.19,0,0,1-2.29-1,4.11,4.11,0,0,1-1.26-3.11,4.32,4.32,0,0,1,.94-2.77,3.26,3.26,0,0,1,2.61-1.31,3.38,3.38,0,0,1,2.93,1.46l-1.08.78a2.11,2.11,0,0,0-1.85-.88,1.91,1.91,0,0,0-1.34.54A2.8,2.8,0,0,0,194,8.16a3.22,3.22,0,0,0,.43,1.62,2,2,0,0,0,1.8,1.1,2.28,2.28,0,0,0,1.86-1Z"/><path class="cls-1" d="M204.39,4.08a2.82,2.82,0,0,1,2,.78,3.5,3.5,0,0,1,1.18,2.74v4.66h-1.3l0-.68v-4a2.44,2.44,0,0,0-.32-1.22,1.64,1.64,0,0,0-2.52-.57,2.19,2.19,0,0,0-.79,1.79v4.64h-1.32V1.09h1.32V4.73A3,3,0,0,1,204.39,4.08Z"/><path class="cls-1" d="M217,3V1.68h1.33V3H217Zm0,1h1.32v8.16H217V4.08Z"/><path class="cls-1" d="M226.83,12.26h-1.3v-.68l0-4a2.54,2.54,0,0,0-.31-1.22,1.68,1.68,0,0,0-1.51-.94,1.64,1.64,0,0,0-1,.37,2.19,2.19,0,0,0-.79,1.79v4.64h-1.32V4.08h1.32v.65a3,3,0,0,1,1.81-.65,2.84,2.84,0,0,1,2,.78,3.49,3.49,0,0,1,1.17,2.74v4.66Z"/><path class="cls-1" d="M232.09,4.08h.66V5.44h-1.88v6.8h-1.32V5.44h-1.08V4.08h1.1a8.5,8.5,0,0,1,.2-1.43c.36-1.55,1.14-2.33,2.32-2.33h.66V1.68h-.66c-.68,0-1.07.81-1.18,2.4Z"/><path class="cls-1" d="M234.4,0h1.32V12.24H234.4V0Z"/><path class="cls-1" d="M237.27,4.1h1.34l0,.68,0,4.35a1.66,1.66,0,0,0,.32,1,1.83,1.83,0,0,0,1.57.78,2,2,0,0,0,1-.29,1.64,1.64,0,0,0,.84-1.46v-5h1.34l0,.68V9.13a3,3,0,0,1-.7,1.94,3,3,0,0,1-2.48,1.17,3.16,3.16,0,0,1-2.07-.73,2.94,2.94,0,0,1-1.13-2.38v-5Z"/><path class="cls-1" d="M252,10.64a3.59,3.59,0,0,1-3.07,1.6,3.33,3.33,0,0,1-2.37-1,4.07,4.07,0,0,1-1.25-3.09,4.25,4.25,0,0,1,.94-2.75,3.34,3.34,0,0,1,5-.34,4,4,0,0,1,1.27,3.09v.68h-5.87a3,3,0,0,0,.4.95,2.08,2.08,0,0,0,1.84,1.09,2.43,2.43,0,0,0,2-1.05Zm-.76-3.16a1.82,1.82,0,0,0-.44-1.07,2.32,2.32,0,0,0-1.87-1,2,2,0,0,0-1,.26,2.51,2.51,0,0,0-1.27,1.78Z"/><path class="cls-1" d="M260.8,12.26h-1.3l0-.68v-4a2.44,2.44,0,0,0-.32-1.22,1.64,1.64,0,0,0-2.52-.57,2.19,2.19,0,0,0-.79,1.79v4.64h-1.32V4.08h1.32v.65a3,3,0,0,1,1.81-.65,2.86,2.86,0,0,1,2,.78,3.49,3.49,0,0,1,1.17,2.74v4.66Z"/><path class="cls-1" d="M269.23,10.68a3.38,3.38,0,0,1-2.92,1.56,3.19,3.19,0,0,1-2.29-1,4.1,4.1,0,0,1-1.25-3.11,4.26,4.26,0,0,1,.94-2.77,3.22,3.22,0,0,1,2.6-1.31,3.4,3.4,0,0,1,2.94,1.46l-1.09.78a2.11,2.11,0,0,0-1.85-.88A1.91,1.91,0,0,0,265,6a2.8,2.8,0,0,0-.89,2.18,3.22,3.22,0,0,0,.43,1.62,2,2,0,0,0,1.8,1.1,2.28,2.28,0,0,0,1.86-1Z"/><path class="cls-1" d="M277.38,10.64a3.61,3.61,0,0,1-3.07,1.6,3.37,3.37,0,0,1-2.38-1,4.11,4.11,0,0,1-1.25-3.09,4.25,4.25,0,0,1,.94-2.75,3.35,3.35,0,0,1,5.05-.34,4.09,4.09,0,0,1,1.27,3.09v.68h-5.87a2.73,2.73,0,0,0,.39.95,2.1,2.1,0,0,0,1.85,1.09,2.42,2.42,0,0,0,2-1.05Zm-.76-3.16a1.78,1.78,0,0,0-.45-1.07,2.31,2.31,0,0,0-1.86-1,2,2,0,0,0-1,.26,2.5,2.5,0,0,0-1.26,1.78Z"/><path class="cls-1" d="M287.32,5.39a3.32,3.32,0,0,1,5-.32,4,4,0,0,1,1.27,3.09,4.18,4.18,0,0,1-1,2.77A3.32,3.32,0,0,1,290,12.24a3.27,3.27,0,0,1-2.35-1,4,4,0,0,1-1.27-3.09A4.18,4.18,0,0,1,287.32,5.39Zm.82,4.42A2.11,2.11,0,0,0,290,10.88a2,2,0,0,0,1.39-.54,2.82,2.82,0,0,0,.92-2.18,3,3,0,0,0-.48-1.65A2.1,2.1,0,0,0,290,5.44a2,2,0,0,0-1.38.54,2.78,2.78,0,0,0-.92,2.18A3,3,0,0,0,288.14,9.81Z"/><path class="cls-1" d="M301.86,12.26h-1.3l0-.68v-4a2.44,2.44,0,0,0-.32-1.22,1.64,1.64,0,0,0-2.52-.57,2.19,2.19,0,0,0-.79,1.79v4.64h-1.32V4.08h1.32v.65a3,3,0,0,1,1.81-.65,2.82,2.82,0,0,1,2,.78,3.46,3.46,0,0,1,1.18,2.74v4.66Z"/><path class="cls-1" d="M316.82,5.24a2.73,2.73,0,0,1,4.06-.46A3.26,3.26,0,0,1,322,7.34v4.92h-1.3l0-.68V7.34a2.33,2.33,0,0,0-.25-1,1.5,1.5,0,0,0-1.37-.87,1.44,1.44,0,0,0-.89.31,1.89,1.89,0,0,0-.72,1.59v4.92h-1.3l0-.68V7.34a2.33,2.33,0,0,0-.25-1,1.5,1.5,0,0,0-1.37-.87,1.42,1.42,0,0,0-.89.31,1.87,1.87,0,0,0-.73,1.59v4.9h-1.32V4.08h1.32v.54a2.81,2.81,0,0,1,1.62-.54,2.92,2.92,0,0,1,2.28,1.19Z"/><path class="cls-1" d="M325,5.39a3.32,3.32,0,0,1,5-.37V4.08h1.32v8.16h-1.32v-.93a3.39,3.39,0,0,1-2.31.93,3.31,3.31,0,0,1-2.36-1A4.09,4.09,0,0,1,324,8.16,4.19,4.19,0,0,1,325,5.39Zm.82,4.42a2.1,2.1,0,0,0,1.83,1.07,2,2,0,0,0,1.39-.54,2.82,2.82,0,0,0,.92-2.18,3,3,0,0,0-.48-1.65,2.1,2.1,0,0,0-1.83-1.07,2,2,0,0,0-1.38.54,2.79,2.79,0,0,0-.93,2.18A3,3,0,0,0,325.77,9.81Z"/><path class="cls-1" d="M340.15,12.26h-1.3l0-.68v-4a2.44,2.44,0,0,0-.32-1.22A1.64,1.64,0,0,0,336,5.81a2.19,2.19,0,0,0-.79,1.79v4.64h-1.32V4.08h1.32v.65A3,3,0,0,1,337,4.08a2.82,2.82,0,0,1,2,.78,3.49,3.49,0,0,1,1.17,2.74v4Z"/><path class="cls-1" d="M344.09,8.84v3.4h-1.32V0h1.32V7.48h.23l3.27-3.21.2-.19h1.91l-1.19,1.17-3,2.91,3,2.91,1.19,1.17h-1.91l-.2-.19-3.27-3.21Z"/><path class="cls-1" d="M350.44,3V1.68h1.34V3h-1.34Zm0,1h1.32v8.16h-1.32V4.08Z"/><path class="cls-1" d="M360.27,12.26H359l0-.68,0-4a2.43,2.43,0,0,0-.31-1.22,1.64,1.64,0,0,0-2.52-.57,2.19,2.19,0,0,0-.79,1.79v4.64H354V4.08h1.32v.65a2.93,2.93,0,0,1,1.81-.65,2.82,2.82,0,0,1,2,.78,3.49,3.49,0,0,1,1.17,2.74v4Z"/><path class="cls-1" d="M363.2,5.39a3.33,3.33,0,0,1,5-.37V0h1.32V12.24h-1.32v-.93a3.39,3.39,0,0,1-2.31.93,3.29,3.29,0,0,1-2.36-1,4,4,0,0,1-1.27-3.09A4.23,4.23,0,0,1,363.2,5.39ZM364,9.81a2.1,2.1,0,0,0,1.83,1.07,2,2,0,0,0,1.38-.54,2.79,2.79,0,0,0,.93-2.18,3,3,0,0,0-.48-1.65,2.1,2.1,0,0,0-1.83-1.07,2,2,0,0,0-1.39.54,2.82,2.82,0,0,0-.92,2.18A3,3,0,0,0,364,9.81Z"/><path class="cls-1" d="M379.53,5.39a3.32,3.32,0,0,1,5-.37V4.08h1.32v8.16h-1.32v-.93a3.39,3.39,0,0,1-2.31.93,3.27,3.27,0,0,1-2.35-1,4,4,0,0,1-1.27-3.09A4.18,4.18,0,0,1,379.53,5.39Zm.82,4.42a2.12,2.12,0,0,0,1.83,1.07,2,2,0,0,0,1.39-.54,2.78,2.78,0,0,0,.92-2.18A3,3,0,0,0,384,6.51a2.1,2.1,0,0,0-1.83-1.07A2,2,0,0,0,380.8,6a2.78,2.78,0,0,0-.92,2.18A3.07,3.07,0,0,0,380.35,9.81Z"/><path class="cls-1" d="M392.36,6.44a.71.71,0,0,0-.18-.47,1.59,1.59,0,0,0-1.32-.53,2.24,2.24,0,0,0-.68.1c-.55.18-.82.48-.82.9a.43.43,0,0,0,.1.27,3.69,3.69,0,0,0,1.51.7,11,11,0,0,1,1.22.43q1.76.72,1.74,2a2,2,0,0,1-.5,1.29,3.16,3.16,0,0,1-2.57,1.07,3.61,3.61,0,0,1-2.06-.59,2.13,2.13,0,0,1-1-1.77h1.32a.69.69,0,0,0,.2.47,1.94,1.94,0,0,0,1.55.53,2.89,2.89,0,0,0,.76-.1q1-.26,1-.9a.48.48,0,0,0-.09-.26,3.69,3.69,0,0,0-1.5-.68c-.54-.17-.94-.31-1.22-.42C388.64,8,388.05,7.34,388,6.44a2.13,2.13,0,0,1,.49-1.34,2.83,2.83,0,0,1,2.33-1,3.12,3.12,0,0,1,1.83.56,2.15,2.15,0,0,1,1,1.8Z"/><path class="cls-1" d="M404.43,9.84c0,.67.41,1,1.2,1h.66v1.36h-.66a3.52,3.52,0,0,1-.87-.1,2.06,2.06,0,0,1-1.65-2.28V5.44H402V4.08h1.11V2.29l0-.66h1.33V4.08h1.84V5.44h-1.84Z"/><path class="cls-1" d="M411.07,4.08a2.86,2.86,0,0,1,2,.78,3.49,3.49,0,0,1,1.17,2.74v4.66h-1.3l0-.68v-4a2.54,2.54,0,0,0-.31-1.22,1.68,1.68,0,0,0-1.51-.94,1.64,1.64,0,0,0-1,.37,2.19,2.19,0,0,0-.79,1.79v4.64h-1.32V1.09h1.32V4.73A3,3,0,0,1,411.07,4.08Z"/><path class="cls-1" d="M422.88,10.64a3.59,3.59,0,0,1-3.07,1.6,3.33,3.33,0,0,1-2.37-1,4.07,4.07,0,0,1-1.25-3.09,4.25,4.25,0,0,1,.94-2.75,3.34,3.34,0,0,1,5-.34,4,4,0,0,1,1.27,3.09v.68h-5.87a3,3,0,0,0,.4.95,2.08,2.08,0,0,0,1.84,1.09,2.43,2.43,0,0,0,2-1.05Zm-.76-3.16a1.82,1.82,0,0,0-.44-1.07,2.32,2.32,0,0,0-1.87-1,2,2,0,0,0-1,.26,2.51,2.51,0,0,0-1.27,1.78Z"/><path class="cls-1" d="M436.42,6.44a.71.71,0,0,0-.18-.47,1.59,1.59,0,0,0-1.32-.53,2.24,2.24,0,0,0-.68.1c-.55.18-.82.48-.82.9a.43.43,0,0,0,.1.27,3.69,3.69,0,0,0,1.51.7,11,11,0,0,1,1.22.43q1.75.72,1.74,2a2,2,0,0,1-.5,1.29,3.16,3.16,0,0,1-2.57,1.07,3.61,3.61,0,0,1-2.06-.59,2.13,2.13,0,0,1-1-1.77h1.32a.69.69,0,0,0,.2.47,1.94,1.94,0,0,0,1.55.53,2.89,2.89,0,0,0,.76-.1q1-.26,1-.9a.48.48,0,0,0-.09-.26,3.69,3.69,0,0,0-1.5-.68c-.54-.17-.94-.31-1.22-.42-1.16-.49-1.75-1.18-1.76-2.08a2.13,2.13,0,0,1,.49-1.34,2.83,2.83,0,0,1,2.33-1,3.12,3.12,0,0,1,1.83.56,2.15,2.15,0,0,1,1,1.8Z"/><path class="cls-1" d="M439.65,4.1H441l0,.68,0,4.35a1.66,1.66,0,0,0,.32,1,1.83,1.83,0,0,0,1.56.78,2,2,0,0,0,1-.29,1.64,1.64,0,0,0,.84-1.46v-5h1.34l0,.68V9.13a3,3,0,0,1-.7,1.94,3,3,0,0,1-2.49,1.17,3.15,3.15,0,0,1-2.06-.73,3,3,0,0,1-1.14-2.38V4.76Z"/><path class="cls-1" d="M454.61,12.26H453.3v-.68l0-4A2.43,2.43,0,0,0,453,6.38a1.66,1.66,0,0,0-1.5-.94,1.6,1.6,0,0,0-1,.37,2.2,2.2,0,0,0-.8,1.79v4.64h-1.32V4.08h1.32v.65a3,3,0,0,1,1.82-.65,2.84,2.84,0,0,1,2,.78,3.49,3.49,0,0,1,1.17,2.74v4Z"/><path class="cls-1" d="M457.56,10.9h1.32v.68h0v.68h-1.32v-.68h0Z"/><path class="cls-1" d="M1.09,21.08H2.41V32.64H1.09V21.08Z"/><path class="cls-1" d="M6.38,30.24c0,.67.41,1,1.21,1h.66v1.36H7.59a3.6,3.6,0,0,1-.88-.1,2.06,2.06,0,0,1-1.65-2.28V25.84H4V24.48h1.1V22.7l0-.67H6.42l0,.68v1.77H8.25v1.36H6.4Z"/><path class="cls-1" d="M16.74,23.44V22.08h1.33v1.36H16.74Zm0,1h1.32v8.16H16.74V24.48Z"/><path class="cls-1" d="M24.19,26.84a.71.71,0,0,0-.18-.47,1.59,1.59,0,0,0-1.32-.53,2.6,2.6,0,0,0-.68.1c-.55.18-.82.48-.82.9a.46.46,0,0,0,.1.28,3.87,3.87,0,0,0,1.52.69,11.83,11.83,0,0,1,1.22.43c1.16.48,1.74,1.17,1.73,2a2,2,0,0,1-.5,1.29,3.16,3.16,0,0,1-2.57,1.07,3.61,3.61,0,0,1-2.06-.59,2.13,2.13,0,0,1-1-1.77h1.32a.69.69,0,0,0,.2.47,1.94,1.94,0,0,0,1.55.53,2.84,2.84,0,0,0,.76-.1q1-.25,1-.9a.56.56,0,0,0-.08-.26,3.85,3.85,0,0,0-1.5-.68q-.81-.25-1.23-.42c-1.16-.49-1.75-1.18-1.76-2.08a2.15,2.15,0,0,1,.5-1.34,2.81,2.81,0,0,1,2.32-1,3.12,3.12,0,0,1,1.83.56,2.15,2.15,0,0,1,1,1.8Z"/><path class="cls-1" d="M36.26,30.24c0,.67.41,1,1.2,1h.66v1.36h-.66a3.57,3.57,0,0,1-.87-.1,2.06,2.06,0,0,1-1.65-2.28V25.84h-1.1V24.48h1.1V22.7L35,22h1.33v2.45h1.84v1.36H36.28Z"/><path class="cls-1" d="M42.91,24.48a2.84,2.84,0,0,1,2,.78A3.49,3.49,0,0,1,46,28v4l0,.7H44.75V32l0-4a2.43,2.43,0,0,0-.31-1.22,1.68,1.68,0,0,0-1.5-.94,1.65,1.65,0,0,0-1,.37A2.22,2.22,0,0,0,41.09,28v4.64H39.77V21.49h1.32v3.64A3,3,0,0,1,42.91,24.48Z"/><path class="cls-1" d="M54.71,31a3.59,3.59,0,0,1-3.06,1.6,3.36,3.36,0,0,1-2.38-1A4.11,4.11,0,0,1,48,28.56,4.25,4.25,0,0,1,49,25.81a3.33,3.33,0,0,1,2.69-1.33,3.27,3.27,0,0,1,2.35,1,4,4,0,0,1,1.27,3.09v.68H49.4a3,3,0,0,0,.4,1,2.1,2.1,0,0,0,1.85,1.09,2.42,2.42,0,0,0,2-1.05ZM54,27.88a1.8,1.8,0,0,0-.45-1.07,2.31,2.31,0,0,0-1.86-1,2,2,0,0,0-1,.26,2.51,2.51,0,0,0-1.27,1.78Z"/><path class="cls-1" d="M64.34,21.08V20.4h1.32v5A3.36,3.36,0,0,1,68,24.48a3.29,3.29,0,0,1,2.36,1,4,4,0,0,1,1.27,3.09,4.23,4.23,0,0,1-1,2.77,3.35,3.35,0,0,1-5,.38v.93H64.34V21.08Zm1.78,9.13A2.13,2.13,0,0,0,68,31.28a2,2,0,0,0,1.39-.54,2.82,2.82,0,0,0,.92-2.18,3,3,0,0,0-.48-1.65A2.1,2.1,0,0,0,68,25.84a2,2,0,0,0-1.38.54,2.82,2.82,0,0,0-.93,2.2A3.06,3.06,0,0,0,66.12,30.21Z"/><path class="cls-1" d="M77,24.48h.66v1.36H77a1.92,1.92,0,0,0-1,.26,2.48,2.48,0,0,0-1.12,2.36v4.18H73.58V24.48H74.9v.71A3.36,3.36,0,0,1,77,24.48Z"/><path class="cls-1" d="M78.9,23.44V22.08h1.34v1.36H78.9Zm0,1h1.32v8.16H78.9V24.48Z"/><path class="cls-1" d="M82.76,25.79a3.33,3.33,0,0,1,5-.37V24.5h1.34l0,.68L89,32a4,4,0,0,1-.16,1.12,4.66,4.66,0,0,1-.49,1.13,4.74,4.74,0,0,1-.75,1,3.4,3.4,0,0,1-1,.7,3,3,0,0,1-1.21.26h-.66V34.78h.66A2,2,0,0,0,87,34a3.08,3.08,0,0,0,.73-2v-.25a3.41,3.41,0,0,1-2.31.93,3.29,3.29,0,0,1-2.36-1,4,4,0,0,1-1.27-3.09A4.2,4.2,0,0,1,82.76,25.79Zm.83,4.42a2.1,2.1,0,0,0,1.83,1.07,2,2,0,0,0,1.38-.54,2.79,2.79,0,0,0,.93-2.18,3,3,0,0,0-.48-1.65,2.1,2.1,0,0,0-1.83-1.07,2,2,0,0,0-1.39.54,2.83,2.83,0,0,0-.92,2.18A3,3,0,0,0,83.59,30.21Z"/><path class="cls-1" d="M94.82,24.48a2.84,2.84,0,0,1,2,.78A3.49,3.49,0,0,1,98,28v4l0,.7H96.66V32l0-4a2.43,2.43,0,0,0-.31-1.22,1.67,1.67,0,0,0-1.5-.94,1.65,1.65,0,0,0-1,.37A2.22,2.22,0,0,0,93,28v4.64H91.68V21.49H93v3.64A3,3,0,0,1,94.82,24.48Z"/><path class="cls-1" d="M102,30.24c0,.67.42,1,1.21,1h.66v1.36h-.66a3.6,3.6,0,0,1-.88-.1,2.06,2.06,0,0,1-1.65-2.28V25.84H99.6V24.48h1.1V22.7l0-.67h1.34l0,.68v1.77h1.85v1.36H102Z"/><path class="cls-1" d="M111.57,31a3.59,3.59,0,0,1-3.07,1.6,3.33,3.33,0,0,1-2.37-1,4.07,4.07,0,0,1-1.25-3.09,4.25,4.25,0,0,1,.94-2.75,3.34,3.34,0,0,1,5-.34,4,4,0,0,1,1.27,3.09v.68h-5.87a3,3,0,0,0,.4,1,2.08,2.08,0,0,0,1.84,1.09,2.43,2.43,0,0,0,2-1.05Zm-.76-3.16a1.84,1.84,0,0,0-.44-1.07,2.32,2.32,0,0,0-1.87-1,2,2,0,0,0-1,.26,2.51,2.51,0,0,0-1.27,1.78Z"/><path class="cls-1" d="M118,26.84a.71.71,0,0,0-.18-.47,1.59,1.59,0,0,0-1.32-.53,2.6,2.6,0,0,0-.68.1c-.55.18-.82.48-.82.9a.46.46,0,0,0,.1.28,3.87,3.87,0,0,0,1.51.69,11,11,0,0,1,1.22.43c1.17.48,1.74,1.17,1.73,2a2,2,0,0,1-.49,1.29,3.16,3.16,0,0,1-2.57,1.07,3.59,3.59,0,0,1-2.06-.59,2.13,2.13,0,0,1-1-1.77h1.32a.64.64,0,0,0,.2.47,1.92,1.92,0,0,0,1.55.53,2.89,2.89,0,0,0,.76-.1c.66-.17,1-.47,1-.9a.46.46,0,0,0-.08-.26,3.69,3.69,0,0,0-1.5-.68c-.54-.17-.94-.31-1.22-.42-1.16-.49-1.75-1.18-1.76-2.08a2.13,2.13,0,0,1,.49-1.34,2.83,2.83,0,0,1,2.33-1,3.12,3.12,0,0,1,1.83.56,2.15,2.15,0,0,1,1,1.8Z"/><path class="cls-1" d="M123,30.24c0,.67.41,1,1.2,1h.66v1.36h-.66a3.46,3.46,0,0,1-.87-.1,2.06,2.06,0,0,1-1.65-2.28V25.84h-1.11V24.48h1.11V22.7l0-.67H123l0,.68v1.77h1.85v1.36H123Z"/><path class="cls-1" d="M133.91,25.79a3.33,3.33,0,0,1,5-.32,4.09,4.09,0,0,1,1.27,3.09,4.19,4.19,0,0,1-1,2.77,3.32,3.32,0,0,1-5,.32,4,4,0,0,1-1.27-3.09A4.2,4.2,0,0,1,133.91,25.79Zm.83,4.42a2.1,2.1,0,0,0,1.83,1.07,2,2,0,0,0,1.38-.54,2.79,2.79,0,0,0,.93-2.18,3,3,0,0,0-.48-1.65,2.1,2.1,0,0,0-1.83-1.07,2,2,0,0,0-1.39.54,2.83,2.83,0,0,0-.92,2.18A3,3,0,0,0,134.74,30.21Z"/><path class="cls-1" d="M142.17,21.08V20.4h1.32v5a3.36,3.36,0,0,1,2.31-.94,3.29,3.29,0,0,1,2.36,1,4,4,0,0,1,1.27,3.09,4.18,4.18,0,0,1-1,2.77,3.32,3.32,0,0,1-2.66,1.31,3.37,3.37,0,0,1-2.31-.93v.93h-1.32V21.08ZM144,30.21a2.1,2.1,0,0,0,1.84,1.07,2,2,0,0,0,1.39-.54,2.82,2.82,0,0,0,.92-2.18,3,3,0,0,0-.48-1.65,2.1,2.1,0,0,0-1.83-1.07,2.06,2.06,0,0,0-1.38.54,2.82,2.82,0,0,0-.93,2.2A3,3,0,0,0,144,30.21Z"/><path class="cls-1" d="M151.79,24.5h1.33v.68l0,6.78a6.63,6.63,0,0,1-.63,3.11c-.39.72-.85,1.07-1.38,1.07h-.66V34.78h.74c.41-.13.61-1.06.61-2.81v-6.8Zm0-1V22.13h1.34v1.36h-1.34Z"/><path class="cls-1" d="M161.76,31a3.58,3.58,0,0,1-3.06,1.6,3.37,3.37,0,0,1-2.38-1,4.11,4.11,0,0,1-1.25-3.09,4.25,4.25,0,0,1,.94-2.75,3.35,3.35,0,0,1,5.05-.34,4.09,4.09,0,0,1,1.27,3.09v.68h-5.87a2.73,2.73,0,0,0,.39,1,2.1,2.1,0,0,0,1.85,1.09,2.42,2.42,0,0,0,2-1.05ZM161,27.88a1.8,1.8,0,0,0-.45-1.07,2.31,2.31,0,0,0-1.86-1,2,2,0,0,0-1,.26,2.47,2.47,0,0,0-1.26,1.78Z"/><path class="cls-1" d="M170.11,31.08a3.39,3.39,0,0,1-2.92,1.56,3.19,3.19,0,0,1-2.29-1,4.11,4.11,0,0,1-1.26-3.11,4.34,4.34,0,0,1,.94-2.77,3.26,3.26,0,0,1,2.61-1.31,3.37,3.37,0,0,1,2.93,1.46l-1.08.78a2.11,2.11,0,0,0-1.85-.88,1.91,1.91,0,0,0-1.34.54,2.8,2.8,0,0,0-.89,2.18,3.22,3.22,0,0,0,.43,1.62,2,2,0,0,0,1.8,1.1,2.28,2.28,0,0,0,1.86-1Z"/><path class="cls-1" d="M173.65,30.24c0,.67.42,1,1.21,1h.66v1.36h-.66a3.6,3.6,0,0,1-.88-.1,2.06,2.06,0,0,1-1.65-2.28V25.84h-1.1V24.48h1.1V22.7l0-.67h1.34l0,.68v1.77h1.85v1.36h-1.85Z"/><path class="cls-1" d="M188.17,26.84a.72.72,0,0,0-.19-.47,1.57,1.57,0,0,0-1.32-.53,2.53,2.53,0,0,0-.67.1c-.55.18-.83.48-.83.9a.53.53,0,0,0,.1.28,4,4,0,0,0,1.52.69,11,11,0,0,1,1.22.43c1.17.48,1.74,1.17,1.73,2a2,2,0,0,1-.49,1.29,3.18,3.18,0,0,1-2.58,1.07,3.64,3.64,0,0,1-2.06-.59,2.12,2.12,0,0,1-1-1.77h1.32a.67.67,0,0,0,.19.47,2,2,0,0,0,1.55.53,2.78,2.78,0,0,0,.76-.1q1-.25,1-.9a.56.56,0,0,0-.08-.26,3.69,3.69,0,0,0-1.5-.68c-.54-.17-1-.31-1.22-.42-1.17-.49-1.75-1.18-1.77-2.08a2.15,2.15,0,0,1,.5-1.34,2.81,2.81,0,0,1,2.32-1,3.08,3.08,0,0,1,1.83.56,2.15,2.15,0,0,1,1,1.8Z"/><path class="cls-1" d="M197.75,31a3.61,3.61,0,0,1-3.07,1.6,3.37,3.37,0,0,1-2.38-1,4.11,4.11,0,0,1-1.25-3.09,4.25,4.25,0,0,1,.94-2.75,3.35,3.35,0,0,1,5-.34,4.09,4.09,0,0,1,1.27,3.09v.68h-5.87a2.73,2.73,0,0,0,.39,1,2.1,2.1,0,0,0,1.85,1.09,2.42,2.42,0,0,0,2-1.05ZM197,27.88a1.8,1.8,0,0,0-.45-1.07,2.31,2.31,0,0,0-1.86-1,2,2,0,0,0-1,.26,2.46,2.46,0,0,0-1.27,1.78Z"/><path class="cls-1" d="M206.32,31a3.59,3.59,0,0,1-3.07,1.6,3.33,3.33,0,0,1-2.37-1,4.08,4.08,0,0,1-1.26-3.09,4.3,4.3,0,0,1,.94-2.75,3.35,3.35,0,0,1,2.69-1.33,3.29,3.29,0,0,1,2.36,1,4,4,0,0,1,1.27,3.09v.68H201a3,3,0,0,0,.4,1,2.08,2.08,0,0,0,1.84,1.09,2.4,2.4,0,0,0,2-1.05Zm-.76-3.16a1.84,1.84,0,0,0-.44-1.07,2.32,2.32,0,0,0-1.87-1,2,2,0,0,0-1,.26A2.51,2.51,0,0,0,201,27.88Z"/><path class="cls-1" d="M215.14,32.66h-1.3l0-.68V28a2.44,2.44,0,0,0-.32-1.22,1.64,1.64,0,0,0-2.52-.57,2.19,2.19,0,0,0-.79,1.79v4.64h-1.32V24.48h1.32v.65a3,3,0,0,1,1.81-.65,2.86,2.86,0,0,1,2,.78A3.51,3.51,0,0,1,215.12,28v4Z"/><path class="cls-1" d="M225.17,25.79a3.32,3.32,0,0,1,5-.37v-.94h1.32v8.16h-1.32v-.93a3.39,3.39,0,0,1-2.31.93,3.31,3.31,0,0,1-2.36-1,4.08,4.08,0,0,1-1.26-3.09A4.2,4.2,0,0,1,225.17,25.79Zm.82,4.42a2.1,2.1,0,0,0,1.83,1.07,2,2,0,0,0,1.39-.54,2.82,2.82,0,0,0,.92-2.18,3,3,0,0,0-.48-1.65,2.1,2.1,0,0,0-1.83-1.07,2,2,0,0,0-1.38.54,2.81,2.81,0,0,0-.93,2.18A3,3,0,0,0,226,30.21Z"/><path class="cls-1" d="M235.52,30.24c0,.67.42,1,1.21,1h.66v1.36h-.66a3.6,3.6,0,0,1-.88-.1,2.06,2.06,0,0,1-1.65-2.28V25.84h-1.1V24.48h1.1V22.7l0-.67h1.34l0,.68v1.77h1.85v1.36h-1.85Z"/><path class="cls-1" d="M252.41,32.66h-1.3l0-.68,0-4a2.43,2.43,0,0,0-.31-1.22,1.66,1.66,0,0,0-1.5-.94,1.6,1.6,0,0,0-1,.37,2.19,2.19,0,0,0-.79,1.79v4.64h-1.32V24.48h1.32v.65a2.93,2.93,0,0,1,1.81-.65,2.82,2.82,0,0,1,2,.78A3.49,3.49,0,0,1,252.39,28v4Z"/><path class="cls-1" d="M254.78,23.44V22.08h1.34v1.36h-1.34Zm0,1h1.32v8.16h-1.32V24.48Z"/><path class="cls-1" d="M258.64,25.79a3.33,3.33,0,0,1,5-.37V24.5H265l0,.68,0,6.78a4,4,0,0,1-.16,1.12,4.66,4.66,0,0,1-.49,1.13,4.74,4.74,0,0,1-.75,1,3.4,3.4,0,0,1-1,.7,3,3,0,0,1-1.21.26h-.66V34.78h.66a2,2,0,0,0,1.57-.83,3.08,3.08,0,0,0,.73-2v-.25a3.41,3.41,0,0,1-2.31.93,3.29,3.29,0,0,1-2.36-1,4,4,0,0,1-1.27-3.09A4.2,4.2,0,0,1,258.64,25.79Zm.83,4.42a2.1,2.1,0,0,0,1.83,1.07,2,2,0,0,0,1.38-.54,2.79,2.79,0,0,0,.93-2.18,3,3,0,0,0-.48-1.65,2.11,2.11,0,0,0-1.83-1.07,2,2,0,0,0-1.39.54,2.83,2.83,0,0,0-.92,2.18A3,3,0,0,0,259.47,30.21Z"/><path class="cls-1" d="M270.7,24.48a2.84,2.84,0,0,1,2,.78A3.49,3.49,0,0,1,273.83,28v4l0,.7h-1.31V32l0-4a2.43,2.43,0,0,0-.31-1.22,1.68,1.68,0,0,0-1.5-.94,1.65,1.65,0,0,0-1,.37,2.22,2.22,0,0,0-.79,1.79v4.64h-1.32V21.49h1.32v3.64A3,3,0,0,1,270.7,24.48Z"/><path class="cls-1" d="M277.9,30.24c0,.67.41,1,1.21,1h.66v1.36h-.66a3.6,3.6,0,0,1-.88-.1,2.06,2.06,0,0,1-1.65-2.28V25.84h-1.1V24.48h1.1V22.7l0-.67h1.33v2.45h1.85v1.36h-1.85Z"/><path class="cls-1" d="M282.3,30.84h1.32l-.06.75A3.54,3.54,0,0,1,282.5,34l-.2.16h-2l1.38-1.21a2.3,2.3,0,0,0,.6-1.48Z"/><path class="cls-1" d="M292.78,25.79a3.32,3.32,0,0,1,5-.37v-.94h1.32v8.16h-1.32v-.93a3.39,3.39,0,0,1-2.31.93,3.29,3.29,0,0,1-2.36-1,4,4,0,0,1-1.27-3.09A4.21,4.21,0,0,1,292.78,25.79Zm.82,4.42a2.1,2.1,0,0,0,1.83,1.07,2,2,0,0,0,1.38-.54,2.79,2.79,0,0,0,.93-2.18,3,3,0,0,0-.48-1.65,2.1,2.1,0,0,0-1.83-1.07,2,2,0,0,0-1.39.54,2.83,2.83,0,0,0-.92,2.18A3,3,0,0,0,293.6,30.21Z"/><path class="cls-1" d="M308,32.66h-1.3l0-.68,0-4a2.43,2.43,0,0,0-.31-1.22,1.64,1.64,0,0,0-2.52-.57A2.19,2.19,0,0,0,303,28v4.64H301.7V24.48H303v.65a2.93,2.93,0,0,1,1.81-.65,2.82,2.82,0,0,1,2,.78A3.49,3.49,0,0,1,308,28v4Z"/><path class="cls-1" d="M310.91,25.79a3.33,3.33,0,0,1,5-.37v-5h1.32V32.64h-1.32v-.93a3.39,3.39,0,0,1-2.31.93,3.29,3.29,0,0,1-2.36-1,4,4,0,0,1-1.27-3.09A4.25,4.25,0,0,1,310.91,25.79Zm.83,4.42a2.1,2.1,0,0,0,1.83,1.07,2,2,0,0,0,1.38-.54,2.79,2.79,0,0,0,.93-2.18,3,3,0,0,0-.48-1.65,2.1,2.1,0,0,0-1.83-1.07,2,2,0,0,0-1.39.54,2.83,2.83,0,0,0-.92,2.18A3,3,0,0,0,311.74,30.21Z"/><path class="cls-1" d="M326.68,23.44V22.08H328v1.36h-1.33Zm0,1H328v8.16h-1.32V24.48Z"/><path class="cls-1" d="M331.66,30.24c0,.67.41,1,1.2,1h.66v1.36h-.66a3.46,3.46,0,0,1-.87-.1,2.06,2.06,0,0,1-1.65-2.28V25.84h-1.11V24.48h1.11V22.7l0-.67h1.33l0,.68v1.77h1.85v1.36h-1.85Z"/><path class="cls-1" d="M342,23.44V22.08h1.34v1.36H342Zm0,1h1.32v8.16H342V24.48Z"/><path class="cls-1" d="M349.47,26.84a.71.71,0,0,0-.18-.47,1.59,1.59,0,0,0-1.32-.53,2.6,2.6,0,0,0-.68.1c-.55.18-.82.48-.82.9a.51.51,0,0,0,.09.28,4,4,0,0,0,1.52.69,11,11,0,0,1,1.22.43c1.17.48,1.74,1.17,1.73,2a2,2,0,0,1-.49,1.29A3.16,3.16,0,0,1,348,32.64a3.59,3.59,0,0,1-2.06-.59,2.1,2.1,0,0,1-1-1.77h1.32a.69.69,0,0,0,.2.47,1.92,1.92,0,0,0,1.55.53,2.76,2.76,0,0,0,.75-.1q1-.25,1-.9a.46.46,0,0,0-.08-.26,3.69,3.69,0,0,0-1.5-.68c-.54-.17-.94-.31-1.22-.42-1.16-.49-1.75-1.18-1.76-2.08a2.13,2.13,0,0,1,.49-1.34,2.83,2.83,0,0,1,2.33-1,3.12,3.12,0,0,1,1.83.56,2.15,2.15,0,0,1,1,1.8Z"/><path class="cls-1" d="M360.42,25.79a3.32,3.32,0,0,1,5-.37v-.94h1.32v8.16h-1.32v-.93a3.39,3.39,0,0,1-2.31.93,3.29,3.29,0,0,1-2.36-1,4.09,4.09,0,0,1-1.27-3.09A4.21,4.21,0,0,1,360.42,25.79Zm.82,4.42a2.1,2.1,0,0,0,1.83,1.07,2,2,0,0,0,1.39-.54,2.82,2.82,0,0,0,.92-2.18,3,3,0,0,0-.48-1.65,2.1,2.1,0,0,0-1.83-1.07,2,2,0,0,0-1.38.54,2.81,2.81,0,0,0-.93,2.18A3,3,0,0,0,361.24,30.21Z"/><path class="cls-1" d="M369.34,20.4h1.32V32.64h-1.32V20.4Z"/><path class="cls-1" d="M376.43,26.84a.71.71,0,0,0-.18-.47,1.59,1.59,0,0,0-1.32-.53,2.6,2.6,0,0,0-.68.1c-.55.18-.82.48-.82.9a.46.46,0,0,0,.1.28,3.87,3.87,0,0,0,1.51.69,11,11,0,0,1,1.22.43c1.17.48,1.75,1.17,1.73,2a2,2,0,0,1-.49,1.29,3.16,3.16,0,0,1-2.57,1.07,3.61,3.61,0,0,1-2.06-.59,2.13,2.13,0,0,1-1-1.77h1.32a.69.69,0,0,0,.2.47,1.94,1.94,0,0,0,1.55.53,2.89,2.89,0,0,0,.76-.1q1-.25,1-.9a.48.48,0,0,0-.09-.26,3.69,3.69,0,0,0-1.5-.68c-.54-.17-.94-.31-1.22-.42-1.16-.49-1.75-1.18-1.76-2.08a2.13,2.13,0,0,1,.49-1.34,2.83,2.83,0,0,1,2.33-1,3.12,3.12,0,0,1,1.83.56,2.15,2.15,0,0,1,1,1.8Z"/><path class="cls-1" d="M380.29,25.79a3.32,3.32,0,0,1,5-.32,4,4,0,0,1,1.27,3.09,4.23,4.23,0,0,1-1,2.77,3.33,3.33,0,0,1-5,.32,4.09,4.09,0,0,1-1.27-3.09A4.21,4.21,0,0,1,380.29,25.79Zm.82,4.42a2.1,2.1,0,0,0,1.83,1.07,2,2,0,0,0,1.39-.54,2.82,2.82,0,0,0,.92-2.18,3,3,0,0,0-.48-1.65,2.1,2.1,0,0,0-1.83-1.07,2,2,0,0,0-1.38.54,2.81,2.81,0,0,0-.93,2.18A3,3,0,0,0,381.11,30.21Z"/><path class="cls-1" d="M395.64,21.08V20.4H397v5a3.36,3.36,0,0,1,2.31-.94,3.27,3.27,0,0,1,2.35,1,4,4,0,0,1,1.27,3.09,4.18,4.18,0,0,1-1,2.77,3.3,3.3,0,0,1-2.65,1.31,3.34,3.34,0,0,1-2.31-.93v.93h-1.32V21.08Zm1.78,9.13a2.12,2.12,0,0,0,1.85,1.07,2,2,0,0,0,1.38-.54,2.78,2.78,0,0,0,.92-2.18,3,3,0,0,0-.47-1.65,2.11,2.11,0,0,0-1.83-1.07,2.08,2.08,0,0,0-1.39.54,2.85,2.85,0,0,0-.92,2.2A3,3,0,0,0,397.42,30.21Z"/><path class="cls-1" d="M405.19,25.79a3.32,3.32,0,0,1,5-.37v-.94h1.32v8.16h-1.32v-.93a3.39,3.39,0,0,1-2.31.93,3.29,3.29,0,0,1-2.36-1,4.09,4.09,0,0,1-1.27-3.09A4.21,4.21,0,0,1,405.19,25.79Zm.82,4.42a2.1,2.1,0,0,0,1.83,1.07,2,2,0,0,0,1.39-.54,2.82,2.82,0,0,0,.92-2.18,3,3,0,0,0-.48-1.65,2.1,2.1,0,0,0-1.83-1.07,2,2,0,0,0-1.38.54,2.81,2.81,0,0,0-.93,2.18A3,3,0,0,0,406,30.21Z"/><path class="cls-1" d="M418,26.84a.67.67,0,0,0-.19-.47,1.57,1.57,0,0,0-1.32-.53,2.53,2.53,0,0,0-.67.1c-.55.18-.83.48-.83.9a.53.53,0,0,0,.1.28,4,4,0,0,0,1.52.69,11,11,0,0,1,1.22.43c1.17.48,1.74,1.17,1.73,2a2,2,0,0,1-.49,1.29,3.18,3.18,0,0,1-2.58,1.07,3.64,3.64,0,0,1-2.06-.59,2.12,2.12,0,0,1-1-1.77h1.32a.67.67,0,0,0,.19.47,2,2,0,0,0,1.55.53,2.78,2.78,0,0,0,.76-.1q1-.25,1-.9a.46.46,0,0,0-.08-.26,3.69,3.69,0,0,0-1.5-.68c-.54-.17-.95-.31-1.22-.42-1.17-.49-1.75-1.18-1.76-2.08a2.13,2.13,0,0,1,.49-1.34,2.81,2.81,0,0,1,2.32-1,3.13,3.13,0,0,1,1.84.56,2.17,2.17,0,0,1,1,1.8Z"/><path class="cls-1" d="M427.6,31a3.61,3.61,0,0,1-3.07,1.6,3.37,3.37,0,0,1-2.38-1,4.11,4.11,0,0,1-1.25-3.09,4.25,4.25,0,0,1,.94-2.75,3.34,3.34,0,0,1,2.69-1.33,3.29,3.29,0,0,1,2.36,1,4.09,4.09,0,0,1,1.27,3.09v.68h-5.87a2.73,2.73,0,0,0,.39,1,2.1,2.1,0,0,0,1.85,1.09,2.42,2.42,0,0,0,2-1.05Zm-.76-3.16a1.8,1.8,0,0,0-.45-1.07,2.3,2.3,0,0,0-1.86-1,2,2,0,0,0-1,.26,2.48,2.48,0,0,0-1.27,1.78Z"/><path class="cls-1" d="M430.45,25.79a3.32,3.32,0,0,1,5-.37v-5h1.32V32.64h-1.32v-.93a3.39,3.39,0,0,1-2.31.93,3.27,3.27,0,0,1-2.35-1,4,4,0,0,1-1.27-3.09A4.2,4.2,0,0,1,430.45,25.79Zm.82,4.42a2.1,2.1,0,0,0,1.83,1.07,2,2,0,0,0,1.39-.54,2.82,2.82,0,0,0,.92-2.18,3,3,0,0,0-.48-1.65,2.1,2.1,0,0,0-1.83-1.07,2,2,0,0,0-1.38.54,2.81,2.81,0,0,0-.93,2.18A3,3,0,0,0,431.27,30.21Z"/><path class="cls-1" d="M1.3,46.19a3.33,3.33,0,0,1,5-.32A4.09,4.09,0,0,1,7.59,49a4.19,4.19,0,0,1-1,2.77,3.32,3.32,0,0,1-5,.32A4,4,0,0,1,.33,49,4.18,4.18,0,0,1,1.3,46.19Zm.83,4.42A2.1,2.1,0,0,0,4,51.68a2,2,0,0,0,1.38-.54A2.79,2.79,0,0,0,6.27,49a3,3,0,0,0-.48-1.65A2.1,2.1,0,0,0,4,46.24a2,2,0,0,0-1.39.54A2.82,2.82,0,0,0,1.65,49,3,3,0,0,0,2.13,50.61Z"/><path class="cls-1" d="M15.85,53.06H14.54v-.68l0-4a2.5,2.5,0,0,0-.31-1.23,1.66,1.66,0,0,0-1.5-.93,1.6,1.6,0,0,0-1,.37,2.19,2.19,0,0,0-.8,1.79V53H9.56V44.88h1.32v.65a3,3,0,0,1,1.82-.65,2.84,2.84,0,0,1,2,.78,3.49,3.49,0,0,1,1.17,2.74v4Z"/><path class="cls-1" d="M27,50.64c0,.67.42,1,1.21,1h.66V53H28.2a3.6,3.6,0,0,1-.88-.1,2.05,2.05,0,0,1-1.64-2.28V46.24H24.57V44.88h1.11V42.43H27l0,.68v1.77h1.85v1.36H27Z"/><path class="cls-1" d="M30.26,43.84V42.48H31.6v1.36H30.26Zm0,1h1.32V53H30.26V44.88Z"/><path class="cls-1" d="M39.05,46a2.73,2.73,0,0,1,4.06-.46,3.26,3.26,0,0,1,1.12,2.56v4.92h-1.3l0-.68V48.14a2.33,2.33,0,0,0-.25-1,1.5,1.5,0,0,0-1.37-.87,1.44,1.44,0,0,0-.89.31,1.9,1.9,0,0,0-.73,1.59v4.22l0,.7h-1.3l0-.68V48.14a2.33,2.33,0,0,0-.25-1,1.5,1.5,0,0,0-1.37-.87,1.42,1.42,0,0,0-.89.31,1.9,1.9,0,0,0-.73,1.59V53H33.8V44.88h1.32v.54a2.81,2.81,0,0,1,1.62-.54A2.92,2.92,0,0,1,39,46.07S39,46.06,39.05,46Z"/><path class="cls-1" d="M52.9,51.44A3.59,3.59,0,0,1,49.83,53a3.33,3.33,0,0,1-2.37-1A4.07,4.07,0,0,1,46.21,49a4.29,4.29,0,0,1,.93-2.75,3.35,3.35,0,0,1,2.69-1.33,3.29,3.29,0,0,1,2.36,1A4,4,0,0,1,53.46,49v.68H47.59a3,3,0,0,0,.4,1,2.08,2.08,0,0,0,1.84,1.09,2.4,2.4,0,0,0,2-1Zm-.76-3.16a1.82,1.82,0,0,0-.44-1.07,2.32,2.32,0,0,0-1.87-1,2,2,0,0,0-1,.26,2.51,2.51,0,0,0-1.27,1.78Z"/><path class="cls-1" d="M67.77,46A2.75,2.75,0,0,1,70,44.88a2.68,2.68,0,0,1,1.81.7A3.23,3.23,0,0,1,73,48.14v4.22l0,.7h-1.3l0-.68,0-4.24a2.21,2.21,0,0,0-.25-1,1.49,1.49,0,0,0-2.26-.56,1.89,1.89,0,0,0-.72,1.59v4.22l0,.7H67.11v-.68l0-3.56v-.68a2.21,2.21,0,0,0-.25-1,1.49,1.49,0,0,0-1.37-.87,1.46,1.46,0,0,0-.89.31,1.89,1.89,0,0,0-.72,1.59V53H62.53V44.88h1.32v.54a2.76,2.76,0,0,1,1.61-.54,2.91,2.91,0,0,1,2.28,1.19S67.76,46.06,67.77,46Z"/><path class="cls-1" d="M81.62,51.44A3.58,3.58,0,0,1,78.56,53a3.37,3.37,0,0,1-2.38-1A4.11,4.11,0,0,1,74.93,49a4.25,4.25,0,0,1,.94-2.75,3.35,3.35,0,0,1,5-.34A4.09,4.09,0,0,1,82.19,49v.68H76.32a2.73,2.73,0,0,0,.39,1,2.1,2.1,0,0,0,1.85,1.09,2.42,2.42,0,0,0,2-1Zm-.75-3.16a1.78,1.78,0,0,0-.45-1.07,2.31,2.31,0,0,0-1.86-1,2,2,0,0,0-1,.26,2.5,2.5,0,0,0-1.26,1.78Z"/><path class="cls-1" d="M84.48,46.19a3.32,3.32,0,0,1,5-.37v-.94h1.32V53H89.44v-.93a3.39,3.39,0,0,1-2.31.93,3.31,3.31,0,0,1-2.36-1A4.09,4.09,0,0,1,83.5,49,4.19,4.19,0,0,1,84.48,46.19Zm.82,4.42a2.1,2.1,0,0,0,1.83,1.07,2,2,0,0,0,1.39-.54A2.82,2.82,0,0,0,89.44,49,3,3,0,0,0,89,47.31a2.1,2.1,0,0,0-1.83-1.07,2,2,0,0,0-1.38.54A2.79,2.79,0,0,0,84.82,49,3,3,0,0,0,85.3,50.61Z"/><path class="cls-1" d="M97.31,47.24a.67.67,0,0,0-.19-.47,1.56,1.56,0,0,0-1.31-.53,2.24,2.24,0,0,0-.68.1c-.55.18-.82.48-.82.9a.48.48,0,0,0,.09.27,3.76,3.76,0,0,0,1.52.7,11,11,0,0,1,1.22.43c1.17.48,1.74,1.16,1.73,2A2,2,0,0,1,98.38,52,3.16,3.16,0,0,1,95.81,53a3.59,3.59,0,0,1-2.06-.59,2.1,2.1,0,0,1-1-1.77h1.32a.64.64,0,0,0,.2.47,2,2,0,0,0,1.55.53,2.76,2.76,0,0,0,.75-.1q1-.26,1-.9a.46.46,0,0,0-.08-.26,3.69,3.69,0,0,0-1.5-.68c-.54-.17-.94-.31-1.22-.42C93.59,48.83,93,48.14,93,47.24a2.13,2.13,0,0,1,.49-1.34,2.83,2.83,0,0,1,2.33-1,3.12,3.12,0,0,1,1.83.56,2.15,2.15,0,0,1,1,1.8Z"/><path class="cls-1" d="M100.54,44.9h1.34l0,.68,0,4.35a1.72,1.72,0,0,0,.31,1,1.86,1.86,0,0,0,1.57.78,2,2,0,0,0,1-.29,1.64,1.64,0,0,0,.84-1.46V45.56l0-.66h1.34l0,.68,0,4.35a3,3,0,0,1-.69,1.94A3,3,0,0,1,103.72,53a3.13,3.13,0,0,1-2.06-.73,3,3,0,0,1-1.14-2.38V45.56Z"/><path class="cls-1" d="M112.64,44.88h.66v1.36h-.66a2,2,0,0,0-1,.26,2.5,2.5,0,0,0-1.12,2.36V53h-1.32V44.88h1.32v.71A3.38,3.38,0,0,1,112.64,44.88Z"/><path class="cls-1" d="M120.82,51.44a3.59,3.59,0,0,1-3.07,1.6,3.33,3.33,0,0,1-2.37-1A4.07,4.07,0,0,1,114.13,49a4.25,4.25,0,0,1,.94-2.75,3.34,3.34,0,0,1,5-.34A4,4,0,0,1,121.38,49v.68h-5.87a3,3,0,0,0,.4,1,2.08,2.08,0,0,0,1.84,1.09,2.43,2.43,0,0,0,2-1Zm-.76-3.16a1.82,1.82,0,0,0-.44-1.07,2.32,2.32,0,0,0-1.87-1,2,2,0,0,0-1,.26,2.51,2.51,0,0,0-1.27,1.78Z"/><path class="cls-1" d="M128.6,46a2.75,2.75,0,0,1,2.25-1.16,2.68,2.68,0,0,1,1.81.7,3.23,3.23,0,0,1,1.12,2.56v4.22l0,.7h-1.3l0-.68,0-4.24a2.21,2.21,0,0,0-.25-1,1.48,1.48,0,0,0-1.36-.87,1.42,1.42,0,0,0-.89.31,1.87,1.87,0,0,0-.73,1.59v4.22l0,.7h-1.31v-.68l0-3.56v-.68a2.21,2.21,0,0,0-.25-1,1.48,1.48,0,0,0-1.37-.87,1.46,1.46,0,0,0-.89.31,1.89,1.89,0,0,0-.72,1.59V53h-1.32V44.88h1.32v.54a2.76,2.76,0,0,1,1.61-.54,2.89,2.89,0,0,1,2.28,1.19S128.59,46.06,128.6,46Z"/><path class="cls-1" d="M142.46,51.44a3.61,3.61,0,0,1-3.07,1.6,3.37,3.37,0,0,1-2.38-1A4.11,4.11,0,0,1,135.76,49a4.25,4.25,0,0,1,.94-2.75,3.35,3.35,0,0,1,5.05-.34A4.09,4.09,0,0,1,143,49v.68h-5.87a2.73,2.73,0,0,0,.39,1,2.1,2.1,0,0,0,1.85,1.09,2.42,2.42,0,0,0,2-1Zm-.76-3.16a1.78,1.78,0,0,0-.45-1.07,2.31,2.31,0,0,0-1.86-1,2,2,0,0,0-1,.26,2.48,2.48,0,0,0-1.27,1.78Z"/><path class="cls-1" d="M151.28,53.06H150v-.68l0-4a2.5,2.5,0,0,0-.31-1.23,1.66,1.66,0,0,0-1.5-.93,1.6,1.6,0,0,0-1,.37,2.19,2.19,0,0,0-.8,1.79V53H145V44.88h1.31v.65a3,3,0,0,1,1.82-.65,2.84,2.84,0,0,1,2,.78,3.49,3.49,0,0,1,1.17,2.74v4Z"/><path class="cls-1" d="M155.33,50.64c0,.67.42,1,1.21,1h.66V53h-.66a3.6,3.6,0,0,1-.88-.1A2.06,2.06,0,0,1,154,50.66V46.24h-1.1V44.88H154V43.09l0-.66h1.34l0,.68v1.77h1.85v1.36h-1.85Z"/><path class="cls-1" d="M165.94,41.48V40.8h1.32v5a3.35,3.35,0,0,1,2.3-.94,3.28,3.28,0,0,1,2.36,1A4,4,0,0,1,173.19,49a4.18,4.18,0,0,1-1,2.77,3.33,3.33,0,0,1-5,.38V53h-1.32V41.48Zm1.78,9.13a2.1,2.1,0,0,0,1.84,1.07,2,2,0,0,0,1.39-.54,2.78,2.78,0,0,0,.92-2.18,3,3,0,0,0-.48-1.65,2.1,2.1,0,0,0-1.83-1.07,2.08,2.08,0,0,0-1.38.54,2.81,2.81,0,0,0-.92,2.2A3,3,0,0,0,167.72,50.61Z"/><path class="cls-1" d="M179.33,44.88h1.41l-.34.92L178,52.58a10,10,0,0,1-1.39,3.2,2.11,2.11,0,0,1-1.73.76h-.66V55.18h.66a1,1,0,0,0,.84-.41,7.67,7.67,0,0,0,1-2.39l-2.41-6.58-.35-.92h1.42l.15.44,1.88,5.1,1.85-5.1Z"/><path class="cls-1" d="M190.84,49.64V53h-1.32V40.8h1.32v7.48h.23l3.26-3.21.2-.19h1.91l-1.18,1.17-3,2.91,3,2.91L196.44,53h-1.91l-.2-.19-3.26-3.21Z"/><path class="cls-1" d="M197.19,43.84V42.48h1.33v1.36h-1.33Zm0,1h1.31V53h-1.31V44.88Z"/><path class="cls-1" d="M206.54,51.48A3.39,3.39,0,0,1,203.62,53a3.21,3.21,0,0,1-2.3-1A4.14,4.14,0,0,1,200.07,49a4.26,4.26,0,0,1,.94-2.77,3.23,3.23,0,0,1,2.61-1.31,3.39,3.39,0,0,1,2.93,1.46l-1.09.78a2.1,2.1,0,0,0-1.84-.88,1.91,1.91,0,0,0-1.34.54,2.8,2.8,0,0,0-.89,2.18,3.12,3.12,0,0,0,.43,1.62,2,2,0,0,0,1.8,1.1,2.31,2.31,0,0,0,1.86-1Z"/><path class="cls-1" d="M210,49.64V53h-1.31V40.8H210v7.48h.24l3.26-3.21.2-.19h1.91l-1.19,1.17-3,2.91,3,2.91L215.57,53h-1.91l-.2-.19-3.26-3.21Z"/><path class="cls-1" d="M216.31,43.84V42.48h1.34v1.36h-1.34Zm0,1h1.32V53h-1.32V44.88Z"/><path class="cls-1" d="M226.14,53.06h-1.3l0-.68,0-4a2.5,2.5,0,0,0-.31-1.23,1.66,1.66,0,0,0-1.5-.93,1.64,1.64,0,0,0-1,.37,2.18,2.18,0,0,0-.79,1.79V53h-1.32V44.88h1.32v.65a3,3,0,0,1,1.81-.65,2.82,2.82,0,0,1,2,.78,3.49,3.49,0,0,1,1.17,2.74v4Z"/><path class="cls-1" d="M229.08,46.19a3.32,3.32,0,0,1,5-.37v-.26l0-.66h1.33v.68l0,6.78a4.06,4.06,0,0,1-.17,1.12,4.79,4.79,0,0,1-.48,1.12,5.29,5.29,0,0,1-.75,1,3.44,3.44,0,0,1-1,.7,2.91,2.91,0,0,1-1.2.26h-.66V55.18h.66a2,2,0,0,0,1.56-.83,3,3,0,0,0,.73-2v-.25a3.39,3.39,0,0,1-2.31.93,3.29,3.29,0,0,1-2.36-1A4.09,4.09,0,0,1,228.1,49,4.19,4.19,0,0,1,229.08,46.19Zm.82,4.42a2.1,2.1,0,0,0,1.83,1.07,2,2,0,0,0,1.39-.54A2.82,2.82,0,0,0,234,49a3,3,0,0,0-.48-1.65,2.1,2.1,0,0,0-1.83-1.07,2,2,0,0,0-1.38.54,2.79,2.79,0,0,0-.93,2.18A3,3,0,0,0,229.9,50.61Z"/><path class="cls-1" d="M245.4,46.19a3.33,3.33,0,0,1,5-.37v-.94h1.31V53h-1.31v-.93a3.43,3.43,0,0,1-2.31.93,3.29,3.29,0,0,1-2.36-1A4,4,0,0,1,244.43,49,4.18,4.18,0,0,1,245.4,46.19Zm.83,4.42a2.1,2.1,0,0,0,1.83,1.07,2,2,0,0,0,1.38-.54,2.79,2.79,0,0,0,.93-2.18,3,3,0,0,0-.48-1.65,2.12,2.12,0,0,0-1.83-1.07,2,2,0,0,0-1.39.54,2.78,2.78,0,0,0-.92,2.18A3,3,0,0,0,246.23,50.61Z"/><path class="cls-1" d="M260.61,53.06H259.3v-.68l0-4a2.61,2.61,0,0,0-.31-1.23,1.69,1.69,0,0,0-1.5-.93,1.65,1.65,0,0,0-1,.37,2.21,2.21,0,0,0-.79,1.79V53h-1.32V44.88h1.32v.65a3,3,0,0,1,1.82-.65,2.84,2.84,0,0,1,2,.78,3.49,3.49,0,0,1,1.17,2.74v4Z"/><path class="cls-1" d="M263.54,46.19a3.32,3.32,0,0,1,5-.37v-5h1.32V53H268.5v-.93a3.39,3.39,0,0,1-2.3.93,3.28,3.28,0,0,1-2.36-1A4,4,0,0,1,262.57,49,4.18,4.18,0,0,1,263.54,46.19Zm.83,4.42a2.1,2.1,0,0,0,1.83,1.07,2,2,0,0,0,1.38-.54A2.78,2.78,0,0,0,268.5,49a3.07,3.07,0,0,0-.47-1.65,2.12,2.12,0,0,0-1.83-1.07,2,2,0,0,0-1.39.54,2.78,2.78,0,0,0-.92,2.18A3,3,0,0,0,264.37,50.61Z"/><path class="cls-1" d="M281,50.64c0,.67.41,1,1.2,1h.66V53h-.66a3.46,3.46,0,0,1-.87-.1,2.06,2.06,0,0,1-1.65-2.28V46.24h-1.11V44.88h1.11V42.43H281l0,.68v1.77h1.85v1.36H281Z"/><path class="cls-1" d="M284.25,43.84V42.48h1.34v1.36h-1.34Zm0,1h1.32V53h-1.32V44.88Z"/><path class="cls-1" d="M287.8,40.8h1.32V53H287.8V40.8Z"/><path class="cls-1" d="M292.41,50.64c0,.67.42,1,1.21,1h.66V53h-.66a3.6,3.6,0,0,1-.88-.1,2.06,2.06,0,0,1-1.65-2.28V46.24H290V44.88h1.1V43.09l0-.66h1.34l0,.68v1.77h1.85v1.36h-1.85Z"/><path class="cls-1" d="M295.68,43.84V42.48H297v1.36h-1.33Zm0,1H297V53h-1.32V44.88Z"/><path class="cls-1" d="M305.51,53.06H304.2v-.68l0-4a2.5,2.5,0,0,0-.31-1.23,1.69,1.69,0,0,0-1.5-.93,1.65,1.65,0,0,0-1,.37,2.21,2.21,0,0,0-.79,1.79V53h-1.32V44.88h1.32v.65a3,3,0,0,1,1.82-.65,2.84,2.84,0,0,1,2,.78,3.49,3.49,0,0,1,1.17,2.74v4Z"/><path class="cls-1" d="M308.44,46.19a3.32,3.32,0,0,1,5-.37v-.26l0-.66h1.34l0,.68,0,6.78a4,4,0,0,1-.16,1.12,4.44,4.44,0,0,1-.49,1.12,4.55,4.55,0,0,1-.75,1,3.4,3.4,0,0,1-1,.7,3,3,0,0,1-1.21.26h-.66V55.18h.66a2,2,0,0,0,1.57-.83,3.07,3.07,0,0,0,.72-2v-.25a3.39,3.39,0,0,1-2.3.93,3.29,3.29,0,0,1-2.36-1A4,4,0,0,1,307.47,49,4.18,4.18,0,0,1,308.44,46.19Zm.83,4.42a2.1,2.1,0,0,0,1.83,1.07,2,2,0,0,0,1.38-.54A2.78,2.78,0,0,0,313.4,49a3,3,0,0,0-.47-1.65,2.12,2.12,0,0,0-1.83-1.07,2,2,0,0,0-1.39.54,2.82,2.82,0,0,0-.92,2.18A3,3,0,0,0,309.27,50.61Z"/><path class="cls-1" d="M323.58,44.88H325l.15.49,1.33,4.93,2-5,.16-.42h.9l.16.42,2,5L333,45.37l.15-.49h1.37l-.23.87-1.85,6.8-.14.49h-.94l-.17-.42-2.16-5.31-2.16,5.31-.16.42h-.95l-.14-.49-1.85-6.8Z"/><path class="cls-1" d="M336.08,43.84V42.48h1.33v1.36h-1.33Zm0,1h1.32V53h-1.32V44.88Z"/><path class="cls-1" d="M341.06,50.64c0,.67.41,1,1.2,1h.66V53h-.66a3.46,3.46,0,0,1-.87-.1,2.06,2.06,0,0,1-1.65-2.28V46.24h-1.11V44.88h1.11V43.09l0-.66h1.33l0,.68v1.77h1.85v1.36h-1.85Z"/><path class="cls-1" d="M347.7,44.88a2.86,2.86,0,0,1,2,.78,3.49,3.49,0,0,1,1.17,2.74v4.66h-1.3l0-.68v-4a2.51,2.51,0,0,0-.32-1.23,1.66,1.66,0,0,0-1.5-.93,1.64,1.64,0,0,0-1,.37,2.18,2.18,0,0,0-.79,1.79V53h-1.32V41.89h1.32v3.64A3,3,0,0,1,347.7,44.88Z"/><path class="cls-1" d="M360.88,46.19a3.32,3.32,0,0,1,5-.37v-.94h1.32V53h-1.32v-.93a3.39,3.39,0,0,1-2.31.93,3.27,3.27,0,0,1-2.35-1A4,4,0,0,1,359.91,49,4.18,4.18,0,0,1,360.88,46.19Zm.82,4.42a2.12,2.12,0,0,0,1.83,1.07,2,2,0,0,0,1.39-.54,2.82,2.82,0,0,0,.92-2.18,3,3,0,0,0-.48-1.65,2.1,2.1,0,0,0-1.83-1.07,2,2,0,0,0-1.38.54,2.79,2.79,0,0,0-.93,2.18A3,3,0,0,0,361.7,50.61Z"/><path class="cls-1" d="M382.69,51.48A3.37,3.37,0,0,1,379.78,53a3.21,3.21,0,0,1-2.3-1A4.14,4.14,0,0,1,376.23,49a4.26,4.26,0,0,1,.94-2.77,3.23,3.23,0,0,1,2.61-1.31,3.39,3.39,0,0,1,2.93,1.46l-1.09.78a2.1,2.1,0,0,0-1.84-.88,1.89,1.89,0,0,0-1.34.54,2.8,2.8,0,0,0-.89,2.18,3.12,3.12,0,0,0,.43,1.62,2,2,0,0,0,1.8,1.1,2.31,2.31,0,0,0,1.86-1Z"/><path class="cls-1" d="M389,44.88h1.42l-.35.92-2.44,6.78a10,10,0,0,1-1.38,3.2,2.12,2.12,0,0,1-1.73.76h-.66V55.18h.66a1,1,0,0,0,.84-.41,8,8,0,0,0,.95-2.39l-2.4-6.58-.35-.92h1.42l.15.44,1.88,5.1,1.84-5.1Z"/><path class="cls-1" d="M397.87,51.48A3.39,3.39,0,0,1,395,53a3.23,3.23,0,0,1-2.3-1A4.14,4.14,0,0,1,391.4,49a4.26,4.26,0,0,1,.94-2.77A3.23,3.23,0,0,1,395,44.88a3.39,3.39,0,0,1,2.93,1.46l-1.09.78a2.1,2.1,0,0,0-1.84-.88,1.91,1.91,0,0,0-1.34.54,2.8,2.8,0,0,0-.89,2.18,3.12,3.12,0,0,0,.43,1.62,2,2,0,0,0,1.8,1.1,2.29,2.29,0,0,0,1.86-1Z"/><path class="cls-1" d="M400,40.8h1.31V53H400V40.8Z"/><path class="cls-1" d="M409.19,51.44a3.59,3.59,0,0,1-3.06,1.6,3.37,3.37,0,0,1-2.38-1A4.11,4.11,0,0,1,402.5,49a4.25,4.25,0,0,1,.94-2.75,3.33,3.33,0,0,1,2.69-1.33,3.27,3.27,0,0,1,2.35,1A4,4,0,0,1,409.75,49v.68h-5.87a3,3,0,0,0,.4,1,2.1,2.1,0,0,0,1.85,1.09,2.42,2.42,0,0,0,2-1Zm-.75-3.16a1.78,1.78,0,0,0-.45-1.07,2.31,2.31,0,0,0-1.86-1,2,2,0,0,0-1,.26,2.51,2.51,0,0,0-1.27,1.78Z"/><path class="cls-1" d="M412.06,51.7h1.32v.68h0v.68h-1.32v-.68h0Z"/></g></g></svg>