<svg xmlns="http://www.w3.org/2000/svg" viewBox="0 0 193.92 28.35"><defs><style>.cls-1{fill:#231815;}.cls-2{fill:#fff;}</style></defs><title>Asset 1</title><g id="Layer_2" data-name="Layer 2"><g id="Layer_1-2" data-name="Layer 1"><rect class="cls-1" y="0.48" width="3.79" height="11"/><path class="cls-2" d="M1.42,1.9h1v8.16h-1V1.9Z"/><path class="cls-1" d="M2.88,11.48V6.68H2.09V2.88h1A3.1,3.1,0,0,1,6.15.23H8V6.68H6.67v4.8Z"/><path class="cls-2" d="M6.15,4.3h.47v1H5.26v4.8h-1V5.26H3.51v-1h.8a5.86,5.86,0,0,1,.14-1c.27-1.1.83-1.64,1.7-1.64h.47v1H6.15c-.5,0-.79.57-.87,1.69Z"/><polygon class="cls-1" points="17.08 11.47 16.6 10.29 16.34 9.68 16.08 10.31 15.61 11.47 12.92 11.47 12.51 10.13 10.98 4.67 10.49 2.88 14.39 2.88 14.68 3.83 15.06 2.88 17.63 2.88 18.01 3.83 18.3 2.88 22.2 2.88 21.54 5.29 20.19 10.09 19.76 11.47 17.08 11.47"/><path class="cls-2" d="M12.35,4.3h1l.11.35,1,3.48L15.9,4.6,16,4.3h.65l.12.3,1.48,3.53,1-3.48.1-.35h1l-.17.61-1.34,4.8-.11.35H18l-.12-.3L16.34,6,14.77,9.76l-.12.3H14l-.11-.35-1.34-4.8Z"/><path class="cls-1" d="M23.78,11.48A3.92,3.92,0,0,1,21.1,10.4a4.28,4.28,0,0,1-1.37-3.22,4.36,4.36,0,0,1,1-2.85A3.9,3.9,0,0,1,26.47,4a4.27,4.27,0,0,1,1.37,3.22V8.53l.16.11-.16.21v.23h-.17l-.52.7A4.05,4.05,0,0,1,23.78,11.48Z"/><path class="cls-2" d="M26,8.93a2.67,2.67,0,0,1-2.24,1.13,2.45,2.45,0,0,1-1.72-.7,2.85,2.85,0,0,1-.92-2.18,3,3,0,0,1,.69-1.95A2.5,2.5,0,0,1,25.5,5a2.83,2.83,0,0,1,.92,2.19v.48H22.15a2.1,2.1,0,0,0,.29.67,1.55,1.55,0,0,0,1.34.77,1.78,1.78,0,0,0,1.47-.75ZM25.46,6.7a1.23,1.23,0,0,0-.32-.76,1.73,1.73,0,0,0-1.36-.68,1.46,1.46,0,0,0-.7.18,1.81,1.81,0,0,0-.93,1.26Z"/><path class="cls-1" d="M35.12,11.48a3.79,3.79,0,0,1-2.63-1.07,4.3,4.3,0,0,1-1.36-3.23,4.37,4.37,0,0,1,1-2.86,3.78,3.78,0,0,1,3-1.44A3.9,3.9,0,0,1,38.41,4.5l.84,1.17-2.1,1.47,2.07,1.48-.81,1.15a3.93,3.93,0,0,1-3.27,1.71h0Zm0-4.81a.58.58,0,0,0-.19.51.67.67,0,0,0,.11.4.68.68,0,0,0,.08.11c.07,0,.14,0,.26-.17l.27-.34-.34-.49Z"/><path class="cls-2" d="M37.25,9a2.49,2.49,0,0,1-2.13,1.11,2.34,2.34,0,0,1-1.66-.69,2.85,2.85,0,0,1-.92-2.19,3,3,0,0,1,.69-2,2.38,2.38,0,0,1,1.89-.92,2.5,2.5,0,0,1,2.14,1l-.79.55a1.54,1.54,0,0,0-1.35-.62,1.43,1.43,0,0,0-1,.38,2,2,0,0,0-.65,1.54,2.18,2.18,0,0,0,.32,1.14,1.46,1.46,0,0,0,1.3.78,1.69,1.69,0,0,0,1.36-.7Z"/><path class="cls-1" d="M41.21,11.48v0H41a3.84,3.84,0,0,1-2.7-1.07,4.25,4.25,0,0,1-1.37-3.22,4.28,4.28,0,0,1,1-2.88,3.82,3.82,0,0,1,3-1.42H45v8.6Z"/><path class="cls-2" d="M39,5.22A2.48,2.48,0,0,1,42.62,5V4.3h1v5.76h-1V9.4a2.5,2.5,0,0,1-1.68.66,2.41,2.41,0,0,1-1.71-.7,2.82,2.82,0,0,1-.93-2.18A2.94,2.94,0,0,1,39,5.22Zm.6,3.12a1.53,1.53,0,0,0,1.33.76,1.47,1.47,0,0,0,1-.39,1.92,1.92,0,0,0,.67-1.53A2.1,2.1,0,0,0,42.28,6a1.55,1.55,0,0,0-1.34-.75,1.5,1.5,0,0,0-1,.38,2,2,0,0,0-.68,1.54A2.08,2.08,0,0,0,39.61,8.34Z"/><path class="cls-1" d="M47.75,11.49H44.09V2.88h3.79a3.55,3.55,0,0,1,2.27.91,3.8,3.8,0,0,1,1.33,3v2.8l.05,1.91Z"/><path class="cls-2" d="M50.08,10.07h-.95V9.59l0-2.81a1.69,1.69,0,0,0-.22-.86,1.23,1.23,0,0,0-1.1-.66,1.19,1.19,0,0,0-.74.26,1.55,1.55,0,0,0-.58,1.26v3.28h-1V4.3h1v.45a2.28,2.28,0,0,1,1.32-.45,2.07,2.07,0,0,1,1.43.55,2.41,2.41,0,0,1,.85,1.93v2.8Z"/><rect class="cls-1" x="50.33" y="0.48" width="3.79" height="5.58"/><path class="cls-2" d="M51.74,1.9h1V4.65h-1V1.9Z"/><path class="cls-1" d="M55.82,11.48a3.83,3.83,0,0,1-1-.12,2.86,2.86,0,0,1-2.29-3V6.68h-.8V2.88h.8l0-1.73h3.8l0,1.73h1.34v3.8H56.37v1h1.35v3.8Z"/><path class="cls-2" d="M55,8.37c0,.47.3.71.87.73h.48v1h-.48a3.2,3.2,0,0,1-.63-.07A1.47,1.47,0,0,1,54,8.38h0V5.26h-.81v-1H54V2.57h1V4.3H56.3v1H55Z"/><path class="cls-1" d="M62.94,14V11a4,4,0,0,1-.8-.58,4.25,4.25,0,0,1-1.37-3.22,4.28,4.28,0,0,1,1-2.88,3.82,3.82,0,0,1,3-1.42h4.12l0,1.93V9.58a4.56,4.56,0,0,1-.17,1.19,5,5,0,0,1-.51,1.13,4.8,4.8,0,0,1-.76,1,3.77,3.77,0,0,1-1.15.78,3.63,3.63,0,0,1-1.45.31Z"/><path class="cls-2" d="M62.89,5.22A2.48,2.48,0,0,1,66.5,5V4.78l0-.47h1v.48l0,4.79a2.81,2.81,0,0,1-.12.79,3.08,3.08,0,0,1-.35.79,3.41,3.41,0,0,1-.55.69,2.18,2.18,0,0,1-.73.49,2,2,0,0,1-.87.19h-.48v-1h.48A1.5,1.5,0,0,0,66,11a2.1,2.1,0,0,0,.52-1.4V9.4a2.5,2.5,0,0,1-1.68.66,2.41,2.41,0,0,1-1.71-.7,2.82,2.82,0,0,1-.93-2.18A2.94,2.94,0,0,1,62.89,5.22Zm.6,3.12a1.53,1.53,0,0,0,1.33.76,1.47,1.47,0,0,0,1-.39,1.92,1.92,0,0,0,.67-1.53A2.1,2.1,0,0,0,66.16,6a1.55,1.55,0,0,0-1.34-.75,1.5,1.5,0,0,0-1,.38,2,2,0,0,0-.68,1.54A2.08,2.08,0,0,0,63.49,8.34Z"/><path class="cls-1" d="M71.54,11.48a3.89,3.89,0,0,1-2.68-1.08,4.25,4.25,0,0,1-1.37-3.22A4.28,4.28,0,0,1,68.54,4.3a3.82,3.82,0,0,1,3-1.42A3.88,3.88,0,0,1,74.23,4,4.27,4.27,0,0,1,75.6,7.18a4.32,4.32,0,0,1-1,2.88A3.86,3.86,0,0,1,71.54,11.48Z"/><path class="cls-2" d="M69.61,5.22A2.49,2.49,0,0,1,73.26,5a2.83,2.83,0,0,1,.92,2.19,2.9,2.9,0,0,1-.7,2,2.44,2.44,0,0,1-1.94.93,2.41,2.41,0,0,1-1.71-.7,2.82,2.82,0,0,1-.93-2.18A2.94,2.94,0,0,1,69.61,5.22Zm.6,3.12a1.53,1.53,0,0,0,1.33.76,1.47,1.47,0,0,0,1-.39,1.92,1.92,0,0,0,.67-1.53A2.1,2.1,0,0,0,72.88,6a1.55,1.55,0,0,0-1.34-.75,1.5,1.5,0,0,0-1,.38,2,2,0,0,0-.68,1.54A2.08,2.08,0,0,0,70.21,8.34Z"/><path class="cls-1" d="M83.21,11.48v0H83a3.84,3.84,0,0,1-2.7-1.07,4.27,4.27,0,0,1-1.37-3.22,4.32,4.32,0,0,1,1-2.88,3.85,3.85,0,0,1,3-1.42H87v8.6Z"/><path class="cls-2" d="M81,5.22A2.48,2.48,0,0,1,84.62,5V4.3h1v5.76h-1V9.4a2.5,2.5,0,0,1-1.68.66,2.41,2.41,0,0,1-1.71-.7,2.82,2.82,0,0,1-.93-2.18A2.94,2.94,0,0,1,81,5.22Zm.6,3.12a1.53,1.53,0,0,0,1.33.76,1.47,1.47,0,0,0,1-.39,1.92,1.92,0,0,0,.67-1.53A2.1,2.1,0,0,0,84.28,6a1.55,1.55,0,0,0-1.34-.75,1.5,1.5,0,0,0-1,.38,2,2,0,0,0-.68,1.54A2.08,2.08,0,0,0,81.61,8.34Z"/><path class="cls-1" d="M89.42,11.48a3.83,3.83,0,0,1-1-.12,2.86,2.86,0,0,1-2.29-3V6.68h-.8V2.88h.8l0-1.73H90l0,1.73h1.34v3.8H90v1h1.35v3.8Z"/><path class="cls-2" d="M88.55,8.37c0,.47.3.71.87.73h.48v1h-.48a3.2,3.2,0,0,1-.63-.07,1.47,1.47,0,0,1-1.2-1.61h0V5.26h-.81v-1h.81V2.57h1V4.3H89.9v1H88.56Z"/><path class="cls-1" d="M98.18,11.48a3.77,3.77,0,0,1-1-.12,2.86,2.86,0,0,1-2.29-3V6.68h-.8V2.88h.8l0-1.73h3.8l0,1.73h1.34v3.8H98.73v1h1.35v3.8Z"/><path class="cls-2" d="M97.31,8.37c0,.47.3.71.87.73h.48v1h-.48a3.2,3.2,0,0,1-.63-.07,1.47,1.47,0,0,1-1.2-1.61h0V5.26h-.81v-1h.81V2.57h1V4.3h1.34v1H97.32Z"/><path class="cls-1" d="M102.1,11.49H98.45V.77h3.79V2.88a3.55,3.55,0,0,1,2.27.91,3.8,3.8,0,0,1,1.33,3v2.8l0,1.91Z"/><path class="cls-2" d="M102.14,4.3a2.09,2.09,0,0,1,1.43.55,2.41,2.41,0,0,1,.85,1.93v2.8l0,.49h-1V9.59l0-2.81a1.61,1.61,0,0,0-.23-.86,1.21,1.21,0,0,0-1.09-.66,1.19,1.19,0,0,0-.74.26,1.55,1.55,0,0,0-.58,1.26v3.28h-1V2.19h1V4.75A2.26,2.26,0,0,1,102.14,4.3Z"/><path class="cls-1" d="M108.5,11.48a4,4,0,0,1-2.69-1.08,4.31,4.31,0,0,1-1.36-3.22,4.4,4.4,0,0,1,1-2.85A3.91,3.91,0,0,1,111.19,4a4.27,4.27,0,0,1,1.37,3.22V8.53l.15.11-.15.21v.23h-.17l-.52.7A4.07,4.07,0,0,1,108.5,11.48Z"/><path class="cls-2" d="M110.73,8.93a2.64,2.64,0,0,1-2.23,1.13,2.47,2.47,0,0,1-1.73-.7,2.87,2.87,0,0,1-.91-2.18,3,3,0,0,1,.69-1.95A2.5,2.5,0,0,1,110.22,5a2.83,2.83,0,0,1,.92,2.19v.48h-4.27a2.1,2.1,0,0,0,.29.67,1.53,1.53,0,0,0,1.34.77A1.78,1.78,0,0,0,110,8.35Zm-.55-2.23a1.29,1.29,0,0,0-.32-.76,1.73,1.73,0,0,0-1.36-.68,1.46,1.46,0,0,0-.7.18,1.78,1.78,0,0,0-.93,1.26Z"/><path class="cls-1" d="M119.49,11.48a4.12,4.12,0,0,1-2.28-.66,2.9,2.9,0,0,1-1.36-2.43V7h.38a2.48,2.48,0,0,1-.2-1,3,3,0,0,1,.67-1.86,3.49,3.49,0,0,1,2.79-1.24,3.68,3.68,0,0,1,2.14.65A2.92,2.92,0,0,1,123,6V7.38h0a2.49,2.49,0,0,1,.19,1,2.81,2.81,0,0,1-.68,1.8A3.76,3.76,0,0,1,119.49,11.48Z"/><path class="cls-2" d="M120.59,6a.51.51,0,0,0-.14-.34,1.13,1.13,0,0,0-1-.37,1.66,1.66,0,0,0-.49.07c-.4.13-.6.34-.6.64a.34.34,0,0,0,.08.19,2.82,2.82,0,0,0,1.1.49c.4.12.69.22.89.3q1.26.51,1.26,1.44a1.4,1.4,0,0,1-.36.91,2.32,2.32,0,0,1-1.88.76,2.69,2.69,0,0,1-1.5-.42,1.5,1.5,0,0,1-.73-1.25h1a.5.5,0,0,0,.15.34,1.48,1.48,0,0,0,1.12.37,2.68,2.68,0,0,0,.56-.07c.48-.12.72-.34.72-.64a.32.32,0,0,0-.06-.18,2.65,2.65,0,0,0-1.1-.48c-.39-.12-.68-.22-.88-.3-.85-.34-1.28-.83-1.29-1.46a1.47,1.47,0,0,1,.36-1,2.09,2.09,0,0,1,1.69-.72,2.34,2.34,0,0,1,1.34.39A1.51,1.51,0,0,1,121.55,6Z"/><path class="cls-1" d="M121.75,14V2.88h4.07A3.84,3.84,0,0,1,128.49,4a4.24,4.24,0,0,1,1.37,3.22,4.31,4.31,0,0,1-1,2.87,3.86,3.86,0,0,1-3,1.43h-.27V14Z"/><path class="cls-2" d="M123.17,4.78V4.3h1V5a2.47,2.47,0,0,1,3.39,0,2.84,2.84,0,0,1,.93,2.19,2.91,2.91,0,0,1-.71,2,2.47,2.47,0,0,1-3.61.27v3.13h-1V7.18h0Zm1.31,3.56a1.51,1.51,0,0,0,1.33.76,1.47,1.47,0,0,0,1-.39,1.93,1.93,0,0,0,.68-1.53A2.11,2.11,0,0,0,127.14,6a1.55,1.55,0,0,0-2.33-.38,2,2,0,0,0-.68,1.55A2,2,0,0,0,124.48,8.34Z"/><path class="cls-1" d="M132.05,11.48a3.93,3.93,0,0,1-2.69-1.08A4.27,4.27,0,0,1,128,7.18a4.36,4.36,0,0,1,1-2.85,3.88,3.88,0,0,1,3.05-1.45A3.84,3.84,0,0,1,134.73,4a4.24,4.24,0,0,1,1.37,3.22V8.53l.16.11-.16.21v.23h-.16l-.52.7A4.08,4.08,0,0,1,132.05,11.48Z"/><path class="cls-2" d="M134.28,8.93a2.66,2.66,0,0,1-2.23,1.13,2.45,2.45,0,0,1-1.73-.7,2.84,2.84,0,0,1-.91-2.18,3,3,0,0,1,.68-1.95,2.48,2.48,0,0,1,2-.93,2.44,2.44,0,0,1,1.71.69,2.84,2.84,0,0,1,.93,2.19v.48h-4.28a2.35,2.35,0,0,0,.29.67,1.56,1.56,0,0,0,1.35.77,1.76,1.76,0,0,0,1.46-.75Zm-.55-2.23a1.25,1.25,0,0,0-.33-.76,1.71,1.71,0,0,0-1.35-.68,1.47,1.47,0,0,0-.71.18,1.81,1.81,0,0,0-.93,1.26Z"/><path class="cls-1" d="M138.29,11.48a3.93,3.93,0,0,1-2.69-1.08,4.27,4.27,0,0,1-1.37-3.22,4.36,4.36,0,0,1,1-2.85,3.9,3.9,0,0,1,3-1.45A3.84,3.84,0,0,1,141,4a4.24,4.24,0,0,1,1.37,3.22V8.53l.16.11-.16.21v.23h-.16l-.52.7A4.08,4.08,0,0,1,138.29,11.48Z"/><path class="cls-2" d="M140.52,8.93a2.66,2.66,0,0,1-2.23,1.13,2.45,2.45,0,0,1-1.73-.7,2.84,2.84,0,0,1-.91-2.18,3,3,0,0,1,.68-1.95,2.48,2.48,0,0,1,2-.93A2.42,2.42,0,0,1,140,5a2.84,2.84,0,0,1,.93,2.19v.48h-4.28a2.35,2.35,0,0,0,.29.67,1.56,1.56,0,0,0,1.35.77,1.76,1.76,0,0,0,1.46-.75ZM140,6.7a1.25,1.25,0,0,0-.33-.76,1.71,1.71,0,0,0-1.35-.68,1.47,1.47,0,0,0-.71.18,1.81,1.81,0,0,0-.93,1.26Z"/><path class="cls-1" d="M144.79,11.48v0h-.25a3.86,3.86,0,0,1-2.7-1.07,4.3,4.3,0,0,1-1.37-3.22,4.28,4.28,0,0,1,1.05-2.88,3.82,3.82,0,0,1,3-1.42h.26V0h3.79V11.48Z"/><path class="cls-2" d="M142.59,5.22A2.49,2.49,0,0,1,146.21,5V1.42h1v8.64h-1V9.4a2.54,2.54,0,0,1-1.68.66,2.43,2.43,0,0,1-1.72-.7,2.81,2.81,0,0,1-.92-2.18A2.93,2.93,0,0,1,142.59,5.22Zm.6,3.12a1.54,1.54,0,0,0,1.34.76,1.47,1.47,0,0,0,1-.39,1.93,1.93,0,0,0,.68-1.53A2.11,2.11,0,0,0,145.86,6a1.54,1.54,0,0,0-1.33-.75,1.51,1.51,0,0,0-1,.38,1.94,1.94,0,0,0-.67,1.54A2.07,2.07,0,0,0,143.19,8.34Z"/><path class="cls-1" d="M156.41,11.48a3.91,3.91,0,0,1-2.69-1.08,4.3,4.3,0,0,1-1.37-3.22A4.28,4.28,0,0,1,153.4,4.3,3.88,3.88,0,0,1,159.09,4a4.24,4.24,0,0,1,1.37,3.22,4.31,4.31,0,0,1-1,2.87A3.86,3.86,0,0,1,156.41,11.48Z"/><path class="cls-2" d="M154.47,5.22A2.49,2.49,0,0,1,158.12,5a2.84,2.84,0,0,1,.93,2.19,2.91,2.91,0,0,1-.71,2,2.47,2.47,0,0,1-3.65.23,2.81,2.81,0,0,1-.92-2.18A2.93,2.93,0,0,1,154.47,5.22Zm.6,3.12a1.54,1.54,0,0,0,1.34.76,1.47,1.47,0,0,0,1-.39,1.93,1.93,0,0,0,.68-1.53A2.11,2.11,0,0,0,157.74,6a1.54,1.54,0,0,0-1.33-.75,1.51,1.51,0,0,0-1,.38,1.94,1.94,0,0,0-.67,1.54A2.07,2.07,0,0,0,155.07,8.34Z"/><path class="cls-1" d="M159.14,11.48V6.68h-.79V2.88h1a3.08,3.08,0,0,1,3-2.65h1.89V6.68h-1.36v4.8Z"/><path class="cls-2" d="M162.41,4.3h.48v1h-1.37v4.8h-1V5.26h-.79v-1h.8a5.86,5.86,0,0,1,.14-1c.27-1.1.83-1.64,1.7-1.64h.48v1h-.48c-.5,0-.79.57-.87,1.69Z"/><rect class="cls-1" x="167.83" width="3.79" height="11.48"/><path class="cls-2" d="M169.25,1.42h1v8.64h-1V1.42Z"/><polygon class="cls-1" points="169.96 11.47 169.96 1.19 173.77 1.19 173.77 4.98 173.76 4.98 173.76 11.47 169.96 11.47"/><path class="cls-2" d="M171.38,3.57v-1h1v1h-1Zm0,.73h1v5.76h-1V4.3Z"/><path class="cls-1" d="M174.24,14V11a3.7,3.7,0,0,1-.8-.58,4.26,4.26,0,0,1-1.38-3.22,4.33,4.33,0,0,1,1.05-2.88,3.84,3.84,0,0,1,3-1.42h4.12l-.05,1.93V9.58a4.19,4.19,0,0,1-.18,1.19,4.54,4.54,0,0,1-.5,1.13,4.84,4.84,0,0,1-.77,1,3.55,3.55,0,0,1-1.15.78,3.6,3.6,0,0,1-1.45.31Z"/><path class="cls-2" d="M174.19,5.22A2.48,2.48,0,0,1,177.8,5V4.31h1l0,.48V9.58a2.81,2.81,0,0,1-.12.79,3.46,3.46,0,0,1-.35.79,3.41,3.41,0,0,1-.55.69,2.29,2.29,0,0,1-.73.49,2.05,2.05,0,0,1-.88.19h-.48v-1h.48a1.47,1.47,0,0,0,1.14-.59,2.06,2.06,0,0,0,.53-1.4V9.4a2.54,2.54,0,0,1-1.68.66,2.39,2.39,0,0,1-1.71-.7,2.82,2.82,0,0,1-.93-2.18A2.94,2.94,0,0,1,174.19,5.22Zm.6,3.12a1.53,1.53,0,0,0,1.33.76,1.49,1.49,0,0,0,1-.39,1.92,1.92,0,0,0,.67-1.53A2,2,0,0,0,177.45,6a1.53,1.53,0,0,0-1.33-.75,1.55,1.55,0,0,0-1,.38,2,2,0,0,0-.67,1.54A2.08,2.08,0,0,0,174.79,8.34Z"/><path class="cls-1" d="M182.93,11.49h-3.67V.77h3.8V2.88a3.55,3.55,0,0,1,2.27.91,3.84,3.84,0,0,1,1.33,3v2.8l.05,1.91Z"/><path class="cls-2" d="M183,4.3a2.09,2.09,0,0,1,1.43.55,2.41,2.41,0,0,1,.85,1.93v3.29h-.94l0-.48V6.78a1.61,1.61,0,0,0-.23-.86A1.21,1.21,0,0,0,183,5.26a1.19,1.19,0,0,0-.74.26,1.52,1.52,0,0,0-.58,1.26v3.28h-1V2.19h1V4.75A2.24,2.24,0,0,1,183,4.3Z"/><path class="cls-1" d="M189.08,11.48a3.77,3.77,0,0,1-1-.12,2.86,2.86,0,0,1-2.29-3V6.68H185V2.88h.81l0-1.73h3.8l0,1.73H191v3.8h-1.35v1H191v3.8Z"/><path class="cls-2" d="M188.21,8.37c0,.47.3.71.87.73h.48v1h-.48a3.2,3.2,0,0,1-.63-.07,1.47,1.47,0,0,1-1.2-1.61h0V5.26h-.81v-1h.81V2.57h1V4.3h1.34v1h-1.34Z"/><path class="cls-1" d="M186.05,12.53l3.86-3.26A1.4,1.4,0,0,0,190,9l.18-1.67h3.78l-.19,2.07a3.89,3.89,0,0,1-1.25,2.64l-.6.45Z"/><path class="cls-2" d="M191.41,8.79h1l-.05.52a2.47,2.47,0,0,1-.77,1.7l-.14.1h-1.49l1-.85a1.6,1.6,0,0,0,.43-1Z"/><path class="cls-1" d="M46.32,25.88a3.91,3.91,0,0,1-1-.12,2.86,2.86,0,0,1-2.28-3v-1.7h-.81v-3.8h.81l0-1.73h3.8l0,1.73h1.34v3.8H46.87v1h1.36v3.8Z"/><path class="cls-2" d="M45.44,22.77c0,.47.3.71.88.73h.48v1h-.48a3.3,3.3,0,0,1-.64-.07,1.47,1.47,0,0,1-1.2-1.61h0V19.66h-.8v-1h.8V17.44l0-.47h1V18.7H46.8v1H45.46Z"/><path class="cls-1" d="M50.24,25.89H46.58V15.17h3.8v2.11a3.57,3.57,0,0,1,2.27.91,3.84,3.84,0,0,1,1.33,3V24l0,1.91Z"/><path class="cls-2" d="M50.28,18.7a2.09,2.09,0,0,1,1.43.55,2.41,2.41,0,0,1,.85,1.93v3.29h-1V21.18a1.7,1.7,0,0,0-.23-.86,1.22,1.22,0,0,0-1.09-.66,1.19,1.19,0,0,0-.74.26A1.52,1.52,0,0,0,49,21.18v3.28H48V16.59h1v2.56A2.24,2.24,0,0,1,50.28,18.7Z"/><path class="cls-1" d="M56.9,25.88v0h-.24A3.84,3.84,0,0,1,54,24.8a4.46,4.46,0,0,1-.33-6.1,3.84,3.84,0,0,1,3-1.42H60.7v8.6Z"/><path class="cls-2" d="M54.71,19.62a2.44,2.44,0,0,1,1.93-.92,2.48,2.48,0,0,1,1.68.66V18.7h1v5.76h-1V23.8a2.54,2.54,0,0,1-1.68.66,2.43,2.43,0,0,1-1.72-.7A2.85,2.85,0,0,1,54,21.58,2.94,2.94,0,0,1,54.71,19.62Zm.6,3.12a1.52,1.52,0,0,0,1.33.76,1.49,1.49,0,0,0,1-.39,1.92,1.92,0,0,0,.67-1.53A2.11,2.11,0,0,0,58,20.41,1.55,1.55,0,0,0,55.63,20,1.94,1.94,0,0,0,55,21.58,2.08,2.08,0,0,0,55.31,22.74Z"/><path class="cls-1" d="M63.12,25.88a3.91,3.91,0,0,1-1-.12,2.86,2.86,0,0,1-2.28-3v-1.7h-.81v-3.8h.81l.05-1.73h3.8l0,1.73H65v3.8H63.67v1H65v3.8Z"/><path class="cls-2" d="M62.24,22.77c0,.47.3.71.88.73h.48v1h-.48a3.3,3.3,0,0,1-.64-.07,1.47,1.47,0,0,1-1.2-1.61h0V19.66h-.8v-1h.8V17.44l0-.47h1V18.7H63.6v1H62.26Z"/><path class="cls-1" d="M71.91,25.89H68.54v-8.6h3.8v0a3.41,3.41,0,0,1,1.39.41,3.46,3.46,0,0,1,3.91.39A3.68,3.68,0,0,1,79,21v3L79,25.89Z"/><path class="cls-2" d="M73.78,19.51a2,2,0,0,1,3-.32A2.27,2.27,0,0,1,77.54,21v3l0,.49h-1V24l0-3a1.58,1.58,0,0,0-.18-.73,1.08,1.08,0,0,0-1-.61,1.12,1.12,0,0,0-.65.21A1.34,1.34,0,0,0,74.23,21v3.47H73.3l0-.48V21a1.58,1.58,0,0,0-.18-.73,1.08,1.08,0,0,0-1-.61,1.1,1.1,0,0,0-.65.21A1.34,1.34,0,0,0,70.92,21v3.46H70V18.7h1v.38a2,2,0,0,1,1.18-.38,2.1,2.1,0,0,1,1.65.84S73.77,19.53,73.78,19.51Z"/><path class="cls-1" d="M81.62,25.88a3.89,3.89,0,0,1-2.68-1.08,4.47,4.47,0,0,1-.32-6.1,3.82,3.82,0,0,1,3-1.42,3.87,3.87,0,0,1,2.69,1.08,4.27,4.27,0,0,1,1.37,3.22,4.32,4.32,0,0,1-1.05,2.88A3.86,3.86,0,0,1,81.62,25.88Z"/><path class="cls-2" d="M79.69,19.62a2.49,2.49,0,0,1,3.65-.23,2.83,2.83,0,0,1,.92,2.19,2.9,2.9,0,0,1-.7,2,2.44,2.44,0,0,1-1.94.93,2.41,2.41,0,0,1-1.71-.7A2.82,2.82,0,0,1,79,21.58,2.94,2.94,0,0,1,79.69,19.62Zm.6,3.12a1.53,1.53,0,0,0,1.33.76,1.47,1.47,0,0,0,1-.39,1.92,1.92,0,0,0,.67-1.53A2.1,2.1,0,0,0,83,20.41a1.55,1.55,0,0,0-1.34-.75,1.5,1.5,0,0,0-1,.38,2,2,0,0,0-.68,1.54A2.08,2.08,0,0,0,80.29,22.74Z"/><path class="cls-1" d="M87.86,25.88a3.89,3.89,0,0,1-2.68-1.08,4.27,4.27,0,0,1-1.37-3.22,4.32,4.32,0,0,1,1-2.88,3.9,3.9,0,0,1,5.7-.34,4.46,4.46,0,0,1,.32,6.09A3.83,3.83,0,0,1,87.86,25.88Z"/><path class="cls-2" d="M85.93,19.62a2.49,2.49,0,0,1,3.65-.23,2.83,2.83,0,0,1,.92,2.19,2.9,2.9,0,0,1-.7,2,2.45,2.45,0,0,1-1.94.93,2.41,2.41,0,0,1-1.71-.7,2.82,2.82,0,0,1-.93-2.18A2.94,2.94,0,0,1,85.93,19.62Zm.6,3.12a1.53,1.53,0,0,0,1.33.76,1.47,1.47,0,0,0,1-.39,1.92,1.92,0,0,0,.67-1.53,2.1,2.1,0,0,0-.34-1.17A1.56,1.56,0,0,0,86.85,20a2,2,0,0,0-.67,1.54A2.08,2.08,0,0,0,86.53,22.74Z"/><path class="cls-1" d="M94.18,25.89H90.53v-8.6h3.79a3.55,3.55,0,0,1,2.27.91,3.8,3.8,0,0,1,1.33,3V24l0,1.91Z"/><path class="cls-2" d="M96.52,24.47h-1V24l0-2.81a1.61,1.61,0,0,0-.23-.86,1.21,1.21,0,0,0-1.09-.66,1.19,1.19,0,0,0-.74.26,1.55,1.55,0,0,0-.58,1.26v3.28h-1V18.7h1v.45a2.26,2.26,0,0,1,1.32-.45,2.09,2.09,0,0,1,1.43.55,2.41,2.41,0,0,1,.85,1.93V24Z"/><rect class="cls-1" x="97.01" y="14.4" width="3.79" height="11.48"/><path class="cls-2" d="M98.42,15.82h1v8.64h-1V15.82Z"/><polygon class="cls-1" points="99.14 25.88 99.14 15.59 102.95 15.59 102.95 19.38 102.94 19.38 102.94 25.88 99.14 25.88"/><path class="cls-2" d="M100.56,18V17h1v1h-1Zm0,.73h1v5.76h-1V18.7Z"/><path class="cls-1" d="M103.41,28.35v-3a4,4,0,0,1-.8-.58,4.47,4.47,0,0,1-.32-6.1,3.82,3.82,0,0,1,3-1.42h4.12l0,1.94V24a4.14,4.14,0,0,1-.18,1.19,4.93,4.93,0,0,1-.5,1.13,5.15,5.15,0,0,1-.77,1,3.77,3.77,0,0,1-1.15.78,3.63,3.63,0,0,1-1.45.31Z"/><path class="cls-2" d="M103.37,19.62a2.44,2.44,0,0,1,1.93-.92,2.48,2.48,0,0,1,1.68.66v-.65h1V24a2.81,2.81,0,0,1-.12.79,3.46,3.46,0,0,1-.35.79,3.41,3.41,0,0,1-.55.69,2.29,2.29,0,0,1-.73.49,2.08,2.08,0,0,1-.88.19h-.48V26h.48a1.5,1.5,0,0,0,1.14-.59A2.11,2.11,0,0,0,107,24V23.8a2.54,2.54,0,0,1-1.68.66,2.43,2.43,0,0,1-1.72-.7,2.85,2.85,0,0,1-.92-2.18A2.94,2.94,0,0,1,103.37,19.62Zm.6,3.12a1.52,1.52,0,0,0,1.33.76,1.49,1.49,0,0,0,1-.39,1.92,1.92,0,0,0,.67-1.53,2.11,2.11,0,0,0-.35-1.17,1.55,1.55,0,0,0-2.34-.37,1.94,1.94,0,0,0-.67,1.54A2,2,0,0,0,104,22.74Z"/><path class="cls-1" d="M112.1,25.89h-3.66V15.17h3.8v2.11a3.57,3.57,0,0,1,2.27.91,3.84,3.84,0,0,1,1.33,3V24l0,1.91Z"/><path class="cls-2" d="M112.14,18.7a2.09,2.09,0,0,1,1.43.55,2.41,2.41,0,0,1,.85,1.93v3.29h-1V21.18a1.7,1.7,0,0,0-.23-.86,1.22,1.22,0,0,0-1.09-.66,1.19,1.19,0,0,0-.74.26,1.52,1.52,0,0,0-.58,1.26v3.28h-1V16.59h1v2.56A2.24,2.24,0,0,1,112.14,18.7Z"/><path class="cls-1" d="M118.26,25.88a3.85,3.85,0,0,1-1-.12,2.86,2.86,0,0,1-2.28-3v-1.7h-.81v-3.8H115l0-1.73h3.81l0,1.73h1.34v3.8h-1.35v1h1.36v3.8Z"/><path class="cls-2" d="M117.38,22.77c0,.47.3.71.88.73h.48v1h-.48a3.22,3.22,0,0,1-.64-.07,1.47,1.47,0,0,1-1.2-1.61h0V19.66h-.8v-1h.8V17.44l0-.47h1V18.7h1.34v1H117.4Z"/><polygon class="cls-1" points="129.19 25.88 128.72 24.68 128.46 24.07 128.19 24.71 127.73 25.88 125.04 25.88 124.62 24.53 123.1 19.07 122.6 17.28 126.5 17.28 126.8 18.23 127.18 17.28 129.74 17.28 130.12 18.23 130.41 17.28 134.31 17.28 133.65 19.68 132.31 24.49 131.88 25.88 129.19 25.88"/><path class="cls-2" d="M124.46,18.7h1l.11.35,1,3.48L128,19l.12-.3h.64l.12.3,1.48,3.53,1-3.48.11-.35h1l-.16.61-1.35,4.8-.11.35h-.68l-.12-.3-1.57-3.75-1.57,3.75-.12.3h-.69l-.1-.35-1.35-4.8Z"/><polygon class="cls-1" points="132.14 25.88 132.14 15.59 135.95 15.59 135.95 19.38 135.94 19.38 135.94 25.88 132.14 25.88"/><path class="cls-2" d="M133.56,18V17h1v1h-1Zm0,.73h1v5.76h-1V18.7Z"/><rect class="cls-1" x="134.72" y="14.4" width="3.79" height="11.48"/><path class="cls-2" d="M136.14,15.82h1v8.64h-1V15.82Z"/><rect class="cls-1" x="137.04" y="14.4" width="3.79" height="11.48"/><path class="cls-2" d="M138.45,15.82h1v8.64h-1V15.82Z"/><path class="cls-1" d="M146.21,28.35v-3a3.48,3.48,0,0,1-.8-.58A4.28,4.28,0,0,1,144,21.58a4.33,4.33,0,0,1,1.05-2.88,3.84,3.84,0,0,1,3-1.42h4.12l-.05,1.93V24a4.19,4.19,0,0,1-.18,1.19,4.54,4.54,0,0,1-.5,1.13,4.84,4.84,0,0,1-.77,1,3.75,3.75,0,0,1-2.6,1.09Z"/><path class="cls-2" d="M146.16,19.62a2.44,2.44,0,0,1,1.93-.92,2.48,2.48,0,0,1,1.68.66v-.65h1V24a2.81,2.81,0,0,1-.12.79,3.46,3.46,0,0,1-.35.79,3.41,3.41,0,0,1-.55.69,2.29,2.29,0,0,1-.73.49,2.05,2.05,0,0,1-.88.19h-.48V26h.48a1.5,1.5,0,0,0,1.14-.59,2.11,2.11,0,0,0,.53-1.4V23.8a2.54,2.54,0,0,1-1.68.66,2.43,2.43,0,0,1-1.72-.7,2.85,2.85,0,0,1-.92-2.18A2.94,2.94,0,0,1,146.16,19.62Zm.6,3.12a1.52,1.52,0,0,0,1.33.76,1.49,1.49,0,0,0,1-.39,1.92,1.92,0,0,0,.67-1.53,2.11,2.11,0,0,0-.35-1.17,1.55,1.55,0,0,0-2.34-.37,1.94,1.94,0,0,0-.67,1.54A2.08,2.08,0,0,0,146.76,22.74Z"/><path class="cls-1" d="M154.74,25.88a3.69,3.69,0,0,1-2.38-.83A3.44,3.44,0,0,1,151,22.26V19.18l0-1.89h7.49l-.05,1.94v3a3.53,3.53,0,0,1-.83,2.27A3.66,3.66,0,0,1,154.74,25.88Z"/><path class="cls-2" d="M152.42,18.71h1v3.55a1.17,1.17,0,0,0,.23.69,1.38,1.38,0,0,0,1.14.55,1.41,1.41,0,0,0,.74-.21,1.14,1.14,0,0,0,.61-1V19.18l0-.47h1v.48l0,3.07a2.05,2.05,0,0,1-.5,1.37,2.24,2.24,0,0,1-1.81.83,2.3,2.3,0,0,1-1.5-.52,2.06,2.06,0,0,1-.83-1.68V18.71Z"/><polygon class="cls-1" points="157.14 25.88 157.14 15.59 160.94 15.59 160.94 19.38 160.93 19.38 160.93 25.88 157.14 25.88"/><path class="cls-2" d="M158.55,18V17h1v1h-1Zm0,.73h1v5.76h-1V18.7Z"/><path class="cls-1" d="M163.56,25.88v0h-.25a3.84,3.84,0,0,1-2.7-1.07,4.27,4.27,0,0,1-1.37-3.22,4.32,4.32,0,0,1,1-2.88,3.85,3.85,0,0,1,3-1.42h.27V14.4h3.79V25.88Z"/><path class="cls-2" d="M161.36,19.62a2.48,2.48,0,0,1,3.61-.26V15.82h1v8.64h-1V23.8a2.5,2.5,0,0,1-1.68.66,2.41,2.41,0,0,1-1.71-.7,2.82,2.82,0,0,1-.93-2.18A2.94,2.94,0,0,1,161.36,19.62Zm.6,3.12a1.53,1.53,0,0,0,1.33.76,1.47,1.47,0,0,0,1-.39,1.92,1.92,0,0,0,.67-1.53,2.1,2.1,0,0,0-.34-1.17,1.55,1.55,0,0,0-1.34-.75,1.5,1.5,0,0,0-1,.38,2,2,0,0,0-.68,1.54A2.08,2.08,0,0,0,162,22.74Z"/><path class="cls-1" d="M170,25.88a3.92,3.92,0,0,1-2.68-1.08A4.27,4.27,0,0,1,166,21.58a4.36,4.36,0,0,1,1-2.85,3.9,3.9,0,0,1,5.73-.37,4.27,4.27,0,0,1,1.37,3.22v1.35l.16.11-.16.21v.23h-.16l-.53.7A4.07,4.07,0,0,1,170,25.88Z"/><path class="cls-2" d="M172.25,23.33A2.67,2.67,0,0,1,170,24.46a2.45,2.45,0,0,1-1.72-.7,2.85,2.85,0,0,1-.92-2.18,3,3,0,0,1,.69-1.95,2.5,2.5,0,0,1,3.67-.24,2.83,2.83,0,0,1,.92,2.19v.48h-4.27a2.1,2.1,0,0,0,.29.67,1.55,1.55,0,0,0,1.34.77,1.78,1.78,0,0,0,1.47-.75Zm-.56-2.23a1.23,1.23,0,0,0-.32-.76,1.73,1.73,0,0,0-1.36-.68,1.46,1.46,0,0,0-.7.18,1.81,1.81,0,0,0-.93,1.26Z"/><path class="cls-1" d="M181.34,25.88a3.73,3.73,0,0,1-2.38-.83,3.46,3.46,0,0,1-1.36-2.79V19.18l0-1.89h7.5l0,1.94,0,3a3.48,3.48,0,0,1-.83,2.27A3.65,3.65,0,0,1,181.34,25.88Z"/><path class="cls-2" d="M179,18.71h1v.48l0,3.07a1.17,1.17,0,0,0,.23.69,1.38,1.38,0,0,0,1.14.55,1.44,1.44,0,0,0,.75-.21,1.15,1.15,0,0,0,.61-1V18.71h1v3.55a2.06,2.06,0,0,1-.51,1.37,2.23,2.23,0,0,1-1.81.83,2.3,2.3,0,0,1-1.5-.52,2.06,2.06,0,0,1-.83-1.68V19.18Z"/><path class="cls-1" d="M187.09,25.88a4.09,4.09,0,0,1-2.28-.66,2.91,2.91,0,0,1-1.37-2.43V21.37h.38a2.67,2.67,0,0,1-.2-1,2.9,2.9,0,0,1,.68-1.86,3.49,3.49,0,0,1,2.79-1.24,3.73,3.73,0,0,1,2.14.65,2.92,2.92,0,0,1,1.33,2.44v1.41h0a2.86,2.86,0,0,1,.19,1,2.82,2.82,0,0,1-.69,1.8A3.73,3.73,0,0,1,187.09,25.88Z"/><path class="cls-2" d="M188.18,20.37a.5.5,0,0,0-.13-.34,1.15,1.15,0,0,0-1-.37,1.61,1.61,0,0,0-.49.07c-.4.13-.6.34-.6.64a.32.32,0,0,0,.07.19,2.9,2.9,0,0,0,1.1.49c.4.12.7.22.89.3q1.27.51,1.26,1.44a1.4,1.4,0,0,1-.36.91,2.3,2.3,0,0,1-1.87.76,2.64,2.64,0,0,1-1.5-.42,1.48,1.48,0,0,1-.73-1.25h1a.53.53,0,0,0,.14.34,1.5,1.5,0,0,0,1.13.37,2.59,2.59,0,0,0,.55-.07c.48-.12.72-.34.72-.64a.32.32,0,0,0-.06-.18,2.58,2.58,0,0,0-1.09-.48c-.39-.12-.69-.22-.89-.3-.85-.34-1.27-.83-1.28-1.46a1.47,1.47,0,0,1,.36-.95,2.07,2.07,0,0,1,1.69-.72,2.31,2.31,0,0,1,1.33.39,1.51,1.51,0,0,1,.72,1.28Z"/><rect class="cls-1" x="189.58" y="22.09" width="3.79" height="3.81"/><path class="cls-2" d="M191,23.51h1V24h0v.48h-1V24h0Z"/></g></g></svg>