<svg xmlns="http://www.w3.org/2000/svg" viewBox="0 0 108.77 40.2"><g id="레이어_2" data-name="레이어 2"><g id="Layer_1" data-name="Layer 1"><path d="M16.33,8.07a7.79,7.79,0,0,1-8.17,8.06A7.79,7.79,0,0,1,0,8.07,7.79,7.79,0,0,1,8.16,0,7.79,7.79,0,0,1,16.33,8.07Z"/><path d="M27.38,14.89h-.72V2.65h.54l.11.14,7.61,10.62,0-10.4V2.65h.72V3l0,11.52v.36H35.1L35,14.75,27.38,4.13V14.89Z"/><path d="M39.22,7.64a3.75,3.75,0,0,1,5.53-.33,4.34,4.34,0,0,1,1.35,3.26,4.43,4.43,0,0,1-1.05,2.93,3.74,3.74,0,0,1-5.52.33,4.34,4.34,0,0,1-1.35-3.26A4.47,4.47,0,0,1,39.22,7.64Zm.43,5.25a3,3,0,0,0,2.49,1.28,3,3,0,0,0,2-.81,3.61,3.61,0,0,0,1.19-2.79,3.84,3.84,0,0,0-.76-2.32,3,3,0,0,0-4.53-.47,3.57,3.57,0,0,0-1.19,2.79A3.83,3.83,0,0,0,39.65,12.89Z"/><path d="M48.62,14.19h.72v.74h-.72v-.74Z"/><path d="M52.07,9h-.79l.25-.52,2.95-5.92.11-.2h.58v12.6h-.72V4.2L52.18,8.75Z"/><path d="M65.2,7h.71v.74H65.2V7Zm0,6.14h.71v.74H65.2v-.74Z"/><path d="M76.37,7.64a3.75,3.75,0,0,1,5.53-.33,4.34,4.34,0,0,1,1.35,3.26,4.47,4.47,0,0,1-1,2.93,3.75,3.75,0,0,1-5.53.33,4.34,4.34,0,0,1-1.35-3.26A4.47,4.47,0,0,1,76.37,7.64Zm.43,5.25a3,3,0,0,0,2.49,1.28,3,3,0,0,0,2-.81,3.61,3.61,0,0,0,1.19-2.79,3.78,3.78,0,0,0-.76-2.32,3,3,0,0,0-4.53-.47,3.61,3.61,0,0,0-1.19,2.79A3.83,3.83,0,0,0,76.8,12.89Z"/><path d="M86.18,7.82a3.83,3.83,0,0,1,3.33-1.57h.36V7h-.36a3.63,3.63,0,0,0-1.78.43,3.22,3.22,0,0,0-1.6,3v4.48h-.72V6.25h.72V7.89Z"/><path d="M91.49,2.65V2.29h.72v5.8c.1-.15.21-.29.33-.44a3.73,3.73,0,0,1,5.52-.34,4.34,4.34,0,0,1,1.35,3.26,4.47,4.47,0,0,1-1,2.93,3.69,3.69,0,0,1-2.92,1.39,4.46,4.46,0,0,1-.63-.05,3.84,3.84,0,0,1-2.61-1.79v1.84h-.72V2.65ZM93,12.89a3,3,0,0,0,4.51.47,3.57,3.57,0,0,0,1.19-2.79,3.83,3.83,0,0,0-.75-2.32A3,3,0,0,0,95.45,7a3,3,0,0,0-2,.81,3.63,3.63,0,0,0-1.19,2.81A3.66,3.66,0,0,0,93,12.89Z"/><path d="M101.66,4.79V4.07h.74v.72h-.74Zm0,1.46h.72v8.64h-.72V6.25Z"/><path d="M106.27,12.53v.16c.1,1,.81,1.48,2.14,1.48h.36v.72h-.36a3.64,3.64,0,0,1-.57,0c-1.52-.15-2.28-.93-2.29-2.32V7h-1.46V6.25h1.46V4h.72V6.25h2.5V7h-2.5Z"/><path d="M2.36,36.49H.92V24.25H2.11l.18.43L6.5,34l4.19-9.33.18-.43h1.19V25l0,10.8v.72H10.64v-.72l0-7.45L7.15,36.06,7,36.49H6l-.18-.43L2.36,28.32v8.17Z"/><path d="M19.85,27.85H21.4l-.38,1L18.36,36a10.42,10.42,0,0,1-1.51,3.39A2.35,2.35,0,0,1,15,40.2h-.72V38.76H15a1.19,1.19,0,0,0,.92-.43,8.93,8.93,0,0,0,1-2.54l-2.63-7-.38-1h1.55l.16.47,2.06,5.4,2-5.4Z"/><path d="M31.09,36.49H29.52l.43-1,4.68-10.8.2-.43h.94l.19.43,4.68,10.8.44,1H39.51l-.2-.43-4-9.27-4,9.27Z"/><path d="M46.76,30.35a.71.71,0,0,0-.2-.5,1.72,1.72,0,0,0-1.44-.56,2.58,2.58,0,0,0-.73.11c-.6.19-.9.51-.9,1a.44.44,0,0,0,.11.29,4.21,4.21,0,0,0,1.65.74c.6.18,1,.33,1.33.45,1.28.51,1.9,1.23,1.89,2.16a2.13,2.13,0,0,1-.54,1.37,3.5,3.5,0,0,1-2.81,1.13,4,4,0,0,1-2.24-.63A2.2,2.2,0,0,1,41.78,34h1.44a.72.72,0,0,0,.21.5,2.2,2.2,0,0,0,1.69.56,3.32,3.32,0,0,0,.83-.11c.72-.18,1.08-.5,1.08-.95a.48.48,0,0,0-.09-.27A3.87,3.87,0,0,0,45.3,33c-.58-.18-1-.33-1.33-.45-1.27-.52-1.91-1.25-1.92-2.2a2.21,2.21,0,0,1,.54-1.42,3.11,3.11,0,0,1,2.53-1.08,3.47,3.47,0,0,1,2,.59,2.26,2.26,0,0,1,1.08,1.91Z"/><path d="M50.63,28.57v-.72h1.44v1a3.71,3.71,0,0,1,5.1.05,4.58,4.58,0,0,1,.32,6.21,3.64,3.64,0,0,1-2.9,1.39,3.72,3.72,0,0,1-2.52-1v4.7H50.63V28.57Zm2,5.35a2.3,2.3,0,0,0,2,1.13,2.24,2.24,0,0,0,1.52-.58,2.89,2.89,0,0,0,1-2.3,3.1,3.1,0,0,0-.52-1.75,2.29,2.29,0,0,0-2-1.13,2.34,2.34,0,0,0-1.51.56,3,3,0,0,0-1,2.32A3.11,3.11,0,0,0,52.6,33.92Z"/><path d="M60.44,26.75V25.31H61.9v1.44H60.44Zm0,1.1h1.44v8.64H60.44V27.85Z"/><path d="M68.06,27.85h.72v1.44h-.72a2.16,2.16,0,0,0-1.08.27,2.62,2.62,0,0,0-1.23,2.5v4.43H64.31V27.85h1.44v.76A3.71,3.71,0,0,1,68.06,27.85Z"/><path d="M70.74,29.24a3.62,3.62,0,0,1,2.9-1.39,3.72,3.72,0,0,1,2.52,1v-1H77.6v8.64H76.16v-1a3.78,3.78,0,0,1-2.52,1,3.69,3.69,0,0,1-2.58-1,4.58,4.58,0,0,1-.32-6.21Zm.9,4.68a2.31,2.31,0,0,0,2,1.13,2.22,2.22,0,0,0,1.51-.58,2.9,2.9,0,0,0,1-2.3,3.11,3.11,0,0,0-.53-1.75,2.3,2.3,0,0,0-2-1.13,2.24,2.24,0,0,0-1.52.58,2.89,2.89,0,0,0-1,2.3A3.1,3.1,0,0,0,71.64,33.92Z"/><path d="M82,34c0,.71.45,1.08,1.32,1.1h.72v1.44h-.72a4.21,4.21,0,0,1-1-.11A2.19,2.19,0,0,1,80.6,34V29.29H79.4V27.85h1.2V26l0-.7h1.46l0,.72v1.87h2v1.44h-2Z"/><path d="M85.61,26.75V25.31h1.45v1.44H85.61Zm0,1.1h1.44v8.64H85.61V27.85Z"/><path d="M89.82,29.24a3.62,3.62,0,0,1,2.9-1.39,3.67,3.67,0,0,1,2.57,1,4.3,4.3,0,0,1,1.39,3.28,4.38,4.38,0,0,1-1.06,2.93,3.72,3.72,0,0,1-5.48.35,4.58,4.58,0,0,1-.32-6.21Zm.9,4.68a2.31,2.31,0,0,0,2,1.13,2.22,2.22,0,0,0,1.51-.58,2.9,2.9,0,0,0,1-2.3,3.11,3.11,0,0,0-.53-1.75,2.3,2.3,0,0,0-2-1.13,2.2,2.2,0,0,0-1.51.58,2.87,2.87,0,0,0-1,2.3A3.1,3.1,0,0,0,90.72,33.92Z"/><path d="M105.69,36.51h-1.42l0-.72V31.58a2.56,2.56,0,0,0-.35-1.3,1.82,1.82,0,0,0-1.63-1,1.75,1.75,0,0,0-1.12.4,2.25,2.25,0,0,0-.86,1.89v4.91H98.84V27.85h1.44v.68a3.27,3.27,0,0,1,2-.68,3.17,3.17,0,0,1,2.14.83,3.64,3.64,0,0,1,1.28,2.9v4.93Z"/></g></g></svg>