<svg xmlns="http://www.w3.org/2000/svg" viewBox="0 0 564.22 54.1"><g id="레이어_2" data-name="레이어 2"><g id="Layer_1" data-name="Layer 1"><path d="M4.67,42.07H0V2.34H3.56l.7,1,20.22,29,.06-27.64V2.34h4.67V4.67l-.06,35.06v2.34H25.59l-.7-1-20.22-29v30Z"/><path d="M40.84,18.52A12,12,0,0,1,58.6,17.41,13.82,13.82,0,0,1,63.1,28a14.18,14.18,0,0,1-3.45,9.53,12,12,0,0,1-17.76,1.11A13.83,13.83,0,0,1,37.39,28,14.18,14.18,0,0,1,40.84,18.52Zm2.92,15.19a7.47,7.47,0,0,0,6.49,3.68,7.26,7.26,0,0,0,4.9-1.87A9.46,9.46,0,0,0,58.43,28a10.06,10.06,0,0,0-1.7-5.66,7.46,7.46,0,0,0-6.48-3.68,7.28,7.28,0,0,0-4.91,1.87A9.45,9.45,0,0,0,42.07,28,10.06,10.06,0,0,0,43.76,33.71Z"/><path d="M71.28,37.45H76v4.73H71.28V37.45Z"/><path d="M84.54,24h-5l1.28-3.22,7.25-18,.58-1.46h3.92V42.12H87.87V15.66l-2.75,6.83Z"/><path d="M125.85,16.36V14h4.67v3.22a12,12,0,0,1,16.54.17A13.82,13.82,0,0,1,151.56,28a14.18,14.18,0,0,1-3.45,9.53,11.84,11.84,0,0,1-9.41,4.5,12,12,0,0,1-8.18-3.22V54.1h-4.67V16.36Zm6.37,17.35a7.45,7.45,0,0,0,6.48,3.68,7.28,7.28,0,0,0,4.91-1.87A9.45,9.45,0,0,0,146.88,28a10.05,10.05,0,0,0-1.69-5.66,7.43,7.43,0,0,0-6.43-3.68,7.58,7.58,0,0,0-4.91,1.81A9.85,9.85,0,0,0,130.52,28,10.07,10.07,0,0,0,132.22,33.71Z"/><path d="M158.57,0h4.67V42.07h-4.67V0Z"/><path d="M171,18.52a11.84,11.84,0,0,1,9.41-4.5,12,12,0,0,1,8.18,3.22V14h4.67V42.07h-4.67V38.85a12.21,12.21,0,0,1-8.18,3.22A11.89,11.89,0,0,1,172,38.68,13.82,13.82,0,0,1,167.51,28,14.17,14.17,0,0,1,171,18.52Zm2.92,15.19a7.47,7.47,0,0,0,6.49,3.68,7.28,7.28,0,0,0,4.91-1.87A9.45,9.45,0,0,0,188.54,28a10.06,10.06,0,0,0-1.7-5.66,7.45,7.45,0,0,0-6.48-3.68,7.28,7.28,0,0,0-4.91,1.87A9.45,9.45,0,0,0,172.18,28,10.06,10.06,0,0,0,173.87,33.71Z"/><path d="M224.82,42.12h-4.61l-.06-2.33-.06-13.67A8.31,8.31,0,0,0,219,21.91a6,6,0,0,0-5.32-3.21A5.7,5.7,0,0,0,210,20a7.4,7.4,0,0,0-2.8,6.14v16h-4.68V14h4.68v2.22A10.69,10.69,0,0,1,213.66,14a10.23,10.23,0,0,1,7,2.69,11.81,11.81,0,0,1,4.14,9.41V39.73Z"/><path d="M255.5,36.57a12.88,12.88,0,0,1-10.87,5.5,12.09,12.09,0,0,1-8.42-3.39A13.92,13.92,0,0,1,231.77,28a14.4,14.4,0,0,1,3.33-9.46A12,12,0,0,1,244.63,14,11.85,11.85,0,0,1,253,17.41,13.82,13.82,0,0,1,257.48,28v2.34h-20.8a10.09,10.09,0,0,0,1.4,3.27,7.5,7.5,0,0,0,6.55,3.74,8.64,8.64,0,0,0,7.13-3.62Zm-2.69-10.86A6.11,6.11,0,0,0,251.23,22a8.29,8.29,0,0,0-6.6-3.33,7.24,7.24,0,0,0-3.45.87,8.68,8.68,0,0,0-4.5,6.14Z"/><path d="M269.58,33.83c0,2.3,1.46,3.48,4.26,3.56h2.34v4.68h-2.34a13.51,13.51,0,0,1-3.1-.35q-5.83-1.35-5.84-7.83V18.7H261V14h3.91V7.89L265,5.61h4.73L269.63,8V14h6.55V18.7h-6.55Z"/><path d="M305.21,15.89h4.68v4.73h-4.68V15.89Zm0,18.64h4.68v4.73h-4.68V34.53Z"/><path d="M337.52,2.34h4.79l.41,1.81,6,27.4L359.32,3.86l.52-1.52h3.27l.53,1.52,10.58,27.69,6-27.4.41-1.81h4.79l-.64,2.86-7.71,35.06-.41,1.81h-3.51l-.52-1.52L361.48,11.28,350.32,40.55l-.53,1.52h-3.5l-.41-1.81L338.17,5.2Z"/><path d="M412.08,36.57a12.88,12.88,0,0,1-10.87,5.5,12.09,12.09,0,0,1-8.42-3.39A13.92,13.92,0,0,1,388.35,28a14.4,14.4,0,0,1,3.33-9.46A12,12,0,0,1,401.21,14a11.85,11.85,0,0,1,8.35,3.39A13.82,13.82,0,0,1,414.06,28v2.34h-20.8a9.9,9.9,0,0,0,1.41,3.27,7.47,7.47,0,0,0,6.54,3.74,8.64,8.64,0,0,0,7.13-3.62Zm-2.69-10.86A6.11,6.11,0,0,0,407.81,22a8.29,8.29,0,0,0-6.6-3.33,7.24,7.24,0,0,0-3.45.87,8.68,8.68,0,0,0-4.5,6.14Z"/><path d="M421.07,2.34V0h4.68V17.24A12.19,12.19,0,0,1,433.93,14a11.85,11.85,0,0,1,8.35,3.39A13.82,13.82,0,0,1,446.78,28a14.18,14.18,0,0,1-3.45,9.53,11.82,11.82,0,0,1-9.4,4.5,12,12,0,0,1-8.18-3.22v3.22h-4.68V2.34Zm6.31,31.37a7.52,7.52,0,0,0,6.55,3.68,7.26,7.26,0,0,0,4.9-1.87A9.46,9.46,0,0,0,442.11,28a10.06,10.06,0,0,0-1.7-5.66A7.48,7.48,0,0,0,429,20.57a9.51,9.51,0,0,0-3.27,7.53A10,10,0,0,0,427.38,33.71Z"/><path d="M498.9,13.44a5.4,5.4,0,0,0-1.46-3.68A8.83,8.83,0,0,0,490.6,7a10,10,0,0,0-4.73,1.17q-3.57,1.88-3.57,5.26a3.05,3.05,0,0,0,.29,1.23q1,1.92,6.61,4.08c4.63,1.84,7.42,3,8.35,3.39q7.06,3.57,7.07,8.83a9.92,9.92,0,0,1-3.15,6.89,14.87,14.87,0,0,1-10.87,4.21,15.58,15.58,0,0,1-9.87-3.22q-4.16-3.33-4.15-7.88h4.67A5.43,5.43,0,0,0,483,34.71a10.66,10.66,0,0,0,7.6,2.68,12.3,12.3,0,0,0,5.55-1.28q3.8-1.94,3.8-5.14a2.72,2.72,0,0,0-.35-1.29q-1-2-6.66-4.21-6.9-2.68-8.24-3.33-7.06-3.5-7.07-8.7a10,10,0,0,1,2.8-6.9,13.15,13.15,0,0,1,10.17-4.2,13.79,13.79,0,0,1,8.76,2.92,10.08,10.08,0,0,1,4.21,8.18Z"/><path d="M510.76,10.46V5.78h4.73v4.68h-4.73Zm0,3.56h4.67V42.07h-4.67V14Z"/><path d="M528.4,33.83c0,2.3,1.46,3.48,4.27,3.56H535v4.68h-2.33a13.44,13.44,0,0,1-3.1-.35q-5.85-1.35-5.84-7.83V18.7h-3.92V14h3.92V7.89l.06-2.28h4.73L528.46,8V14H535V18.7h-6.54Z"/><path d="M562.23,36.57a12.88,12.88,0,0,1-10.87,5.5A12.06,12.06,0,0,1,543,38.68,13.92,13.92,0,0,1,538.51,28a14.4,14.4,0,0,1,3.33-9.46,12.12,12.12,0,0,1,17.88-1.17A13.82,13.82,0,0,1,564.22,28v2.34h-20.8a10.09,10.09,0,0,0,1.4,3.27,7.49,7.49,0,0,0,6.54,3.74,8.63,8.63,0,0,0,7.13-3.62Zm-2.69-10.86A6,6,0,0,0,558,22a8.29,8.29,0,0,0-6.6-3.33,7.23,7.23,0,0,0-3.44.87,8.68,8.68,0,0,0-4.5,6.14Z"/></g></g></svg>