<svg xmlns="http://www.w3.org/2000/svg" viewBox="0 0 112.7 40.2"><g id="레이어_2" data-name="레이어 2"><g id="Layer_1" data-name="Layer 1"><path d="M16.33,8.07a7.79,7.79,0,0,1-8.17,8.06A7.79,7.79,0,0,1,0,8.07,7.79,7.79,0,0,1,8.16,0,7.79,7.79,0,0,1,16.33,8.07Z"/><path d="M27.38,14.89h-.72V2.65h.54l.11.14,7.61,10.62,0-10.4V2.65h.72V3l0,11.52v.36H35.1L35,14.75,27.38,4.13V14.89Z"/><path d="M39.22,7.64a3.75,3.75,0,0,1,5.53-.33,4.34,4.34,0,0,1,1.35,3.26,4.43,4.43,0,0,1-1.05,2.93,3.74,3.74,0,0,1-5.52.33,4.34,4.34,0,0,1-1.35-3.26A4.47,4.47,0,0,1,39.22,7.64Zm.43,5.25a3,3,0,0,0,2.49,1.28,3,3,0,0,0,2-.81,3.61,3.61,0,0,0,1.19-2.79,3.78,3.78,0,0,0-.76-2.32,3,3,0,0,0-4.53-.47,3.57,3.57,0,0,0-1.19,2.79A3.83,3.83,0,0,0,39.65,12.89Z"/><path d="M48.62,14.19h.72v.74h-.72v-.74Z"/><path d="M52.58,6h-.72V5.62a3,3,0,0,1,.83-2.09,3.81,3.81,0,0,1,3-1.24,4,4,0,0,1,2.52.83,3,3,0,0,1,1.27,2.5,4,4,0,0,1-1.08,2.61,17.64,17.64,0,0,1-2.77,2.39l-1.37,1.05a3.68,3.68,0,0,0-1.65,2.52h6.87v.72H51.86v-.36A3.22,3.22,0,0,1,52.24,13a9.22,9.22,0,0,1,2.55-2.7c1.31-1,2-1.61,2.16-1.73a4.29,4.29,0,0,0,1.78-3A2.34,2.34,0,0,0,58.1,4a3.09,3.09,0,0,0-2.44-1,3.4,3.4,0,0,0-1.91.56,2.39,2.39,0,0,0-1.17,2.05Z"/><path d="M69.12,7h.72v.74h-.72V7Zm0,6.14h.72v.74h-.72v-.74Z"/><path d="M80.3,7.64a3.74,3.74,0,0,1,5.52-.33,4.34,4.34,0,0,1,1.35,3.26,4.42,4.42,0,0,1-1,2.93,3.75,3.75,0,0,1-5.53.33,4.34,4.34,0,0,1-1.35-3.26A4.43,4.43,0,0,1,80.3,7.64Zm.43,5.25a3,3,0,0,0,4.54.47,3.6,3.6,0,0,0,1.18-2.79,3.83,3.83,0,0,0-.75-2.32,3,3,0,0,0-4.54-.47A3.61,3.61,0,0,0,80,10.57,3.84,3.84,0,0,0,80.73,12.89Z"/><path d="M90.11,7.82a3.8,3.8,0,0,1,3.33-1.57h.36V7h-.36a3.67,3.67,0,0,0-1.79.43,3.23,3.23,0,0,0-1.6,3v4.48h-.72V6.25h.72V7.89Z"/><path d="M95.42,2.65V2.29h.72v5.8a4.07,4.07,0,0,1,.32-.44A3.74,3.74,0,0,1,102,7.31a4.34,4.34,0,0,1,1.35,3.26,4.43,4.43,0,0,1-1,2.93,3.67,3.67,0,0,1-2.91,1.39,4.23,4.23,0,0,1-.63-.05,3.8,3.8,0,0,1-2.61-1.79v1.84h-.72V2.65Zm1.49,10.24a3,3,0,0,0,4.52.47,3.61,3.61,0,0,0,1.19-2.79,3.84,3.84,0,0,0-.76-2.32,3,3,0,0,0-4.54-.47,3.63,3.63,0,0,0-1.18,2.81A3.65,3.65,0,0,0,96.91,12.89Z"/><path d="M105.59,4.79V4.07h.73v.72h-.73Zm0,1.46h.72v8.64h-.72V6.25Z"/><path d="M110.2,12.53v.16c.09,1,.8,1.48,2.14,1.48h.36v.72h-.36a3.77,3.77,0,0,1-.58,0,2.18,2.18,0,0,1-2.28-2.32V7H108V6.25h1.46V4h.72V6.25h2.5V7h-2.5Z"/><path d="M2.36,36.49H.92V24.25H2.11l.18.43L6.5,34l4.19-9.33.18-.43h1.19V25l0,10.8v.72H10.64v-.72l0-7.45L7.15,36.06,7,36.49H6l-.18-.43L2.36,28.32v8.17Z"/><path d="M19.85,27.85H21.4l-.38,1L18.36,36a10.42,10.42,0,0,1-1.51,3.39A2.35,2.35,0,0,1,15,40.2h-.72V38.76H15a1.17,1.17,0,0,0,.92-.43,8.93,8.93,0,0,0,1-2.54l-2.63-7-.38-1h1.55l.16.47,2.06,5.4,2-5.4Z"/><path d="M31,28.57v-.72h1.44v1a3.68,3.68,0,0,1,2.54-1,3.64,3.64,0,0,1,2.55,1,4.26,4.26,0,0,1,1.39,3.28,4.38,4.38,0,0,1-1.06,2.93,3.64,3.64,0,0,1-2.9,1.39,3.68,3.68,0,0,1-2.52-1v4.7H31V28.57Zm2,5.35a2.31,2.31,0,0,0,2,1.13,2.22,2.22,0,0,0,1.51-.58,2.9,2.9,0,0,0,1-2.3,3.18,3.18,0,0,0-.52-1.75,2.31,2.31,0,0,0-2-1.13,2.36,2.36,0,0,0-1.52.56,3,3,0,0,0-1,2.32A3.1,3.1,0,0,0,32.94,33.92Z"/><path d="M44.8,27.85h.72v1.44H44.8a2.19,2.19,0,0,0-1.08.27,2.63,2.63,0,0,0-1.22,2.5v4.43H41.06V27.85H42.5v.76A3.66,3.66,0,0,1,44.8,27.85Z"/><path d="M47.48,29.24a3.64,3.64,0,0,1,2.9-1.39,3.71,3.71,0,0,1,2.58,1,4.58,4.58,0,0,1,.32,6.21,3.71,3.71,0,0,1-5.47.35,4.26,4.26,0,0,1-1.39-3.28A4.38,4.38,0,0,1,47.48,29.24Zm.9,4.68a2.32,2.32,0,0,0,2,1.13,2.2,2.2,0,0,0,1.51-.58,2.87,2.87,0,0,0,1-2.3,3.1,3.1,0,0,0-.52-1.75,2.31,2.31,0,0,0-2-1.13,2.22,2.22,0,0,0-1.51.58,2.9,2.9,0,0,0-1,2.3A3.18,3.18,0,0,0,48.38,33.92Z"/><path d="M59.38,27.85h.72v1.44H58.05v7.2H56.61v-7.2H55.42V27.85h1.21a9.32,9.32,0,0,1,.21-1.51c.4-1.65,1.25-2.47,2.54-2.47h.72v1.44h-.72c-.74,0-1.17.86-1.29,2.54Z"/><path d="M61.63,26.75V25.31h1.46v1.44H61.63Zm0,1.1h1.44v8.64H61.63V27.85Z"/><path d="M65.5,23.53h1.44v13H65.5v-13Z"/><path d="M75.56,34.8a4,4,0,0,1-3.35,1.69,3.75,3.75,0,0,1-2.59-1,4.32,4.32,0,0,1-1.37-3.28,4.47,4.47,0,0,1,1-2.92,3.75,3.75,0,0,1,5.51-.36,4.29,4.29,0,0,1,1.38,3.28v.72h-6.4a3.11,3.11,0,0,0,.43,1,2.3,2.3,0,0,0,2,1.15,2.66,2.66,0,0,0,2.2-1.12Zm-.82-3.35a1.88,1.88,0,0,0-.49-1.13,2.55,2.55,0,0,0-2-1,2.23,2.23,0,0,0-1.06.27,2.65,2.65,0,0,0-1.38,1.89Z"/></g></g></svg>