<svg xmlns="http://www.w3.org/2000/svg" viewBox="0 0 112.66 40.2"><g id="레이어_2" data-name="레이어 2"><g id="Layer_1" data-name="Layer 1"><path d="M16.33,8.07a7.79,7.79,0,0,1-8.17,8.06A7.79,7.79,0,0,1,0,8.07,7.79,7.79,0,0,1,8.16,0,7.79,7.79,0,0,1,16.33,8.07Z"/><path d="M27.38,14.89h-.72V2.65h.54l.11.14,7.61,10.63L34.94,3V2.65h.72V3l0,11.52v.36H35.1L35,14.75,27.38,4.13V14.89Z"/><path d="M39.22,7.64a3.75,3.75,0,0,1,5.53-.33,4.34,4.34,0,0,1,1.35,3.26,4.41,4.41,0,0,1-1.05,2.93,3.74,3.74,0,0,1-5.52.33,4.34,4.34,0,0,1-1.35-3.26A4.47,4.47,0,0,1,39.22,7.64Zm.43,5.25a3,3,0,0,0,4.54.47,3.61,3.61,0,0,0,1.19-2.79,3.78,3.78,0,0,0-.76-2.32,3,3,0,0,0-4.53-.47,3.57,3.57,0,0,0-1.19,2.79A3.83,3.83,0,0,0,39.65,12.89Z"/><path d="M48.62,14.19h.72v.74h-.72v-.74Z"/><path d="M52.81,3V2.29h6.25l-.34.56L56.11,7a3.08,3.08,0,0,1,2.07,1,4.06,4.06,0,0,1,.25,5.58,3.77,3.77,0,0,1-3,1.37,4.17,4.17,0,0,1-2.14-.56,3.06,3.06,0,0,1-1.57-2.16l-.07-.43h.74l0,.29a2.23,2.23,0,0,0,.45,1,3,3,0,0,0,2.54,1.12,3.07,3.07,0,0,0,2-.76,3.18,3.18,0,0,0,1.19-2.55,3,3,0,0,0-.7-2,3.11,3.11,0,0,0-2.54-1.19h-.65l.34-.56L57.76,3H52.81Z"/><path d="M69.08,7h.72v.74h-.72V7Zm0,6.14h.72v.74h-.72v-.74Z"/><path d="M80.26,7.64a3.75,3.75,0,0,1,5.53-.33,4.34,4.34,0,0,1,1.35,3.26,4.41,4.41,0,0,1-1,2.93,3.74,3.74,0,0,1-5.52.33,4.34,4.34,0,0,1-1.35-3.26A4.47,4.47,0,0,1,80.26,7.64Zm.43,5.25a3,3,0,0,0,4.54.47,3.61,3.61,0,0,0,1.19-2.79,3.78,3.78,0,0,0-.76-2.32,3,3,0,0,0-4.54-.47,3.6,3.6,0,0,0-1.18,2.79A3.83,3.83,0,0,0,80.69,12.89Z"/><path d="M90.07,7.82A3.8,3.8,0,0,1,93.4,6.25h.36V7H93.4a3.63,3.63,0,0,0-1.78.43,3.2,3.2,0,0,0-1.6,3v4.48H89.3V6.25H90V7.89Z"/><path d="M95.38,2.65V2.29h.72v5.8c.1-.15.2-.29.32-.44A3.74,3.74,0,0,1,102,7.31a4.34,4.34,0,0,1,1.35,3.26,4.45,4.45,0,0,1-1,2.93,3.71,3.71,0,0,1-2.92,1.39,4.23,4.23,0,0,1-.63-.05,3.84,3.84,0,0,1-2.61-1.79v1.84h-.72V2.65Zm1.49,10.24a3,3,0,0,0,4.52.47,3.61,3.61,0,0,0,1.19-2.79,3.78,3.78,0,0,0-.76-2.32,3,3,0,0,0-4.53-.47,3.63,3.63,0,0,0-1.19,2.81A3.71,3.71,0,0,0,96.87,12.89Z"/><path d="M105.55,4.79V4.07h.74v.72h-.74Zm0,1.46h.72v8.64h-.72V6.25Z"/><path d="M110.16,12.53v.16c.09,1,.81,1.48,2.14,1.48h.36v.72h-.36a3.86,3.86,0,0,1-.58,0,2.18,2.18,0,0,1-2.28-2.32V7H108V6.25h1.46V4h.72V6.25h2.5V7h-2.5Z"/><path d="M2.36,36.49H.92V24.25H2.11l.18.43L6.5,34l4.19-9.33.18-.43h1.19V25l0,10.8v.72H10.64v-.72l0-7.45L7.15,36.06,7,36.49H6l-.18-.43L2.36,28.32v8.17Z"/><path d="M19.85,27.85H21.4l-.38,1L18.36,36a10.42,10.42,0,0,1-1.51,3.39A2.35,2.35,0,0,1,15,40.2h-.72V38.76H15a1.17,1.17,0,0,0,.92-.43,8.93,8.93,0,0,0,1-2.54l-2.63-7-.38-1h1.55l.16.47,2.06,5.4,2-5.4Z"/><path d="M31.09,36.49H29.52l.43-1,4.68-10.8.2-.43h.94l.19.43,4.68,10.8.44,1H39.51l-.2-.43-4-9.27-4,9.27Z"/><path d="M42.5,24.25v-.72h1.44v5.31a3.74,3.74,0,0,1,2.52-1,3.67,3.67,0,0,1,2.57,1,4.26,4.26,0,0,1,1.39,3.28,4.38,4.38,0,0,1-1.06,2.93,3.64,3.64,0,0,1-2.9,1.39,3.68,3.68,0,0,1-2.52-1v1H42.5V24.25Zm1.94,9.67a2.34,2.34,0,0,0,2,1.13A2.22,2.22,0,0,0,48,34.47a2.9,2.9,0,0,0,1-2.3,3.2,3.2,0,0,0-.52-1.75,2.32,2.32,0,0,0-2-1.13,2.25,2.25,0,0,0-1.51.58,2.91,2.91,0,0,0-1,2.32A3.15,3.15,0,0,0,44.44,33.92Z"/><path d="M52.31,26.75V25.31h1.46v1.44H52.31Zm0,1.1h1.44v8.64H52.31V27.85Z"/><path d="M56.18,23.53h1.44v13H56.18v-13Z"/><path d="M59.38,26.75V25.31h1.46v1.44H59.38Zm0,1.1h1.44v8.64H59.38V27.85Z"/><path d="M64.82,34c0,.71.45,1.08,1.31,1.1h.72v1.44h-.72a3.69,3.69,0,0,1-.95-.11A2.19,2.19,0,0,1,63.38,34V29.29H62.17V27.85h1.21V26l0-.7h1.45v2.59h2v1.44h-2Z"/><path d="M73.19,27.85h1.55l-.38,1L71.69,36a10.21,10.21,0,0,1-1.51,3.39,2.35,2.35,0,0,1-1.89.81h-.72V38.76h.72a1.17,1.17,0,0,0,.92-.43,8.64,8.64,0,0,0,1-2.54l-2.63-7-.37-1h1.54l.17.47L71,33.72l2-5.4Z"/></g></g></svg>