<svg xmlns="http://www.w3.org/2000/svg" viewBox="0 0 1108.25 24.41"><g id="레이어_2" data-name="레이어 2"><g id="Layer_1" data-name="Layer 1"><path d="M9.17,24.34V16.85H0V14.69H20.6v2.16H11.44v7.49ZM1.41,11.55V1.23H19.2V11.55ZM3.68,9.39H16.93v-6H3.68Z"/><path d="M24.4,4.86V2.7h5.67V0h2.27V2.7H38V4.86Zm4.28,1.42h5c2,0,3.79,1.72,3.79,4.42s-1.75,4.43-3.79,4.43h-5c-2,0-3.78-1.73-3.78-4.43S26.64,6.28,28.68,6.28ZM26,24.08V16.64h2.26v5.28H43.64v2.16ZM33,13a2.13,2.13,0,0,0,2.27-2.27A2.13,2.13,0,0,0,33,8.44H29.43a2.12,2.12,0,0,0-2.26,2.26A2.13,2.13,0,0,0,29.43,13Zm8,5V.62h2.26V7.43h2.91V9.6H43.18V18Z"/><path d="M48.57,4.86V2.7h5.67V0h2.27V2.7h5.67V4.86Zm4.29,1.42h5c2,0,3.79,1.72,3.79,4.42s-1.74,4.43-3.79,4.43h-5c-2,0-3.79-1.73-3.79-4.43S50.81,6.28,52.86,6.28Zm-2.7,17.8V16.64h2.26v5.28H67.81v2.16Zm7-11.11a2.13,2.13,0,0,0,2.27-2.27,2.13,2.13,0,0,0-2.27-2.26H53.6a2.12,2.12,0,0,0-2.26,2.26A2.13,2.13,0,0,0,53.6,13Zm8,5V.62h2.26V7.43h2.91V9.6H67.35V18Z"/><path d="M82.2,23V1.7H93.43V3.86h-9V20.58L94.7,19.5v2.16Zm15.86,1.08V.62h2.27V24.08Z"/><path d="M105.15,20.14A12.82,12.82,0,0,0,111,9V4h-5.24V1.85h12.75V4h-5.24V9a12.8,12.8,0,0,0,5.83,11.19v2.78a13.78,13.78,0,0,1-7-8.59,13.76,13.76,0,0,1-7,8.59Zm16.42,3.94V.62h2.27v9.62h3V12.4h-3V24.08Z"/><path d="M129.86,8.88V6.15c0-3.65,2.72-5.56,6.06-5.56S142,2.5,142,6.15V8.88c0,3.67-2.73,5.55-6.06,5.55S129.86,12.55,129.86,8.88Zm1.23,15.2V16.23h2.27v5.69h16v2.16Zm8.62-15.31V6.28c0-2.32-1.63-3.53-3.77-3.53S132.13,4,132.13,6.28V8.77c0,2.32,1.63,3.5,3.81,3.5S139.71,11.09,139.71,8.77Zm7,8.8V.62H149v17Z"/><path d="M161.82,20c2-1.9,4-5.58,4-11.16V1.29h2.27V8.8c0,5.58,2,9.26,4,11.16v3A13.65,13.65,0,0,1,167,14.59a13.69,13.69,0,0,1-5.17,8.33Zm8.91-8.38V9.42h4V.62H177V24.08h-2.27V11.58Zm8.65,12.5V.62h2.27V24.08Z"/><path d="M198.92,6.77V.62h2.27V24.08h-2.27V17.29h-4.49V15.13h4.49V8.93h-4c-.93,8.64-4.11,12.81-8.67,14.33V21c5-2,6.69-8.16,6.67-17.11h-6.56V1.7h8.83V3.34c0,1.21,0,2.35-.09,3.43ZM203.55.62h2.27V24.08h-2.27Z"/><path d="M223.27,10.5V.62h2.27V24.08h-2.27V12.66H220v5.58c0,3.06-2,5.14-4.65,5.14s-4.65-2.08-4.65-5.14V6c0-3.06,2-5.14,4.65-5.14S220,2.93,220,6V10.5ZM217.69,6c0-1.77-1-3-2.38-3s-2.39,1.21-2.39,3V18.24c0,1.83,1,3,2.39,3s2.38-1.15,2.38-3Zm10-5.37H230V24.08h-2.27Z"/><path d="M234.28,20.14a14.19,14.19,0,0,0,5.88-11.7V1.29h2.27V8.44a14.21,14.21,0,0,0,5.85,11.7v2.78a15.81,15.81,0,0,1-7-9.29,15.88,15.88,0,0,1-7,9.29Zm11.89-8.67V9.31h5.33V.62h2.27V24.08H251.5V11.47Z"/><path d="M267.28,12V1h2.27V4.19h6.78V1h2.27V12Zm.5,12.09V17.75h6.35V16.26h-6.35V14.1h8.62v5.71h-6.35v1.93l7.19-.59v2.16Zm1.77-14.25h6.78V6.35h-6.78Zm8,6.43V14.1h8V24.34H283.3V16.26Zm5.74-3.35V.62h2.27V5.33h2.9V7.49h-2.9v5.42Z"/><path d="M303.86,10.5V.62h2.27V24.08h-2.27V12.66h-4.15c-1.43,6.15-4.45,9.34-8.49,10.6V21c5.29-2,7.15-8.16,7.13-17.11h-7V1.7h9.28V3.34a47.27,47.27,0,0,1-.5,7.16ZM308.51.62h2.27V24.08h-2.27Z"/><path d="M324,12.35V1h2.27V4.4h7.19V1h2.27V12.35Zm.54,9.57c4.84-.1,8-1.65,8.13-3.65h-7.9V16.1h8V13.79h2.27V16.1h8v2.17h-7.89c.13,2,3.29,3.55,8.12,3.65v2.16c-5-.13-8.33-1.49-9.35-3.5-1,2-4.35,3.37-9.35,3.5Zm1.73-11.73h7.19V6.56h-7.19Zm14.29,4V.62h2.27V14.15Z"/><path d="M348.48,23V1.57h2.27V20.45l10.42-1.13v2.29Zm14.89,1.08V.62h2.27v9.62h3.63V12.4h-3.63V24.08Z"/><path d="M371.52,14.25V12.09h20.6v2.16Zm1.4-5.14V.67h2.27V7h15.64V9.11Zm0,15V16.26h2.27v5.66h15.86v2.16Z"/><path d="M405.38,23V1.7h11.23V3.86h-9V20.58l10.23-1.08v2.16Zm15.86,1.08V.62h2.27V24.08Z"/><path d="M428.33,20.14A12.82,12.82,0,0,0,434.16,9V4h-5.24V1.85h12.75V4h-5.25V9a12.8,12.8,0,0,0,5.84,11.19v2.78a13.78,13.78,0,0,1-7-8.59,13.76,13.76,0,0,1-7,8.59Zm16.42,3.94V.62H447v9.62h3V12.4h-3V24.08Z"/><path d="M453,17.34V6.89a6,6,0,1,1,12,0V17.34a6,6,0,1,1-12,0Zm9.76.13V6.77a3.75,3.75,0,1,0-7.49,0v10.7a3.75,3.75,0,1,0,7.49,0Zm7.05,6.61V.62h2.27V24.08Z"/><path d="M477.75,23V1.57H480V20.45l10.35-1.08v2.29Zm15.87,1.08V11.71h-7V9.54h7V.62h2.26V24.08Z"/><path d="M501.4,21.53c6.49-1.77,10.08-7.51,10-18.19h-9.91V1.85h11.27V3.16c0,11.89-4.17,18.24-11.39,20ZM517.58,24V.69h1.36v9.83h3.54V12h-3.54V24Z"/><path d="M533.52,23.28V21.79l7-.54V14.48h1.36v6.64l7.63-.56v1.49ZM534.86,13V1.36h12V2.88H536.22v8.59h10.84V13ZM551.17,24V.69h1.36V24Z"/><path d="M557.32,23.26V21.74h8.42V11h1.36V21.74h10.73v1.52Zm16.61-5.43,1-14.95H558.82V1.36h17.52l-1.05,16.47Z"/><path d="M581.68,20.86A13.92,13.92,0,0,0,588,9.52v-6h-5.63V2.06H595V3.55h-5.63v6a13.88,13.88,0,0,0,6.35,11.34v1.91a14.62,14.62,0,0,1-7-9.39,14.69,14.69,0,0,1-7,9.39Zm17,3.17V.69H600v9.83h3.27V12H600V24Z"/><path d="M623.52,24.29v-7.9H614V14.87h20.51v1.52h-9.58v7.9Zm-3.29-12.76a5,5,0,0,1-5.17-5.15,5,5,0,0,1,5.17-5.17h7.94a5,5,0,0,1,5.18,5.17,5,5,0,0,1-5.18,5.15ZM628,10a3.68,3.68,0,1,0,0-7.33h-7.53a3.74,3.74,0,0,0-4,3.68,3.72,3.72,0,0,0,4,3.65Z"/><path d="M647.69,24.29V16.23h-9.57V14.74h20.51v1.49h-9.58v8.06Zm-8.57-13.9c4.31-.2,8.44-3.93,8.5-7.17V3.06h-8.28V1.57H657.4V3.06h-8.28v.16c.09,3.24,4.2,7,8.51,7.17v1.5c-4.33-.18-8.35-3.22-9.26-6.69-.9,3.47-4.9,6.51-9.25,6.69Z"/><path d="M676.24,10.8V.69h1.36V24h-1.36V12.3h-4v5.84c0,3-2,5.12-4.56,5.12s-4.58-2.09-4.58-5.12V6c0-3,2-5.11,4.58-5.11S672.25,3,672.25,6V10.8ZM670.89,6a3.23,3.23,0,1,0-6.42,0V18.14a3.23,3.23,0,1,0,6.42,0Zm9.82-5.3h1.36V24h-1.36Z"/><path d="M695.56,7.43V5.81c0-3.39,2.68-5.17,5.94-5.17s6,1.78,6,5.17V7.43c0,3.43-2.66,5.18-6,5.18S695.56,10.86,695.56,7.43Zm5.35,12.35c-.47,2.16-2.79,3.79-5.26,4.25V22.54a5.47,5.47,0,0,0,4.58-5.23V14.92h1.36v2.39a4.32,4.32,0,1,0,8.24,0v-2.6h1.36v2.6a5.44,5.44,0,0,0,4.52,5.28V24c-2.43-.46-4.7-2.09-5.2-4.25-.43,2.06-2.47,3.84-4.81,4.63C703.36,23.59,701.34,21.79,700.91,19.78Zm5.18-12.42V5.92c0-2.47-2-3.76-4.56-3.76s-4.61,1.29-4.61,3.76V7.36c0,2.44,2,3.73,4.61,3.73S706.09,9.8,706.09,7.36Zm6.85,5.94V.69h1.36V13.3Z"/><path d="M718.91,14V12.45h20.51V14Zm1.61-5V.77h1.36V7.46h16V9Zm0,15.08V16.44h1.36v6.1h16.27V24Z"/><path d="M752.55,11.47V1.26h10.16V2.78h-8.8V9.83L764.32,9v1.49Zm1,12.56V18.14h14.84V15.31H753.5V13.82h16.2v5.76H754.86v3h15.29V24Zm14.84-11.55V.69h1.36V5.48h3.45V7H769.7v5.48Z"/><path d="M775.54,12.22V10.7h20.51v1.52Zm5.08-4a3.55,3.55,0,0,1-3.7-3.63A3.55,3.55,0,0,1,780.62,1H791a3.55,3.55,0,0,1,3.7,3.62A3.55,3.55,0,0,1,791,8.23ZM777.15,24V18.57h15.93V16.18H777.15V14.69h17.29V20H778.51v2.53h16.27V24ZM790.81,6.71a2.22,2.22,0,0,0,2.49-2.13c0-1.31-1.09-2.08-2.49-2.08h-10c-1.41,0-2.5.77-2.5,2.08a2.22,2.22,0,0,0,2.5,2.13Z"/><path d="M818.77,8.9c-1.91,3.71-5.61,5.46-10.08,5.69V13.07c4-.23,7.2-1.73,8.88-4.79H809V6.79h9.19a12.54,12.54,0,0,0,.59-4h-10V1.26H820.2v1a16,16,0,0,1-.77,5.17h6.39V.69h1.37V18h-1.37V8.9Zm-7.29,13.64h16.14V24h-17.5V16.85h1.36Z"/><path d="M832.41,10.86A8.12,8.12,0,0,0,837,3.6V1h1.36V3.6a8.16,8.16,0,0,0,4.54,7.26v1.72a8.91,8.91,0,0,1-5.22-6c-.5,2.83-3.09,5.12-5.22,6ZM834.11,24V14.54h1.36v2.85h15.12V14.54H852V24h-1.36v-.82Zm1.36-1.6,15.12-.74V18.91H835.47Zm6.4-16.15V4.76h4.06V.69h1.37V13.35h-1.37V6.28Zm8.72,7.07V.69H852V13.35Z"/><path d="M856.33,23.26V21.74h20.51v1.52Zm6.81-8.9c-3.34,0-5.7-2.86-5.7-6.57s2.36-6.56,5.7-6.56H870c3.33,0,5.69,2.83,5.69,6.56s-2.36,6.57-5.69,6.57Zm6.78-1.52c2.57,0,4.45-2.09,4.45-5s-1.88-5-4.45-5h-6.65c-2.56,0-4.47,2.09-4.47,5s1.91,5.05,4.47,5.05Z"/><path d="M880.5,23.26V21.74h9.58V16.1h1.36v5.64H901v1.52Zm1.61-8.7V7.15H898V2.88H882.11V1.36H899.4V8.64H883.47V13h16.16v1.52Z"/><path d="M913,23.26V21.74h20.51v1.52Zm1.61-9.11V1.23h1.36V5.66H930.5V1.23h1.36V14.15Zm1.36-1.49H930.5V7.15H915.93Z"/><path d="M937.94,14.2V6.66h8.13V2.78h-8.13V1.26h9.49v6.9H939.3v4.42l8.92-.75v1.52ZM939.08,24V16.28h1.36v6.26h16.81V24Zm11.14-6.51V.69h1.36V7.62h4V.69h1.36V17.52h-1.36V9.11h-4v8.41Z"/><path d="M962.66,12.73V1.26h10.12V2.78H964v8.33l10.53-.9v1.5Zm5,2.58h8.87a4.28,4.28,0,0,1,4.42,4.42,4.3,4.3,0,0,1-4.42,4.43h-8.87a4.3,4.3,0,0,1-4.43-4.43A4.28,4.28,0,0,1,967.63,15.31Zm8.8,7.36a2.94,2.94,0,1,0,0-5.87H967.7a2.94,2.94,0,1,0,0,5.87Zm2.7-8.26V.69h1.36V14.41Z"/><path d="M985.88,5.89V4.4h5.37V.31h1.36V4.4H998V5.89Zm.4,11.68V13.89a5.65,5.65,0,1,1,11.3,0v3.68a5.65,5.65,0,1,1-11.3,0Zm9.94-.1V14a4.29,4.29,0,0,0-8.57,0v3.47a4.29,4.29,0,0,0,8.57,0Zm6.4,6.56V.69H1004v10h3.27v1.49H1004V24Z"/><path d="M1010.45,8.33V5.89c0-3.45,2.57-5.25,5.7-5.25,2.38,0,4.42,1,5.26,3h6.42v-3h1.37V14.2h-1.37V10.39h-6.35c-.82,2.11-2.9,3.19-5.33,3.19C1013,13.58,1010.45,11.78,1010.45,8.33Zm15.64,8.93a5.45,5.45,0,0,0,4.51,5.28V24c-2.43-.46-4.69-2.09-5.19-4.25-.43,2.06-2.48,3.84-4.81,4.63-2.34-.82-4.36-2.62-4.79-4.63-.48,2.16-2.79,3.79-5.27,4.25V22.54a5.48,5.48,0,0,0,4.59-5.23V15.36h1.36v1.95a4.32,4.32,0,1,0,8.24,0V15.1h1.36Zm-14.27-9c0,2.49,1.86,3.81,4.35,3.81s4.31-1.32,4.31-3.81V6c0-2.49-1.86-3.83-4.31-3.83s-4.35,1.34-4.35,3.83Zm16-3.06h-6c0,.23,0,.46,0,.69V8.33a5.15,5.15,0,0,1,0,.57h6Z"/><path d="M1033.81,12.5V11h20.51V12.5Zm1.2-5.71c4-.15,8.37-2,8.37-4.91V.64h1.36V1.88c0,2.91,4.41,4.76,8.38,4.91V8.31c-4.36-.15-8.22-2.11-9.06-4.3-.84,2.19-4.69,4.15-9,4.3Zm.41,17.24V14.48h1.36v2.94h14.57V14.48h1.36V24h-1.36v-.67Zm1.36-1.57,14.57-.59v-3h-14.57Z"/><path d="M1059.7,22.87V1.72h1.36v19.4l10.62-1.23v1.57ZM1075.79,24V.69h1.36V24Z"/><path d="M1083.51,22.87v-21h10.75V3.34h-9.39V21.2L1095.29,20v1.5ZM1098.67,24V.69H1100v9.83h3.9V12H1100V24Z"/><path d="M1106.55,23.15V21.22h1.7v1.93Z"/></g></g></svg>