<svg xmlns="http://www.w3.org/2000/svg" viewBox="0 0 246.45 37.4"><g id="레이어_2" data-name="레이어 2"><g id="Layer_1" data-name="Layer 1"><path d="M5.12,5.17A15,15,0,0,1,16.5,0,15.37,15.37,0,0,1,27.94,5.23,19.16,19.16,0,0,1,33,18.7a19.24,19.24,0,0,1-5.12,13.53A15,15,0,0,1,16.5,37.4,15.39,15.39,0,0,1,5.06,32.18,19.2,19.2,0,0,1,0,18.7,19.26,19.26,0,0,1,5.12,5.17ZM7.59,28.38A10.85,10.85,0,0,0,16.5,33a11,11,0,0,0,8.08-3.68,14.94,14.94,0,0,0,4-10.62A15.49,15.49,0,0,0,25.41,9,10.85,10.85,0,0,0,16.5,4.4,11,11,0,0,0,8.42,8.09a14.92,14.92,0,0,0-4,10.61A15.49,15.49,0,0,0,7.59,28.38Z"/><path d="M37.46,11h4.72l.55,1.38,6.82,16.88,6.71-16.88L56.81,11h4.73l-1.21,3L51.59,36,51,37.4h-3L47.52,36,38.67,14Z"/><path d="M87.23,32.23A12.13,12.13,0,0,1,77,37.4a11.35,11.35,0,0,1-7.92-3.19,13.07,13.07,0,0,1-4.18-10A13.56,13.56,0,0,1,68,15.29,11.3,11.3,0,0,1,77,11a11.14,11.14,0,0,1,7.86,3.19,13,13,0,0,1,4.24,10v2.2H69.52a9.45,9.45,0,0,0,1.32,3.08A7,7,0,0,0,77,33a8.15,8.15,0,0,0,6.71-3.41ZM84.7,22a5.74,5.74,0,0,0-1.49-3.46A7.8,7.8,0,0,0,77,15.4a6.8,6.8,0,0,0-3.25.83A8.13,8.13,0,0,0,69.52,22Z"/><path d="M107.14,11h2.2v4.4h-2.2a6.68,6.68,0,0,0-3.3.83q-3.69,2-3.74,7.64V37.4H95.7V11h4.4v2.31A11.46,11.46,0,0,1,107.14,11Z"/><path d="M133.48,0h4.79l.6,1.32,12.32,28.33L163.4,1.32,164,0h4.78l-1.32,3.08-14.24,33-.61,1.32h-2.86l-.6-1.32-14.36-33Z"/><path d="M172.31,7.65V3.25h4.46v4.4h-4.46Zm0,3.35h4.4V37.4h-4.4V11Z"/><path d="M204.27,32.23A12.13,12.13,0,0,1,194,37.4a11.35,11.35,0,0,1-7.92-3.19,13.07,13.07,0,0,1-4.18-10,13.56,13.56,0,0,1,3.13-8.91A11.3,11.3,0,0,1,194,11a11.14,11.14,0,0,1,7.86,3.19,13,13,0,0,1,4.24,10v2.2H186.56a9.24,9.24,0,0,0,1.32,3.08A7,7,0,0,0,194,33a8.15,8.15,0,0,0,6.71-3.41ZM201.74,22a5.74,5.74,0,0,0-1.49-3.46A7.8,7.8,0,0,0,194,15.4a6.8,6.8,0,0,0-3.25.83A8.13,8.13,0,0,0,186.56,22Z"/><path d="M209.82,11h4.57l.49,1.6,4.46,15.94,6.76-16.16.55-1.38h3l.55,1.38,6.77,16.16,4.45-15.94.5-1.6h4.56l-.77,2.8-6.16,22L239,37.4h-3.14L235.34,36l-7.2-17.16L220.93,36l-.55,1.37h-3.13l-.5-1.6-6.16-22Z"/></g></g></svg>