<svg xmlns="http://www.w3.org/2000/svg" viewBox="0 0 800.29 308.49"><g id="레이어_2" data-name="레이어 2"><g id="Layer_1" data-name="Layer 1"><path d="M426.87,204.65a60.91,60.91,0,1,1,60.9-60.91A61,61,0,0,1,426.87,204.65Zm0-120.81a59.91,59.91,0,1,0,59.9,59.9A60,60,0,0,0,426.87,83.84Z"/><path d="M414.39,141.3V129h14.16v2.52H417.39v7l13.29-1v2.52Zm1.26,14.43v-7.38h19.2V146h-19.2v-2.52h22.2v7.23h-19.2v2.46h19.8v2.52Zm19.2-13.59V128.37h3v5.31H442v2.52h-4.19v5.94Z"/><path d="M87,17.08A10.94,10.94,0,0,0,92.1,7.47V3.23H87.46V1.37H98.69V3.23H94.05V7.47a10.94,10.94,0,0,0,5.15,9.61v2.39a11.92,11.92,0,0,1-6.13-7.38A11.88,11.88,0,0,1,87,19.47Zm14.8,3.38V.31h2V20.46Z"/><path d="M114.13,20.68V13h-7.84V11.11H124V13h-7.92v7.71ZM120,9.7l.74-7H107.4V.84h15.49L122,9.7Z"/><path d="M139.51,20.68V14.12h-7.88V12.26h17.71v1.86h-7.88v6.56ZM132.39,8.44c3.86-.13,6.89-3.34,7-5.61h-6.78V1h15.79V2.83h-6.8c.13,2.27,3.14,5.48,7,5.61V10.3c-3.88-.14-7.16-2.54-8.1-5.39-.93,2.85-4.21,5.25-8.09,5.39Z"/><path d="M155.34,20.46l1.42-6.85H151V11.75h14.22v1.86h-6.48l-1.4,6.85ZM156,9.85c-2.26,0-3.84-2.09-3.84-4.64S153.76.57,156,.57h3.82c2.25,0,3.84,2.08,3.84,4.64s-1.59,4.64-3.84,4.64ZM159.57,8c1.23,0,2.16-1.3,2.16-2.79s-.93-2.78-2.16-2.78h-3.28c-1.24,0-2.16,1.28-2.16,2.78S155.05,8,156.29,8Zm6.63,12.46V.31h2V20.46Z"/><path d="M170.62,11.31V9.46h17.71v1.85Zm1.21-3.13V3.45h13.34v-1H171.83V.6h15.29V5.21H173.78V6.32h13.44V8.18Zm0,12.28V15.6h13.34V14.45H171.83V12.59h15.29v4.78H173.78V18.6h13.63v1.86Z"/><path d="M196,11V9.1h6.91V5h1.94V9.1h8.86V11Zm4.1,2h9.51c2,0,3.18,1.79,3.18,3.76s-1.19,3.77-3.18,3.77h-9.51c-2,0-3.18-1.76-3.18-3.77S198.07,13,200.06,13ZM197.19,2.45V.6h15.37l-.51,7.22h-2l.37-5.37Zm12,16.2a1.75,1.75,0,0,0,1.64-1.95,1.7,1.7,0,0,0-1.64-1.87h-8.73a1.69,1.69,0,0,0-1.6,1.87,1.73,1.73,0,0,0,1.6,1.95Z"/><path d="M215.77,10.54a5.59,5.59,0,0,0,4.6-5.83V2.76H216V.91h10.77V2.76h-4.41v2a5.59,5.59,0,0,0,4.6,5.83v2c-2.49-.48-4.93-1.92-5.57-4.55-.67,2.63-3.11,4.07-5.58,4.55Zm1.48,9.92V13.85h1.95V18.6h13.53v1.86Zm8.56-13.3V5.3h4.62v-5h1.95v15h-1.95V7.16Z"/><path d="M235.26,5.19V3.34h4.31V0h2V3.34h4.31V5.19Zm.31,9.72V11.62a5,5,0,0,1,10,0v3.29a5,5,0,0,1-10,0Zm8-.13v-3a3,3,0,1,0-6,0v3a3,3,0,1,0,6,0Zm5.66,5.68V.31h2v8.4h2.61v1.85h-2.61v9.9Z"/><path d="M254.44,12V10.16h17.71V12Zm1.21-4.42V.35h2V5.74H271V7.6Zm0,12.86V13.74h2V18.6h13.63v1.86Z"/><path d="M112.55,50.57l1.3-6.45h-4.64V42.26h17.71v1.86h-4.17v6.45h-2V44.12h-4.94l-1.3,6.45Zm1.89-10.85a4.51,4.51,0,0,1,0-9h7.25a4.51,4.51,0,0,1,0,9Zm6.9-1.85a2.66,2.66,0,1,0,0-5.31h-6.55a2.66,2.66,0,1,0,0,5.31Z"/><path d="M129.33,36V34.84c0-3,2.34-4.55,5.21-4.55s5.21,1.54,5.21,4.55V36c0,3-2.34,4.55-5.21,4.55S129.33,39,129.33,36Zm.94,14.47V45.25H143.8V43.74H130.27V41.89h15.48V47H132.22V48.6H146.1v1.86ZM137.8,35.9V35c0-1.86-1.41-2.81-3.24-2.81s-3.28,1-3.28,2.81v.95c0,1.86,1.41,2.78,3.28,2.78S137.8,37.76,137.8,35.9Zm6,5V30.31h1.95V40.87Z"/><path d="M148.4,34V32.1h4.87V29.78h1.95V32.1h4.88V34Zm3.68,1.21h4.33c1.76,0,3.26,1.48,3.26,3.8s-1.5,3.8-3.26,3.8h-4.33c-1.75,0-3.25-1.48-3.25-3.8S150.33,35.17,152.08,35.17Zm-2.32,15.29V44.07h2V48.6h13.22v1.86Zm6-9.54a1.95,1.95,0,1,0,0-3.89h-3a1.95,1.95,0,1,0,0,3.89Zm6.82,4.33V30.31h1.95v5.85H167V38h-2.5v7.23Z"/><path d="M173.7,47.08a11,11,0,0,0,5-9.61V33.23h-4.5V31.37h11v1.86h-4.51v4.24a11,11,0,0,0,5,9.61v2.39a11.82,11.82,0,0,1-6-7.38,11.86,11.86,0,0,1-6,7.38Zm14.12,3.38V30.31h2v8.26h2.61v1.86h-2.61v10Z"/><path d="M193.66,37.4V35.06c0-3.14,2.24-4.77,5-4.77a4.75,4.75,0,0,1,4.52,2.56h5V30.31h2V44.89h-2V39.77h-5a4.77,4.77,0,0,1-4.44,2.4C195.9,42.17,193.66,40.56,193.66,37.4Zm3,11.2h13.76v1.86H194.72V43.72h1.95Zm-1.06-11.29a3,3,0,0,0,6,0V35.17a3,3,0,1,0-6,0Zm12.52-2.6h-4.54a2.06,2.06,0,0,1,0,.35V37.4a4.1,4.1,0,0,1,0,.51h4.54Z"/><path d="M216.74,50.46l1.43-6.85h-5.75V41.75h14.21v1.86h-6.47l-1.41,6.85Zm.69-10.61c-2.27,0-3.84-2.09-3.84-4.64s1.57-4.64,3.84-4.64h3.82c2.24,0,3.84,2.08,3.84,4.64s-1.6,4.64-3.84,4.64ZM221,38c1.22,0,2.16-1.3,2.16-2.79s-.94-2.78-2.16-2.78H217.7c-1.25,0-2.16,1.28-2.16,2.78S216.45,38,217.7,38Zm6.63,12.46V30.31h1.95V50.46Z"/><path d="M232.34,39.54a6.66,6.66,0,0,0,4.52-6v-3h1.95v3c0,2.87,2.25,5,4.53,5.85v2c-2.38-.73-4.82-2.59-5.5-4.8-.69,2.26-3.16,4.16-5.5,4.91Zm5,3.36h8.27a3.84,3.84,0,0,1,0,7.67h-8.27a3.84,3.84,0,0,1,0-7.67Zm8.15,5.81a2,2,0,1,0,0-4h-8a2,2,0,0,0,0,4ZM242.28,36V34.11H247v-3.8H249V42.2H247V36Z"/><path d="M536.1,142.4v-9.94h1.95v3.12h5.84v-3.12h2v9.94Zm.82,9.86v-7.73h14.9v7.73h-2v-.64Zm1.13-11.54h5.84v-3.46h-5.84Zm.82,9.59,11-.55v-3.38h-11Zm11-6.8v-11.4h2v4.28h2.5v2h-2.5v5.17Z"/><path d="M561.13,137v-1.86h4.31V131.8h1.95v3.33h4.31V137Zm.32,9.72v-3.29a5,5,0,0,1,9.94,0v3.29a5,5,0,0,1-9.94,0Zm8-.13v-3a3,3,0,1,0-6,0v3a3,3,0,1,0,6,0Zm5.66,5.68V132.11h1.95v8.39h2.61v1.86h-2.61v9.9Z"/><path d="M580.32,142.05V140.2H598v1.85Zm1.21-3.73v-6.17h2v4.31h13.43v1.86Zm0,13.94V147h13.33v-1.43H581.53v-1.86h15.28v5.15H583.48v1.5h13.63v1.86Z"/><path d="M599.81,142.29v-1.85h17.71v1.85Zm4.29-3.51a3.25,3.25,0,1,1,0-6.49h9.13a3.25,3.25,0,1,1,0,6.49ZM601,152.26v-5.08h13.34v-1.35H601V144h15.29v5H603v1.46H616.6v1.86ZM613,136.92a1.44,1.44,0,0,0,1.6-1.41,1.42,1.42,0,0,0-1.6-1.37h-8.58a1.42,1.42,0,0,0-1.6,1.37,1.44,1.44,0,0,0,1.6,1.41Z"/><path d="M625.78,141.87v-9.41h2v2.72h5.83v-2.72h2v9.41Zm.43,10.39v-5.44h5.46v-1.28h-5.46v-1.85h7.41v4.9h-5.46v1.66l6.18-.51v1.86ZM627.73,140h5.83v-3h-5.83Zm6.88,5.52v-1.85h6.88v8.79h-2v-6.94Zm4.93-2.87V132.11h2v4H644V138h-2.5v4.66Z"/><path d="M655.94,140.59v-8.48h1.95v20.15h-1.95v-9.81h-3.57c-1.23,5.28-3.82,8-7.29,9.1v-2c4.54-1.72,6.14-7,6.12-14.69h-6V133h8v1.41a41.12,41.12,0,0,1-.43,6.14Zm4-8.48h1.95v20.15h-1.95Z"/><path d="M670.73,151.33V133h1.95v5.86h6.18V133h1.95v18.36h-1.95v-1.06Zm1.95-2.12,6.18-.82v-7.71h-6.18Zm12.27,3V132.11h1.95v20.15Z"/><path d="M707.19,143.22h-7.88v2.12H706v6.92h-2v-.66l-13.34.66v-6.92h6.67v-2.12h-7.88v-1.85h17.71Zm-16.81-3v-1.86c3.74-.09,6.94-1.5,6.94-3.18v0h-6.63V133.3h6.67v-1.72h1.95v1.72H706v1.86h-6.63v0c0,1.68,3.2,3.09,6.94,3.18v1.86c-3.88-.11-7-1.33-7.95-3.07C697.42,138.89,694.26,140.11,690.38,140.22ZM704,149.74V147.2H692.64v3.11Z"/><path d="M384.92,256.94v-9.06h9.2v1.86h-7.25v5.17l8.64-.71v1.86Zm.82,10.63v-5.43h12.48v-1.71H385.74v-1.85h14.43v5.32H387.69v1.81h12.87v1.86Zm12.48-10V247.42h1.95v3.91h2.73v1.86h-2.73v4.37Z"/><path d="M403.79,266.53v-1.85l13.77-1v1.86ZM404.86,255v-2.39c0-3.31,2.44-5,5.39-5s5.38,1.68,5.38,5V255c0,3.31-2.46,5-5.38,5S404.86,258.29,404.86,255Zm8.82,0v-2.43a3.45,3.45,0,0,0-6.87,0V255c0,1.92,1.52,3.07,3.44,3.07S413.68,256.92,413.68,255Zm4.85,12.57V247.42h2v20.15Z"/><path d="M433.11,267.57l1.42-6.85h-5.75v-1.85H443v1.85h-6.48l-1.4,6.85Zm.68-10.6c-2.26,0-3.84-2.1-3.84-4.64s1.58-4.64,3.84-4.64h3.83c2.24,0,3.84,2.07,3.84,4.64s-1.6,4.64-3.84,4.64Zm3.55-1.86c1.23,0,2.17-1.3,2.17-2.78s-.94-2.79-2.17-2.79h-3.27c-1.25,0-2.17,1.28-2.17,2.79s.92,2.78,2.17,2.78ZM444,267.57V247.42h1.95v20.15Z"/><path d="M448.7,256.41a7,7,0,0,0,4.72-6.29v-2.46h1.95v2.46c0,3,2.34,5.21,4.72,6.07v2c-2.45-.75-5-2.67-5.69-5-.7,2.41-3.28,4.4-5.7,5.2Zm4.74,3.74h8a3.77,3.77,0,1,1,0,7.53h-8a3.77,3.77,0,1,1,0-7.53Zm7.88,5.68a1.92,1.92,0,1,0,0-3.83h-7.76a1.92,1.92,0,1,0,0,3.83Zm1.46-6.52V247.42h2v4.42h2.5v1.86h-2.5v5.61Z"/><rect x="290.92" y="29.52" width="70" height="0.6"/><rect x="297.11" y="258.44" width="70" height="0.6"/><rect x="621.03" y="165.7" width="0.6" height="70"/><path d="M383.3,17.45A10.59,10.59,0,0,0,386.22,10V4.72h.9V10A10.68,10.68,0,0,0,390,17.45v1.32a9.64,9.64,0,0,1-3.37-6.07,9.64,9.64,0,0,1-3.37,6.07Zm5.93-6.3v-1h3V4.27h.89V19.6h-.89V11.15Zm6,8.45V4.27h.89V19.6Z"/><path d="M398.77,11.45c1.75-.67,3.88-2.52,3.88-4.9V4.47h.89V6.55c0,2.3,2.14,4.07,3.88,4.73v1.07c-1.8-.59-3.92-2.2-4.32-4.06-.41,1.94-2.54,3.62-4.33,4.23ZM402.43,14h5.88a2.83,2.83,0,1,1,0,5.65h-5.88a2.83,2.83,0,1,1,0-5.65Zm5.84,4.66a1.85,1.85,0,1,0,0-3.68h-5.8a1.85,1.85,0,1,0,0,3.68Zm1.63-5.39v-9h.89V7.78h2v1h-2v4.53Z"/><path d="M414.1,18.67v-1l10.52-.79v1Zm.82-8.71V8.27a4.06,4.06,0,0,1,8.11,0V10c0,2.51-1.84,3.82-4.06,3.82S414.92,12.47,414.92,10Zm7.21,0V8.27a3.18,3.18,0,0,0-6.32,0V10a3.18,3.18,0,0,0,6.32,0Zm3.57,9.64V4.27h.89V19.6Z"/><path d="M434.13,19.09v-1h13.48v1Zm.58-12v-1h5.71V3.84h.9V6.13H447v1Zm3.4,1.64h5.52a2.88,2.88,0,0,1,3,3,2.89,2.89,0,0,1-3,3h-5.52a2.88,2.88,0,0,1-3-3A2.88,2.88,0,0,1,438.11,8.76Zm5.43,5a2,2,0,1,0,0-4H438.2a2,2,0,1,0,0,4Z"/><path d="M449.49,13.12v-1H463v1Zm1.06-2.58V7H461V5.52H450.55v-1h11.36V8H451.44V9.56H462v1Zm0,9.06V14.82h11.36V19.6H461v-.52Zm.89-1L461,18.1V15.81h-9.57Z"/><path d="M464.84,11.84v-1h13.48v1Zm3.34-2.62a2.33,2.33,0,0,1-2.43-2.38,2.34,2.34,0,0,1,2.43-2.39H475a2.34,2.34,0,0,1,2.43,2.39A2.33,2.33,0,0,1,475,9.22ZM465.9,19.6V16h10.47V14.44H465.9v-1h11.36V17H466.8v1.66h10.68v1Zm9-11.38a1.46,1.46,0,0,0,1.64-1.4c0-.86-.72-1.37-1.64-1.37h-6.59c-.93,0-1.64.51-1.64,1.37a1.45,1.45,0,0,0,1.64,1.4Z"/><path d="M485.12,13.43v-1l3.63-.22v-4h.9v3.95l5.78-.34v1Zm7.27-2.82.43-5h-7v-1h7.94l-.51,6Zm-5.75,9V14.88h.89v3.74H497.7v1Zm9.87-3.4V4.27h.89v5h2v1h-2v6Z"/><path d="M500.74,10.83a4.51,4.51,0,0,0,3.87-4.25v0h-3.72v-1h3.72V3.84h.9V5.53h3.73v1h-3.72v0a4.51,4.51,0,0,0,3.87,4.25v1.08c-1.94-.41-3.94-1.61-4.33-3.7-.37,2.09-2.37,3.29-4.32,3.7Zm.89,8.77V15.9h10.23V14.21H501.63v-1h11.12v3.63H502.53v1.78h10.52v1Zm10.23-7.25V4.27h.89V7.44h2v1h-2v3.93Z"/><path d="M516.09,7.68v-1h3.54V4h.89V6.7h3.53v1Zm.27,7.68V12.94a3.72,3.72,0,1,1,7.43,0v2.42a3.72,3.72,0,1,1-7.43,0Zm6.53-.07V13a2.82,2.82,0,0,0-5.63,0v2.28a2.82,2.82,0,0,0,5.63,0Zm4.21,4.31V4.27H528v6.59h2.15v1H528V19.6Z"/><path d="M531.18,19.09v-1h5.53V11h.89V18.1h7.06v1Zm10.91-3.56.64-9.83H532.16v-1h11.51L543,15.53Z"/><path d="M551.45,10.94h13.48v1H551.45Zm2,6.09v1.59h10.68v1H552.51V16.08H563v-1.5H552.51v-1h11.36V17Zm9.43-9.77L563,5.52H552.56v-1h11.38L563.51,10h-.89l.15-1.79H552.7v-1Z"/><path d="M567.34,18.84V11h6.37V6h-6.37V5h7.26v7h-6.36v5.71l7.54-.81v1Zm10.74.76V4.27H579v6.59h2.15v1H579V19.6Z"/><path d="M582.7,15.17V8.31a3.86,3.86,0,1,1,7.72,0v6.86a3.86,3.86,0,1,1-7.72,0Zm6.83.05v-7a3,3,0,0,0-5.94,0v7a3,3,0,0,0,5.94,0Zm4.57,4.38V4.27h.9V19.6Z"/><path d="M605.54,9.61a3.75,3.75,0,0,1-7.49,0V7.87a3.75,3.75,0,0,1,7.49,0v.42h3.93v-4h.9V15.32h-.9v-6h-3.93Zm-5.73,9h10.84v1H598.92V14.51h.89ZM599,9.56a2.85,2.85,0,0,0,5.69,0V7.93a2.85,2.85,0,0,0-5.69,0Z"/><path d="M612.87,19.09v-1h13.48v1ZM613.93,5.7v-1h11.36v1Zm0,8.05V8.09h11.3v1H614.82v3.7h10.62v1Z"/><path d="M628.46,18.67v-1L639,16.88v1Zm.82-8.71V8.27a4.06,4.06,0,0,1,8.11,0V10c0,2.51-1.83,3.82-4,3.82S629.28,12.47,629.28,10Zm7.22,0V8.27a3.18,3.18,0,0,0-6.32,0V10a3.18,3.18,0,0,0,6.32,0Zm3.56,9.64V4.27h.9V19.6Z"/><path d="M384.28,48.84V34.94h.9V47.69l7-.81v1Zm10.57.76V34.27h.9V49.6Z"/><path d="M398.51,49.09v-1H412v1Zm.65-6.71c2.7-.13,5.62-2.43,5.62-5V35.82h-5.47v-1h11.87v1h-5.47v1.54c0,2.59,2.93,4.89,5.62,5v1c-2.85-.13-5.48-2.11-6.09-4.33-.61,2.22-3.23,4.2-6.08,4.33Z"/><path d="M413.86,42.43v-1h13.48v1Zm1.06-2.37V36.79h10.46V35.52H414.92v-1h11.36v3.19H415.81v1.34h10.54v1Zm0,9.54V46.22h10.46V44.85H414.92v-1h11.36v3.32H415.81v1.45H426.5v1Z"/><path d="M434.4,48.84v-1h2.37l-.4-11h.89l.39,11h2.74l.39-11h.9l-.41,11h2.34v1ZM434.55,36V35h8.92v1ZM445.4,49.6V34.27h.9v6.45h2.14v1H446.3V49.6Z"/><path d="M449.9,39.05v-1.3a3.75,3.75,0,0,1,7.49,0v1.3a3.42,3.42,0,0,1-3.74,3.52C451.59,42.57,449.9,41.38,449.9,39.05Zm11,10.72V45H450.5V44h11.27v5.75ZM456.49,39V37.82a2.86,2.86,0,0,0-5.69,0V39c0,1.67,1.22,2.57,2.86,2.57A2.54,2.54,0,0,0,456.49,39Zm4.39,4.14V34.27h.89v3.51h2v1h-2v4.38Z"/><path d="M465.11,37.68v-1h3.53V34h.9V36.7h3.53v1Zm.27,7.68V42.94a3.71,3.71,0,1,1,7.42,0v2.42a3.71,3.71,0,1,1-7.42,0Zm6.53-.07V43a2.82,2.82,0,0,0-5.64,0v2.28a2.82,2.82,0,0,0,5.64,0Zm4.2,4.31V34.27h.9v6.59h2.14v1H477V49.6Z"/><path d="M480.2,43V42h13.47v1Zm1.06-3.3V34.32h.89v4.39h10.54v1Zm0,9.91v-5h.89v4h10.69v1Z"/><path d="M501.6,48.84V35h7.08v1H502.5V47.74l6.94-.81v1Zm10.57.76V34.27h.9V49.6Z"/><path d="M515.94,47.52a9.15,9.15,0,0,0,4.16-7.46V36.14h-3.69v-1h8.28v1H521v3.92a9.13,9.13,0,0,0,4.17,7.46v1.25a9.58,9.58,0,0,1-4.62-6.17,9.6,9.6,0,0,1-4.61,6.17ZM527.1,49.6V34.27H528v6.45h2.15v1H528V49.6Z"/><path d="M531.72,45.17V38.31a3.86,3.86,0,1,1,7.72,0v6.86a3.86,3.86,0,1,1-7.72,0Zm6.82,0v-7a3,3,0,0,0-5.93,0v7a3,3,0,0,0,5.93,0Zm4.58,4.38V34.27H544V49.6Z"/><path d="M547.55,48.84V34.94h.89V47.69l7-.81v1Zm10.57.76V41.27h-4.91v-1h4.91v-6H559V49.6Z"/><path d="M536.94,276.26a9.17,9.17,0,0,0,4.16-7.46v-3.92h-3.7v-1h8.29v1H542v3.92a9.13,9.13,0,0,0,4.18,7.46v1.25a9.61,9.61,0,0,1-4.63-6.17,9.61,9.61,0,0,1-4.6,6.17Zm11.15,2.08V263H549v6.46h2.15v1H549v7.88Z"/><path d="M552.44,270.85c1.72-.68,3.8-2.54,3.8-5v-2.67h.9v2.67c0,2.43,2.08,4.29,3.8,5v1.08c-1.77-.64-3.85-2.33-4.25-4.3-.39,2-2.49,3.66-4.25,4.3Zm1.25,7.49v-5.09h.9v4.11h10.6v1ZM564,274.19V263h.9v11.19Z"/><path d="M568.06,273.91V267a3.87,3.87,0,1,1,7.73,0v6.87a3.87,3.87,0,1,1-7.73,0Zm6.83,0v-7a3,3,0,0,0-5.93,0v7a3,3,0,0,0,5.93,0Zm4.58,4.38V263h.89v15.34Z"/><path d="M588.26,276.7c4.27-1.17,6.62-4.94,6.59-12h-6.51v-1h7.41v.86c0,7.82-2.75,12-7.49,13.13Zm10.63,1.64V263h.9v6.46h2.32v1h-2.32v7.88Z"/><path d="M603.69,273.91V267a3.71,3.71,0,1,1,7.4,0v6.87a3.71,3.71,0,1,1-7.4,0Zm6.5,0v-7a2.8,2.8,0,1,0-5.6,0v7a2.8,2.8,0,1,0,5.6,0Zm4.24,4.38V263h.89v4h2.12v1h-2.12v4.4h2.12v1h-2.12v4.94Z"/><path d="M618.66,265.49v-1h4v-1.91h.89v1.91h4v1Zm2.55,1h3.7a2.23,2.23,0,0,1,0,4.46h-3.7a2.23,2.23,0,0,1,0-4.46Zm-1.54,11.84V274.8H629.9v-1.57H619.67v-1h11.12v3.5H620.57v1.61h10.52v1Zm5.1-8.36a1.26,1.26,0,1,0,0-2.5h-3.43a1.26,1.26,0,1,0,0,2.5Zm5.13,1.39V263h.89v3.52h2v1h-2v3.87Z"/><path d="M639.25,269.41c4.08-.14,6.75-1.25,6.75-5h-6.68v-1h7.57v.71c0,4.82-3.28,6.19-7.64,6.31Zm.82,8.93v-3.88H650.5v-1.87H640.07v-1H651.4v3.8H641v1.95h10.72v1Zm10.43-7.61V263h.9v7.73Z"/><path d="M654.14,270.58v-1h13.48v1Zm3.34-2.62a2.39,2.39,0,1,1,0-4.77h6.8a2.39,2.39,0,1,1,0,4.77Zm-2.28,10.38v-3.59h10.46v-1.57H655.2v-1h11.36v3.5H656.09v1.66h10.69v1Zm9-11.38a1.46,1.46,0,0,0,1.64-1.41c0-.86-.71-1.36-1.64-1.36h-6.59c-.92,0-1.64.5-1.64,1.36a1.47,1.47,0,0,0,1.64,1.41Z"/><path d="M675,270.29v-7h.89v2.32h5.47v-2.32h.9v7Zm.33,8v-3.88h4.6v-1.52h-4.6v-1h5.5v3.46h-4.61v1.86l5.19-.42v1Zm.56-9h5.47v-2.72h-5.47Zm5.82,3.63v-1h5v6.56h-.9v-5.57Zm4.14-1.86V263h.9v3.28h2v1h-2v3.82Z"/><path d="M698.73,269.65V263h.89v15.34h-.89v-7.71h-3.18c-.89,4.05-2.79,6.24-5.4,7.12V276.7c3.49-1.34,5.1-5.35,5.07-12h-5v-1h5.89v.78a31.74,31.74,0,0,1-.38,5.11Zm3.14-6.65h.9v15.34h-.9Z"/><path d="M710.7,277.58V263.7h.89v4.75h5.68V263.7h.9v13.88h-.9v-.87Zm.89-1.14,5.68-.72v-6.28h-5.68Zm10.27,1.9V263h.9v15.34Z"/><path d="M731.69,278.51v-5h-6.3v-1h13.48v1h-6.29v5Zm-5.64-8.63c2.67-.13,5.55-2.13,5.62-4.53v-.1H726.2v-1h5.49v-1.69h.89v1.69h5.49v1h-5.48v.1c.09,2.4,3,4.4,5.62,4.53v1c-2.84-.13-5.47-2-6.08-4.09-.61,2.11-3.23,4-6.08,4.09Z"/><path d="M752.69,263h.89v15.34h-.89v-7.68h-4v3.25a3.7,3.7,0,1,1-7.39,0V267a3.7,3.7,0,1,1,7.39,0v2.64h4Zm-4.9,4a2.81,2.81,0,1,0-5.61,0v7a2.81,2.81,0,1,0,5.61,0Z"/><path d="M538,307.58V293.76H545v1h-6.18v11.74l6.94-.81v1Zm10.57.76V293h.9v15.34Z"/><path d="M552.29,306.26a9.17,9.17,0,0,0,4.16-7.46v-3.92h-3.7v-1H561v1h-3.69v3.92a9.15,9.15,0,0,0,4.17,7.46v1.25a9.6,9.6,0,0,1-4.62-6.17,9.62,9.62,0,0,1-4.61,6.17Zm11.15,2.08V293h.9v6.46h2.15v1h-2.15v7.88Z"/><path d="M568.06,303.91V297a3.87,3.87,0,1,1,7.73,0v6.87a3.87,3.87,0,1,1-7.73,0Zm6.83,0v-7a3,3,0,0,0-5.93,0v7a3,3,0,0,0,5.93,0Zm4.58,4.38V293h.89v15.34Z"/><path d="M583.9,307.58v-13.9h.89v12.75l7-.81v1Zm10.57.76V300h-4.91v-1h4.91v-6h.89v15.34Z"/><path d="M598.24,307.83v-1h6.29v-3.7h.89v3.7h6.29v1Zm1.06-5.71v-4.87h10.46v-2.81H599.3v-1h11.36v4.79H600.19v2.89H610.8v1Z"/><path d="M613.71,306.26a9.77,9.77,0,0,0,4.17-7.66v-5.14h.9v5.14a9.77,9.77,0,0,0,4.17,7.66v1.25a10.53,10.53,0,0,1-4.62-6.44,10.49,10.49,0,0,1-4.62,6.44Zm7.95-6.41v-1h3.75V293h.9v15.34h-.9v-8.49Z"/><path d="M633.87,300.44v-1h13.47v1Zm.84-6.19v-1h5.37L639,298.06H638l.94-3.81Zm.26,14.07V302h.89v5.34h4v1Zm5-4.4v-1h3.09v-1.43H644v1.43h3.09v1Zm1.91.75h3.27a1.9,1.9,0,0,1,0,3.75H641.9a1.9,1.9,0,0,1,0-3.75Zm-1.12-10.42v-1h5.59l-.73,4.79h-.91l.61-3.81ZM645,307.42a.88.88,0,0,0,0-1.75h-2.91a.88.88,0,0,0,0,1.75Z"/><path d="M649.76,297.57v-1.2c0-2.24,1.76-3.4,3.9-3.4s3.91,1.16,3.91,3.4v1.2c0,2.25-1.75,3.39-3.91,3.39S649.76,299.82,649.76,297.57Zm.74,10.77v-6.11h11.57v6.11h-.89v-.53Zm6.17-10.82v-1.09c0-1.62-1.28-2.46-3-2.46s-3,.84-3,2.46v1.09c0,1.6,1.3,2.45,3,2.45S656.67,299.12,656.67,297.52Zm-5.27,9.79,9.78-.49v-3.61H651.4Zm9.78-6V293h.89v8.35Z"/><path d="M677.51,297.33v.07c0,2.25-1.68,3.4-3.74,3.4s-3.74-1.15-3.74-3.4v-1c0-2.24,1.68-3.4,3.74-3.4s3.73,1.16,3.74,3.38h3.94V293h.89v8.25h-.89v-3.92Zm-2.17,6.58v-2h.89v6.53h-.89v-.58l-4.67.58V302h.9v2Zm1.28-7.48c0-1.62-1.22-2.46-2.83-2.46s-2.87.84-2.87,2.46v.92c0,1.6,1.23,2.45,2.87,2.45s2.83-.85,2.83-2.45Zm-1.28,10.49v-2h-3.77v2.48Zm5.29-3.55a4.18,4.18,0,0,0,2.83,4v1a4.65,4.65,0,0,1-3.28-3.16,4.68,4.68,0,0,1-3.28,3.16v-1a4.18,4.18,0,0,0,2.83-4v-1.58h.9Z"/><path d="M685.38,303.91V297a3.87,3.87,0,1,1,7.73,0v6.87a3.87,3.87,0,1,1-7.73,0Zm6.83,0v-7a3,3,0,0,0-5.93,0v7a3,3,0,0,0,5.93,0Zm4.58,4.38V293h.89v15.34Z"/><path d="M705.39,300.39c1.68-.66,3.73-2.43,3.73-4.75v-2.43H710v2.43c0,2.27,2.06,4,3.73,4.63v1.08c-1.75-.59-3.77-2.16-4.18-4-.38,1.86-2.44,3.48-4.17,4.09Zm3.89,2.25h6.07a2.89,2.89,0,1,1,0,5.78h-6.07a2.89,2.89,0,1,1,0-5.78Zm6,4.8a1.91,1.91,0,1,0,0-3.8h-6a1.91,1.91,0,1,0,0,3.8Zm-2.23-10.28v-1H717V293h.89v9.05H717v-4.89Z"/><path d="M720.74,300.21a4.83,4.83,0,0,0,3.88-4.92v-.8h-3.73v-1h8.35v1h-3.73v.8a4.7,4.7,0,0,0,3.88,4.75v1.08c-1.95-.41-3.95-1.69-4.32-3.89a5.26,5.26,0,0,1-4.33,4.06Zm3.54,2.4h6a2.91,2.91,0,0,1,0,5.81h-6a2.91,2.91,0,1,1,0-5.81Zm6,4.83a1.93,1.93,0,1,0,0-3.85h-5.92a1.93,1.93,0,1,0,0,3.85Zm1.63-5.43v-9h.89v3.54h2v1h-2V302Z"/><path d="M736.1,296.42v-1h3.53v-2.69h.9v2.69h3.53v1Zm.27,7.67v-2.41a3.71,3.71,0,1,1,7.42,0v2.41a3.71,3.71,0,1,1-7.42,0Zm6.53-.06v-2.29a2.82,2.82,0,0,0-5.64,0V304a2.82,2.82,0,0,0,5.64,0Zm4.2,4.31V293h.9v6.6h2.14v1H748v7.76Z"/><path d="M751.18,301.73v-1h13.48v1Zm1.06-3.3v-5.38h.9v4.4h10.54v1Zm0,9.91v-5h.9v4h10.69v1Z"/><path d="M771.46,307.83v-1h6.29v-4.16h.89v4.16h6.29v1Zm1.06-6.19v-8.2h11.36v8.2Zm.89-1H783v-6.22h-9.57Z"/><path d="M786.81,300.76v-1h13.48v1Zm.79-3.75c2.63-.1,5.5-1.32,5.5-3.23V293h.9v.81c0,1.91,2.89,3.13,5.5,3.23v1c-2.86-.1-5.4-1.39-6-2.83-.55,1.44-3.09,2.73-5.95,2.83Zm.27,11.33v-6.28h.9V304h9.57v-1.93h.89v6.28h-.89v-.44Zm.9-1,9.57-.39V305h-9.57Z"/><path d="M102.58,237.9h.89v15.33h-.89v-4.55h-4v.12a3.71,3.71,0,1,1-7.4,0v-6.86a3.71,3.71,0,1,1,7.4,0h4Zm-4.91,4a2.8,2.8,0,1,0-5.6,0v7a2.8,2.8,0,1,0,5.6,0Zm4.91,5.81v-4.82h-4v4.82Z"/><path d="M106.65,252.47v-7.81h5.48l.51-5h-6v-1h7l-.66,7h-5.41v5.71l7.63-.81v1Zm11.28.76v-8.44h-3.55v-1h3.55V237.9h.9v15.33Z"/><path d="M121.81,251.59c4.26-1.17,6.62-4.94,6.59-12h-6.52v-1h7.41v.86c0,7.81-2.74,12-7.48,13.12Zm10.63,1.64V237.9h.89v6.46h2.33v1h-2.33v7.88Z"/><path d="M136.82,251.15a9.1,9.1,0,0,0,4.25-7.45v-3.93h-3.79v-1h8.47v1H142v3.93a9.11,9.11,0,0,0,4.26,7.45v1.25a9.65,9.65,0,0,1-4.71-6.17,9.56,9.56,0,0,1-4.69,6.17Zm11.7,2.08V237.9h.9v15.33Z"/><path d="M157,246.94v-1h13.48v1h-6.28v3.42h-.89v-3.42ZM158,244.1v-6.17h.9v2h9.57v-2h.89v6.17Zm0,9.13v-4.34h.9v3.36h10.68v1Zm.9-10.11h9.57v-2.25h-9.57Z"/><path d="M172.86,248.8v-6.86a3.71,3.71,0,1,1,7.4,0v6.86a3.71,3.71,0,1,1-7.4,0Zm6.5,0v-7a2.8,2.8,0,1,0-5.6,0v7a2.8,2.8,0,1,0,5.6,0Zm4.24,4.38V237.9h.89v4h2.12v1h-2.12v4.39h2.12v1h-2.12v4.94Z"/><path d="M187.68,246.06v-1h13.48v1Zm1.06-2.36v-3.28h10.47v-1.27H188.74v-1H200.1v3.19H189.63v1.34h10.54v1Zm0,9.53v-3.38h10.47v-1.37H188.74v-1H200.1v3.32H189.63v1.45h10.69v1Z"/><path d="M208.1,240.38v-1h4v-1.91h.9v1.91h4v1Zm2.6,1.2h3.62a2.48,2.48,0,0,1,0,4.92H210.7a2.47,2.47,0,0,1,0-4.92Zm-1.61,7.53v-1h11.15v5.28h-.9v-4.29Zm5-3.59a1.48,1.48,0,1,0,0-3h-3.13a1.48,1.48,0,1,0,0,3Zm5.27,1.73V237.9h.9v3.68h2v1h-2v4.69Z"/><path d="M223.31,245.66v-1h13.48v1Zm.79-3.76c2.62-.1,5.5-1.32,5.5-3.23v-.81h.9v.81c0,1.91,2.89,3.13,5.5,3.23v1c-2.87-.1-5.4-1.39-5.95-2.82-.55,1.43-3.09,2.72-6,2.82Zm.27,11.33V247h.89v1.93h9.57V247h.9v6.27h-.9v-.44Zm.89-1,9.57-.39v-1.94h-9.57Z"/><path d="M238.93,241.31v-1h3.53v-2.69h.9v2.69h3.53v1Zm.27,7.68v-2.42a3.71,3.71,0,1,1,7.42,0V249a3.71,3.71,0,1,1-7.42,0Zm6.53-.07v-2.28a2.82,2.82,0,0,0-5.64,0v2.28a2.82,2.82,0,0,0,5.64,0Zm4.2,4.31V237.9h.9v6.59H253v1h-2.15v7.76Z"/><path d="M266,237.9h.89v15.33H266v-4.58h-4.14v3.82h-.9v-.85l-6.25.85V238.66h7.15v3.19H266Zm-5,12.73v-11h-5.35v11.68Zm5-3v-4.8h-4.14v4.8Z"/><path d="M0,282.47V268.66H7.07v1H.89v11.73l6.85-.81v1Zm10,.76V267.9h.89v6.46h2.57v1H10.85v7.88Z"/><path d="M14.88,272.75v-1.44c0-2.26,1.68-3.45,3.74-3.45s3.74,1.19,3.74,3.45v1.44c0,2.26-1.68,3.45-3.74,3.45S14.88,275,14.88,272.75Zm3.38,10.57a2.9,2.9,0,1,1,0-5.79h6a2.9,2.9,0,1,1,0,5.79Zm3.21-10.62v-1.32c0-1.64-1.23-2.52-2.84-2.52s-2.86.88-2.86,2.52v1.32c0,1.64,1.22,2.5,2.86,2.5S21.47,274.34,21.47,272.7Zm2.75,9.63a1.91,1.91,0,1,0,0-3.8H18.31a1.91,1.91,0,1,0,0,3.8Zm1.63-5.42v-9h.89v2h2v1h-2v2.22h2v1h-2v2.78Z"/><path d="M30,270.38v-1h3.95v-1.91h.9v1.91h3.95v1Zm2.75,1.2H36c1.31,0,2.34,1.13,2.34,2.84s-1,2.86-2.34,2.86H32.71c-1.32,0-2.36-1.15-2.36-2.86S31.39,271.58,32.71,271.58ZM31.1,283.23v-4.8H32v3.82H42.4v1Zm4.68-7a1.87,1.87,0,0,0,0-3.72H33a1.87,1.87,0,0,0,0,3.72Zm5.42,3V267.9h.9v4.65h2v1h-2v5.75Z"/><path d="M50.09,282.72v-1h6.29v-4.16h.89v4.16h6.29v1Zm1.06-6.18v-8.2H62.51v8.2Zm.89-1h9.57v-6.23H52Z"/><path d="M65.44,275.66v-1H78.92v1Zm.79-3.76c2.63-.1,5.5-1.32,5.5-3.23v-.81h.9v.81c0,1.91,2.89,3.13,5.5,3.23v1c-2.86-.1-5.4-1.39-5.95-2.82-.55,1.43-3.09,2.72-6,2.82Zm.27,11.33V277h.9v1.93H77V277h.89v6.27H77v-.44Zm.9-1,9.57-.39v-1.94H67.4Z"/><path d="M80.8,275.47v-1H94.27v1Zm3.34-2.62a2.39,2.39,0,1,1,0-4.77h6.79a2.39,2.39,0,1,1,0,4.77Zm-2.28,10.38v-3.58H92.32v-1.58H81.86v-1H93.21v3.5H82.75v1.66H93.44v1Zm9-11.38a1.46,1.46,0,0,0,1.64-1.4c0-.86-.72-1.37-1.64-1.37H84.24c-.92,0-1.64.51-1.64,1.37a1.46,1.46,0,0,0,1.64,1.4Z"/><path d="M101.07,282.72v-1h6.29v-4h.9v4h6.29v1Zm1.06-6v-8.46H103v2.89h9.57v-2.89h.9v8.46Zm.89-1h9.57v-3.58H103Z"/><path d="M128.37,267.9h.89v15.33h-.89v-4.55h-4v.12a3.71,3.71,0,1,1-7.4,0v-6.86a3.71,3.71,0,1,1,7.4,0h4Zm-4.91,4a2.8,2.8,0,1,0-5.6,0v7a2.8,2.8,0,1,0,5.6,0Zm4.91,5.81v-4.82h-4v4.82Z"/><path d="M145.26,275.22H139v2h5.24v3.47H133.72v1.55h10.7v1H132.84v-3.52h10.48v-1.48H132.84v-1h5.23v-2h-6.29v-1h13.48Zm-12.69-2v-1c2.74-.08,5.31-1.4,5.46-2.75v-.21h-5.19v-1H144.2v1H139v.21c.15,1.35,2.72,2.67,5.45,2.75v1c-2.85-.1-5.39-1.23-5.95-2.75C138,272,135.42,273.12,132.57,273.22Z"/><path d="M158.34,283.4V278h-6.29v-1h13.48v1h-6.29v5.36ZM152.62,274c2.86-.14,5.72-2.35,5.72-4.72v-1h.9v1c0,2.37,2.88,4.58,5.72,4.72v1c-2.9-.1-5.54-2-6.17-4.08-.62,2.08-3.25,4-6.17,4.08Z"/><path d="M172.86,272.33v-1.07c0-2.23,1.76-3.4,3.91-3.4s3.91,1.17,3.91,3.4v1.07c0,2.24-1.75,3.39-3.91,3.39S172.86,274.57,172.86,272.33Zm3.52,8.11a4.18,4.18,0,0,1-3.46,2.79v-1a3.59,3.59,0,0,0,3-3.43v-1.57h.9v1.57a4.16,4.16,0,0,0,2.7,3.67,4.19,4.19,0,0,0,2.71-3.7v-1.71h.89v1.71a3.58,3.58,0,0,0,3,3.46v1a4.19,4.19,0,0,1-3.41-2.79,4.66,4.66,0,0,1-3.16,3A4.72,4.72,0,0,1,176.38,280.44Zm3.4-8.16v-.95c0-1.62-1.28-2.47-3-2.47s-3,.85-3,2.47v.95c0,1.6,1.29,2.45,3,2.45S179.78,273.88,179.78,272.28Zm4.5,3.9V267.9h.9v8.28Z"/><path d="M187.68,276.62v-1h13.48v1Zm1.06-3.3V268h.89v4.39h10.54v1Zm0,9.91v-5h.89v4h10.69v1Z"/><path d="M209.09,282.47V268.66h7.08v1H210v11.73l7-.81v1Zm10.57.76V267.9h.89v15.33Z"/><path d="M223.43,281.15a9.15,9.15,0,0,0,4.16-7.45v-3.93h-3.7v-1h8.29v1h-3.7v3.93a9.11,9.11,0,0,0,4.18,7.45v1.25a9.54,9.54,0,0,1-4.62-6.17,9.63,9.63,0,0,1-4.61,6.17Zm11.15,2.08V267.9h.89v6.46h2.15v1h-2.15v7.88Z"/><path d="M239.2,278.8v-6.86a3.86,3.86,0,1,1,7.72,0v6.86a3.86,3.86,0,1,1-7.72,0Zm6.83.05v-7a3,3,0,0,0-5.94,0v7a3,3,0,0,0,5.94,0Zm4.58,4.38V267.9h.89v15.33Z"/><path d="M255,282.47v-13.9h.9v12.75l7-.81v1Zm10.57.76V274.9h-4.9v-1h4.9v-6h.9v15.33Z"/><polygon points="366.46 127.98 173.55 127.98 173.55 71.34 174.55 71.34 174.55 126.98 366.46 126.98 366.46 127.98"/><polygon points="621.83 115.28 620.83 115.28 620.83 99.91 467.89 99.91 467.89 98.91 621.83 98.91 621.83 115.28"/><rect x="426.37" y="204.15" width="1" height="28.28"/></g></g></svg>