<svg xmlns="http://www.w3.org/2000/svg" viewBox="0 0 41.83 14.17"><defs><style>.cls-1{fill:#fff;}</style></defs><g id="레이어_2" data-name="레이어 2"><g id="레이어_2-2" data-name="레이어 2"><rect width="41.83" height="14.17"/><path class="cls-1" d="M.57,6.78V2.71H4.11a2.5,2.5,0,0,1,1.62.57A2.15,2.15,0,0,1,6,6.43a2.41,2.41,0,0,1-1.89.83H1.53v3.6h-1V6.78ZM4.11,6.3a1.75,1.75,0,0,0,.83-.22,1.22,1.22,0,0,0,.4-1.85,1.46,1.46,0,0,0-1.23-.58H1.53V6.31Z"/><path class="cls-1" d="M8.24,6a2.48,2.48,0,0,1,3.64-.23A2.84,2.84,0,0,1,12.81,8a2.91,2.91,0,0,1-.71,1.95,2.42,2.42,0,0,1-1.93.93,2.47,2.47,0,0,1-1.72-.7A2.86,2.86,0,0,1,7.53,8,2.87,2.87,0,0,1,8.24,6Zm.6,3.12a1.54,1.54,0,0,0,1.33.76,1.51,1.51,0,0,0,1-.39A2,2,0,0,0,11.85,8a2.09,2.09,0,0,0-.35-1.17,1.54,1.54,0,0,0-1.33-.75,1.48,1.48,0,0,0-1,.38A1.93,1.93,0,0,0,8.49,8,2,2,0,0,0,8.84,9.14Z"/><path class="cls-1" d="M16.74,5.1h.48v1h-.48a1.38,1.38,0,0,0-.72.18,1.75,1.75,0,0,0-.81,1.66v3h-1V5.1h1v.5A2.4,2.4,0,0,1,16.74,5.1Z"/><path class="cls-1" d="M19.35,9.16c0,.48.3.72.87.74h.48v1h-.48a2.59,2.59,0,0,1-.63-.08,1.46,1.46,0,0,1-1.2-1.6V6.06h-.81v-1h.81V3.37h1V5.1H20.7v1H19.36Z"/><path class="cls-1" d="M23.82,5.1h.48v1H22.94v4.8H22V6.06h-.8v-1H22a5.86,5.86,0,0,1,.14-1C22.4,3,23,2.44,23.82,2.44h.48v1h-.48c-.49,0-.78.58-.86,1.7Z"/><path class="cls-1" d="M25.73,6a2.42,2.42,0,0,1,1.93-.92,2.46,2.46,0,0,1,1.72.69A2.83,2.83,0,0,1,30.3,8a2.9,2.9,0,0,1-.7,1.95,2.47,2.47,0,0,1-3.65.23A2.84,2.84,0,0,1,25,8,2.92,2.92,0,0,1,25.73,6Zm.6,3.12a1.55,1.55,0,0,0,1.33.76,1.47,1.47,0,0,0,1-.39A1.92,1.92,0,0,0,29.34,8,2.08,2.08,0,0,0,29,6.81a1.55,1.55,0,0,0-1.34-.75,1.46,1.46,0,0,0-1,.38A1.94,1.94,0,0,0,26,8,2.08,2.08,0,0,0,26.33,9.14Z"/><path class="cls-1" d="M31.74,2.22h1v8.64h-1V2.22Z"/><path class="cls-1" d="M33.88,4.36v-1h1v1h-1Zm0,.74h1v5.76h-1V5.1Z"/><path class="cls-1" d="M36.69,6a2.48,2.48,0,0,1,3.64-.23A2.84,2.84,0,0,1,41.26,8a2.91,2.91,0,0,1-.71,1.95,2.42,2.42,0,0,1-1.93.93,2.47,2.47,0,0,1-1.72-.7A2.86,2.86,0,0,1,36,8,2.87,2.87,0,0,1,36.69,6Zm.6,3.12a1.54,1.54,0,0,0,1.33.76,1.51,1.51,0,0,0,1-.39A2,2,0,0,0,40.3,8,2.09,2.09,0,0,0,40,6.81a1.53,1.53,0,0,0-1.33-.75,1.48,1.48,0,0,0-1,.38A1.93,1.93,0,0,0,36.94,8,2,2,0,0,0,37.29,9.14Z"/></g></g></svg>