<svg xmlns="http://www.w3.org/2000/svg" viewBox="0 0 13.47 51.38"><g id="레이어_2" data-name="레이어 2"><g id="Layer_1" data-name="Layer 1"><path d="M.14,6.83h13v.75H7.52V9.92h5.59v.76H.14V9.92H6.68V7.58H.14ZM1.53,0C2.66,3,6.05,4.32,11.64,4.29V.06h.83v5h-.66C5,5.05,1.7,3.13.64,0Z"/><path d="M.14,14.29H4.45v.76H1v9.17H.14Zm3.62,8.94h9.35V24H3.76Zm4.83-9.67h1.48a3,3,0,0,1,3.07,3.31,3,3,0,0,1-3.07,3.3H8.59a3,3,0,0,1-3.07-3.3A3,3,0,0,1,8.59,13.56Zm.05,5.86H10a2.27,2.27,0,0,0,2.29-2.54A2.28,2.28,0,0,0,10,14.32H8.64a2.27,2.27,0,0,0-2.28,2.56A2.26,2.26,0,0,0,8.64,19.42Z"/><path d="M3.63,27.5h.83v9.44H0v-.76H3.63Zm1.58,8.68h7.9v.76H10v1.71H9.17V36.94h-4ZM10,28.86v3.07a1.9,1.9,0,0,1-2.07,1.85,1.91,1.91,0,0,1-2.09-1.85V28.86A1.92,1.92,0,0,1,7.92,27,1.9,1.9,0,0,1,10,28.86ZM6.66,31.71a1.26,1.26,0,1,0,2.51,0V29.06a1.26,1.26,0,1,0-2.51,0Zm4.35-5h.84V30h1.62v.76H11.85v3.34H11Z"/><path d="M.14,40.87H5.45v.76H3.82v8.1H5.45v.75H.14v-.75H.52Zm.88.76.32,8.1H3v-8.1ZM6.55,40h.83V51.38H6.55Zm3.17.67c.09,2.22,1.12,4.66,2.73,4.66h.69v.76h-.69c-1.61,0-2.64,2.44-2.73,4.65H8.88c.08-2.42,1.17-4.57,2.39-5-1.22-.47-2.31-2.62-2.39-5Z"/></g></g></svg>