<svg xmlns="http://www.w3.org/2000/svg" viewBox="0 0 61.04 12.96"><defs><style>.cls-1{fill:#fff;}</style></defs><title>Asset 11</title><g id="Layer_2" data-name="Layer 2"><g id="Layer_1-2" data-name="Layer 1"><path class="cls-1" d="M0,6.84,0,1.46V.74H.74l4.57,0a3.78,3.78,0,0,1,2.43.86A3.21,3.21,0,0,1,9,4.16a3.16,3.16,0,0,1-.85,2.16A3.61,3.61,0,0,1,5.31,7.56H1.44V13H0V6.84Zm5.31-.72A2.54,2.54,0,0,0,6.55,5.8,1.83,1.83,0,0,0,7.16,3a2.21,2.21,0,0,0-1.85-.86H1.44v4Z"/><path class="cls-1" d="M11.5,5.71A3.71,3.71,0,0,1,17,5.36a4.26,4.26,0,0,1,1.39,3.28,4.33,4.33,0,0,1-1.06,2.93,3.71,3.71,0,0,1-5.47.35,4.26,4.26,0,0,1-1.39-3.28A4.33,4.33,0,0,1,11.5,5.71Zm.9,4.68a2.32,2.32,0,0,0,2,1.13,2.22,2.22,0,0,0,1.51-.58,2.9,2.9,0,0,0,1-2.3,3.1,3.1,0,0,0-.52-1.75,2.32,2.32,0,0,0-2-1.13,2.22,2.22,0,0,0-1.51.58,2.9,2.9,0,0,0-1,2.3A3.1,3.1,0,0,0,12.4,10.39Z"/><path class="cls-1" d="M24.26,4.32H25V5.76h-.72A2.22,2.22,0,0,0,23.18,6,2.63,2.63,0,0,0,22,8.53V13H20.52V4.32H22v.76A3.68,3.68,0,0,1,24.26,4.32Z"/><path class="cls-1" d="M28.17,10.42c0,.71.45,1.08,1.31,1.1h.72V13h-.72a4.19,4.19,0,0,1-.95-.11,2.19,2.19,0,0,1-1.8-2.41V5.76H25.52V4.32h1.21V2.43l0-.7h1.46l0,.72V4.32h2V5.76h-2Z"/><path class="cls-1" d="M34.88,4.32h.72V5.76H33.55V13H32.11V5.76H30.92V4.32h1.21a9.27,9.27,0,0,1,.22-1.51C32.74,1.16,33.59.34,34.88.34h.72V1.78h-.72c-.74,0-1.17.86-1.29,2.54Z"/><path class="cls-1" d="M37.75,5.71a3.62,3.62,0,0,1,2.89-1.39,3.69,3.69,0,0,1,2.58,1A4.29,4.29,0,0,1,44.6,8.64a4.33,4.33,0,0,1-1.06,2.93A3.62,3.62,0,0,1,40.64,13a3.67,3.67,0,0,1-2.57-1,4.3,4.3,0,0,1-1.39-3.28A4.34,4.34,0,0,1,37.75,5.71Zm.9,4.68a2.3,2.3,0,0,0,2,1.13,2.24,2.24,0,0,0,1.52-.58,2.89,2.89,0,0,0,1-2.3,3.1,3.1,0,0,0-.52-1.75,2.31,2.31,0,0,0-2-1.13,2.24,2.24,0,0,0-1.51.58,2.9,2.9,0,0,0-1,2.3A3.11,3.11,0,0,0,38.65,10.39Z"/><path class="cls-1" d="M46.76,0H48.2V13H46.76V0Z"/><path class="cls-1" d="M50,3.22V1.78h1.45V3.22H50Zm0,1.1h1.44V13H50V4.32Z"/><path class="cls-1" d="M54.18,5.71a3.71,3.71,0,0,1,5.47-.35A4.26,4.26,0,0,1,61,8.64,4.38,4.38,0,0,1,60,11.57,3.64,3.64,0,0,1,57.08,13a3.71,3.71,0,0,1-2.58-1,4.29,4.29,0,0,1-1.38-3.28A4.33,4.33,0,0,1,54.18,5.71Zm.9,4.68a2.31,2.31,0,0,0,2,1.13,2.22,2.22,0,0,0,1.51-.58,2.9,2.9,0,0,0,1-2.3,3.18,3.18,0,0,0-.52-1.75,2.32,2.32,0,0,0-2-1.13,2.2,2.2,0,0,0-1.51.58,2.87,2.87,0,0,0-1,2.3A3.1,3.1,0,0,0,55.08,10.39Z"/></g></g></svg>