<svg xmlns="http://www.w3.org/2000/svg" viewBox="0 0 68.82 21.13"><defs><style>.cls-1{fill:#fff;}</style></defs><g id="레이어_2" data-name="레이어 2"><g id="레이어_2-2" data-name="레이어 2"><rect width="68.82" height="21.13"/><path class="cls-1" d="M14.42,10.25l0-3.59V6.18H18a2.46,2.46,0,0,1,1.62.58,2.12,2.12,0,0,1,.84,1.71,2.08,2.08,0,0,1-.56,1.44,2.39,2.39,0,0,1-1.9.83H15.38v3.6h-1V10.25ZM18,9.77a1.68,1.68,0,0,0,.83-.21,1.2,1.2,0,0,0,.67-1.1,1.18,1.18,0,0,0-.26-.75A1.47,1.47,0,0,0,18,7.13H15.38V9.78Z"/><path class="cls-1" d="M22.09,9.5a2.47,2.47,0,0,1,3.65-.23,2.83,2.83,0,0,1,.92,2.18,2.93,2.93,0,0,1-.7,2,2.49,2.49,0,0,1-3.65.23,2.84,2.84,0,0,1-.93-2.19A2.91,2.91,0,0,1,22.09,9.5Zm.6,3.12a1.54,1.54,0,0,0,1.33.75A1.51,1.51,0,0,0,25,13a1.94,1.94,0,0,0,.67-1.54,2.07,2.07,0,0,0-.34-1.16A1.54,1.54,0,0,0,24,9.53a1.47,1.47,0,0,0-1,.39,1.93,1.93,0,0,0-.68,1.53A2.11,2.11,0,0,0,22.69,12.62Z"/><path class="cls-1" d="M30.6,8.57h.48v1H30.6a1.48,1.48,0,0,0-.72.18,1.77,1.77,0,0,0-.82,1.67v2.95h-1V8.57h1v.51A2.52,2.52,0,0,1,30.6,8.57Z"/><path class="cls-1" d="M33.2,12.64c0,.47.3.72.88.73h.48v1h-.48a2.67,2.67,0,0,1-.64-.07,1.46,1.46,0,0,1-1.2-1.61h0V9.53h-.8v-1h.8V7.31l0-.47h1V8.57h1.34v1H33.22Z"/><path class="cls-1" d="M37.68,8.57h.48v1H36.79v4.8h-1V9.53H35v-1h.8a6.82,6.82,0,0,1,.15-1c.26-1.1.83-1.65,1.69-1.65h.48v1h-.48c-.5,0-.78.57-.86,1.69Z"/><path class="cls-1" d="M39.59,9.5a2.47,2.47,0,0,1,3.65-.23,2.86,2.86,0,0,1,.92,2.18,2.94,2.94,0,0,1-.71,2,2.41,2.41,0,0,1-1.93.92,2.46,2.46,0,0,1-1.72-.69,2.87,2.87,0,0,1-.92-2.19A2.91,2.91,0,0,1,39.59,9.5Zm.6,3.12a1.55,1.55,0,0,0,2.34.37,1.94,1.94,0,0,0,.67-1.54,2.08,2.08,0,0,0-.35-1.16,1.52,1.52,0,0,0-1.33-.76,1.49,1.49,0,0,0-1,.39,1.92,1.92,0,0,0-.67,1.53A2.11,2.11,0,0,0,40.19,12.62Z"/><path class="cls-1" d="M45.6,5.69h1v8.64h-1V5.69Z"/><path class="cls-1" d="M47.74,7.84v-1h1v1h-1Zm0,.73h1v5.76h-1V8.57Z"/><path class="cls-1" d="M50.54,9.5a2.47,2.47,0,0,1,3.65-.23,2.83,2.83,0,0,1,.92,2.18,2.93,2.93,0,0,1-.7,2,2.42,2.42,0,0,1-1.93.92,2.46,2.46,0,0,1-1.72-.69,2.83,2.83,0,0,1-.92-2.19A2.9,2.9,0,0,1,50.54,9.5Zm.6,3.12a1.55,1.55,0,0,0,1.34.75,1.5,1.5,0,0,0,1-.38,1.94,1.94,0,0,0,.67-1.54,2.07,2.07,0,0,0-.34-1.16,1.53,1.53,0,0,0-1.33-.76,1.47,1.47,0,0,0-1,.39,1.92,1.92,0,0,0-.67,1.53A2.1,2.1,0,0,0,51.14,12.62Z"/></g></g></svg>