<svg xmlns="http://www.w3.org/2000/svg" viewBox="0 0 60.1 14.17"><defs><style>.cls-1{fill:#fff;}</style></defs><g id="레이어_2" data-name="레이어 2"><g id="레이어_2-2" data-name="레이어 2"><rect width="60.1" height="14.17"/><path class="cls-1" d="M10.06,6.78l0-3.59V2.71H13.6a2.5,2.5,0,0,1,1.62.57A2.13,2.13,0,0,1,16.06,5a2.11,2.11,0,0,1-.56,1.44,2.43,2.43,0,0,1-1.9.83H11v3.6h-1V6.78ZM13.6,6.3a1.69,1.69,0,0,0,.83-.22,1.23,1.23,0,0,0,.41-1.85,1.5,1.5,0,0,0-1.24-.58H11V6.31Z"/><path class="cls-1" d="M17.73,6a2.41,2.41,0,0,1,1.93-.92,2.46,2.46,0,0,1,1.72.69A2.83,2.83,0,0,1,22.3,8a2.9,2.9,0,0,1-.7,1.95,2.47,2.47,0,0,1-3.65.23A2.84,2.84,0,0,1,17,8,2.92,2.92,0,0,1,17.73,6Zm.6,3.12a1.55,1.55,0,0,0,1.33.76,1.47,1.47,0,0,0,1-.39A1.92,1.92,0,0,0,21.34,8,2.08,2.08,0,0,0,21,6.81a1.55,1.55,0,0,0-1.34-.75,1.46,1.46,0,0,0-1,.38A1.94,1.94,0,0,0,18,8,2.08,2.08,0,0,0,18.33,9.14Z"/><path class="cls-1" d="M26.24,5.1h.48v1h-.48a1.38,1.38,0,0,0-.72.18A1.74,1.74,0,0,0,24.7,7.9v3h-1V5.1h1v.5A2.45,2.45,0,0,1,26.24,5.1Z"/><path class="cls-1" d="M28.84,9.16c0,.48.3.72.88.74h.48v1h-.48a2.67,2.67,0,0,1-.64-.08,1.46,1.46,0,0,1-1.2-1.6V6.06h-.8v-1h.8V3.37h1l0,.48V5.1H30.2v1H28.85Z"/><path class="cls-1" d="M33.32,5.1h.48v1H32.43v4.8h-1V6.06h-.79v-1h.8a7,7,0,0,1,.15-1c.26-1.1.83-1.65,1.69-1.65h.48v1h-.48c-.5,0-.78.58-.86,1.7Z"/><path class="cls-1" d="M35.23,6a2.41,2.41,0,0,1,1.93-.92,2.46,2.46,0,0,1,1.72.69A2.87,2.87,0,0,1,39.8,8a2.91,2.91,0,0,1-.71,1.95,2.42,2.42,0,0,1-1.93.93,2.47,2.47,0,0,1-1.72-.7A2.86,2.86,0,0,1,34.52,8,2.92,2.92,0,0,1,35.23,6Zm.6,3.12a1.54,1.54,0,0,0,1.33.76,1.49,1.49,0,0,0,1-.39A1.92,1.92,0,0,0,38.84,8a2.09,2.09,0,0,0-.35-1.17,1.53,1.53,0,0,0-1.33-.75,1.48,1.48,0,0,0-1,.38A1.93,1.93,0,0,0,35.48,8,2.08,2.08,0,0,0,35.83,9.14Z"/><path class="cls-1" d="M41.24,2.22h1v8.64h-1V2.22Z"/><path class="cls-1" d="M43.38,4.36v-1h1v1h-1Zm0,.74h1v5.76h-1V5.1Z"/><path class="cls-1" d="M46.18,6a2.42,2.42,0,0,1,1.93-.92,2.46,2.46,0,0,1,1.72.69A2.83,2.83,0,0,1,50.75,8a2.9,2.9,0,0,1-.7,1.95,2.47,2.47,0,0,1-3.65.23A2.84,2.84,0,0,1,45.47,8,2.92,2.92,0,0,1,46.18,6Zm.6,3.12a1.55,1.55,0,0,0,1.33.76,1.47,1.47,0,0,0,1-.39A1.92,1.92,0,0,0,49.79,8a2.08,2.08,0,0,0-.34-1.17,1.55,1.55,0,0,0-1.34-.75,1.46,1.46,0,0,0-1,.38A1.94,1.94,0,0,0,46.43,8,2.08,2.08,0,0,0,46.78,9.14Z"/></g></g></svg>