<svg xmlns="http://www.w3.org/2000/svg" viewBox="0 0 37.1 113.34"><g id="레이어_2" data-name="레이어 2"><g id="Layer_1" data-name="Layer 1"><g id="Outlined_Mnemonics_Logos" data-name="Outlined Mnemonics Logos"><g id="Pr"><path d="M0,28.16V.46C0,.27.08.16.27.16c.46,0,.89,0,1.51,0s1.32,0,2,0,1.51,0,2.35,0S7.81,0,8.62,0a16,16,0,0,1,5.54.83A9.68,9.68,0,0,1,17.77,3a8.54,8.54,0,0,1,2,3.07,10.16,10.16,0,0,1,.62,3.5,9.61,9.61,0,0,1-1.61,5.74,9.32,9.32,0,0,1-4.34,3.28,17.5,17.5,0,0,1-6.05.92c-.65,0-1.08,0-1.35,0s-.65,0-1.16,0v8.64a.34.34,0,0,1-.29.38H.32C.11,28.51,0,28.4,0,28.16ZM5.87,5.36v9c.38,0,.73.06,1,.06H8.35A9.79,9.79,0,0,0,11.44,14a4.63,4.63,0,0,0,2.21-1.42,4.16,4.16,0,0,0,.83-2.78,4.38,4.38,0,0,0-.61-2.39A4,4,0,0,0,12,5.84,8.1,8.1,0,0,0,8.8,5.3c-.7,0-1.32,0-1.83,0a5.49,5.49,0,0,0-1.1,0Z"/><path d="M24.12,6.92h4.71a.61.61,0,0,1,.57.43,3,3,0,0,1,.16.67c.05.27.11.57.14.84s.05.62.05,1a10,10,0,0,1,2.88-2.32,8.36,8.36,0,0,1,4.09-1,.34.34,0,0,1,.38.3v5.36c0,.21-.14.29-.43.29a11.82,11.82,0,0,0-2.91.27,10.65,10.65,0,0,0-2.26.73,4.08,4.08,0,0,0-1.37,1V28.13c0,.27-.11.38-.35.38H24.47a.38.38,0,0,1-.43-.32v-15c0-.65,0-1.32,0-2s0-1.4-.05-2.1-.05-1.22-.11-1.83a.26.26,0,0,1,.19-.3s.06,0,.08,0Z"/></g></g><path d="M4.69,108.32a3.73,3.73,0,0,1,2-2.18,2.61,2.61,0,0,1-.52-.32,2.64,2.64,0,0,1-.49-4,3.34,3.34,0,0,1,2.65-1.14,3.49,3.49,0,0,1,2.11.67,2.69,2.69,0,0,1,1.18,2.25,2.56,2.56,0,0,1-.09.66,2.83,2.83,0,0,1-1.6,1.84,3.89,3.89,0,0,1,.9.59,3.7,3.7,0,0,1,1.28,2.85,3.59,3.59,0,0,1-.92,2.43,3.64,3.64,0,0,1-2.88,1.31,3.7,3.7,0,0,1-2.5-.92,3.57,3.57,0,0,1-1.3-2.82A3.88,3.88,0,0,1,4.69,108.32Zm3.6-1.8H8a3,3,0,0,0-1.71.68,2.92,2.92,0,0,0-1.14,2.38,3,3,0,0,0,.65,1.87,2.94,2.94,0,0,0,2.43,1.15,3.07,3.07,0,0,0,1.93-.66,2.85,2.85,0,0,0,1.15-2.36,3.07,3.07,0,0,0-.56-1.77,2.91,2.91,0,0,0-2.25-1.29Zm-2.23-1.78a2.51,2.51,0,0,0,2,1h.5a2.92,2.92,0,0,0,1.28-.41,2,2,0,0,0,.56-3,2.6,2.6,0,0,0-2.09-.92,3,3,0,0,0-1.55.43,2,2,0,0,0-1.06,1.77A1.83,1.83,0,0,0,6.06,104.74Z"/><path d="M14.74,102.4a3.15,3.15,0,0,1,2.6-1.68,3.05,3.05,0,0,1,2.4,1.44A8.1,8.1,0,0,1,21.11,107a8.3,8.3,0,0,1-1.23,4.65,3.06,3.06,0,0,1-2.54,1.67,3.1,3.1,0,0,1-2.44-1.46A7.93,7.93,0,0,1,13.51,107,8.22,8.22,0,0,1,14.74,102.4Zm.34,8.46c.6,1.17,1.35,1.76,2.26,1.76a2.43,2.43,0,0,0,1.95-1.28,7.82,7.82,0,0,0,1.1-4.32,8.41,8.41,0,0,0-.83-3.83c-.6-1.17-1.34-1.75-2.22-1.75a2.48,2.48,0,0,0-2,1.3A7.5,7.5,0,0,0,14.23,107,8.2,8.2,0,0,0,15.08,110.86Z"/><path d="M32.09,101.08H33l-.47.6L23.19,113.2l-.1.12h-.94l.47-.59L32,101.21Zm-5.71.2a2.45,2.45,0,0,1,1.53,2.61,3.81,3.81,0,0,1-.39,1.84A2.36,2.36,0,0,1,25.3,107a3.06,3.06,0,0,1-1.22-.25,2.77,2.77,0,0,1-1.53-2.81,3,3,0,0,1,.43-1.66,2.48,2.48,0,0,1,2.32-1.17A3.5,3.5,0,0,1,26.38,101.28Zm-1.94.67a1.87,1.87,0,0,0-1.17,2,2.89,2.89,0,0,0,.23,1.22,1.83,1.83,0,0,0,1.8,1.12,1.92,1.92,0,0,0,1.89-2.36,2.45,2.45,0,0,0-.16-1,1.69,1.69,0,0,0-1.73-1.1A2.47,2.47,0,0,0,24.44,102Zm3.2,6.69a2.33,2.33,0,0,1,2.22-1.26,3.21,3.21,0,0,1,1.09.22,2.77,2.77,0,0,1,1.57,2.88,3.25,3.25,0,0,1-.31,1.47,2.39,2.39,0,0,1-2.34,1.37,3.73,3.73,0,0,1-.84-.09c-1.17-.3-1.77-1.19-1.8-2.68A4,4,0,0,1,27.64,108.64Zm.43,2.68a1.68,1.68,0,0,0,1.8,1.28,2.06,2.06,0,0,0,.7-.12,1.87,1.87,0,0,0,1.23-2,3.15,3.15,0,0,0-.2-1.15,1.75,1.75,0,0,0-1.74-1.23,1.92,1.92,0,0,0-.87.2,2.27,2.27,0,0,0-1,2.25A3.1,3.1,0,0,0,28.07,111.32Z"/></g></g></svg>