<svg xmlns="http://www.w3.org/2000/svg" viewBox="0 0 136.23 29.63"><defs><style>.cls-1{fill:#fff;}</style></defs><g id="레이어_2" data-name="레이어 2"><g id="레이어_1-2" data-name="레이어 1"><path class="cls-1" d="M12.22,7.36a2.93,2.93,0,0,0-.8-2,4.81,4.81,0,0,0-3.74-1.5,5.43,5.43,0,0,0-2.59.64A3.15,3.15,0,0,0,3.14,7.36,1.56,1.56,0,0,0,3.3,8c.36.71,1.56,1.45,3.61,2.24q3.81,1.5,4.58,1.86,3.87,1.95,3.87,4.83a5.45,5.45,0,0,1-1.73,3.78,8.14,8.14,0,0,1-6,2.3,8.61,8.61,0,0,1-5.41-1.76A5.43,5.43,0,0,1,0,17H2.56a3,3,0,0,0,1,2.05,5.84,5.84,0,0,0,4.16,1.47,6.69,6.69,0,0,0,3-.7A3.18,3.18,0,0,0,12.8,17a1.42,1.42,0,0,0-.19-.7C12.25,15.53,11,14.76,9,14q-3.78-1.47-4.51-1.82Q.58,10.21.58,7.36A5.51,5.51,0,0,1,2.11,3.58a7.23,7.23,0,0,1,5.57-2.3,7.57,7.57,0,0,1,4.8,1.6,5.51,5.51,0,0,1,2.3,4.48Z"/><path class="cls-1" d="M18.59,7.71h2.59l0,1.28,0,8.19A3,3,0,0,0,21.73,19a3.61,3.61,0,0,0,3,1.47,3.88,3.88,0,0,0,2-.54,3.07,3.07,0,0,0,1.63-2.76V9l0-1.25H31L31,9l0,8.19a5.47,5.47,0,0,1-1.34,3.65A6,6,0,0,1,24.77,23a6.21,6.21,0,0,1-4-1.38,5.48,5.48,0,0,1-2.21-4.48V9Z"/><path class="cls-1" d="M35.42,1.28V0H38V9.44a6.73,6.73,0,0,1,4.48-1.76A6.49,6.49,0,0,1,47,9.54a7.56,7.56,0,0,1,2.46,5.82,7.77,7.77,0,0,1-1.88,5.22A6.5,6.5,0,0,1,42.46,23,6.61,6.61,0,0,1,38,21.28V23H35.42V1.28Zm3.46,17.18a4.12,4.12,0,0,0,3.58,2,4,4,0,0,0,2.69-1,5.17,5.17,0,0,0,1.79-4.1,5.58,5.58,0,0,0-.92-3.1,4.1,4.1,0,0,0-6.24-1A5.23,5.23,0,0,0,38,15.39,5.47,5.47,0,0,0,38.88,18.46Z"/><path class="cls-1" d="M67.74,12.16l0-9.57V1.31h1.28l8.12,0A6.59,6.59,0,0,1,81.5,2.82a5.63,5.63,0,0,1,2.24,4.57,5.64,5.64,0,0,1-1.5,3.84,6.45,6.45,0,0,1-5.06,2.21H70.3V23H67.74V12.16Zm9.44-1.28a4.37,4.37,0,0,0,2.21-.58,3.18,3.18,0,0,0,1.79-2.91,3.26,3.26,0,0,0-.7-2,3.92,3.92,0,0,0-3.3-1.54H70.3v7.07Z"/><path class="cls-1" d="M88.19,10.14a6.5,6.5,0,0,1,5.15-2.46,6.57,6.57,0,0,1,4.48,1.76V7.68h2.56V23H97.82V21.28A6.69,6.69,0,0,1,93.34,23a6.49,6.49,0,0,1-4.57-1.86,7.56,7.56,0,0,1-2.47-5.82A7.78,7.78,0,0,1,88.19,10.14Zm1.6,8.32a4.09,4.09,0,0,0,3.55,2,4,4,0,0,0,2.69-1,5.17,5.17,0,0,0,1.79-4.1,5.5,5.5,0,0,0-.92-3.1,4.1,4.1,0,0,0-3.56-2,4,4,0,0,0-2.68,1,5.18,5.18,0,0,0-1.8,4.1A5.48,5.48,0,0,0,89.79,18.46Z"/><path class="cls-1" d="M106.11,10.14a6.5,6.5,0,0,1,5.16-2.46,6.61,6.61,0,0,1,4.48,1.76V9l0-1.25h2.59l0,1.28,0,12.77a7.23,7.23,0,0,1-.33,2.11A8.42,8.42,0,0,1,117,26a9.1,9.1,0,0,1-1.46,1.84,6.51,6.51,0,0,1-2,1.32,5.66,5.66,0,0,1-2.33.49H110V27.07h1.28a4,4,0,0,0,3-1.57,5.63,5.63,0,0,0,1.41-3.74v-.48A6.73,6.73,0,0,1,111.27,23a6.49,6.49,0,0,1-4.58-1.86,7.56,7.56,0,0,1-2.47-5.82A7.78,7.78,0,0,1,106.11,10.14Zm1.6,8.32a4.1,4.1,0,0,0,3.56,2,4,4,0,0,0,2.68-1,5.18,5.18,0,0,0,1.8-4.1,5.51,5.51,0,0,0-.93-3.1,4.09,4.09,0,0,0-3.55-2,4,4,0,0,0-2.69,1,5.18,5.18,0,0,0-1.8,4.1A5.48,5.48,0,0,0,107.71,18.46Z"/><path class="cls-1" d="M135.14,20a7.06,7.06,0,0,1-5.95,3,6.6,6.6,0,0,1-4.61-1.86,7.61,7.61,0,0,1-2.44-5.82A7.87,7.87,0,0,1,124,10.18a6.57,6.57,0,0,1,5.22-2.5,6.49,6.49,0,0,1,4.57,1.86,7.56,7.56,0,0,1,2.47,5.82v1.28h-11.4a5.58,5.58,0,0,0,.77,1.79,4.11,4.11,0,0,0,3.59,2.05,4.75,4.75,0,0,0,3.9-2Zm-1.47-6a3.35,3.35,0,0,0-.87-2,4.55,4.55,0,0,0-3.61-1.82,3.9,3.9,0,0,0-1.89.48,4.77,4.77,0,0,0-2.47,3.36Z"/></g></g></svg>