<?xml version="1.0" encoding="utf-8"?>
<!-- Generator: Adobe Illustrator 26.0.2, SVG Export Plug-In . SVG Version: 6.00 Build 0)  -->
<svg version="1.1" id="레이어_1" xmlns="http://www.w3.org/2000/svg" xmlns:xlink="http://www.w3.org/1999/xlink" x="0px"
	 y="0px" viewBox="0 0 1048.4 19.6" style="enable-background:new 0 0 1048.4 19.6;" xml:space="preserve">
<style type="text/css">
	.st0{fill:#FFFFFF;}
</style>
<g id="레이어_2_00000097479194133325126830000016034684378203154609_">
	<g id="레이어_1-2">
		<path class="st0" d="M14.4,19.3V0.2h1.2v8.2h3l0,1.2h-3v9.7H14.4z M-0.1,17.9V1.1h11.1v1.1H1.1v14.6h6.3c1.7,0,3.3-0.3,4.8-1
			l0.2-0.1V17l-0.1,0c-1.5,0.6-3.1,0.9-4.7,0.9L-0.1,17.9z"/>
		<path class="st0" d="M7.4,17c1.7,0,3.3-0.3,4.9-1v0.9c-1.5,0.6-3.2,0.9-4.9,0.9H0V1.2h10.8v0.9H0.9V17H7.4z M18.4,9.5h-3v9.7h-0.9
			V0.4h0.9v8.2h3L18.4,9.5z"/>
		<path class="st0" d="M29.4,19.1c-4.8,0-7.7-1.4-7.7-3.8c0-2.4,2.9-3.8,7.7-3.8c4.7,0,7.6,1.4,7.7,3.7l0.1,0.1
			C37.1,17.7,34.3,19.1,29.4,19.1z M29.4,12.7c-4,0-6.5,1-6.5,2.7c0,1.6,2.5,2.6,6.5,2.6c4,0,6.4-1,6.4-2.7v-0.2l0,0
			C35.7,13.6,33.3,12.7,29.4,12.7z M35.6,10.9V0.2h1.2v2.3h3v1.1l-3,0v3.4h3v1.1h-3v2.7H35.6z M26,10.1c-3.5,0-5.8-1.9-5.8-4.8
			c0-2.9,2.3-4.8,5.8-4.8s5.8,1.9,5.8,4.8C31.8,8.2,29.4,10.1,26,10.1z M26,1.7c-2.8,0-4.6,1.4-4.6,3.7C21.4,7.6,23.2,9,26,9h0.1v0
			c2.7,0,4.4-1.5,4.4-3.7C30.5,3.1,28.8,1.7,26,1.7z"/>
		<path class="st0" d="M26,10c-3.5,0-5.6-1.9-5.6-4.6s2.1-4.7,5.6-4.7s5.6,1.9,5.6,4.7S29.5,10,26,10z M26,9.2
			c2.8,0,4.7-1.4,4.7-3.8s-2-3.8-4.7-3.8s-4.7,1.4-4.7,3.8S23.2,9.2,26,9.2L26,9.2z M37,15.3c0,2.5-3.3,3.7-7.6,3.7
			s-7.6-1.1-7.6-3.6s3.3-3.7,7.6-3.7S36.9,12.8,37,15.3L37,15.3z M36,15.3c0-1.9-2.9-2.8-6.6-2.8s-6.6,0.9-6.6,2.8s2.9,2.8,6.6,2.8
			S36,17.2,36,15.3L36,15.3z M36.6,3.6v3.7h3v0.9h-3v2.7h-0.9V0.4h0.9v2.3h3v0.8L36.6,3.6z"/>
		<path class="st0" d="M42.6,18.9V14h1.2v3.8h14.8v1.1H42.6z M56.7,14.6V0.2h1.2V6h3v1.1h-3v7.5H56.7z M47.6,12.7
			c-3.3,0-5.5-1.6-5.5-4s2.2-4,5.5-4s5.5,1.6,5.5,4S50.9,12.7,47.6,12.7z M47.6,5.9c-2.6,0-4.3,1.1-4.3,2.9c0,1.7,1.7,2.9,4.3,2.9
			c2.6,0,4.3-1.1,4.3-2.9C51.9,7,50.2,5.9,47.6,5.9z M41.1,3.6V2.4H47v-2.6h1.2v2.6h5.9v1.1H41.1z"/>
		<path class="st0" d="M54,3.4H41.3V2.6h5.9V0h0.9v2.6H54V3.4z M42.2,8.8c0-2.4,2.3-3.8,5.4-3.8S53,6.4,53,8.8s-2.3,3.8-5.4,3.8
			S42.2,11.1,42.2,8.8z M43.7,17.9h14.8v0.9H42.7v-4.6h0.9V17.9z M43.1,8.8c0,1.8,1.7,3,4.5,3s4.5-1.2,4.5-3s-1.7-3-4.5-3
			S43.1,7,43.1,8.8z M60.7,6.2V7h-3v7.5h-0.9V0.4h0.9v5.8L60.7,6.2z"/>
		<path class="st0" d="M85.1,19.1v-4.4h-15l0-1.1h16.2v5.5H85.1z M85.1,12.6V0.2l1.2,0v12.4H85.1z M80.7,12.4V6.5h-3V5.4h3v-5h1.2
			v12H80.7z M73.4,11.4c-0.3,0-0.6,0-0.9,0h-3.3V0.9h8.4V2h-7.2v3.6h6.4v1.1h-6.4v3.6h2.2c0.3,0,0.6,0,0.8,0c1.7,0,3.3-0.3,4.9-0.8
			l0.2-0.1v1.2l-0.1,0C76.8,11.2,75.1,11.4,73.4,11.4z"/>
		<path class="st0" d="M72.5,11.3h-3.2V1h8.1v0.8h-7.2v3.8h6.4v0.8h-6.4v3.9h2.4c2,0.1,3.9-0.2,5.8-0.8v0.9
			C76.5,11.1,74.5,11.4,72.5,11.3z M70.2,13.7h15.9V19h-0.9v-4.4h-15L70.2,13.7z M80.8,6.4h-3V5.5h3v-5h0.9v11.7h-0.9V6.4z
			 M86.1,0.4v12.1h-0.9V0.4L86.1,0.4z"/>
		<path class="st0" d="M89.6,18.2v-1.1h18.9v1.1H89.6z M98.7,6.1c-2.2,3.8-5.4,6.1-8.6,6.1h-0.1V11h0.1c4.4,0,8.3-5.3,9.4-10.5
			l0-0.1l1.3,0.3l0,0.1c-0.3,1.5-0.9,2.9-1.6,4.3l8.5,6.3l-0.8,0.9L98.7,6.1z"/>
		<path class="st0" d="M108.3,17.2v0.9H89.7v-0.9H108.3z M90.1,12.1v-0.9c4.4,0,8.3-5.1,9.5-10.6l1,0.2c-0.3,1.5-0.9,3-1.6,4.3
			l8.5,6.3l-0.6,0.7l-8.3-6.2C96.6,9.5,93.4,12.1,90.1,12.1z"/>
		<path class="st0" d="M127,19.3v-7.2h-4.3V11h4.3V7.6h-4.3V6.4h4.3V0.2h1.2v19.1H127z M117.2,10.9c-1.1,4-3.2,6.5-5.9,7.1l-0.2,0
			v-1.1l0.1,0c3.2-0.8,5.4-5.4,5.7-12h-5.7V3.6h5.7V0.2h1.2v3.4h5.3v1.1h-5.3c-0.1,1.6-0.2,3.2-0.5,4.7l6.5,7.7l-0.9,0.8L117.2,10.9
			z"/>
		<path class="st0" d="M117.4,9.6l6.5,7.7l-0.7,0.6l-6.1-7.2c-1.1,4-3.1,6.6-5.9,7.2V17c3.5-0.8,5.6-6,5.8-12.3h-5.7V3.8h5.7V0.3
			h0.9v3.4h5.3v0.9H118C117.9,6.3,117.8,7.9,117.4,9.6z M128.1,0.4v18.8h-0.9V12h-4.3v-0.9h4.3V7.4h-4.3V6.6h4.3V0.4H128.1z"/>
		<path class="st0" d="M133.3,18.9v-4h14.8v-1.7h-14.8v-1.1h16V16h-14.8v1.8h15.2v1.1H133.3z M131.9,10.4V9.3h18.8l0.1,1.1H131.9z
			 M133.5,7.6V3.5h14.6V1.8h-14.6V0.6h15.8l0,4h-14.7v1.8h14.9v1.1H133.5z"/>
		<path class="st0" d="M150.6,10.3H132V9.4h18.6L150.6,10.3z M149.2,15.9h-14.8v2.1h15.2v0.8h-16.1v-3.7h14.8v-2h-14.8v-0.8h15.7
			L149.2,15.9z M149.2,4.5h-14.7v2.1h14.9v0.8h-15.8V3.7h14.6V1.6h-14.6V0.8h15.5L149.2,4.5z"/>
		<path class="st0" d="M175.4,19.3V0.2h1.2v19.1H175.4z M165.9,18.3c-3.5,0-5.6-3.3-5.6-8.7c0-5.4,2.1-8.7,5.6-8.7s5.6,3.2,5.6,8.7
			C171.5,15,169.4,18.3,165.9,18.3z M161.5,9.5c0,4.7,1.6,7.6,4.4,7.6c2.8,0,4.4-2.8,4.4-7.6c0-4.7-1.7-7.6-4.4-7.6
			c-2.7,0-4.4,2.8-4.5,7.4L161.5,9.5z"/>
		<path class="st0" d="M171.4,9.5c0,5.8-2.3,8.6-5.5,8.6s-5.5-2.8-5.5-8.6s2.3-8.6,5.5-8.6S171.4,3.8,171.4,9.5z M161.4,9.5
			c0,5.2,1.9,7.7,4.6,7.7s4.6-2.5,4.6-7.7s-2-7.7-4.6-7.7S161.3,4.3,161.4,9.5L161.4,9.5z M176.5,19.2h-0.9V0.4h0.9V19.2z"/>
		<path class="st0" d="M189.8,19.2c-3,0-8.1-0.4-8.1-3.4c0-2.9,5.1-3.3,8.1-3.3s8.1,0.4,8.1,3.3C197.9,18.8,192.8,19.2,189.8,19.2z
			 M189.8,13.7c-4.3,0-6.9,0.8-6.9,2.2c0,1.6,3.5,2.2,6.9,2.2c3.3,0,6.7-0.6,6.9-2.1l-0.1-0.1C196.7,14.5,194.1,13.7,189.8,13.7z
			 M180.4,10.7V9.5h4.6V6.9c-2.2-0.6-3.4-1.6-3.4-3c0-2.2,3.1-3.6,8.2-3.6c5.1,0,8.2,1.3,8.2,3.6c0,1.4-1.2,2.5-3.4,3v2.6h4.6v1.1
			H180.4z M193.4,9.5V7.2c-1.1,0.2-2.2,0.3-3.3,0.3h-0.6c-1.1,0-2.2-0.1-3.3-0.3v2.4H193.4z M189.8,1.4c-3.2,0-7,0.6-7,2.4
			c0,1.8,3.8,2.4,7,2.4c3.2,0,6.9-0.6,6.9-2.4C196.8,2.1,193,1.4,189.8,1.4z"/>
		<path class="st0" d="M199.1,9.7v0.9h-18.6V9.7h4.6V6.8c-2-0.5-3.4-1.5-3.4-2.9c0-2.4,3.8-3.4,8.1-3.4s8.1,1,8.1,3.4
			c0,1.5-1.4,2.4-3.4,2.9v2.9H199.1z M197.8,15.8c0,2.5-4,3.2-8,3.2s-8-0.7-8-3.2s4-3.2,8-3.2S197.8,13.4,197.8,15.8z M189.8,6.4
			c3.6,0,7.1-0.8,7.1-2.6s-3.4-2.6-7.1-2.6s-7.1,0.8-7.1,2.6S186.2,6.4,189.8,6.4L189.8,6.4z M196.8,15.8c0-1.8-3.7-2.3-7-2.3
			s-7,0.5-7,2.3s3.7,2.4,7,2.4S196.9,17.6,196.8,15.8L196.8,15.8z M186.1,9.7h7.4V7c-1.2,0.2-2.5,0.3-3.7,0.3
			c-1.2,0-2.5-0.1-3.7-0.3V9.7z"/>
		<path class="st0" d="M217.1,19.3V0.2h1.2v8.2h3v1.1h-3v9.7H217.1z M208.3,18.2c-3,0-5.1-2.4-5.1-5.8c0-3.4,2.2-5.8,5.1-5.8
			s5.1,2.4,5.1,5.8C213.4,15.8,211.2,18.2,208.3,18.2z M208.2,7.8c-2,0-3.9,1.6-3.9,4.7c0,3.1,2,4.7,3.9,4.7c2.2,0,3.9-1.9,4-4.5
			l0-0.1C212.1,9.4,210.1,7.8,208.2,7.8z M202,4.8V3.7h5.6V0.2h1.2v3.5h5.6v1.1H202z"/>
		<path class="st0" d="M208.7,3.8h5.6v0.9h-12.2V3.8h5.6V0.3h0.9V3.8z M213.3,12.4c0,3.5-2.3,5.6-5,5.6s-5-2.2-5-5.6s2.3-5.7,5-5.7
			S213.3,8.9,213.3,12.4z M212.3,12.4c0-2.9-1.9-4.8-4.1-4.8s-4.1,1.9-4.1,4.8s1.9,4.8,4.1,4.8S212.3,15.4,212.3,12.4L212.3,12.4z
			 M221.1,9.5h-3v9.7h-0.9V0.4h0.9v8.2h3V9.5z"/>
		<path class="st0" d="M239,19.3v-5.8h-4l0.1-1.1h3.9V6.7h-3.9L235,5.5h4V0.2h1.2v19.1H239z M229.1,18.3c-3.5,0-5.5-3.3-5.5-8.7
			c0-5.5,2-8.7,5.5-8.7s5.5,3.2,5.5,8.7C234.7,15,232.6,18.3,229.1,18.3z M229.1,2c-2.7,0-4.3,2.8-4.3,7.6c0,4.7,1.6,7.6,4.3,7.6
			c2.7,0,4.3-2.8,4.3-7.4l0-0.1C233.4,4.8,231.8,2,229.1,2z"/>
		<path class="st0" d="M234.5,9.5c0,5.8-2.2,8.6-5.4,8.6s-5.4-2.8-5.4-8.6S226,1,229.1,1S234.5,3.8,234.5,9.5z M233.5,9.5
			c0-5.2-1.9-7.7-4.4-7.7s-4.4,2.5-4.4,7.7s1.9,7.7,4.4,7.7S233.6,14.8,233.5,9.5L233.5,9.5z M240.1,0.4v18.8h-0.9v-5.8h-4l0.1-0.9
			h3.9V6.5h-3.9l-0.1-0.9h4V0.4H240.1z"/>
		<path class="st0" d="M266.3,19.3V8.8h-5.6V7.6h5.6V0.2h1.2v19.1H266.3z M256.7,9.7c-1.1,5-3.3,7.9-6.2,8.3l-0.2,0v-1.1l0.1,0
			c4.3-0.8,5.9-8.8,5.9-15.9l0-0.1h1.2l0,0.1c0,2.4-0.2,4.8-0.6,7.2l6.3,9.3l-0.9,0.7L256.7,9.7z"/>
		<path class="st0" d="M256.9,8.2l6.2,9.2l-0.7,0.5l-5.8-8.6c-1.1,4.9-3.1,8.1-6.2,8.5V17c4.2-0.8,6-8.1,6-16.1h0.9
			C257.5,3.4,257.3,5.8,256.9,8.2z M267.4,0.4v18.8h-0.9V8.6h-5.5V7.8h5.5V0.4H267.4z"/>
		<path class="st0" d="M271.2,18.2v-1.1h18.9v1.1H271.2z M272.6,12.4V0.9h1.2v4.4h13.6V0.9h1.2v11.5H272.6z M287.4,11.2V6.4h-13.6
			v4.8H287.4z"/>
		<path class="st0" d="M289.9,17.2v0.9h-18.6v-0.9H289.9z M288.5,12.2h-15.7V1h0.9v4.4h13.9V1h0.9L288.5,12.2z M287.6,11.3V6.3
			h-13.9v5.1L287.6,11.3z"/>
		<path class="st0" d="M315.2,19.3V0.2h1.2v19.1H315.2z M311,19V9.6h-3V8.5h3V0.4h1.2V19H311z M298.5,18v-1.1h2.2V2.3h-2.1V1.1h10.1
			v1.1h-2.1v14.4c1-0.1,2-0.4,2.9-0.9l0.2-0.1v1.2l-0.1,0c-1.3,0.7-3.7,1-7.3,1H298.5z M302.2,16.9c1.2,0,2.2,0,3.1-0.1V2.3h-3.4
			L302.2,16.9z"/>
		<path class="st0" d="M306.3,16.8c1.1-0.1,2.1-0.4,3.1-0.9v0.9c-1.3,0.7-3.8,1-7.2,1h-3.6V17h2.2V2.1h-2.1V1.2h9.8v0.9h-2.1V16.8z
			 M305.4,16.9V2.1h-3.7V17h0.5C303.4,17,304.5,17,305.4,16.9z M311.2,0.5h0.9v18.3h-0.9V9.5h-3V8.6h3V0.5z M316.2,0.4v18.8h-0.9
			V0.4H316.2z"/>
		<path class="st0" d="M335.8,19.3V0.2h1.3v19.1H335.8z M326.4,18.3c-3.5,0-5.7-3.3-5.7-8.7c0-5.4,2.1-8.7,5.7-8.7
			c3.5,0,5.6,3.2,5.6,8.7C332,15,329.9,18.3,326.4,18.3z M326.4,2c-2.7,0-4.4,2.9-4.4,7.6c0,4.7,1.7,7.6,4.4,7.6
			c2.7,0,4.4-2.9,4.4-7.6C330.8,4.9,329.1,2,326.4,2z"/>
		<path class="st0" d="M331.9,9.5c0,5.8-2.3,8.6-5.5,8.6s-5.5-2.8-5.5-8.6s2.3-8.6,5.5-8.6S331.9,3.8,331.9,9.5z M321.8,9.5
			c0,5.2,2,7.7,4.6,7.7s4.5-2.5,4.5-7.7s-2-7.7-4.5-7.7S321.8,4.3,321.8,9.5z M336.9,19.2h-1V0.4h1V19.2z"/>
		<path class="st0" d="M357,19.3V0.2h1.2v19.1H357z M341.3,16.9l0.1,0c3.5-0.8,5.7-6.4,5.8-14.6h-5.6V1.1H354v1.1h-5.5
			c0,2.3-0.2,4.6-0.6,6.8l6.7,8l-0.9,0.7l-6.1-7.3c-1.1,4.3-3.2,6.9-6,7.5l-0.2,0V16.9z"/>
		<path class="st0" d="M347.7,9.1l6.7,7.9l-0.7,0.5l-6.2-7.4c-1.1,4.4-3.2,7.1-6,7.7V17c3.8-0.9,5.9-7.1,5.9-14.9h-5.6V1.2h12v0.9
			h-5.5C348.4,4.5,348.2,6.8,347.7,9.1z M358,0.4v18.8h-0.9V0.4H358z"/>
		<path class="st0" d="M377.6,19.3V0.2h1.2v8.2h3v1.2h-3v9.7H377.6z M363.1,18V1.1h10.3V18H363.1z M372.2,16.9V2.3h-7.9v14.6H372.2z
			"/>
		<path class="st0" d="M363.3,1.2h10.1v16.6h-10.1V1.2z M364.2,17h8.2V2.1h-8.2V17z M381.7,9.5h-3v9.7h-0.9V0.4h0.9v8.2h3V9.5z"/>
		<path class="st0" d="M398.7,19.3V0.2h1.2v8.2h3v1.2h-3v9.7H398.7z M384.3,18V1.1h11.1v1.1h-9.9v14.6h6.4c1.6,0,3.2-0.3,4.7-0.9
			l0.2-0.1V17l-0.1,0c-1.5,0.6-3.1,0.9-4.7,0.9L384.3,18z"/>
		<path class="st0" d="M391.8,17c1.7,0,3.3-0.3,4.9-1v0.9c-1.5,0.6-3.2,0.9-4.9,0.9h-7.4V1.2h10.8v0.9h-9.9V17H391.8z M402.8,9.5h-3
			v9.7h-0.9V0.4h0.9v8.2h3V9.5z"/>
		<path class="st0" d="M420.5,19.3V0.2h1.2v19.1H420.5z M404.3,18v-1.1h7.1c3.3,0,5.8-0.4,7.1-1l0.2-0.1V17l-0.1,0
			c-1.4,0.6-4.1,1-7.4,1H404.3z M410.9,12.6c-3.2,0-5.8-2.6-5.8-5.8c0-1.6,0.6-3,1.7-4.1c1.1-1.1,2.5-1.7,4.1-1.7
			c3.2,0,5.8,2.6,5.8,5.8C416.7,9.9,414.1,12.5,410.9,12.6L410.9,12.6z M410.9,2.2c-2.5,0-4.6,2-4.6,4.6s2,4.6,4.6,4.6
			s4.6-2,4.6-4.6S413.4,2.2,410.9,2.2z"/>
		<path class="st0" d="M411.4,17.8h-6.9V17h7c3.3,0,5.8-0.4,7.2-1v0.9C417.4,17.5,414.7,17.8,411.4,17.8z M416.5,6.7
			c0,3.1-2.5,5.7-5.6,5.7c-3.1,0-5.7-2.5-5.7-5.6c0,0,0,0,0,0c0-3.1,2.5-5.7,5.6-5.7C414,1.1,416.5,3.6,416.5,6.7
			C416.5,6.7,416.5,6.7,416.5,6.7z M406.2,6.7c0,2.6,2.1,4.7,4.7,4.7c2.6,0,4.7-2.1,4.7-4.7S413.5,2,410.9,2
			C408.3,2,406.2,4.1,406.2,6.7z M421.6,19.2h-0.9V0.4h0.9V19.2z"/>
		<path class="st0" d="M433.2,18.9v-5.2h1.2l0,4h15.1v1.1H433.2z M440.5,15.3v-3.5h-8.8v-1.1h18.9v1.1h-8.8v3.5H440.5z M433.2,8.4
			v-8h1.2v3h13.4v-3h1.2v8H433.2z M447.8,7.3V4.5h-13.4v2.8H447.8z"/>
		<path class="st0" d="M450.4,10.8v0.9h-8.8v3.5h-0.9v-3.5h-8.8v-0.9H450.4z M434.2,17.9h15.1v0.9h-16v-4.9h0.9L434.2,17.9z
			 M448.9,8.3h-15.5V0.6h0.9v3h13.7v-3h0.9L448.9,8.3z M447.9,7.5V4.4h-13.7v3.1H447.9z"/>
		<path class="st0" d="M469,19.3V0.2h1.2v19.1H469z M458.8,19.3v-5.7h-6v-1.1h7.1c0.4,0,0.8,0,1.1,0c2,0,4.1-0.3,6-0.8l0.2,0v1.2
			l-0.1,0c-2,0.5-4.1,0.8-6.2,0.8c-0.3,0-0.7,0-1,0H460v5.7H458.8z M459.4,10.4c-3.2,0-5.5-2-5.6-4.8v0c0-2.8,2.3-4.8,5.6-4.8
			c3.3,0,5.6,2,5.6,4.8C465,8.4,462.7,10.4,459.4,10.4z M459.4,1.9c-2.6,0-4.4,1.5-4.4,3.6c0,2.3,1.8,3.7,4.4,3.7
			c2.6,0,4.3-1.5,4.3-3.7C463.8,3.4,462,1.9,459.4,1.9z"/>
		<path class="st0" d="M460,12.6c2.4,0.1,4.9-0.1,7.2-0.8v0.9c-2.3,0.6-4.7,0.9-7.1,0.8h-0.2v5.7h-0.9v-5.7H453v-0.9L460,12.6z
			 M454,5.6c0-2.8,2.2-4.7,5.4-4.7s5.4,1.9,5.4,4.7s-2.2,4.7-5.4,4.7S454,8.3,454,5.6L454,5.6z M454.9,5.6c0,2.2,1.8,3.8,4.5,3.8
			s4.5-1.6,4.5-3.8s-1.8-3.8-4.5-3.8S454.9,3.3,454.9,5.6L454.9,5.6z M470.1,0.4v18.8h-0.9V0.4H470.1z"/>
		<path class="st0" d="M490.1,19.3V0.2h1.2v19.1H490.1z M475,17.9v-1.2h0.1c5.5,0,9-4.4,9-11.3V2.3H475V1.1h10.4v4.2
			c0,7.6-4,12.6-10.2,12.6H475z"/>
		<path class="st0" d="M485.2,5.3c0,7.5-3.8,12.4-10.1,12.4v-0.9c5.6,0,9.2-4.4,9.2-11.5V2.1h-9.2V1.2h10.1V5.3z M491.2,19.2h-0.9
			V0.4h0.9V19.2z"/>
		<path class="st0" d="M496.6,18.9v-4h14.8v-1.7h-14.8v-1.1h16V16h-14.8v1.8H513v1.1H496.6z M495.2,10.4V9.3H514v1.1H495.2z
			 M496.7,7.6V3.5h14.6V1.8h-14.6V0.6h15.8l0,4h-14.7v1.8h14.9v1.1H496.7z"/>
		<path class="st0" d="M513.9,10.3h-18.6V9.4h18.6V10.3z M512.4,15.9h-14.8v2.1h15.2v0.8h-16.1v-3.7h14.8v-2h-14.8v-0.8h15.7V15.9z
			 M512.4,4.5h-14.7v2.1h14.9v0.8h-15.8V3.7h14.6V1.6h-14.6V0.8h15.5L512.4,4.5z"/>
		<path class="st0" d="M524,18.9v-4.6h14.1V12H524v-1.1h15.3v4.6h-14l0,2.3H540v1.1H524z M538.1,9.8V0.2h1.2v4l3,0v1.1h-3v4.4H538.1
			z M523.4,8.8V0.9H535V2h-10.5v5.6h4.7c0.3,0,0.7,0,1,0c2.1,0,4.2-0.3,6.1-1l0.2-0.1v1.2l-0.1,0c-1.3,0.7-4,1-7.4,1H523.4z"/>
		<path class="st0" d="M529.1,8.6h-5.6V1h11.4v0.9h-10.5v5.9h4.8c2.4,0.1,4.9-0.2,7.2-1v0.9C535.2,8.3,532.5,8.6,529.1,8.6z
			 M525.1,17.9h14.7v0.9h-15.7v-4.3h14.1v-2.6h-14.1V11h15v4.3h-14L525.1,17.9z M542.1,4.4v0.9h-3v4.4h-0.9V0.4h0.9v4L542.1,4.4z"/>
		<path class="st0" d="M559.8,19.3V0.2h1.2v19.1H559.8z M552.7,18h-7.8V8.8h9.4V2.3h-9.5V1.1h10.7l0,8.8h-9.4v6.9l6.7,0
			c1.6,0,3.1-0.3,4.6-0.9l0.2-0.1V17l-0.1,0c-1.5,0.6-3,0.9-4.6,0.9L552.7,18z"/>
		<path class="st0" d="M555.4,9.8H546V17h6.7c1.7,0,3.3-0.3,4.9-0.9v0.9c-1.5,0.6-3.2,0.9-4.9,0.9h-7.6V8.9h9.4V2.1H545V1.2h10.4
			L555.4,9.8z M560.8,19.2h-0.9V0.4h0.9V19.2z"/>
		<path class="st0" d="M586.5,19.3V0.2h1.2v8.2h3v1.1h-3v9.7H586.5z M577.7,18.2c-3,0-5.1-2.4-5.1-5.8c0-3.4,2.2-5.8,5.1-5.8
			s5.1,2.4,5.1,5.8C582.8,15.8,580.7,18.2,577.7,18.2z M577.6,7.8c-2,0-3.9,1.6-3.9,4.7c0,3.1,2,4.7,3.9,4.7c2.2,0,3.9-1.9,4-4.5
			l0-0.1C581.5,9.4,579.6,7.8,577.6,7.8z M571.4,4.8V3.7h5.6V0.2h1.2v3.5h5.6v1.1H571.4z"/>
		<path class="st0" d="M578.1,3.8h5.6v0.9h-12.2V3.8h5.6V0.3h0.9V3.8z M582.7,12.4c0,3.5-2.3,5.6-5,5.6s-5-2.2-5-5.6s2.3-5.7,5-5.7
			S582.7,8.9,582.7,12.4z M581.7,12.4c0-2.9-1.9-4.8-4.1-4.8s-4.1,1.9-4.1,4.8s1.9,4.8,4.1,4.8S581.7,15.4,581.7,12.4L581.7,12.4z
			 M590.6,9.5h-3v9.7h-0.9V0.4h0.9v8.2h3V9.5z"/>
		<path class="st0" d="M608.4,19.3v-5.8h-4l0.1-1.1h3.9V6.7h-3.9l-0.1-1.1h4V0.2h1.2v19.1H608.4z M598.6,18.3
			c-3.5,0-5.5-3.3-5.5-8.7c0-5.4,2.1-8.7,5.5-8.7s5.5,3.2,5.5,8.7C604.1,15,602,18.3,598.6,18.3z M598.5,2c-2.7,0-4.3,2.8-4.3,7.6
			c0,4.7,1.6,7.6,4.3,7.6c2.7,0,4.3-2.8,4.3-7.4l-0.1-0.1C602.8,4.8,601.2,2,598.5,2z"/>
		<path class="st0" d="M603.9,9.5c0,5.8-2.2,8.6-5.4,8.6s-5.4-2.8-5.4-8.6s2.2-8.6,5.4-8.6S603.9,3.8,603.9,9.5z M602.9,9.5
			c0-5.2-1.9-7.7-4.4-7.7s-4.4,2.5-4.4,7.7s1.9,7.7,4.4,7.7S603,14.8,602.9,9.5L602.9,9.5z M609.5,0.4v18.8h-0.9v-5.8h-4l0.1-0.9
			h3.9V6.5h-3.9l-0.1-0.9h4V0.4H609.5z"/>
		<path class="st0" d="M621,18.9v-6h1.2v4.9H637v1.1H621z M635,14.5V0.2h1.2v5.1h3v1.1h-3v8.1H635z M620.3,10.9v-10H632V2h-10.5v7.7
			h4.7c0.3,0,0.7,0,1,0c2.1,0,4.2-0.3,6.1-1l0.2-0.1v1.2l-0.1,0c-1.3,0.7-4,1-7.4,1H620.3z"/>
		<path class="st0" d="M626.1,10.8h-5.6V1h11.4v0.9h-10.5v8h4.8c2.4,0.1,4.9-0.2,7.2-1v0.9C632.1,10.4,629.5,10.8,626.1,10.8z
			 M622,17.9h14.8v0.9h-15.7V13h0.9V17.9z M639.1,5.4v0.9h-3v8.1h-0.9v-14h0.9v5.1H639.1z"/>
		<path class="st0" d="M640.6,18.2v-1.1h8.8v-5.7h1.2v5.7h8.8v1.1H640.6z M649.6,6.8c-1.8,2.9-4.9,4.8-8.3,5l-0.2,0v-1.2l0.1,0
			c4.7-0.5,7.9-3.6,8.8-8.4h-8.4V1.2h16.7v1.1h-7.1c-0.2,1.2-0.6,2.4-1.1,3.5l8.7,5.3l-0.6,1L649.6,6.8z"/>
		<path class="st0" d="M659.3,17.2v0.9h-18.6v-0.9h8.8v-5.7h0.9v5.7H659.3z M641.3,11.7v-0.9c4.6-0.5,8-3.5,8.9-8.7h-8.5V1.3h16.5
			v0.9h-7.1c-0.2,1.3-0.6,2.5-1.1,3.7l8.7,5.3l-0.5,0.8l-8.6-5.2C647.8,9.6,644.7,11.4,641.3,11.7z"/>
		<polygon class="st0" points="661.8,18.2 661.8,17.1 670.5,17.1 670.5,12.6 663.2,12.6 663.2,6.3 678.1,6.3 678.1,2.3 663.2,2.3 
			663.2,1.1 679.3,1.1 679.3,7.4 664.5,7.4 664.5,11.4 679.6,11.4 679.6,12.6 671.8,12.6 671.8,17 680.6,17.1 680.6,18.2 		"/>
		<path class="st0" d="M680.5,17.2v0.9h-18.6v-0.9h8.8v-4.7h-7.3V6.4h14.8V2.1h-14.8V1.2h15.8v6h-14.8v4.3h15.2v0.9h-7.9v4.7
			L680.5,17.2z"/>
		<path class="st0" d="M684.4,18.9v-6.2h7.3v-2.4h-8.8V9.2h18.9v1.1H693v2.4h7.4v6.2H684.4z M699.1,17.7v-3.9h-13.5v3.9H699.1z
			 M692.3,7.5c-3.9,0-8.1-0.9-8.1-3.6c0-2.6,4.2-3.6,8.1-3.6c5.1,0,8.1,1.3,8.1,3.6C700.5,6.5,696.3,7.5,692.3,7.5z M692.4,1.4
			c-3.5,0-7,0.8-7,2.4c0,1.7,3.5,2.5,7,2.5s7-0.8,7-2.5C699.3,2.2,695.8,1.4,692.4,1.4z"/>
		<path class="st0" d="M692.8,10.2v2.7h7.3v5.9h-15.6v-5.9h7.3v-2.7h-8.8V9.3h18.6v0.9H692.8z M684.3,3.9c0-2.4,3.8-3.5,8-3.5
			s8,1,8,3.5s-3.8,3.5-8,3.5S684.3,6.3,684.3,3.9z M685.3,3.9c0,1.8,3.5,2.6,7.1,2.6s7.1-0.8,7.1-2.6s-3.5-2.6-7.1-2.6
			S685.3,2.1,685.3,3.9z M699.3,13.7h-13.8v4.2h13.8V13.7z"/>
		<path class="st0" d="M705.6,18.9v-4.2h14.8v-1.9h-14.8v-1.1h16v4.1h-14.8v2H722v1.1H705.6z M704.1,9.7V8.6H723v1.1H704.1z
			 M713.6,7.2c-5.2,0-8.1-1.2-8.1-3.4c0-2.2,3-3.4,8.1-3.4c2.4,0,8.1,0.3,8.1,3.4C721.7,6,718.7,7.2,713.6,7.2z M713.5,1.5
			c-4.3,0-6.9,0.9-6.9,2.3c0,1.4,2.6,2.3,6.9,2.3c3.4,0,6.9-0.6,6.9-2.3C720.5,2.3,717.9,1.5,713.5,1.5z"/>
		<path class="st0" d="M722.8,9.6h-18.6V8.8h18.6V9.6z M721.6,3.8c0,2.4-3.8,3.3-8,3.3s-8-0.9-8-3.3s3.8-3.3,8-3.3
			S721.6,1.4,721.6,3.8z M721.4,15.7h-14.8v2.2h15.2v0.8h-16.1v-3.9h14.8v-2.2h-14.8v-0.8h15.7V15.7z M706.5,3.8
			c0,1.8,3.4,2.5,7.1,2.5s7.1-0.7,7.1-2.5s-3.4-2.4-7.1-2.4S706.5,2,706.5,3.8z"/>
		<path class="st0" d="M748.1,19.3V0.2h1.2v19.1H748.1z M743.1,19V9h-3.5V7.8h3.5V0.4h1.2V19H743.1z M731.7,16.8L731.7,16.8
			c2.8-1,4.2-6,4.3-14.6h-4V1.1h9.1v1.1h-3.8c0,2.2-0.1,4.3-0.4,6.5l4.8,8.5l-1,0.6l-4.1-7.3c-0.8,4.3-2.3,6.8-4.6,7.5l-0.2,0.1
			V16.8z"/>
		<path class="st0" d="M736.7,8.7l4.8,8.4l-0.8,0.5l-4.2-7.5c-0.7,4.5-2.3,7.1-4.6,7.8v-0.9c3-1.1,4.2-6.8,4.3-14.8h-4V1.2h8.8v0.9
			h-3.8C737.1,4.3,737,6.5,736.7,8.7z M743.3,0.5h0.9v18.3h-0.9v-10h-3.5V7.9h3.5V0.5z M749.2,0.4v18.8h-0.9V0.4L749.2,0.4z"/>
		<path class="st0" d="M768.9,19.3V9.6h-5.6c-1.2,5.3-4.7,8.3-9.6,8.3h-0.1v-1.2h0.1c5.5,0,8.9-4.3,8.9-11.3V2.3h-9V1.1h10.2v4.2
			c0,1-0.1,2.1-0.2,3.1h5.4V0.2h1.2v19.1H768.9z"/>
		<path class="st0" d="M770,0.4v18.8h-0.9V9.5h-5.9c-1.1,5.1-4.4,8.3-9.5,8.3v-0.9c5.6,0,9-4.5,9-11.5V2.1h-9V1.2h9.9v4.1
			c0,1.1-0.1,2.2-0.3,3.3h5.7V0.4H770z"/>
		<path class="st0" d="M775.3,18.9v-4.3h14.1v-2.1h-14.1v-1.1h15.3v4.3h-14l0,2.1h14.7v1.1H775.3z M789.3,10.4V0.2h1.2v4.5h3v1.1h-3
			v4.6H789.3z M780.3,10.1c-3.4,0-5.4-1.2-5.4-3.1c0-1.8,2.1-3,5.5-3c3.4,0,5.5,1.2,5.5,3C785.8,8.9,783.6,10.1,780.3,10.1z
			 M776.1,7.1c0,1.2,1.7,2,4.3,2s4.3-0.8,4.3-2c0-1.2-1.7-1.9-4.3-1.9c-2.5,0-4.1,0.7-4.3,1.8L776.1,7.1z M773.9,3V1.9h5.9v-2.1h1.2
			v2h5.9L786.8,3H773.9z"/>
		<path class="st0" d="M786.7,2.9H774V2.1h5.9V0h0.9v2h5.9L786.7,2.9z M775,7.1c0-1.9,2.3-2.9,5.3-2.9s5.3,1,5.3,2.9
			s-2.3,2.9-5.4,2.9S775,9,775,7.1z M776.4,17.9h14.7v0.8h-15.7v-4h14.1v-2.3h-14.1v-0.8h15v4h-14L776.4,17.9z M775.9,7.1
			c0,1.2,1.7,2.1,4.4,2.1s4.4-0.9,4.4-2.1S783,5,780.3,5S775.9,5.8,775.9,7.1L775.9,7.1z M793.4,4.8v0.8h-3v4.6h-0.9V0.4h0.9v4.5
			H793.4z"/>
		<path class="st0" d="M809.9,19.7v-6.1h-8.8v-1.1h18.9v1.1h-8.8v6.1H809.9z M810.2,5.2c-2.1,3.2-5.3,5.1-8.6,5.1l-0.1,0V9.1h0.1
			c4.1,0,8.3-4,9.3-8.8l0-0.1l1.3,0.3l0,0.1c-0.3,1.3-0.7,2.5-1.4,3.6l8.3,5.1l-0.6,1L810.2,5.2z"/>
		<path class="st0" d="M819.8,13.5H811v6.1h-1v-6.1h-8.8v-0.9h18.6V13.5z M801.7,10.2V9.3c4.4,0,8.4-4.1,9.4-8.9l1,0.2
			c-0.3,1.3-0.8,2.5-1.4,3.7l8.3,5.1l-0.4,0.8L810.2,5C808.2,8,805,10.1,801.7,10.2z"/>
		<path class="st0" d="M842.7,15.5c-0.8,1.8-2.5,3-4.4,3.4l-0.1,0l-3.5-3.3c-0.9,1.7-2.5,2.9-4.3,3.3l-0.2,0v-1.1l0.1,0
			c2.3-0.4,4.2-3.1,4.4-6.3l0-0.1l1.2,0.1l0,0.1c-0.1,1-0.3,2.1-0.7,3l3.3,3.1c2.1-0.6,3.8-3.2,4-6.2l0-0.2l1.2,0.1l0,0.1
			c-0.1,1-0.3,1.9-0.6,2.8l4.3,3.7l-0.9,0.8L842.7,15.5z M844.5,11V0.2h1.2V11H844.5z M834.7,10.4c-3.5,0-5.8-2-5.8-4.9
			c0-2.9,2.3-4.9,5.8-4.9s5.8,2,5.8,4.9C840.6,8.4,838.2,10.4,834.7,10.4z M834.7,1.7c-2.8,0-4.6,1.5-4.6,3.8s1.8,3.8,4.6,3.8
			c2.9,0,4.6-1.5,4.6-3.8C839.4,3.2,837.6,1.7,834.7,1.7z"/>
		<path class="st0" d="M834.7,10.2c-3.6,0-5.7-2-5.7-4.8s2.1-4.8,5.7-4.8s5.7,2,5.7,4.8S838.3,10.2,834.7,10.2z M834.7,9.4
			c2.8,0,4.8-1.4,4.8-3.9s-2-3.9-4.8-3.9S830,3,830,5.5S831.9,9.4,834.7,9.4z M846.6,18.7l-4-3.5c-0.8,1.8-2.4,3.1-4.4,3.5l-3.6-3.4
			c-0.8,1.8-2.4,3-4.3,3.4v-0.9c2.3-0.4,4.3-3.2,4.5-6.4l0.9,0.1c-0.1,1.1-0.3,2.1-0.7,3.1l3.5,3.3c2.2-0.5,4-3.2,4.1-6.4l0.9,0.1
			c-0.1,1-0.3,2-0.6,2.9l4.3,3.7L846.6,18.7z M845.6,10.9h-0.9V0.4h0.9V10.9z"/>
		<polygon class="st0" points="849.6,18.2 849.6,17.1 858.4,17.1 858.4,11.6 851,11.6 851,1.1 867,1.1 867,2.3 852.2,2.3 
			852.2,10.5 867.2,10.5 867.2,11.6 859.5,11.6 859.5,17.1 868.4,17.1 868.4,18.2 		"/>
		<path class="st0" d="M868.3,17.2v0.9h-18.6v-0.9h8.8v-5.7h-7.3V1.2h15.8v0.9h-14.8v8.5h15v0.9h-7.7v5.8L868.3,17.2z"/>
		<path class="st0" d="M886.9,19.1v-3.8H872l0-1.1h16.1v4.9H886.9z M870.7,12.1V11h8.8V8.8h-7.3V4.1h14.6V1.8h-14.6V0.6h15.8v4.6
			h-14.7v2.4h14.9v1.1h-7.7V11h8.8v1.1H870.7z"/>
		<path class="st0" d="M889.5,11.2V12h-18.6v-0.8h8.8V8.6h-7.3V4.3h14.6V1.6h-14.6V0.8H888v4.3h-14.7v2.7h14.9v0.8h-7.7v2.5
			L889.5,11.2z M872.2,14.4H888V19h-0.9v-3.8h-14.9L872.2,14.4z"/>
		<path class="st0" d="M914.1,19.3V0.2h1.3v19.1H914.1z M899.4,17.9V1.1h11.3l-0.1,1.1h-10v14.6h6.5c1.7,0,3.3-0.3,4.8-1l0.2-0.1V17
			l-0.1,0c-1.5,0.6-3.1,0.9-4.7,0.9L899.4,17.9z"/>
		<path class="st0" d="M910.5,2.1h-10V17h6.7c1.7,0,3.3-0.3,4.9-1v0.9c-1.5,0.6-3.2,0.9-4.9,0.9h-7.6V1.2h11L910.5,2.1z M915.3,19.2
			h-1V0.4h1V19.2z"/>
		<path class="st0" d="M934.9,19.3V0.2h1.2v8.2h3L939,9.6h-3v9.7H934.9z M919.5,16.9l0.1,0c3.5-0.8,5.7-6.4,5.7-14.6h-5.5V1.1H932
			v1.1h-5.4c0,2.3-0.2,4.6-0.7,6.9l6.6,8l-1,0.7l-6-7.3c-1.1,4.3-3.2,6.8-5.9,7.5l-0.2,0V16.9z"/>
		<path class="st0" d="M925.8,9.1l6.6,7.9l-0.7,0.5l-6.1-7.4c-1.1,4.3-3.1,7-5.9,7.6V17c3.8-0.9,5.8-7.1,5.8-14.9H920V1.2h11.8v0.9
			h-5.4C926.5,4.5,926.2,6.8,925.8,9.1z M938.9,9.5h-3v9.7H935V0.4h0.9v8.2h3L938.9,9.5z"/>
		<path class="st0" d="M942.4,18.8v-6h1.2v4.9h14.8v1.1H942.4z M956.5,14.5V0.2h1.2v14.3H956.5z M946.7,11.5c-3.5,0-5.9-2.2-5.9-5.5
			c0-3.3,2.3-5.4,5.9-5.4c3.5,0,5.9,2.2,5.9,5.4C952.6,9.3,950.2,11.5,946.7,11.5z M946.7,1.6c-2.8,0-4.7,1.8-4.7,4.4
			c0,2.7,1.8,4.4,4.7,4.4c2.8,0,4.7-1.7,4.7-4.4S949.5,1.6,946.7,1.6z"/>
		<path class="st0" d="M952.5,6c0,3-2.1,5.3-5.8,5.3S940.9,9,940.9,6s2.1-5.3,5.8-5.3S952.5,3.1,952.5,6z M941.9,6
			c0,2.7,1.9,4.5,4.8,4.5s4.8-1.8,4.8-4.5s-1.9-4.5-4.8-4.5S941.9,3.3,941.9,6z M943.5,17.8h14.8v0.9h-15.7v-5.8h0.9V17.8z
			 M957.6,14.3h-0.9v-14h0.9V14.3z"/>
		<path class="st0" d="M975.8,15.9c-1,1.5-2.7,2.6-4.5,2.9l-0.1,0l-3.7-2.7c-1.1,1.4-2.7,2.4-4.4,2.7l-0.2,0v-1.1l0.1,0
			c2.5-0.6,4.4-2.7,4.8-5.2l0-0.1l1.2,0.1l0,0.1c-0.1,0.9-0.4,1.7-0.9,2.5l3.3,2.5c2.3-0.7,4-2.7,4.3-5.1l0-0.1l1.2,0.1l0,0.1
			c-0.1,0.8-0.3,1.5-0.7,2.2l4.5,3l-0.7,1L975.8,15.9z M978.2,12.3v-6h-3.9v5.8h-1.2V0.4h1.2v4.8h3.9V0.2h1.2v12.1H978.2z
			 M966.5,11.9c-2.6,0-4.4-1.4-4.4-3.6c0-2.1,1.8-3.6,4.4-3.6s4.4,1.4,4.4,3.6C970.9,10.4,969.2,11.9,966.5,11.9z M963.3,8.4
			c0.1,1.4,1.4,2.3,3.2,2.3c1.9,0,3.2-1,3.2-2.5s-1.3-2.5-3.2-2.5c-1.9,0-3.1,1-3.1,2.5L963.3,8.4L963.3,8.4z M961.3,3.6V2.5h4.6V0
			h1.2v2.5h4.4l0,1.1H961.3z"/>
		<path class="st0" d="M971.4,3.5h-9.9V2.6h4.6V0.1h0.9v2.5h4.4L971.4,3.5z M962.3,8.2c0-2.2,1.8-3.4,4.2-3.4s4.2,1.3,4.2,3.4
			s-1.8,3.5-4.2,3.5S962.3,10.4,962.3,8.2L962.3,8.2z M980.2,18.7l-4.4-3c-1,1.6-2.6,2.7-4.5,3l-3.7-2.8c-1.1,1.5-2.7,2.5-4.4,2.8
			v-0.9c2.6-0.6,4.5-2.7,4.9-5.3l0.9,0.1c-0.1,0.9-0.4,1.8-0.9,2.5l3.5,2.6c2.4-0.7,4.2-2.7,4.5-5.2l0.9,0.1
			c-0.1,0.8-0.3,1.6-0.7,2.3l4.5,3L980.2,18.7z M963.2,8.2c0,1.4,1.2,2.6,3.3,2.6s3.3-1.2,3.3-2.6s-1.2-2.6-3.3-2.6
			S963.2,6.8,963.2,8.2L963.2,8.2z M974.2,12h-0.9V0.5h0.9v4.8h4.2v-5h0.9v11.8h-0.9v-6h-4.2V12z"/>
		<path class="st0" d="M984.2,18.9v-7.3h1.2v2.5h13.5v-2.5h1.2v7.3H984.2z M998.9,17.7v-2.5h-13.4v2.5H998.9z M982.7,10.1V9h18.9
			v1.2H982.7z M991.9,3.5c-2.2,2.3-5.1,3.6-8.3,3.7l-0.1,0V6l0.1,0c3.6-0.1,8-2.5,8.9-6.1l0-0.1l1.2,0.2l0,0.1
			c-0.2,0.8-0.5,1.6-0.9,2.4l8.1,3.7l-0.5,1L991.9,3.5z"/>
		<path class="st0" d="M1001.4,9.1V10h-18.6V9.1H1001.4z M983.7,7V6.2c3.7-0.1,8.1-2.5,9-6.2l0.9,0.2c-0.2,0.9-0.5,1.7-1,2.5
			l8.1,3.7l-0.4,0.8l-8.4-3.8C989.8,5.6,986.8,6.9,983.7,7z M999,11.8h0.9v7h-15.6v-7h0.9v2.5H999V11.8z M999,17.9v-2.8h-13.7v2.8
			H999z"/>
		<path class="st0" d="M1019.9,19.4V0.2h1.3v19.1H1019.9z M1005.2,18V1h1.2v15.9l6.7,0c1.6,0,3.2-0.3,4.6-0.9l0.2-0.1v1.2l-0.1,0
			c-1.5,0.6-3.1,0.9-4.7,0.9L1005.2,18z"/>
		<path class="st0" d="M1006.2,17h6.7c1.7,0,3.3-0.3,4.9-0.9V17c-1.5,0.6-3.2,1-4.9,0.9h-7.6V1.1h0.9V17z M1021.1,19.2h-1V0.4h1
			V19.2z"/>
		<path class="st0" d="M1040.6,19.3V0.2h1.2v8.2h3v1.2h-3v9.7H1040.6z M1026.1,18V1.1h11.1v1.1h-9.9v14.6c0,0,6.3,0,6.3,0
			c1.7,0,3.3-0.3,4.8-0.9l0.2-0.1V17l-0.1,0c-1.5,0.6-3.1,0.9-4.7,0.9L1026.1,18z"/>
		<path class="st0" d="M1033.7,17c1.7,0,3.3-0.3,4.9-1v0.9c-1.5,0.6-3.2,0.9-4.9,0.9h-7.4V1.2h10.8v0.9h-9.9V17H1033.7z M1044.7,9.5
			h-3v9.7h-0.9V0.4h0.9v8.2h3V9.5z"/>
		<circle class="st0" cx="1047.4" cy="17.9" r="1.1"/>
		<path class="st0" d="M1048.4,17.9c0,0.6-0.4,1-1,1s-1-0.4-1-1s0.4-1,1-1S1048.4,17.4,1048.4,17.9z"/>
	</g>
</g>
</svg>
