<svg xmlns="http://www.w3.org/2000/svg" viewBox="0 0 1048.44 19.6"><defs><style>.cls-1{fill:#fff;}</style></defs><g id="레이어_2" data-name="레이어 2"><g id="레이어_1-2" data-name="레이어 1"><path class="cls-1" d="M7.39,17A12.48,12.48,0,0,0,12.26,16v.9a12.41,12.41,0,0,1-4.87.9H0V1.25H10.78v.86H.92V17Zm11-7.53h-3v9.71H14.5V.37h.92V8.6h3Z"/><path class="cls-1" d="M26,10c-3.52,0-5.61-1.94-5.61-4.64S22.44.7,26,.7s5.61,1.94,5.61,4.65S29.48,10,26,10Zm0-.81c2.75,0,4.69-1.39,4.69-3.83S28.71,1.52,26,1.52,21.27,2.9,21.27,5.35,23.21,9.18,26,9.18Zm11,6.16c0,2.5-3.34,3.65-7.59,3.65s-7.59-1.15-7.59-3.65,3.34-3.66,7.59-3.66S36.94,12.83,36.94,15.34Zm-.95,0c0-1.9-2.92-2.8-6.64-2.8s-6.65.9-6.65,2.8,2.93,2.79,6.65,2.79S36,17.23,36,15.34Zm.6-11.78V7.28h3v.86h-3V10.8h-.93V.37h.93V2.71h3v.85Z"/><path class="cls-1" d="M54,3.43H41.27V2.57h5.88V0h.92V2.57H54ZM42.22,8.76c0-2.38,2.26-3.83,5.39-3.83S53,6.38,53,8.76s-2.27,3.83-5.39,3.83S42.22,11.13,42.22,8.76Zm1.43,9.11H58.46v.85H42.72V14.1h.93Zm-.51-9.11c0,1.76,1.72,3,4.47,3s4.46-1.23,4.46-3-1.71-3-4.46-3S43.14,7,43.14,8.76Zm17.58-2.6V7h-3v7.5h-.92V.37h.92V6.16Z"/><path class="cls-1" d="M72.51,11.27H69.34V1h8.1v.84H70.27V5.68h6.44v.83H70.27v3.92h2.37a16.51,16.51,0,0,0,5.81-.75v.86A17.54,17.54,0,0,1,72.51,11.27Zm-2.33,2.48H86.13V19h-.92V14.61h-15ZM80.81,6.36h-3V5.52h3v-5h.92V12.23h-.92Zm5.32-6V12.43h-.92V.37Z"/><path class="cls-1" d="M108.29,17.21v.85H89.71v-.85Zm-18.2-5.15v-.88c4.36,0,8.32-5.09,9.53-10.61l1,.24A17.81,17.81,0,0,1,99,5.15l8.52,6.27-.57.66L98.63,5.92C96.56,9.51,93.39,12.06,90.09,12.06Z"/><path class="cls-1" d="M117.44,9.57l6.46,7.66-.66.61-6.07-7.21c-1.08,4-3.12,6.6-5.9,7.21V17c3.5-.83,5.55-6,5.81-12.32h-5.67V3.78h5.7V.35H118V3.78h5.32v.86H118A30.67,30.67,0,0,1,117.44,9.57ZM128.11.37v18.8h-.93V12h-4.29v-.86h4.29V7.44h-4.29V6.58h4.29V.37Z"/><path class="cls-1" d="M150.61,10.28H132V9.44h18.57Zm-1.43,5.58H134.4v2.07h15.2v.82H133.49V15.07h14.79v-2H133.45v-.81h15.73Zm0-11.37H134.51V6.62h14.94v.82H133.6V3.67h14.64V1.61H133.6V.79h15.54Z"/><path class="cls-1" d="M171.38,9.55c0,5.79-2.33,8.56-5.5,8.56s-5.5-2.77-5.5-8.56S162.71,1,165.88,1,171.38,3.76,171.38,9.55Zm-10,0c0,5.21,1.95,7.7,4.55,7.7s4.55-2.49,4.55-7.7-2-7.7-4.55-7.7S161.33,4.33,161.33,9.55Zm15.11,9.62h-.94V.37h.94Z"/><path class="cls-1" d="M199.1,9.68v.86H180.53V9.68h4.64V6.78c-2-.51-3.41-1.46-3.41-2.93,0-2.44,3.83-3.43,8.06-3.43s8.05,1,8.05,3.43c0,1.47-1.39,2.42-3.41,2.93v2.9Zm-1.3,6.16c0,2.47-4,3.21-8,3.21s-8-.74-8-3.21,4-3.17,8-3.17S197.8,13.38,197.8,15.84Zm-8-9.42c3.65,0,7.1-.77,7.1-2.57s-3.45-2.57-7.1-2.57-7.11.77-7.11,2.57S186.16,6.42,189.82,6.42Zm7,9.42c0-1.8-3.74-2.31-7-2.31s-7,.51-7,2.31,3.74,2.36,7,2.36S196.86,17.65,196.86,15.84ZM186.1,9.68h7.43V7a19.71,19.71,0,0,1-3.71.3A19.74,19.74,0,0,1,186.1,7Z"/><path class="cls-1" d="M208.69,3.83h5.63v.86H202.16V3.83h5.61V.33h.92Zm4.58,8.58c0,3.48-2.27,5.65-5,5.65s-5-2.17-5-5.65,2.27-5.66,5-5.66S213.27,8.93,213.27,12.41Zm-1,0c0-2.95-1.89-4.8-4.09-4.8s-4.09,1.85-4.09,4.8,1.89,4.8,4.09,4.8S212.32,15.36,212.32,12.41Zm8.87-2.95h-3v9.71h-.93V.37h.93V8.6h3Z"/><path class="cls-1" d="M234.52,9.55c0,5.79-2.24,8.56-5.37,8.56s-5.37-2.77-5.37-8.56S226,1,229.15,1,234.52,3.76,234.52,9.55Zm-1,0c0-5.22-1.87-7.7-4.42-7.7s-4.42,2.48-4.42,7.7,1.87,7.7,4.42,7.7S233.57,14.76,233.57,9.55ZM240.09.37v18.8h-.93V13.33h-4l.06-.85h3.94V6.54h-3.94l-.06-.86h4V.37Z"/><path class="cls-1" d="M256.89,8.16l6.25,9.22-.72.55-5.75-8.62c-1.05,4.93-3.12,8.09-6.18,8.53V17c4.2-.82,6-8.14,6.05-16.07l.92,0A43.84,43.84,0,0,1,256.89,8.16ZM267.41.37v18.8h-.92V8.63h-5.55V7.77h5.55V.37Z"/><path class="cls-1" d="M289.92,17.21v.85H271.34v-.85Zm-1.43-5H272.78V1h.92v4.4h13.86V1h.93Zm-.93-.86V6.29H273.7v5.06Z"/><path class="cls-1" d="M306.33,16.79a9,9,0,0,0,3.1-.9v.92c-1.3.68-3.79,1-7.2,1H298.6V17h2.18V2.11h-2.09V1.25h9.77v.86h-2.13Zm-.93.11V2.11h-3.69V17h.46C303.4,17,304.48,17,305.4,16.9ZM311.19.51h.92V18.83h-.92V9.46h-3V8.6h3Zm5.06-.14v18.8h-.92V.37Z"/><path class="cls-1" d="M331.85,9.55c0,5.79-2.34,8.56-5.5,8.56s-5.51-2.77-5.51-8.56S323.18,1,326.35,1,331.85,3.76,331.85,9.55Zm-10.06,0c0,5.21,2,7.7,4.56,7.7s4.55-2.49,4.55-7.7-2-7.7-4.55-7.7S321.79,4.33,321.79,9.55Zm15.12,9.62h-1V.37h1Z"/><path class="cls-1" d="M347.71,9.13l6.66,7.94-.72.55-6.18-7.45c-1.1,4.37-3.17,7.08-6,7.67V17c3.81-.9,5.88-7.08,5.94-14.85h-5.56V1.25h12v.86h-5.48A37.49,37.49,0,0,1,347.71,9.13ZM358.05.37v18.8h-.93V.37Z"/><path class="cls-1" d="M363.26,1.25h10.06V17.84H363.26ZM364.18,17h8.21V2.11h-8.21Zm17.48-7.53h-3v9.71h-.92V.37h.92V8.6h3Z"/><path class="cls-1" d="M391.82,17a12.39,12.39,0,0,0,4.86-.95v.9a12.36,12.36,0,0,1-4.86.9h-7.4V1.25h10.79v.86h-9.86V17Zm11-7.53h-3v9.71h-.93V.37h.93V8.6h3Z"/><path class="cls-1" d="M411.35,17.84h-6.86V17h7c3.26,0,5.84-.36,7.2-1v.88C417.38,17.47,414.74,17.84,411.35,17.84Zm5.19-11.09a5.65,5.65,0,1,1-11.3,0,5.65,5.65,0,1,1,11.3,0Zm-10.36,0a4.71,4.71,0,1,0,9.42,0,4.71,4.71,0,1,0-9.42,0Zm15.43,12.42h-.93V.37h.93Z"/><path class="cls-1" d="M450.38,10.8v.86h-8.82v3.5h-.93v-3.5h-8.82V10.8Zm-16.15,7.09h15.12v.86h-16V13.88h.92ZM448.86,8.3H433.35V.59h.93v3h13.66V.59h.92Zm-.92-.84V4.36H434.28v3.1Z"/><path class="cls-1" d="M460,12.59a22.51,22.51,0,0,0,7.2-.8v.88a24.32,24.32,0,0,1-7.13.77h-.2v5.73h-.92V13.44H453v-.85Zm-6-7c0-2.75,2.25-4.68,5.42-4.68s5.41,1.93,5.41,4.68-2.24,4.69-5.41,4.69S454,8.3,454,5.54Zm.93,0c0,2.21,1.76,3.83,4.49,3.83s4.49-1.62,4.49-3.83-1.79-3.82-4.49-3.82S454.89,3.34,454.89,5.54ZM470.09.37v18.8h-.92V.37Z"/><path class="cls-1" d="M485.25,5.32c0,7.46-3.81,12.44-10.08,12.44v-.88c5.59,0,9.16-4.45,9.16-11.47V2.11h-9.16V1.25h10.08Zm5.94,13.85h-.92V.37h.92Z"/><path class="cls-1" d="M513.87,10.28H495.3V9.44h18.57Zm-1.43,5.58H497.66v2.07h15.2v.82H496.75V15.07h14.79v-2H496.71v-.81h15.73Zm0-11.37H497.77V6.62h14.94v.82H496.87V3.67H511.5V1.61H496.87V.79H512.4Z"/><path class="cls-1" d="M529.12,8.65h-5.61V1H534.9v.86H524.43v5.9h4.82a19.08,19.08,0,0,0,7.19-1v.88C535.15,8.27,532.51,8.65,529.12,8.65Zm-4,9.22h14.7v.85H524.14V14.43H538.2V11.84H524.1V11h15v4.29h-14Zm17-13.47v.86h-3v4.4h-.92V.37h.92v4Z"/><path class="cls-1" d="M555.41,9.77H546V17h6.69a12.42,12.42,0,0,0,4.86-.91v.86a12,12,0,0,1-4.86.9h-7.63V8.91h9.41V2.11H545V1.25h10.39Zm5.43,9.4h-.92V.37h.92Z"/><path class="cls-1" d="M578.11,3.83h5.63v.86H571.58V3.83h5.61V.33h.92Zm4.58,8.58c0,3.48-2.27,5.65-5,5.65s-5-2.17-5-5.65,2.27-5.66,5-5.66S582.69,8.93,582.69,12.41Zm-1,0c0-2.95-1.89-4.8-4.09-4.8s-4.09,1.85-4.09,4.8,1.89,4.8,4.09,4.8S581.74,15.36,581.74,12.41Zm8.87-2.95h-3v9.71h-.93V.37h.93V8.6h3Z"/><path class="cls-1" d="M603.94,9.55c0,5.79-2.24,8.56-5.37,8.56s-5.37-2.77-5.37-8.56S595.45,1,598.57,1,603.94,3.76,603.94,9.55Zm-1,0c0-5.22-1.87-7.7-4.42-7.7s-4.42,2.48-4.42,7.7,1.87,7.7,4.42,7.7S603,14.76,603,9.55ZM609.51.37v18.8h-.93V13.33h-4l.06-.85h3.94V6.54h-3.94l-.06-.86h4V.37Z"/><path class="cls-1" d="M626.09,10.76h-5.61V1h11.4v.86H621.41v8h4.81a19.14,19.14,0,0,0,7.2-1v.88C632.12,10.39,629.48,10.76,626.09,10.76ZM622,17.87h14.81v.85H621.1V13H622ZM639.1,5.43v.86h-3v8.08h-.93V.37h.93V5.43Z"/><path class="cls-1" d="M659.34,17.21v.85H640.77v-.85h8.8v-5.7h.92v5.7Zm-18.07-5.5v-.88c4.58-.53,8-3.5,8.94-8.67h-8.45V1.3h16.45v.86h-7.08A12.89,12.89,0,0,1,650,5.81l8.69,5.26-.49.77-8.62-5.22A10.69,10.69,0,0,1,641.27,11.71Z"/><path class="cls-1" d="M680.5,17.21v.85H661.93v-.85h8.76V12.48h-7.31V6.42h14.83V2.11H663.38V1.25h15.76v6H664.31v4.34h15.16v.86h-7.86v4.73Z"/><path class="cls-1" d="M692.84,10.17v2.68h7.35v5.9h-15.6v-5.9h7.33V10.17h-8.83V9.31h18.57v.86Zm-8.51-6.3c0-2.44,3.82-3.45,8-3.45s8,1,8,3.45-3.83,3.46-8,3.46S684.33,6.31,684.33,3.87Zm.94,0c0,1.81,3.46,2.6,7.11,2.6s7.11-.79,7.11-2.6S696,1.28,692.38,1.28,685.27,2.07,685.27,3.87Zm14,9.84H685.51v4.18h13.76Z"/><path class="cls-1" d="M722.83,9.59H704.26V8.76h18.57Zm-1.26-5.81c0,2.4-3.8,3.28-8,3.28s-8-.88-8-3.28,3.81-3.27,8-3.27S721.57,1.39,721.57,3.78Zm-.17,11.89H706.63v2.24h15.19v.84H705.71v-3.9h14.76V12.67h-14.8v-.83H721.4ZM706.46,3.78c0,1.79,3.43,2.45,7.08,2.45s7.09-.66,7.09-2.45-3.43-2.44-7.09-2.44S706.46,2,706.46,3.78Z"/><path class="cls-1" d="M736.71,8.71l4.75,8.43-.77.46-4.2-7.54q-1.12,6.72-4.6,7.78v-.9c3-1.08,4.24-6.84,4.27-14.83h-4V1.25h8.8v.86h-3.85A57.58,57.58,0,0,1,736.71,8.71Zm6.55-8.2h.93V18.83h-.93v-10h-3.45V7.92h3.45Zm5.9-.14v18.8h-.92V.37Z"/><path class="cls-1" d="M770,.37v18.8h-.92V9.46h-5.9c-1.14,5.06-4.44,8.3-9.46,8.3v-.88c5.59,0,9-4.54,9-11.47V2.11h-9V1.25h9.88V5.32a20.19,20.19,0,0,1-.26,3.28h5.74V.37Z"/><path class="cls-1" d="M786.65,2.9H774V2.07h5.88V0h.92v2h5.9ZM775,7.08c0-1.87,2.29-2.9,5.33-2.9s5.32,1,5.32,2.9S783.33,10,780.29,10,775,9,775,7.08Zm1.39,10.81h14.74v.83H775.43v-4h14.08V12.37H775.38v-.84h15v4H776.35Zm-.46-10.81c0,1.24,1.67,2.1,4.4,2.1s4.4-.86,4.4-2.1S783,5,780.29,5,775.89,5.85,775.89,7.08ZM793.4,4.84v.84h-3v4.57h-.92V.37h.92V4.84Z"/><path class="cls-1" d="M819.8,13.49H811V19.6H810V13.49h-8.8v-.86H819.8Zm-18.13-3.32V9.29c4.36,0,8.43-4.14,9.42-8.94l1,.2a13.56,13.56,0,0,1-1.41,3.7L819,9.37l-.44.75L810.19,5C808.18,8.05,805,10.14,801.67,10.17Z"/><path class="cls-1" d="M834.74,10.21c-3.57,0-5.7-2-5.7-4.75S831.17.7,834.74.7s5.7,2,5.7,4.76S838.3,10.21,834.74,10.21Zm0-.81c2.79,0,4.77-1.43,4.77-3.94s-2-3.94-4.77-3.94S830,3,830,5.46,831.94,9.4,834.74,9.4Zm11.88,9.32-4-3.49a6,6,0,0,1-4.37,3.49l-3.57-3.36a6,6,0,0,1-4.33,3.36v-.85c2.33-.36,4.35-3.19,4.53-6.45l.9.07a10.27,10.27,0,0,1-.7,3.08l3.47,3.25c2.18-.53,4-3.25,4.14-6.4l.9.09a10,10,0,0,1-.61,2.9l4.29,3.68Zm-1-7.85h-.93V.37h.93Z"/><path class="cls-1" d="M868.29,17.21v.85H849.72v-.85h8.78V11.46h-7.35V1.25H866.9v.86H852.07v8.5h15v.85h-7.7v5.75Z"/><path class="cls-1" d="M889.45,11.18V12H870.88v-.83h8.83V8.65h-7.26V4.29h14.63V1.63H872.45V.79H888V5.1H873.35V7.81h14.94v.84h-7.66v2.53Zm-17.29,3.21H888V19h-.92V15.25h-14.9Z"/><path class="cls-1" d="M910.49,2.11h-10V17h6.65A12.39,12.39,0,0,0,912,16v.9a12.36,12.36,0,0,1-4.86.9h-7.59V1.25h11Zm4.77,17.06-1,0V.37h1Z"/><path class="cls-1" d="M925.8,9.15l6.58,7.92-.73.55-6.07-7.41c-1.08,4.33-3.11,7-5.9,7.63V17c3.81-.9,5.79-7.08,5.85-14.85h-5.48V1.25h11.8v.86h-5.39A38.32,38.32,0,0,1,925.8,9.15Zm13.07.31h-3v9.71H935V.37h.93V8.6h3Z"/><path class="cls-1" d="M952.46,6c0,3-2.09,5.32-5.76,5.32S940.93,9,940.93,6,943,.7,946.7.7,952.46,3.08,952.46,6ZM941.88,6c0,2.71,1.91,4.51,4.82,4.51s4.81-1.8,4.81-4.51-1.91-4.51-4.81-4.51S941.88,3.32,941.88,6Zm1.6,11.84h14.81v.85H942.56V12.94h.92Zm14.11-3.5h-.93V.37h.93Z"/><path class="cls-1" d="M971.4,3.48h-9.92V2.62h4.58V.11H967V2.62h4.42Zm-9.11,4.77c0-2.16,1.85-3.45,4.25-3.45s4.25,1.29,4.25,3.45-1.85,3.46-4.25,3.46S962.29,10.41,962.29,8.25Zm17.89,10.5-4.4-3a6.7,6.7,0,0,1-4.49,3l-3.72-2.79a6.94,6.94,0,0,1-4.44,2.79v-.85A6.32,6.32,0,0,0,968,12.59l.9.08A6.68,6.68,0,0,1,968,15.2l3.49,2.62A6.23,6.23,0,0,0,976,12.59l.9.08a6.28,6.28,0,0,1-.7,2.31l4.49,3Zm-17-10.5c0,1.45,1.23,2.62,3.32,2.62s3.32-1.17,3.32-2.62-1.23-2.62-3.32-2.62S963.22,6.8,963.22,8.25ZM974.17,12h-.92V.51h.92V5.32h4.19V.37h.92V12.19h-.92v-6h-4.19Z"/><path class="cls-1" d="M1001.43,9.11V10H982.86V9.11ZM983.68,7V6.16c3.65-.11,8.12-2.53,9-6.16l.9.15a6.6,6.6,0,0,1-1,2.45l8.12,3.71-.38.75L991.91,3.3A11.92,11.92,0,0,1,983.68,7ZM999,11.79h.92v7h-15.6v-7h.92v2.49H999Zm0,6.1V15.12H985.28v2.77Z"/><path class="cls-1" d="M1006.25,17h6.69a12.41,12.41,0,0,0,4.86-.92v.88a12,12,0,0,1-4.86.92h-7.61V1.14h.92Zm14.83,2.21-1,0V.37h1Z"/><path class="cls-1" d="M1033.68,17a12.48,12.48,0,0,0,4.87-.95v.9a12.41,12.41,0,0,1-4.87.9h-7.39V1.25h10.78v.86h-9.86V17Zm11-7.53h-3v9.71h-.92V.37h.92V8.6h3Z"/><path class="cls-1" d="M1048.44,17.91a1,1,0,1,1-1-1A1,1,0,0,1,1048.44,17.91Z"/></g></g></svg>