<svg xmlns="http://www.w3.org/2000/svg" viewBox="0 0 859.66 87.19"><defs><style>.cls-1{fill:#fff;}</style></defs><g id="레이어_2" data-name="레이어 2"><g id="레이어_1-2" data-name="레이어 1"><path class="cls-1" d="M6.67,9.64l6.49,7.57-.64.61L6.4,10.69c-1.12,4-3.19,6.56-6,7.15V17C4,16.13,6.05,11,6.34,4.69H.66V3.83h5.7V.35h.92V3.83h5.39v.86H7.26A28.71,28.71,0,0,1,6.67,9.64ZM17.23.37V19.16H16.3V9.75H11.57V8.89H16.3V.37Z"/><path class="cls-1" d="M39.74,10.3H21.16V9.44H39.74ZM38.5,3.87c0,2.44-3.83,3.46-8,3.46s-8-1-8-3.46S26.23.42,30.45.42,38.5,1.43,38.5,3.87Zm-.24,14.88H22.66v-5.9h15.6ZM23.34,3.87c0,1.81,3.46,2.6,7.11,2.6s7.11-.79,7.11-2.6S34.1,1.28,30.45,1.28,23.34,2.07,23.34,3.87Zm14,14V13.71H23.58v4.18Z"/><path class="cls-1" d="M55.55,8.89,62,17.25l-.72.55-6-7.83C54.14,14.52,52,17.43,49,17.84V17c4.36-.82,6.38-8.14,6.43-16.07l.92,0A38.66,38.66,0,0,1,55.55,8.89Zm10-8.52V19.16h-.92V.37Z"/><path class="cls-1" d="M70,10.85V10c3.65-.66,5.87-3.44,6-8H70.18V1.08h12v.86h-5.3a12.47,12.47,0,0,1-.57,3.47L82.61,10l-.53.72L76,6.27A7.75,7.75,0,0,1,70,10.85Zm1,2.11H86.18v6h-.93V13.82H70.93ZM89.15,5.81h-3v5.83h-.93V.37h.93V5h3Z"/><path class="cls-1" d="M109.39,11.46H90.82v-.85h18.57Zm-1.19-7.1c0,2.66-3.87,3.93-8.1,3.93S92,7,92,4.36,95.88.42,100.1.42,108.2,1.69,108.2,4.36Zm-15,13.53h15.11v.86h-16V13.6h.93ZM93,4.36c0,2,3.5,3.08,7.15,3.08s7.15-1.06,7.15-3.08-3.5-3.08-7.15-3.08S93,2.33,93,4.36Z"/><path class="cls-1" d="M129.45,8.87H119.13V.81h.92V3.7h8.47V.81h.93ZM128.52,8V4.53h-8.47V8ZM136,17.89v.83H120.14V14.54h14.3V12H120.1V11.2h15.27v4.16h-14.3v2.53ZM134.44,7.42h-4V6.58h4V3.23h-4V2.4h4v-2h.93V9.88h-.93Z"/><path class="cls-1" d="M150.37,9.44H140.32V1h10.05Zm6.34,5.9c0,2.57-3.41,3.65-7.77,3.65s-7.74-1.08-7.74-3.65,3.38-3.66,7.74-3.66S156.71,12.76,156.71,15.34ZM149.45,1.89h-8.21V8.56h8.21Zm6.29,13.45c0-1.9-3-2.8-6.8-2.8s-6.8.9-6.8,2.8,3,2.79,6.8,2.79S155.74,17.23,155.74,15.34Zm-.13-7.49h-4V7h4V3.41h-4V2.55h4V.37h.92V10.8h-.92Z"/><path class="cls-1" d="M172.39,6c0,3-2.09,5.32-5.76,5.32S160.86,9,160.86,6,163,.7,166.63.7,172.39,3.08,172.39,6ZM161.81,6c0,2.71,1.91,4.51,4.82,4.51s4.82-1.8,4.82-4.51-1.92-4.51-4.82-4.51S161.81,3.32,161.81,6Zm1.61,11.84h14.8v.85H162.49V12.94h.93Zm14.1-3.5h-.92V.37h.92Z"/><path class="cls-1" d="M187.24,3.1A2.84,2.84,0,0,1,189.73.18V1a2.05,2.05,0,0,0-1.68,2H189V4.66h-1.72Zm2.77,0A2.87,2.87,0,0,1,192.52.18V1a2.05,2.05,0,0,0-1.69,2h.9V4.66H190Z"/><path class="cls-1" d="M200.82,8.65h-5.61V1H206.6v.86H196.13v5.9H201a19.11,19.11,0,0,0,7.19-1v.88C206.84,8.27,204.2,8.65,200.82,8.65Zm-4,9.22h14.7v.85H195.84V14.43H209.9V11.84H195.8V11h15v4.29h-14Zm17-13.47v.86h-3v4.4h-.93V.37h.93v4Z"/><path class="cls-1" d="M227.5,9.55c0,5.79-2.33,8.56-5.5,8.56s-5.5-2.77-5.5-8.56S218.83,1,222,1,227.5,3.76,227.5,9.55Zm-10.05,0c0,5.21,2,7.7,4.55,7.7s4.56-2.49,4.56-7.7-2-7.7-4.56-7.7S217.45,4.33,217.45,9.55Zm15.11,9.61h-.94V.37h.94Z"/><path class="cls-1" d="M238.37,1.94a2.88,2.88,0,0,1-2.51,2.92V4.09a2.07,2.07,0,0,0,1.69-2h-.9V.37h1.72Zm2.77,0a2.85,2.85,0,0,1-2.49,2.92V4.09a2.07,2.07,0,0,0,1.68-2h-.91V.37h1.72Z"/><path class="cls-1" d="M255.44.51h.93V18.83h-.93V9.62H252c0,5.74-1.45,8.49-4.18,8.49s-4.18-2.77-4.18-8.56S245.1,1,247.83,1s4,2.51,4.18,7.77h3.43Zm-4.36,9c0-5.22-1.1-7.7-3.25-7.7s-3.26,2.48-3.26,7.7,1.1,7.7,3.26,7.7S251.08,14.76,251.08,9.55ZM260.77.37V19.16h-.93V.37Z"/><path class="cls-1" d="M271.06,8.16l6.25,9.22-.73.55-5.74-8.62c-1,4.93-3.12,8.09-6.18,8.53V17c4.2-.82,6-8.14,6-16.07l.92,0A45,45,0,0,1,271.06,8.16ZM281.58.37V19.16h-.93V8.62h-5.54V7.77h5.54V.37Z"/><path class="cls-1" d="M310.24,17.21v.85H291.67v-.85h8.8V11.46H293.1V1.25h15.71V11.46H301.4v5.75ZM294,10.61h13.86V2.11H294Z"/><path class="cls-1" d="M321.73,17a12.42,12.42,0,0,0,4.86-.91v.86a12,12,0,0,1-4.86.9h-7.59V1.25h11v.86H315.06v6.8h9.73v.86h-9.73V17ZM329.89.37V19.16H329V.37Z"/><path class="cls-1" d="M352.57,17.21v.85H334v-.85Zm-1.43-5H335.43V1h.93v4.4h13.86V1h.92Zm-.92-.86V6.29H336.36v5.06Z"/><path class="cls-1" d="M373.74,10.28H355.17V9.44h18.57Zm-1.43,5.58H357.52v2.07h15.2v.82h-16.1V15.07H371.4v-2H356.57v-.81h15.74Zm-.05-11.37H357.63V6.62h14.94v.82H356.73V3.67h14.63V1.61H356.73V.79h15.53Z"/><path class="cls-1" d="M382.8,9.75V8.87a6.82,6.82,0,0,0,6-6.93H383V1.08h12v.86h-5.32a9.29,9.29,0,0,1-.55,2.9l6.49,4-.53.72L388.8,5.68A7.9,7.9,0,0,1,382.8,9.75Zm15.29,1.38H399v7.59H384V11.13h.93v2.78h13.18Zm0,6.76V14.74H384.91v3.15ZM402,5.19h-3v5h-.92V.37H399v4h3Z"/><path class="cls-1" d="M403.94,5.46c0-2.78,2.09-4.76,5.61-4.76s5.61,2,5.61,4.76-2.09,4.75-5.61,4.75S403.94,8.23,403.94,5.46Zm.92,0c0,2.5,1.94,3.94,4.69,3.94s4.69-1.44,4.69-3.94-1.94-3.94-4.69-3.94S404.86,3,404.86,5.46Zm12.61,9,4.36,3.68-.62.63-4.09-3.49a5.88,5.88,0,0,1-4.29,3.49l-3.48-3.34A6.11,6.11,0,0,1,405,18.72v-.85c2.31-.36,4.35-3.19,4.53-6.45l.9.07a9.56,9.56,0,0,1-.72,3.1l3.41,3.23c2.11-.53,3.87-3.25,4-6.4l.91.09A10.31,10.31,0,0,1,417.47,14.41Zm5.68-9.55v.86h-3v5.15h-.93V.37h.93V4.86Z"/><path class="cls-1" d="M443.39,9.11V10H424.82V9.11ZM425.63,7V6.16c3.65-.11,8.12-2.53,8.95-6.16l.91.15a6.62,6.62,0,0,1-1.06,2.45l8.12,3.71-.37.75L433.86,3.3A11.9,11.9,0,0,1,425.63,7ZM441,11.79h.92v7h-15.6v-7h.93v2.49H441Zm0,6.1V15.12H427.24v2.77Z"/><path class="cls-1" d="M448.2,17h6.69a12.41,12.41,0,0,0,4.86-.92v.88a12,12,0,0,1-4.86.92h-7.61V1.14h.92ZM463,19.16l-.94,0V.37H463Z"/><path class="cls-1" d="M475.64,17A12.39,12.39,0,0,0,480.5,16v.9a12.36,12.36,0,0,1-4.86.9h-7.4V1.25H479v.86h-9.86V17Zm11-7.53h-3v9.7h-.93V.37h.93V8.6h3Z"/><path class="cls-1" d="M490.4,17.91a1,1,0,1,1-1-1A1,1,0,0,1,490.4,17.91Z"/><path class="cls-1" d="M18.57,52.06H0v-.85H18.57Zm-1.43-3.8h-.92V36.09H1.3v-.86H17.14Z"/><path class="cls-1" d="M29.5,51a12.48,12.48,0,0,0,4.87-.91v.86a12.06,12.06,0,0,1-4.87.9H22.35V43h8.28V36.11H22.31v-.86h9.24v8.61H23.28V51Zm8.89-16.62V53.16h-.94V43.55H33.13v-.88h4.32v-8.3Z"/><path class="cls-1" d="M50.82,51a12.39,12.39,0,0,0,4.86-1v.9a12.36,12.36,0,0,1-4.86.9H43.43V35.25H54.21v.86H44.35V51Zm11-7.53h-3v9.7h-.92V34.37h.92V42.6h3Z"/><path class="cls-1" d="M64.33,35.25h9.88v4.07c0,7.38-3.61,12.44-9.88,12.44v-.88c5.59,0,9-4.54,9-11.47v-3.3h-9ZM83,43.46H80v9.7h-.93V34.37H80V42.6h3Z"/><path class="cls-1" d="M97.31,42.65H91.7V35h11.39v.86H92.62v5.9h4.82a19.08,19.08,0,0,0,7.19-1v.88C103.34,42.27,100.7,42.65,97.31,42.65Zm-4,9.22H108v.85H92.33V48.43h14.06V45.84H92.29V45h15v4.29h-14Zm17-13.47v.86h-3v4.4h-.92V34.37h.92v4Z"/><path class="cls-1" d="M111.74,43.75A14,14,0,0,1,115.81,34H117a13.68,13.68,0,0,0-4.32,9.71,13.64,13.64,0,0,0,4.32,9.7h-1.19A13.92,13.92,0,0,1,111.74,43.75Z"/><path class="cls-1" d="M132.18,52.57l-4.51-6.82a11.16,11.16,0,0,1-1.79.13h-5.15v6.69h-.94V35.19h6.09c4.38,0,7,2.09,7,5.34,0,2.51-1.52,4.32-4.21,5l4.67,7Zm-.29-12c0-2.92-2.35-4.46-6.18-4.46h-5V45h5C129.54,45,131.89,43.46,131.89,40.53Z"/><path class="cls-1" d="M135.5,46.41c0-3.67,2.53-6.47,6-6.47s6,2.8,6,6.47a1.89,1.89,0,0,1,0,.42h-11c.18,3,2.18,5.19,5,5.19a4.52,4.52,0,0,0,4.42-2.55h1a5.53,5.53,0,0,1-5.44,3.41C138,52.88,135.5,50.08,135.5,46.41Zm11-.44c-.18-3-2.18-5.17-5-5.17s-4.86,2.2-5,5.17Z"/><path class="cls-1" d="M150.13,46.41c0-3.65,2.53-6.47,6-6.47a5.58,5.58,0,0,1,5.3,3.26v-3h.93V52.57h-.93v-3a5.58,5.58,0,0,1-5.3,3.26C152.66,52.88,150.13,50.06,150.13,46.41Zm11.31,0a5.29,5.29,0,0,0-5.26-5.61c-3.08,0-5.13,2.44-5.13,5.61s2,5.61,5.13,5.61A5.29,5.29,0,0,0,161.44,46.41Z"/><path class="cls-1" d="M167.31,52.57h-.93V34.66h.93Z"/><path class="cls-1" d="M177.63,35.19h1.08L186,48.65l7.3-13.46h1.06V52.57h-1V36.88l-6.88,12.7h-1.08l-6.89-12.7V52.57h-.94Z"/><path class="cls-1" d="M210.1,46.41a6.12,6.12,0,1,1-12.23,0,6.12,6.12,0,1,1,12.23,0Zm-11.31,0c0,3.19,2.11,5.61,5.19,5.61s5.2-2.42,5.2-5.61-2.12-5.61-5.2-5.61S198.79,43.22,198.79,46.41Z"/><path class="cls-1" d="M225.06,46.41a6.12,6.12,0,1,1-12.23,0,6.12,6.12,0,1,1,12.23,0Zm-11.31,0c0,3.19,2.11,5.61,5.19,5.61s5.2-2.42,5.2-5.61-2.12-5.61-5.2-5.61S213.75,43.22,213.75,46.41Z"/><path class="cls-1" d="M228.45,40.25h.92v3.06a5.36,5.36,0,0,1,5.06-3.37c2.8,0,4.82,2.11,4.82,5.35v7.28h-.92V45.44c0-3-1.59-4.64-4.1-4.64-2.73,0-4.86,2.77-4.86,5.35v6.42h-.92Z"/><path class="cls-1" d="M241.58,53.45a13.67,13.67,0,0,0,4.31-9.7A13.72,13.72,0,0,0,241.58,34h1.19a13.61,13.61,0,0,1,0,19.41Z"/><path class="cls-1" d="M267.76,43.59H249.19v-.83h18.57Zm-1.25-5.81c0,2.4-3.81,3.28-8,3.28s-8-.88-8-3.28,3.8-3.27,8-3.27S266.51,35.39,266.51,37.78Zm-.18,11.89H251.57v2.24h15.18v.84H250.64v-3.9h14.77V46.67H250.6v-.83h15.73ZM251.39,37.78c0,1.79,3.43,2.45,7.09,2.45s7.08-.66,7.08-2.45-3.43-2.44-7.08-2.44S251.39,36,251.39,37.78Z"/><path class="cls-1" d="M288.79,36.11h-10V51h6.65a12.42,12.42,0,0,0,4.86-1v.9a12.4,12.4,0,0,1-4.86.9h-7.6V35.25h11Zm4.78,17-.95,0V34.37h.95Z"/><path class="cls-1" d="M304.1,43.15l6.58,7.92-.72.55-6.08-7.41c-1.07,4.33-3.1,7-5.89,7.63V51c3.8-.9,5.78-7.08,5.85-14.85h-5.48v-.86h11.8v.86h-5.4A36.64,36.64,0,0,1,304.1,43.15Zm13.07.31h-3v9.7h-.92V34.37h.92V42.6h3Z"/><path class="cls-1" d="M330.86,43.55c0,5.79-2.34,8.56-5.5,8.56s-5.5-2.77-5.5-8.56,2.33-8.56,5.5-8.56S330.86,37.76,330.86,43.55Zm-10.06,0c0,5.21,2,7.7,4.56,7.7s4.55-2.49,4.55-7.7-2-7.7-4.55-7.7S320.8,38.33,320.8,43.55Zm15.12,9.61H335V34.37h.95Z"/><path class="cls-1" d="M348.35,51a12.47,12.47,0,0,0,4.86-.9v.88a12,12,0,0,1-4.86.9h-7.13V35.14h.92V51Zm8.89-16.59V53.16h-.93V42.49h-7.88v-.86h7.88V34.37Z"/><path class="cls-1" d="M379.74,51.21v.85H361.17v-.85h8.76V46.48h-7.31V40.42h14.83V36.11H362.62v-.86h15.76v6H363.55v4.34h15.16v.86h-7.86v4.73Z"/><path class="cls-1" d="M389,42.16l6.25,9.22-.72.55-5.74-8.62c-1.06,4.93-3.13,8.09-6.19,8.53V51c4.2-.82,6-8.14,6.05-16.07l.93,0A43.78,43.78,0,0,1,389,42.16Zm10.52-7.79V53.16h-.92V42.62h-5.55v-.85h5.55v-7.4Z"/><path class="cls-1" d="M418.15,51a12.43,12.43,0,0,0,4.86-.9v.88a12,12,0,0,1-4.86.9h-7.39V35.14h.92V51Zm11-7.5h-3v9.7h-.92V34.37h.92V42.6h3Z"/><path class="cls-1" d="M442.46,43.55c0,5.79-2.29,8.56-5.41,8.56s-5.41-2.77-5.41-8.56S433.92,35,437.05,35,442.46,37.76,442.46,43.55Zm-.94,0c0-5.22-1.92-7.7-4.47-7.7s-4.47,2.48-4.47,7.7,1.92,7.7,4.47,7.7S441.52,48.76,441.52,43.55Zm8.8-.09h-3v9.7h-.93V34.37h.93V42.6h3Z"/><path class="cls-1" d="M452.82,35.25h9.88v4.07c0,7.38-3.61,12.44-9.88,12.44v-.88c5.59,0,9-4.54,9-11.47v-3.3h-9Zm18.66,8.21h-3v9.7h-.92V34.37h.92V42.6h3Z"/><path class="cls-1" d="M491.72,51.21v.85H473.15v-.85h7.72V41.94h.93v9.27Zm-2.35-15.12H474.45v-.86h15.84V47.64h-.92Z"/><path class="cls-1" d="M500.74,43.15l6.58,7.92-.73.55-6.07-7.41c-1.08,4.33-3.1,7-5.9,7.63V51c3.81-.9,5.79-7.08,5.85-14.85H495v-.86h11.79v.86H501.4A36.64,36.64,0,0,1,500.74,43.15Zm13.07.31h-3v9.7h-.93V34.37h.93V42.6h3Z"/><path class="cls-1" d="M528.63,37.83h5.64v.86H522.1v-.86h5.61v-3.5h.92Zm4.58,8.58c0,3.48-2.27,5.65-5,5.65s-5-2.17-5-5.65,2.27-5.66,5-5.66S533.21,42.93,533.21,46.41Zm-1,0c0-2.95-1.89-4.8-4.09-4.8s-4.09,1.85-4.09,4.8,1.89,4.8,4.09,4.8S532.26,49.36,532.26,46.41Zm8.87-2.95h-3v9.7h-.92V34.37h.92V42.6h3Z"/><path class="cls-1" d="M561.37,45.11H542.8v-.86h18.57Zm-16.15,6.78h15.12v.86h-16V47.33h.92Zm0-11.33h14.8v.86H544.34V34.48h.93Z"/><path class="cls-1" d="M581.59,43.75H571V34.81h.93V38.2h8.73V34.81h.93ZM587,49.49c0,2.46-3.39,3.5-7.7,3.5s-7.7-1-7.7-3.5S575,46,579.3,46,587,47,587,49.49Zm-6.34-6.58V39h-8.73v3.87Zm5.42,6.58c0-1.78-3-2.64-6.78-2.64s-6.78.86-6.78,2.64,3,2.64,6.78,2.64S586.08,51.27,586.08,49.49Zm3.54-10.56v.86h-3v5.39h-.93V34.37h.93v4.56Z"/><path class="cls-1" d="M604,37.21h-12.7v-.86h5.88V34h.92v2.31H604ZM592.32,42c0-2.09,2.22-3.41,5.35-3.41S603,39.94,603,42s-2.23,3.28-5.35,3.28S592.32,44,592.32,42Zm15.82,7.79c0,2.29-3.32,3.17-7.65,3.17s-7.66-.88-7.66-3.17,3.32-3.17,7.66-3.17S608.14,47.53,608.14,49.82ZM593.25,42c0,1.41,1.69,2.44,4.42,2.44s4.42-1,4.42-2.44-1.69-2.57-4.42-2.57S593.25,40.56,593.25,42Zm14,7.79c0-1.61-2.91-2.33-6.71-2.33s-6.72.72-6.72,2.33,2.91,2.33,6.72,2.33S607.2,51.43,607.2,49.82Zm.61-11.64V42h3v.84h-3v3h-.92V34.37h.92v3h3v.84Z"/><path class="cls-1" d="M612.61,44.36v-.88c4-.88,6.14-4.66,6.14-8.84l.92,0A11.92,11.92,0,0,1,618.9,39l6.27,4.29-.55.7-6.09-4.16A8.43,8.43,0,0,1,612.61,44.36Zm17.22,5.06c0,2.51-3.38,3.57-7.74,3.57s-7.75-1.06-7.75-3.57,3.39-3.56,7.75-3.56S629.83,46.92,629.83,49.42Zm-.94,0c0-1.82-3-2.7-6.8-2.7s-6.8.88-6.8,2.7,3,2.71,6.8,2.71S628.89,51.25,628.89,49.42Zm-.13-10.25H623.3v-.84h5.46v-4h.92V45h-.92Z"/><path class="cls-1" d="M645.87,34.51h.93V52.83h-.93V43.62h-3.43c0,5.74-1.45,8.49-4.18,8.49s-4.18-2.77-4.18-8.56S635.53,35,638.26,35s4,2.51,4.18,7.77h3.43Zm-4.36,9c0-5.22-1.1-7.7-3.25-7.7S635,38.33,635,43.55s1.1,7.7,3.26,7.7S641.51,48.76,641.51,43.55Zm9.69-9.18V53.16h-.93V34.37Z"/><path class="cls-1" d="M671.57,35h.92V51.84H662.24V35h.94v7.24h8.39Zm0,16V43.13h-8.39V51ZM678,34.37V53.16h-.92V34.37Z"/><path class="cls-1" d="M700.67,47.51h-5.14V53.6h-.93V47.51h-6.42V53.6h-.93V47.51H682.1v-.92h18.57Zm-17.4-8c0-3.1,3.26-4.75,8.12-4.75s8.12,1.65,8.12,4.75-3.26,4.75-8.12,4.75S683.27,42.6,683.27,39.5Zm.92,0c0,2.53,2.93,3.9,7.2,3.9s7.19-1.37,7.19-3.9-2.92-3.89-7.19-3.89S684.19,37,684.19,39.5Z"/><path class="cls-1" d="M721.84,44.28H703.27v-.84h18.57Zm-1.43,5.58H705.62v2.07h15.21v.82H704.72V49.07H719.5v-2H704.67v-.81h15.74Zm0-11.37H705.73v2.13h14.94v.82H704.83V37.67h14.63V35.61H704.83v-.82h15.53Z"/><path class="cls-1" d="M735.67,37.81h4.56v.85h-10v-.85h4.53V34.35h.92Zm3.83,8.58c0,3.58-1.74,5.67-4.18,5.67s-4.18-2.09-4.18-5.67,1.74-5.68,4.18-5.68S739.5,42.8,739.5,46.39Zm-.94,0c0-3.06-1.37-4.82-3.24-4.82s-3.23,1.76-3.23,4.82,1.36,4.82,3.23,4.82S738.56,49.45,738.56,46.39Zm9.61-12V53.16h-.92V43.33H743v9.5h-.92V34.51H743v8h4.23V34.37Z"/><path class="cls-1" d="M770.33,51.21v.85H751.75v-.85h8.81V45.86h-7.37V35h.92v4.16H768V35h.93V45.86h-7.42v5.35ZM754.11,45H768v-5H754.11Z"/><path class="cls-1" d="M773.2,39.46c0-2.78,2.09-4.76,5.62-4.76s5.61,2,5.61,4.76-2.09,4.75-5.61,4.75S773.2,42.23,773.2,39.46Zm.93,0c0,2.5,1.93,3.94,4.69,3.94s4.68-1.44,4.68-3.94-1.93-3.94-4.68-3.94S774.13,37,774.13,39.46Zm12.61,8.95,4.35,3.68-.61.63-4.1-3.49a5.85,5.85,0,0,1-4.29,3.49l-3.47-3.34a6.13,6.13,0,0,1-4.34,3.34v-.85c2.31-.36,4.36-3.19,4.54-6.45l.9.07a9.57,9.57,0,0,1-.73,3.1l3.41,3.23c2.11-.53,3.87-3.25,4.05-6.4l.9.09A10,10,0,0,1,786.74,48.41Zm5.67-9.55v.86h-3v5.15h-.92V34.37h.92v4.49Z"/><path class="cls-1" d="M812.65,43.11V44H794.08v-.86ZM794.9,41v-.88c3.65-.11,8.12-2.53,9-6.16l.9.15a6.6,6.6,0,0,1-1,2.45l8.12,3.71-.38.75-8.31-3.76A11.92,11.92,0,0,1,794.9,41Zm15.35,4.75h.93v7h-15.6v-7h.92v2.49h13.75Zm0,6.1V49.12H796.5v2.77Z"/><path class="cls-1" d="M817.47,51h6.69A12.41,12.41,0,0,0,829,50v.88a12,12,0,0,1-4.86.92h-7.62V35.14h.93Zm14.83,2.2-.95,0V34.37h.95Z"/><path class="cls-1" d="M844.9,51a12.44,12.44,0,0,0,4.87-1v.9a12.41,12.41,0,0,1-4.87.9h-7.39V35.25h10.78v.86h-9.86V51Zm11-7.53h-3v9.7H852V34.37h.92V42.6h3Z"/><path class="cls-1" d="M859.66,51.91a1,1,0,1,1-1-1A1,1,0,0,1,859.66,51.91Z"/><path class="cls-1" d="M.75,77.07v-.86c6,0,9.48-1.54,9.48-5.68v-.64H.75V69H11.16v1.5C11.16,75.19,7.31,77.07.75,77.07Zm17.14,8.8v.85H2V82.43H16.28V79.84H2V79H17.23v4.29H3v2.6ZM16.3,75.61H11.38v-.86H16.3V71.61H12.1v-.86h4.2V68.37h.93v9.29H16.3Z"/><path class="cls-1" d="M27.63,85c3.15,0,5.72-.22,7.2-.86V85a22.06,22.06,0,0,1-7.13.83H21.16V85h4V76.05h.93V85Zm3.85-14.88H22v-.86H32.41V81.38h-.93Zm9.18,7.18H37.73v9.87h-.92V68.37h.92v8.06h2.93Z"/><path class="cls-1" d="M42.75,79.07v-.88c3.65-.66,5.87-3.54,6-8.25H43v-.86H55v.86h-5.3a13.91,13.91,0,0,1-.58,3.6l6.3,4.65-.53.72-6.1-4.51A7.7,7.7,0,0,1,42.75,79.07ZM44,81.18H59.53V87h-.92V82H44ZM59.53,68.37V79.86h-.92V73.92H54.08v-.84h4.53V68.37Z"/><path class="cls-1" d="M82.06,86.06H63.49v-.85H82.06ZM81,74.73c0,3.52-3.21,5.77-8.2,5.77s-8.21-2.25-8.21-5.77S67.78,69,72.78,69,81,71.21,81,74.73Zm-15.46,0c0,3,2.86,4.91,7.26,4.91s7.26-2,7.26-4.91-2.86-4.9-7.26-4.9S65.52,71.78,65.52,74.73Z"/><path class="cls-1" d="M103.23,85.21v.85H84.66v-.85h8.75V80.48h-7.3V74.42h14.83V70.11H86.11v-.86h15.75v6H87v4.34h15.16v.86H94.34v4.73Z"/><path class="cls-1" d="M118.47,76.65h-5.61V69h11.4v.86H113.78v5.9h4.82a19.17,19.17,0,0,0,7.2-1v.88C124.5,76.27,121.86,76.65,118.47,76.65Zm-4,9.22h14.7v.85H113.5V82.43h14.06V79.84H113.45V79h15v4.29h-14Zm17-13.47v.86h-3v4.4h-.92V68.37h.92v4Z"/><path class="cls-1" d="M151.71,77.59H133.14v-.83h18.57Zm-1.25-5.81c0,2.4-3.81,3.28-8,3.28s-8-.88-8-3.28,3.8-3.27,8-3.27S150.46,69.39,150.46,71.78Zm-.18,11.89H135.52v2.24H150.7v.84H134.59v-3.9h14.77V80.67H134.55v-.83h15.73ZM135.34,71.78c0,1.79,3.44,2.45,7.09,2.45s7.08-.66,7.08-2.45-3.43-2.44-7.08-2.44S135.34,70,135.34,71.78Z"/><path class="cls-1" d="M179,85.21v.85H160.47v-.85h8.8V79.46H161.9V69.25h15.71V79.46h-7.42v5.75Zm-16.22-6.6h13.86v-8.5H162.82Z"/><path class="cls-1" d="M190.52,85a12.42,12.42,0,0,0,4.86-.91v.86a12,12,0,0,1-4.86.9h-7.59V69.25h11v.86H183.85v6.8h9.73v.86h-9.73V85Zm8.16-16.62V87.16h-.92V68.37Z"/><path class="cls-1" d="M221.37,85.21v.85H202.79v-.85Zm-1.44-5H204.22V69h.93v4.4H219V69h.92Zm-.92-.86V74.29H205.15v5.06Z"/><path class="cls-1" d="M242.53,85.21v.85H224v-.85h8.76V80.48h-7.31V74.42h14.83V70.11H225.41v-.86h15.76v6H226.33v4.34H241.5v.86h-7.86v4.73Z"/><path class="cls-1" d="M263.56,70.11h-10V85h6.64a12.44,12.44,0,0,0,4.87-.95v.9a12.41,12.41,0,0,1-4.87.9H252.6V69.25h11Zm4.77,17-.94,0V68.37h.94Z"/><path class="cls-1" d="M278.87,77.15l6.58,7.92-.73.55-6.07-7.41c-1.08,4.33-3.1,7-5.9,7.63V85c3.81-.9,5.79-7.08,5.86-14.85h-5.48v-.86h11.79v.86h-5.39A36.64,36.64,0,0,1,278.87,77.15Zm13.07.31h-3v9.7h-.92V68.37H289V76.6h3Z"/><path class="cls-1" d="M305.62,77.55c0,5.79-2.33,8.56-5.5,8.56s-5.5-2.77-5.5-8.56S297,69,300.12,69,305.62,71.76,305.62,77.55Zm-10.05,0c0,5.21,2,7.7,4.55,7.7s4.56-2.49,4.56-7.7-2-7.7-4.56-7.7S295.57,72.33,295.57,77.55Zm15.11,9.61h-.94V68.37h.94Z"/><path class="cls-1" d="M323.11,85a12.43,12.43,0,0,0,4.86-.9v.88a12,12,0,0,1-4.86.9H316V69.14h.93V85ZM332,68.37V87.16h-.92V76.49H323.2v-.86h7.88V68.37Z"/><path class="cls-1" d="M354.51,85.21v.85H335.94v-.85h8.75V80.48h-7.3V74.42h14.83V70.11H337.39v-.86h15.75v6H338.31v4.34h15.16v.86h-7.85v4.73Z"/><path class="cls-1" d="M363.81,76.16l6.25,9.22-.73.55-5.74-8.62c-1,4.93-3.12,8.09-6.18,8.53V85c4.2-.82,6-8.14,6-16.07l.92,0A43.84,43.84,0,0,1,363.81,76.16Zm10.52-7.79V87.16h-.92V76.62h-5.55v-.85h5.55v-7.4Z"/><path class="cls-1" d="M396,85.84H385.72V69.25H396Zm-.93-.85V70.11h-8.4V85Zm6.43,2.17h-.93V68.37h.93Z"/><path class="cls-1" d="M408.93,85a14.22,14.22,0,0,0,6.32-1.08v.94a15.07,15.07,0,0,1-6.25,1h-2.64V76.91h6.25v-6.8h-6.25v-.86h7.17v8.52h-6.25V85Zm14.24-16.62V87.16h-.93V77.35h-4.31v9.48H417V68.51h.92v8h4.31V68.37Z"/><path class="cls-1" d="M445.32,78.28H426.75v-.84h18.57Zm-1.43,5.58H429.11v2.07h15.2v.82H428.2V83.07H443v-2H428.16v-.81h15.73Zm0-11.37H429.22v2.13h14.94v.82H428.31V71.67H443V69.61H428.31v-.82h15.54Z"/><path class="cls-1" d="M462.57,85a12.43,12.43,0,0,0,4.86-.9v.88a12,12,0,0,1-4.86.9h-7.39V69.14h.92V85Zm11-7.5h-3v9.7h-.92V68.37h.92V76.6h3Z"/><path class="cls-1" d="M486.88,77.55c0,5.79-2.29,8.56-5.41,8.56s-5.42-2.77-5.42-8.56S478.34,69,481.47,69,486.88,71.76,486.88,77.55Zm-.95,0c0-5.22-1.91-7.7-4.46-7.7S477,72.33,477,77.55s1.91,7.7,4.47,7.7S485.93,82.76,485.93,77.55Zm8.8-.09h-3v9.7h-.92V68.37h.92V76.6h3Z"/><path class="cls-1" d="M497.24,69.25h9.88v4.07c0,7.38-3.61,12.44-9.88,12.44v-.88c5.59,0,9-4.54,9-11.47v-3.3h-9Zm18.66,8.21h-3v9.7H512V68.37h.93V76.6h3Z"/><path class="cls-1" d="M536.14,79.11H517.57v-.86h18.57ZM520,85.89H535.1v.86h-16V81.33H520Zm0-11.33h14.81v.86H519.11V68.48H520Z"/><path class="cls-1" d="M551.34,77l6.66,8-.72.55-6.16-7.52c-1.08,4.4-3.1,7.13-5.92,7.74V85c3.81-.9,5.79-7.08,5.85-14.85h-5.48v-.86h11.86v.86H552A39.15,39.15,0,0,1,551.34,77Zm10.78-8.67V87.16h-.92V76.82h-5.33V76h5.33V68.37Z"/><path class="cls-1" d="M572.92,85.84h-6.87V85h7c3.26,0,5.83-.36,7.2-1v.88C579,85.47,576.31,85.84,572.92,85.84Zm5.19-11.09A5.66,5.66,0,1,1,572.46,69,5.52,5.52,0,0,1,578.11,74.75Zm-10.36,0a4.71,4.71,0,1,0,4.71-4.9A4.63,4.63,0,0,0,567.75,74.75Zm15.42,12.41h-.92V68.37h.92Z"/><path class="cls-1" d="M612,78.25v.86H593.38v-.86h8.82V75.5h-7.28V68.79h15.51V75.5h-7.3v2.75Zm-17.3,3.44h15.82V87h-.92V82.54h-14.9Zm1.19-7h13.67v-5H595.84Z"/><path class="cls-1" d="M633.11,85.21v.85H614.54v-.85h5.22V79.73h-4.14v-.86h3.72V70.33h-3.52v-.86h16v.86h-3.52v8.54H632v.86h-4.12v5.48Zm-12.85-6.34h7.13V70.33h-7.13Zm.42,6.34H627V79.73h-6.32Z"/><path class="cls-1" d="M654.28,78.28H635.71v-.84h18.57Zm-1.43,5.58H638.06v2.07h15.2v.82h-16.1V83.07h14.78v-2H637.11v-.81h15.74Zm-.05-11.37H638.17v2.13h14.94v.82H637.27V71.67H651.9V69.61H637.27v-.82H652.8Z"/><path class="cls-1" d="M669.52,77.44h-5.61V69h11.4v.86H664.83v6.69h4.82a19.17,19.17,0,0,0,7.2-1v.88C675.55,77.07,672.91,77.44,669.52,77.44Zm-5,2.51h15v6.77h-15Zm.92,5.92h13.18V80.81H665.45Zm17.07-12.19h-3v4.95h-.92V68.37h.92v4.45h3Z"/><path class="cls-1" d="M695.83,77.55c0,5.79-2.29,8.56-5.41,8.56S685,83.34,685,77.55,687.3,69,690.42,69,695.83,71.76,695.83,77.55Zm-.94,0c0-5.22-1.92-7.7-4.47-7.7S686,72.33,686,77.55s1.92,7.7,4.47,7.7S694.89,82.76,694.89,77.55Zm8.8-.09h-3v9.7h-.93V68.37h.93V76.6h3Z"/><path class="cls-1" d="M709.54,77.62h-3.39V69h.92v7.77h2.6a16.51,16.51,0,0,0,5.81-.75v.88A17.58,17.58,0,0,1,709.54,77.62Zm14.23,9.15-4.18-3.61A6.47,6.47,0,0,1,715,86.72l0,0-3.58-3.41a6.63,6.63,0,0,1-4.6,3.38v-.85c2.24-.36,4.64-3,4.88-6.36l.91.09a8.87,8.87,0,0,1-.8,3l3.5,3.21c2.14-.53,4.25-3.06,4.47-6.29l.9.09a9.43,9.43,0,0,1-.68,2.79l4.42,3.7Zm-6.07-7.94h-.92V68.51h.92V72.8H722V68.37h.93V79H722V73.65H717.7Z"/><path class="cls-1" d="M745.09,77.11V78H726.52v-.86ZM727.34,75v-.88c3.65-.11,8.12-2.53,8.95-6.16l.9.15a6.6,6.6,0,0,1-1.05,2.45l8.12,3.71-.38.75-8.31-3.76A11.92,11.92,0,0,1,727.34,75Zm15.35,4.75h.93v7H728v-7h.92v2.49h13.75Zm0,6.1V83.12H728.94v2.77Z"/><path class="cls-1" d="M749.91,85h6.69a12.45,12.45,0,0,0,4.86-.92v.88a12,12,0,0,1-4.86.92H749V69.14h.93Zm14.83,2.2-1,0V68.37h1Z"/><path class="cls-1" d="M777.34,85a12.48,12.48,0,0,0,4.87-.95v.9a12.41,12.41,0,0,1-4.87.9H770V69.25h10.78v.86h-9.86V85Zm11-7.53h-3v9.7h-.92V68.37h.92V76.6h3Z"/><path class="cls-1" d="M792.1,85.91a1,1,0,1,1-1-1A1,1,0,0,1,792.1,85.91Z"/></g></g></svg>