<svg xmlns="http://www.w3.org/2000/svg" viewBox="0 0 64.64 28.35"><defs><style>.cls-1{fill:#fff;}</style></defs><g id="레이어_2" data-name="레이어 2"><g id="레이어_1-2" data-name="레이어 1"><path class="cls-1" d="M15.36,0h1.28V2.56h-7v19.2H7.07V2.56H0V0H15.36Z"/><path class="cls-1" d="M27.9,6.4h2.76L30,8.13,25.25,20.9a18.34,18.34,0,0,1-2.69,6,4.16,4.16,0,0,1-3.36,1.44H17.92V25.79H19.2A2,2,0,0,0,20.83,25a15.09,15.09,0,0,0,1.86-4.51L18,8.13,17.34,6.4H20.1l.28.83L24,16.83l3.59-9.6Z"/><path class="cls-1" d="M33.92,7.68V6.4h2.56V8.16A6.56,6.56,0,0,1,41,6.4a6.48,6.48,0,0,1,4.55,1.86A7.56,7.56,0,0,1,48,14.08a7.78,7.78,0,0,1-1.89,5.22A6.47,6.47,0,0,1,41,21.76,6.59,6.59,0,0,1,36.48,20v8.35H33.92V7.68Zm3.49,9.5a4.08,4.08,0,0,0,3.55,2,4,4,0,0,0,2.69-1,5.2,5.2,0,0,0,1.79-4.1,5.51,5.51,0,0,0-.93-3.1A4.06,4.06,0,0,0,41,9a4.16,4.16,0,0,0-2.69,1,5.4,5.4,0,0,0-1.82,4.13A5.48,5.48,0,0,0,37.41,17.18Z"/><path class="cls-1" d="M52.45,8.86a6.6,6.6,0,0,1,9.73-.6,7.56,7.56,0,0,1,2.46,5.82,7.78,7.78,0,0,1-1.89,5.22,6.6,6.6,0,0,1-9.73.6,7.56,7.56,0,0,1-2.46-5.82A7.8,7.8,0,0,1,52.45,8.86Zm1.6,8.32a4.08,4.08,0,0,0,3.55,2,4,4,0,0,0,2.69-1,5.2,5.2,0,0,0,1.79-4.1,5.51,5.51,0,0,0-.93-3.1A4.08,4.08,0,0,0,57.6,9a4,4,0,0,0-2.69,1,5.22,5.22,0,0,0-1.79,4.1A5.48,5.48,0,0,0,54.05,17.18Z"/></g></g></svg>