<svg xmlns="http://www.w3.org/2000/svg" viewBox="0 0 957.28 89.03"><defs><style>.cls-1{fill:#fff;}</style></defs><g id="레이어_2" data-name="레이어 2"><g id="레이어_1-2" data-name="레이어 1"><path class="cls-1" d="M0,3.48A3.13,3.13,0,0,1,2.76.29v.84A2.28,2.28,0,0,0,.89,3.31h1V5.18H0Z"/><path class="cls-1" d="M11.81,9.53H5.69V1.22H18.12v.94H6.7V8.59H12c3.55,0,6.36-.41,7.85-1.1v1C18.38,9.12,15.5,9.53,11.81,9.53ZM7.44,19.59h16v.93H6.38V15.84H21.72V13H6.34v-.94H22.75v4.68H7.44ZM26,4.9v.93H22.75v4.8h-1V.5h1V4.9Z"/><path class="cls-1" d="M29.71,2.21A3.14,3.14,0,0,1,27,5.4V4.56a2.27,2.27,0,0,0,1.87-2.18h-1V.5h1.87Z"/><path class="cls-1" d="M32.76,12.62v-1c5.26,0,9.1-1.36,10.37-4.58H32.76V6.14H43.44a8.85,8.85,0,0,0,.17-1.68V2.16H32.76V1.22H44.62v3A10,10,0,0,1,44.47,6h5.26V.5h1V15.77h-1V6.94h-5.5C43,11,38.74,12.62,32.76,12.62Zm18.65,7v.93H34V14.64h1v4.95Z"/><path class="cls-1" d="M55.08,11.14v-1c4.2-1.37,5-5.33,5-9.39l1,0a17.24,17.24,0,0,1-.57,4.84l5.3,4.42-.65.72-5-4.15A7.36,7.36,0,0,1,55.08,11.14ZM73.2,12.62h1v7.9H57.05v-7.9h1v2.86H73.2Zm0,7V16.39H58.06v3.22ZM68.28,5.3H63.79V4.37h4.49V.65h1V11.38h-1ZM74.21.5V11.59h-1V.5Z"/><path class="cls-1" d="M91.49.65h1v20h-1V10.58H87.74c0,6.27-1.58,9.27-4.56,9.27s-4.56-3-4.56-9.34,1.59-9.33,4.56-9.33,4.42,2.73,4.56,8.47h3.75Zm-4.75,9.86c0-5.69-1.2-8.4-3.56-8.4s-3.55,2.71-3.55,8.4,1.2,8.4,3.55,8.4S86.74,16.2,86.74,10.51ZM97.3.5V21h-1V.5Z"/><path class="cls-1" d="M120.43,10.39H108.89V1.22h11.54Zm-2.49,5.86,8.88,3.65-.44.89-9-3.77a10.83,10.83,0,0,1-8.16,3.5v-.93c4,0,7.78-2.24,8.6-5.53h-8.31v-.93h16.92v.93h-7.58A6.52,6.52,0,0,1,117.94,16.25Zm1.48-14.09H109.9v7.3h9.52Zm9.77,3.19v.94H126v5.4h-1V.5h1V5.35Z"/><path class="cls-1" d="M151.27,15h-9.65v6.48h-1V15H131v-.94h20.26Zm-19.63-3.53v-.93c5.26-.51,8.4-3.34,9-6.84h-8.4V2.76h8.33V0h1V2.76h8.47V3.7h-8.38a9.24,9.24,0,0,1-.77,2.47l9.58,4.13-.46.88L140.42,7C138.82,9.43,135.82,11.09,131.64,11.47Z"/><path class="cls-1" d="M172.9.5V21h-1V10.58h-5c0,6.27-2.52,9.27-5.91,9.27s-5.9-3-5.9-9.34,2.5-9.33,5.9-9.33c3.24,0,5.67,2.73,5.88,8.47h5V.5Zm-7,10c0-5.69-2.09-8.4-4.88-8.4s-4.87,2.71-4.87,8.4,2.09,8.4,4.87,8.4S165.89,16.2,165.89,10.51Z"/><path class="cls-1" d="M202.7.5V21h-1V10.58h-5c0,6.27-2.52,9.27-5.91,9.27s-5.9-3-5.9-9.34,2.5-9.33,5.9-9.33c3.24,0,5.67,2.73,5.88,8.47h5V.5Zm-7,10c0-5.69-2.09-8.4-4.88-8.4S186,4.82,186,10.51s2.09,8.4,4.87,8.4S195.7,16.2,195.7,10.51Z"/><path class="cls-1" d="M227.26,14.74h-9.65v6.74h-1V14.74H207v-1h20.26Zm-1.16-4H208.63V1.22h17.23v.94H209.64V9.79H226.1Z"/><path class="cls-1" d="M250.34,11.52v.94h-9.62v4.15h-1V12.46h-9.63v-.94Zm-19-6.72c0-2.9,4.23-4.25,8.83-4.25s8.84,1.35,8.84,4.25-4.23,4.25-8.84,4.25S231.38,7.7,231.38,4.8Zm1.35,14.81h16.48v.94H231.72V14.93h1ZM232.41,4.8c0,2.21,3.82,3.31,7.8,3.31S248,7,248,4.8s-3.81-3.31-7.8-3.31S232.41,2.59,232.41,4.8Z"/><path class="cls-1" d="M268.1,1.22h1V19.56h-8.35V1.22h1v8h6.34Zm0,17.41V10.1h-6.34v8.53ZM279.07.5V21h-1V10.27h-4.7V20.64h-1V.65h1V9.36h4.7V.5Z"/><path class="cls-1" d="M283.8,10.94V10c6.5,0,10.34-2.08,10.34-7V2.16H283.8V1.22h11.35V3C295.15,8.5,291,10.94,283.8,10.94Zm18.36,5.89c0,2.85-3.94,4-8.57,4s-8.57-1.13-8.57-4,3.94-4,8.57-4S302.16,14,302.16,16.83Zm-1,0c0-2.12-3.5-3-7.56-3s-7.56.93-7.56,3,3.5,3,7.56,3S301.15,18.94,301.15,16.83ZM300.77,9h-5.38V8h5.38V4.15h-4.59V3.22h4.59V.5h1V11.88h-1Z"/><path class="cls-1" d="M313.12,18.63c3.44,0,6.25-.24,7.85-.94v1a24,24,0,0,1-7.77.91h-7.13v-.93h4.39V8.88h1v9.75ZM317.33,2.4h-10.4V1.46h11.4V14.69h-1Zm10,7.82h-3.19V21h-1V.5h1V9.29h3.19Z"/><path class="cls-1" d="M348.81,10H337.05V1h1V4.32h9.74V1h1Zm6.1,10.85-9.19-3.62c-1.68,2.06-5,3.31-8.24,3.31v-.93c3.77,0,7.81-1.88,8.33-4.76H337.6v-.91h8.19V11.33h1v2.59H355v.91h-8.16a5.14,5.14,0,0,1-.57,1.59L355.32,20ZM347.8,9.07V5.23h-9.74V9.07ZM354.48,12h-1V.5h1Z"/><path class="cls-1" d="M379.22,10.56H359V9.65h20.26Zm-1.37-6.34c0,2.62-4.15,3.58-8.76,3.58s-8.76-1-8.76-3.58S364.48.65,369.09.65,377.85,1.61,377.85,4.22Zm-.19,13h-16.1v2.44h16.56v.92H360.55V16.3h16.1V13.92H360.5V13h17.16Zm-16.3-13c0,2,3.75,2.67,7.73,2.67s7.73-.72,7.73-2.67-3.74-2.66-7.73-2.66S361.36,2.28,361.36,4.22Z"/><path class="cls-1" d="M401.88,10.51c0,6.32-2.55,9.34-6,9.34s-6-3-6-9.34,2.54-9.33,6-9.33S401.88,4.2,401.88,10.51Zm-11,0c0,5.69,2.13,8.4,5,8.4s5-2.71,5-8.4-2.16-8.4-5-8.4S390.91,4.82,390.91,10.51ZM407.4,21h-1V.5h1Z"/><path class="cls-1" d="M432.12,10.66v.93H411.86v-.93h5.06V7.49c-2.2-.55-3.72-1.59-3.72-3.19,0-2.67,4.18-3.75,8.79-3.75s8.78,1.08,8.78,3.75c0,1.6-1.51,2.64-3.72,3.19v3.17Zm-1.42,6.72c0,2.69-4.34,3.5-8.71,3.5s-8.71-.81-8.71-3.5,4.34-3.46,8.71-3.46S430.7,14.69,430.7,17.38ZM422,7.1c4,0,7.75-.84,7.75-2.8S426,1.49,422,1.49s-7.75.84-7.75,2.81S418,7.1,422,7.1Zm7.68,10.28c0-2-4.08-2.52-7.68-2.52s-7.68.55-7.68,2.52S418.39,20,422,20,429.67,19.35,429.67,17.38Zm-11.74-6.72H426v-3A21.4,21.4,0,0,1,422,8a21.58,21.58,0,0,1-4.06-.34Z"/><path class="cls-1" d="M440.49,4.25h5v.93H434.54V4.25h4.94V.48h1Zm4.18,9.36c0,3.91-1.9,6.19-4.56,6.19s-4.56-2.28-4.56-6.19,1.89-6.19,4.56-6.19S444.67,9.7,444.67,13.61Zm-1,0c0-3.34-1.49-5.26-3.53-5.26s-3.53,1.92-3.53,5.26,1.49,5.26,3.53,5.26S443.64,17,443.64,13.61ZM454.12.5V21h-1V10.27h-4.61V20.64h-1V.65h1V9.36h4.61V.5Z"/><path class="cls-1" d="M478.15,2.4H467.23V18.63h7.25a13.53,13.53,0,0,0,5.3-1v1a13.51,13.51,0,0,1-5.3,1H466.2V1.46h11.95ZM483.36,21l-1,0V.5h1Z"/><path class="cls-1" d="M494.85,10.08,502,18.72l-.79.6-6.63-8.09c-1.17,4.73-3.38,7.68-6.43,8.33v-1c4.15-1,6.31-7.73,6.38-16.2h-6V1.46h12.86V2.4h-5.88A39.72,39.72,0,0,1,494.85,10.08Zm14.26.34h-3.24V21h-1V.5h1v9h3.24Z"/><path class="cls-1" d="M523.94,6.67c0,3.22-2.28,5.81-6.29,5.81s-6.29-2.59-6.29-5.81S513.64.86,517.65.86,523.94,3.46,523.94,6.67Zm-11.55,0c0,2.95,2.09,4.92,5.26,4.92s5.26-2,5.26-4.92-2.09-4.92-5.26-4.92S512.39,3.72,512.39,6.67Zm1.76,12.92H530.3v.93H513.14V14.21h1Zm15.38-3.82h-1V.5h1Z"/><path class="cls-1" d="M541.65,4.27h6.15v.94H534.52V4.27h6.12V.46h1Zm5,9.36c0,3.8-2.47,6.17-5.49,6.17s-5.5-2.37-5.5-6.17,2.47-6.17,5.5-6.17S546.64,9.84,546.64,13.63Zm-1,0c0-3.21-2.06-5.23-4.46-5.23s-4.47,2-4.47,5.23,2.07,5.24,4.47,5.24S545.61,16.85,545.61,13.63Zm9.67-3.21H552V21h-1V.5h1v9h3.24Z"/><path class="cls-1" d="M563.61,11.18c-3.84,0-6.07-2.23-6.07-5.13S559.77.91,563.61.91s6.07,2.23,6.07,5.14S567.45,11.18,563.61,11.18Zm0-.93c3,0,5.07-1.59,5.07-4.2s-2.07-4.2-5.07-4.2-5.06,1.58-5.06,4.2S560.61,10.25,563.61,10.25ZM577,20.52l-4.51-3.84a6.44,6.44,0,0,1-4.76,3.84l-3.86-3.67a6.67,6.67,0,0,1-4.78,3.67v-.93c2.57-.39,4.8-3.49,5-7l1,.07a10.47,10.47,0,0,1-.77,3.34l3.77,3.58c2.35-.58,4.27-3.55,4.46-7l1,.1a10.82,10.82,0,0,1-.65,3.14l4.8,4ZM574.89,8V3.82h-4.46l-.07-.94h4.53V.5h1V12h-1v-3h-4.53l.07-.93Z"/><path class="cls-1" d="M600.45,18.87v.93H580.19v-.93h8.43V8.76h1V18.87ZM597.88,2.38H581.61V1.44h17.28V15h-1Z"/><path class="cls-1" d="M630.26,10.49v.93H610v-.93h9.63V7.56h-8V1h17V1.9h-16V6.62h16.2v.94h-8.26v2.93Zm-1.42,6.89c0,2.69-4.34,3.5-8.71,3.5s-8.71-.81-8.71-3.5,4.34-3.51,8.71-3.51S628.84,14.69,628.84,17.38Zm-1,0c0-2-4.11-2.57-7.71-2.57s-7.7.6-7.7,2.57,4.1,2.57,7.7,2.57S627.84,19.35,627.84,17.38Z"/><path class="cls-1" d="M640.79,9.79l7.09,9.12-.8.6L640.53,11c-1.27,5-3.62,8.14-6.91,8.59v-.93c4.75-.89,7-8.89,7-17.53l1,0A41.76,41.76,0,0,1,640.79,9.79ZM651.69.5V21h-1V.5Z"/><path class="cls-1" d="M669.55.65h1v20h-1V10.58H665.8c0,6.27-1.58,9.27-4.56,9.27s-4.56-3-4.56-9.34,1.59-9.33,4.56-9.33,4.42,2.73,4.56,8.47h3.75Zm-4.76,9.86c0-5.69-1.2-8.4-3.55-8.4s-3.55,2.71-3.55,8.4,1.2,8.4,3.55,8.4S664.79,16.2,664.79,10.51ZM675.36.5V21h-1V.5Z"/><path class="cls-1" d="M706.24,9.65v.91H686V9.65ZM686.87,7.51v-1c4-.12,8.86-2.66,9.77-6.45l1,.19a7,7,0,0,1-1.11,2.47l8.81,4-.38.81L695.9,3.53A13.42,13.42,0,0,1,686.87,7.51Zm1.71,12.12h16.56v.92H687.57V16.3h16.1V13.92H687.52V13h17.16v4.18h-16.1Z"/><path class="cls-1" d="M729.33,18.87v.93H709.07v-.93h9.55V13.71h-8V7.1h16.17V2.4H710.66V1.46h17.18V8H711.67v4.73H728.2v.94h-8.57v5.16Z"/><path class="cls-1" d="M733,12.26v-1c6.5,0,10.46-2.78,10.46-7.77V2.16H733V1.22h11.47V3.53A8.91,8.91,0,0,1,744.14,6H750V.5h1V15.79h-1V6.89H743.8C742.34,10.37,738.4,12.26,733,12.26Zm18.55,7.33v.93H734.25v-6h1v5.05Z"/><path class="cls-1" d="M768.62.65h1v20h-1V10.58h-3.75c0,6.27-1.58,9.27-4.56,9.27s-4.56-3-4.56-9.34,1.59-9.33,4.56-9.33,4.42,2.73,4.56,8.47h3.75Zm-4.75,9.86c0-5.69-1.2-8.4-3.56-8.4s-3.55,2.71-3.55,8.4,1.2,8.4,3.55,8.4S763.87,16.2,763.87,10.51ZM774.43.5V21h-1V.5Z"/><path class="cls-1" d="M785.61,10.73v-1a7.53,7.53,0,0,0,6.62-7.56h-6.38V1.27h13.29v.94h-5.9a10.37,10.37,0,0,1-.6,3.14l7.18,4.42-.58.79-7-4.3A8.75,8.75,0,0,1,785.61,10.73Zm17,1.51h1v8.28H787V12.24h1v3h14.62Zm0,7.37V16.18H788v3.43Zm1-19.11V11.21h-1V.5Z"/><path class="cls-1" d="M818.78,11.18v2.74c4.2.07,8.21.87,8.21,3.46s-4.35,3.5-8.72,3.5-8.71-.81-8.71-3.5,4-3.39,8.21-3.46V11.18h-9.63v-.93H828.4v.93Zm-9.46-3V7.22c3.94-.12,8.64-1.87,8.95-5.32h-8.52V1h17.07V1.9h-7.56a5.19,5.19,0,0,1-.72,2.25l8.85,3.19-.4.92L817.91,5C816,7.1,812.42,8.06,809.32,8.16Zm8.95,6.7c-3.6,0-7.68.55-7.68,2.52S814.67,20,818.27,20s7.68-.6,7.68-2.57S821.87,14.86,818.27,14.86Z"/><path class="cls-1" d="M845.13,3.26H831.28V2.35h6.41V.14h1V2.35h6.43ZM832.38,7.82c0-2,2.5-3.16,5.81-3.16S844,5.78,844,7.82,841.5,11,838.19,11,832.38,9.86,832.38,7.82Zm1.52,11.79H850v.91H832.89V16.15h15.36V13.58H832.84v-.91h16.42V17H833.9Zm-.51-11.79c0,1.35,1.83,2.28,4.8,2.28s4.8-.93,4.8-2.28-1.82-2.28-4.8-2.28S833.39,6.48,833.39,7.82ZM852.5,5.38v.91h-3.24v5h-1V.5h1V5.38Z"/><path class="cls-1" d="M881.3,14.81h-9.65v6.67h-1V14.81H861v-.94H881.3Zm-19.78-3.63v-1c4.75,0,9.19-4.51,10.27-9.74l1.06.22a14.44,14.44,0,0,1-1.54,4l9.12,5.59-.48.82-9.14-5.6C868.62,8.88,865.1,11.16,861.52,11.18Z"/><path class="cls-1" d="M897.59,11.23c-3.89,0-6.21-2.16-6.21-5.18S893.7.86,897.59.86s6.22,2.16,6.22,5.19S901.48,11.23,897.59,11.23Zm0-.89c3,0,5.21-1.56,5.21-4.29s-2.16-4.3-5.21-4.3-5.21,1.56-5.21,4.3S894.54,10.34,897.59,10.34Zm13,10.18-4.39-3.81a6.49,6.49,0,0,1-4.78,3.81l-3.88-3.67a6.58,6.58,0,0,1-4.73,3.67v-.93c2.54-.39,4.75-3.49,4.94-7l1,.07a11.45,11.45,0,0,1-.77,3.37l3.79,3.55c2.38-.58,4.32-3.55,4.51-7l1,.1a11.37,11.37,0,0,1-.68,3.17l4.68,4ZM909.45,12h-1V.5h1Z"/><path class="cls-1" d="M934.19,18.87v.93H913.93v-.93h9.58V12.6h-8V1.46h17.18V2.4H916.5v9.26h16.42v.94h-8.4v6.27Z"/><path class="cls-1" d="M957.28,12.29v.91H937v-.91h9.63V9.53h-7.92V4.78h16V1.87h-16V1h16.94v4.7h-16v3H956v.91h-8.35v2.76Zm-18.86,3.5h17.25v5h-1v-4.1H938.42Z"/><path class="cls-1" d="M8.23,38.27h6.15v.94H1.1v-.94H7.22V34.46h1Zm5,9.36c0,3.8-2.47,6.17-5.49,6.17s-5.5-2.37-5.5-6.17,2.47-6.17,5.5-6.17S13.22,43.84,13.22,47.63Zm-1,0c0-3.21-2.06-5.23-4.46-5.23s-4.47,2-4.47,5.23,2.07,5.24,4.47,5.24S12.19,50.85,12.19,47.63Zm9.68-3.21H18.62V55h-1V34.5h1v9h3.25Z"/><path class="cls-1" d="M30.19,45.18c-3.84,0-6.07-2.23-6.07-5.13s2.23-5.14,6.07-5.14,6.07,2.23,6.07,5.14S34,45.18,30.19,45.18Zm0-.93c3,0,5.07-1.59,5.07-4.2s-2.07-4.2-5.07-4.2-5.06,1.58-5.06,4.2S27.19,44.25,30.19,44.25ZM43.61,54.52,39.1,50.68a6.44,6.44,0,0,1-4.76,3.84l-3.86-3.67a6.67,6.67,0,0,1-4.78,3.67v-.93c2.57-.39,4.8-3.49,5-7l1,.07A10.47,10.47,0,0,1,30.91,50l3.77,3.58C37,53,39,50,39.14,46.55l1,.1a10.82,10.82,0,0,1-.65,3.14l4.8,4ZM41.47,42V37.82H37l-.07-.94h4.53V34.5h1V46h-1V42.9H36.94L37,42Z"/><path class="cls-1" d="M67,44V45H46.78V44ZM47.66,41.78v-1c4-.12,8.86-2.76,9.77-6.72l1,.16a7.17,7.17,0,0,1-1.16,2.67l8.86,4-.41.82-9.07-4.1A13,13,0,0,1,47.66,41.78ZM64.42,47h1v7.59h-17V47h1v2.71h15Zm0,6.65v-3h-15v3Z"/><path class="cls-1" d="M72.29,52.6h7.29a13.57,13.57,0,0,0,5.31-1v1a13,13,0,0,1-5.31,1h-8.3V35.34h1ZM88.46,55l-1,0V34.5h1Z"/><path class="cls-1" d="M102.22,52.63a13.53,13.53,0,0,0,5.3-1v1a13.51,13.51,0,0,1-5.3,1H94.15V35.46h11.76v.94H95.16V52.63Zm12-8.21H111V55h-1V34.5h1v9h3.24Z"/><path class="cls-1" d="M118.32,53.63a1.13,1.13,0,1,1-1.13-1.12A1.13,1.13,0,0,1,118.32,53.63Z"/><path class="cls-1" d="M148.15,52.87v.93H127.89v-.93h9.63V47.8h1v5.07Zm-11-6.27h-7.85V35.46h7.92v.94h-6.92v9.26h6.85Zm9.62,0h-8.09V35.46h8v.94h-7v9.26h7.08Z"/><path class="cls-1" d="M164.88,37.84H151V36.9h6.41V34.14h1V36.9h6.43Zm-12.82,5.81c0-2.59,2.48-4.18,5.88-4.18s5.88,1.59,5.88,4.18-2.47,4.18-5.88,4.18S152.06,46.24,152.06,43.65Zm1.56,9.94h16.16v.93H152.61v-5h1Zm-.55-9.94c0,1.92,1.87,3.26,4.87,3.26s4.88-1.34,4.88-3.26-1.88-3.27-4.88-3.27S153.07,41.73,153.07,43.65Zm19.18-2.83v.93H169v8.19h-1V34.5h1v6.32Z"/><path class="cls-1" d="M175.05,57.26h-.88l.67-4.66h1.1Z"/><path class="cls-1" d="M193.15,47.83A24.93,24.93,0,0,0,201,47v1a26.73,26.73,0,0,1-7.78.84H193V55h-1V48.76h-6.46v-.93Zm-6.55-7.69c0-3,2.45-5.11,5.9-5.11s5.91,2.11,5.91,5.11-2.45,5.12-5.91,5.12S186.6,43.14,186.6,40.14Zm1,0c0,2.4,1.92,4.18,4.89,4.18s4.9-1.78,4.9-4.18-2-4.17-4.9-4.17S187.61,37.74,187.61,40.14Zm16.58-5.64V55h-1V34.5Z"/><path class="cls-1" d="M208.77,45.4v-1c4.35-1,6.7-5.09,6.7-9.65l1,.05a13.13,13.13,0,0,1-.84,4.73l6.84,4.68-.6.77-6.65-4.54A9.15,9.15,0,0,1,208.77,45.4Zm18.8,5.52c0,2.74-3.7,3.89-8.45,3.89s-8.45-1.15-8.45-3.89,3.7-3.89,8.45-3.89S227.57,48.19,227.57,50.92Zm-1,0c0-2-3.25-3-7.42-3s-7.42,1-7.42,3,3.24,2.95,7.42,2.95S226.54,52.91,226.54,50.92Zm-.15-11.18h-5.95v-.92h5.95V34.5h1V46.07h-1Z"/><path class="cls-1" d="M239.18,53.56h-7.49v-.93h7.64c3.55,0,6.36-.39,7.84-1.11v1C245.76,53.15,242.88,53.56,239.18,53.56Zm5.67-12.1a6.17,6.17,0,1,1-12.34,0,6.17,6.17,0,1,1,12.34,0Zm-11.31,0a5.14,5.14,0,1,0,10.27,0,5.14,5.14,0,1,0-10.27,0ZM250.37,55h-1V34.5h1Z"/><path class="cls-1" d="M281.76,52.87v.93H261.5v-.93h5.69v-6h-4.51V46h4.05V36.64h-3.84V35.7h17.48v.94h-3.84V46h4.05v.94h-4.49v6Zm-14-6.92h7.78V36.64h-7.78Zm.46,6.92h6.89v-6H268.2Z"/><path class="cls-1" d="M296.66,45.83h-11V35.22h11Zm7.3,7.76v.93H286.68V48.31h1v5.28Zm-8.31-17.43H286.7V44.9h8.95Zm6.73,7.39h-4.33v-.93h4.33V38.37h-4.33v-.94h4.33V34.5h1V49.79h-1Z"/><path class="cls-1" d="M314.73,52.63c3.44,0,6.24-.24,7.85-.94v1a24.08,24.08,0,0,1-7.78.91h-7.12v-.93h4.39V42.88h1v9.75Zm4.2-16.23H308.54v-.94h11.4V48.69h-1Zm10,7.82h-3.19V55h-1V34.5h1v8.79h3.19Z"/><path class="cls-1" d="M349.08,35.22h1V53.56H338.9V35.22h1v7.9h9.15Zm0,17.41V44.06h-9.15v8.57Zm7-18.13V55h-1V34.5Z"/><path class="cls-1" d="M380.83,45.16v.94H360.57v-.94Zm-19.37-2.54v-1c4-.12,8.86-3.1,9.77-7.56l1,.14a8.51,8.51,0,0,1-1.25,3.1l8.93,4.58-.45.82-9.05-4.61A12.45,12.45,0,0,1,361.46,42.62Zm9.39,7.61,9,3.64-.38.89L370.27,51a11.49,11.49,0,0,1-8.57,3.53v-1c4.06,0,8.3-2.13,9.07-5.83l1,.14A6.75,6.75,0,0,1,370.85,50.23Z"/><path class="cls-1" d="M397.56,37.84H383.71V36.9h6.41V34.14h1V36.9h6.44Zm-12.82,5.81c0-2.59,2.47-4.18,5.88-4.18s5.88,1.59,5.88,4.18-2.47,4.18-5.88,4.18S384.74,46.24,384.74,43.65Zm1.56,9.94h16.15v.93H385.29v-5h1Zm-.55-9.94c0,1.92,1.87,3.26,4.87,3.26s4.87-1.34,4.87-3.26-1.87-3.27-4.87-3.27S385.75,41.73,385.75,43.65Zm19.17-2.83v.93h-3.24v8.19h-1V34.5h1v6.32Z"/><path class="cls-1" d="M420.88,43.89l6.89,9-.79.6-6.38-8.45c-1.25,4.9-3.53,8-6.8,8.5v-.93c4.76-.89,6.84-8.89,6.89-17.53l1,0A44.92,44.92,0,0,1,420.88,43.89Zm13.85.53h-3.24V55h-1V34.5h1v9h3.24Z"/><path class="cls-1" d="M437.13,46.41v-1c4-.72,6.51-4,6.65-9.24h-6.41v-.94h13.3v.94h-5.88a14.44,14.44,0,0,1-.6,3.84l6.89,5.4-.58.79L443.85,41A8.65,8.65,0,0,1,437.13,46.41Zm18.79,7.18v.93h-17.4v-6h1v5.05Zm-.76-3.82h-1V34.5h1Z"/><path class="cls-1" d="M479.9,44.56H459.64v-.91H479.9Zm-1.37-6.34c0,2.62-4.15,3.58-8.76,3.58s-8.76-1-8.76-3.58,4.15-3.57,8.76-3.57S478.53,35.61,478.53,38.22Zm-.19,13h-16.1v2.44H478.8v.92H461.23V50.3h16.1V47.92H461.18V47h17.16Zm-16.3-13c0,2,3.75,2.67,7.73,2.67s7.73-.72,7.73-2.67-3.74-2.66-7.73-2.66S462,36.28,462,38.22Z"/><path class="cls-1" d="M502.56,44.51c0,6.32-2.55,9.34-6,9.34s-6-3-6-9.34,2.55-9.33,6-9.33S502.56,38.2,502.56,44.51Zm-11,0c0,5.69,2.13,8.4,5,8.4s5-2.71,5-8.4-2.16-8.4-5-8.4S491.59,38.82,491.59,44.51ZM508.08,55h-1V34.5h1Z"/><path class="cls-1" d="M532.8,44.66v.93H512.54v-.93h5.06V41.49c-2.21-.55-3.72-1.59-3.72-3.19,0-2.67,4.18-3.75,8.79-3.75s8.78,1.08,8.78,3.75c0,1.6-1.51,2.64-3.72,3.19v3.17Zm-1.42,6.72c0,2.69-4.34,3.5-8.71,3.5s-8.72-.81-8.72-3.5,4.35-3.46,8.72-3.46S531.38,48.69,531.38,51.38ZM522.67,41.1c4,0,7.75-.84,7.75-2.8s-3.77-2.81-7.75-2.81-7.76.84-7.76,2.81S518.68,41.1,522.67,41.1Zm7.68,10.28c0-2-4.08-2.52-7.68-2.52s-7.68.55-7.68,2.52S519.07,54,522.67,54,530.35,53.35,530.35,51.38Zm-11.74-6.72h8.11v-3a24.35,24.35,0,0,1-8.11,0Z"/><path class="cls-1" d="M543.26,38.27h6.14v.94H536.13v-.94h6.12V34.46h1Zm5,9.36c0,3.8-2.47,6.17-5.5,6.17s-5.49-2.37-5.49-6.17,2.47-6.17,5.49-6.17S548.25,43.84,548.25,47.63Zm-1,0c0-3.21-2.06-5.23-4.47-5.23s-4.46,2-4.46,5.23,2.06,5.24,4.46,5.24S547.22,50.85,547.22,47.63Zm9.67-3.21h-3.24V55h-1V34.5h1v9h3.24Z"/><path class="cls-1" d="M571.44,44.51c0,6.32-2.45,9.34-5.86,9.34s-5.86-3-5.86-9.34,2.45-9.33,5.86-9.33S571.44,38.2,571.44,44.51Zm-1,0c0-5.69-2-8.4-4.82-8.4s-4.83,2.71-4.83,8.4,2,8.4,4.83,8.4S570.4,50.2,570.4,44.51Zm7.11-10V55h-1V48.64h-4.37l.07-.93h4.3V41.22h-4.3l-.07-.93h4.37V34.5Z"/><path class="cls-1" d="M592.84,46.38h-3.45V35.22h8.83v.92h-7.83v4.15h7v.91h-7v4.27H593a18,18,0,0,0,6.33-.81v.93A19.18,19.18,0,0,1,592.84,46.38ZM590.3,49.1h17.4v5.71h-1V50H590.3ZM601.89,41h-3.31v-.91h3.31V34.65h1V47.44h-1Zm5.81-6.53V47.66h-1V34.5Z"/><path class="cls-1" d="M631.87,52.87v.93H611.61v-.93ZM612,47.25v-1c4.75,0,9.07-5.55,10.39-11.57l1.06.26a19.48,19.48,0,0,1-1.71,4.73l9.29,6.84-.62.72-9.1-6.72C619.07,44.46,615.62,47.25,612,47.25Z"/><path class="cls-1" d="M641.85,44.54l7.06,8.35-.72.67-6.63-7.87c-1.17,4.41-3.41,7.2-6.43,7.87v-1c3.82-.91,6-6.53,6.34-13.44h-6.2v-.94h6.22V34.48h1v3.74h5.81v.94h-5.84A31.59,31.59,0,0,1,641.85,44.54Zm11.64-10V55h-1V47.23H647.8v-.94h4.68V42.21H647.8v-.94h4.68V34.5Z"/><path class="cls-1" d="M678,52.87v.93H657.79v-.93h9.55V47.71h-8V41.1h16.18V36.4H659.37v-.94h17.18V42H660.38v4.73h16.54v.94h-8.57v5.16Z"/><path class="cls-1" d="M701,34.65h1v20h-1V44.49h-4.15v9.07h-8.35V35.22h1v8h6.34v-8h1v8.33H701Zm-5.16,18V44.1h-6.34v8.53Zm11-18.13V55h-1V34.5Z"/><path class="cls-1" d="M723.79,44.51c0,6.32-2.55,9.34-6,9.34s-6-3-6-9.34,2.54-9.33,6-9.33S723.79,38.2,723.79,44.51Zm-11,0c0,5.69,2.13,8.4,5,8.4s5-2.71,5-8.4-2.16-8.4-5-8.4S712.82,38.82,712.82,44.51ZM729.31,55h-1V34.5h1Z"/><path class="cls-1" d="M754,52.87v.93H733.77v-.93Zm-19.85-5.62v-1c4.75,0,9.07-5.55,10.39-11.57l1.06.26a19.48,19.48,0,0,1-1.71,4.73l9.29,6.84-.62.72-9.1-6.72C741.23,44.46,737.78,47.25,734.18,47.25Z"/><path class="cls-1" d="M777.11,45.3H756.86v-.91h20.25Zm-1.56,6.1H759.42v2.26H776v.89H758.44v-4h16.13V48.38H758.39v-.89h17.16Zm0-12.41h-16v2.33h16.3v.89H758.56V38.1h16V35.85h-16V35H775.5Z"/><path class="cls-1" d="M787,44.73v-1c3.91-.72,6.34-3.29,6.53-7.56h-6.29v-.94h13.11v.94h-5.81a10,10,0,0,1-.6,3.17L801,43.77l-.58.79-6.89-4.27A8.63,8.63,0,0,1,787,44.73Zm16.68,1.51h1v8.28H788.3V46.24h1v3h14.38Zm0,7.37V50.18H789.3v3.43Zm4.25-13.85h-3.24v5.45h-1V34.5h1v4.32h3.24Z"/><path class="cls-1" d="M830,52.87v.93H809.75v-.93h8.43V42.76h1V52.87Zm-2.57-16.49H811.17v-.94h17.28V49h-1Z"/><path class="cls-1" d="M859.82,53.8H839.56v-.93h20.26Zm-1.56-4.15h-1V36.38H841v-.94h17.28Z"/><path class="cls-1" d="M877,47.83a24.93,24.93,0,0,0,7.85-.87v1a26.73,26.73,0,0,1-7.78.84h-.21V55h-1V48.76h-6.46v-.93Zm-6.55-7.69c0-3,2.45-5.11,5.9-5.11s5.91,2.11,5.91,5.11-2.45,5.12-5.91,5.12S870.45,43.14,870.45,40.14Zm1,0c0,2.4,1.92,4.18,4.89,4.18s4.9-1.78,4.9-4.18-2-4.17-4.9-4.17S871.46,37.74,871.46,40.14ZM888,34.5V55h-1V34.5Z"/><path class="cls-1" d="M905.82,34.65h1v20h-1V44.58h-3.74c0,6.27-1.58,9.27-4.56,9.27s-4.56-3-4.56-9.34,1.58-9.33,4.56-9.33,4.42,2.73,4.56,8.47h3.74Zm-4.75,9.86c0-5.69-1.2-8.4-3.55-8.4S894,38.82,894,44.51s1.2,8.4,3.55,8.4S901.07,50.2,901.07,44.51Zm10.56-10V55h-1V34.5Z"/><path class="cls-1" d="M20.86,87.8H.6v-.93H20.86ZM19.3,83.65h-1V70.38H2v-.94H19.3Z"/><path class="cls-1" d="M27.58,86.63a15.44,15.44,0,0,0,6.88-1.18v1a16.53,16.53,0,0,1-6.81,1.08H24.53V77.84h6.79V70.4H24.53v-.94h7.8v9.32H25.54v7.85Zm9.48-18h1v20h-1V78.46H33.79v-.93h3.27Zm5.81-.15V89h-1V68.5Z"/><path class="cls-1" d="M59.78,74.67c0,3.22-2.28,5.81-6.28,5.81s-6.29-2.59-6.29-5.81,2.28-5.81,6.29-5.81S59.78,71.46,59.78,74.67Zm-11.54,0c0,3,2.09,4.92,5.26,4.92s5.25-2,5.25-4.92-2.09-4.92-5.25-4.92S48.24,71.72,48.24,74.67ZM50,87.59H66.15v.93H49V82.21h1Zm15.39-3.82h-1V68.5h1Z"/><path class="cls-1" d="M90.12,78.56H69.86v-.91H90.12Zm-1.37-6.34c0,2.62-4.15,3.58-8.76,3.58s-8.76-1-8.76-3.58,4.15-3.57,8.76-3.57S88.75,69.61,88.75,72.22Zm-.19,13H72.46v2.44H89v.92H71.45V84.3h16.1V81.92H71.4V81H88.56Zm-16.3-13c0,2,3.75,2.67,7.73,2.67s7.73-.72,7.73-2.67S84,69.56,80,69.56,72.26,70.28,72.26,72.22Z"/><path class="cls-1" d="M107.52,86.63c3.43,0,6.24-.24,7.85-.94v1a24.08,24.08,0,0,1-7.78.91H99.67v-.93Zm-7.7-5.53v-.95c3-1.52,3.62-6.32,3.64-11.17l1,0a34,34,0,0,1-.48,5.76l3,5.11c2.62-1.72,3.22-6.28,3.24-10.89l1,0a35.61,35.61,0,0,1-.44,5.49l3.63,5.86-.77.48-3.12-5.09c-.65,2.5-1.82,4.39-3.94,5.3l-2.9-5C103,78.44,101.86,80.24,99.82,81.1Zm18.62-12.6V89h-1V68.5Z"/><path class="cls-1" d="M130.56,81.8h-.36V89h-1V81.8h-6.41v-.94h7.71a25,25,0,0,0,7.85-.86v1A26.73,26.73,0,0,1,130.56,81.8Zm-6.6-8c0-2.88,2.47-4.78,5.93-4.78s5.93,1.9,5.93,4.78-2.48,4.77-5.93,4.77S124,76.69,124,73.81Zm1,0c0,2.28,1.94,3.84,4.92,3.84s4.92-1.56,4.92-3.84S132.86,70,129.89,70,125,71.53,125,73.81Zm16.56-5.31V89h-1V85.57h-7v-.94h7V68.5Z"/><path class="cls-1" d="M172.82,79.88v.94H163.2v3.81h-1V80.82h-9.62v-.94Zm-17.61,7.73H171.7v.94H154.2V83.24h1Zm16-10.47H154.25v-8.4h1V72h14.91V68.74h1Zm-1-.91V72.85H155.25v3.38Z"/><path class="cls-1" d="M183.29,81.83a24.93,24.93,0,0,0,7.85-.87v1a26.73,26.73,0,0,1-7.78.84h-.22V89h-1V82.76h-6.45v-.93Zm-6.56-7.69c0-3,2.45-5.11,5.91-5.11s5.9,2.11,5.9,5.11-2.44,5.12-5.9,5.12S176.73,77.14,176.73,74.14Zm1,0c0,2.4,1.92,4.18,4.9,4.18s4.9-1.78,4.9-4.18S185.59,70,182.64,70,177.74,71.74,177.74,74.14Zm16.59-5.64V89h-1V68.5Z"/><path class="cls-1" d="M210.86,73.9c0,8.14-4.15,13.57-11,13.57v-1c6.1,0,10-4.85,10-12.51V70.4h-10v-.94h11ZM217.34,89h-1V68.5h1Z"/><path class="cls-1" d="M242.09,79.3H221.83v-.91h20.26Zm-1.56,6.1H224.4v2.26H241v.89H223.41v-4h16.13V82.38H223.37v-.89h17.16ZM240.48,73h-16v2.33h16.29v.89H223.53V72.1h16V69.85h-16V69h16.95Z"/><path class="cls-1" d="M271.89,86.87v.93H251.64v-.93h8.42V76.76h1V86.87Zm-2.56-16.49H253.05v-.94h17.28V83h-1Z"/><path class="cls-1" d="M295,86.87v.93H274.72v-.93h9.61V80.65h1v6.22Zm-19.7-6v-1c5-.57,8.76-3.81,9.74-9.45H275.8v-.94h18v.94H286a14.17,14.17,0,0,1-1.22,4l9.48,5.74-.53.84-9.41-5.69A11.63,11.63,0,0,1,275.28,80.86Z"/><path class="cls-1" d="M305.52,77.79l7.08,9.12-.79.6L305.25,79c-1.27,5-3.62,8.14-6.91,8.59v-.93c4.75-.89,7-8.89,7-17.53l1,0A43.17,43.17,0,0,1,305.52,77.79Zm10.89-9.29V89h-1V68.5Z"/><path class="cls-1" d="M321.72,79.59v-1c5.08,0,8.78-1.25,10.13-4H321.72v-.93h10.49a6.78,6.78,0,0,0,.21-1.73v-1.8h-10.7v-.94h11.71v2.5C333.43,77.38,328.87,79.59,321.72,79.59Zm18.81,9.12-4.24-3.93a6.4,6.4,0,0,1-4.88,3.74l-3.76-3.62a6.73,6.73,0,0,1-4.85,3.62v-.91c2.57-.38,4.8-3.36,5-6.89l1,.12a10.29,10.29,0,0,1-.72,3.17l3.74,3.55c2.33-.62,4.3-3.43,4.49-6.81l1,.11a10.51,10.51,0,0,1-.62,3L341.23,88Zm-1.84-11.78h-4.95V76h4.95V72.08h-4.18v-.94h4.18V68.5h1V80.15h-1Z"/><path class="cls-1" d="M364.25,78V79H344V78Zm-19.37-2.25v-1c4-.12,8.85-2.76,9.77-6.72l1,.16a7.15,7.15,0,0,1-1.15,2.67l8.85,4-.4.82-9.08-4.1A13,13,0,0,1,344.88,75.78ZM361.63,81h1v7.59h-17V81h1v2.71h15Zm0,6.65v-3h-15v3Z"/><path class="cls-1" d="M369.5,86.6h7.3a13.56,13.56,0,0,0,5.3-1v1a12.93,12.93,0,0,1-5.3,1h-8.31V69.34h1ZM385.68,89l-1,0V68.5h1Z"/><path class="cls-1" d="M399.43,86.63a13.49,13.49,0,0,0,5.3-1v1a13.44,13.44,0,0,1-5.3,1h-8.07V69.46h11.76v.94H392.37V86.63Zm12-8.21h-3.24V89h-1V68.5h1v9h3.24Z"/><path class="cls-1" d="M415.53,87.63a1.13,1.13,0,1,1-1.13-1.12A1.12,1.12,0,0,1,415.53,87.63Z"/></g></g></svg>