<svg xmlns="http://www.w3.org/2000/svg" viewBox="0 0 150.08 28.35"><defs><style>.cls-1{fill:#fff;}</style></defs><g id="레이어_2" data-name="레이어 2"><g id="레이어_1-2" data-name="레이어 1"><path class="cls-1" d="M2.56,21.76H0V0H2.11l.32.77L9.92,17.34,17.38.77,17.7,0h2.11V1.28l0,19.2v1.28H17.28V20.48l0-13.25L11.07,21l-.32.77H9.09L8.77,21,2.56,7.23V21.76Z"/><path class="cls-1" d="M26.21,8.86A6.47,6.47,0,0,1,31.36,6.4a6.59,6.59,0,0,1,4.48,1.76V6.4H38.4V21.76H35.84V20a6.69,6.69,0,0,1-4.48,1.76,6.51,6.51,0,0,1-4.58-1.86,7.56,7.56,0,0,1-2.46-5.82A7.8,7.8,0,0,1,26.21,8.86Zm1.6,8.32a4.08,4.08,0,0,0,3.55,2,4,4,0,0,0,2.69-1,5.2,5.2,0,0,0,1.79-4.1,5.51,5.51,0,0,0-.93-3.1,4.08,4.08,0,0,0-3.55-2,4,4,0,0,0-2.69,1,5.22,5.22,0,0,0-1.79,4.1A5.48,5.48,0,0,0,27.81,17.18Z"/><path class="cls-1" d="M43,4.45V1.89h2.59V4.45H43Zm0,2H45.6V21.76H43V6.4Z"/><path class="cls-1" d="M62.11,21.79H59.58l0-1.28,0-7.49a4.47,4.47,0,0,0-.61-2.3A3.25,3.25,0,0,0,56,9a3.1,3.1,0,0,0-2,.71A4,4,0,0,0,52.48,13v8.74H49.92V6.4h2.56V7.62A5.84,5.84,0,0,1,56,6.4a5.59,5.59,0,0,1,3.81,1.47A6.47,6.47,0,0,1,62.08,13v7.46Z"/><path class="cls-1" d="M81.6,10.88l0-9.57V0h1.28L91,0a6.63,6.63,0,0,1,4.32,1.54A5.66,5.66,0,0,1,97.6,6.11,5.64,5.64,0,0,1,96.1,10,6.46,6.46,0,0,1,91,12.16H84.16v9.6H81.6V10.88ZM91,9.6A4.4,4.4,0,0,0,93.25,9,3.2,3.2,0,0,0,95,6.11a3.26,3.26,0,0,0-.7-2A3.92,3.92,0,0,0,91,2.56H84.16V9.63Z"/><path class="cls-1" d="M102.05,8.86A6.48,6.48,0,0,1,107.2,6.4a6.59,6.59,0,0,1,4.48,1.76V6.4h2.56V21.76h-2.56V20a6.69,6.69,0,0,1-4.48,1.76,6.51,6.51,0,0,1-4.58-1.86,7.56,7.56,0,0,1-2.46-5.82A7.8,7.8,0,0,1,102.05,8.86Zm1.6,8.32a4.08,4.08,0,0,0,3.55,2,4,4,0,0,0,2.69-1,5.2,5.2,0,0,0,1.79-4.1,5.51,5.51,0,0,0-.93-3.1,4.08,4.08,0,0,0-3.55-2,4,4,0,0,0-2.69,1,5.22,5.22,0,0,0-1.79,4.1A5.48,5.48,0,0,0,103.65,17.18Z"/><path class="cls-1" d="M120,8.86a6.47,6.47,0,0,1,5.15-2.46,6.59,6.59,0,0,1,4.48,1.76V7.68l0-1.25h2.59l0,1.28,0,12.77a7.56,7.56,0,0,1-.32,2.11,9,9,0,0,1-.94,2.12,9.32,9.32,0,0,1-1.46,1.83,6.46,6.46,0,0,1-2,1.32,5.75,5.75,0,0,1-2.34.49h-1.28V25.79h1.28a4,4,0,0,0,3-1.57,5.61,5.61,0,0,0,1.41-3.74V20a6.69,6.69,0,0,1-4.48,1.76,6.51,6.51,0,0,1-4.58-1.86,7.56,7.56,0,0,1-2.46-5.82A7.8,7.8,0,0,1,120,8.86Zm1.6,8.32a4.08,4.08,0,0,0,3.55,2,4,4,0,0,0,2.69-1,5.2,5.2,0,0,0,1.79-4.1,5.51,5.51,0,0,0-.93-3.1,4.08,4.08,0,0,0-3.55-2,4,4,0,0,0-2.69,1,5.22,5.22,0,0,0-1.79,4.1A5.48,5.48,0,0,0,121.57,17.18Z"/><path class="cls-1" d="M149,18.75a7,7,0,0,1-6,3,6.62,6.62,0,0,1-4.61-1.86A7.6,7.6,0,0,1,136,14.08a7.91,7.91,0,0,1,1.82-5.18,6.64,6.64,0,0,1,9.8-.64,7.56,7.56,0,0,1,2.46,5.82v1.28H138.69a5.37,5.37,0,0,0,.77,1.79A4.09,4.09,0,0,0,143,19.2a4.72,4.72,0,0,0,3.9-2Zm-1.47-5.95a3.39,3.39,0,0,0-.86-2A4.57,4.57,0,0,0,143,9a4,4,0,0,0-1.89.48,4.73,4.73,0,0,0-2.46,3.36Z"/></g></g></svg>