<svg xmlns="http://www.w3.org/2000/svg" viewBox="0 0 920.54 55.23"><defs><style>.cls-1{fill:#fff;}</style></defs><g id="레이어_2" data-name="레이어 2"><g id="레이어_1-2" data-name="레이어 1"><path class="cls-1" d="M0,8.74V7.9C2.31,7.9,4.33,6,4.33,2.62V1.87H0V1H5.26V2.6C5.26,6.38,2.88,8.74,0,8.74Zm2.07,9.13H16.9v.85H1.12V14.43H15.29V11.84H1.08V11H16.24v4.29H2.09ZM6.25,9.18V8.34C8.34,8.34,11,6.8,11,2.77v-.9H6.31V1H12V2.75C12,7.13,8.93,9.18,6.25,9.18ZM19.1,4.4v.86H16.24v4.4h-.93V.37h.93v4Z"/><path class="cls-1" d="M39.34,9.46H20.77V8.6H39.34ZM29.17,7h-.92V1.65H22.07V.79h7.1Zm8.74,11.73H22.22V12H37.91ZM37,17.89v-5H23.14v5ZM37.86,7h-.92V1.65H30.49V.79h7.37Z"/><path class="cls-1" d="M48.93,3.83h5.63v.86H42.39V3.83H48V.33h.93Zm4.57,8.58c0,3.48-2.26,5.65-5,5.65s-5-2.17-5-5.65,2.26-5.65,5-5.65S53.5,8.93,53.5,12.41Zm-.94,0c0-2.95-1.89-4.8-4.09-4.8s-4.1,1.85-4.1,4.8,1.9,4.8,4.1,4.8S52.56,15.36,52.56,12.41Zm8.87-2.95h-3v9.7h-.93V.37h.93V8.6h3Z"/><path class="cls-1" d="M81.67,17.21v.85H63.09v-.85h7.73V7.94h.92v9.27ZM79.31,2.09H64.39V1.23H80.24V13.64h-.93Z"/><path class="cls-1" d="M91.26,1.25h9.87V5.32c0,7.38-3.6,12.44-9.87,12.44v-.88c5.58,0,8.95-4.54,8.95-11.47V2.11H91.26Zm18.65,8.21h-3v9.7H106V.37h.92V8.6h3Z"/><path class="cls-1" d="M130.15,10.17V11H111.58v-.85h8.83V7.39h-7.29V.79h15.56v.86H114.05V6.53H128.9v.86h-7.57v2.78Zm-17.29,3.45h15.82V19h-.93V14.48H112.86Z"/><path class="cls-1" d="M132.9,10.36V9.48c4-.88,6.14-4.66,6.14-8.84l.92,0A11.92,11.92,0,0,1,139.19,5l6.27,4.29-.55.7-6.09-4.16A8.41,8.41,0,0,1,132.9,10.36Zm17.23,5.06c0,2.51-3.39,3.57-7.75,3.57s-7.74-1.06-7.74-3.57,3.39-3.56,7.74-3.56S150.13,12.92,150.13,15.42Zm-.95,0c0-1.82-3-2.7-6.8-2.7s-6.8.88-6.8,2.7,3,2.71,6.8,2.71S149.18,17.25,149.18,15.42Zm-.13-10.25h-5.46V4.33h5.46v-4H150V11h-.92Z"/><path class="cls-1" d="M178.64,8.6v.84H160.07V8.6h8.82V6.27h.93V8.6Zm-8.82,3.57h7.76V13H161.06v-.83h7.81V10.43h.95Zm-8.67-5.5V5.81c3.45-.11,7.55-1.48,8.14-4.16h-7.75V.79h15.65v.86h-7a4.12,4.12,0,0,1-.61,1.52l8.16,2.73-.35.86L169,3.92C167.22,5.72,164,6.58,161.15,6.67Zm15.44,10c0,1.52-2.06,2.48-7.26,2.48s-7.26-1-7.26-2.48,2.07-2.51,7.26-2.51S176.59,15.16,176.59,16.68Zm-.92,0c0-1-2.38-1.67-6.34-1.67s-6.33.63-6.33,1.67,2.37,1.65,6.33,1.65S175.67,17.71,175.67,16.68Z"/><path class="cls-1" d="M199.8,11.46H181.23v-.85H199.8Zm-1.18-7.1c0,2.66-3.88,3.94-8.1,3.94s-8.1-1.28-8.1-3.94,3.87-3.94,8.1-3.94S198.62,1.69,198.62,4.36Zm-15,13.53h15.12v.86h-16V13.6h.92Zm-.28-13.53c0,2,3.5,3.08,7.15,3.08s7.15-1.06,7.15-3.08-3.5-3.08-7.15-3.08S183.37,2.33,183.37,4.36Z"/><path class="cls-1" d="M208.65,11.29v-.88c4-.88,6.27-5.22,6.27-9.77l.92,0A13.7,13.7,0,0,1,215,5.52l6.43,4.91-.59.73-6.21-4.73A8.48,8.48,0,0,1,208.65,11.29ZM211,17.87h14.81v.85H210.05V13.25H211ZM228.05,5.24v.85h-3v8.28h-.92V.37h.92V5.24Z"/><path class="cls-1" d="M235.09,8.85,239.84,17l-.77.51-4.2-7.31c-.75,4.23-2.22,6.69-4.84,7.61v-.92c3.7-1.45,4.51-7.48,4.55-16l.93,0A66.29,66.29,0,0,1,235.09,8.85ZM241.8.51h.93V18.83h-.93V8.21h-3.72V7.35h3.72Zm5.5-.14V19.16h-.92V.37Z"/><path class="cls-1" d="M262.5,9.77h-9.39V17h6.69a12.46,12.46,0,0,0,4.86-.91v.86a12,12,0,0,1-4.86.9h-7.64V8.91h9.42V2.11h-9.46V1.25H262.5Zm5.44,9.39H267V.37h.93Z"/><path class="cls-1" d="M290.62,17.16v.9H272.05v-.9Zm-1.08-5.32H273.13V11h3.72V2.33h-3.52V1.47h16v.86h-3.52V11h3.72ZM277.77,11h7.13V2.33h-7.13Z"/><path class="cls-1" d="M317.94,11.22v.86H299.37v-.86h8.83V8.3h-7.64V7.46h3.7V1.63h-3.5V.79h15.8v.84h-3.5V7.46h3.7V8.3h-7.64v2.92Zm-16.15,6.69h15.12v.84h-16V13.91h.92Zm3.39-10.45h6.95V1.63h-6.95Z"/><path class="cls-1" d="M339.11,17.21v.85H320.54v-.85Zm-1-4.38H322V1.25h15.73v.86H322.91V6.6h14.63v.86H322.91V12h15.16Z"/><path class="cls-1" d="M360.27,10.28H341.7V9.44h18.57Zm-1.43,5.58H344.05v2.07h15.21v.82H343.15V15.07h14.79v-2H343.11v-.81h15.73Zm0-11.37H344.17V6.62h14.94v.82H343.26V3.67h14.63V1.61H343.26V.79H358.8Z"/><path class="cls-1" d="M375.82,9l6.32,8.27-.73.55-5.85-7.74c-1.14,4.48-3.23,7.37-6.23,7.78V17c4.36-.82,6.27-8.14,6.32-16.07l.92,0A40.93,40.93,0,0,1,375.82,9Zm12.7.48h-3v9.7h-.93V.37h.93V8.6h3Z"/><path class="cls-1" d="M408.76,9.68v.86H390.19V9.68h4.64V6.78c-2-.51-3.41-1.46-3.41-2.93,0-2.44,3.83-3.43,8.05-3.43s8.06,1,8.06,3.43c0,1.47-1.39,2.42-3.41,2.93v2.9Zm-1.3,6.16c0,2.47-4,3.21-8,3.21s-8-.74-8-3.21,4-3.17,8-3.17S407.46,13.38,407.46,15.84Zm-8-9.41c3.66,0,7.11-.78,7.11-2.58s-3.45-2.57-7.11-2.57-7.1.77-7.1,2.57S395.82,6.43,399.47,6.43Zm7,9.41c0-1.8-3.74-2.31-7-2.31s-7,.51-7,2.31,3.74,2.36,7,2.36S406.51,17.65,406.51,15.84ZM395.75,9.68h7.44V7a19.74,19.74,0,0,1-3.72.3,19.81,19.81,0,0,1-3.72-.3Z"/><path class="cls-1" d="M418.35,3.83H424v.86H411.81V3.83h5.61V.33h.93Zm4.58,8.58c0,3.48-2.27,5.65-5,5.65s-5-2.17-5-5.65,2.26-5.65,5-5.65S422.93,8.93,422.93,12.41Zm-.95,0c0-2.95-1.89-4.8-4.09-4.8s-4.1,1.85-4.1,4.8,1.9,4.8,4.1,4.8S422,15.36,422,12.41Zm8.87-2.95h-3v9.7H427V.37h.93V8.6h3Z"/><path class="cls-1" d="M444.18,9.55c0,5.79-2.25,8.56-5.37,8.56s-5.37-2.77-5.37-8.56S435.68,1,438.81,1,444.18,3.76,444.18,9.55Zm-.95,0c0-5.22-1.87-7.7-4.42-7.7s-4.42,2.48-4.42,7.7,1.87,7.7,4.42,7.7S443.23,14.76,443.23,9.55ZM449.74.37V19.16h-.92V13.33h-4l.06-.85h3.94V6.53h-3.94l-.06-.85h4V.37Z"/><path class="cls-1" d="M460.26,8.74V7.9c2.29,0,4.31-1.87,4.31-5.28V1.87h-4.31V1h5.23V2.6C465.49,6.38,463.12,8.74,460.26,8.74Zm2.07,9.13h14.8v.85H461.36V14.43h14.17V11.84H461.31V11h15.16v4.29H462.33Zm4.15-8.69V8.34c2.09,0,4.78-1.54,4.78-5.57v-.9h-4.71V1h5.63V2.75C472.18,7.13,469.17,9.18,466.48,9.18ZM479.33,4.4v.86h-2.86v4.4h-.92V.37h.92v4Z"/><path class="cls-1" d="M499.57,9.46H481V8.6h18.57ZM489.41,7h-.93V1.65H482.3V.79h7.11Zm8.73,11.73H482.46V12h15.68Zm-.92-.86v-5H483.38v5ZM498.1,7h-.92V1.65h-6.45V.79h7.37Z"/><path class="cls-1" d="M514.91,3.43h-12.7V2.57h5.88V0H509V2.57h5.9ZM503.16,8.76c0-2.38,2.26-3.83,5.39-3.83s5.39,1.45,5.39,3.83-2.27,3.83-5.39,3.83S503.16,11.13,503.16,8.76Zm1.43,9.11H519.4v.85H503.66V14.1h.93Zm-.51-9.11c0,1.76,1.72,3,4.47,3s4.46-1.23,4.46-3-1.71-3-4.46-3S504.08,7,504.08,8.76Zm17.58-2.6V7h-3v7.5h-.92V.37h.92V6.16Z"/><path class="cls-1" d="M541.5,9.55c0,5.79-2.33,8.56-5.5,8.56s-5.5-2.77-5.5-8.56S532.83,1,536,1,541.5,3.76,541.5,9.55Zm-10,0c0,5.21,2,7.7,4.55,7.7s4.56-2.49,4.56-7.7-2-7.7-4.56-7.7S531.45,4.33,531.45,9.55Zm15.12,9.61h-1V.37h1Z"/><path class="cls-1" d="M562.21,17.84H552V1.25h10.26Zm-.93-.85V2.11h-8.4V17Zm6.43,2.17h-.93V.37h.93Z"/><path class="cls-1" d="M578.53,9.13l6.67,7.94-.73.55-6.18-7.45c-1.1,4.37-3.17,7.08-6,7.67V17c3.8-.9,5.87-7.08,5.94-14.85H572.7V1.25h12v.86h-5.48A36.66,36.66,0,0,1,578.53,9.13ZM588.87.37V19.16H588V.37Z"/><path class="cls-1" d="M611.55,10.28H593V9.44h18.57Zm-1.43,5.58H595.34v2.07h15.2v.82H594.43V15.07h14.79v-2H594.39v-.81h15.73Zm0-11.37H595.45V6.62h14.94v.82H594.54V3.67h14.64V1.61H594.54V.79h15.54Z"/><path class="cls-1" d="M638.88,13.49H630V19.6h-.93V13.49h-8.77v-.86h18.57Zm-18-3.43V9.18c4.49-.53,7.87-3.17,8.47-7.24h-7.92V1.08h16.32v.86h-7.48a8.37,8.37,0,0,1-.85,2.81l8.8,4.38-.49.79L629,5.52A11,11,0,0,1,620.88,10.06Z"/><path class="cls-1" d="M660,17.21v.85H641.47v-.85h7.72V7.94h.93v9.27ZM657.69,2.09H642.77V1.23h15.84V13.64h-.92Z"/><path class="cls-1" d="M669.06,9.15l6.58,7.92-.73.55-6.07-7.41c-1.08,4.33-3.1,7-5.9,7.63V17c3.81-.9,5.79-7.08,5.85-14.85h-5.47V1.25h11.79v.86h-5.39A36.64,36.64,0,0,1,669.06,9.15Zm13.07.31h-3v9.7h-.93V.37h.93V8.6h3Z"/><path class="cls-1" d="M699.66,3.48h-9.92V2.62h4.57V.11h.93V2.62h4.42Zm-9.11,4.77c0-2.16,1.85-3.45,4.25-3.45S699,6.09,699,8.25s-1.84,3.46-4.24,3.46S690.55,10.41,690.55,8.25Zm17.89,10.5-4.4-3a6.7,6.7,0,0,1-4.49,3l-3.72-2.79a6.94,6.94,0,0,1-4.44,2.79v-.85a6.32,6.32,0,0,0,4.84-5.28l.9.08a6.7,6.7,0,0,1-.84,2.53l3.5,2.62a6.23,6.23,0,0,0,4.49-5.23l.9.08a6.28,6.28,0,0,1-.7,2.31L709,18Zm-17-10.5c0,1.45,1.23,2.62,3.32,2.62s3.32-1.17,3.32-2.62-1.23-2.62-3.32-2.62S691.48,6.8,691.48,8.25ZM702.43,12h-.92V.51h.92V5.32h4.18V.37h.93V12.19h-.93v-6h-4.18Z"/><path class="cls-1" d="M729.69,9.11V10H711.12V9.11ZM711.94,7V6.16c3.65-.11,8.11-2.53,8.95-6.16l.9.15a6.6,6.6,0,0,1-1,2.45l8.12,3.71-.38.75L720.17,3.3A11.92,11.92,0,0,1,711.94,7Zm15.35,4.75h.93v7h-15.6v-7h.92v2.49h13.75Zm0,6.1V15.12H713.54v2.77Z"/><path class="cls-1" d="M734.51,17h6.69a12.45,12.45,0,0,0,4.86-.92v.88a12,12,0,0,1-4.86.92h-7.62V1.14h.93Zm14.83,2.2-1,0V.37h1Z"/><path class="cls-1" d="M761.94,17A12.39,12.39,0,0,0,766.8,16v.9a12.32,12.32,0,0,1-4.86.9h-7.39V1.25h10.78v.86h-9.86V17Zm11-7.53h-3v9.7h-.92V.37H770V8.6h3Z"/><path class="cls-1" d="M776.7,17.91a1,1,0,1,1-1-1A1,1,0,0,1,776.7,17.91Z"/><path class="cls-1" d="M5.61,44C2.09,44,0,42.05,0,39.35S2.09,34.7,5.61,34.7s5.61,1.94,5.61,4.65S9.13,44,5.61,44Zm0-.86c2.75,0,4.69-1.34,4.69-3.78s-1.94-3.79-4.69-3.79S.92,36.9.92,39.35,2.86,43.13,5.61,43.13ZM17,49.34C17,51.87,13.64,53,9.35,53s-7.63-1.12-7.63-3.65,3.34-3.66,7.63-3.66S17,46.81,17,49.34Zm-1,0c0-1.9-2.93-2.8-6.69-2.8s-6.69.9-6.69,2.8,2.93,2.79,6.69,2.79S16,51.23,16,49.34Zm-.13-8.1V37.39h-4l0-.82h4.07v-2.2h.92V44.8h-.92V42.05H11.84l0-.81Z"/><path class="cls-1" d="M39.34,44.47v.86H30.52v3.81h-.93V45.33H20.77v-.86ZM23.21,51.89H38.35v.86H22.29V47.38h.92Zm14.61-10H22.31V34.79H37.82Zm-.92-6.27H23.23v5.41H36.9Z"/><path class="cls-1" d="M60.5,45.46H41.93v-.85H60.5Zm-1.19-7.1c0,2.66-3.87,3.94-8.09,3.94s-8.1-1.28-8.1-3.94,3.87-3.94,8.1-3.94S59.31,35.69,59.31,38.36Zm-15,13.53H59.47v.86h-16V47.6h.92Zm-.28-13.53c0,2,3.49,3.08,7.15,3.08s7.15-1.06,7.15-3.08-3.5-3.08-7.15-3.08S44.07,36.33,44.07,38.36Z"/><path class="cls-1" d="M81.49,47.51H71.81l-2.16,5.06h-1l7.46-17.38H77.2l7.46,17.38h-1Zm-.4-.88L76.65,36.22,72.2,46.63Z"/><path class="cls-1" d="M86.13,46.41c0-3.65,2.53-6.47,6-6.47a5.6,5.6,0,0,1,5.31,3.26V34.66h.92V52.57h-.92v-3a5.6,5.6,0,0,1-5.31,3.26C88.66,52.88,86.13,50.06,86.13,46.41Zm11.31,0a5.29,5.29,0,0,0-5.26-5.61c-3.08,0-5.13,2.44-5.13,5.61S89.1,52,92.18,52A5.29,5.29,0,0,0,97.44,46.41Z"/><path class="cls-1" d="M102.28,46.41c0-3.65,2.53-6.47,6-6.47a5.58,5.58,0,0,1,5.3,3.26v-3h.93V52.57h-.93v-3a5.58,5.58,0,0,1-5.3,3.26C104.81,52.88,102.28,50.06,102.28,46.41Zm11.31,0a5.29,5.29,0,0,0-5.26-5.61c-3.08,0-5.13,2.44-5.13,5.61s2,5.61,5.13,5.61A5.29,5.29,0,0,0,113.59,46.41Z"/><path class="cls-1" d="M118.54,40.25h.92V43a4.69,4.69,0,0,1,4.44-3,4,4,0,0,1,4,3.5,4.84,4.84,0,0,1,4.71-3.5c2.36,0,4.18,2,4.18,4.82v7.81h-.92V44.91c0-2.53-1.39-4.11-3.45-4.11-2.4,0-4.27,2.51-4.27,5.19v6.58h-.93v-7.5c0-2.69-1.41-4.27-3.45-4.27-2.38,0-4.27,2.53-4.27,5.15v6.62h-.92Z"/><path class="cls-1" d="M140.62,55.23h-.81l.61-4.27h1Z"/><path class="cls-1" d="M160,43.44v3.81h7.35V53h-.92V48.1h-14.9v-.85H159V43.44h-8.83v-.86h18.58v.86Zm6.38-7.79H151.69v-.86h15.58V41.2h-.93Z"/><path class="cls-1" d="M190,44.47v.86h-8.82v3.81h-.93V45.33h-8.82v-.86Zm-16.13,7.42H189v.86H172.9V47.38h.92Zm14.61-10H172.92V34.79h15.51Zm-.92-6.27H173.84v5.41h13.67Z"/><path class="cls-1" d="M211.11,45.46H192.54v-.85h18.57Zm-1.19-7.1c0,2.66-3.87,3.94-8.09,3.94s-8.1-1.28-8.1-3.94,3.87-3.94,8.1-3.94S209.92,35.69,209.92,38.36ZM195,51.89h15.12v.86H194V47.6H195Zm-.28-13.53c0,2,3.49,3.08,7.15,3.08S209,40.38,209,38.36s-3.5-3.08-7.15-3.08S194.68,36.33,194.68,38.36Z"/><path class="cls-1" d="M237.45,40.8h-.95c-.73-3-3.85-5.15-7.55-5.15-4.73,0-8,3.45-8,8.23s3.28,8.23,8.1,8.23a7.35,7.35,0,0,0,7.72-7.26h-8.29V44h9.26v.57c0,5-3.85,8.38-8.78,8.38a8.67,8.67,0,0,1-9-9.06,8.68,8.68,0,0,1,9-9.07C233.29,34.81,236.63,37.41,237.45,40.8Z"/><path class="cls-1" d="M241.51,35.25h10.06V51.84H241.51ZM242.44,51h8.2V36.11h-8.2Zm17.47-7.53h-3v9.7H256V34.37h.93V42.6h3Z"/><path class="cls-1" d="M262.11,46v-.88c2.88,0,5.47-1.41,6.29-4.55h-6.29V39.7h6.46a8.86,8.86,0,0,0,.09-1.39V35.89h-6.55V35h7.5v3.28a8.86,8.86,0,0,1-.09,1.39h3.92V34.51h.94V44.87h-.94V40.56h-4.07C268.49,44.23,265.45,46,262.11,46Zm17.42,6.95L271,48.7a10.07,10.07,0,0,1-7.88,4v-.88c3.56-.06,7.53-2.42,8.34-6.53l.92.18a7.26,7.26,0,0,1-.92,2.48L280,52.13Zm-.37-5.08h-1V34.37h1Z"/><path class="cls-1" d="M289,45.29v-.88c4.05-.88,6.27-5.22,6.27-9.77l.92,0a13.7,13.7,0,0,1-.83,4.84l6.42,4.91-.59.73L295,40.43A8.48,8.48,0,0,1,289,45.29Zm2.33,6.58h14.81v.85H290.4V47.25h.92ZM308.4,39.24v.85h-3v8.28h-.92v-14h.92v4.87Z"/><path class="cls-1" d="M328.64,51.21v.85H310.06v-.85Zm-18.2-5.15v-.88c4.36,0,8.32-5.09,9.53-10.61l1,.24a18.24,18.24,0,0,1-1.56,4.34l8.52,6.27-.57.66L319,39.92C316.91,43.51,313.74,46.06,310.44,46.06Z"/><path class="cls-1" d="M349.8,51.21v.85H331.23v-.85H340V46.48h-7.31v-6h14.83V36.11H332.68v-.86h15.76v6H333.61v4.34h15.16v.86h-7.86v4.73Z"/><path class="cls-1" d="M365.62,42.89l6.49,8.36-.73.55-6-7.83c-1.16,4.55-3.32,7.46-6.33,7.87V51c4.35-.82,6.38-8.14,6.42-16.07l.92,0A39.41,39.41,0,0,1,365.62,42.89Zm10-8.52V53.16h-.92V34.37Z"/><path class="cls-1" d="M385.5,44.41h-5.76v-.86h7.06c3.26,0,5.81-.2,7.2-.79v.86c-1.21.55-3.94.79-7.29.79h-.28v3.87h-.93ZM381,38.14c0-2.23,2.22-3.52,5.39-3.52s5.39,1.29,5.39,3.52-2.22,3.52-5.39,3.52S381,40.36,381,38.14ZM397.6,51.87v.85h-16v-5.5h.93v4.65ZM382,38.14c0,1.78,1.94,2.68,4.47,2.68s4.46-.9,4.46-2.68-1.93-2.69-4.46-2.69S382,36.35,382,38.14Zm14,8.36V34.37h.92V49.18H396V47.33h-6.4V46.5Z"/><path class="cls-1" d="M407.88,37.83h5.63v.86H401.34v-.86H407v-3.5h.93Zm4.57,8.58c0,3.48-2.26,5.65-5,5.65s-5-2.17-5-5.65,2.26-5.65,5-5.65S412.45,42.93,412.45,46.41Zm-.94,0c0-2.95-1.89-4.8-4.09-4.8s-4.1,1.85-4.1,4.8,1.89,4.8,4.1,4.8S411.51,49.36,411.51,46.41Zm8.87-2.95h-3v9.7h-.92V34.37h.92V42.6h3Z"/><path class="cls-1" d="M433.11,44.76H423.06V35h10.05Zm6.69,7.11v.85H424V47h.92v4.84Zm-7.61-16H424v8h8.21Zm6.16,6.78h-4v-.86h4V37.92h-4v-.86h4V34.37h.92v14h-.92Z"/><path class="cls-1" d="M449.92,42.16l6.25,9.22-.73.55-5.74-8.62c-1.06,4.93-3.13,8.09-6.18,8.53V51c4.2-.82,6-8.14,6.05-16.07l.92,0A45,45,0,0,1,449.92,42.16Zm10.52-7.79V53.16h-.93V42.63H454v-.86h5.54v-7.4Z"/><path class="cls-1" d="M482.94,51.21v.85H464.37v-.85h8.78V45.46H465.8V35.25h15.76v.86H466.73v8.5h15v.85h-7.7v5.75Z"/><path class="cls-1" d="M497.57,45.35c-3.63,0-5.68-2.37-5.68-5.32s2.05-5.33,5.68-5.33,5.68,2.38,5.68,5.33S501.2,45.35,497.57,45.35Zm0-.81c2.86,0,4.73-1.8,4.73-4.51s-1.87-4.51-4.73-4.51-4.73,1.8-4.73,4.51S494.71,44.54,497.57,44.54Zm-3.24,7.33h14.59v.85H493.41V46.94h.92Zm16.86-12.44v.86h-3v8.08h-.93v-14h.93v5.06Z"/><path class="cls-1" d="M513.28,44.19v-.88c3.61-.66,5.83-3.22,6-7.37H513.5v-.86h12v.86h-5.3a10.89,10.89,0,0,1-.55,3.05l6.42,4.32-.53.72-6.24-4.18A7.73,7.73,0,0,1,513.28,44.19Zm17,5.23c0,2.51-3.39,3.57-7.74,3.57s-7.75-1.06-7.75-3.57,3.39-3.56,7.75-3.56S530.24,46.92,530.24,49.42Zm-1,0c0-1.82-3-2.7-6.79-2.7s-6.8.88-6.8,2.7,3,2.71,6.8,2.71S529.29,51.25,529.29,49.42Zm-.13-11V34.37h.93V45h-.93v-5.7h-4.55v-.84Z"/><path class="cls-1" d="M534.44,45.07v-.88c3.65-.66,5.88-3.54,6-8.25h-5.79v-.86h12v.86h-5.3a13.51,13.51,0,0,1-.57,3.6l6.29,4.65-.53.72-6.09-4.51A7.7,7.7,0,0,1,534.44,45.07Zm1.26,2.11h15.53V53h-.93V48H535.7Zm15.53-12.81V45.86h-.93V39.92h-4.53v-.84h4.53V34.37Z"/><path class="cls-1" d="M567.2,43.55c0,5.79-2.33,8.56-5.5,8.56s-5.5-2.77-5.5-8.56S558.53,35,561.7,35,567.2,37.76,567.2,43.55Zm-10.05,0c0,5.21,2,7.7,4.55,7.7s4.55-2.49,4.55-7.7-2-7.7-4.55-7.7S557.15,38.33,557.15,43.55Zm15.11,9.61h-.94V34.37h.94Z"/><path class="cls-1" d="M594.92,51.21v.85H576.35v-.85h7.72V41.94H585v9.27Zm-2.35-15.12H577.65v-.86h15.84V47.64h-.92Z"/><path class="cls-1" d="M604,35.25h4.15v4c0,5.68-.5,11.33-4.15,11.82v-.88c2.79-.44,3.25-5.61,3.25-10.85V36.11H604Zm5.32,0h4v4.4c0,6.56-.77,11.62-4.55,12.11V50.9c3-.44,3.65-5,3.65-11.16V36.11h-3.06Zm12-.88V53.16h-.9V43.33h-3.69v9.5h-.91V34.51h.91v8h3.69V34.37Z"/><path class="cls-1" d="M643.41,43v.86H624.84V43Zm-9.2,5.28,8.41,3.92-.42.74-8.45-4a10.18,10.18,0,0,1-7.88,3.74v-.88c3.72,0,7.62-2.42,8.32-6.09l.95.13A7.06,7.06,0,0,1,634.21,48.28Zm-1.89-12.63h-6.21v-.86h7.13v6.58h-.92Zm8.69,0h-6.45v-.86h7.37v6.58H641Z"/><path class="cls-1" d="M658.74,37.43H646v-.86h5.88V34h.92v2.53h5.9ZM647,42.76c0-2.38,2.27-3.83,5.39-3.83s5.39,1.45,5.39,3.83-2.26,3.83-5.39,3.83S647,45.13,647,42.76Zm1.43,9.11h14.81v.85H647.5V48.1h.92Zm-.5-9.11c0,1.76,1.71,3,4.46,3s4.47-1.23,4.47-3-1.72-3-4.47-3S647.92,41,647.92,42.76Zm17.58-2.6V41h-3v7.5h-.93V34.37h.93v5.79Z"/><path class="cls-1" d="M691.9,52.06H673.33v-.85H691.9Zm-16.2-7.45h14.72v.88H674.76V34.92h.94Z"/><path class="cls-1" d="M700.43,36.88c0,4-2.46,6.6-5.32,6.6v-.85c2.28,0,4.4-2.1,4.4-5.73v-1h-4.4V35h5.32Zm11.22,15.84H696.29V46h15.36Zm-.92-.85V46.81H697.22v5.06ZM707.21,37c0,4.62-3.1,6.88-5.79,6.88v-.85c2.09,0,4.86-1.74,4.86-6V35.89h-4.79V35h5.72Zm4.44,7.59h-.92V34.37h.92Z"/><path class="cls-1" d="M734.22,43.59H715.65v-.83h18.57ZM733,37.78c0,2.4-3.81,3.28-8,3.28s-8-.88-8-3.28,3.8-3.27,8-3.27S733,35.39,733,37.78Zm-.18,11.89H718v2.24h15.18v.84H717.1v-3.9h14.77V46.67H717.06v-.83h15.73ZM717.85,37.78c0,1.79,3.44,2.45,7.09,2.45s7.08-.66,7.08-2.45-3.43-2.44-7.08-2.44S717.85,36,717.85,37.78Z"/><path class="cls-1" d="M743.39,45.46v-.88c3.66-.66,5.88-3.72,6-8.64h-5.78v-.86h12v.86h-5.3a14.75,14.75,0,0,1-.55,3.69l6.2,4.95-.53.73-6-4.8A7.68,7.68,0,0,1,743.39,45.46Zm17.34,6.41v.85H744.89V47.25h.93v4.62Zm-1.45-12.68V34.37h.93v14h-.93V40h-4.55v-.84Z"/><path class="cls-1" d="M771.14,37.83h5.63v.86H764.6v-.86h5.61v-3.5h.93Zm4.57,8.58c0,3.48-2.26,5.65-5,5.65s-5-2.17-5-5.65,2.26-5.65,5-5.65S775.71,42.93,775.71,46.41Zm-.94,0c0-2.95-1.89-4.8-4.09-4.8s-4.1,1.85-4.1,4.8,1.9,4.8,4.1,4.8S774.77,49.36,774.77,46.41Zm8.87-2.95h-3v9.7h-.93V34.37h.93V42.6h3Z"/><path class="cls-1" d="M803.88,51.21v.85H785.3v-.85H793V41.94H794v9.27Zm-2.36-15.12H786.6v-.86h15.84V47.64h-.92Z"/><path class="cls-1" d="M812.89,43.15l6.58,7.92-.72.55-6.08-7.41c-1.08,4.33-3.1,7-5.89,7.63V51c3.8-.9,5.78-7.08,5.85-14.85h-5.48v-.86h11.79v.86h-5.39A36.64,36.64,0,0,1,812.89,43.15Zm13.07.31h-3v9.7h-.92V34.37H823V42.6h3Z"/><path class="cls-1" d="M843.5,37.48h-9.93v-.86h4.58V34.11h.92v2.51h4.43Zm-9.11,4.77c0-2.16,1.84-3.45,4.24-3.45s4.25,1.29,4.25,3.45-1.85,3.46-4.25,3.46S834.39,44.41,834.39,42.25Zm17.89,10.5-4.41-3a6.66,6.66,0,0,1-4.48,3l-3.72-2.79a7,7,0,0,1-4.45,2.79v-.85a6.3,6.3,0,0,0,4.84-5.28l.91.08a6.7,6.7,0,0,1-.84,2.53l3.5,2.62a6.26,6.26,0,0,0,4.49-5.23l.9.08a6.29,6.29,0,0,1-.71,2.31l4.49,3Zm-17-10.5c0,1.45,1.23,2.62,3.32,2.62S842,43.7,842,42.25s-1.24-2.62-3.33-2.62S835.31,40.8,835.31,42.25Zm11,3.7h-.93V34.51h.93v4.81h4.18v-5h.92V46.19h-.92v-6h-4.18Z"/><path class="cls-1" d="M873.53,43.11V44H855v-.86ZM855.77,41v-.88c3.65-.11,8.12-2.53,9-6.16l.91.15a6.62,6.62,0,0,1-1.06,2.45l8.12,3.71-.37.75L864,37.3A11.9,11.9,0,0,1,855.77,41Zm15.36,4.75h.92v7h-15.6v-7h.93v2.49h13.75Zm0,6.1V49.12H857.38v2.77Z"/><path class="cls-1" d="M878.34,51H885a12.41,12.41,0,0,0,4.86-.92v.88a12,12,0,0,1-4.86.92h-7.61V35.14h.92Zm14.83,2.2-.94,0V34.37h.94Z"/><path class="cls-1" d="M905.78,51a12.39,12.39,0,0,0,4.86-1v.9a12.36,12.36,0,0,1-4.86.9h-7.4V35.25h10.79v.86h-9.86V51Zm11-7.53h-3v9.7h-.93V34.37h.93V42.6h3Z"/><path class="cls-1" d="M920.54,51.91a1,1,0,1,1-1-1A1,1,0,0,1,920.54,51.91Z"/></g></g></svg>