<svg xmlns="http://www.w3.org/2000/svg" viewBox="0 0 308.24 175.18"><defs><style>.cls-1{fill:#fff;}</style></defs><g id="레이어_2" data-name="레이어 2"><g id="레이어_1-2" data-name="레이어 1"><path class="cls-1" d="M12.07,95.49h1v1.92H7.77V111.8H5.85V97.41H.55V95.49H12.07Z"/><path class="cls-1" d="M20,100.28a4.16,4.16,0,0,1,2.85,1.11,4.82,4.82,0,0,1,1.71,3.86v5.59l0,1h-1.9l0-1,0-5.62a3.41,3.41,0,0,0-.46-1.72A2.45,2.45,0,0,0,20,102.2a2.36,2.36,0,0,0-1.49.53,3,3,0,0,0-1.15,2.52v6.55H15.43V96.06h1.92v5.14A4.43,4.43,0,0,1,20,100.28Z"/><path class="cls-1" d="M37.17,109.55a5.3,5.3,0,0,1-4.46,2.25,5,5,0,0,1-3.46-1.39,5.68,5.68,0,0,1-1.82-4.36,5.92,5.92,0,0,1,1.36-3.89,4.94,4.94,0,0,1,3.92-1.88,4.88,4.88,0,0,1,3.43,1.4A5.67,5.67,0,0,1,38,106.05v1H29.44a4.2,4.2,0,0,0,.58,1.34,3.09,3.09,0,0,0,2.69,1.54,3.54,3.54,0,0,0,2.92-1.49Zm-1.1-4.47a2.54,2.54,0,0,0-.65-1.51,3.42,3.42,0,0,0-2.71-1.37,3,3,0,0,0-1.42.36,3.57,3.57,0,0,0-1.85,2.52Z"/><path class="cls-1" d="M53.54,95h2.23l-.89,1.46c-.37.61-.69,1.17-1,1.7a17.12,17.12,0,0,0-1.78,7.63,15.16,15.16,0,0,0,2.69,9.27L56,116.6h-2.4l-.28-.38a16.89,16.89,0,0,1-3.08-10.42,21.87,21.87,0,0,1,.39-4,19.09,19.09,0,0,1,2.64-6.38Z"/><path class="cls-1" d="M70.34,110.58l.38,1.22h-2l-.2-.69a32.43,32.43,0,0,0-1.44-4,6.74,6.74,0,0,0-1.94-2.5H60.3v7.2H58.38v-8.16l0-7.17v-1h1l6.07,0a5,5,0,0,1,3.27,1.15,4.26,4.26,0,0,1,1.67,3.43,4.16,4.16,0,0,1-.28,1.51,4.54,4.54,0,0,1-2.57,2.62C68.46,105.29,69.39,107.41,70.34,110.58Zm-8-7.9h3.07a3.29,3.29,0,0,0,1.66-.43,2.38,2.38,0,0,0,1.34-2.18,2.45,2.45,0,0,0-.52-1.51,3,3,0,0,0-2.5-1.15H60.3v5.3h2.12Z"/><path class="cls-1" d="M82.53,109.55a5.3,5.3,0,0,1-4.47,2.25,5,5,0,0,1-3.45-1.39,5.69,5.69,0,0,1-1.83-4.36,5.92,5.92,0,0,1,1.37-3.89,5,5,0,0,1,7.35-.48,5.67,5.67,0,0,1,1.84,4.37v1H74.8a4,4,0,0,0,.58,1.34,3.08,3.08,0,0,0,2.68,1.54A3.56,3.56,0,0,0,81,108.4Zm-1.11-4.47a2.52,2.52,0,0,0-.64-1.51,3.44,3.44,0,0,0-2.72-1.37,3,3,0,0,0-1.41.36,3.57,3.57,0,0,0-1.85,2.52Z"/><path class="cls-1" d="M84.81,100.28h2.06l.24.61,3,7.36L93,100.89l.24-.61h2.06l-.53,1.32L91,111.2l-.24.6h-1.3l-.24-.6-3.86-9.6Z"/><path class="cls-1" d="M98.2,102.13a4.94,4.94,0,0,1,7.3-.45,5.67,5.67,0,0,1,1.84,4.37,5.86,5.86,0,0,1-1.41,3.91,5,5,0,0,1-7.3.45,5.67,5.67,0,0,1-1.85-4.36A5.87,5.87,0,0,1,98.2,102.13Zm1.2,6.24a3.07,3.07,0,0,0,2.66,1.52,3,3,0,0,0,2-.77,3.88,3.88,0,0,0,1.34-3.07,4.16,4.16,0,0,0-.69-2.33,3.08,3.08,0,0,0-2.67-1.52,3,3,0,0,0-2,.77,3.9,3.9,0,0,0-1.35,3.08A4.16,4.16,0,0,0,99.4,108.37Z"/><path class="cls-1" d="M110.22,94.53h1.92V111.8h-1.92V94.53Z"/><path class="cls-1" d="M114.4,100.31h1.94l0,1,0,6.14a2.29,2.29,0,0,0,.45,1.37,2.71,2.71,0,0,0,2.28,1.11,2.91,2.91,0,0,0,1.49-.41,2.31,2.31,0,0,0,1.22-2.07v-6.17l0-.93h1.94l0,1,0,6.14a4.14,4.14,0,0,1-1,2.74A4.49,4.49,0,0,1,119,111.8a4.69,4.69,0,0,1-3-1,4.12,4.12,0,0,1-1.65-3.36v-6.17Z"/><path class="cls-1" d="M129.11,108.42c0,.94.6,1.43,1.75,1.47h1v1.91h-1a5.26,5.26,0,0,1-1.27-.14,2.92,2.92,0,0,1-2.4-3.21V102.2h-1.61v-1.92h1.61V97.76l0-.93h1.94l0,1v2.49h2.68v1.92h-2.68Z"/><path class="cls-1" d="M133.86,98.82V96.9h1.95v1.92h-1.95Zm0,1.46h1.92V111.8h-1.92V100.28Z"/><path class="cls-1" d="M139.48,102.13a4.93,4.93,0,0,1,7.29-.45,5.64,5.64,0,0,1,1.85,4.37,5.86,5.86,0,0,1-1.41,3.91,5,5,0,0,1-7.3.45,5.67,5.67,0,0,1-1.85-4.36A5.82,5.82,0,0,1,139.48,102.13Zm1.2,6.24a3.07,3.07,0,0,0,2.66,1.52,3,3,0,0,0,2-.77,3.91,3.91,0,0,0,1.34-3.07,4.16,4.16,0,0,0-.69-2.33,3.09,3.09,0,0,0-2.67-1.52,3,3,0,0,0-2,.77,3.9,3.9,0,0,0-1.35,3.08A4.08,4.08,0,0,0,140.68,108.37Z"/><path class="cls-1" d="M160.65,111.83h-1.9l0-1,0-5.62a3.4,3.4,0,0,0-.45-1.72,2.46,2.46,0,0,0-2.19-1.33,2.34,2.34,0,0,0-1.48.53,3,3,0,0,0-1.16,2.52v6.55H151.5V100.28h1.92v.92a4.47,4.47,0,0,1,2.64-.92,4.18,4.18,0,0,1,2.86,1.11,4.84,4.84,0,0,1,1.7,3.86v5.59Z"/><path class="cls-1" d="M162.76,95H165l.29.45a19.76,19.76,0,0,1,3,10.34,17.2,17.2,0,0,1-.19,2.57,19.31,19.31,0,0,1-2.83,7.8l-.29.43h-2.3l1-1.48c.19-.29.37-.6.55-.94a17.23,17.23,0,0,0,2.18-8.38,18.24,18.24,0,0,0-2.73-9.33Z"/><path class="cls-1" d="M182,102.13a4.93,4.93,0,0,1,7.29-.45,5.64,5.64,0,0,1,1.85,4.37,5.86,5.86,0,0,1-1.41,3.91,5,5,0,0,1-7.3.45,5.67,5.67,0,0,1-1.85-4.36A5.82,5.82,0,0,1,182,102.13Zm1.2,6.24a3.07,3.07,0,0,0,2.66,1.52,3,3,0,0,0,2-.77,3.91,3.91,0,0,0,1.34-3.07,4.16,4.16,0,0,0-.69-2.33,3.09,3.09,0,0,0-2.67-1.52,3,3,0,0,0-2,.77,3.9,3.9,0,0,0-1.35,3.08A4.08,4.08,0,0,0,183.16,108.37Z"/><path class="cls-1" d="M197.82,100.28h1v1.92h-2.73v9.6h-1.92v-9.6h-1.59v-1.92h1.61a11.84,11.84,0,0,1,.29-2c.53-2.19,1.65-3.29,3.38-3.29h1V96.9h-1c-1,0-1.57,1.15-1.73,3.38Z"/><path class="cls-1" d="M213.59,108.42c0,.94.6,1.43,1.75,1.47h1v1.91h-1a5.21,5.21,0,0,1-1.27-.14,2.92,2.92,0,0,1-2.4-3.21V102.2h-1.61v-1.92h1.61V97.76l0-.93h1.95l0,1v2.49h2.69v1.92h-2.69Z"/><path class="cls-1" d="M223.26,100.28a4.18,4.18,0,0,1,2.86,1.11,4.84,4.84,0,0,1,1.7,3.86v5.59l0,1H226l0-1,0-5.62a3.4,3.4,0,0,0-.45-1.72,2.46,2.46,0,0,0-2.19-1.33,2.38,2.38,0,0,0-1.49.53,3.06,3.06,0,0,0-1.15,2.52v6.55H218.7V96.06h1.92v5.14A4.45,4.45,0,0,1,223.26,100.28Z"/><path class="cls-1" d="M240.45,109.55A5.3,5.3,0,0,1,236,111.8a4.93,4.93,0,0,1-3.45-1.39,5.69,5.69,0,0,1-1.83-4.36,5.92,5.92,0,0,1,1.37-3.89,4.92,4.92,0,0,1,3.91-1.88,4.86,4.86,0,0,1,3.43,1.4,5.64,5.64,0,0,1,1.85,4.37v1h-8.54a4.17,4.17,0,0,0,.57,1.34,3.11,3.11,0,0,0,2.69,1.54,3.56,3.56,0,0,0,2.93-1.49Zm-1.11-4.47a2.54,2.54,0,0,0-.65-1.51A3.4,3.4,0,0,0,236,102.2a2.9,2.9,0,0,0-1.41.36,3.55,3.55,0,0,0-1.85,2.52Z"/><path class="cls-1" d="M256.86,111.8h-1.92V95.49h1.58l.25.57,5.61,12.43L268,96.06l.24-.57h1.59v1l0,14.39v1H267.9v-1l0-9.93-4.63,10.32-.25.57h-1.24l-.24-.57-4.66-10.32V111.8Z"/><path class="cls-1" d="M274.6,102.13a4.93,4.93,0,0,1,7.29-.45,5.67,5.67,0,0,1,1.85,4.37,5.81,5.81,0,0,1-1.42,3.91,4.95,4.95,0,0,1-7.29.45,5.67,5.67,0,0,1-1.85-4.36A5.82,5.82,0,0,1,274.6,102.13Zm1.2,6.24a3.07,3.07,0,0,0,2.66,1.52,3,3,0,0,0,2-.77,3.91,3.91,0,0,0,1.34-3.07,4.09,4.09,0,0,0-.7-2.33,3.07,3.07,0,0,0-2.66-1.52,3,3,0,0,0-2,.77,3.92,3.92,0,0,0-1.34,3.08A4.08,4.08,0,0,0,275.8,108.37Z"/><path class="cls-1" d="M287.08,102.13a4.93,4.93,0,0,1,7.29-.45,5.67,5.67,0,0,1,1.85,4.37A5.81,5.81,0,0,1,294.8,110a4.95,4.95,0,0,1-7.29.45,5.67,5.67,0,0,1-1.85-4.36A5.82,5.82,0,0,1,287.08,102.13Zm1.2,6.24a3.07,3.07,0,0,0,2.66,1.52,3,3,0,0,0,2-.77,3.91,3.91,0,0,0,1.34-3.07,4.09,4.09,0,0,0-.7-2.33,3.07,3.07,0,0,0-2.66-1.52,3,3,0,0,0-2,.77,3.92,3.92,0,0,0-1.34,3.08A4.08,4.08,0,0,0,288.28,108.37Z"/><path class="cls-1" d="M308.24,111.83h-1.89l0-1,0-5.62a3.31,3.31,0,0,0-.46-1.72,2.43,2.43,0,0,0-2.18-1.33,2.38,2.38,0,0,0-1.49.53,3,3,0,0,0-1.15,2.52v6.55H299.1V100.28H301v.92a4.43,4.43,0,0,1,2.64-.92,4.2,4.2,0,0,1,2.86,1.11,4.84,4.84,0,0,1,1.7,3.86v5.59Z"/><path class="cls-1" d="M12.55,124.77H13v1H7.29v15.36h-1V125.73H.55v-1h12Z"/><path class="cls-1" d="M16.53,131.28A4.24,4.24,0,0,1,20,129.57a4.34,4.34,0,0,1,2.9,1.11,4.81,4.81,0,0,1,1.66,3.77v6.16l0,.51h-.94l0-.48,0-6.19a4,4,0,0,0-.75-2.38A3.34,3.34,0,0,0,20,130.53a3.47,3.47,0,0,0-2.19.79,3.88,3.88,0,0,0-1.41,3.13v6.64h-1V125.83h1v5.62A1,1,0,0,1,16.53,131.28Z"/><path class="cls-1" d="M37.27,138.79a5.46,5.46,0,0,1-4.56,2.3,5,5,0,0,1-3.46-1.39,5.74,5.74,0,0,1-1.82-4.37,5.87,5.87,0,0,1,1.36-3.86,4.89,4.89,0,0,1,3.92-1.9A5,5,0,0,1,36.19,131a5.76,5.76,0,0,1,1.8,4.34v.48H28.41a5.44,5.44,0,0,0,1,2.6,4,4,0,0,0,3.34,1.72,4.56,4.56,0,0,0,3.79-1.92ZM37,134.85a4.23,4.23,0,0,0-1-2.69,4.16,4.16,0,0,0-3.31-1.63,4.08,4.08,0,0,0-2.48.84,4.76,4.76,0,0,0-1.82,3.48Z"/><path class="cls-1" d="M54.3,124.29h1.23l-.6.77a26.76,26.76,0,0,0-1.61,2.26,15,15,0,0,0-2.14,7.77,14.26,14.26,0,0,0,3.72,10l.75.81H54.33l-.15-.14-.19-.22a15.17,15.17,0,0,1-3.77-10.44,17.3,17.3,0,0,1,.63-4.58,18.12,18.12,0,0,1,3.31-6Z"/><path class="cls-1" d="M67.38,133.84c1,1.13,2,3.33,3,6.63l.19.62h-1l-.09-.33a29.43,29.43,0,0,0-2-5,7.12,7.12,0,0,0-2.06-2.31h-6.1v7.68h-1v-8.16l0-7.65v-.48h.48l6.67,0a5.17,5.17,0,0,1,3.15,1,4.09,4.09,0,0,1,1.67,3.32,4,4,0,0,1-.52,2,4.63,4.63,0,0,1-3.08,2.18A8.08,8.08,0,0,1,67.38,133.84Zm-1.8-1.39a4.23,4.23,0,0,0,2.36-.69,3.08,3.08,0,0,0,.72-4.66,3.85,3.85,0,0,0-3.1-1.37H59.34v6.75h2.89l0,0h3.33Z"/><path class="cls-1" d="M82.62,138.79a5.44,5.44,0,0,1-4.56,2.3,5,5,0,0,1-3.45-1.39,5.75,5.75,0,0,1-1.83-4.37,5.88,5.88,0,0,1,1.37-3.86,4.88,4.88,0,0,1,3.91-1.9A4.94,4.94,0,0,1,81.54,131a5.76,5.76,0,0,1,1.8,4.34v.48H73.77a5.24,5.24,0,0,0,1,2.6,4,4,0,0,0,3.33,1.72,4.57,4.57,0,0,0,3.8-1.92Zm-.24-3.94a4.22,4.22,0,0,0-1-2.69,4.16,4.16,0,0,0-3.32-1.63,4.05,4.05,0,0,0-2.47.84,4.73,4.73,0,0,0-1.82,3.48Z"/><path class="cls-1" d="M85,129.57h1l.12.29,3.91,9.48,3.84-9.48.14-.29h1l-.26.67-4.3,10.56-.14.29h-.62l-.12-.29-4.35-10.56Z"/><path class="cls-1" d="M98.18,131.42a5,5,0,0,1,7.36-.43,5.76,5.76,0,0,1,1.8,4.34,5.91,5.91,0,0,1-1.39,3.91,4.9,4.9,0,0,1-3.89,1.85,5,5,0,0,1-3.48-1.41,5.77,5.77,0,0,1-1.8-4.35A5.94,5.94,0,0,1,98.18,131.42Zm.57,7a4,4,0,0,0,6,.62,4.78,4.78,0,0,0,1.58-3.72,5.08,5.08,0,0,0-1-3.09,4,4,0,0,0-6-.63,4.79,4.79,0,0,0-1.59,3.72A5.09,5.09,0,0,0,98.75,138.43Z"/><path class="cls-1" d="M110.22,124.29h1v16.8h-1v-16.8Z"/><path class="cls-1" d="M114.4,129.6h1l0,.48,0,6.74a3.05,3.05,0,0,0,.72,2,3.67,3.67,0,0,0,3,1.34,3.82,3.82,0,0,0,2.21-.67,3,3,0,0,0,1.46-2.64v-6.77l0-.45h1l0,.48,0,6.74a4,4,0,0,1-1,2.67,4.58,4.58,0,0,1-3.63,1.6,4.76,4.76,0,0,1-3-1,4,4,0,0,1-1.63-3.24v-6.77Z"/><path class="cls-1" d="M128.49,138v.21c.13,1.32,1.08,2,2.85,2h.48v1h-.48a6.45,6.45,0,0,1-.76,0q-3-.31-3.05-3.1v-7.42h-2v-1h2v-3h1v3h3.33v1h-3.33Z"/><path class="cls-1" d="M134.34,127.63v-1h1v1h-1Zm0,1.94h1v11.52h-1V129.57Z"/><path class="cls-1" d="M139.46,131.42a5,5,0,0,1,7.36-.43,5.76,5.76,0,0,1,1.8,4.34,5.91,5.91,0,0,1-1.39,3.91,5,5,0,0,1-7.37.44,5.77,5.77,0,0,1-1.8-4.35A5.94,5.94,0,0,1,139.46,131.42Zm.57,7a4,4,0,0,0,6.05.62,4.78,4.78,0,0,0,1.58-3.72,5,5,0,0,0-1-3.09,4,4,0,0,0-6-.63,4.79,4.79,0,0,0-1.59,3.72A5.09,5.09,0,0,0,140,138.43Z"/><path class="cls-1" d="M160.65,141.12h-.94l0-.48,0-6.19a4.07,4.07,0,0,0-.74-2.38,3.35,3.35,0,0,0-2.86-1.54,3.42,3.42,0,0,0-2.18.79,3.86,3.86,0,0,0-1.42,3.13v6.64h-1V129.57h1v1.88a1.07,1.07,0,0,1,.15-.17,4.23,4.23,0,0,1,3.45-1.71,4.38,4.38,0,0,1,2.91,1.11,4.8,4.8,0,0,1,1.65,3.77v6.16Z"/><path class="cls-1" d="M163,124.29h1.22l.15.2.19.26a16.78,16.78,0,0,1,3.74,10.34,14.72,14.72,0,0,1-.36,3.19,17.39,17.39,0,0,1-3.57,7.44l-.15.17H163l.63-.79a14,14,0,0,0,1-1.32,15.55,15.55,0,0,0,2.78-8.69v-.45a16,16,0,0,0-3.74-9.58Z"/><path class="cls-1" d="M181.93,131.42a5,5,0,0,1,7.37-.43,5.76,5.76,0,0,1,1.8,4.34,5.91,5.91,0,0,1-1.39,3.91,5,5,0,0,1-7.37.44,5.77,5.77,0,0,1-1.8-4.35A6,6,0,0,1,181.93,131.42Zm.58,7a4,4,0,0,0,6.05.62,4.81,4.81,0,0,0,1.58-3.72,5,5,0,0,0-1-3.09,4,4,0,0,0-6-.63,4.79,4.79,0,0,0-1.59,3.72A5.09,5.09,0,0,0,182.51,138.43Z"/><path class="cls-1" d="M198.3,129.57h.48v1h-3.36v10.56h-1V130.53h-1.92v-1h2a8.07,8.07,0,0,1,.45-2.4,3.39,3.39,0,0,1,3.36-2.42h.48v1h-.48a2.53,2.53,0,0,0-.91.17c-1.17.44-1.82,1.68-1.94,3.69Z"/><path class="cls-1" d="M213,138v.21c.12,1.32,1.08,2,2.85,2h.48v1h-.48a6.74,6.74,0,0,1-.77,0c-2-.21-3-1.24-3-3.1v-7.42h-1.95v-1H212v-3h1v3h3.33v1H213Z"/><path class="cls-1" d="M219.81,131.28a4.23,4.23,0,0,1,3.45-1.71,4.38,4.38,0,0,1,2.91,1.11,4.8,4.8,0,0,1,1.65,3.77v6.16l0,.51h-.94l0-.48,0-6.19a4.07,4.07,0,0,0-.74-2.38,3.35,3.35,0,0,0-2.86-1.54,3.42,3.42,0,0,0-2.18.79,3.86,3.86,0,0,0-1.42,3.13v6.64h-1V125.83h1v5.62A.73.73,0,0,1,219.81,131.28Z"/><path class="cls-1" d="M240.54,138.79a5.44,5.44,0,0,1-4.56,2.3,4.93,4.93,0,0,1-3.45-1.39,5.75,5.75,0,0,1-1.83-4.37,5.88,5.88,0,0,1,1.37-3.86,4.87,4.87,0,0,1,3.91-1.9,5,5,0,0,1,3.48,1.42,5.76,5.76,0,0,1,1.8,4.34v.48h-9.57a5.24,5.24,0,0,0,1,2.6,4,4,0,0,0,3.33,1.72,4.55,4.55,0,0,0,3.79-1.92Zm-.24-3.94a4.46,4.46,0,0,0-4.32-4.32,4,4,0,0,0-2.47.84,4.7,4.7,0,0,0-1.82,3.48Z"/><path class="cls-1" d="M255.9,141.09h-1V124.77h.79l.12.29,6.53,14.38,6.51-14.38.11-.29h.8v.48l0,15.36v.48h-1v-.48l0-13.12-6,13.31-.12.29h-.62l-.12-.29-6-13.31v13.6Z"/><path class="cls-1" d="M274.57,131.42a5,5,0,0,1,7.37-.43,5.76,5.76,0,0,1,1.8,4.34,5.91,5.91,0,0,1-1.39,3.91,5,5,0,0,1-7.37.44,5.77,5.77,0,0,1-1.8-4.35A5.93,5.93,0,0,1,274.57,131.42Zm.58,7a4,4,0,0,0,6.05.62,4.81,4.81,0,0,0,1.58-3.72,5.09,5.09,0,0,0-1-3.09,4,4,0,0,0-6-.63,4.81,4.81,0,0,0-1.58,3.72A5.09,5.09,0,0,0,275.15,138.43Z"/><path class="cls-1" d="M287.05,131.42a5,5,0,0,1,7.37-.43,5.76,5.76,0,0,1,1.8,4.34,5.91,5.91,0,0,1-1.39,3.91,5,5,0,0,1-7.37.44,5.77,5.77,0,0,1-1.8-4.35A5.93,5.93,0,0,1,287.05,131.42Zm.58,7a4,4,0,0,0,6.05.62,4.81,4.81,0,0,0,1.58-3.72,5.09,5.09,0,0,0-1-3.09,4,4,0,0,0-6.05-.63,4.81,4.81,0,0,0-1.58,3.72A5.09,5.09,0,0,0,287.63,138.43Z"/><path class="cls-1" d="M308.24,141.12h-.93l0-.48,0-6.19a4.07,4.07,0,0,0-.74-2.38,3.36,3.36,0,0,0-2.86-1.54,3.42,3.42,0,0,0-2.18.79,3.86,3.86,0,0,0-1.42,3.13v6.64h-1V129.57h1v1.88a1,1,0,0,1,.14-.17,4.27,4.27,0,0,1,3.46-1.71,4.34,4.34,0,0,1,2.9,1.11,4.77,4.77,0,0,1,1.66,3.77v6.16Z"/><path class="cls-1" d="M12.79,154.06H13v.48h-6v15.84H6.57V154.54h-6v-.48H12.79Z"/><path class="cls-1" d="M16.51,160.57a4.37,4.37,0,0,1,6.4-.58,4.71,4.71,0,0,1,1.64,3.7v6.45l0,.27h-.46l0-.24,0-6.48a4.48,4.48,0,0,0-.89-2.72A3.83,3.83,0,0,0,20,159.34a3.78,3.78,0,0,0-2.57,1,4.29,4.29,0,0,0-1.51,3.39v6.69h-.48v-15h.48v6.17A4.4,4.4,0,0,1,16.51,160.57Z"/><path class="cls-1" d="M37.31,168.05a5.38,5.38,0,0,1-4.6,2.33A4.89,4.89,0,0,1,29.25,169a5.74,5.74,0,0,1-1.82-4.37,5.82,5.82,0,0,1,1.36-3.86,4.86,4.86,0,0,1,3.92-1.9,5,5,0,0,1,3.45,1.39A5.77,5.77,0,0,1,38,164.62v.24H27.91a5.62,5.62,0,0,0,1.15,3.22,4.46,4.46,0,0,0,3.65,1.82,5.07,5.07,0,0,0,4.22-2.14Zm.2-3.67a5.17,5.17,0,0,0-1.18-3.29,4.56,4.56,0,0,0-3.62-1.75,4.47,4.47,0,0,0-3,1.13,5.19,5.19,0,0,0-1.82,3.91Z"/><path class="cls-1" d="M54.86,153.58h.31l-.17.19a24.38,24.38,0,0,0-2.16,2.67,14,14,0,0,0-2.38,7.94,17.7,17.7,0,0,0,.1,1.78A13.72,13.72,0,0,0,55,175l.24.21h-.36l0,0-.57-.55a14.16,14.16,0,0,1-4-10.23,15.3,15.3,0,0,1,.82-5,18.33,18.33,0,0,1,3.77-5.76Z"/><path class="cls-1" d="M67.34,163.37q1.48,1.71,3,6.7l.1.31H70l-.08-.17a27.49,27.49,0,0,0-2.2-5.54,7.56,7.56,0,0,0-2.16-2.21H58.86v7.92h-.48v-7.94l0-.24v-7.88c0-.12.09-.2.24-.23l7,0a5.05,5.05,0,0,1,3.1,1,3.89,3.89,0,0,1,1.67,3.21,3.75,3.75,0,0,1-.74,2.26,4.67,4.67,0,0,1-3.34,1.87A9.69,9.69,0,0,1,67.34,163.37ZM65.63,162a4.71,4.71,0,0,0,2.69-.81A3.4,3.4,0,0,0,69,156a4.33,4.33,0,0,0-3.38-1.44H58.86V162l6,0Z"/><path class="cls-1" d="M82.67,168.05a5.39,5.39,0,0,1-4.61,2.33A4.88,4.88,0,0,1,74.61,169a5.75,5.75,0,0,1-1.83-4.37,5.83,5.83,0,0,1,1.37-3.86,4.86,4.86,0,0,1,3.91-1.9,5,5,0,0,1,3.46,1.39,5.76,5.76,0,0,1,1.82,4.37v.24H73.26a5.71,5.71,0,0,0,1.16,3.22,4.46,4.46,0,0,0,3.64,1.82,5.08,5.08,0,0,0,4.23-2.14Zm.19-3.67a5.16,5.16,0,0,0-1.17-3.29,4.58,4.58,0,0,0-3.63-1.75,4.46,4.46,0,0,0-3,1.13,5.24,5.24,0,0,0-1.83,3.91Z"/><path class="cls-1" d="M85.14,158.86h.53l0,.15,4.37,10.51L94.41,159l0-.15H95l-.14.34-4.54,11,0,.14h-.34l0-.14-4.58-11Z"/><path class="cls-1" d="M98.18,160.71a4.92,4.92,0,0,1,3.88-1.85,5,5,0,0,1,3.46,1.39,5.76,5.76,0,0,1,1.82,4.37,5.92,5.92,0,0,1-1.36,3.87,4.88,4.88,0,0,1-3.92,1.89A5,5,0,0,1,98.58,169a5.8,5.8,0,0,1-1.8-4.35A5.94,5.94,0,0,1,98.18,160.71Zm.28,7.42a4.46,4.46,0,0,0,3.6,1.77,4.4,4.4,0,0,0,3.1-1.25,5.24,5.24,0,0,0,1.7-4,5.54,5.54,0,0,0-1.17-3.48,4.42,4.42,0,0,0-3.63-1.8A4.47,4.47,0,0,0,99,160.59a5.26,5.26,0,0,0-1.71,4A5.49,5.49,0,0,0,98.46,168.13Z"/><path class="cls-1" d="M110.22,153.82h.48v16.56h-.48V153.82Z"/><path class="cls-1" d="M114.38,158.89h.52l0,.24,0,7.05a3.38,3.38,0,0,0,.86,2.26A4.15,4.15,0,0,0,119,169.9a4.38,4.38,0,0,0,2.59-.81,3.42,3.42,0,0,0,1.56-2.91v-7.29h.53l0,.24,0,7.05a3.87,3.87,0,0,1-1,2.62,4.63,4.63,0,0,1-3.63,1.58,4.92,4.92,0,0,1-3-1,3.91,3.91,0,0,1-1.65-3.22v-7.29Z"/><path class="cls-1" d="M128.18,167.36a2.89,2.89,0,0,0,0,.5q.39,2,3.36,2h.24v.48h-.24a7,7,0,0,1-1.32-.12,2.77,2.77,0,0,1-2.56-2.9v-8h-2.12v-.48h2.12V156.1h.48v2.76h3.64v.48h-3.64Z"/><path class="cls-1" d="M134.46,156.68v-.48H135v.48h-.51Zm0,2.18h.48v11.52h-.48V158.86Z"/><path class="cls-1" d="M139.46,160.71a4.92,4.92,0,0,1,3.88-1.85,5,5,0,0,1,3.46,1.39,5.79,5.79,0,0,1,1.82,4.37,5.87,5.87,0,0,1-1.37,3.87,4.86,4.86,0,0,1-3.91,1.89,5,5,0,0,1-3.48-1.41,5.8,5.8,0,0,1-1.8-4.35A5.94,5.94,0,0,1,139.46,160.71Zm.28,7.42a4.46,4.46,0,0,0,3.6,1.77,4.4,4.4,0,0,0,3.1-1.25,5.27,5.27,0,0,0,1.7-4,5.54,5.54,0,0,0-1.17-3.48,4.51,4.51,0,0,0-6.72-.55,5.26,5.26,0,0,0-1.71,4A5.49,5.49,0,0,0,139.74,168.13Z"/><path class="cls-1" d="M160.65,170.41h-.46l0-.24,0-6.48a4.41,4.41,0,0,0-.89-2.72,3.92,3.92,0,0,0-5.75-.67,4.3,4.3,0,0,0-1.52,3.39v6.69h-.48V158.86H152v2.67a4.81,4.81,0,0,1,.6-1A4.38,4.38,0,0,1,159,160a4.7,4.7,0,0,1,1.63,3.7v6.45Z"/><path class="cls-1" d="M163.36,153.58h.31l.05,0,.33.38a15.48,15.48,0,0,1,4.25,10.37,12.91,12.91,0,0,1-.53,3.63,17.57,17.57,0,0,1-4.05,7.12l-.05.05h-.31l.17-.19a17.31,17.31,0,0,0,1.29-1.58,15.15,15.15,0,0,0,3.24-9c0-.25,0-.52,0-.79a15.72,15.72,0,0,0-4.51-9.82Z"/><path class="cls-1" d="M181.93,160.71a5,5,0,0,1,7.35-.46,5.79,5.79,0,0,1,1.82,4.37,5.87,5.87,0,0,1-1.37,3.87,4.86,4.86,0,0,1-3.91,1.89,5,5,0,0,1-3.48-1.41,5.8,5.8,0,0,1-1.8-4.35A6,6,0,0,1,181.93,160.71Zm.29,7.42a4.46,4.46,0,0,0,3.6,1.77,4.4,4.4,0,0,0,3.1-1.25,5.27,5.27,0,0,0,1.7-4,5.54,5.54,0,0,0-1.17-3.48,4.51,4.51,0,0,0-6.72-.55,5.26,5.26,0,0,0-1.71,4A5.49,5.49,0,0,0,182.22,168.13Z"/><path class="cls-1" d="M198.54,158.86h.24v.48h-3.67v11h-.48v-11h-2.09v-.48h2.09a6.52,6.52,0,0,1,.5-2.4,3.44,3.44,0,0,1,3.41-2.18h.24v.48h-.24a3.27,3.27,0,0,0-1.39.29q-1.92.85-2,3.81Z"/><path class="cls-1" d="M212.65,167.36a2.92,2.92,0,0,0,0,.5q.39,2,3.36,2h.24v.48h-.24a7,7,0,0,1-1.32-.12,2.78,2.78,0,0,1-2.57-2.9v-8h-2.11v-.48h2.11V156.1h.48v2.76h3.65v.48h-3.65Z"/><path class="cls-1" d="M219.78,160.57a4.38,4.38,0,0,1,6.41-.58,4.7,4.7,0,0,1,1.63,3.7v6.45l0,.27h-.46l0-.24,0-6.48a4.48,4.48,0,0,0-.89-2.72,3.93,3.93,0,0,0-5.76-.67,4.32,4.32,0,0,0-1.51,3.39v6.69h-.48v-15h.48v6.17A4.81,4.81,0,0,1,219.78,160.57Z"/><path class="cls-1" d="M240.59,168.05a5.4,5.4,0,0,1-4.61,2.33,4.88,4.88,0,0,1-3.45-1.39,5.75,5.75,0,0,1-1.83-4.37,5.83,5.83,0,0,1,1.37-3.86,4.84,4.84,0,0,1,3.91-1.9,5,5,0,0,1,3.46,1.39,5.79,5.79,0,0,1,1.82,4.37v.24H231.18a5.77,5.77,0,0,0,1.15,3.22A4.48,4.48,0,0,0,236,169.9a5.08,5.08,0,0,0,4.23-2.14Zm.19-3.67a5.11,5.11,0,0,0-1.18-3.29,4.55,4.55,0,0,0-3.62-1.75,4.45,4.45,0,0,0-3,1.13,5.2,5.2,0,0,0-1.83,3.91Z"/><path class="cls-1" d="M255.42,170.38h-.48V154.3a.5.5,0,0,1,.12-.19c.16-.08.27-.05.34.1l7,15.36,7-15.36a.29.29,0,0,1,.22-.12q.24,0,.24.21l0,15.84v.24h-.48v-.24l0-14.73-6.72,14.83a.3.3,0,0,1-.1.09q-.24.12-.33-.09l-6.75-14.83v15Z"/><path class="cls-1" d="M274.57,160.71a4.94,4.94,0,0,1,3.89-1.85,5,5,0,0,1,3.46,1.39,5.79,5.79,0,0,1,1.82,4.37,5.93,5.93,0,0,1-1.37,3.87,4.86,4.86,0,0,1-3.91,1.89A5,5,0,0,1,275,169a5.8,5.8,0,0,1-1.8-4.35A5.93,5.93,0,0,1,274.57,160.71Zm.29,7.42a4.46,4.46,0,0,0,3.6,1.77,4.4,4.4,0,0,0,3.1-1.25,5.27,5.27,0,0,0,1.7-4,5.49,5.49,0,0,0-1.18-3.48,4.4,4.4,0,0,0-3.62-1.8,4.51,4.51,0,0,0-3.1,1.25,5.29,5.29,0,0,0-1.7,4A5.49,5.49,0,0,0,274.86,168.13Z"/><path class="cls-1" d="M287.05,160.71a4.94,4.94,0,0,1,3.89-1.85,5,5,0,0,1,3.46,1.39,5.79,5.79,0,0,1,1.82,4.37,5.93,5.93,0,0,1-1.37,3.87,4.86,4.86,0,0,1-3.91,1.89,5,5,0,0,1-3.48-1.41,5.8,5.8,0,0,1-1.8-4.35A5.93,5.93,0,0,1,287.05,160.71Zm.29,7.42a4.46,4.46,0,0,0,3.6,1.77,4.4,4.4,0,0,0,3.1-1.25,5.27,5.27,0,0,0,1.7-4,5.49,5.49,0,0,0-1.18-3.48,4.4,4.4,0,0,0-3.62-1.8,4.51,4.51,0,0,0-3.1,1.25,5.29,5.29,0,0,0-1.7,4A5.49,5.49,0,0,0,287.34,168.13Z"/><path class="cls-1" d="M308.24,170.41h-.45l0-.24,0-6.48a4.48,4.48,0,0,0-.89-2.72,3.93,3.93,0,0,0-5.76-.67,4.29,4.29,0,0,0-1.51,3.39v6.69h-.48V158.86h.48v2.67a4.81,4.81,0,0,1,.6-1,4.26,4.26,0,0,1,3.48-1.71,4.31,4.31,0,0,1,2.93,1.13,4.7,4.7,0,0,1,1.63,3.7v6.45Z"/><path class="cls-1" d="M5.68,47H0l1.57-3.65,17-39.16.71-1.57h3.4l.72,1.57,17,39.16L41.9,47H36.22l-.72-1.57L21,11.81,6.4,45.42Z"/><path class="cls-1" d="M48.3,20.69a13.21,13.21,0,0,1,10.5-5,13.42,13.42,0,0,1,9.14,3.59V0h5.22V47H67.94V43.4A13.64,13.64,0,0,1,58.8,47a13.27,13.27,0,0,1-9.33-3.78,15.44,15.44,0,0,1-5-11.88A15.83,15.83,0,0,1,48.3,20.69Zm3.26,17a8.35,8.35,0,0,0,7.24,4.11,8.17,8.17,0,0,0,5.49-2.09,10.57,10.57,0,0,0,3.65-8.35A11.25,11.25,0,0,0,66.05,25a8.36,8.36,0,0,0-7.25-4.11A8.16,8.16,0,0,0,53.32,23a10.58,10.58,0,0,0-3.65,8.36A11.3,11.3,0,0,0,51.56,37.66Z"/><path class="cls-1" d="M84.85,20.69a13.21,13.21,0,0,1,10.5-5,13.42,13.42,0,0,1,9.14,3.59V15.66h5.22V47h-5.22V43.4A13.64,13.64,0,0,1,95.35,47,13.27,13.27,0,0,1,86,43.21a15.44,15.44,0,0,1-5-11.88A15.84,15.84,0,0,1,84.85,20.69Zm3.26,17a8.35,8.35,0,0,0,7.24,4.11,8.13,8.13,0,0,0,5.48-2.09,10.55,10.55,0,0,0,3.66-8.35A11.25,11.25,0,0,0,102.6,25a8.37,8.37,0,0,0-7.25-4.11A8.16,8.16,0,0,0,89.87,23a10.58,10.58,0,0,0-3.65,8.36A11.3,11.3,0,0,0,88.11,37.66Z"/><path class="cls-1" d="M140.91,20.1A11,11,0,0,1,157,18.34a12.33,12.33,0,0,1,4.44,9.85V44.38l.07,2.68h-5.16l-.06-2.61-.07-16.26a8.61,8.61,0,0,0-1-4,6,6,0,0,0-8.94-2.15,7.2,7.2,0,0,0-2.87,6.13V44.38l.06,2.68H138.3l-.07-2.61-.06-13.64V28.19a8.61,8.61,0,0,0-1-4,6,6,0,0,0-8.94-2.15,7.21,7.21,0,0,0-2.88,6.13V47h-5.22V15.66h5.22v2.09a11.29,11.29,0,0,1,6.4-2.09,11.65,11.65,0,0,1,9,4.57S140.86,20.19,140.91,20.1Z"/></g></g></svg>