<svg xmlns="http://www.w3.org/2000/svg" viewBox="0 0 69.15 23.04"><defs><style>.cls-1{fill:#fff;}</style></defs><g id="레이어_2" data-name="레이어 2"><g id="레이어_1-2" data-name="레이어 1"><path class="cls-1" d="M17.76,18.43a8.68,8.68,0,0,1-1.86,2.18A9.6,9.6,0,0,1,9.57,23a8.83,8.83,0,0,1-6.63-3A11.16,11.16,0,0,1,0,12.16,11.08,11.08,0,0,1,3,4.29a8.61,8.61,0,0,1,6.59-3,9.31,9.31,0,0,1,4.25,1.06A8.54,8.54,0,0,1,17.73,6L15.42,7.14a5.15,5.15,0,0,0-1.18-1.51A6.9,6.9,0,0,0,9.57,3.84,6.47,6.47,0,0,0,4.86,6a8.81,8.81,0,0,0-2.3,6.18,9.12,9.12,0,0,0,1.82,5.6,6.32,6.32,0,0,0,5.19,2.72,6.83,6.83,0,0,0,2.62-.54,6.48,6.48,0,0,0,3.33-2.79Z"/><path class="cls-1" d="M22.37,10.14a6.6,6.6,0,0,1,9.73-.6,7.56,7.56,0,0,1,2.46,5.82,7.78,7.78,0,0,1-1.89,5.22,6.6,6.6,0,0,1-9.73.6,7.56,7.56,0,0,1-2.46-5.82A7.78,7.78,0,0,1,22.37,10.14ZM24,18.46a4.08,4.08,0,0,0,3.55,2,4,4,0,0,0,2.69-1A5.2,5.2,0,0,0,32,15.36a5.51,5.51,0,0,0-.93-3.1,4.08,4.08,0,0,0-3.55-2,4,4,0,0,0-2.69,1A5.2,5.2,0,0,0,23,15.36,5.48,5.48,0,0,0,24,18.46Z"/><path class="cls-1" d="M38.4,0H41V23H38.4V0Z"/><path class="cls-1" d="M45.18,10.14a6.6,6.6,0,0,1,9.73-.6,7.56,7.56,0,0,1,2.47,5.82,7.78,7.78,0,0,1-1.89,5.22,6.6,6.6,0,0,1-9.73.6,7.56,7.56,0,0,1-2.46-5.82A7.82,7.82,0,0,1,45.18,10.14Zm1.6,8.32a4.1,4.1,0,0,0,3.56,2,4,4,0,0,0,2.68-1,5.18,5.18,0,0,0,1.8-4.1,5.51,5.51,0,0,0-.93-3.1,4.09,4.09,0,0,0-3.55-2,4,4,0,0,0-2.69,1,5.17,5.17,0,0,0-1.79,4.1A5.55,5.55,0,0,0,46.78,18.46Z"/><path class="cls-1" d="M67.87,7.68h1.28v2.56H67.87a3.91,3.91,0,0,0-1.92.48q-2.15,1.18-2.17,4.45V23H61.22V7.68h2.56V9A6.64,6.64,0,0,1,67.87,7.68Z"/></g></g></svg>