<svg xmlns="http://www.w3.org/2000/svg" viewBox="0 0 572.12 158.82"><defs><style>.cls-1{fill:none;stroke:#fff;stroke-miterlimit:10;}.cls-2{fill:#fff;}</style></defs><g id="레이어_2" data-name="레이어 2"><g id="레이어_1-2" data-name="레이어 1"><path class="cls-1" d="M511.82.5H60.3A59.8,59.8,0,0,0,.5,60.3h0a59.79,59.79,0,0,0,59.8,59.79H260.82l25.24,37.83,25.24-37.83H511.82a59.79,59.79,0,0,0,59.8-59.79h0A59.8,59.8,0,0,0,511.82.5Z"/><path class="cls-2" d="M71.05,44.91l1.76.34v3.53l-1.76-.33c-3.17-.62-4.75-.94-7.91-1.63V73.33l-3.54-.79V46c-3.19-.73-4.79-1.12-8-1.93l-1.77-.46V40.11l1.77.45c3.2.82,4.8,1.21,8,1.94l3.54.79C66.3,44,67.88,44.3,71.05,44.91Z"/><path class="cls-2" d="M85.62,56.25A9.23,9.23,0,0,1,90.88,59,10.3,10.3,0,0,1,94,66.56v10.3l0,1.81c-1.4-.17-2.09-.27-3.49-.46l0-1.77,0-10.34a6.92,6.92,0,0,0-.84-3.3,5.39,5.39,0,0,0-4-3,4,4,0,0,0-2.74.54,4.72,4.72,0,0,0-2.12,4.3V76.69c-1.41-.23-2.12-.35-3.53-.6v-29c1.41.25,2.12.37,3.53.6v9.45A7.35,7.35,0,0,1,85.62,56.25Z"/><path class="cls-2" d="M101.92,61.75A8.28,8.28,0,0,1,109,59,10.11,10.11,0,0,1,115.22,62V59.54c1.41.11,2.12.16,3.53.25V81l-3.53-.24V78.32A8.42,8.42,0,0,1,109,80.25a9.8,9.8,0,0,1-6.31-3.18,11.69,11.69,0,0,1-3.4-8.41A9.74,9.74,0,0,1,101.92,61.75Zm2.21,11.71a6.3,6.3,0,0,0,4.9,3.25,5.09,5.09,0,0,0,3.72-1.1,6.62,6.62,0,0,0,2.47-5.46,8.18,8.18,0,0,0-1.28-4.39A6.29,6.29,0,0,0,109,62.58a5.14,5.14,0,0,0-3.71,1.06,6.44,6.44,0,0,0-2.47,5.41A8.27,8.27,0,0,0,104.13,73.46Z"/><path class="cls-2" d="M142.65,82l-3.49-.06,0-1.77-.05-10.34a6.38,6.38,0,0,0-.84-3.2,4.64,4.64,0,0,0-4-2.53,4.2,4.2,0,0,0-2.73.88,5.36,5.36,0,0,0-2.13,4.56V81.56l-3.53-.16V60.19l3.53.16V62a7.91,7.91,0,0,1,4.86-1.5,8,8,0,0,1,5.26,2.16,9.19,9.19,0,0,1,3.14,7.16v10.3Z"/><path class="cls-2" d="M153.21,73.11v8.83l-3.54,0c0-.71,0-1.06,0-1.77V69.59c0-7.07,0-10.61,0-17.67V50.15h3.54V69.57h.62c3.5-3.37,5.25-5.07,8.74-8.5.22-.19.32-.29.53-.49l5.13-.16c-1.27,1.27-1.91,1.9-3.18,3.15-3.18,3.11-4.77,4.66-8,7.73,3.18,3,4.77,4.45,8,7.38l3.18,2.95c-2,.07-3.08.1-5.13.15l-.53-.47c-3.5-3.26-5.24-4.9-8.74-8.21Z"/><path class="cls-2" d="M201,58.51l3.8-.31-.92,2.46-6.54,18.15c-1.21,4.1-2.45,7-3.71,8.58a6.16,6.16,0,0,1-4.64,2.3l-1.77.11V86.27l1.77-.11A3,3,0,0,0,191.24,85c.7-.87,1.56-3,2.56-6.41-2.58-6.65-3.87-10-6.45-16.66l-.92-2.33,3.8-.24c.15.45.23.67.39,1.12,2,5.16,3,7.74,5,12.9l5-13.64C200.77,59.22,200.85,59,201,58.51Z"/><path class="cls-2" d="M210.15,61.13a10.06,10.06,0,0,1,7.11-4.07A8.31,8.31,0,0,1,223.58,59a9.42,9.42,0,0,1,3.4,7.68,11.82,11.82,0,0,1-2.61,7.47,10,10,0,0,1-7.11,4.12,8.21,8.21,0,0,1-6.32-2,9.58,9.58,0,0,1-3.4-7.74A11.69,11.69,0,0,1,210.15,61.13Zm2.21,11.28a5.07,5.07,0,0,0,4.9,2.32A6.14,6.14,0,0,0,221,73,7.94,7.94,0,0,0,223.45,67a7,7,0,0,0-1.29-4.15,5.07,5.07,0,0,0-4.9-2.3,6.18,6.18,0,0,0-3.71,1.77,7.88,7.88,0,0,0-2.47,5.89A7,7,0,0,0,212.36,72.41Z"/><path class="cls-2" d="M231.44,55.63l3.58-.4L235,57l0,11.32a3.77,3.77,0,0,0,.84,2.42,4.45,4.45,0,0,0,4.2,1.55,5.82,5.82,0,0,0,2.73-1.07A4.87,4.87,0,0,0,245,67.15V55.8l0-1.73,3.58-.43-.05,1.78c0,4.52,0,6.78,0,11.31A8.61,8.61,0,0,1,246.64,72,9.45,9.45,0,0,1,240,75.82a7.82,7.82,0,0,1-5.53-1.27,6.68,6.68,0,0,1-3-5.84V57.36Z"/><path class="cls-2" d="M280.74,49.52l1.76-.23v3.54l-1.76.23-3.27.42V71.15l-3.54.46V53.94l-1.14.15-1.77.23V50.78l1.77-.22L274,50.4a23.58,23.58,0,0,1,.53-3.78q1.46-6.24,6.23-6.86l1.76-.23v3.54l-1.76.23c-1.83.26-2.89,2.48-3.18,6.64Z"/><path class="cls-2" d="M287.76,52a10.52,10.52,0,0,1,7.11-4.33,8.07,8.07,0,0,1,6.32,1.75,9.19,9.19,0,0,1,3.4,7.6A12.12,12.12,0,0,1,302,64.57a10.46,10.46,0,0,1-7.11,4.32,8.05,8.05,0,0,1-6.31-1.75,9.17,9.17,0,0,1-3.41-7.59A12.12,12.12,0,0,1,287.76,52ZM290,63.21a4.91,4.91,0,0,0,4.9,2.14,6.33,6.33,0,0,0,3.71-1.89,8.17,8.17,0,0,0,2.48-6,6.88,6.88,0,0,0-1.28-4.12,4.91,4.91,0,0,0-4.91-2.15,6.36,6.36,0,0,0-3.71,1.89,8.17,8.17,0,0,0-2.47,6A6.84,6.84,0,0,0,290,63.21Z"/><path class="cls-2" d="M319.08,44.62l1.77-.22v3.54l-1.77.21a5.93,5.93,0,0,0-2.65,1c-2,1.33-3,3.5-3,6.51V66.52l-3.53.44V45.76l3.53-.44v1.85A10.38,10.38,0,0,1,319.08,44.62Z"/><path class="cls-2" d="M341.47,42l3.67-.39.4,1.23,3.58,12.45c2.17-5.42,3.26-8.13,5.43-13.53.18-.46.27-.69.44-1.15l2.39-.22c.17.42.26.64.44,1.06,2.17,5,3.26,7.49,5.43,12.5l3.58-13.12.4-1.31,3.66-.3c-.24.92-.37,1.38-.61,2.3l-4.95,18.08-.4,1.31-2.52.22c-.17-.42-.26-.64-.44-1.06-2.31-5.31-3.47-8-5.79-13.25L350.4,61.19,350,62.34l-2.52.26-.4-1.24-5-17.15C341.85,43.34,341.72,42.9,341.47,42Z"/><path class="cls-2" d="M376.46,42.24a9.65,9.65,0,0,1,7.11-3.88,8.56,8.56,0,0,1,6.19,2.07V38l3.53-.17V59l-3.53.18V56.78a9.92,9.92,0,0,1-6.19,2.78,8.53,8.53,0,0,1-6.32-2.14,9.75,9.75,0,0,1-3.4-7.79A11.49,11.49,0,0,1,376.46,42.24Zm2.21,11.33a5.28,5.28,0,0,0,4.9,2.46,5.92,5.92,0,0,0,3.71-1.63,7.59,7.59,0,0,0,2.48-5.79,7.32,7.32,0,0,0-1.28-4.22,5.3,5.3,0,0,0-4.91-2.5,5.87,5.87,0,0,0-3.71,1.66,7.65,7.65,0,0,0-2.47,5.82A7.19,7.19,0,0,0,378.67,53.57Z"/><path class="cls-2" d="M404.2,52.37c0,1.74,1.11,2.6,3.23,2.61l1.76,0v3.53l-1.76,0a10,10,0,0,1-2.35-.2c-2.94-.59-4.41-2.51-4.41-5.78V41.05l-1.2,0-1.76.07V37.63l1.76-.07,1.2-.05V32.88c0-.69,0-1,0-1.73l3.58-.12-.05,1.77v4.6l3.19-.09,1.76,0V40.8l-1.76,0-3.19.09Z"/><path class="cls-2" d="M429.16,54.34a9.14,9.14,0,0,1-7.82,4,8.77,8.77,0,0,1-6.14-2.49,10.4,10.4,0,0,1-3.36-8,11.08,11.08,0,0,1,2.52-7.24,8.66,8.66,0,0,1,7-3.44A9.12,9.12,0,0,1,429.2,41l-2.91,2a5.67,5.67,0,0,0-5-2.32,5.08,5.08,0,0,0-3.58,1.42,7.18,7.18,0,0,0-2.38,5.68A7.85,7.85,0,0,0,416.53,52a5.39,5.39,0,0,0,4.81,2.86,6.22,6.22,0,0,0,5-2.54Z"/><path class="cls-2" d="M443.21,37.63a8.07,8.07,0,0,1,5.25,2.31,9.56,9.56,0,0,1,3.14,7.3v10.3c0,.72,0,1.08,0,1.81l-3.49-.21c0-.71,0-1.07,0-1.77l0-10.34a6.51,6.51,0,0,0-.84-3.23,4.76,4.76,0,0,0-4-2.63,4.14,4.14,0,0,0-2.74.85,5.35,5.35,0,0,0-2.12,4.56V58.64l-3.54-.11v-29l3.54.11v9.45A7.61,7.61,0,0,1,443.21,37.63Z"/><path class="cls-2" d="M458,35.87V32.34l1.77.14h.05l1.76.15v3.53L459.82,36h-.05Zm0,2.7c1.42.11,2.13.17,3.54.3v21.2c-1.41-.13-2.12-.19-3.54-.3V58c0-7.07,0-10.6,0-17.67Z"/><path class="cls-2" d="M484.33,62.82c-1.39-.21-2.09-.31-3.49-.5l0-1.78-.05-10.34a7,7,0,0,0-.83-3.3,5.31,5.31,0,0,0-4-3,3.91,3.91,0,0,0-2.73.64A4.91,4.91,0,0,0,471,49V61c-1.42-.16-2.12-.24-3.54-.38V39.44l3.54.39V41.5a7.22,7.22,0,0,1,4.85-1.09,8.8,8.8,0,0,1,5.26,2.73,10.44,10.44,0,0,1,3.14,7.57V61Z"/><path class="cls-2" d="M492.19,46.24a7.48,7.48,0,0,1,7.12-2.1,11.19,11.19,0,0,1,6.18,3.68v-.66l.05-1.71c1.43.3,2.14.46,3.57.78,0,.7,0,1.05,0,1.76L509,65.6a9.21,9.21,0,0,1-.44,2.82,9.63,9.63,0,0,1-1.3,2.63,9.84,9.84,0,0,1-2,2.11,7.14,7.14,0,0,1-2.7,1.25,7.58,7.58,0,0,1-3.22,0l-1.77-.34V70.58l1.77.34a4.59,4.59,0,0,0,4.2-1.33,6.35,6.35,0,0,0,1.94-4.76v-.66a8,8,0,0,1-6.18,1.17A11.22,11.22,0,0,1,493,61.62a12.47,12.47,0,0,1-3.4-8.62A9.21,9.21,0,0,1,492.19,46.24Zm2.21,11.87a7.21,7.21,0,0,0,4.91,3.7,4.85,4.85,0,0,0,3.71-.67A5.76,5.76,0,0,0,505.49,56a9.05,9.05,0,0,0-1.28-4.56,7.26,7.26,0,0,0-4.9-3.77,4.78,4.78,0,0,0-3.71.72,5.92,5.92,0,0,0-2.48,5.21A8.77,8.77,0,0,0,494.4,58.11Z"/><path class="cls-2" d="M517,39.21c1.41.35,2.12.53,3.53.9V63.52c-1.41-.37-2.12-.55-3.53-.9V39.21Zm0,26.55c1.41.35,2.12.53,3.53.9v3.58L517,69.33V65.76Z"/></g></g></svg>