<?xml version="1.0" encoding="utf-8"?>
<!-- Generator: Adobe Illustrator 26.0.2, SVG Export Plug-In . SVG Version: 6.00 Build 0)  -->
<svg version="1.1" id="레이어_1" xmlns="http://www.w3.org/2000/svg" xmlns:xlink="http://www.w3.org/1999/xlink" x="0px"
	 y="0px" viewBox="0 0 922.2 328.9" style="enable-background:new 0 0 922.2 328.9;" xml:space="preserve">
<style type="text/css">
	.st0{fill:#FFFFFF;}
</style>
<path class="st0" d="M12.1,249.2h1v1.9H7.8v14.4H5.8v-14.4H0.6v-1.9H12.1z"/>
<path class="st0" d="M20,254c1.1,0,2.1,0.4,2.9,1.1c1.1,1,1.8,2.4,1.7,3.9v5.6v1h-1.9v-1V259c0-0.6-0.2-1.2-0.5-1.7
	c-0.4-0.8-1.3-1.3-2.2-1.2c-0.5,0-1.1,0.2-1.5,0.5c-0.8,0.6-1.2,1.5-1.2,2.5v6.5h-1.9v-15.7h1.9v5.2C18.1,254.4,19,254,20,254z"/>
<path class="st0" d="M37.2,263.3c-1,1.4-2.7,2.3-4.5,2.2c-1.3,0-2.5-0.5-3.5-1.4c-1.2-1.1-1.9-2.7-1.8-4.4c0-1.4,0.5-2.8,1.4-3.9
	c0.9-1.2,2.4-1.9,3.9-1.9c1.3,0,2.5,0.5,3.4,1.4c1.2,1.1,1.9,2.7,1.9,4.4v1h-8.6c0.1,0.5,0.3,0.9,0.6,1.4c0.6,1,1.6,1.5,2.7,1.5
	c1.2,0,2.2-0.5,2.9-1.5L37.2,263.3z M36.1,258.8c0-0.6-0.3-1.1-0.7-1.5c-0.6-0.8-1.6-1.3-2.7-1.3c-0.5,0-1,0.1-1.4,0.4
	c-1,0.5-1.7,1.4-1.9,2.5L36.1,258.8z"/>
<path class="st0" d="M53.5,248.8h2.2l-0.9,1.5c-0.4,0.6-0.7,1.2-1,1.7c-1.2,2.4-1.8,5-1.8,7.6c-0.1,3.3,0.8,6.6,2.7,9.3l1.2,1.5
	h-2.4l-0.3-0.4c-2.1-3-3.2-6.7-3.1-10.4c0-1.3,0.1-2.7,0.4-4c0.5-2.3,1.4-4.4,2.6-6.4L53.5,248.8z"/>
<path class="st0" d="M70.3,264.3l0.4,1.2h-2l-0.2-0.7c-0.4-1.4-0.9-2.7-1.4-4c-0.4-1-1.1-1.8-1.9-2.5h-4.8v7.2h-1.9v-8.2v-7.2v-1h1
	h6.1c1.2,0,2.4,0.4,3.3,1.2c1.1,0.8,1.7,2.1,1.7,3.4c0,0.5-0.1,1-0.3,1.5c-0.4,1.2-1.4,2.2-2.6,2.7C68.5,259,69.4,261.2,70.3,264.3z
	 M62.3,256.4h3.1c0.6,0,1.2-0.1,1.7-0.4c0.8-0.4,1.4-1.3,1.3-2.2c0-0.5-0.2-1.1-0.5-1.5c-0.6-0.8-1.5-1.2-2.5-1.2h-5.1v5.3
	L62.3,256.4L62.3,256.4z"/>
<path class="st0" d="M82.5,263.3c-1,1.5-2.7,2.3-4.5,2.2c-1.3,0-2.5-0.5-3.4-1.4c-1.2-1.1-1.9-2.7-1.8-4.4c0-1.4,0.5-2.8,1.4-3.9
	c1.7-2.2,4.9-2.5,7-0.8c0.1,0.1,0.2,0.2,0.3,0.3c1.2,1.1,1.9,2.7,1.8,4.4v1h-8.5c0.1,0.5,0.3,0.9,0.6,1.4c0.6,1,1.6,1.5,2.7,1.5
	c1.2,0,2.3-0.6,2.9-1.5L82.5,263.3z M81.4,258.8c0-0.6-0.3-1.1-0.6-1.5c-0.7-0.8-1.7-1.3-2.7-1.3c-0.5,0-1,0.1-1.4,0.4
	c-1,0.5-1.7,1.4-1.8,2.5L81.4,258.8z"/>
<path class="st0" d="M84.8,254h2.1l0.2,0.6l3,7.4l2.9-7.3l0.2-0.6h2.1l-0.5,1.3L91,265l-0.2,0.6h-1.3l-0.2-0.6l-3.9-9.6L84.8,254z"
	/>
<path class="st0" d="M98.2,255.9c1.7-2.1,4.8-2.5,6.9-0.8c0.1,0.1,0.2,0.2,0.4,0.3c1.2,1.1,1.9,2.7,1.8,4.4c0,1.4-0.5,2.8-1.4,3.9
	c-1.8,2.1-4.9,2.4-7,0.7c-0.1-0.1-0.2-0.2-0.3-0.2c-1.2-1.1-1.9-2.7-1.8-4.4C96.8,258.4,97.3,257,98.2,255.9z M99.4,262.1
	c0.6,0.9,1.6,1.5,2.7,1.5c0.7,0,1.4-0.3,2-0.8c0.9-0.8,1.4-1.9,1.3-3.1c0-0.8-0.2-1.6-0.7-2.3c-0.6-0.9-1.6-1.5-2.7-1.5
	c-0.7,0-1.5,0.3-2,0.8c-0.9,0.8-1.4,1.9-1.3,3.1C98.7,260.6,98.9,261.4,99.4,262.1z"/>
<path class="st0" d="M110.2,248.3h1.9v17.3h-1.9V248.3z"/>
<path class="st0" d="M114.4,254.1h1.9v1v6.1c0,0.5,0.2,1,0.4,1.4c0.5,0.7,1.4,1.1,2.3,1.1c0.5,0,1-0.1,1.5-0.4
	c0.8-0.4,1.2-1.2,1.2-2.1V255v-0.9h1.9v1v6.1c0,1-0.3,2-1,2.7c-0.9,1.1-2.2,1.7-3.6,1.6c-1.1,0-2.1-0.3-3-1c-1.1-0.8-1.7-2-1.7-3.4
	V255L114.4,254.1z"/>
<path class="st0" d="M129.1,262.2c0,0.9,0.6,1.4,1.8,1.5h1v1.9h-1c-0.4,0-0.9,0-1.3-0.1c-1.5-0.3-2.6-1.7-2.4-3.2V256h-1.6v-2h1.6
	v-2.5v-0.9h1.9v1v2.4h2.7v2h-2.7L129.1,262.2z"/>
<path class="st0" d="M133.9,252.6v-1.9h1.9v1.9H133.9z M133.9,254h1.9v11.5h-1.9V254L133.9,254z"/>
<path class="st0" d="M139.5,255.9c1.7-2.1,4.8-2.5,6.9-0.8c0.1,0.1,0.2,0.2,0.4,0.3c1.2,1.1,1.9,2.7,1.9,4.4c0,1.4-0.5,2.8-1.4,3.9
	c-1.8,2.1-4.9,2.4-7,0.7c-0.1-0.1-0.2-0.2-0.3-0.2c-1.2-1.1-1.9-2.7-1.9-4.4C138,258.4,138.5,257,139.5,255.9z M140.7,262.1
	c0.6,0.9,1.6,1.5,2.7,1.5c0.7,0,1.4-0.3,2-0.8c0.9-0.8,1.4-1.9,1.3-3.1c0-0.8-0.2-1.6-0.7-2.3c-0.6-0.9-1.6-1.5-2.7-1.5
	c-0.7,0-1.5,0.3-2,0.8c-0.9,0.8-1.4,1.9-1.3,3.1C140,260.6,140.2,261.4,140.7,262.1z"/>
<path class="st0" d="M160.6,265.6h-1.9v-1V259c0-0.6-0.2-1.2-0.4-1.7c-0.4-0.8-1.3-1.3-2.2-1.3c-0.5,0-1.1,0.2-1.5,0.5
	c-0.8,0.6-1.2,1.5-1.2,2.5v6.5h-2V254h1.9v1c0.8-0.6,1.7-0.9,2.6-0.9c1.1,0,2.1,0.4,2.9,1.1c1.1,1,1.8,2.4,1.7,3.9v5.6L160.6,265.6z
	"/>
<path class="st0" d="M162.8,248.8h2.2l0.3,0.5c1.9,3.1,3,6.7,3,10.3c0,0.9-0.1,1.7-0.2,2.6c-0.4,2.8-1.3,5.4-2.8,7.8l-0.3,0.4h-2.3
	l1-1.5c0.2-0.3,0.4-0.6,0.6-0.9c1.4-2.6,2.2-5.4,2.2-8.4c0-3.3-1-6.5-2.7-9.3L162.8,248.8z"/>
<path class="st0" d="M182,255.9c1.7-2.1,4.8-2.5,6.9-0.8c0.1,0.1,0.2,0.2,0.4,0.3c1.2,1.1,1.9,2.7,1.9,4.4c0,1.4-0.5,2.8-1.4,3.9
	c-1.8,2.1-4.9,2.4-7,0.7c-0.1-0.1-0.2-0.2-0.3-0.2c-1.2-1.1-1.9-2.7-1.9-4.4C180.6,258.4,181.1,257,182,255.9z M183.2,262.1
	c0.6,0.9,1.6,1.5,2.7,1.5c0.7,0,1.4-0.3,2-0.8c0.9-0.8,1.4-1.9,1.3-3.1c0-0.8-0.2-1.6-0.7-2.3c-0.6-0.9-1.6-1.5-2.7-1.5
	c-0.7,0-1.5,0.3-2,0.8c-0.9,0.8-1.4,1.9-1.4,3.1C182.5,260.6,182.7,261.4,183.2,262.1L183.2,262.1z"/>
<path class="st0" d="M197.8,254h1v2h-2.7v9.6h-1.9V256h-1.6v-2h1.6c0-0.7,0.1-1.3,0.3-2c0.5-2.2,1.6-3.3,3.4-3.3h1v1.9h-1
	c-1,0-1.6,1.1-1.7,3.4L197.8,254z"/>
<path class="st0" d="M213.6,262.2c0,0.9,0.6,1.4,1.8,1.5h1v1.9h-1c-0.4,0-0.9,0-1.3-0.1c-1.5-0.3-2.6-1.7-2.4-3.2V256h-1.6v-2h1.6
	v-2.5v-0.9h1.9v1v2.4h2.7v2h-2.7L213.6,262.2z"/>
<path class="st0" d="M223.3,254c1.1,0,2.1,0.4,2.9,1.1c1.1,1,1.8,2.4,1.7,3.9v5.6v1H226v-1v-5.6c0-0.6-0.2-1.2-0.4-1.7
	c-0.4-0.8-1.3-1.3-2.2-1.3c-0.5,0-1.1,0.2-1.5,0.5c-0.8,0.6-1.2,1.5-1.1,2.5v6.5h-2v-15.7h1.9v5.2C221.4,254.4,222.3,254,223.3,254z
	"/>
<path class="st0" d="M240.4,263.3c-1,1.5-2.7,2.3-4.5,2.2c-1.3,0-2.5-0.5-3.4-1.4c-1.2-1.1-1.9-2.7-1.8-4.4c0-1.4,0.5-2.8,1.4-3.9
	c0.9-1.2,2.4-1.9,3.9-1.9c1.3,0,2.5,0.5,3.4,1.4c1.2,1.1,1.9,2.7,1.9,4.4v1h-8.5c0.1,0.5,0.3,0.9,0.6,1.4c0.6,1,1.6,1.5,2.7,1.5
	c1.2,0,2.3-0.5,2.9-1.5L240.4,263.3z M239.3,258.8c0-0.6-0.3-1.1-0.6-1.5c-0.6-0.8-1.6-1.3-2.7-1.3c-0.5,0-1,0.1-1.4,0.4
	c-1,0.5-1.7,1.4-1.9,2.5L239.3,258.8z"/>
<path class="st0" d="M256.9,265.6h-1.9v-16.3h1.6l0.2,0.6l5.6,12.4l5.6-12.4l0.2-0.6h1.6v1v14.4v1h-1.9v-1v-9.9l-4.6,10.3l-0.2,0.6
	h-1.2l-0.2-0.6l-4.7-10.3L256.9,265.6L256.9,265.6z"/>
<path class="st0" d="M274.6,255.9c1.7-2.1,4.8-2.5,6.9-0.8c0.1,0.1,0.2,0.2,0.4,0.3c1.2,1.1,1.9,2.7,1.9,4.4c0,1.4-0.5,2.8-1.4,3.9
	c-1.7,2.1-4.8,2.5-7,0.7c-0.1-0.1-0.2-0.2-0.3-0.3c-1.2-1.1-1.9-2.7-1.9-4.4C273.2,258.4,273.7,257,274.6,255.9z M275.8,262.1
	c0.6,0.9,1.6,1.5,2.7,1.5c0.7,0,1.4-0.3,2-0.8c0.9-0.8,1.4-1.9,1.3-3.1c0-0.8-0.2-1.6-0.7-2.3c-0.6-0.9-1.6-1.5-2.7-1.5
	c-0.7,0-1.5,0.3-2,0.8c-0.9,0.8-1.4,1.9-1.3,3.1C275.1,260.6,275.3,261.4,275.8,262.1L275.8,262.1z"/>
<path class="st0" d="M287.1,255.9c1.7-2.1,4.8-2.5,6.9-0.8c0.1,0.1,0.2,0.2,0.4,0.3c1.2,1.1,1.9,2.7,1.9,4.4c0,1.4-0.5,2.8-1.4,3.9
	c-1.7,2.1-4.8,2.5-7,0.7c-0.1-0.1-0.2-0.2-0.3-0.3c-1.2-1.1-1.9-2.7-1.9-4.4C285.6,258.4,286.1,257,287.1,255.9z M288.3,262.1
	c0.6,0.9,1.6,1.5,2.7,1.5c0.7,0,1.4-0.3,2-0.8c0.9-0.8,1.4-1.9,1.3-3.1c0-0.8-0.2-1.6-0.7-2.3c-0.6-0.9-1.6-1.5-2.7-1.5
	c-0.7,0-1.5,0.3-2,0.8c-0.9,0.8-1.4,1.9-1.3,3.1C287.6,260.6,287.8,261.4,288.3,262.1z"/>
<path class="st0" d="M308.2,265.6h-1.9v-1V259c0-0.6-0.2-1.2-0.5-1.7c-0.4-0.8-1.3-1.3-2.2-1.3c-0.5,0-1.1,0.2-1.5,0.5
	c-0.8,0.6-1.3,1.5-1.2,2.6v6.5h-1.9V254h1.9v1c0.8-0.6,1.7-0.9,2.6-0.9c1.1,0,2.1,0.4,2.9,1.1c1.1,1,1.8,2.4,1.7,3.9v5.6
	L308.2,265.6z"/>
<path class="st0" d="M12.6,278.5H13v1H7.3v15.4h-1v-15.4H0.6v-1L12.6,278.5L12.6,278.5z"/>
<path class="st0" d="M16.5,285c0.8-1.1,2.1-1.7,3.5-1.7c1.1,0,2.1,0.4,2.9,1.1c1.1,0.9,1.7,2.3,1.7,3.8v6.2v0.5h-0.9v-0.5v-6.2
	c0-0.8-0.3-1.7-0.8-2.4c-0.6-1-1.7-1.6-2.9-1.5c-0.8,0-1.6,0.3-2.2,0.8c-0.9,0.8-1.4,1.9-1.4,3.1v6.6h-1v-15.3h1v5.6L16.5,285z"/>
<path class="st0" d="M37.3,292.5c-1,1.5-2.8,2.3-4.6,2.3c-1.3,0-2.5-0.5-3.5-1.4c-1.2-1.1-1.9-2.7-1.8-4.4c0-1.4,0.5-2.8,1.4-3.9
	c0.9-1.2,2.4-1.9,3.9-1.9c1.3,0,2.6,0.5,3.5,1.4c1.2,1.1,1.8,2.7,1.8,4.3v0.5h-9.6c0.1,0.9,0.4,1.8,1,2.6c0.8,1.1,2,1.7,3.3,1.7
	c1.5,0,2.9-0.7,3.8-1.9L37.3,292.5z M37,288.6c0-1-0.4-1.9-1-2.7c-0.8-1-2-1.6-3.3-1.6c-0.9,0-1.8,0.3-2.5,0.8
	c-1.1,0.8-1.7,2.1-1.8,3.5H37z"/>
<path class="st0" d="M54.3,278h1.2l-0.6,0.8c-0.6,0.7-1.1,1.5-1.6,2.3c-1.4,2.3-2.1,5-2.1,7.8c-0.1,3.7,1.2,7.3,3.7,10l0.8,0.8h-1.3
	l-0.2-0.1l-0.2-0.2c-2.5-2.9-3.9-6.6-3.8-10.4c0-1.5,0.2-3.1,0.6-4.6c0.7-2.2,1.8-4.2,3.3-6L54.3,278z"/>
<path class="st0" d="M67.4,287.6c1,1.1,2,3.3,3,6.6l0.2,0.6h-1l-0.1-0.3c-0.5-1.7-1.2-3.4-2-5c-0.5-0.9-1.2-1.7-2.1-2.3h-6.1v7.7h-1
	v-8.2v-7.6v-0.5h0.5h6.7c1.1,0,2.2,0.3,3.2,1c1.1,0.8,1.7,2,1.7,3.3c0,0.7-0.2,1.4-0.5,2c-0.7,1.1-1.8,1.8-3,2.1
	C67,287.2,67.2,287.4,67.4,287.6z M65.6,286.2c0.8,0,1.7-0.2,2.4-0.7c1.5-0.9,1.9-2.8,1-4.2c-0.1-0.2-0.2-0.3-0.3-0.4
	c-0.8-0.9-1.9-1.4-3.1-1.4h-6.2v6.8h2.9l0,0L65.6,286.2L65.6,286.2z"/>
<path class="st0" d="M82.6,292.5c-1,1.5-2.8,2.3-4.6,2.3c-1.3,0-2.5-0.5-3.4-1.4c-1.2-1.1-1.9-2.7-1.8-4.4c0-1.4,0.5-2.8,1.4-3.9
	c1.7-2.2,4.9-2.5,7-0.8c0.1,0.1,0.2,0.2,0.4,0.3c1.2,1.1,1.8,2.7,1.8,4.3v0.5h-9.6c0.1,0.9,0.4,1.8,1,2.6c0.8,1.1,2,1.7,3.3,1.7
	c1.5,0,2.9-0.7,3.8-1.9L82.6,292.5z M82.4,288.6c0-1-0.4-1.9-1-2.7c-0.8-1-2-1.6-3.3-1.6c-0.9,0-1.8,0.3-2.5,0.8
	c-1.1,0.8-1.7,2.1-1.8,3.5H82.4z"/>
<path class="st0" d="M85,283.3h1l0.1,0.3l3.9,9.5l3.8-9.5l0.1-0.3h1l-0.3,0.7l-4.3,10.6l-0.1,0.3h-0.6l-0.1-0.3L85.3,284L85,283.3z"
	/>
<path class="st0" d="M98.2,285.2c1.7-2.1,4.9-2.5,7-0.7c0.1,0.1,0.2,0.2,0.3,0.3c1.2,1.1,1.8,2.7,1.8,4.3c0,1.4-0.4,2.8-1.3,3.9
	c-0.9,1.2-2.4,1.9-3.9,1.9c-1.3,0-2.5-0.5-3.5-1.4c-1.2-1.1-1.8-2.7-1.8-4.4C96.8,287.7,97.3,286.3,98.2,285.2z M98.8,292.2
	c1.3,1.8,3.8,2.2,5.6,1c0.1-0.1,0.3-0.2,0.4-0.3c1.1-0.9,1.6-2.3,1.6-3.7c0-1.1-0.3-2.2-1-3.1c-1.3-1.8-3.8-2.2-5.6-1
	c-0.2,0.1-0.3,0.2-0.4,0.3c-1.1,0.9-1.6,2.3-1.6,3.7C97.7,290.2,98.1,291.3,98.8,292.2L98.8,292.2z"/>
<path class="st0" d="M110.2,278h1v16.8h-1V278z"/>
<path class="st0" d="M114.4,283.4h1v0.5v6.7c0,0.7,0.2,1.4,0.7,2c0.7,0.9,1.8,1.4,3,1.3c0.8,0,1.6-0.2,2.2-0.7
	c0.9-0.6,1.5-1.6,1.5-2.6v-6.8v-0.5h1v0.5v6.7c0,1-0.4,1.9-1,2.7c-0.9,1.1-2.2,1.7-3.6,1.6c-1.1,0-2.1-0.3-3-1c-1-0.8-1.6-2-1.6-3.2
	v-6.8L114.4,283.4z"/>
<path class="st0" d="M128.5,291.7v0.2c0.1,1.3,1.1,2,2.9,2h0.5v1h-0.5c-0.3,0-0.5,0-0.8,0c-2-0.2-3-1.2-3.1-3.1v-7.4h-2v-1h2v-3h1v3
	h3.3v1h-3.3L128.5,291.7z"/>
<path class="st0" d="M134.3,281.4v-1h1v1H134.3z M134.3,283.3h1v11.5h-1V283.3L134.3,283.3z"/>
<path class="st0" d="M139.5,285.2c1.7-2.1,4.9-2.5,7-0.7c0.1,0.1,0.2,0.2,0.3,0.3c1.2,1.1,1.8,2.7,1.8,4.3c0,1.4-0.5,2.8-1.4,3.9
	c-1.7,2.1-4.9,2.5-7,0.7c-0.1-0.1-0.2-0.2-0.3-0.3c-1.2-1.1-1.8-2.7-1.8-4.4C138,287.7,138.5,286.3,139.5,285.2z M140,292.2
	c1.3,1.8,3.7,2.3,5.6,1c0.2-0.1,0.3-0.3,0.5-0.4c1.1-0.9,1.6-2.3,1.6-3.7c0-1.1-0.3-2.2-1-3.1c-1.3-1.8-3.8-2.2-5.6-1
	c-0.2,0.1-0.3,0.2-0.4,0.3c-1.1,0.9-1.6,2.3-1.6,3.7C139,290.2,139.4,291.3,140,292.2L140,292.2z"/>
<path class="st0" d="M160.6,294.9h-0.9v-0.5v-6.2c0-0.8-0.2-1.7-0.7-2.4c-0.6-1-1.7-1.6-2.9-1.5c-0.8,0-1.6,0.3-2.2,0.8
	c-0.9,0.8-1.5,1.9-1.4,3.1v6.6h-1v-11.5h1v1.9c0-0.1,0.1-0.1,0.1-0.2c0.8-1.1,2.1-1.7,3.4-1.7c1.1,0,2.1,0.4,2.9,1.1
	c1.1,0.9,1.7,2.3,1.6,3.8v6.2L160.6,294.9z"/>
<path class="st0" d="M163,278h1.2l0.1,0.2l0.2,0.3c2.4,2.9,3.7,6.6,3.7,10.3c0,1.1-0.1,2.1-0.4,3.2c-0.6,2.7-1.8,5.3-3.6,7.4
	l-0.1,0.2H163l0.6-0.8c0.4-0.4,0.7-0.9,1-1.3c1.8-2.6,2.7-5.6,2.8-8.7v-0.5c-0.2-3.5-1.5-6.9-3.7-9.6L163,278z"/>
<path class="st0" d="M181.9,285.2c1.7-2.1,4.9-2.5,7-0.7c0.1,0.1,0.2,0.2,0.3,0.3c1.2,1.1,1.8,2.7,1.8,4.3c0,1.4-0.5,2.8-1.4,3.9
	c-1.7,2.1-4.9,2.5-7,0.7c-0.1-0.1-0.2-0.2-0.3-0.3c-1.2-1.1-1.8-2.7-1.8-4.4C180.5,287.7,181,286.3,181.9,285.2z M182.5,292.2
	c1.3,1.8,3.7,2.3,5.6,1c0.2-0.1,0.3-0.3,0.5-0.4c1-0.9,1.6-2.3,1.6-3.7c0-1.1-0.3-2.2-1-3.1c-1.3-1.8-3.8-2.2-5.6-1
	c-0.2,0.1-0.3,0.2-0.4,0.3c-1.1,0.9-1.6,2.3-1.6,3.7C181.5,290.2,181.9,291.3,182.5,292.2L182.5,292.2z"/>
<path class="st0" d="M198.3,283.3h0.5v1h-3.4v10.6h-1v-10.6h-1.9v-1h2c0-0.8,0.2-1.6,0.4-2.4c0.4-1.5,1.8-2.5,3.4-2.4h0.5v1h-0.5
	c-0.3,0-0.6,0.1-0.9,0.2c-1.2,0.4-1.8,1.7-1.9,3.7L198.3,283.3z"/>
<path class="st0" d="M213,291.7v0.2c0.1,1.3,1.1,2,2.9,2h0.5v1h-0.5c-0.3,0-0.5,0-0.8,0c-2-0.2-3-1.2-3-3.1v-7.4h-1.9v-1h1.9v-3h1v3
	h3.3v1H213V291.7z"/>
<path class="st0" d="M219.8,285c0.8-1.1,2.1-1.7,3.4-1.7c1.1,0,2.1,0.4,2.9,1.1c1.1,0.9,1.7,2.3,1.6,3.8v6.2v0.5h-0.9v-0.5v-6.2
	c0-0.8-0.2-1.7-0.7-2.4c-0.6-1-1.7-1.6-2.9-1.5c-0.8,0-1.6,0.3-2.2,0.8c-0.9,0.8-1.5,1.9-1.4,3.1v6.6h-1v-15.2h1v5.6
	C219.7,285.1,219.8,285.1,219.8,285z"/>
<path class="st0" d="M240.5,292.5c-1,1.5-2.8,2.3-4.6,2.3c-1.3,0-2.5-0.5-3.4-1.4c-1.2-1.1-1.9-2.7-1.8-4.4c0-1.4,0.5-2.8,1.4-3.9
	c0.9-1.2,2.4-1.9,3.9-1.9c1.3,0,2.6,0.5,3.5,1.4c1.2,1.1,1.8,2.7,1.8,4.3v0.5h-9.6c0.1,0.9,0.4,1.8,1,2.6c0.8,1.1,2,1.7,3.3,1.7
	c1.5,0,2.9-0.7,3.8-1.9L240.5,292.5z M240.3,288.6c-0.1-2.4-2-4.2-4.3-4.3c-0.9,0-1.8,0.3-2.5,0.8c-1.1,0.8-1.8,2.1-1.8,3.5H240.3z"
	/>
<path class="st0" d="M255.9,294.9h-1v-16.3h0.8l0.1,0.3l6.5,14.4l6.5-14.4l0.1-0.3h0.8v0.5v15.4v0.5h-1v-0.5v-13.1l-6,13.3l-0.1,0.3
	H262l-0.1-0.3l-6-13.3V294.9L255.9,294.9z"/>
<path class="st0" d="M274.6,285.2c1.7-2.1,4.9-2.5,7-0.7c0.1,0.1,0.2,0.2,0.3,0.3c1.2,1.1,1.8,2.7,1.8,4.3c0,1.4-0.5,2.8-1.4,3.9
	c-1.7,2.1-4.9,2.5-7,0.7c-0.1-0.1-0.2-0.2-0.3-0.3c-1.2-1.1-1.8-2.7-1.8-4.4C273.2,287.7,273.7,286.3,274.6,285.2z M275.1,292.2
	c1.3,1.8,3.7,2.3,5.6,1c0.2-0.1,0.3-0.3,0.5-0.4c1-0.9,1.6-2.3,1.6-3.7c0-1.1-0.3-2.2-1-3.1c-1.3-1.8-3.8-2.2-5.6-1
	c-0.2,0.1-0.3,0.2-0.4,0.3c-1,0.9-1.6,2.3-1.6,3.7C274.2,290.2,274.5,291.3,275.1,292.2L275.1,292.2z"/>
<path class="st0" d="M287,285.2c1.7-2.1,4.9-2.5,7-0.7c0.1,0.1,0.2,0.2,0.3,0.3c1.2,1.1,1.8,2.7,1.8,4.3c0,1.4-0.5,2.8-1.4,3.9
	c-1.7,2.1-4.9,2.5-7,0.7c-0.1-0.1-0.2-0.2-0.3-0.3c-1.2-1.1-1.8-2.7-1.8-4.4C285.6,287.7,286.1,286.3,287,285.2z M287.6,292.2
	c1.3,1.8,3.7,2.3,5.6,1c0.2-0.1,0.3-0.3,0.5-0.4c1-0.9,1.6-2.3,1.6-3.7c0-1.1-0.3-2.2-1-3.1c-1.3-1.8-3.7-2.3-5.6-1
	c-0.2,0.1-0.3,0.3-0.5,0.4c-1,0.9-1.6,2.3-1.6,3.7C286.6,290.2,287,291.3,287.6,292.2L287.6,292.2z"/>
<path class="st0" d="M308.2,294.9h-0.9v-0.5v-6.2c0-0.8-0.2-1.7-0.7-2.4c-0.6-1-1.7-1.6-2.9-1.5c-0.8,0-1.6,0.3-2.2,0.8
	c-0.9,0.8-1.5,1.9-1.4,3.1v6.6h-1v-11.5h1v1.9l0.1-0.2c0.8-1.1,2.1-1.7,3.5-1.7c1.1,0,2.1,0.4,2.9,1.1c1.1,0.9,1.7,2.3,1.7,3.8v6.2
	L308.2,294.9z"/>
<path class="st0" d="M12.8,307.8H13v0.5H7v15.8H6.6v-15.8h-6v-0.5L12.8,307.8L12.8,307.8z"/>
<path class="st0" d="M16.5,314.3c1.5-1.9,4.2-2.3,6.1-0.8c0.1,0.1,0.2,0.1,0.3,0.2c1.1,0.9,1.7,2.3,1.6,3.7v6.5v0.3h-0.5v-0.2v-6.5
	c0-1-0.3-1.9-0.9-2.7c-1.3-1.8-3.7-2.2-5.5-0.9c-0.1,0.1-0.2,0.1-0.3,0.2c-1,0.8-1.5,2.1-1.5,3.4v6.7h-0.5v-15h0.5v6.2
	C16.1,315,16.3,314.6,16.5,314.3z"/>
<path class="st0" d="M37.3,321.8c-1,1.5-2.8,2.4-4.6,2.3c-1.3,0-2.5-0.5-3.5-1.4c-2.2-2.2-2.4-5.8-0.5-8.2c0.9-1.2,2.4-1.9,3.9-1.9
	c1.3,0,2.5,0.5,3.4,1.4c1.2,1.1,1.9,2.7,1.8,4.4v0.2H27.9c0,1.2,0.4,2.3,1.1,3.2c0.9,1.2,2.2,1.8,3.6,1.8c1.7,0,3.3-0.8,4.2-2.1
	L37.3,321.8z M37.5,318.1c0-1.2-0.4-2.4-1.2-3.3c-0.9-1.1-2.2-1.8-3.6-1.8c-1.1,0-2.2,0.4-3,1.1c-1.1,1-1.8,2.4-1.8,3.9H37.5z"/>
<path class="st0" d="M54.9,307.3h0.3l-0.2,0.2c-0.8,0.8-1.5,1.7-2.2,2.7c-1.6,2.3-2.4,5.1-2.4,7.9c0,0.6,0,1.2,0.1,1.8
	c0.3,3.4,1.9,6.5,4.4,8.8l0.2,0.2h-0.4l0,0c-0.2-0.2-0.4-0.4-0.6-0.6c-2.7-2.7-4.1-6.4-4-10.2c0-1.7,0.3-3.4,0.8-5
	C52,311,53.3,309.1,54.9,307.3L54.9,307.3z"/>
<path class="st0" d="M67.3,317.1c1,1.1,2,3.4,3,6.7l0.1,0.3H70l-0.1-0.1c-0.5-1.9-1.3-3.8-2.2-5.5c-0.6-0.9-1.3-1.6-2.2-2.2h-6.7
	v7.9h-0.5v-8V316v-7.9c0-0.1,0.1-0.2,0.2-0.2h7c1.1,0,2.2,0.3,3.1,1c1,0.7,1.7,1.9,1.7,3.2c0,0.8-0.3,1.6-0.7,2.3
	c-0.8,1.1-2,1.8-3.3,1.9C66.7,316.4,67,316.8,67.3,317.1z M65.6,315.7c1,0,1.9-0.3,2.7-0.8c1-0.6,1.6-1.7,1.6-2.9
	c0-0.9-0.3-1.7-0.9-2.3c-0.9-1-2.1-1.5-3.4-1.4h-6.8v7.5h6L65.6,315.7z"/>
<path class="st0" d="M82.7,321.8c-1,1.5-2.8,2.4-4.6,2.3c-1.3,0-2.5-0.5-3.4-1.4c-2.3-2.2-2.4-5.8-0.5-8.2c0.9-1.2,2.4-1.9,3.9-1.9
	c1.3,0,2.5,0.5,3.5,1.4c1.2,1.1,1.9,2.7,1.8,4.4v0.2H73.3c0,1.2,0.5,2.3,1.2,3.2c0.8,1.2,2.2,1.8,3.6,1.8c1.7,0,3.3-0.8,4.2-2.1
	L82.7,321.8z M82.9,318.1c0-1.2-0.4-2.4-1.2-3.3c-0.9-1.1-2.2-1.8-3.6-1.8c-1.1,0-2.2,0.4-3,1.1c-1.1,1-1.8,2.4-1.8,3.9H82.9z"/>
<path class="st0" d="M85.1,312.6h0.5v0.1l4.4,10.5l4.3-10.5v-0.1H95l-0.1,0.3l-4.6,11v0.1H90V324l-4.6-11L85.1,312.6z"/>
<path class="st0" d="M98.2,314.5c1.7-2.1,4.9-2.5,7-0.7c0.1,0.1,0.2,0.2,0.3,0.3c1.2,1.1,1.9,2.7,1.8,4.4c0,1.4-0.5,2.8-1.4,3.9
	c-0.9,1.2-2.4,1.9-3.9,1.9c-1.3,0-2.6-0.5-3.5-1.4c-1.2-1.1-1.8-2.7-1.8-4.3C96.8,317,97.3,315.6,98.2,314.5z M98.5,321.9
	c1.5,2,4.3,2.4,6.3,0.9c0.1-0.1,0.3-0.2,0.4-0.3c1.1-1,1.7-2.5,1.7-4c0-1.3-0.4-2.5-1.2-3.5c-0.8-1.2-2.2-1.8-3.6-1.8
	c-1.1,0-2.2,0.4-3.1,1.2c-1.1,1-1.7,2.5-1.7,4C97.3,319.6,97.7,320.9,98.5,321.9z"/>
<path class="st0" d="M110.2,307.6h0.5v16.6h-0.5V307.6z"/>
<path class="st0" d="M114.4,312.6h0.5v0.2v7.1c0,0.8,0.3,1.6,0.9,2.3c0.8,1,2,1.5,3.3,1.5c0.9,0,1.8-0.3,2.6-0.8
	c1-0.6,1.6-1.7,1.6-2.9v-7.3h0.5v0.2v7.1c0,1-0.4,1.9-1,2.6c-0.9,1-2.2,1.6-3.6,1.6c-1.1,0-2.1-0.3-3-1c-1-0.7-1.7-1.9-1.7-3.2
	L114.4,312.6L114.4,312.6z"/>
<path class="st0" d="M128.2,321.1c0,0.2,0,0.3,0,0.5c0.3,1.3,1.4,2,3.4,2h0.2v0.5h-0.2c-0.4,0-0.9,0-1.3-0.1
	c-1.5-0.1-2.6-1.4-2.6-2.9v-8h-2.1v-0.5h2.1v-2.8h0.5v2.8h3.6v0.5h-3.6L128.2,321.1z"/>
<path class="st0" d="M134.5,310.4V310h0.5v0.5L134.5,310.4L134.5,310.4z M134.5,312.6h0.5v11.5h-0.5V312.6z"/>
<path class="st0" d="M139.5,314.5c1.7-2.1,4.9-2.5,7-0.7c0.1,0.1,0.2,0.2,0.3,0.3c2.2,2.2,2.4,5.8,0.4,8.2c-0.9,1.2-2.4,1.9-3.9,1.9
	c-1.3,0-2.6-0.5-3.5-1.4c-1.2-1.1-1.8-2.7-1.8-4.3C138,317,138.5,315.6,139.5,314.5z M139.7,321.9c1.5,2,4.3,2.4,6.3,0.9
	c0.1-0.1,0.3-0.2,0.4-0.3c1.1-1,1.7-2.5,1.7-4c0-1.3-0.4-2.5-1.1-3.5c-1.5-2-4.3-2.4-6.3-0.9c-0.1,0.1-0.3,0.2-0.4,0.3
	c-1.1,1-1.7,2.5-1.7,4C138.5,319.6,138.9,320.9,139.7,321.9z"/>
<path class="st0" d="M160.6,324.2h-0.5v-0.2v-6.5c0-1-0.3-1.9-0.9-2.7c-1.3-1.8-3.7-2.2-5.5-0.9c-0.1,0.1-0.2,0.1-0.3,0.2
	c-1,0.8-1.6,2.1-1.5,3.4v6.7h-0.5v-11.5h0.5v2.7c0.2-0.4,0.4-0.7,0.6-1c1.5-1.9,4.2-2.3,6.2-0.8c0.1,0.1,0.2,0.1,0.3,0.2
	c1.1,0.9,1.7,2.3,1.6,3.7v6.5L160.6,324.2z"/>
<path class="st0" d="M163.4,307.3h0.3l0.1,0l0.3,0.4c2.7,2.8,4.2,6.5,4.2,10.4c0,1.2-0.2,2.4-0.5,3.6c-0.8,2.7-2.2,5.1-4.1,7.1
	l-0.1,0h-0.3l0.2-0.2c0.5-0.5,0.9-1,1.3-1.6c2-2.6,3.2-5.7,3.2-9c0-0.3,0-0.5,0-0.8c-0.3-3.7-1.9-7.2-4.5-9.8L163.4,307.3z"/>
<path class="st0" d="M181.9,314.5c1.7-2.1,4.9-2.5,7-0.7c0.1,0.1,0.2,0.2,0.3,0.3c2.2,2.2,2.4,5.8,0.4,8.2c-0.9,1.2-2.4,1.9-3.9,1.9
	c-1.3,0-2.6-0.5-3.5-1.4c-1.2-1.1-1.8-2.7-1.8-4.3C180.5,317,181,315.6,181.9,314.5z M182.2,321.9c1.5,2,4.3,2.4,6.3,0.9
	c0.1-0.1,0.3-0.2,0.4-0.3c1.1-1,1.7-2.5,1.7-4c0-1.3-0.4-2.5-1.2-3.5c-1.5-2-4.3-2.4-6.3-0.9c-0.1,0.1-0.3,0.2-0.4,0.3
	c-1.1,1-1.7,2.5-1.7,4C181,319.7,181.4,320.9,182.2,321.9L182.2,321.9z"/>
<path class="st0" d="M198.5,312.6h0.2v0.5h-3.7v11h-0.5v-11h-2.1v-0.5h2.1c0-0.8,0.2-1.6,0.5-2.4c0.5-1.4,1.9-2.3,3.4-2.2h0.2v0.5
	h-0.2c-0.5,0-1,0.1-1.4,0.3c-1.3,0.6-2,1.9-2,3.8L198.5,312.6z"/>
<path class="st0" d="M212.6,321.1c0,0.2,0,0.3,0,0.5c0.3,1.3,1.4,2,3.4,2h0.2v0.5H216c-0.4,0-0.9,0-1.3-0.1
	c-1.5-0.1-2.6-1.4-2.6-2.9v-8H210v-0.5h2.1v-2.8h0.5v2.8h3.6v0.5h-3.6L212.6,321.1z"/>
<path class="st0" d="M219.8,314.3c1.5-1.9,4.2-2.3,6.2-0.8c0.1,0.1,0.2,0.1,0.3,0.2c1.1,0.9,1.7,2.3,1.6,3.7v6.5v0.3h-0.5v-0.2v-6.5
	c0-1-0.3-1.9-0.9-2.7c-1.3-1.8-3.7-2.2-5.5-0.9c-0.1,0.1-0.2,0.1-0.3,0.2c-1,0.8-1.5,2.1-1.5,3.4v6.7h-0.5v-15h0.5v6.2
	C219.4,315,219.6,314.6,219.8,314.3z"/>
<path class="st0" d="M240.6,321.8c-1,1.5-2.8,2.4-4.6,2.3c-1.3,0-2.5-0.5-3.4-1.4c-2.3-2.2-2.4-5.8-0.5-8.2c0.9-1.2,2.4-1.9,3.9-1.9
	c1.3,0,2.5,0.5,3.5,1.4c1.2,1.1,1.9,2.7,1.8,4.4v0.2h-10.1c0,1.2,0.5,2.3,1.1,3.2c0.9,1.2,2.2,1.8,3.6,1.8c1.7,0,3.3-0.8,4.2-2.1
	L240.6,321.8z M240.8,318.1c0-1.2-0.4-2.4-1.2-3.3c-0.9-1.1-2.2-1.8-3.6-1.7c-1.1,0-2.2,0.4-3,1.1c-1.1,1-1.8,2.4-1.8,3.9
	L240.8,318.1z"/>
<path class="st0" d="M255.4,324.1h-0.5v-16.1c0-0.1,0.1-0.1,0.1-0.2c0.2-0.1,0.3,0,0.3,0.1l7,15.4l7-15.4c0.1-0.1,0.1-0.1,0.2-0.1
	c0.2,0,0.2,0.1,0.2,0.2v15.8v0.2h-0.5v-0.2v-14.7l-6.8,14.8c0,0-0.1,0.1-0.1,0.1c-0.2,0.1-0.3,0-0.3-0.1l-6.8-14.8L255.4,324.1
	L255.4,324.1z"/>
<path class="st0" d="M274.6,314.5c1.7-2.1,4.9-2.5,7-0.7c0.1,0.1,0.2,0.2,0.3,0.3c1.2,1.1,1.9,2.7,1.8,4.4c0,1.4-0.5,2.8-1.4,3.9
	c-0.9,1.2-2.4,1.9-3.9,1.9c-1.3,0-2.6-0.5-3.5-1.4c-1.2-1.1-1.8-2.7-1.8-4.3C273.2,317,273.7,315.6,274.6,314.5z M274.9,321.9
	c1.5,2,4.3,2.4,6.3,0.9c0.1-0.1,0.3-0.2,0.4-0.3c1.1-1,1.7-2.5,1.7-4c0-1.3-0.4-2.5-1.2-3.5c-0.8-1.2-2.2-1.8-3.6-1.8
	c-1.2,0-2.3,0.5-3.1,1.2c-1.1,1-1.7,2.5-1.7,4C273.6,319.7,274.1,320.9,274.9,321.9L274.9,321.9z"/>
<path class="st0" d="M287,314.5c1.7-2.1,4.9-2.5,7-0.7c0.1,0.1,0.2,0.2,0.3,0.3c1.2,1.1,1.9,2.7,1.8,4.4c0,1.4-0.5,2.8-1.4,3.9
	c-0.9,1.2-2.4,1.9-3.9,1.9c-1.3,0-2.6-0.5-3.5-1.4c-1.2-1.1-1.8-2.7-1.8-4.3C285.6,317,286.1,315.6,287,314.5z M287.3,321.9
	c1.5,2,4.3,2.4,6.3,0.9c0.1-0.1,0.3-0.2,0.4-0.3c1.1-1,1.7-2.5,1.7-4c0-1.3-0.4-2.5-1.2-3.5c-0.8-1.2-2.2-1.8-3.6-1.8
	c-1.2,0-2.3,0.5-3.1,1.2c-1.1,1-1.7,2.5-1.7,4C286.1,319.7,286.5,320.9,287.3,321.9z"/>
<path class="st0" d="M308.2,324.2h-0.5v-0.2v-6.5c0-1-0.3-1.9-0.9-2.7c-1.3-1.8-3.7-2.2-5.5-0.9c-0.1,0.1-0.2,0.1-0.3,0.2
	c-1,0.8-1.5,2.1-1.5,3.4v6.7h-0.5v-11.5h0.5v2.7c0.2-0.4,0.4-0.7,0.6-1c1.5-1.9,4.2-2.3,6.2-0.8c0.1,0.1,0.2,0.1,0.3,0.2
	c1.1,0.9,1.7,2.3,1.6,3.7v6.5L308.2,324.2z"/>
<path class="st0" d="M5.7,200.8H0l1.6-3.7l17-39.1l0.7-1.6h3.4l0.7,1.6l17,39.1l1.6,3.7h-5.7l-0.7-1.6L21,165.6L6.4,199.2L5.7,200.8
	z"/>
<path class="st0" d="M48.3,174.4c2.5-3.2,6.4-5,10.5-5c3.4,0,6.7,1.3,9.1,3.6v-19.2h5.2v47h-5.2v-3.6c-2.5,2.3-5.8,3.6-9.1,3.6
	c-3.5,0-6.8-1.3-9.3-3.8c-3.3-3-5.1-7.4-5-11.9C44.4,181.2,45.7,177.4,48.3,174.4z M51.6,191.4c1.5,2.6,4.3,4.1,7.2,4.1
	c2,0,4-0.7,5.5-2.1c2.4-2.1,3.8-5.2,3.7-8.4c0-2.3-0.6-4.5-1.9-6.3c-1.5-2.6-4.3-4.1-7.2-4.1c-2,0-4,0.7-5.5,2.1
	c-2.4,2.1-3.8,5.2-3.7,8.4C49.7,187.4,50.3,189.6,51.6,191.4L51.6,191.4z"/>
<path class="st0" d="M84.8,174.4c2.5-3.2,6.4-5,10.5-5c3.4,0,6.7,1.3,9.1,3.6v-3.6h5.2v31.3h-5.2v-3.6c-2.5,2.3-5.8,3.6-9.1,3.6
	c-3.5,0-6.9-1.3-9.3-3.8c-3.3-3-5.1-7.4-5-11.9C80.9,181.2,82.3,177.4,84.8,174.4z M88.1,191.4c1.5,2.6,4.3,4.1,7.2,4.1
	c2,0,4-0.7,5.5-2.1c2.4-2.1,3.8-5.2,3.7-8.4c0-2.3-0.6-4.5-1.9-6.3c-1.5-2.6-4.3-4.1-7.2-4.1c-2,0-4,0.7-5.5,2.1
	c-2.4,2.1-3.8,5.2-3.7,8.4C86.2,187.4,86.9,189.6,88.1,191.4L88.1,191.4z"/>
<path class="st0" d="M140.9,173.9c3.6-4.9,10.5-5.9,15.4-2.3c0.2,0.2,0.5,0.4,0.7,0.6c2.9,2.4,4.5,6.1,4.4,9.9v16.2l0.1,2.7h-5.2
	l-0.1-2.6l-0.1-16.2c0-1.4-0.3-2.8-1-4c-1.5-3-5.1-4.2-8-2.7c-0.3,0.2-0.6,0.3-0.9,0.5c-1.9,1.4-3,3.7-2.9,6.1v16.2l0.1,2.7h-5.1
	l-0.1-2.6l-0.1-13.6V182c0-1.4-0.3-2.8-1-4c-1.5-3-5.1-4.2-8-2.7c-0.3,0.2-0.6,0.3-0.9,0.5c-1.9,1.4-3,3.7-2.9,6.1v18.8h-5.2v-31.4
	h5.2v2.1c1.9-1.3,4.1-2.1,6.4-2.1c3.5,0.1,6.8,1.8,9,4.6C140.8,174,140.9,174,140.9,173.9z"/>
<path class="st0" d="M548.8,247.6v20.5H545v-9.1h-1.9v8.8h-3.8v-2.2l-2.7,1.3l-2.5-5.2c-1.3,3.5-3.2,5.4-5.8,5.5V263
	c2.3-0.4,3.6-6,3.6-15l3.8,0.1c0,2.6-0.1,5.3-0.5,7.9l3.9,7.7v-16h3.8v7.4h1.9v-7.5L548.8,247.6z"/>
<path class="st0" d="M572.2,263.6v3.7h-20.7v-3.7h8.3v-2.3h-7.2V253h14.5v-1.4h-14.5V248h18.5v8.3h-14.5v1.4h14.7v3.5H564v2.3
	L572.2,263.6z"/>
<path class="st0" d="M595.3,257.5v3.3H587v2.8h-4.1v-2.8h-8.3v-3.3H595.3z M575.6,251.9c0-3.2,4-4.6,9.4-4.6s9.4,1.5,9.4,4.6
	s-4,4.7-9.4,4.7S575.6,255.1,575.6,251.9z M579.9,264.7h14.5v3.4h-18.6V262h4.1V264.7z M579.9,251.9c0,1,2,1.5,5.1,1.5
	s5.1-0.5,5.1-1.5s-2-1.5-5.1-1.5S579.9,250.9,579.9,251.9L579.9,251.9z"/>
<path class="st0" d="M617.7,252h-13.3v-3.1h4.9v-1.7h4.1v1.7h4.2L617.7,252z M605.1,256.6c0-2.6,2.8-4,6.2-4s6.2,1.4,6.2,4
	s-2.8,4.1-6.2,4.1S605.1,259.2,605.1,256.6L605.1,256.6z M605.9,261.3h18.4v7h-4.1v-3.6h-14.3L605.9,261.3z M608.9,256.6
	c0,0.7,0.9,1.2,2.3,1.2s2.3-0.5,2.3-1.2s-0.9-1.2-2.3-1.2S609,255.8,608.9,256.6L608.9,256.6z M624.3,247.6v13h-4v-1.9h-2v-3.4h2
	v-1.4h-2v-3.4h2v-2.9L624.3,247.6z"/>
<path class="st0" d="M640.3,258h-12.2v-10.2h12.2L640.3,258z M647.6,263.7c0,3.4-4.1,4.6-9.4,4.6s-9.4-1.2-9.4-4.6s4.1-4.6,9.4-4.6
	S647.6,260.3,647.6,263.7L647.6,263.7z M636.3,251.1h-4.2v3.6h4.2V251.1z M643.2,263.7c0-1-2.2-1.4-5-1.4s-5,0.4-5,1.4
	s2.2,1.3,5,1.3S643.2,264.7,643.2,263.7L643.2,263.7z M643.4,256.9h-2.2v-3.5h2.2v-1.4h-2.2v-3.4h2.2v-1.1h4v11.3h-4V256.9z"/>
<path class="st0" d="M659.8,267.1h-9.2v-3.8h9.3c1.8,0.1,3.6-0.2,5.3-0.8v3.8C663.5,266.9,661.6,267.2,659.8,267.1z M664.2,254.4
	c-0.1,3.6-3,6.5-6.6,6.4s-6.5-3-6.4-6.6c0.1-3.6,3-6.4,6.5-6.4c3.5-0.1,6.4,2.5,6.5,6C664.2,253.9,664.2,254.1,664.2,254.4z
	 M655,254.4c0,1.8,1,3,2.6,3s2.6-1.3,2.6-3c0.2-1.5-0.9-2.8-2.4-3c-0.1,0-0.1,0-0.2,0C656.1,251.3,655,252.6,655,254.4z
	 M670.5,268.1h-4.1v-20.5h4.1L670.5,268.1z"/>
<path class="st0" d="M693.4,250.5c0,5.3-5.4,7.1-12.4,7.1v-3.3c4.9-0.1,8.3-1.2,8.3-3v-0.2H681v-3.3h12.4V250.5z M700.2,264.5h-14.3
	v0.8h14.5v2.8h-18.5V262h14.3v-0.8h-14.3v-2.8h18.4L700.2,264.5z M700.2,257.6h-4.1v-10h4.1V257.6z"/>
<path class="st0" d="M724.2,258.6h-20.7v-2.9h20.7V258.6z M723.2,251.1c0,2.9-3.9,3.9-9.3,3.9s-9.3-1-9.3-3.9s3.9-3.9,9.3-3.9
	S723.2,248.2,723.2,251.1L723.2,251.1z M723,264.7h-14.3v0.7h14.6v2.6h-18.5v-5.5h14.3v-0.7h-14.4v-2.5H723V264.7z M708.8,251.1
	c0,0.7,2,1,5,1s5-0.3,5-1s-2-1-5-1S708.8,250.4,708.8,251.1L708.8,251.1z"/>
<path class="st0" d="M742.4,248h4v19.1h-12.2V248h4v6h4.2L742.4,248z M742.4,263.3v-5.6h-4.2v5.6H742.4z M753.1,247.5V268H749v-20.5
	H753.1z"/>
<path class="st0" d="M777.1,264.2h-8.3v4.4h-4.1v-4.4h-8.3v-3.7h20.7V264.2z M766.1,256.4c-2.7,1.9-5.8,2.9-9.1,2.9v-3.7
	c3.1-0.1,5.9-1.2,7.2-3h-6.7v-3.7h7.1v-1.8h4.2v1.8h7.2v3.7h-7.1c-0.1,0.3-0.2,0.6-0.3,0.9l8.1,2.3l-1.2,3.5L766.1,256.4z"/>
<path class="st0" d="M788.4,263.4c1.8,0,3.6-0.3,5.3-0.9v3.6c-1.8,0.7-3.7,1-5.6,1h-8V248H792v3.7h-7.8v11.7L788.4,263.4z
	 M801.1,259h-2.4v9.1h-4v-20.5h4v7.5h2.4V259z"/>
<path class="st0" d="M534.9,285.6l5,9.1l-2,1l-3.6-6.8c-1,4.2-2.8,6.5-5.6,7.1v-2.4c3.2-1,4.3-7.2,4.4-16.4l2.3,0.1
	C535.4,280.2,535.3,282.9,534.9,285.6z M548.3,276.9v20.5H546v-10h-3.5v9.6h-2.2v-20h2.2v8.1h3.5v-8.3L548.3,276.9z"/>
<path class="st0" d="M572.1,294.2v2.2h-20.5v-2.2h9v-3.9H553v-7.4h15.4v-3.2H553v-2.1h17.8v7.4h-15.4v3.2h15.7v2.1h-8v3.9
	L572.1,294.2z"/>
<path class="st0" d="M595.2,287.4v2h-9v3.5h-2.4v-3.5h-9v-2H595.2z M575.9,281.1c0-3,4.1-4.4,9.1-4.4s9.1,1.4,9.1,4.4
	s-4.1,4.4-9.1,4.4S575.9,284.2,575.9,281.1L575.9,281.1z M578.6,295.1h15.6v2h-18v-5.8h2.4L578.6,295.1z M578.4,281.1
	c0,1.7,3,2.5,6.6,2.5s6.6-0.8,6.6-2.5s-3-2.5-6.6-2.5S578.4,279.5,578.4,281.1L578.4,281.1z"/>
<path class="st0" d="M617.8,280.7h-13.2v-1.9h5.8v-2.3h2.4v2.3h5.1V280.7z M605.5,285.8c0-2.5,2.6-4,6-4s6,1.4,6,4s-2.6,4-6,4
	S605.5,288.3,605.5,285.8L605.5,285.8z M606.2,291h17.6v6.3h-2.4v-4.3h-15.2V291z M607.8,285.8c0,1.2,1.4,2.2,3.7,2.2
	s3.7-0.9,3.7-2.2s-1.4-2.2-3.7-2.2S607.8,284.5,607.8,285.8z M623.8,276.9v13.1h-2.3v-2.7h-3.1v-2h3.1v-2.5h-3.1v-2h3.1v-3.9
	L623.8,276.9z"/>
<path class="st0" d="M640,287h-11.5v-9.6H640V287z M647.1,293.1c0,3.1-3.9,4.2-8.9,4.2s-8.8-1.2-8.8-4.2s3.9-4.2,8.8-4.2
	S647.1,290,647.1,293.1L647.1,293.1z M637.6,279.4h-6.8v5.6h6.8V279.4z M644.6,293.1c0-1.6-2.8-2.3-6.3-2.3s-6.3,0.7-6.3,2.3
	s2.8,2.3,6.3,2.3S644.6,294.7,644.6,293.1L644.6,293.1z M644.6,285.1h-3.4V283h3.4v-2.4h-3.4v-2.1h3.4v-1.8h2.3v11.3h-2.3V285.1z"/>
<path class="st0" d="M650.7,293.9h8.4c2.3,0.1,4.6-0.2,6.7-1v2.2c-2.2,0.8-4.5,1.1-6.9,1h-8.2V293.9z M651.4,283.7
	c0.1-3.5,3-6.3,6.5-6.2c3.5,0.1,6.3,3,6.2,6.5c-0.1,3.5-2.9,6.2-6.3,6.2c-3.4,0.1-6.2-2.5-6.3-5.9
	C651.4,284.1,651.4,283.9,651.4,283.7L651.4,283.7z M661.8,283.7c-0.2-2.2-2.1-3.9-4.3-3.7c-2.2,0.2-3.9,2.1-3.7,4.3
	c0.2,2.1,1.9,3.7,4,3.7c2.2,0,4-1.8,4-4C661.8,283.9,661.8,283.8,661.8,283.7L661.8,283.7z M667.6,276.9h2.4v20.5h-2.4V276.9z"/>
<path class="st0" d="M681.3,284.6c5.8,0,9.7-1.4,9.7-4.8v-0.5h-9.7v-2h12v2.1c0,5-4.9,7.1-12,7.1V284.6z M682.3,291.7h15v-1.8h-15
	V288h17.4v5.4h-15v1.8h15.5v1.9h-17.8L682.3,291.7z M697.3,276.8h2.4v10h-2.4V276.8z"/>
<path class="st0" d="M703.6,285.5h20.5v1.9h-20.5V285.5z M704.8,280.5c0-2.7,4.1-3.7,9-3.7s9,1,9,3.7s-4.1,3.7-9,3.7
	S704.8,283.2,704.8,280.5L704.8,280.5z M705,292.2h15.3v-1.4H705V289h17.7v4.9h-15.3v1.4H723v1.8h-18L705,292.2z M720.4,280.5
	c0-1.4-3-1.9-6.5-1.9s-6.5,0.6-6.5,1.9s3,1.9,6.5,1.9S720.4,281.9,720.4,280.5z"/>
<path class="st0" d="M743.9,277.5h2.3v18.7h-11.6v-18.7h2.4v7.1h6.9L743.9,277.5z M743.9,293.9v-7.2H737v7.2H743.9z M752.6,276.9
	v20.5h-2.4v-20.5H752.6z"/>
<path class="st0" d="M777,292.3h-9v5.5h-2.4v-5.5h-9v-2.2H777V292.3z M757.2,288.1V286c4.3-0.3,7.4-2.3,8.3-5.1h-7.8v-2.2h7.8v-2.3
	h2.5v2.3h7.9v2.2H768c-0.1,0.6-0.3,1.2-0.6,1.8l8.9,3.3l-0.8,2.1l-9.3-3.6C764.3,286.6,761.1,287.9,757.2,288.1z"/>
<path class="st0" d="M788.7,294c1.8,0,3.6-0.3,5.3-1v2.2c-1.7,0.7-3.6,1-5.4,1h-8v-18.6h11.8v2.2H783V294H788.7z M801,287.4h-2.9
	v9.9h-2.4v-20.5h2.4v8.3h2.9V287.4z"/>
<path class="st0" d="M534.5,315.3l5.2,9l-0.8,0.5l-4.6-8c-0.8,4.7-2.4,7.3-5.3,8.4v-1c4-1.6,4.9-8.2,5-17.5h1
	C535,309.6,534.9,312.5,534.5,315.3z M547.9,306.1v20.5h-1v-10.7H542v10.4h-1v-20h1v8.7h4.9v-8.9L547.9,306.1z"/>
<path class="st0" d="M572,324.5v0.9h-20.2v-0.9h9.5v-5.2h-8v-6.6h16.2V308h-16.1v-0.9h17.2v6.6h-16.2v4.7h16.5v0.9h-8.6v5.2
	L572,324.5z"/>
<path class="st0" d="M595.1,317.2v0.9h-9.6v4.1h-1v-4.1h-9.6v-0.9H595.1z M576.1,310.4c0-2.9,4.2-4.2,8.8-4.2s8.8,1.3,8.8,4.2
	s-4.2,4.2-8.8,4.2S576.1,313.3,576.1,310.4L576.1,310.4z M577.4,325.2H594v0.9h-17.5v-5.6h1L577.4,325.2z M577.1,310.4
	c0,2.2,3.8,3.3,7.8,3.3s7.8-1.1,7.8-3.3s-3.8-3.3-7.8-3.3S577.2,308.2,577.1,310.4L577.1,310.4z"/>
<path class="st0" d="M618,309.5h-13.2v-0.9h6.4v-2.8h1v2.8h5.8V309.5z M605.9,314.9c0-2.5,2.5-3.9,5.8-3.9s5.8,1.5,5.8,3.9
	s-2.5,3.9-5.8,3.9S605.9,317.4,605.9,314.9L605.9,314.9z M606.5,320.7h16.9v5.8h-1v-4.8h-15.9L606.5,320.7z M606.9,314.9
	c0,1.7,1.8,3,4.8,3s4.8-1.3,4.8-3s-1.8-3-4.8-3S606.9,313.2,606.9,314.9L606.9,314.9z M623.5,306.1v13.1h-1V316h-4v-1h4v-3.3h-4
	v-0.9h4v-4.7L623.5,306.1z"/>
<path class="st0" d="M639.8,316h-11v-9.2h11V316z M646.7,322.4c0,2.8-3.7,4-8.5,4s-8.5-1.2-8.5-4s3.7-4,8.5-4
	S646.7,319.6,646.7,322.4L646.7,322.4z M638.8,307.8h-9v7.3h9V307.8z M645.7,322.4c0-2.1-3.2-3-7.4-3s-7.4,1-7.4,3s3.2,3,7.4,3
	S645.7,324.5,645.7,322.4L645.7,322.4z M645.5,314.3h-4.3v-0.9h4.3v-3.9h-4.3v-0.9h4.3v-2.4h1v11.4h-1L645.5,314.3z"/>
<path class="st0" d="M658.3,325.2h-7.5v-0.9h7.6c3.5,0,6.4-0.4,7.8-1.1v1C664.9,324.8,662,325.2,658.3,325.2z M664,313.1
	c-0.1,3.4-2.9,6.1-6.3,6c-3.4-0.1-6.1-2.9-6-6.3c0.1-3.4,2.8-6,6.2-6c3.3-0.1,6.1,2.5,6.2,5.8C664,312.8,664,312.9,664,313.1z
	 M652.7,313.1c0.1,2.8,2.5,5,5.3,4.9c2.8-0.1,5-2.5,4.9-5.3c-0.1-2.8-2.4-4.9-5.1-4.9c-2.8-0.1-5.1,2.1-5.2,4.9
	C652.7,312.8,652.7,313,652.7,313.1L652.7,313.1z M669.5,326.6h-1v-20.5h1V326.6z"/>
<path class="st0" d="M693.2,308.5c0,5.2-4.5,7.1-11.7,7.1v-0.9c6.5,0,10.7-1.6,10.7-6.2v-0.7h-10.7v-0.9h11.7V308.5z M699.2,322.4
	h-15.6v2.8H700v0.9h-17.4v-4.7h15.6v-2.8h-15.6v-0.9h16.7V322.4z M699.2,316.3h-1v-10.1h1V316.3z"/>
<path class="st0" d="M724,316.2h-20.3v-0.9H724V316.2z M722.6,309.9c0,2.6-4.2,3.6-8.8,3.6s-8.8-1-8.8-3.6s4.2-3.6,8.8-3.6
	S722.6,307.2,722.6,309.9L722.6,309.9z M722.4,322.9h-16.1v2.5h16.6v0.9h-17.6V322h16.1v-2.4h-16.1v-0.9h17.2L722.4,322.9z
	 M706.1,309.9c0,1.9,3.8,2.7,7.7,2.7s7.7-0.7,7.7-2.7s-3.8-2.7-7.7-2.7S706.1,307.9,706.1,309.9L706.1,309.9z"/>
<path class="st0" d="M745.1,306.9h1v18.3H735v-18.3h1v7.9h9.1L745.1,306.9z M745.1,324.3v-8.6H736v8.6H745.1z M752.1,306.1v20.5h-1
	v-20.5H752.1z"/>
<path class="st0" d="M776.9,320.6h-9.7v6.5h-1v-6.5h-9.6v-0.9h20.3L776.9,320.6z M757.2,317.1v-0.9c5.3-0.5,8.4-3.3,9-6.8h-8.4v-0.9
	h8.3v-2.8h1v2.8h8.5v0.9h-8.4c-0.1,0.9-0.4,1.7-0.8,2.5l9.6,4.1l-0.5,0.9l-9.6-4.2C764.4,315.1,761.4,316.7,757.2,317.1L757.2,317.1
	z"/>
<path class="st0" d="M789,324.3c1.8,0,3.6-0.3,5.3-1v1c-1.7,0.7-3.5,1-5.3,1h-8.1v-18.2h11.8v0.9h-10.8v16.2L789,324.3z M801,316.1
	h-3.2v10.6h-1v-20.5h1v9h3.2V316.1z"/>
<path class="st0" d="M580.4,164.6h-2.7c-2-8.4-10.8-14.5-21.3-14.5c-13.3,0-22.6,9.7-22.6,23.2s9.2,23.2,22.8,23.2
	c12.1,0,21.4-8.2,21.8-20.5h-23.4v-2.4h26.1v1.6c0,14.1-10.8,23.6-24.7,23.6c-14.8,0-25.2-10.8-25.2-25.6s10.4-25.5,25.2-25.5
	C568.7,147.8,578.2,155.1,580.4,164.6z"/>
<path class="st0" d="M591.9,149h28.3v46.8h-28.3V149z M594.5,193.3h23.1v-41.9h-23.1L594.5,193.3z M643.7,172.1h-8.4v27.3h-2.6v-53
	h2.6v23.2h8.4V172.1z"/>
<path class="st0" d="M650,179.2v-2.5c8.1,0,15.4-4,17.7-12.8H650v-2.4h18.2c0.2-1.3,0.3-2.6,0.2-3.9v-6.8H650v-2.4h21.1v9.2
	c0,1.3-0.1,2.6-0.2,3.9h11v-14.6h2.7v29.2h-2.7v-12.2h-11.5C667.9,174.3,659.4,179.2,650,179.2z M699.1,198.8l-24-12
	c-5.2,7-13.4,11.2-22.2,11.4v-2.5c10-0.2,21.2-6.8,23.5-18.4l2.6,0.5c-0.4,2.5-1.3,4.8-2.6,7l24,11.7L699.1,198.8z M698.1,184.5
	h-2.7v-38h2.6L698.1,184.5z"/>
<path class="st0" d="M725.7,177.3v-2.5c11.4-2.5,17.7-14.7,17.7-27.5l2.6,0.1c0,4.6-0.8,9.3-2.3,13.6l18.1,13.8l-1.7,2l-17.5-13.3
	C739.2,170.6,733.5,175.7,725.7,177.3z M732.3,195.8H774v2.4h-44.3v-15.4h2.6L732.3,195.8z M780.4,160.2v2.4H772v23.3h-2.6v-39.4
	h2.6v13.7H780.4z"/>
<path class="st0" d="M837.4,193.9v2.4h-52.3v-2.4H837.4z M786.2,179.4V177c12.3,0,23.4-14.3,26.8-29.9l2.7,0.7
	c-0.9,4.2-2.4,8.3-4.4,12.2l24,17.7l-1.6,1.9l-23.5-17.4C804.4,172.2,795.5,179.4,786.2,179.4L786.2,179.4z"/>
<path class="st0" d="M2.7,18.9v-4.6h14.2V12H2.6v-1.1h15.4v4.6H3.9v2.3h14.8v1.1H2.7z M16.9,9.8V0.2h1.2v4l2.9,0v1.1h-2.9v4.4H16.9z
	 M7.8,9.3V8.2h0.1c2.2,0,4.6-1.7,4.6-5.4V2H7.9V0.9h5.9v1.9c0,2-0.6,3.7-1.8,4.9c-1.1,1.1-2.5,1.7-4,1.7H7.8z M1.6,8.9V7.8h0.1
	c2,0,4.1-1.6,4.1-5.1V2H1.6V0.9h5.6v1.7c0,3.6-2.3,6.3-5.4,6.3H1.6z"/>
<path class="st0" d="M1.7,8.7V7.9C4,7.9,6,6,6,2.6V1.9H1.7V1H7v1.6C7,6.4,4.6,8.7,1.7,8.7z M3.8,17.9h14.8v0.9H2.8v-4.3H17v-2.6H2.8
	V11h15.2v4.3H3.8V17.9z M7.9,9.2V8.3c2.1,0,4.8-1.5,4.8-5.6V1.9H8V1h5.6v1.8C13.6,7.1,10.6,9.2,7.9,9.2z M20.8,4.4v0.9h-2.9v4.4H17
	V0.4h0.9v4L20.8,4.4z"/>
<path class="st0" d="M23.8,18.9v-7h16v7H23.8z M38.5,17.7V13H25v4.7H38.5z M22.3,9.6V8.5h18.8v1.1H22.3z M38.5,7.1V1.8H32V0.6h7.7
	v6.5H38.5z M29.8,7.1V1.8h-6.2V0.6H31v6.5H29.8z"/>
<path class="st0" d="M41,9.5H22.5V8.6H41V9.5z M30.9,7h-0.9V1.6h-6.2V0.8h7.1V7z M39.6,18.7H23.9V12h15.7V18.7z M38.7,17.9v-5H24.8
	v5H38.7z M39.6,7h-0.9V1.6h-6.4V0.8h7.4L39.6,7z"/>
<path class="st0" d="M59,19.3V0.2h1.2v8.2h3v1.1h-3v9.7H59z M50.2,18.2c-3,0-5.1-2.4-5.1-5.8s2.2-5.8,5.1-5.8s5.1,2.4,5.1,5.8
	S53.2,18.2,50.2,18.2z M50.1,7.8c-2,0-3.9,1.6-3.9,4.7c0,3.1,2,4.7,3.9,4.7c2.2,0,3.9-1.9,4-4.5l0-0.1C54.1,9.4,52.1,7.8,50.1,7.8z
	 M43.9,4.8V3.7h5.6V0.2h1.2v3.5h5.6v1.1H43.9z"/>
<path class="st0" d="M50.6,3.8h5.6v0.9H44.1V3.8h5.6V0.3h0.9V3.8z M55.2,12.4c0,3.5-2.3,5.6-5,5.6s-5-2.2-5-5.6s2.3-5.7,5-5.7
	S55.2,8.9,55.2,12.4z M54.2,12.4c0-2.9-1.9-4.8-4.1-4.8S46,9.5,46,12.4s1.9,4.8,4.1,4.8S54.2,15.4,54.2,12.4L54.2,12.4z M63.1,9.5
	h-3v9.7h-0.9V0.4h0.9v8.2h3V9.5z"/>
<path class="st0" d="M64.6,18.2v-1.1h7.7V7.8h1.2v9.3h9.9v1.1H64.6z M80.9,13.8V2.2H65.9V1.1h16.1v12.7H80.9z"/>
<path class="st0" d="M83.4,17.2v0.9H64.8v-0.9h7.7V7.9h0.9v9.3L83.4,17.2z M81,2.1H66.1V1.2h15.8v12.4H81V2.1z"/>
<path class="st0" d="M107.6,19.3V0.2h1.2v8.2h3v1.1h-3v9.7H107.6z M92.9,17.9v-1.2H93c5.5,0,8.9-4.3,8.9-11.3V2.3h-9V1.1H103v4.2
	c0,7.8-3.8,12.6-10,12.6H92.9z"/>
<path class="st0" d="M93,1.2h9.9v4.1c0,7.4-3.6,12.4-9.9,12.4v-0.9c5.6,0,9-4.5,9-11.5V2.1h-9V1.2z M111.7,9.5h-3v9.7h-0.9V0.4h0.9
	v8.2h3V9.5z"/>
<path class="st0" d="M129.3,19.1v-4.5h-14.9v-1.1h16.1v5.7H129.3z M113.1,11.1V10h8.8V7.5h-7.3V0.6h15.8v1.1h-14.6v4.6h14.8v1.1
	h-7.6V10h8.9v1.1H113.1z"/>
<path class="st0" d="M131.9,10.2V11h-18.6v-0.9h8.8V7.4h-7.3V0.8h15.5v0.9h-14.6v4.9h14.8v0.9H123v2.8H131.9z M114.6,13.6h15.8V19
	h-0.9v-4.5h-14.9L114.6,13.6z"/>
<path class="st0" d="M144.1,19.1c-5,0-7.9-1.4-7.9-3.7c0-2.4,2.9-3.7,7.9-3.7c5,0,7.9,1.3,7.9,3.7C152,17.8,149.1,19.1,144.1,19.1z
	 M144.1,12.9c-4.1,0-6.7,1-6.7,2.6c0,1.6,2.6,2.6,6.7,2.6s6.7-1,6.7-2.6C150.7,13.8,148.2,12.9,144.1,12.9z M150.6,11.1V5.3h-5.5
	V4.2h5.5v-4h1.2v11H150.6z M134.4,9.4l0.1,0c3.7-0.8,6-4.2,6-8.7V0.5h1.2l0,0.1c0,1.5-0.2,2.9-0.7,4.3l6.3,4.3l-0.7,0.9L140.6,6
	c-1.2,2.3-3.4,4-5.9,4.5l-0.2,0V9.4z"/>
<path class="st0" d="M134.6,10.4V9.5c4-0.9,6.1-4.7,6.1-8.8h0.9c0,1.5-0.2,3-0.8,4.4l6.3,4.3l-0.6,0.7l-6.1-4.2
	C139.4,8.2,137.2,9.9,134.6,10.4z M151.8,15.4c0,2.5-3.4,3.6-7.7,3.6s-7.8-1.1-7.8-3.6s3.4-3.6,7.8-3.6S151.8,12.9,151.8,15.4
	L151.8,15.4z M150.9,15.4c0-1.8-3-2.7-6.8-2.7s-6.8,0.9-6.8,2.7s3,2.7,6.8,2.7S150.9,17.2,150.9,15.4L150.9,15.4z M150.7,5.2h-5.5
	V4.3h5.5v-4h0.9V11h-0.9V5.2z"/>
<path class="st0" d="M171,19.3c-4.9,0-7.4-0.9-7.4-2.6c0-1.2,1.3-2.7,7.4-2.7c4.9,0,7.4,0.9,7.4,2.7c0,0,0,0,0,0
	C178.4,18.4,176,19.3,171,19.3z M171,15.1c-3.8,0-6.2,0.6-6.2,1.5c0,0.7,1.6,1.5,6.2,1.5c4.6,0,6.2-0.8,6.2-1.5
	C177.2,15.9,175.3,15.1,171,15.1z M162.6,13.1V12h7.8v-1.7h1.2V12h7.8v1.1H162.6z M161.6,9.6V8.5h8.8V6.1h1.2v2.3h8.8v1.1H161.6z
	 M170.7,4.1c-1.9,1.9-5.3,2.6-7.8,2.7l-0.1,0V5.7l0.1,0c3.5-0.1,7.3-1.5,8-3.9h-7.7V0.6H179v1.1h-7c-0.1,0.5-0.3,0.9-0.5,1.3
	l8.1,2.7l-0.5,1.1L170.7,4.1z"/>
<path class="st0" d="M180.3,8.6v0.8h-18.6V8.6h8.8V6.3h0.9v2.3H180.3z M171.5,12.2h7.8V13h-16.5v-0.8h7.8v-1.7h0.9L171.5,12.2z
	 M162.8,6.7V5.8c3.5-0.1,7.6-1.5,8.1-4.2h-7.7V0.8h15.6v0.9h-7c-0.1,0.5-0.3,1.1-0.6,1.5l8.2,2.7l-0.4,0.9l-8.4-2.8
	C168.9,5.7,165.7,6.6,162.8,6.7z M178.3,16.7c0,1.5-2.1,2.5-7.3,2.5s-7.3-1-7.3-2.5s2.1-2.5,7.3-2.5S178.3,15.2,178.3,16.7
	L178.3,16.7z M177.4,16.7c0-1-2.4-1.7-6.3-1.7s-6.3,0.6-6.3,1.7s2.4,1.6,6.3,1.6S177.4,17.7,177.4,16.7L177.4,16.7z"/>
<path class="st0" d="M184.3,18.9v-5.4h1.2l0,4.3h15.1v1.1H184.3z M182.8,11.6v-1.1h18.9v1.1H182.8z M192.2,8.4
	c-4.1,0-8.2-1.3-8.2-4.1s4.1-4.1,8.2-4.1c3.8,0,8.2,1.1,8.2,4.1C200.5,7.2,196.3,8.4,192.2,8.4z M185.2,4.5c0.2,1.8,3.6,2.8,7,2.8
	c3.5,0,7-1,7-2.9s-3.5-2.9-7-2.9c-3.4,0-7,0.9-7,2.9L185.2,4.5L185.2,4.5z"/>
<path class="st0" d="M201.5,11.5h-18.6v-0.9h18.6V11.5z M200.3,4.4c0,2.7-3.9,3.9-8.1,3.9s-8.1-1.3-8.1-3.9s3.9-3.9,8.1-3.9
	S200.3,1.7,200.3,4.4z M185.3,17.9h15.1v0.9h-16v-5.1h0.9L185.3,17.9z M185,4.4c0,2,3.5,3.1,7.1,3.1s7.1-1.1,7.1-3.1
	s-3.5-3.1-7.1-3.1S185.1,2.3,185,4.4L185,4.4z"/>
<path class="st0" d="M211.6,18.9v-5.8h1.2v4.6h14.8v1.1H211.6z M225.7,14.5V0.2h1.2v4.9h3v1.1h-3v8.3H225.7z M210.2,10.3l0.1,0
	c3.6-0.8,6.2-4.8,6.2-9.6V0.5h1.2l0,0.1c0,1.6-0.3,3.3-0.8,4.8l6.5,4.9l-0.8,1l-6.2-4.7c-1.1,2.5-3.4,4.2-6,4.8l-0.2,0V10.3z"/>
<path class="st0" d="M210.3,11.3v-0.9c4-0.9,6.3-5.2,6.3-9.8h0.9c0,1.7-0.3,3.3-0.8,4.8l6.4,4.9l-0.6,0.7l-6.2-4.7
	C215.2,8.9,213,10.7,210.3,11.3z M212.7,17.9h14.8v0.9h-15.7v-5.5h0.9V17.9z M229.8,5.2v0.8h-3v8.3h-0.9v-14h0.9v4.9H229.8z"/>
<path class="st0" d="M247.9,19.3V0.2h1.2v19.1H247.9z M243.4,19V8.4h-3.7V7.2h3.7V0.4h1.2V19H243.4z M231.6,16.8L231.6,16.8
	c4-1.6,4.5-8.6,4.6-15.9l0-0.1h1.2l0,0.1c0,2.7-0.1,5.3-0.4,8l4.8,8.2l-1,0.7l-4.1-7.1c-0.8,4.1-2.3,6.5-4.9,7.3l-0.2,0.1V16.8z"/>
<path class="st0" d="M236.8,8.8l4.8,8.1l-0.8,0.5l-4.2-7.3c-0.8,4.2-2.2,6.7-4.9,7.6v-0.9c3.7-1.4,4.5-7.5,4.6-16h0.9
	C237.2,3.5,237.1,6.2,236.8,8.8z M243.5,0.5h0.9v18.3h-0.9V8.2h-3.7V7.3h3.7V0.5z M249,0.4v18.8h-0.9V0.4H249z"/>
<path class="st0" d="M268.6,19.3V0.2h1.2v19.1H268.6z M261.5,18h-7.8V8.8h9.4V2.3h-9.5V1.1h10.7v8.8h-9.4v6.9l6.7,0
	c1.6,0,3.1-0.3,4.6-0.9l0.2-0.1V17l-0.1,0c-1.5,0.6-3,0.9-4.6,0.9L261.5,18z"/>
<path class="st0" d="M264.2,9.8h-9.4V17h6.7c1.7,0,3.3-0.3,4.9-0.9v0.9c-1.5,0.6-3.2,0.9-4.9,0.9h-7.6V8.9h9.4V2.1h-9.5V1.2h10.4
	V9.8z M269.6,19.2h-0.9V0.4h0.9V19.2z"/>
<path class="st0" d="M273.6,18.2V17h18.9v1.2H273.6z M274.7,12v-1.1h3.7V2.5h-3.5V1.3h16.3v1.1h-3.5v8.4h3.7l0.1,1.1H274.7z
	 M286.4,10.9V2.5h-6.8v8.4H286.4z"/>
<path class="st0" d="M292.3,17.2v0.9h-18.6v-0.9H292.3z M291.2,11.8h-16.4V11h3.7V2.3H275V1.5h16v0.9h-3.5V11h3.7L291.2,11.8z
	 M279.5,11h7.1V2.3h-7.1V11z"/>
<path class="st0" d="M302.5,18.9v-5.1h1.2l0,4h15.1v1.1H302.5z M300.9,12.2v-1.1h8.8V8.4h-7.6V7.3h3.7V1.8h-3.5V0.6h16.1v1.1h-3.5
	v5.5h3.7v1.1H311v2.6h8.8v1.1H300.9z M313.7,7.3V1.8H307v5.5H313.7z"/>
<path class="st0" d="M319.6,11.2v0.9h-18.6v-0.9h8.8V8.3h-7.6V7.5h3.7V1.6h-3.5V0.8h15.8v0.8h-3.5v5.8h3.7v0.8h-7.6v2.9H319.6z
	 M303.5,17.9h15.1v0.8h-16v-4.8h0.9L303.5,17.9z M306.9,7.5h7V1.6h-7V7.5z"/>
<path class="st0" d="M322.1,18.2v-1.1h18.9v1.1H322.1z M323.5,13V1.1h16v1.1h-14.8v4.2h14.6v1.1h-14.6v4.3h15.2l0,1.1H323.5z"/>
<path class="st0" d="M340.8,17.2v0.9h-18.6v-0.9H340.8z M339.8,12.8h-16.1V1.2h15.7v0.9h-14.8v4.5h14.6v0.9h-14.6V12h15.2
	L339.8,12.8z"/>
<path class="st0" d="M344.8,18.9v-4h14.8v-1.7h-14.9v-1.1h16l0,3.9h-14.8v1.8h15.2v1.1H344.8z M343.2,10.4V9.3h18.9v1.1H343.2z
	 M344.9,7.6V3.5h14.6V1.8h-14.6V0.6h15.8l0,4H346v1.8h14.9v1.1H344.9z"/>
<path class="st0" d="M362,10.3h-18.6V9.4H362V10.3z M360.6,15.9h-14.8v2.1H361v0.8h-16.1v-3.7h14.8v-2h-14.9v-0.8h15.7L360.6,15.9z
	 M360.5,4.5h-14.7v2.1h14.9v0.8H345V3.7h14.6V1.6H345V0.8h15.5L360.5,4.5z"/>
<path class="st0" d="M386.1,19.3V0.2h1.2v8.2h3v1.2h-3v9.7H386.1z M370.9,16.9l0.1,0c4.5-0.9,6.2-8.8,6.2-15.9l0-0.1h1.2l0,0.1
	c0,2.7-0.2,5.4-0.7,8l6.4,8.3l-0.9,0.7l-5.8-7.6c-1.2,4.6-3.4,7.2-6.3,7.6l-0.2,0V16.9z"/>
<path class="st0" d="M377.5,9l6.3,8.3l-0.7,0.5l-5.9-7.7c-1.1,4.5-3.2,7.4-6.2,7.8V17c4.4-0.8,6.3-8.1,6.3-16.1h0.9
	C378.3,3.6,378,6.3,377.5,9z M390.2,9.5h-3v9.7h-0.9V0.4h0.9v8.2h3V9.5z"/>
<path class="st0" d="M401.1,19.2c-3,0-8.1-0.4-8.1-3.4c0-2.9,5.1-3.3,8.1-3.3s8.1,0.4,8.1,3.3C409.3,18.8,404.2,19.2,401.1,19.2z
	 M401.1,13.7c-4.3,0-6.9,0.8-6.9,2.2c0,1.6,3.5,2.2,6.9,2.2c3.3,0,6.7-0.6,6.9-2.1l-0.1-0.1C408,14.5,405.4,13.7,401.1,13.7z
	 M391.7,10.7V9.5h4.6V6.9c-2.2-0.6-3.4-1.6-3.4-3c0-2.2,3.1-3.6,8.2-3.6c5.1,0,8.2,1.3,8.2,3.6c0,1.4-1.2,2.5-3.4,3v2.6h4.6v1.1
	H391.7z M404.7,9.5V7.2c-1.1,0.2-2.2,0.3-3.3,0.3h-0.6c-1.1,0-2.2-0.1-3.3-0.3v2.4H404.7z M401.1,1.4c-3.2,0-7,0.6-7,2.4
	c0,1.8,3.8,2.4,7,2.4c3.2,0,6.9-0.6,6.9-2.4C408.1,2.1,404.4,1.4,401.1,1.4z"/>
<path class="st0" d="M410.5,9.7v0.9h-18.6V9.7h4.6V6.8c-2-0.5-3.4-1.5-3.4-2.9c0-2.4,3.8-3.4,8.1-3.4s8,1,8,3.4
	c0,1.5-1.4,2.4-3.4,2.9v2.9H410.5z M409.2,15.8c0,2.5-4,3.2-8,3.2s-8-0.7-8-3.2s4-3.2,8-3.2S409.1,13.4,409.2,15.8L409.2,15.8z
	 M401.2,6.4c3.6,0,7.1-0.8,7.1-2.6s-3.5-2.6-7.1-2.6S394,2,394,3.8S397.5,6.4,401.2,6.4L401.2,6.4z M408.2,15.8c0-1.8-3.7-2.3-7-2.3
	s-7,0.5-7,2.3s3.7,2.4,7,2.4S408.2,17.6,408.2,15.8L408.2,15.8z M397.5,9.7h7.4V7c-1.2,0.2-2.5,0.3-3.7,0.3c-1.2,0-2.5-0.1-3.7-0.3
	V9.7z"/>
<path class="st0" d="M428.4,19.3V0.2h1.2v8.2h3v1.1h-3v9.7H428.4z M419.6,18.2c-3,0-5.1-2.4-5.1-5.8s2.2-5.8,5.1-5.8
	c3,0,5.2,2.4,5.2,5.8v0.1h0C424.7,15.8,422.5,18.2,419.6,18.2z M419.5,7.8c-2,0-3.9,1.6-3.9,4.7c0,3.1,2,4.7,3.9,4.7
	c2,0,3.9-1.6,4-4.5l0-0.1C423.5,9.4,421.5,7.8,419.5,7.8z M413.4,4.8V3.7h5.6V0.2h1.2v3.5h5.6v1.1H413.4z"/>
<path class="st0" d="M420,3.8h5.6v0.9h-12.1V3.8h5.6V0.3h0.9V3.8z M424.6,12.4c0,3.5-2.3,5.6-5,5.6s-5-2.2-5-5.6s2.3-5.7,5-5.7
	S424.6,8.9,424.6,12.4L424.6,12.4z M423.6,12.4c0-2.9-1.9-4.8-4.1-4.8s-4.1,1.9-4.1,4.8s1.9,4.8,4.1,4.8S423.7,15.4,423.6,12.4
	L423.6,12.4z M432.5,9.5h-3v9.7h-0.9V0.4h0.9v8.2h3V9.5z"/>
<path class="st0" d="M450.4,19.3v-5.8h-4l0.1-1.1h3.9V6.7h-3.9l-0.1-1.1h4V0.2h1.2v19.1H450.4z M440.5,18.3c-3.5,0-5.5-3.3-5.5-8.7
	c0-5.4,2.1-8.7,5.5-8.7s5.5,3.2,5.5,8.7C446,15,444,18.3,440.5,18.3z M440.5,2c-2.7,0-4.3,2.8-4.3,7.6c0,4.7,1.6,7.6,4.3,7.6
	c2.7,0,4.3-2.8,4.3-7.6C444.8,4.8,443.2,2,440.5,2z"/>
<path class="st0" d="M445.9,9.5c0,5.8-2.2,8.6-5.4,8.6s-5.4-2.8-5.4-8.6s2.2-8.6,5.4-8.6S445.9,3.8,445.9,9.5z M444.9,9.5
	c0-5.2-1.9-7.7-4.4-7.7s-4.4,2.5-4.4,7.7s1.9,7.7,4.4,7.7S444.9,14.8,444.9,9.5z M451.4,0.4v18.8h-0.9v-5.8h-4l0.1-0.9h3.9V6.5h-3.9
	l-0.1-0.8h4V0.4H451.4z"/>
<path class="st0" d="M462.9,18.9v-4.6h14.2V12h-14.2v-1.1h15.4v4.6h-14.2v2.3H479v1.1H462.9z M477.1,9.8V0.2h1.2v4l2.9,0v1.1h-2.9
	v4.4H477.1z M468,9.3V8.2h0.1c2.2,0,4.6-1.7,4.6-5.4V2h-4.7V0.9h5.9v1.9c0,2-0.6,3.7-1.8,4.9c-1.1,1.1-2.5,1.7-4,1.7H468z
	 M461.9,8.9V7.8h0.1c2,0,4.2-1.6,4.2-5.1V2h-4.3V0.9h5.5v1.7c0,3.6-2.3,6.3-5.4,6.3H461.9z"/>
<path class="st0" d="M462,8.7V7.9c2.3,0,4.3-1.9,4.3-5.3V1.9H462V1h5.2v1.6C467.2,6.4,464.8,8.7,462,8.7z M464,17.9h14.8v0.9H463
	v-4.3h14.2v-2.6H463V11h15.2v4.3H464V17.9z M468.2,9.2V8.3c2.1,0,4.8-1.5,4.8-5.6V1.9h-4.7V1h5.6v1.8C473.9,7.1,470.9,9.2,468.2,9.2
	L468.2,9.2z M481,4.4v0.9h-2.9v4.4h-0.9V0.4h0.9v4L481,4.4z"/>
<path class="st0" d="M484,18.9v-7h16v7H484z M498.8,17.7V13h-13.6v4.7H498.8z M482.6,9.6V8.5h18.9v1.1H482.6z M498.7,7.1V1.8h-6.5
	V0.6h7.7v6.5H498.7z M490,7.1V1.8h-6.2V0.6h7.4v6.5H490z"/>
<path class="st0" d="M501.3,9.5h-18.6V8.6h18.6L501.3,9.5z M491.1,7h-0.9V1.6H484V0.8h7.1V7z M499.8,18.7h-15.7V12h15.7V18.7z
	 M498.9,17.9v-5h-13.8v5H498.9z M499.8,7h-0.9V1.6h-6.5V0.8h7.4L499.8,7z"/>
<path class="st0" d="M505.2,18.9V14h1.2v3.8h14.8v1.1H505.2z M519.3,14.6V0.2h1.2V6h3v1.1h-3v7.5H519.3z M510.2,12.7
	c-3.3,0-5.5-1.6-5.5-4s2.2-4,5.5-4s5.5,1.6,5.5,4S513.5,12.7,510.2,12.7z M510.2,5.9c-2.6,0-4.3,1.1-4.3,2.9s1.7,2.9,4.3,2.9
	c2.6,0,4.3-1.1,4.3-2.9S512.9,5.9,510.2,5.9z M503.8,3.6V2.4h5.9v-2.6h1.2v2.6h5.9v1.1H503.8z"/>
<path class="st0" d="M516.6,3.4h-12.7V2.6h5.9V0h0.9v2.6h5.9V3.4z M504.9,8.8c0-2.4,2.3-3.8,5.4-3.8s5.4,1.4,5.4,3.8
	s-2.3,3.8-5.4,3.8S504.9,11.1,504.9,8.8z M506.3,17.9h14.8v0.9h-15.7v-4.6h0.9V17.9z M505.8,8.8c0,1.8,1.7,3,4.5,3s4.5-1.2,4.5-3
	s-1.7-3-4.5-3S505.8,7,505.8,8.8z M523.4,6.2V7h-3v7.5h-0.9V0.4h0.9v5.8L523.4,6.2z"/>
<path class="st0" d="M547.1,19.3V0.2h1.3v19.1H547.1z M537.7,18.3c-3.5,0-5.6-3.3-5.6-8.7c0-5.4,2.1-8.7,5.6-8.7s5.6,3.2,5.6,8.7
	C543.3,15,541.2,18.3,537.7,18.3z M537.7,2c-2.7,0-4.4,2.9-4.4,7.6s1.7,7.6,4.4,7.6c2.7,0,4.4-2.9,4.4-7.6S540.4,2,537.7,2z"/>
<path class="st0" d="M543.2,9.5c0,5.8-2.3,8.6-5.5,8.6s-5.5-2.8-5.5-8.6s2.3-8.6,5.5-8.6S543.2,3.8,543.2,9.5z M533.1,9.5
	c0,5.2,2,7.7,4.6,7.7s4.5-2.5,4.5-7.7s-2-7.7-4.5-7.7S533.1,4.3,533.1,9.5z M548.3,19.2h-1V0.4h1V19.2z"/>
<path class="st0" d="M568.4,19.3V0.2h1.2v19.1H568.4z M553.5,18V1.1H564V18H553.5z M562.9,16.9V2.3h-8.1v14.6H562.9z"/>
<path class="st0" d="M563.9,17.8h-10.2V1.2h10.2V17.8z M563,17V2.1h-8.4V17H563z M569.4,19.2h-0.9V0.4h0.9V19.2z"/>
<path class="st0" d="M589.5,19.3V0.2h1.2v19.1H589.5z M573.9,16.9l0.1,0c3.5-0.8,5.7-6.4,5.8-14.6h-5.6V1.1h12.3v1.1H581
	c0,2.3-0.2,4.6-0.7,6.8l6.7,8l-0.9,0.7l-6.1-7.3c-1.1,4.3-3.2,6.9-6,7.5l-0.2,0V16.9z"/>
<path class="st0" d="M580.2,9.1l6.7,7.9l-0.7,0.5l-6.2-7.4c-1.1,4.4-3.2,7.1-6,7.7V17c3.8-0.9,5.9-7.1,5.9-14.9h-5.6V1.2h12v0.9
	h-5.5C580.9,4.5,580.7,6.8,580.2,9.1z M590.6,0.4v18.8h-0.9V0.4H590.6z"/>
<path class="st0" d="M596,18.9v-4h14.8v-1.7h-14.8v-1.1h16V16h-14.8v1.8h15.2v1.1H596z M594.5,10.4V9.3h18.9v1.1H594.5z M596.1,7.6
	V3.5h14.6V1.8h-14.6V0.6h15.8v4h-14.6v1.8h14.9v1.1H596.1z"/>
<path class="st0" d="M613.2,10.3h-18.6V9.4h18.6V10.3z M611.8,15.9H597v2.1h15.2v0.8h-16.1v-3.7h14.8v-2h-14.8v-0.8h15.7V15.9z
	 M611.8,4.5h-14.6v2.1h14.9v0.8h-15.8V3.7h14.6V1.6h-14.6V0.8h15.5V4.5z"/>
<path class="st0" d="M630.6,19.7v-6.1h-8.8v-1.1h18.9v1.1h-8.9v6.1H630.6z M622.4,9.1l0.1,0c4.5-0.5,7.7-3.2,8.3-7H623V0.9h16.6v1.1
	h-7.5c-0.1,0.9-0.4,1.8-0.8,2.6l8.8,4.4l-0.6,1l-8.8-4.4c-1.9,2.6-4.9,4.3-8.2,4.5l-0.2,0V9.1z"/>
<path class="st0" d="M640.6,13.5h-8.9v6.1h-0.9v-6.1H622v-0.9h18.6V13.5z M622.6,10.1V9.2c4.5-0.5,7.9-3.2,8.5-7.2h-7.9V1.1h16.3
	v0.9H632c-0.1,1-0.4,1.9-0.9,2.8l8.8,4.4l-0.5,0.8l-8.8-4.4C628.8,8.2,625.8,9.8,622.6,10.1z"/>
<path class="st0" d="M643,18.2v-1.1h7.7V7.8h1.2v9.3h9.9v1.1H643z M659.2,13.8V2.2h-14.9V1.1h16.1v12.7H659.2z"/>
<path class="st0" d="M661.7,17.2v0.9h-18.6v-0.9h7.7V7.9h0.9v9.3L661.7,17.2z M659.4,2.1h-14.9V1.2h15.8v12.4h-0.9V2.1z"/>
<path class="st0" d="M679.8,19.3V0.2h1.2v8.2h3v1.1h-3v9.7H679.8z M664.5,16.9l0.1,0c3.4-0.8,5.6-6.4,5.7-14.6h-5.5V1.1h12.1v1.1
	h-5.4c0,2.3-0.2,4.6-0.7,6.9l6.6,8l-0.9,0.7l-6-7.3c-1.1,4.3-3.2,6.8-5.9,7.5l-0.2,0V16.9z"/>
<path class="st0" d="M670.8,9.1l6.6,7.9l-0.7,0.5l-6.1-7.4c-1.1,4.3-3.1,7-5.9,7.6V17c3.8-0.9,5.8-7.1,5.8-14.9H665V1.2h11.8v0.9
	h-5.4C671.4,4.5,671.2,6.8,670.8,9.1z M683.8,9.5h-3v9.7h-0.9V0.4h0.9v8.2h3V9.5z"/>
<path class="st0" d="M705.8,15.9c-1,1.5-2.7,2.6-4.5,2.9l-0.1,0l-3.7-2.7c-1.1,1.4-2.7,2.4-4.5,2.7l-0.2,0v-1.1l0.1,0
	c2.5-0.6,4.4-2.6,4.7-5.2l0-0.1l1.2,0.1l0,0.1c-0.1,0.9-0.4,1.7-0.8,2.4l3.3,2.5c2.3-0.7,4-2.7,4.3-5.1l0-0.1l1.2,0.1l0,0.1
	c-0.1,0.8-0.3,1.5-0.7,2.2l4.5,3l-0.7,1L705.8,15.9z M708.2,12.3v-6h-3.9v5.8h-1.2V0.4h1.2v4.8h3.9V0.2h1.2v12.1H708.2z M696.5,11.9
	c-2.6,0-4.4-1.4-4.4-3.6c0-2.1,1.8-3.6,4.4-3.6c2.6,0,4.4,1.4,4.4,3.6C700.9,10.4,699.1,11.9,696.5,11.9z M693.3,8.4
	c0.1,1.4,1.4,2.3,3.2,2.3c1.9,0,3.2-1,3.2-2.5s-1.3-2.5-3.2-2.5c-1.9,0-3.1,1-3.1,2.5L693.3,8.4L693.3,8.4z M691.3,3.6V2.5h4.6V0
	h1.2v2.5h4.4l0,1.1H691.3z"/>
<path class="st0" d="M701.4,3.5h-9.9V2.6h4.6V0.1h0.9v2.5h4.4L701.4,3.5z M692.2,8.2c0-2.2,1.8-3.4,4.2-3.4s4.2,1.3,4.2,3.4
	s-1.8,3.5-4.2,3.5S692.2,10.4,692.2,8.2z M710.1,18.7l-4.4-3c-1,1.6-2.6,2.7-4.5,3l-3.7-2.8c-1.1,1.5-2.7,2.5-4.5,2.8v-0.9
	c2.6-0.6,4.5-2.7,4.8-5.3l0.9,0.1c-0.1,0.9-0.4,1.7-0.8,2.5l3.5,2.6c2.4-0.7,4.2-2.7,4.5-5.2l0.9,0.1c-0.1,0.8-0.3,1.6-0.7,2.3
	l4.5,3L710.1,18.7z M693.1,8.2c0,1.4,1.2,2.6,3.3,2.6s3.3-1.2,3.3-2.6s-1.2-2.6-3.3-2.6S693.2,6.8,693.1,8.2L693.1,8.2z M704.1,11.9
	h-0.9V0.5h0.9v4.8h4.2v-5h0.9v11.8h-0.9v-6h-4.2V11.9z"/>
<path class="st0" d="M714.2,18.9v-7.3h1.2v2.5h13.5v-2.5h1.2v7.3H714.2z M728.9,17.7v-2.5h-13.5v2.5H728.9z M712.7,10.1V9h18.9v1.2
	H712.7z M721.9,3.5c-2.2,2.3-5.1,3.6-8.3,3.7l-0.1,0V6l0.1,0c3.6-0.1,8-2.5,8.9-6.1l0-0.1l1.2,0.2l0,0.1c-0.2,0.8-0.5,1.6-1,2.4
	l8.1,3.7l-0.5,1L721.9,3.5z"/>
<path class="st0" d="M731.4,9.1V10h-18.6V9.1H731.4z M713.6,7V6.2c3.7-0.1,8.1-2.5,9-6.2l0.9,0.2c-0.2,0.9-0.5,1.7-1.1,2.5l8.1,3.7
	l-0.4,0.8l-8.4-3.8C719.7,5.6,716.8,6.9,713.6,7z M729,11.8h0.9v7h-15.6v-7h0.9v2.5H729V11.8z M729,17.9v-2.8h-13.8v2.8H729z"/>
<path class="st0" d="M749.9,19.3V0.2h1.2v19.1H749.9z M735.1,18V1h1.2v15.9l6.7,0c1.6,0,3.2-0.3,4.6-0.9l0.2-0.1v1.2l-0.1,0
	c-1.5,0.6-3.1,0.9-4.7,0.9L735.1,18z"/>
<path class="st0" d="M736.2,17h6.7c1.7,0,3.3-0.3,4.9-0.9V17c-1.5,0.6-3.2,1-4.9,0.9h-7.6V1.1h0.9V17z M751,19.2h-1V0.4h1V19.2z"/>
<path class="st0" d="M770.6,19.3V0.2h1.2v8.2h3v1.2h-3v9.7H770.6z M756.1,17.9V1.1h11v1.1h-9.8v14.6h6.3c1.7,0,3.3-0.3,4.8-1
	l0.2-0.1V17l-0.1,0c-1.5,0.6-3.1,0.9-4.7,0.9L756.1,17.9z"/>
<path class="st0" d="M763.6,17c1.7,0,3.3-0.3,4.9-1v0.9c-1.5,0.6-3.2,0.9-4.9,0.9h-7.4V1.2H767v0.9h-9.8V17H763.6z M774.6,9.5h-3
	v9.7h-0.9V0.4h0.9v8.2h3V9.5z"/>
<circle class="st0" cx="777.4" cy="17.9" r="1.1"/>
<path class="st0" d="M778.4,17.9c0,0.6-0.4,1-1,1s-1-0.4-1-1s0.4-1,1-1S778.4,17.4,778.4,17.9z"/>
<path class="st0" d="M11,53.1c-4.9,0-7.8-1.4-7.8-3.8c0-2.4,2.9-3.8,7.8-3.8c4.9,0,7.8,1.4,7.8,3.8C18.8,51.7,15.9,53.1,11,53.1z
	 M11,46.7c-4,0-6.5,1-6.5,2.7C4.5,51,7,52,11,52c3.9,0,6.4-1,6.6-2.5l0-0.1C17.6,47.7,15.1,46.7,11,46.7z M17.5,44.9v-2.8h-4.1
	l0.1-1.1l4,0v-3.6h-4l-0.1-1.1h4.1v-2.2h1.2v10.7H17.5z M7.3,44.1c-3.5,0-5.8-1.9-5.8-4.8c0-2.9,2.3-4.8,5.8-4.8
	c3.5,0,5.8,1.9,5.8,4.8S10.8,44.1,7.3,44.1z M7.3,35.7c-2.8,0-4.5,1.4-4.5,3.6S4.5,43,7.3,43h0.1v0c2.7,0,4.4-1.4,4.4-3.6
	C11.8,37.1,10.1,35.7,7.3,35.7z"/>
<path class="st0" d="M7.3,44c-3.5,0-5.6-1.9-5.6-4.6s2.1-4.7,5.6-4.7s5.6,1.9,5.6,4.7S10.8,44,7.3,44z M7.3,43.1
	c2.8,0,4.7-1.3,4.7-3.8s-1.9-3.8-4.7-3.8s-4.7,1.3-4.7,3.8S4.6,43.1,7.3,43.1L7.3,43.1z M18.7,49.3c0,2.5-3.4,3.7-7.6,3.7
	s-7.6-1.1-7.6-3.7s3.3-3.7,7.6-3.7S18.7,46.8,18.7,49.3L18.7,49.3z M17.7,49.3c0-1.9-2.9-2.8-6.7-2.8s-6.7,0.9-6.7,2.8
	s2.9,2.8,6.7,2.8S17.7,51.2,17.7,49.3L17.7,49.3z M17.6,41.2v-3.9h-4l-0.1-0.8h4.1v-2.2h0.9v10.4h-0.9V42h-4.1l0.1-0.8L17.6,41.2z"
	/>
<path class="st0" d="M23.9,52.9v-5.7h1.2l0,4.5h15.1v1.1H23.9z M31.1,49.3v-3.8h-8.8v-1.1h18.8v1.1h-8.8v3.8H31.1z M23.9,42v-7.4
	h15.8V42H23.9z M38.4,40.9v-5.1H25.1v5.1H38.4z"/>
<path class="st0" d="M41,44.5v0.9h-8.8v3.8h-0.9v-3.8h-8.8v-0.9H41z M24.9,51.9H40v0.9H24v-5.4h0.9L24.9,51.9z M39.5,41.9H24v-7.1
	h15.5V41.9z M38.6,35.6H24.9V41h13.7V35.6z"/>
<path class="st0" d="M45,52.9v-5.4h1.2l-0.1,4.3h15.2v1.1H45z M43.5,45.6v-1.1h18.9v1.1H43.5z M52.9,42.4c-4.1,0-8.2-1.3-8.2-4.1
	s4.1-4.1,8.2-4.1c3.8,0,8.2,1.1,8.2,4.1C61.1,41.2,57,42.4,52.9,42.4z M45.9,38.5c0.2,1.8,3.6,2.8,7,2.8c3.5,0,7-1,7-2.9
	s-3.5-2.9-7-2.9c-3.4,0-7,0.9-7,2.9L45.9,38.5L45.9,38.5z"/>
<path class="st0" d="M62.2,45.5H43.6v-0.8h18.6V45.5z M61,38.4c0,2.7-3.9,3.9-8.1,3.9s-8.1-1.3-8.1-3.9s3.9-3.9,8.1-3.9
	S61,35.7,61,38.4z M46,51.9h15.2v0.9h-16v-5.2h0.9L46,51.9z M45.7,38.4c0,2,3.5,3.1,7.2,3.1s7.2-1.1,7.2-3.1s-3.5-3.1-7.2-3.1
	S45.8,36.3,45.7,38.4L45.7,38.4z"/>
<path class="st0" d="M85.3,52.7l-2.2-5.1h-9.5l-2.1,5.1h-1.3L77.7,35H79l7.6,17.7H85.3z M82.6,46.5l-4.2-9.9l-4.2,9.9H82.6z"/>
<path class="st0" d="M83.2,47.5h-9.7l-2.2,5.1h-1l7.5-17.4h1.1l7.5,17.4h-1L83.2,47.5z M82.8,46.6l-4.5-10.4l-4.4,10.4L82.8,46.6z"
	/>
<path class="st0" d="M93.8,53c-3.5,0-6.1-2.8-6.1-6.6c0-3.8,2.6-6.6,6.1-6.6l0.2,0c2,0,3.9,1.1,4.9,2.8v-8.1h1.2v18.2h-1.2v-2.6
	C97.9,51.9,96,53,94,53C94,53,93.8,53,93.8,53z M93.9,40.9c-2.9,0-5,2.2-5,5.5s2,5.5,5,5.5c1.4,0,2.7-0.5,3.6-1.5s1.5-2.3,1.5-3.6
	c0-0.1,0-0.2,0-0.3c0.2-2.9-2-5.3-4.8-5.5C94.1,40.9,94,40.9,93.9,40.9z"/>
<path class="st0" d="M87.8,46.4c0-3.7,2.5-6.5,6-6.5c2.3-0.1,4.4,1.2,5.3,3.3v-8.5h0.9v17.9h-0.9v-3c-0.9,2.1-3,3.3-5.3,3.3
	C90.3,52.9,87.8,50.1,87.8,46.4z M99.1,46.4c0.2-2.9-2-5.4-5-5.6c-0.1,0-0.2,0-0.3,0c-3.1,0-5.1,2.4-5.1,5.6s2,5.6,5.1,5.6
	c2.9,0,5.3-2.4,5.3-5.3C99.1,46.6,99.1,46.5,99.1,46.4z"/>
<path class="st0" d="M110,53c-3.5,0-6.1-2.8-6.1-6.6c0-3.8,2.6-6.6,6.1-6.6l0.2,0c2,0,3.9,1.1,4.9,2.8v-2.6h1.2v12.7h-1.2v-2.6
	c-1,1.7-2.9,2.8-4.9,2.8C110.2,53,110,53,110,53z M110,40.9c-2.9,0-5,2.2-5,5.5c0,3.2,2.1,5.4,5,5.4c2.8,0,5.1-2.3,5.1-5.1
	c0-0.1,0-0.4,0-0.4h0c0-1.3-0.4-2.6-1.3-3.6c-0.9-1-2.2-1.6-3.5-1.7C110.2,40.9,110.1,40.9,110,40.9l0-0.1L110,40.9z"/>
<path class="st0" d="M104,46.4c0-3.7,2.5-6.5,6-6.5c2.3-0.1,4.4,1.2,5.3,3.3v-3h0.9v12.4h-0.9v-3c-0.9,2.1-3,3.3-5.3,3.3
	C106.5,52.9,104,50.1,104,46.4z M115.3,46.4c0.2-2.9-2-5.4-5-5.6c-0.1,0-0.2,0-0.3,0c-3.1,0-5.1,2.4-5.1,5.6s2.1,5.6,5.1,5.6
	c2.9,0,5.3-2.4,5.3-5.3C115.3,46.6,115.3,46.5,115.3,46.4L115.3,46.4z"/>
<path class="st0" d="M137.4,52.8v-7.9c0-2.4-1.3-4-3.3-4c-2.2,0-4.1,2.3-4.1,5v6.7h-1.2v-7.6c0-2.5-1.3-4.1-3.3-4.1
	c-2.2,0-4.1,2.3-4.1,5v6.8h-1.2l0-12.6h1.2v2.3c0.8-1.5,2.5-2.5,4.2-2.5h0.1c1.9,0,3.5,1.3,4,3.1c0.8-1.8,2.6-3.1,4.6-3.1
	c2.5,0,4.4,2.1,4.4,5v8H137.4z"/>
<path class="st0" d="M120.2,40.2h0.9V43c0.7-1.8,2.5-3,4.4-3c2,0,3.7,1.5,4,3.5c0.6-2.1,2.5-3.5,4.7-3.5c2.4,0,4.2,2,4.2,4.8v7.8
	h-0.9v-7.7c0-2.5-1.4-4.1-3.4-4.1c-2.4,0-4.3,2.5-4.3,5.2v6.6h-0.9v-7.5c0-2.7-1.4-4.3-3.5-4.3c-2.4,0-4.3,2.5-4.3,5.2v6.6h-0.9
	L120.2,40.2z"/>
<polygon class="st0" points="141.3,55.4 142,50.8 143.3,50.8 142.4,55.4 "/>
<path class="st0" d="M142.3,55.2h-0.8l0.6-4.3h1L142.3,55.2z"/>
<path class="st0" d="M167.9,53.1v-4.9H153v-1.1h7.5v-3.5h-8.8v-1.1h18.9v1.1h-8.8v3.5h7.3v6H167.9z M167.9,41.3v-5.6h-14.6v-1.1
	h15.9v6.7H167.9z"/>
<path class="st0" d="M161.7,43.4v3.8h7.3V53h-0.9v-4.9h-14.9v-0.8h7.6v-3.8h-8.8v-0.9h18.6v0.9H161.7z M168,35.6h-14.6v-0.9H169v6.4
	h-1V35.6z"/>
<path class="st0" d="M174.4,52.9v-5.7h1.2v4.5h15.1v1.1H174.4z M181.8,49.3v-3.8h-8.8v-1.1h18.9v1.1H183v3.8H181.8z M174.5,42v-7.4
	h15.8V42H174.5z M189.1,40.9v-5.1h-13.4v5.1H189.1z"/>
<path class="st0" d="M191.6,44.5v0.9h-8.8v3.8h-0.9v-3.8h-8.8v-0.9H191.6z M175.5,51.9h15.1v0.9h-16.1v-5.4h0.9V51.9z M190.1,41.9
	h-15.5v-7.1h15.5V41.9z M189.2,35.6h-13.7V41h13.7V35.6z"/>
<path class="st0" d="M195.6,52.9v-5.4h1.2l0,4.3h15.1v1.1H195.6z M194.1,45.6v-1.1H213v1.1H194.1z M203.5,42.4
	c-4.1,0-8.2-1.3-8.2-4.1s4.1-4.1,8.2-4.1c3.8,0,8.2,1.1,8.2,4.1C211.8,41.2,207.6,42.4,203.5,42.4z M196.5,38.5
	c0.2,1.8,3.6,2.8,7,2.8c3.5,0,7-1,7-2.9s-3.5-2.9-7-2.9c-3.4,0-7,0.9-7,2.9L196.5,38.5L196.5,38.5z"/>
<path class="st0" d="M212.8,45.5h-18.6v-0.8h18.6V45.5z M211.6,38.4c0,2.7-3.9,3.9-8.1,3.9s-8.1-1.3-8.1-3.9s3.9-3.9,8.1-3.9
	S211.6,35.7,211.6,38.4z M196.6,51.9h15.1v0.9h-16v-5.2h0.9L196.6,51.9z M196.3,38.4c0,2,3.5,3.1,7.1,3.1s7.1-1.1,7.1-3.1
	s-3.5-3.1-7.1-3.1S196.4,36.3,196.3,38.4L196.3,38.4z"/>
<path class="st0" d="M230.3,53.1c-4.8,0-8.6-3.7-8.8-8.5c0-0.2,0-0.5,0-0.7c-0.2-4.9,3.6-9,8.4-9.2c0.1,0,0.3,0,0.4,0
	c0.1,0,0.2,0,0.3,0c4.2,0,7.8,2.5,8.6,6.1l0,0.2h-1.2l0-0.1c-0.7-2.9-3.8-5-7.4-5c-4.6,0-7.9,3.3-7.9,8.1s3.3,8.1,7.9,8.1
	c0.1,0,0.3,0,0.4,0c3.8,0,7-3,7.2-6.9l0-0.1H230v-1.1h9.5v0.7c0,4.9-3.8,8.5-8.9,8.5C230.5,53.1,230.4,53.1,230.3,53.1z"/>
<path class="st0" d="M239.1,40.8h-0.9c-0.7-3-3.9-5.2-7.5-5.2c-4.7,0-8,3.5-8,8.2s3.3,8.2,8.1,8.2c4.1,0.2,7.5-2.9,7.7-7
	c0-0.1,0-0.2,0-0.3h-8.3V44h9.3v0.6c0,5-3.9,8.4-8.8,8.4c-4.8,0.2-8.8-3.6-9-8.3c0-0.2,0-0.5,0-0.7c-0.2-4.8,3.5-8.9,8.3-9.1
	c0.2,0,0.5,0,0.7,0C235,34.8,238.3,37.4,239.1,40.8z"/>
<path class="st0" d="M257.5,53.3V34.2h1.2v8.2h3v1.2h-3v9.7H257.5z M243.1,52V35.1h10.3V52H243.1z M252.2,50.9V36.3h-7.9v14.6H252.2
	z"/>
<path class="st0" d="M243.2,35.2h10v16.6h-10V35.2z M244.1,51h8.2V36.1h-8.2V51z M261.6,43.5h-3v9.7h-0.9V34.4h0.9v8.2h3V43.5z"/>
<path class="st0" d="M272.8,48.9c-1.9,2.5-4.8,3.9-7.9,4l-0.1,0v-1.2l0.1,0c3.4-0.1,7.4-2.3,8.2-6.4l0-0.1l1.2,0.2l0,0.1
	c-0.2,0.8-0.4,1.6-0.9,2.4l8.5,4.2l-0.6,1.1L272.8,48.9z M279.8,48V34.2h1.2V48H279.8z M263.7,46.1V45h0.1c3.1,0,5.3-1.6,6.1-4.3
	h-6.2v-1.2h6.5c0-0.4,0.1-0.8,0.1-1.2V36h-6.6v-1.2h7.8v3.4c0,0.4,0,0.8-0.1,1.2h3.6v-5.2h1.2V45H275v-4.3h-3.8
	c-0.9,3.4-3.7,5.4-7.4,5.4H263.7z"/>
<path class="st0" d="M263.8,46v-0.9c2.9,0,5.5-1.4,6.3-4.5h-6.3v-0.9h6.5c0.1-0.5,0.1-0.9,0.1-1.4v-2.4h-6.6V35h7.5v3.3
	c0,0.5,0,0.9-0.1,1.4h3.9v-5.2h1v10.4h-1v-4.3h-4.1C270.2,44.2,267.1,46,263.8,46z M281.2,52.9l-8.5-4.2c-1.9,2.5-4.8,4-7.9,4v-0.9
	c3.6-0.1,7.5-2.4,8.3-6.5l0.9,0.2c-0.2,0.9-0.5,1.7-0.9,2.5l8.5,4.2L281.2,52.9z M280.8,47.9h-0.9V34.4h0.9V47.9z"/>
<path class="st0" d="M291.9,52.9v-5.8h1.2v4.6h14.8v1.1H291.9z M306,48.5V34.2h1.2v4.9h3v1.1h-3v8.3H306z M290.5,44.3l0.1,0
	c4.3-0.9,6.2-5.5,6.2-9.6v-0.1h1.2l0,0.1c0,1.6-0.3,3.2-0.8,4.8l6.5,4.9l-0.8,0.9l-6.2-4.7c-1.1,2.5-3.4,4.2-6,4.8l-0.2,0V44.3z"/>
<path class="st0" d="M290.7,45.3v-0.9c4-0.9,6.3-5.2,6.3-9.8h0.9c0,1.7-0.3,3.3-0.8,4.8l6.4,4.9l-0.6,0.7l-6.2-4.7
	C295.6,42.9,293.3,44.7,290.7,45.3z M293,51.9h14.8v0.8h-15.7v-5.5h0.9V51.9z M310.1,39.2v0.8h-3v8.3h-0.9v-14h0.9v4.9L310.1,39.2z"
	/>
<path class="st0" d="M311.6,52.2v-1.1h18.9v1.1H311.6z M320.7,40.1c-2.3,3.8-5.5,6.1-8.6,6.1H312V45h0.1c4.4,0,8.3-5.3,9.4-10.5
	l0-0.1l1.3,0.3l0,0.1c-0.3,1.5-0.8,2.9-1.5,4.3l8.5,6.3l-0.8,0.9L320.7,40.1z"/>
<path class="st0" d="M330.3,51.2v0.8h-18.6v-0.8H330.3z M312.1,46.1v-0.9c4.4,0,8.3-5.1,9.5-10.6l1,0.2c-0.3,1.5-0.9,3-1.6,4.3
	l8.5,6.3l-0.6,0.7l-8.3-6.2C318.6,43.5,315.4,46.1,312.1,46.1L312.1,46.1z"/>
<polygon class="st0" points="332.8,52.2 332.8,51.1 341.5,51.1 341.5,46.6 334.2,46.6 334.2,40.3 349.1,40.3 349.1,36.3 334.2,36.3 
	334.2,35.1 350.3,35.1 350.3,41.4 335.4,41.4 335.4,45.4 350.6,45.4 350.6,46.6 342.7,46.6 342.7,51 351.6,51.1 351.6,52.2 "/>
<path class="st0" d="M351.5,51.2v0.8h-18.6v-0.8h8.8v-4.7h-7.3v-6h14.8v-4.4h-14.8v-0.9h15.8v6h-14.8v4.3h15.2v0.9h-7.9v4.7
	L351.5,51.2z"/>
<path class="st0" d="M376.2,53.3V34.2h1.2v19.1H376.2z M360.6,50.9l0.1,0c4.6-0.9,6.3-9.1,6.3-15.9l0-0.1h1.2l0,0.1
	c0,2.7-0.2,5.3-0.8,7.9l6.5,8.4l-1,0.7l-5.9-7.7c-1.3,4.6-3.5,7.3-6.4,7.7l-0.2,0V50.9z"/>
<path class="st0" d="M367.3,42.9l6.5,8.4l-0.7,0.5l-6-7.8c-1.2,4.5-3.3,7.5-6.3,7.9V51c4.4-0.8,6.4-8.1,6.4-16.1h0.9
	C368.1,37.6,367.8,40.3,367.3,42.9z M377.3,34.4v18.8h-0.9V34.4H377.3z"/>
<path class="st0" d="M383.2,52.9v-5.8h1.2v4.6h15v1.1H383.2z M397.5,49.3v-1.9h-6.4v-1.1h6.4V34.2h1.2v15.1H397.5z M387.1,48.4v-3.9
	h-5.8v-1.1h7.2c3.6,0,5.9-0.2,7.1-0.8l0.2-0.1v1.2l-0.1,0c-1.5,0.7-4.8,0.8-7.3,0.8h-0.1v3.9H387.1z M388.1,41.8
	c-3.4,0-5.5-1.4-5.5-3.7s2.2-3.7,5.5-3.7s5.5,1.4,5.5,3.7S391.5,41.8,388.1,41.8z M388.1,35.6c-2.1,0-4.3,0.7-4.3,2.5
	c0,1.9,2.2,2.5,4.3,2.5c2.1,0,4.3-0.7,4.3-2.5C392.4,36.3,390.2,35.6,388.1,35.6z"/>
<path class="st0" d="M387.2,44.4h-5.8v-0.9h7.1c3.2,0,5.8-0.2,7.2-0.8v0.9c-1.2,0.5-3.9,0.8-7.3,0.8h-0.3v3.9h-0.9V44.4z
	 M382.7,38.1c0-2.2,2.2-3.5,5.4-3.5s5.4,1.3,5.4,3.5s-2.2,3.5-5.4,3.5S382.7,40.4,382.7,38.1z M399.3,51.9v0.8h-15.9v-5.5h0.9v4.7
	H399.3z M383.7,38.1c0,1.8,1.9,2.7,4.5,2.7s4.5-0.9,4.5-2.7s-1.9-2.7-4.5-2.7S383.7,36.3,383.7,38.1z M397.7,46.5V34.4h0.9v14.8
	h-0.9v-1.8h-6.4v-0.8H397.7z"/>
<path class="st0" d="M418,53.3V34.2h1.2v8.2h3v1.1h-3v9.7H418z M409.1,52.2c-3,0-5.1-2.4-5.1-5.8s2.2-5.8,5.1-5.8s5.1,2.4,5.1,5.8
	S412.1,52.2,409.1,52.2z M409.1,41.8c-2,0-4,1.6-4,4.7c0,3.1,2,4.7,3.9,4.7c2,0,4-1.6,4-4.7C413.1,43.4,411.1,41.8,409.1,41.8z
	 M402.9,38.8v-1.1h5.6v-3.5h1.2l0,3.5h5.6v1.1H402.9z"/>
<path class="st0" d="M409.6,37.8h5.6v0.9H403v-0.9h5.6v-3.5h0.9L409.6,37.8z M414.1,46.4c0,3.5-2.3,5.7-5,5.7s-5-2.2-5-5.7
	s2.3-5.7,5-5.7S414.1,42.9,414.1,46.4z M413.2,46.4c0-3-1.9-4.8-4.1-4.8s-4.1,1.8-4.1,4.8s1.9,4.8,4.1,4.8S413.2,49.4,413.2,46.4
	L413.2,46.4z M422.1,43.5h-3v9.7h-0.9V34.4h0.9v8.2h3V43.5z"/>
<path class="st0" d="M425.5,52.9v-6h1.2v4.8l14.9,0v1.1H425.5z M439.9,48.5v-5.7h-4v-1.1h4v-3.6h-4v-1.1h4v-2.7h1.3v14.3H439.9z
	 M424.6,44.9v-10H435v10H424.6z M433.7,43.7V36h-7.9v7.7H433.7z"/>
<path class="st0" d="M434.8,44.8h-10.1V35h10.1V44.8z M441.5,51.9v0.8h-15.8V47h0.9v4.8L441.5,51.9z M433.9,35.9h-8.2v8h8.2V35.9z
	 M440,42.7h-4v-0.9h4v-3.9h-4v-0.9h4v-2.7h1v14h-1V42.7z"/>
<path class="st0" d="M461.1,53.3V42.8h-5.5v-1.1h5.5v-7.4h1.2v19.1H461.1z M451.5,43.7c-1.1,5-3.3,7.9-6.2,8.3l-0.2,0v-1.1l0.1,0
	c4.3-0.8,5.9-8.8,5.9-15.9l0-0.1h1.2l0,0.1c0,2.4-0.2,4.8-0.6,7.2l6.3,9.3l-0.9,0.7L451.5,43.7z"/>
<path class="st0" d="M451.6,42.2l6.2,9.2l-0.7,0.5l-5.8-8.6c-1,4.9-3.1,8.1-6.2,8.5V51c4.2-0.8,6-8.1,6-16.1h0.9
	C452.2,37.4,452,39.8,451.6,42.2z M462.1,34.4v18.8h-0.9V42.6h-5.5v-0.9h5.5v-7.4H462.1z"/>
<polygon class="st0" points="465.9,52.2 465.9,51.1 474.7,51.1 474.7,45.6 467.4,45.6 467.4,35.1 483.4,35.1 483.4,36.3 468.6,36.3 
	468.6,44.5 483.6,44.5 483.6,45.6 475.9,45.6 475.9,51.1 484.8,51.1 484.8,52.2 "/>
<path class="st0" d="M484.6,51.2v0.8h-18.6v-0.8h8.8v-5.8h-7.3V35.2h15.8v0.9h-14.8v8.5h15v0.8h-7.7v5.8H484.6z"/>
<path class="st0" d="M495,52.9v-6.1h1.2v4.9h14.6v1.1H495z M508.9,48.5V34.2h1.2v5.1h2.9v1.1h-3v8.1H508.9z M499.3,45.5
	c-3.5,0-5.8-2.2-5.8-5.5c0-3.3,2.3-5.5,5.8-5.5c3.5,0,5.8,2.2,5.8,5.5C505.1,43.3,502.7,45.5,499.3,45.5z M499.3,35.7
	c-2.8,0-4.6,1.7-4.6,4.4c0,2.7,1.8,4.4,4.6,4.4s4.6-1.7,4.6-4.4C503.8,37.4,502,35.7,499.3,35.7z"/>
<path class="st0" d="M499.3,45.3c-3.6,0-5.7-2.4-5.7-5.3s2-5.3,5.7-5.3s5.7,2.4,5.7,5.3S502.9,45.3,499.3,45.3z M499.3,44.5
	c2.9,0,4.7-1.8,4.7-4.5s-1.9-4.5-4.7-4.5s-4.7,1.8-4.7,4.5S496.4,44.5,499.3,44.5z M496,51.9h14.6v0.8h-15.5v-5.8h0.9V51.9z
	 M512.8,39.4v0.9h-3v8.1H509v-14h0.9v5.1L512.8,39.4z"/>
<path class="st0" d="M524.2,53.1c-5,0-7.9-1.4-7.9-3.7c0-2.4,2.9-3.7,7.9-3.7c4.9,0,7.7,1.3,7.8,3.6l0.1,0.1
	C532.1,51.8,529.3,53.1,524.2,53.1z M524.2,46.9c-4.1,0-6.7,1-6.7,2.6c0,1.6,2.6,2.6,6.7,2.6s6.7-1,6.7-2.6
	C530.9,47.8,528.3,46.9,524.2,46.9z M530.7,45.1v-5.7h-4.6v-1.1l4.6,0v-4.1h1.2v10.9H530.7z M514.9,43.2l0.1,0
	c3.6-0.7,5.7-3.2,5.9-7.1h-5.8v-1.1h12.3v1.1H522c0,1-0.2,1.9-0.5,2.9l6.5,4.3l-0.7,0.9l-6.2-4.2c-1.2,2.3-3.4,3.9-6,4.3l-0.2,0
	V43.2z"/>
<path class="st0" d="M515,44.2v-0.9c3.6-0.7,5.8-3.2,6-7.4h-5.8v-0.9h12v0.9h-5.3c0,1-0.2,2.1-0.5,3l6.4,4.3l-0.5,0.7l-6.2-4.2
	C519.9,42.2,517.6,43.9,515,44.2z M532,49.4c0,2.5-3.4,3.6-7.8,3.6s-7.7-1.1-7.7-3.6s3.4-3.6,7.7-3.6S531.9,46.9,532,49.4L532,49.4z
	 M531,49.4c0-1.8-3-2.7-6.8-2.7s-6.8,0.9-6.8,2.7s3,2.7,6.8,2.7S531,51.2,531,49.4z M530.9,38.4v-4h0.9V45h-0.9v-5.7h-4.6v-0.8
	L530.9,38.4z"/>
<path class="st0" d="M551.9,53.1v-5h-14.6V47h15.8v6.1H551.9z M551.9,46v-5.9h-4.5v-1.1h4.5v-4.7h1.2V46H551.9z M536,44.1l0.1,0
	c3.6-0.7,5.7-3.5,5.9-8h-5.8v-1.1h12.3v1.1h-5.3c0,1.2-0.2,2.3-0.6,3.4l6.3,4.7l-0.7,0.9l-6.1-4.5c-1.1,2.5-3.4,4.2-6,4.6l-0.2,0
	V44.1z"/>
<path class="st0" d="M536.1,45.1v-0.9c3.7-0.7,5.9-3.5,6-8.2h-5.8v-0.9h12v0.9H543c0,1.2-0.2,2.4-0.6,3.6l6.3,4.7l-0.5,0.7l-6.1-4.5
	C541.1,42.9,538.8,44.7,536.1,45.1z M537.4,47.2h15.5V53H552v-5h-14.6V47.2z M552.9,34.4v11.5H552v-5.9h-4.5v-0.8h4.5v-4.7H552.9z"
	/>
<path class="st0" d="M572.9,53.3V34.2h1.3v19.1H572.9z M563.4,52.3c-3.5,0-5.6-3.3-5.6-8.7c0-5.4,2.1-8.7,5.6-8.7s5.6,3.3,5.6,8.7
	C569,49,566.9,52.3,563.4,52.3z M559,43.5c0,4.7,1.7,7.6,4.4,7.6c2.7,0,4.4-2.9,4.4-7.6s-1.7-7.6-4.4-7.6c-2.7,0-4.4,2.8-4.5,7.4
	L559,43.5z"/>
<path class="st0" d="M568.9,43.5c0,5.8-2.3,8.6-5.5,8.6s-5.5-2.8-5.5-8.6s2.3-8.6,5.5-8.6S568.9,37.8,568.9,43.5z M558.9,43.5
	c0,5.2,2,7.7,4.5,7.7s4.6-2.5,4.6-7.7s-2-7.7-4.6-7.7S558.8,38.3,558.9,43.5L558.9,43.5z M574,53.2h-1V34.4h1V53.2z"/>
<path class="st0" d="M577.9,52.2v-1.1h7.7v-9.3h1.2v9.3h10v1.1H577.9z M594.1,47.8V36.2h-14.9v-1.1h16.1v12.7H594.1z"/>
<path class="st0" d="M596.6,51.2v0.8H578v-0.8h7.7v-9.3h0.9v9.3H596.6z M594.3,36.1h-14.9v-0.9h15.8v12.4h-0.9L594.3,36.1z"/>
<path class="st0" d="M622,53.3v-9.8h-3.4V53h-1.2V34.4h1.2v8h3.4v-8.1h1.2v19.1H622z M610.3,50.8l0.1,0c2.5-0.4,3.5-3.7,3.5-11v-3.5
	h-3.1l0.1-1.1h4.3v4.5c0,6-0.6,11.7-4.7,12.3l-0.2,0V50.8z M605.6,50.1l0.1,0c2.8-0.4,3.1-6,3.1-10.7v-3.1h-3.3v-1.1h4.4v4.1
	c0,5.6-0.5,11.5-4.3,12l-0.2,0V50.1z"/>
<path class="st0" d="M605.7,35.2h4.2v4c0,5.7-0.5,11.3-4.2,11.8v-0.9c2.8-0.4,3.3-5.6,3.3-10.9v-3.2h-3.3V35.2z M611,35.2h4v4.4
	c0,6.6-0.8,11.6-4.6,12.1v-0.9c3-0.4,3.7-5,3.7-11.2v-3.6H611L611,35.2z M623,34.4v18.8h-0.9v-9.8h-3.7v9.5h-0.9V34.5h0.9v8h3.7
	v-8.1H623z"/>
<path class="st0" d="M635.5,49.1c-2,2.4-4.8,3.7-7.9,3.7l-0.1,0v-1.2h0.1c3.5,0,7.5-2.2,8.2-6l0-0.1l1.3,0.2l0,0.1
	c-0.2,0.8-0.5,1.6-0.9,2.4l8.4,3.9l-0.6,1L635.5,49.1z M626.4,44v-1.1h18.9V44H626.4z M642.6,41.5v-5.7h-6.5v-1.1h7.7v6.9H642.6z
	 M633.9,41.5v-5.7h-6.2v-1.1h7.4v6.9H633.9z"/>
<path class="st0" d="M645.1,43v0.9h-18.6V43H645.1z M635.9,48.3l8.4,3.9l-0.4,0.7l-8.5-4c-1.9,2.4-4.8,3.7-7.9,3.7v-0.9
	c3.7,0,7.6-2.4,8.3-6.1l1,0.1C636.7,46.7,636.4,47.5,635.9,48.3z M634,35.6h-6.2v-0.9h7.1v6.6H634V35.6z M642.7,35.6h-6.5v-0.9h7.4
	v6.6h-0.9V35.6z"/>
<path class="st0" d="M649,52.9V48h1.2v3.8h14.8v1.1H649z M663.1,48.6V34.2h1.2V40h3v1.1h-3v7.5H663.1z M654.1,46.7
	c-3.3,0-5.5-1.6-5.5-4s2.2-4,5.5-4s5.5,1.6,5.5,4S657.4,46.7,654.1,46.7z M654.1,39.9c-2.6,0-4.3,1.1-4.3,2.9s1.7,2.9,4.3,2.9
	c2.6,0,4.3-1.1,4.3-2.9S656.7,39.9,654.1,39.9z M647.6,37.6v-1.1h5.9v-2.6h1.2v2.5h5.9v1.2H647.6z"/>
<path class="st0" d="M660.4,37.4h-12.7v-0.9h5.9V34h0.9v2.5h5.9V37.4z M648.7,42.8c0-2.4,2.3-3.8,5.4-3.8s5.4,1.5,5.4,3.8
	s-2.3,3.8-5.4,3.8S648.7,45.1,648.7,42.8z M650.1,51.9h14.8v0.8h-15.7v-4.6h0.9V51.9z M649.6,42.8c0,1.8,1.7,3,4.5,3s4.5-1.2,4.5-3
	s-1.7-3-4.5-3S649.6,41,649.6,42.8z M667.2,40.2V41h-3v7.5h-0.9V34.4h0.9v5.8L667.2,40.2z"/>
<path class="st0" d="M674.9,52.2v-1.1h18.9l0,1.1H674.9z M676.3,45.6V34.8h1.2v9.7h14.7v1.2H676.3z"/>
<path class="st0" d="M693.6,52.1H675v-0.8h18.6L693.6,52.1z M677.4,44.6h14.7v0.9h-15.7V34.9h1V44.6z"/>
<path class="st0" d="M697.9,52.9v-7h15.6l0,7H697.9z M712.3,51.7V47h-13.2v4.8H712.3z M712.3,44.7V34.2h1.2v10.5H712.3z M703,44
	v-1.1h0.1c1.9,0,4.7-1.6,4.7-5.9v-1H703v-1.2h6V37c0,4.6-3.1,7-5.9,7H703z M696.7,43.6v-1.1h0.1c2.1,0,4.3-1.9,4.3-5.6V36h-4.4v-1.2
	h5.6v2c0,3.8-2.3,6.7-5.5,6.7H696.7z"/>
<path class="st0" d="M702.1,36.9c0,4-2.5,6.6-5.3,6.6v-0.8c2.3,0,4.4-2.1,4.4-5.7v-1h-4.4V35h5.3V36.9z M713.3,52.7H698V46h15.4
	L713.3,52.7z M712.4,51.9v-5.1h-13.5v5.1H712.4z M708.9,37c0,4.6-3.1,6.9-5.8,6.9V43c2.1,0,4.9-1.7,4.9-6v-1.1h-4.8V35h5.7L708.9,37
	z M713.4,44.6h-0.9V34.4h0.9V44.6z"/>
<path class="st0" d="M718.7,52.9v-4.2h14.8v-1.9h-14.8v-1.1h16v4.1h-14.8v2h15.2v1.1H718.7z M717.2,43.7v-1.1h18.9v1.1H717.2z
	 M726.7,41.2c-5.2,0-8.1-1.2-8.1-3.4c0-2.2,3-3.4,8.1-3.4c2.4,0,8.1,0.3,8.1,3.4C734.8,40,731.8,41.2,726.7,41.2z M726.6,35.5
	c-4.3,0-6.9,0.9-6.9,2.3c0,1.4,2.6,2.3,6.9,2.3c3.4,0,6.9-0.6,6.9-2.3C733.6,36.3,731,35.5,726.6,35.5z"/>
<path class="st0" d="M735.9,43.6h-18.6v-0.8h18.6V43.6z M734.7,37.8c0,2.4-3.8,3.3-8,3.3s-8-0.9-8-3.3s3.8-3.3,8-3.3
	S734.7,35.4,734.7,37.8z M734.5,49.7h-14.8v2.2h15.2v0.8h-16.1v-3.9h14.8v-2.2h-14.8v-0.8h15.7V49.7z M719.5,37.8
	c0,1.8,3.4,2.5,7.1,2.5s7.1-0.7,7.1-2.5s-3.4-2.4-7.1-2.4S719.5,36,719.5,37.8z"/>
<path class="st0" d="M746.4,52.9v-5.8h1.2v4.6h14.9v1.1H746.4z M760.9,48.5v-8.4h-4.6V39l4.6,0v-4.8h1.2v14.3H760.9z M744.9,44.5
	l0.1,0c3.6-0.6,5.7-3.7,5.9-8.4h-5.8v-1.1h12.3v1.1h-5.3c0,1.2-0.2,2.4-0.5,3.5l6.2,5l-0.7,1l-6-4.8c-1,2.6-3.3,4.4-6.1,4.9l-0.2,0
	V44.5z"/>
<path class="st0" d="M745.1,45.5v-0.9c3.7-0.7,5.9-3.7,6-8.6h-5.8v-0.9h12v0.9H752c0,1.2-0.2,2.5-0.5,3.7l6.2,5l-0.5,0.7l-6-4.8
	C750.2,43.1,747.9,45,745.1,45.5z M762.4,51.9v0.8h-15.8v-5.5h0.9v4.6H762.4z M761,39.2v-4.8h0.9v14H761V40h-4.6v-0.8L761,39.2z"/>
<path class="st0" d="M781.3,53.3V34.2h1.2v8.2h3v1.1h-3v9.7H781.3z M772.4,52.2c-3,0-5.1-2.4-5.1-5.8s2.2-5.8,5.1-5.8
	s5.1,2.4,5.1,5.8S775.4,52.2,772.4,52.2z M772.4,41.8c-2,0-3.9,1.6-3.9,4.7c0,3.1,2,4.7,3.9,4.7s3.9-1.6,3.9-4.7
	C776.3,43.4,774.3,41.8,772.4,41.8z M766.2,38.8v-1.1h5.6v-3.5h1.2v3.5h5.6v1.1H766.2z"/>
<path class="st0" d="M772.8,37.8h5.6v0.9h-12.2v-0.9h5.6v-3.5h0.9L772.8,37.8z M777.4,46.4c0,3.5-2.3,5.7-5,5.7s-5-2.2-5-5.7
	s2.3-5.7,5-5.7S777.4,42.9,777.4,46.4L777.4,46.4z M776.5,46.4c0-3-1.9-4.8-4.1-4.8s-4.1,1.8-4.1,4.8s1.9,4.8,4.1,4.8
	S776.5,49.4,776.5,46.4z M785.3,43.5h-3v9.7h-0.9V34.4h0.9v8.2h3V43.5z"/>
<path class="st0" d="M786.9,52.2v-1.1h7.7v-9.3h1.2v9.3h9.9v1.1H786.9z M803.1,47.8V36.2h-14.9v-1.1h16.1v12.7H803.1z"/>
<path class="st0" d="M805.6,51.2v0.8H787v-0.8h7.7v-9.3h0.9v9.3H805.6z M803.2,36.1h-14.9v-0.9h15.8v12.4h-0.9V36.1z"/>
<path class="st0" d="M823.6,53.3V34.2h1.2v8.2h3v1.1h-3v9.7H823.6z M808.3,50.9l0.1,0c3.5-0.8,5.7-6.4,5.7-14.6h-5.5v-1.1h12.1v1.1
	h-5.4c0,2.3-0.2,4.6-0.7,6.8l6.6,8l-1,0.7l-6-7.3c-1.1,4.3-3.2,6.8-5.9,7.5l-0.2,0V50.9z"/>
<path class="st0" d="M814.6,43.1l6.6,7.9l-0.7,0.5l-6.1-7.4c-1.1,4.3-3.1,7-5.9,7.6V51c3.8-0.9,5.8-7.1,5.8-14.8h-5.5v-0.9h11.8v0.9
	h-5.4C815.3,38.5,815,40.8,814.6,43.1z M827.7,43.5h-3v9.7h-0.9V34.4h0.9v8.2h3V43.5z"/>
<path class="st0" d="M849.6,49.9c-1,1.5-2.7,2.6-4.5,2.9l-0.1,0l-3.7-2.7c-1.1,1.4-2.7,2.4-4.4,2.7l-0.2,0v-1.1l0.1,0
	c2.5-0.6,4.4-2.6,4.7-5.2l0-0.1l1.2,0.1l0,0.1c-0.1,0.9-0.4,1.7-0.8,2.5l3.3,2.5c2.3-0.7,4-2.7,4.3-5.1l0-0.1l1.2,0.1l0,0.1
	c-0.1,0.8-0.3,1.5-0.7,2.2l4.5,3l-0.6,1L849.6,49.9z M852,46.3v-6h-3.9v5.8h-1.3V34.4h1.3v4.8h3.9v-5h1.2v12.2H852z M840.3,45.9
	c-2.6,0-4.4-1.4-4.4-3.6c0-2.1,1.8-3.6,4.4-3.6c2.6,0,4.4,1.4,4.4,3.6C844.7,44.4,843,45.9,840.3,45.9z M840.3,39.8
	c-1.9,0-3.2,1-3.2,2.5s1.3,2.5,3.2,2.5c1.9,0,3.2-1,3.2-2.5S842.2,39.8,840.3,39.8z M835.1,37.6v-1.1h4.6V34h1.2v2.5h4.4v1.1H835.1z
	"/>
<path class="st0" d="M845.2,37.5h-9.9v-0.9h4.6v-2.5h0.9v2.5h4.4V37.5z M836.1,42.2c0-2.2,1.8-3.5,4.2-3.5s4.2,1.3,4.2,3.5
	s-1.8,3.5-4.2,3.5S836.1,44.4,836.1,42.2z M854,52.7l-4.4-3c-1,1.6-2.6,2.7-4.5,3l-3.7-2.8c-1.1,1.5-2.7,2.5-4.4,2.8v-0.8
	c2.6-0.6,4.5-2.7,4.8-5.3l0.9,0.1c-0.1,0.9-0.4,1.8-0.8,2.5l3.5,2.6c2.4-0.7,4.2-2.7,4.5-5.2l0.9,0.1c-0.1,0.8-0.4,1.6-0.7,2.3
	l4.5,3L854,52.7z M837,42.2c0,1.5,1.2,2.6,3.3,2.6s3.3-1.2,3.3-2.6s-1.2-2.6-3.3-2.6S837,40.8,837,42.2z M848,46h-1V34.5h1v4.8h4.2
	v-5h0.9v11.9h-0.9v-6H848V46z"/>
<path class="st0" d="M858,52.9v-7.3h1.2v2.5h13.5v-2.5h1.2v7.3H858z M859.2,51.7l13.5,0v-2.4h-13.5V51.7z M856.5,44.1V43l18.9,0v1.2
	H856.5z M865.8,37.4c-2.2,2.3-5.1,3.6-8.3,3.7l-0.1,0V40l0.1,0c3.6-0.1,8-2.5,8.9-6.1l0-0.1l1.2,0.2l0,0.1c-0.2,0.9-0.5,1.6-1,2.4
	l8.1,3.7l-0.5,1L865.8,37.4z"/>
<path class="st0" d="M875.2,43.1V44h-18.6v-0.9L875.2,43.1z M857.5,41v-0.9c3.7-0.1,8.1-2.5,9-6.2l0.9,0.2c-0.2,0.9-0.5,1.7-1.1,2.5
	l8.1,3.7l-0.4,0.8l-8.3-3.8C863.6,39.6,860.6,40.9,857.5,41z M872.8,45.7h0.9v7h-15.6v-7h0.9v2.5h13.8V45.7z M872.8,51.8v-2.7h-13.8
	v2.8L872.8,51.8z"/>
<path class="st0" d="M893.7,53.3V34.2h1.3v19.1H893.7z M878.9,52V35h1.2v15.9l6.7,0c1.6,0,3.2-0.3,4.6-0.9l0.2-0.1v1.2l-0.1,0
	c-1.5,0.6-3.1,0.9-4.7,0.9L878.9,52z"/>
<path class="st0" d="M880,51h6.7c1.7,0,3.3-0.3,4.9-0.9V51c-1.5,0.6-3.2,1-4.9,0.9h-7.6V35.1h0.9V51z M894.8,53.2h-1V34.4h1V53.2z"
	/>
<path class="st0" d="M914.4,53.3V34.2h1.2v8.2h3v1.2h-3v9.7H914.4z M899.9,51.9V35.1H911v1.1h-9.9v14.6h6.3c1.7,0,3.3-0.3,4.8-1
	l0.2-0.1V51l-0.1,0c-1.5,0.6-3.1,0.9-4.7,0.9L899.9,51.9z"/>
<path class="st0" d="M907.5,51c1.7,0,3.3-0.3,4.9-1v0.9c-1.5,0.6-3.2,0.9-4.9,0.9h-7.4V35.2h10.8v0.9H901V51H907.5z M918.5,43.5h-3
	v9.7h-0.9V34.4h0.9v8.2h3V43.5z"/>
<circle class="st0" cx="921.2" cy="51.9" r="1.1"/>
<path class="st0" d="M922.2,51.9c0,0.6-0.4,1-1,1s-1-0.4-1-1s0.4-1,1-1S922.2,51.4,922.2,51.9z"/>
</svg>
