<svg xmlns="http://www.w3.org/2000/svg" viewBox="0 0 842.37 55.23"><defs><style>.cls-1{fill:#fff;}</style></defs><g id="레이어_2" data-name="레이어 2"><g id="레이어_1-2" data-name="레이어 1"><path class="cls-1" d="M16.57,1.19,8.8,18.57h-1L0,1.19H1l7.26,16.3,7.27-16.3Z"/><path class="cls-1" d="M20.55,1.54a.77.77,0,1,1-1.54,0,.77.77,0,1,1,1.54,0Zm-.31,17h-.92V6.25h.92Z"/><path class="cls-1" d="M34.06,9.15h-.93c-.06-1.34-1.91-2.37-4.31-2.37s-4.05,1-4.05,2.37.75,2.34,4.53,2.78,5.09,1.65,5.09,3.38c0,2.25-2.38,3.57-5.39,3.57-3.39,0-5.2-1.61-5.4-3.39h.95C24.68,16.66,26,18,29.06,18c2.51,0,4.4-1.1,4.4-2.68,0-1.41-1-2.18-4.68-2.64s-4.93-1.67-4.93-3.48c0-2,2.11-3.3,5-3.3S34,7.37,34.06,9.15Z"/><path class="cls-1" d="M37.33,13.53V6.25h.93v7.13c0,3,1.58,4.64,4.09,4.64,2.73,0,4.86-2.77,4.86-5.35V6.25h.93V18.57h-.93V15.51a5.27,5.27,0,0,1-5.06,3.37C39.34,18.88,37.33,16.77,37.33,13.53Z"/><path class="cls-1" d="M51.52,12.41c0-3.65,2.53-6.47,6-6.47a5.59,5.59,0,0,1,5.3,3.26V6.25h.93V18.57h-.93v-3a5.59,5.59,0,0,1-5.3,3.26C54.05,18.88,51.52,16.06,51.52,12.41Zm11.31,0A5.29,5.29,0,0,0,57.57,6.8c-3.08,0-5.12,2.44-5.12,5.61s2,5.61,5.12,5.61A5.29,5.29,0,0,0,62.83,12.41Z"/><path class="cls-1" d="M68.71,18.57h-.93V.66h.93Z"/><path class="cls-1" d="M91.87,5.63h-.94c-.22-2.13-2.36-4-5.79-4s-5.46,1.48-5.46,3.48c0,2.16,1.81,3.19,5.75,4.07,4.51,1,6.51,2.38,6.51,5,0,2.93-3,4.75-6.82,4.75s-6.65-2.11-6.91-5.19h1c.24,2.49,2.5,4.31,6,4.31S91,16.5,91,14.28,89.08,11,84.77,10c-4-1-6-2.22-6-4.82S81.36.79,85.14.79,91.65,2.82,91.87,5.63Z"/><path class="cls-1" d="M100.8,7.11h-3V18.57h-.92V7.11h-3V6.25h3V2.42h.92V6.25h3Z"/><path class="cls-1" d="M103.16,13.53V6.25h.92v7.13c0,3,1.59,4.64,4.09,4.64,2.73,0,4.87-2.77,4.87-5.35V6.25H114V18.57H113V15.51A5.29,5.29,0,0,1,108,18.88C105.16,18.88,103.16,16.77,103.16,13.53Z"/><path class="cls-1" d="M116.8,12.41c0-3.65,2.53-6.47,6-6.47a5.58,5.58,0,0,1,5.3,3.26V.66H129V18.57h-.93v-3a5.58,5.58,0,0,1-5.3,3.26C119.33,18.88,116.8,16.06,116.8,12.41Zm11.31,0a5.29,5.29,0,0,0-5.26-5.61c-3.08,0-5.13,2.44-5.13,5.61s2,5.61,5.13,5.61A5.29,5.29,0,0,0,128.11,12.41Z"/><path class="cls-1" d="M134.84,1.54a.77.77,0,0,1-1.54,0,.77.77,0,0,1,1.54,0Zm-.31,17h-.93V6.25h.93Z"/><path class="cls-1" d="M150.15,12.41a6.12,6.12,0,1,1-12.23,0,6.12,6.12,0,1,1,12.23,0Zm-11.31,0C138.84,15.6,141,18,144,18s5.2-2.42,5.2-5.61S147.11,6.8,144,6.8,138.84,9.22,138.84,12.41Z"/><path class="cls-1" d="M165.2,18.88A6.17,6.17,0,0,1,159,12.41a6.14,6.14,0,0,1,6.09-6.47,5.72,5.72,0,0,1,5.55,4.23h-1a4.74,4.74,0,0,0-4.6-3.37c-3.06,0-5.17,2.42-5.17,5.61S162.07,18,165.13,18a4.74,4.74,0,0,0,4.62-3.41h.95A5.63,5.63,0,0,1,165.2,18.88Z"/><path class="cls-1" d="M185.59,12.41a6.12,6.12,0,1,1-12.23,0,6.12,6.12,0,1,1,12.23,0Zm-11.31,0c0,3.19,2.11,5.61,5.2,5.61s5.19-2.42,5.19-5.61-2.11-5.61-5.19-5.61S174.28,9.22,174.28,12.41Z"/><path class="cls-1" d="M187.77,12.41c0-3.65,2.53-6.47,6-6.47a5.58,5.58,0,0,1,5.3,3.26V.66H200V18.57h-.93v-3a5.58,5.58,0,0,1-5.3,3.26C190.3,18.88,187.77,16.06,187.77,12.41Zm11.31,0a5.29,5.29,0,0,0-5.26-5.61c-3.08,0-5.13,2.44-5.13,5.61S190.74,18,193.82,18A5.29,5.29,0,0,0,199.08,12.41Z"/><path class="cls-1" d="M203.92,12.41c0-3.67,2.53-6.47,6-6.47s6,2.8,6,6.47a1.89,1.89,0,0,1,0,.42h-11c.18,3,2.18,5.19,5,5.19a4.52,4.52,0,0,0,4.42-2.55h1a5.54,5.54,0,0,1-5.44,3.41C206.45,18.88,203.92,16.08,203.92,12.41Zm11-.44c-.18-3-2.18-5.17-5-5.17S205,9,204.86,12Z"/><path class="cls-1" d="M237.05,10.28H218.48V9.44h18.57Zm-1.43,5.58H220.83v2.07H236v.82H219.93V15.07h14.79v-2H219.89v-.81h15.73Zm0-11.37H220.94V6.62h14.94v.82H220V3.67h14.63V1.61H220V.79h15.54Z"/><path class="cls-1" d="M257.82,9.55c0,5.79-2.34,8.56-5.5,8.56s-5.5-2.77-5.5-8.56S249.15,1,252.32,1,257.82,3.76,257.82,9.55Zm-10.06,0c0,5.21,2,7.7,4.56,7.7s4.55-2.49,4.55-7.7-2-7.7-4.55-7.7S247.76,4.33,247.76,9.55Zm15.12,9.61h-.95V.37h.95Z"/><path class="cls-1" d="M285.54,9.68v.86H267V9.68h4.64V6.78c-2-.51-3.41-1.46-3.41-2.93,0-2.44,3.83-3.43,8.05-3.43s8.06,1,8.06,3.43c0,1.47-1.39,2.42-3.41,2.93v2.9Zm-1.3,6.16c0,2.47-4,3.21-8,3.21s-8-.74-8-3.21,4-3.17,8-3.17S284.24,13.38,284.24,15.84Zm-8-9.42c3.66,0,7.11-.77,7.11-2.57s-3.45-2.57-7.11-2.57-7.1.77-7.1,2.57S272.6,6.42,276.25,6.42Zm7,9.42c0-1.8-3.74-2.31-7-2.31s-7,.51-7,2.31,3.74,2.36,7,2.36S283.29,17.65,283.29,15.84ZM272.53,9.68H280V7a20.61,20.61,0,0,1-3.72.3,20.69,20.69,0,0,1-3.72-.3Z"/><path class="cls-1" d="M293.21,3.81h4.56v.85h-10V3.81h4.53V.35h.92ZM297,12.39c0,3.58-1.74,5.67-4.18,5.67s-4.18-2.09-4.18-5.67,1.74-5.68,4.18-5.68S297,8.8,297,12.39Zm-.94,0c0-3.06-1.37-4.82-3.24-4.82s-3.23,1.76-3.23,4.82,1.36,4.82,3.23,4.82S296.1,15.45,296.1,12.39Zm9.61-12V19.16h-.92V9.33h-4.23v9.5h-.92V.51h.92v8h4.23V.37Z"/><path class="cls-1" d="M330.46,1.19V18.57h-.95V10.12H317.24v8.45h-.95V1.19h.95V9.26h12.27V1.19Z"/><path class="cls-1" d="M348,2.07h-6.71v16.5h-.95V2.07h-6.73V1.19H348Z"/><path class="cls-1" d="M351.23,1.19h1.08l7.3,13.46,7.31-13.46H368V18.57H367V2.88l-6.89,12.7h-1.08l-6.89-12.7V18.57h-.94Z"/><path class="cls-1" d="M373.18,1.19v16.5h10.26v.88h-11.2V1.19Z"/><path class="cls-1" d="M399.45,18.57l-2-2a7.92,7.92,0,0,1-5.7,2.33c-3.72,0-6.11-1.67-6.11-4.2s2.39-3.8,4.84-5l-.13-.14c-1.39-1.38-2.65-2.75-2.65-4.53,0-2.55,2.14-4.27,4.95-4.27s4.78,1.67,4.78,3.83c0,2.6-2.22,3.76-4.84,5.06-.2.09-.4.2-.57.29l5.37,5.32a8.36,8.36,0,0,0,1.78-4.49h.94a9.65,9.65,0,0,1-2,5.13l2.66,2.64ZM396.81,16l-5.63-5.56c-2.75,1.38-4.58,2.46-4.58,4.31,0,2,2,3.36,5.19,3.36A6.9,6.9,0,0,0,396.81,16Zm-5.46-6.64c.07,0,.14-.07.2-.09,2.78-1.37,4.95-2.4,4.95-4.53,0-1.81-1.58-3-3.8-3s-4,1.37-4,3.28c0,1.45.81,2.51,2.31,4Z"/><path class="cls-1" d="M403.1,9.88A8.72,8.72,0,0,1,412,.81a8.28,8.28,0,0,1,8.36,6h-1A7.29,7.29,0,0,0,412,1.69a7.8,7.8,0,0,0-8,8.19,7.84,7.84,0,0,0,8,8.18c3.87,0,6.62-2.13,7.52-5.34h1c-.94,3.72-4.11,6.22-8.51,6.22A8.73,8.73,0,0,1,403.1,9.88Z"/><path class="cls-1" d="M436.9,5.63H436c-.22-2.13-2.36-4-5.79-4s-5.45,1.48-5.45,3.48c0,2.16,1.8,3.19,5.74,4.07,4.51,1,6.51,2.38,6.51,5,0,2.93-3,4.75-6.82,4.75s-6.64-2.11-6.91-5.19h.95c.24,2.49,2.51,4.31,6,4.31S436,16.5,436,14.28,434.1,11,429.79,10c-4.05-1-6-2.22-6-4.82s2.62-4.36,6.4-4.36S436.67,2.82,436.9,5.63Z"/><path class="cls-1" d="M453.22,5.63h-1c-.22-2.13-2.35-4-5.78-4S441,3.15,441,5.15c0,2.16,1.8,3.19,5.74,4.07,4.51,1,6.52,2.38,6.52,5,0,2.93-3,4.75-6.83,4.75s-6.64-2.11-6.9-5.19h.94c.24,2.49,2.51,4.31,6,4.31s5.85-1.56,5.85-3.78S450.42,11,446.11,10c-4.05-1-6-2.22-6-4.82S442.7.79,446.49.79,453,2.82,453.22,5.63Z"/><path class="cls-1" d="M468.11.51H469V18.83h-.93V9.62h-3.43c0,5.74-1.45,8.49-4.18,8.49s-4.18-2.77-4.18-8.56S457.77,1,460.5,1s4.05,2.51,4.18,7.77h3.43Zm-4.35,9c0-5.22-1.1-7.7-3.26-7.7s-3.26,2.48-3.26,7.7,1.1,7.7,3.26,7.7S463.76,14.76,463.76,9.55ZM473.44.37V19.16h-.93V.37Z"/><path class="cls-1" d="M494.29,5.32c0,7.46-3.8,12.44-10.08,12.44v-.88c5.59,0,9.16-4.45,9.16-11.47V2.11h-9.16V1.25h10.08Zm5.94,13.84h-.92V.37h.92Z"/><path class="cls-1" d="M515.81,11.05H505.23V.81h.92v4h8.73v-4h.93Zm-9,6.82h14.8v.85H505.84V13.11h.93Zm8.11-7.68V5.68h-8.73v4.51Zm9-4.69v.86h-3v8H520V.37h.92V5.5Z"/><path class="cls-1" d="M538.25,3.43h-12.7V2.57h5.88V0h.92V2.57h5.9ZM526.5,8.76c0-2.38,2.26-3.83,5.39-3.83s5.39,1.45,5.39,3.83-2.27,3.83-5.39,3.83S526.5,11.13,526.5,8.76Zm1.43,9.11h14.81v.85H527V14.1h.93Zm-.51-9.11c0,1.76,1.72,3,4.47,3s4.47-1.23,4.47-3-1.72-3-4.47-3S527.42,7,527.42,8.76ZM545,6.16V7h-3v7.5h-.92V.37H542V6.16Z"/><path class="cls-1" d="M553.4,1.25h7.51v4.6c0,6.71-2.78,11.91-7.51,11.91v-.88c4.05,0,6.58-4.67,6.58-10.94V2.11H553.4Zm17-.88V19.16h-.92V9.33H565v9.5h-.92V.51H565v8h4.49V.37Z"/><path class="cls-1" d="M585.92,6c0,3-2.09,5.32-5.76,5.32S574.39,9,574.39,6,576.48.7,580.16.7,585.92,3.08,585.92,6ZM575.34,6c0,2.71,1.91,4.51,4.82,4.51S585,8.74,585,6s-1.91-4.51-4.81-4.51S575.34,3.32,575.34,6Zm1.6,11.84h14.81v.85H576V12.94h.92Zm14.11-3.5h-.93V.37h.93Z"/><path class="cls-1" d="M605,10h-3.68V9.13h3.76c3.26,0,5.81-.2,7.2-.79v.84a17.85,17.85,0,0,1-5.72.77v2.68h-.93V10Zm-3.13-6c0-1.87,1.45-3.38,4.23-3.38s4.22,1.51,4.22,3.38-1.45,3.39-4.22,3.39S601.89,5.88,601.89,4Zm.9,0c0,1.44,1.19,2.56,3.33,2.56s3.32-1.12,3.32-2.56-1.19-2.55-3.32-2.55S602.79,2.57,602.79,4Zm16.13,8.19v6.53H603.39V12.19h.92V14.5H618V12.19Zm-.92,5.7V15.34H604.31v2.55ZM614,4.44h-2.69V3.61H614V.51H615V11.33H614Zm4.86,7H618V.37h.92Z"/><path class="cls-1" d="M629.28,9l6.32,8.27-.73.55L629,10.06c-1.14,4.48-3.24,7.37-6.23,7.78V17c4.36-.82,6.27-8.14,6.32-16.07L630,1A40.93,40.93,0,0,1,629.28,9Zm12.7.48h-3v9.7h-.93V.37H639V8.6h3Z"/><path class="cls-1" d="M655.66,9.55c0,5.79-2.33,8.56-5.5,8.56s-5.5-2.77-5.5-8.56S647,1,650.16,1,655.66,3.76,655.66,9.55Zm-10,0c0,5.21,1.95,7.7,4.55,7.7s4.56-2.49,4.56-7.7-2-7.7-4.56-7.7S645.61,4.33,645.61,9.55Zm15.11,9.61h-.94V.37h.94Z"/><path class="cls-1" d="M683.38,17.21v.85H664.81v-.85Zm-1-4.38H666.26V1.25H682v.86H667.19V6.6h14.63v.86H667.19V12h15.16Z"/><path class="cls-1" d="M704.55,10.28H686V9.44h18.58Zm-1.43,5.58H688.33v2.07h15.2v.82h-16.1V15.07h14.78v-2H687.38v-.81h15.74Zm0-11.37H688.44V6.62h14.94v.82H687.54V3.67h14.63V1.61H687.54V.79h15.53Z"/><path class="cls-1" d="M718.43,8.71l4.75,8.43-.77.46-4.2-7.54q-1.12,6.72-4.6,7.78v-.9c3-1.08,4.24-6.84,4.27-14.83h-4V1.25h8.8v.86H718.8A57.58,57.58,0,0,1,718.43,8.71ZM725,.51h.93V18.83H725v-10h-3.45V7.92H725Zm5.9-.14V19.16H730V.37Z"/><path class="cls-1" d="M734.77,10.85V10c3.65-.66,5.88-3.43,6-8H735V1.08h12v.86h-5.3a12.47,12.47,0,0,1-.57,3.47L747.42,10l-.53.72L740.8,6.27A7.75,7.75,0,0,1,734.77,10.85Zm1,2.11H751v6h-.93V13.82H735.74ZM754,5.81h-3v5.83h-.93V.37H751V5h3Z"/><path class="cls-1" d="M765.33,3.48h-9.92V2.62H760V.11h.93V2.62h4.42Zm-9.11,4.77c0-2.16,1.85-3.45,4.25-3.45s4.24,1.29,4.24,3.45-1.84,3.46-4.24,3.46S756.22,10.41,756.22,8.25Zm17.89,10.5-4.4-3a6.7,6.7,0,0,1-4.49,3l-3.72-2.79a6.94,6.94,0,0,1-4.44,2.79v-.85a6.32,6.32,0,0,0,4.84-5.28l.9.08A6.7,6.7,0,0,1,762,15.2l3.5,2.62A6.23,6.23,0,0,0,770,12.59l.9.08a6.47,6.47,0,0,1-.7,2.31l4.49,3Zm-17-10.5c0,1.45,1.24,2.62,3.33,2.62s3.32-1.17,3.32-2.62-1.23-2.62-3.32-2.62S757.14,6.8,757.14,8.25Zm11,3.7h-.92V.51h.92V5.32h4.18V.37h.93V12.19h-.93v-6H768.1Z"/><path class="cls-1" d="M795.36,9.11V10H776.79V9.11ZM777.6,7V6.16c3.66-.11,8.12-2.53,9-6.16l.9.15a6.6,6.6,0,0,1-1.05,2.45l8.12,3.71-.38.75L785.83,3.3A11.9,11.9,0,0,1,777.6,7ZM793,11.79h.93v7h-15.6v-7h.92v2.49H793Zm0,6.1V15.12H779.21v2.77Z"/><path class="cls-1" d="M800.18,17h6.69a12.45,12.45,0,0,0,4.86-.92v.88a12,12,0,0,1-4.86.92h-7.62V1.14h.93ZM815,19.16l-1,0V.37h1Z"/><path class="cls-1" d="M827.61,17a12.39,12.39,0,0,0,4.86-.95v.9a12.32,12.32,0,0,1-4.86.9h-7.39V1.25H831v.86h-9.86V17Zm11-7.53h-3v9.7h-.92V.37h.92V8.6h3Z"/><path class="cls-1" d="M842.37,17.91a1,1,0,1,1-1-1A1,1,0,0,1,842.37,17.91Z"/><path class="cls-1" d="M19.14,51.21v.85H.57v-.85H9.39V46.56h.93v4.65ZM9,45.46H1.85V35.25H9.11v.86H2.77v8.5H9Zm8.83,0H10.45V35.25h7.31v.86H11.38v8.5h6.49Z"/><path class="cls-1" d="M34.48,37.43H21.78v-.86h5.87V34h.93v2.53h5.9ZM22.73,42.76c0-2.38,2.26-3.83,5.39-3.83s5.39,1.45,5.39,3.83-2.27,3.83-5.39,3.83S22.73,45.13,22.73,42.76Zm1.43,9.11H39v.85H23.23V48.1h.93Zm-.51-9.11c0,1.76,1.72,3,4.47,3s4.46-1.23,4.46-3-1.71-3-4.46-3S23.65,41,23.65,42.76Zm17.58-2.6V41h-3v7.5h-.92V34.37h.92v5.79Z"/><path class="cls-1" d="M43.8,55.23H43L43.6,51h1Z"/><path class="cls-1" d="M53.86,47.2c.08,2.77,2,4.86,5.45,4.86s5.46-2.13,5.46-5.32V35.19h.94V46.74c0,3.74-2.46,6.2-6.4,6.2S53,50.48,52.91,47.2Z"/><path class="cls-1" d="M82.57,39.63h-.95c-.22-2.13-2.35-4-5.79-4s-5.45,1.48-5.45,3.48c0,2.16,1.8,3.19,5.74,4.07,4.51,1,6.51,2.38,6.51,5,0,2.93-3,4.75-6.82,4.75s-6.64-2.11-6.91-5.19h.95c.24,2.49,2.51,4.31,6,4.31s5.86-1.56,5.86-3.78S79.77,45,75.46,44c-4-.95-6-2.22-6-4.82s2.62-4.36,6.4-4.36S82.35,36.82,82.57,39.63Z"/><path class="cls-1" d="M103.78,44.28H85.2v-.84h18.58Zm-1.44,5.58H87.56v2.07h15.2v.82H86.66V49.07h14.78v-2H86.61v-.81h15.73Zm0-11.37H87.67v2.13h14.94v.82H86.77V37.67H101.4V35.61H86.77v-.82H102.3Z"/><path class="cls-1" d="M131.1,44.5v.83H112.53V44.5h8.82V42.12h-7.26V34.79h15.69v.82H115v2.44h14.46v.79H115v2.47h14.92v.81h-7.65V44.5Zm-1.32,5.65c0,2.16-4,2.9-8,2.9s-8-.74-8-2.9,4-2.9,8-2.9S129.78,48,129.78,50.15Zm-.92,0c0-1.5-3.75-2.07-7.05-2.07s-7,.57-7,2.07,3.74,2.07,7,2.07S128.86,51.65,128.86,50.15Z"/><path class="cls-1" d="M138.77,37.81h4.56v.85h-10v-.85h4.53V34.35h.92Zm3.83,8.58c0,3.58-1.73,5.67-4.18,5.67s-4.18-2.09-4.18-5.67,1.74-5.68,4.18-5.68S142.6,42.8,142.6,46.39Zm-.94,0c0-3.06-1.37-4.82-3.24-4.82s-3.23,1.76-3.23,4.82,1.36,4.82,3.23,4.82S141.66,49.45,141.66,46.39Zm9.61-12V53.16h-.92V43.33h-4.23v9.5h-.92V34.51h.92v8h4.23V34.37Z"/><path class="cls-1" d="M179.59,43.53v.86H161v-.86h8.82V40.84h-7.28V34.79h15.55v.86H163.48V40h14.85v.86h-7.57v2.69Zm-1.3,6.31c0,2.47-4,3.21-8,3.21s-8-.74-8-3.21,4-3.21,8-3.21S178.29,47.38,178.29,49.84Zm-.93,0c0-1.8-3.76-2.35-7.06-2.35s-7.06.55-7.06,2.35S167,52.2,170.3,52.2,177.36,51.65,177.36,49.84Z"/><path class="cls-1" d="M182.6,45.07v-.88c3.65-.66,5.87-3.54,6-8.25h-5.78v-.86h12v.86h-5.3a13.51,13.51,0,0,1-.57,3.6l6.29,4.65-.53.72-6.09-4.51A7.73,7.73,0,0,1,182.6,45.07Zm1.25,2.11h15.54V53h-.93V48H183.85Zm15.54-12.81V45.86h-.93V39.92h-4.53v-.84h4.53V34.37Z"/><path class="cls-1" d="M228.07,51.23v.83H209.5v-.83h4.87V46.72c-1.9-.55-3.13-1.52-3.13-3,0-2.51,3.35-3.54,7.55-3.54s7.55,1,7.55,3.54c0,1.52-1.21,2.49-3.11,3v4.51Zm-.7-12.92H210.21v-.86h8.07V34.13h.93v3.32h8.16Zm-8.58,8.06c3.67,0,6.6-.75,6.6-2.69S222.46,41,218.79,41s-6.6.75-6.6,2.68S215.11,46.37,218.79,46.37Zm-3.5,4.86h7V46.92a17.57,17.57,0,0,1-3.52.3,18.73,18.73,0,0,1-3.5-.28Z"/><path class="cls-1" d="M237.14,51c3.14,0,5.72-.22,7.19-.86V51a22,22,0,0,1-7.13.83h-6.53V51h4V42.05h.93V51ZM241,36.11h-9.53v-.86h10.45V47.38H241Zm9.17,7.18h-2.92v9.87h-.93V34.37h.93v8.06h2.92Z"/><path class="cls-1" d="M270.4,44.28H251.83v-.84H270.4ZM269,49.86H254.19v2.07h15.2v.82H253.28V49.07h14.79v-2H253.24v-.81H269Zm0-11.37H254.3v2.13h14.94v.82H253.39V37.67H268V35.61H253.39v-.82h15.54Z"/><path class="cls-1" d="M297.73,46.19h-8.94V53.6h-.92V46.19h-8.72v-.92h18.58Zm-2.49-10.32H280.56V35h15.63v8.3h-.95Z"/><path class="cls-1" d="M312.53,37.54H300.47v-.86h5.81V34h.93v2.64h5.32Zm-11.07,5.24c0-2.42,2.25-3.83,5.28-3.83S312,40.36,312,42.78s-2.24,3.83-5.28,3.83S301.46,45.2,301.46,42.78Zm16.7,9.09v.85h-16v-5h.92v4.14Zm-15.77-9.09c0,1.72,1.63,3,4.35,3s4.36-1.27,4.36-3-1.63-3-4.36-3S302.39,41.06,302.39,42.78Zm14.23,1.56H313v-.83h3.65V40.18H313v-.83h3.65v-5h.93V48.48h-.93Z"/><path class="cls-1" d="M328.48,37.83h5.63v.86H322v-.86h5.61v-3.5h.92Zm4.58,8.58c0,3.48-2.27,5.65-5,5.65s-5-2.17-5-5.65,2.27-5.66,5-5.66S333.06,42.93,333.06,46.41Zm-.95,0c0-2.95-1.89-4.8-4.09-4.8s-4.1,1.85-4.1,4.8,1.9,4.8,4.1,4.8S332.11,49.36,332.11,46.41ZM341,43.46h-3v9.7h-.93V34.37H338V42.6h3Z"/><path class="cls-1" d="M348.61,44.17c-3.52,0-5.57-2.05-5.57-4.71s2-4.71,5.57-4.71,5.57,2,5.57,4.71S352.13,44.17,348.61,44.17Zm0-.86c2.75,0,4.64-1.46,4.64-3.85s-1.89-3.85-4.64-3.85S344,37.06,344,39.46,345.86,43.31,348.61,43.31Zm12.3,9.41-4.14-3.52a5.91,5.91,0,0,1-4.35,3.52l-3.55-3.36a6.11,6.11,0,0,1-4.38,3.36v-.85c2.36-.36,4.4-3.19,4.58-6.45l.9.07a9.59,9.59,0,0,1-.7,3l3.45,3.28c2.16-.53,3.92-3.25,4.1-6.4l.9.09a10.17,10.17,0,0,1-.6,2.88l4.4,3.7Zm-2-11.5V37.41h-4.09l-.07-.86H359V34.37h.92v10.5H359V42.08h-4.16l.07-.86Z"/><path class="cls-1" d="M382.38,43.11V44H363.81v-.86ZM364.62,41v-.88c3.66-.11,8.12-2.53,9-6.16l.9.15a6.6,6.6,0,0,1-1.05,2.45l8.11,3.71-.37.75-8.32-3.76A11.9,11.9,0,0,1,364.62,41ZM380,45.79h.93v7h-15.6v-7h.92v2.49H380Zm0,6.1V49.12H366.23v2.77Z"/><path class="cls-1" d="M387.2,51h6.68a12.47,12.47,0,0,0,4.87-.92v.88a12,12,0,0,1-4.87.92h-7.61V35.14h.93ZM402,53.16l-.95,0V34.37H402Z"/><path class="cls-1" d="M414.63,51a12.39,12.39,0,0,0,4.86-1v.9a12.32,12.32,0,0,1-4.86.9h-7.39V35.25H418v.86h-9.86V51Zm11-7.53h-3v9.7h-.92V34.37h.92V42.6h3Z"/><path class="cls-1" d="M429.39,51.91a1,1,0,1,1-1-1A1,1,0,0,1,429.39,51.91Z"/></g></g></svg>