<?xml version="1.0" encoding="utf-8"?>
<!-- Generator: Adobe Illustrator 26.0.2, SVG Export Plug-In . SVG Version: 6.00 Build 0)  -->
<svg version="1.1" id="레이어_1" xmlns="http://www.w3.org/2000/svg" xmlns:xlink="http://www.w3.org/1999/xlink" x="0px"
	 y="0px" viewBox="0 0 957.3 89" style="enable-background:new 0 0 957.3 89;" xml:space="preserve">
<style type="text/css">
	.st0{fill:#FFFFFF;}
</style>
<g id="레이어_2_00000027576870755580286280000000735347131697283485_">
	<g id="레이어_1-2">
		<path class="st0" d="M-0.1,5.3V3.5c0-1.7,1.2-3.1,2.9-3.3l0.2,0v1.1l-0.1,0C1.8,1.4,1.1,2.2,1,3.2h1v2.2H-0.1z"/>
		<path class="st0" d="M0,3.5c0-1.6,1.2-3,2.8-3.2v0.8C1.7,1.3,0.9,2.2,0.9,3.3h1v1.9H0V3.5z"/>
		<path class="st0" d="M6.2,20.7v-5h15.3v-2.6H6.2v-1.2h16.7v5H7.6v2.6h16v1.2H6.2z M21.6,10.8V0.4h1.3v4.4h3.2V6h-3.2v4.8H21.6z
			 M5.5,9.7V1.1h12.7v1.2H6.8v6.1H12c3.5,0,6.3-0.4,7.8-1.1L20,7.3v1.3l-0.1,0c-1.6,0.7-4.5,1.1-8.1,1.1H5.5z"/>
		<path class="st0" d="M11.8,9.5H5.7V1.2h12.4v0.9H6.7v6.4H12c3.6,0,6.4-0.4,7.9-1.1v1C18.4,9.1,15.5,9.5,11.8,9.5z M7.4,19.6h16
			v0.9H6.4v-4.7h15.3V13H6.3v-0.9h16.4v4.7H7.4V19.6z M26,4.9v0.9h-3.2v4.8h-1V0.5h1v4.4H26z"/>
		<path class="st0" d="M26.9,4.4l0.1,0c0.9-0.2,1.7-1,1.7-1.9h-1V0.4h2.2l0,1.9c0,1.7-1.2,3.1-2.8,3.3l-0.2,0V4.4z"/>
		<path class="st0" d="M29.7,2.2c0,1.6-1.1,3-2.7,3.2V4.6c1.1-0.2,1.8-1.1,1.9-2.2h-1V0.5h1.9L29.7,2.2z"/>
		<path class="st0" d="M33.9,20.7v-6.2h1.3v4.9l16.4,0v1.2H33.9z M49.6,15.9V7.1h-5.3c-1.2,3.8-5.1,5.7-11.6,5.7h-0.1v-1.3h0.1
			c5.5,0,8.9-1.4,10.2-4.3H32.6V6h10.7c0.1-0.5,0.1-1,0.1-1.5V2.3H32.6V1.1h12.1v3.1c0,0.5,0,1.1-0.1,1.6h5V0.4h1.3v15.6H49.6z"/>
		<path class="st0" d="M32.8,12.6v-1c5.3,0,9.1-1.4,10.4-4.6H32.8V6.1h10.7c0.1-0.6,0.2-1.1,0.2-1.7V2.2H32.8V1.2h11.9v3
			c0,0.6,0,1.2-0.1,1.8h5.3V0.5h1v15.3h-1V6.9h-5.5C43,11,38.7,12.6,32.8,12.6z M51.4,19.6v0.9H34v-5.9h1v4.9L51.4,19.6z"/>
		<path class="st0" d="M56.9,20.7v-8.2h1.3v2.9h14.9v-2.9h1.3v8.2H56.9z M73.1,19.5v-2.9H58.2v2.9L73.1,19.5z M73.1,11.7V0.4h1.3
			v11.4H73.1z M68.1,11.5V5.4h-4.5V4.2h4.5V0.5h1.3v11H68.1z M54.9,10L54.9,10c4.4-1.4,5-5.7,5-9.3V0.6h1.3l0,0.1
			c0,1.6-0.1,3.2-0.6,4.8L66,10l-0.8,0.9l-5-4.1c-0.9,2.2-2.8,3.9-5.1,4.5l-0.2,0V10z"/>
		<path class="st0" d="M55.1,11.1v-1c4.2-1.4,5-5.3,5-9.4h1c0,1.6-0.2,3.3-0.6,4.8l5.3,4.4l-0.7,0.7l-5-4.2
			C59.3,8.8,57.4,10.5,55.1,11.1z M73.2,12.6h1v7.9H57v-7.9h1v2.9h15.1V12.6z M73.2,19.6v-3.2H58.1v3.2L73.2,19.6z M68.3,5.3h-4.5
			V4.4h4.5V0.6h1v10.7h-1V5.3z M74.2,0.5v11.1h-1V0.5H74.2z"/>
		<path class="st0" d="M96.2,21.1V0.4h1.3v20.8H96.2z M91.3,20.8V10.7h-3.5c0,6.2-1.6,9.3-4.7,9.3c-3.1,0-4.7-3.2-4.7-9.5
			c0-6.3,1.6-9.5,4.7-9.5c3,0,4.5,2.7,4.7,8.5h3.5v-9h1.3v20.3H91.3z M83.2,2.3c-2.3,0-3.4,2.7-3.4,8.3s1.1,8.3,3.4,8.3
			c2.3,0,3.4-2.8,3.4-8.3C86.6,5,85.5,2.3,83.2,2.3z"/>
		<path class="st0" d="M91.5,0.6h1v20h-1V10.6h-3.8c0,6.3-1.6,9.3-4.6,9.3s-4.6-3-4.6-9.3s1.6-9.3,4.6-9.3s4.4,2.7,4.6,8.5h3.8V0.6z
			 M86.7,10.5c0-5.7-1.2-8.4-3.6-8.4s-3.6,2.7-3.6,8.4s1.2,8.4,3.6,8.4S86.7,16.2,86.7,10.5z M97.3,0.5V21h-1V0.5H97.3z"/>
		<path class="st0" d="M117.4,17.2c-2.1,2.2-5,3.5-8,3.5l-0.3,0v-1.2h0.1c4,0,7.6-2.2,8.4-5.2h-8.3V13h17.2v1.2H119
			c-0.2,0.7-0.4,1.4-0.8,2l8.9,3.6l-0.6,1.1L117.4,17.2z M124.9,11.8V0.4h1.3v4.9h3.2v1.2h-3.2v5.4H124.9z M108.7,10.5V1.1h11.8v9.5
			H108.7z M119.3,9.3v-7H110v7H119.3z"/>
		<path class="st0" d="M120.4,10.4h-11.5V1.2h11.5V10.4z M117.9,16.2l8.9,3.6l-0.4,0.9l-9-3.8c-2.1,2.3-5.1,3.6-8.2,3.5v-0.9
			c4,0,7.8-2.2,8.6-5.5h-8.3v-0.9h16.9v0.9h-7.6C118.7,14.8,118.4,15.6,117.9,16.2z M119.4,2.2h-9.5v7.3h9.5L119.4,2.2z M129.2,5.3
			v0.9H126v5.4h-1V0.5h1v4.8H129.2z"/>
		<path class="st0" d="M140.5,21.6v-6.5h-9.6v-1.2h20.5l0,1.2h-9.7v6.5H140.5z M131.5,10.4l0.1,0c4.8-0.5,8.1-3,8.8-6.6h-8.4V2.6
			h8.3v-2.8h1.3v2.8h8.5v1.2h-8.4c-0.1,0.8-0.4,1.5-0.7,2.3l9.6,4.1l-0.6,1.1l-9.6-4.2c-1.7,2.5-4.8,4.1-8.8,4.4l-0.2,0V10.4z"/>
		<path class="st0" d="M151.3,15h-9.6v6.5h-1V15H131v-0.9h20.3L151.3,15z M131.6,11.5v-0.9c5.3-0.5,8.4-3.3,9-6.8h-8.4V2.8h8.3V0h1
			v2.8h8.5v0.9h-8.4c-0.1,0.9-0.4,1.7-0.8,2.5l9.6,4.1l-0.5,0.9L140.4,7C138.8,9.4,135.8,11.1,131.6,11.5z"/>
		<path class="st0" d="M171.8,21.1V10.7H167c0,5.8-2.3,9.3-6.1,9.3c-3.8,0-6-3.5-6-9.5c0-5.9,2.3-9.5,6-9.5c3.5,0,5.8,3.2,6,8.5h4.7
			V0.4h1.3v20.8H171.8z M161,2.2c-3,0-4.7,3.1-4.7,8.3s1.8,8.3,4.7,8.3s4.7-3.1,4.7-8.2v-0.1l0,0C165.8,5.3,164,2.2,161,2.2z"/>
		<path class="st0" d="M172.9,0.5V21h-1V10.6h-5c0,6.3-2.5,9.3-5.9,9.3s-5.9-3-5.9-9.3s2.5-9.3,5.9-9.3c3.2,0,5.7,2.7,5.9,8.5h5V0.5
			H172.9z M165.9,10.5c0-5.7-2.1-8.4-4.9-8.4s-4.9,2.7-4.9,8.4s2.1,8.4,4.9,8.4S165.9,16.2,165.9,10.5L165.9,10.5z"/>
		<path class="st0" d="M201.6,21.1V10.7h-4.7c0,5.8-2.3,9.3-6.1,9.3c-3.8,0-6-3.5-6-9.5c0-5.9,2.3-9.5,6-9.5c3.5,0,5.8,3.2,6,8.5
			h4.7V0.4h1.3v20.8H201.6z M190.8,2.2c-2.9,0-4.7,3.1-4.7,8.3c0,5.2,1.8,8.3,4.7,8.3c2.9,0,4.7-3.1,4.7-8.3
			C195.6,5.3,193.8,2.2,190.8,2.2z"/>
		<path class="st0" d="M202.7,0.5V21h-1V10.6h-5c0,6.3-2.5,9.3-5.9,9.3s-5.9-3-5.9-9.3s2.5-9.3,5.9-9.3c3.2,0,5.7,2.7,5.9,8.5h5V0.5
			H202.7z M195.7,10.5c0-5.7-2.1-8.4-4.9-8.4s-4.8,2.7-4.8,8.4s2.1,8.4,4.9,8.4S195.7,16.2,195.7,10.5L195.7,10.5z"/>
		<path class="st0" d="M216.5,21.6v-6.7h-9.6v-1.3h20.5v1.3h-9.6v6.7H216.5z M208.5,10.9V1.1H226v1.2h-16.2v7.3h16.5v1.2H208.5z"/>
		<path class="st0" d="M227.3,14.7h-9.6v6.7h-1v-6.7H207v-1h20.3V14.7z M226.1,10.7h-17.5V1.2h17.2v0.9h-16.2v7.6h16.5L226.1,10.7z"
			/>
		<path class="st0" d="M231.6,20.7v-5.9h1.3l0,4.7h16.5v1.2H231.6z M239.6,16.8v-4.1h-9.6v-1.2h20.5v1.2h-9.6v4.1H239.6z M240.2,9.2
			c-4.1,0-8.8-1.1-8.9-4.2l0-0.1c0-3.2,4.8-4.4,9-4.4c4.1,0,9,1.1,9,4.4S244.3,9.2,240.2,9.2z M240.2,1.6c-3.7,0-7.6,1-7.6,3.2
			s4,3.2,7.7,3.2c3.7,0,7.6-1,7.6-3.2S243.9,1.6,240.2,1.6z"/>
		<path class="st0" d="M250.3,11.5v0.9h-9.6v4.2h-1v-4.2h-9.6v-0.9H250.3z M231.3,4.8c0-2.9,4.2-4.2,8.8-4.2s8.8,1.4,8.8,4.2
			S244.8,9,240.2,9S231.4,7.7,231.3,4.8L231.3,4.8z M232.7,19.6h16.5v0.9h-17.4v-5.6h1L232.7,19.6z M232.4,4.8
			c0,2.2,3.8,3.3,7.8,3.3S248,7,248,4.8s-3.8-3.3-7.8-3.3S232.4,2.6,232.4,4.8z"/>
		<path class="st0" d="M277.9,21.1V10.4h-4.4v10.4h-1.3V0.5h1.3v8.7h4.4V0.4h1.3v20.8H277.9z M260.6,19.7V1.1h1.3v8h6.1l0-8h1.3
			v18.6H260.6z M268,18.5v-8.2h-6.1v8.2H268z"/>
		<path class="st0" d="M268.1,1.2h1v18.3h-8.4V1.2h1v8h6.3L268.1,1.2z M268.1,18.6v-8.5h-6.3v8.5L268.1,18.6z M279.1,0.5V21h-1V10.3
			h-4.7v10.4h-1v-20h1v8.7h4.7V0.5H279.1z"/>
		<path class="st0" d="M293.6,21c-5.5,0-8.7-1.5-8.7-4.1s3.2-4.1,8.7-4.1c5.5,0,8.7,1.5,8.7,4.1S299,21,293.6,21z M293.6,14
			c-4.5,0-7.4,1.1-7.4,2.9s2.9,2.9,7.4,2.9c3.6,0,7.4-0.8,7.4-2.9v-0.1h0C300.8,14.7,297.1,14,293.6,14z M300.6,12V9.1h-5.4V7.9h5.4
			V4.3H296V3.1h4.6V0.4h1.3V12H300.6z M283.7,11.1V9.9h0.1c6.8,0,10.2-2.3,10.2-6.9V2.3h-10.3V1.1h11.6V3c0,5.4-3.9,8.1-11.5,8.1
			H283.7z"/>
		<path class="st0" d="M283.8,10.9V10c6.5,0,10.3-2.1,10.3-7V2.2h-10.3V1.2h11.4V3C295.1,8.5,291,10.9,283.8,10.9z M302.2,16.8
			c0,2.9-3.9,4-8.6,4s-8.6-1.1-8.6-4s3.9-4,8.6-4S302.2,14,302.2,16.8L302.2,16.8z M301.2,16.8c0-2.1-3.5-3-7.6-3s-7.6,0.9-7.6,3
			s3.5,3,7.6,3S301.1,18.9,301.2,16.8L301.2,16.8z M300.8,9h-5.4V8h5.4V4.1h-4.6V3.2h4.6V0.5h1v11.4h-1V9z"/>
		<path class="st0" d="M323,21.1V0.4h1.3v8.8h3.2v1.2h-3.2v10.8H323z M314.3,19.8c-0.4,0-0.8,0-1.1,0h-7.3v-1.2h4.4V8.7h1.3v9.8h1.5
			c3.8,0,6.4-0.3,7.8-0.9l0.2-0.1v1.3l-0.1,0C318.8,19.5,316.6,19.8,314.3,19.8z M317.2,14.8V2.5h-10.4V1.3h11.7v13.5H317.2z"/>
		<path class="st0" d="M313.1,18.6c3.4,0,6.2-0.2,7.9-0.9v1c-2.5,0.7-5.1,1-7.8,0.9h-7.1v-0.9h4.4V8.9h1v9.8L313.1,18.6z M317.3,2.4
			h-10.4V1.5h11.4v13.2h-1V2.4z M327.3,10.2h-3.2V21h-1V0.5h1v8.8h3.2V10.2z"/>
		<path class="st0" d="M345.8,17.4c-1.7,2-4.9,3.3-8.3,3.3h-0.1v-1.2h0.1c3.5,0,7.5-1.7,8.2-4.5h-8.2v-1.2h8.2v-2.6h1.3v2.6h8.2V15
			H347c-0.1,0.5-0.3,0.9-0.5,1.4l9,3.6L355,21L345.8,17.4z M353.3,12.1V0.4h1.3v11.8H353.3z M336.9,10.1V0.9h1.3v3.3h9.5V0.9h1.3
			l0,9.3H336.9z M347.7,8.9V5.4h-9.5v3.6H347.7z"/>
		<path class="st0" d="M348.8,10H337V1h1v3.3h9.7V1h1L348.8,10z M354.9,20.8l-9.2-3.6c-1.7,2.1-5,3.3-8.2,3.3v-0.9
			c3.8,0,7.8-1.9,8.3-4.8h-8.2v-0.9h8.2v-2.6h1v2.6h8.2v0.9h-8.2c-0.1,0.6-0.3,1.1-0.6,1.6l9.1,3.6L354.9,20.8z M347.8,9.1V5.2h-9.7
			v3.8H347.8z M354.5,12h-1V0.5h1V12z"/>
		<path class="st0" d="M360.4,20.7v-4.6h16.1v-2.1h-16.1v-1.2h17.4v4.5h-16.1v2.2h16.6v1.2H360.4z M358.9,10.7V9.5h20.5l-0.1,1.2
			H358.9z M369.1,7.9c-5.6,0-8.9-1.4-8.9-3.7c0-2.3,3.3-3.7,8.9-3.7c5.7,0,8.9,1.4,8.9,3.7C378,6.6,374.7,7.9,369.1,7.9z M369.1,1.7
			c-4.8,0-7.6,0.9-7.6,2.5c0,2.3,5.3,2.5,7.6,2.5c4.8,0,7.6-0.9,7.6-2.5C376.7,2.6,373.8,1.7,369.1,1.7z"/>
		<path class="st0" d="M379.2,10.6H359V9.6h20.3L379.2,10.6z M377.9,4.2c0,2.6-4.1,3.6-8.8,3.6s-8.8-1-8.8-3.6s4.2-3.6,8.8-3.6
			S377.9,1.6,377.9,4.2z M377.7,17.2h-16.1v2.4h16.6v0.9h-17.6v-4.3h16.1v-2.4h-16.1V13h17.2V17.2z M361.4,4.2c0,2,3.8,2.7,7.7,2.7
			s7.7-0.7,7.7-2.7s-3.7-2.7-7.7-2.7S361.4,2.3,361.4,4.2L361.4,4.2z"/>
		<path class="st0" d="M406.3,21.1V0.4h1.3v20.8H406.3z M395.9,20c-3.8,0-6.1-3.5-6.1-9.5c0-5.9,2.3-9.5,6.1-9.5s6.1,3.5,6.1,9.5
			C402,16.4,399.7,20,395.9,20z M391,10.7c0,5.1,1.8,8.1,4.9,8.1c3,0,4.9-3.1,4.9-8.3c0-5.2-1.8-8.3-4.9-8.3c-3,0-4.8,3.1-4.8,8.3
			L391,10.7L391,10.7z"/>
		<path class="st0" d="M401.9,10.5c0,6.3-2.5,9.3-6,9.3s-6-3-6-9.3s2.5-9.3,6-9.3S401.9,4.2,401.9,10.5z M390.9,10.5
			c0,5.7,2.1,8.4,5,8.4s5-2.7,5-8.4s-2.2-8.4-5-8.4S390.9,4.8,390.9,10.5L390.9,10.5z M407.4,21h-1V0.5h1V21z"/>
		<path class="st0" d="M422,21c-3.3,0-8.9-0.5-8.9-3.6c0-3.1,5.5-3.6,8.9-3.6c3.3,0,8.9,0.5,8.9,3.6C430.8,20.5,425.3,21,422,21z
			 M422,15c-4.7,0-7.5,0.9-7.5,2.4c0,1.8,3.9,2.5,7.5,2.5c3.6,0,7.5-0.7,7.5-2.5l0-0.1C429.3,15.2,424.2,15,422,15z M411.7,11.7
			v-1.2h5.1V7.6c-2.4-0.6-3.7-1.8-3.7-3.3c0-2.4,3.3-3.9,8.9-3.9c5.6,0,8.9,1.5,8.9,3.9c0,1.5-1.3,2.7-3.7,3.3v2.9h5.1v1.2H411.7z
			 M425.9,10.5V7.8c-1.2,0.2-2.4,0.3-3.7,0.3l-0.4,0c-1.2,0-2.5-0.1-3.7-0.3v2.7H425.9z M422,1.6c-3.5,0-7.6,0.7-7.6,2.7
			c0,2,4.1,2.7,7.6,2.7s7.6-0.7,7.6-2.7C429.6,2.3,425.5,1.6,422,1.6z"/>
		<path class="st0" d="M432.1,10.7v0.9h-20.3v-0.9h5.1V7.5c-2.2-0.6-3.7-1.6-3.7-3.2c0-2.7,4.2-3.8,8.8-3.8s8.8,1.1,8.8,3.8
			c0,1.6-1.5,2.6-3.7,3.2v3.2H432.1z M430.7,17.4c0,2.7-4.3,3.5-8.7,3.5s-8.7-0.8-8.7-3.5s4.3-3.5,8.7-3.5S430.7,14.7,430.7,17.4
			L430.7,17.4z M422,7.1c4,0,7.8-0.8,7.8-2.8S426,1.5,422,1.5s-7.8,0.8-7.8,2.8S418,7.1,422,7.1z M429.7,17.4c0-2-4.1-2.5-7.7-2.5
			s-7.7,0.6-7.7,2.5s4.1,2.6,7.7,2.6S429.7,19.3,429.7,17.4L429.7,17.4z M417.9,10.7h8.1v-3c-1.3,0.2-2.7,0.4-4,0.3
			c-1.4,0-2.7-0.1-4.1-0.3V10.7z"/>
		<path class="st0" d="M453,21.1V10.4h-4.3v10.4h-1.3V0.5h1.3v8.7h4.3V0.4h1.3v20.8H453z M440.1,19.9c-2.9,0-4.7-2.5-4.7-6.3
			s1.8-6.3,4.7-6.3s4.7,2.5,4.7,6.3S443,19.9,440.1,19.9z M440.1,8.5c-2.1,0-3.4,2-3.4,5.1c0,3.1,1.3,5.1,3.4,5.1
			c2.1,0,3.4-2,3.4-5.1v-0.1h0C443.5,10.4,442.2,8.5,440.1,8.5z M434.4,5.3V4.1h4.9V0.3h1.3l0,3.8h5v1.2H434.4z"/>
		<path class="st0" d="M440.5,4.2h5v0.9h-10.9V4.2h4.9V0.5h1L440.5,4.2z M444.7,13.6c0,3.9-1.9,6.2-4.6,6.2s-4.6-2.3-4.6-6.2
			s1.9-6.2,4.6-6.2S444.7,9.7,444.7,13.6L444.7,13.6z M443.7,13.6c0-3.3-1.5-5.3-3.5-5.3s-3.5,1.9-3.5,5.3s1.5,5.3,3.5,5.3
			S443.6,17,443.7,13.6L443.7,13.6z M454.1,0.5V21h-1V10.3h-4.6v10.4h-1v-20h1v8.7h4.6V0.5H454.1z"/>
		<path class="st0" d="M482.2,21.1V0.4h1.3v20.8H482.2z M466.1,19.8V1.3h12.2v1.2h-10.9v15.9l7.3,0c1.7,0,3.4-0.3,5.1-1l0.2-0.1v1.3
			l-0.1,0c-1.6,0.7-3.4,1-5.2,1L466.1,19.8z"/>
		<path class="st0" d="M478.1,2.4h-10.9v16.2h7.2c1.8,0,3.6-0.3,5.3-1v1c-1.7,0.7-3.5,1-5.3,1h-8.3V1.5h12L478.1,2.4z M483.4,21h-1
			V0.5h1V21z"/>
		<path class="st0" d="M504.7,21.1V0.4h1.3v9h3.2v1.2H506v10.6H504.7z M488,18.4l0.1,0c3.8-0.9,6.2-7,6.3-15.9h-6V1.3h13.1v1.2h-5.9
			c0,2.5-0.2,5-0.7,7.5l7.2,8.7l-1,0.8l-6.5-8c-1.2,4.7-3.5,7.5-6.5,8.2l-0.2,0V18.4z"/>
		<path class="st0" d="M494.9,10.1l7.1,8.6l-0.8,0.6l-6.6-8.1c-1.2,4.7-3.4,7.7-6.4,8.3v-1c4.1-1,6.3-7.7,6.4-16.2h-6V1.5h12.9v0.9
			h-5.9C495.5,5,495.3,7.5,494.9,10.1z M509.1,10.4h-3.2V21h-1V0.5h1v9h3.2V10.4z"/>
		<path class="st0" d="M513,20.7v-6.6h1.3l0,5.4h16.1v1.2H513z M528.4,15.9V0.4h1.3v15.6H528.4z M517.7,12.6c-3.8,0-6.4-2.4-6.4-6
			s2.6-6,6.4-6s6.4,2.4,6.4,6S521.5,12.6,517.7,12.6z M517.7,1.9c-3.1,0-5.1,1.9-5.1,4.8s2.1,4.8,5.1,4.8s5.1-1.9,5.1-4.8
			S520.7,1.9,517.7,1.9z"/>
		<path class="st0" d="M523.9,6.7c0,3.2-2.3,5.8-6.3,5.8s-6.3-2.6-6.3-5.8s2.3-5.8,6.3-5.8S523.9,3.5,523.9,6.7z M512.4,6.7
			c0,2.9,2.1,4.9,5.3,4.9s5.3-2,5.3-4.9s-2.1-4.9-5.3-4.9S512.4,3.7,512.4,6.7z M514.2,19.6h16.1v0.9h-17.2v-6.3h1L514.2,19.6z
			 M529.5,15.8h-1V0.5h1V15.8z"/>
		<path class="st0" d="M550.9,21.1V0.4h1.3v9h3.2l0.1,1.2h-3.3v10.6H550.9z M541.2,19.9c-3.3,0-5.6-2.7-5.6-6.3s2.4-6.3,5.6-6.3
			c3.2,0,5.6,2.6,5.6,6.2l0,0.1C546.8,17.3,544.4,19.9,541.2,19.9z M541.2,8.5c-2.2,0-4.3,1.7-4.3,5.1c0,3.3,2.2,5.1,4.3,5.1
			c2.5,0,4.3-2.1,4.3-5.1v-0.1h0C545.5,10.6,543.7,8.5,541.2,8.5z M534.4,5.4V4.1h6.1V0.3h1.3l0,3.8h6.1v1.2H534.4z"/>
		<path class="st0" d="M541.7,4.3h6.2v0.9h-13.3V4.3h6.1V0.5h1L541.7,4.3z M546.7,13.6c0,3.8-2.5,6.2-5.5,6.2s-5.5-2.4-5.5-6.2
			s2.5-6.2,5.5-6.2S546.6,9.8,546.7,13.6L546.7,13.6z M545.7,13.6c0-3.2-2.1-5.2-4.5-5.2s-4.5,2-4.5,5.2s2.1,5.2,4.5,5.2
			S545.6,16.8,545.7,13.6L545.7,13.6z M555.3,10.4H552V21h-1V0.5h1v9h3.2L555.3,10.4z"/>
		<path class="st0" d="M572.5,16.9c-0.9,2-2.7,3.4-4.8,3.7l-0.1,0l-3.8-3.6c-1,1.9-2.7,3.2-4.8,3.6l-0.2,0v-1.2l0.1,0
			c2.5-0.4,4.7-3.5,4.9-6.9l0-0.1l1.3,0.1l0,0.1c-0.1,1.1-0.3,2.2-0.7,3.3l3.6,3.5c2.3-0.6,4.1-3.5,4.3-6.9l0-0.1l1.3,0.1l0,0.1
			c-0.1,1.1-0.3,2.1-0.6,3.1l4.8,4l-0.9,0.9L572.5,16.9z M574.7,12.1v-3h-4.5l0.1-1.2l4.5-0.1V4h-4.5l-0.1-1.2h4.5V0.4h1.3v11.8
			H574.7z M563.6,11.3c-3.7,0-6.2-2.1-6.2-5.3c0-3.2,2.5-5.3,6.2-5.3c3.7,0,6.2,2.1,6.2,5.3C569.8,9.2,567.3,11.3,563.6,11.3z
			 M563.6,2c-3,0-4.9,1.6-4.9,4.1s1.9,4.1,4.9,4.1c3,0,4.9-1.6,4.9-4.1S566.6,2,563.6,2z"/>
		<path class="st0" d="M563.6,11.2c-3.8,0-6.1-2.2-6.1-5.1s2.2-5.1,6.1-5.1s6.1,2.2,6.1,5.1S567.5,11.2,563.6,11.2z M563.6,10.2
			c3,0,5.1-1.6,5.1-4.2s-2.1-4.2-5.1-4.2s-5.1,1.6-5.1,4.2S560.6,10.2,563.6,10.2z M577,20.5l-4.5-3.8c-0.8,2-2.6,3.4-4.8,3.8
			l-3.9-3.7c-0.9,1.9-2.7,3.3-4.8,3.7v-0.9c2.6-0.4,4.8-3.5,5-7l1,0.1c-0.1,1.1-0.3,2.3-0.8,3.3l3.8,3.6c2.3-0.6,4.3-3.5,4.5-7
			l1,0.1c-0.1,1.1-0.3,2.1-0.7,3.1l4.8,4L577,20.5z M574.9,8V3.8h-4.5l-0.1-0.9h4.5V0.5h1V12h-1V9h-4.5l0.1-0.9L574.9,8z"/>
		<path class="st0" d="M580,19.9v-1.2h8.4V8.6h1.3v10.1h10.8v1.2H580z M597.7,15.1l0-12.6h-16.3V1.3H599v13.8H597.7z"/>
		<path class="st0" d="M600.5,18.9v0.9h-20.3v-0.9h8.4V8.8h1v10.1H600.5z M597.9,2.4h-16.3V1.4h17.3V15h-1L597.9,2.4z"/>
		<path class="st0" d="M620.1,21c-3.3,0-8.9-0.5-8.9-3.6c0-3.2,5.5-3.7,8.9-3.7s8.9,0.5,8.9,3.7C629,20.5,623.4,21,620.1,21z
			 M620.1,15c-3.7,0-7.6,0.6-7.6,2.4c0,1.8,3.9,2.4,7.6,2.4c3.7,0,7.6-0.6,7.6-2.4C627.7,15.1,621.9,15,620.1,15z M609.9,11.6v-1.2
			h9.6V7.7h-8V0.9h17.3V2h-16v4.4H629v1.2h-8.3v2.6h9.7v1.2H609.9z"/>
		<path class="st0" d="M630.3,10.5v0.9H610v-0.9h9.6V7.6h-8V1h17v0.9h-16v4.7h16.2v0.9h-8.3v2.9H630.3z M628.8,17.4
			c0,2.7-4.3,3.5-8.7,3.5s-8.7-0.8-8.7-3.5s4.3-3.5,8.7-3.5S628.8,14.7,628.8,17.4z M627.8,17.4c0-2-4.1-2.6-7.7-2.6
			s-7.7,0.6-7.7,2.6s4.1,2.6,7.7,2.6S627.8,19.3,627.8,17.4z"/>
		<path class="st0" d="M650.5,21.1V0.4h1.3v20.8H650.5z M633.5,18.5l0.1,0c5.1-1,6.9-10,6.9-17.4V1h1.3l0,0.1c0,2.9-0.3,5.8-0.8,8.6
			l7.1,9.2l-1,0.8l-6.5-8.4c-1.3,5.1-3.7,8-7,8.4l-0.2,0V18.5z"/>
		<path class="st0" d="M640.8,9.8l7.1,9.1l-0.8,0.6l-6.5-8.5c-1.3,5-3.6,8.1-6.9,8.6v-0.9c4.8-0.9,7-8.9,7-17.5h1
			C641.6,4,641.4,6.9,640.8,9.8z M651.7,0.5V21h-1V0.5H651.7z"/>
		<path class="st0" d="M674.2,21.1V0.4h1.3v20.8H674.2z M669.4,20.8V10.7h-3.5c0,6.2-1.6,9.3-4.7,9.3c-3.1,0-4.7-3.2-4.7-9.5
			c0-6.3,1.6-9.5,4.7-9.5c3,0,4.5,2.7,4.7,8.5h3.5v-9h1.3v20.3H669.4z M661.2,2.3c-2.3,0-3.4,2.7-3.4,8.3s1.1,8.3,3.4,8.3
			s3.4-2.7,3.4-8.3S663.5,2.3,661.2,2.3z"/>
		<path class="st0" d="M669.5,0.6h1v20h-1V10.6h-3.8c0,6.3-1.6,9.3-4.6,9.3s-4.6-3-4.6-9.3s1.6-9.3,4.6-9.3s4.4,2.7,4.6,8.5h3.8V0.6
			z M664.8,10.5c0-5.7-1.2-8.4-3.5-8.4s-3.5,2.7-3.5,8.4s1.2,8.4,3.5,8.4S664.8,16.2,664.8,10.5z M675.4,0.5V21h-1V0.5H675.4z"/>
		<path class="st0" d="M687.4,20.7v-4.5h16.1v-2.1h-16.2v-1.2h17.4v4.5h-16.1v2.2h16.6v1.2H687.4z M685.9,10.7V9.5h20.5v1.2H685.9z
			 M695.9,3.7c-2.4,2.4-5.6,3.8-9.1,4l-0.1,0V6.4l0.1,0c3.9-0.1,8.7-2.6,9.6-6.3l0-0.1l1.3,0.2l0,0.1c-0.2,0.9-0.5,1.7-1,2.4l8.8,4
			L705,7.7L695.9,3.7z"/>
		<path class="st0" d="M706.2,9.6v0.9H686V9.6H706.2z M686.9,7.5v-1c4-0.1,8.9-2.7,9.8-6.4l1,0.2c-0.2,0.9-0.6,1.7-1.1,2.5l8.8,4
			L705,7.5l-9.1-4C693.5,6,690.3,7.4,686.9,7.5z M688.6,19.6h16.6v0.9h-17.6v-4.3h16.1v-2.4h-16.1V13h17.2v4.2h-16.1V19.6z"/>
		<polygon class="st0" points="708.9,19.9 708.9,18.7 718.5,18.7 718.5,13.9 710.5,13.9 710.5,7 726.6,7 726.6,2.5 710.5,2.5 
			710.5,1.3 728,1.3 728,8.1 711.8,8.1 711.8,12.6 728.3,12.6 728.3,13.8 719.8,13.8 719.8,18.7 729.5,18.7 729.5,19.9 		"/>
		<path class="st0" d="M729.3,18.9v0.9h-20.3v-0.9h9.5v-5.2h-8V7.1h16.2V2.4h-16.1V1.5h17.2V8h-16.2v4.7h16.5v0.9h-8.6v5.2
			L729.3,18.9z"/>
		<path class="st0" d="M734.1,20.7v-6.3h1.3v5l16.3,0v1.2H734.1z M749.9,15.9V7h-6c-1.5,3.4-5.4,5.4-10.9,5.4h-0.1v-1.3h0.1
			c6.6,0,10.3-2.8,10.3-7.6V2.3h-10.5V1.1h11.8v2.5c0,0.8-0.1,1.6-0.3,2.3h5.5V0.4h1.3v15.6H749.9z"/>
		<path class="st0" d="M733,12.3v-1c6.5,0,10.5-2.8,10.5-7.8V2.2H733V1.2h11.5v2.3c0,0.8-0.1,1.7-0.3,2.5h5.9V0.5h1v15.3h-1V6.9
			h-6.2C742.3,10.4,738.4,12.3,733,12.3z M751.5,19.6v0.9h-17.3v-6h1v5L751.5,19.6z"/>
		<path class="st0" d="M773.3,21.1V0.4h1.3v20.8H773.3z M768.5,20.8V10.7H765c0,6.2-1.6,9.3-4.7,9.3c-3.1,0-4.7-3.2-4.7-9.5
			c0-6.3,1.6-9.5,4.7-9.5c3,0,4.5,2.7,4.7,8.5h3.5v-9h1.3v20.3H768.5z M760.3,2.3c-2.3,0-3.4,2.7-3.4,8.3s1.1,8.3,3.4,8.3
			c2.3,0,3.4-2.8,3.4-8.3C763.7,5,762.6,2.3,760.3,2.3z"/>
		<path class="st0" d="M768.6,0.6h1v20h-1V10.6h-3.8c0,6.3-1.6,9.3-4.6,9.3s-4.6-3-4.6-9.3s1.6-9.3,4.6-9.3s4.4,2.7,4.6,8.5h3.8V0.6
			z M763.9,10.5c0-5.7-1.2-8.4-3.6-8.4s-3.5,2.7-3.5,8.4s1.2,8.4,3.5,8.4S763.9,16.2,763.9,10.5z M774.4,0.5V21h-1V0.5H774.4z"/>
		<path class="st0" d="M786.9,20.7v-8.6h1.3v3h14.3l0-3h1.3v8.6H786.9z M802.5,19.5v-3.1h-14.3v3.1H802.5z M802.5,11.4v-11h1.3v11
			H802.5z M785.5,9.6l0.1,0c3.7-0.5,6.5-3.6,6.5-7.3h-6.4V1.1h13.6v1.2h-5.9c0,1-0.2,2-0.6,2.9l7.2,4.4l-0.7,1l-7-4.3
			c-1.4,2.4-3.9,4.1-6.7,4.4l-0.2,0V9.6z"/>
		<path class="st0" d="M785.6,10.7v-1c3.8-0.5,6.7-3.7,6.6-7.6h-6.4V1.3h13.3v0.9h-5.9c0,1.1-0.2,2.1-0.6,3.1l7.2,4.4l-0.6,0.8
			l-7-4.3C790.9,8.7,788.4,10.4,785.6,10.7z M802.6,12.2h1v8.3H787v-8.3h1v3h14.6L802.6,12.2z M802.6,19.6v-3.4H788v3.4H802.6z
			 M803.6,0.5v10.7h-1V0.5H803.6z"/>
		<path class="st0" d="M818.3,21c-3.3,0-8.9-0.5-8.9-3.6c0-2.3,2.7-3.5,8.2-3.6v-2.5H808v-1.2h20.5v1.2h-9.6v2.5
			c3.8,0.1,8.2,0.8,8.2,3.6C827.1,19.7,823.8,21,818.3,21z M818.3,15c-4.7,0-7.5,0.9-7.5,2.4c0,1.8,3.9,2.5,7.5,2.5s7.5-0.6,7.5-2.4
			c0-1.8-3.8-2.4-7.4-2.4v0H818.3z M818,5.2c-2,2.2-5.8,3-8.6,3.1l0-0.1l-0.1,0V7.1l0.1,0c4.1-0.1,8.4-1.9,8.8-5h-8.5V0.9H827V2
			h-7.6c-0.1,0.7-0.3,1.4-0.6,2l8.8,3.2l-0.5,1.2L818,5.2z"/>
		<path class="st0" d="M818.8,11.2v2.7c4.2,0.1,8.2,0.9,8.2,3.5s-4.3,3.5-8.7,3.5s-8.7-0.8-8.7-3.5s4-3.4,8.2-3.5v-2.7h-9.6v-0.9
			h20.3v0.9H818.8z M809.3,8.2v-1c3.9-0.1,8.6-1.9,9-5.3h-8.5V1h17.1v0.9h-7.6c-0.1,0.8-0.3,1.6-0.7,2.2l8.8,3.2L827,8.3L817.9,5
			C816,7.1,812.4,8.1,809.3,8.2L809.3,8.2z M818.3,14.9c-3.6,0-7.7,0.6-7.7,2.5s4.1,2.6,7.7,2.6s7.7-0.6,7.7-2.6
			S821.9,14.9,818.3,14.9L818.3,14.9z"/>
		<path class="st0" d="M832.7,20.7V16h15.4v-2.3h-15.4v-1.2h16.7v4.6H834v2.3h16.1v1.2H832.7z M848.1,11.4V0.4h1.3v4.9h3.2v1.2h-3.2
			v5H848.1z M838.2,11.1c-3.6,0-6-1.3-6-3.3c0-2,2.4-3.3,6-3.3c3.6,0,6,1.3,6,3.3C844.1,9.8,841.8,11.1,838.2,11.1z M838.2,5.7
			c-2.8,0-4.7,0.9-4.7,2.1c0,1.3,1.9,2.1,4.7,2.1c2.8,0,4.7-0.9,4.7-2.1C842.8,6.5,841,5.7,838.2,5.7z M831.1,3.4V2.2h6.4V0h1.3v2.2
			h6.4l0,1.2H831.1z"/>
		<path class="st0" d="M845.1,3.3h-13.8V2.3h6.4V0.1h1v2.2h6.4L845.1,3.3z M832.4,7.8c0-2,2.5-3.2,5.8-3.2s5.8,1.1,5.8,3.2
			s-2.5,3.2-5.8,3.2S832.4,9.9,832.4,7.8z M833.9,19.6H850v0.9h-17.1v-4.4h15.4v-2.6h-15.4v-0.9h16.4V17h-15.4V19.6z M833.4,7.8
			c0,1.4,1.8,2.3,4.8,2.3s4.8-0.9,4.8-2.3s-1.8-2.3-4.8-2.3S833.4,6.5,833.4,7.8z M852.5,5.4v0.9h-3.2v5h-1V0.5h1v4.9H852.5z"/>
		<path class="st0" d="M870.5,21.6V15h-9.7v-1.2h20.6V15h-9.6v6.7H870.5z M861.4,10h0.1c4.5,0,9-4.3,10.1-9.6l0-0.1l1.3,0.3l0,0.1
			c-0.3,1.4-0.8,2.7-1.5,3.9l9.1,5.6l-0.6,1.1l-9.1-5.6c-2.3,3.5-5.8,5.6-9.3,5.7l-0.1,0V10z"/>
		<path class="st0" d="M881.3,14.8h-9.7v6.7h-1v-6.7H861v-0.9h20.3V14.8z M861.5,11.2v-1c4.8,0,9.2-4.5,10.3-9.7l1.1,0.2
			c-0.3,1.4-0.8,2.8-1.5,4l9.1,5.6l-0.5,0.8l-9.1-5.6C868.6,8.9,865.1,11.2,861.5,11.2L861.5,11.2z"/>
		<path class="st0" d="M906.3,16.9c-0.9,1.9-2.7,3.3-4.8,3.7l-0.1,0l-3.8-3.6c-0.9,1.9-2.7,3.2-4.7,3.6l-0.2,0v-1.2l0.1,0
			c2.5-0.4,4.6-3.5,4.8-6.9l0-0.1l1.3,0.1l0,0.1c-0.1,1.1-0.3,2.3-0.7,3.3l3.7,3.4c2.3-0.6,4.1-3.5,4.3-6.9l0-0.1l1.3,0.1l0,0.1
			c-0.1,1.1-0.3,2.1-0.7,3.1l4.7,4l-0.9,0.9L906.3,16.9z M908.3,12.1V0.4h1.3v11.8H908.3z M897.6,11.4c-3.9,0-6.4-2.1-6.4-5.3
			c0-3.2,2.5-5.3,6.4-5.3c3.9,0,6.4,2.1,6.4,5.3C904,9.3,901.5,11.4,897.6,11.4z M897.6,1.9c-3.1,0-5.1,1.6-5.1,4.2
			c0,2.6,1.9,4.1,5.1,4.1c3.1,0,5.1-1.6,5.1-4.1C902.7,3.5,900.7,1.9,897.6,1.9z"/>
		<path class="st0" d="M897.6,11.2c-3.9,0-6.2-2.2-6.2-5.2s2.3-5.2,6.2-5.2s6.2,2.2,6.2,5.2S901.5,11.2,897.6,11.2z M897.6,10.3
			c3,0,5.2-1.6,5.2-4.3s-2.2-4.3-5.2-4.3s-5.2,1.6-5.2,4.3S894.5,10.3,897.6,10.3z M910.6,20.5l-4.4-3.8c-0.9,2-2.7,3.4-4.8,3.8
			l-3.9-3.7c-0.9,1.9-2.7,3.3-4.7,3.7v-0.9c2.5-0.4,4.8-3.5,4.9-7l1,0.1c-0.1,1.2-0.3,2.3-0.8,3.4l3.8,3.5c2.4-0.6,4.3-3.5,4.5-7
			l1,0.1c-0.1,1.1-0.3,2.2-0.7,3.2l4.7,4L910.6,20.5z M909.5,12h-1V0.5h1V12z"/>
		<polygon class="st0" points="913.8,19.9 913.8,18.7 923.4,18.7 923.4,12.7 915.4,12.7 915.4,1.3 932.8,1.3 932.8,2.5 916.6,2.5 
			916.6,11.5 933.1,11.5 933.1,12.7 924.7,12.7 924.7,18.7 934.3,18.7 934.3,19.9 		"/>
		<path class="st0" d="M934.2,18.9v0.9h-20.3v-0.9h9.6v-6.3h-8V1.5h17.2v0.9h-16.2v9.3h16.4v0.9h-8.4v6.3L934.2,18.9z"/>
		<path class="st0" d="M954.5,20.9v-4.1h-16.2v-1.2h17.5v5.3H954.5z M936.9,13.3v-1.2h9.6V9.7h-7.9v-5h16V2h-16V0.9h17.2v5h-16v2.7
			h16.3v1.2h-8.3v2.5l9.6-0.1v1.2H936.9z"/>
		<path class="st0" d="M957.3,12.3v0.9H937v-0.9h9.6V9.5h-7.9V4.8h16V1.9h-16V1h16.9v4.7h-16v3H956v0.9h-8.3v2.8L957.3,12.3z
			 M938.4,15.8h17.2v5h-1v-4.1h-16.3L938.4,15.8z"/>
		<path class="st0" d="M17.5,55.1V34.4h1.3v9H22l0.1,1.2h-3.3v10.6H17.5z M7.7,53.9c-3.3,0-5.6-2.7-5.6-6.3c0-3.7,2.4-6.3,5.6-6.3
			c3.2,0,5.6,2.6,5.6,6.2l0,0.1C13.4,51.3,11,53.9,7.7,53.9z M7.8,42.5c-2.2,0-4.3,1.7-4.3,5.1c0,3.3,2.2,5.1,4.3,5.1
			c2.5,0,4.3-2.1,4.3-5.1v-0.1h0C12,44.6,10.2,42.5,7.8,42.5z M1,39.4v-1.2h6.1v-3.8h1.3l0,3.8h6.1v1.2H1z"/>
		<path class="st0" d="M8.2,38.3h6.1v0.9H1.1v-0.9h6.1v-3.8h1L8.2,38.3z M13.2,47.6c0,3.8-2.5,6.2-5.5,6.2s-5.5-2.4-5.5-6.2
			s2.5-6.2,5.5-6.2S13.2,43.8,13.2,47.6L13.2,47.6z M12.2,47.6c0-3.2-2.1-5.2-4.5-5.2s-4.5,2-4.5,5.2s2.1,5.2,4.5,5.2
			S12.2,50.8,12.2,47.6L12.2,47.6z M21.9,44.4h-3.3V55h-1V34.5h1v9h3.2L21.9,44.4z"/>
		<path class="st0" d="M39.2,50.9c-0.9,2-2.7,3.4-4.8,3.7l-0.1,0l-3.8-3.6c-1,1.9-2.7,3.2-4.8,3.6l-0.2,0v-1.2l0.1,0
			c2.5-0.4,4.7-3.5,4.9-6.9l0-0.1l1.3,0.1l0,0.1c-0.1,1.1-0.3,2.2-0.8,3.3l3.6,3.5c2.3-0.6,4.1-3.6,4.3-6.9l0-0.2l1.3,0.1l0,0.1
			c-0.1,1.1-0.3,2.1-0.6,3.1l4.8,4l-0.9,0.9L39.2,50.9z M41.3,46.1V43h-4.5l0.1-1.2h4.5V38h-4.5l-0.1-1.2h4.5v-2.4h1.3v11.8H41.3z
			 M30.2,45.3c-3.7,0-6.2-2.1-6.2-5.3c0-3.2,2.5-5.3,6.2-5.3s6.2,2.1,6.2,5.3C36.4,43.2,33.9,45.3,30.2,45.3z M30.2,36
			c-3,0-4.9,1.6-4.9,4.1s1.9,4.1,4.9,4.1c3,0,4.9-1.6,4.9-4.1S33.2,36,30.2,36z"/>
		<path class="st0" d="M30.2,45.2c-3.8,0-6.1-2.2-6.1-5.1s2.2-5.1,6.1-5.1s6.1,2.2,6.1,5.1S34,45.2,30.2,45.2z M30.2,44.2
			c3,0,5.1-1.6,5.1-4.2s-2.1-4.2-5.1-4.2s-5.1,1.6-5.1,4.2S27.2,44.2,30.2,44.2z M43.6,54.5l-4.5-3.8c-0.8,2-2.6,3.4-4.8,3.8
			l-3.9-3.7c-0.9,1.9-2.7,3.3-4.8,3.7v-0.9c2.6-0.4,4.8-3.5,5-7l1,0.1c-0.1,1.1-0.3,2.3-0.8,3.3l3.8,3.6c2.3-0.6,4.3-3.6,4.5-7
			l1,0.1c-0.1,1.1-0.3,2.1-0.7,3.1l4.8,4L43.6,54.5z M41.5,42v-4.2H37l-0.1-0.9h4.5v-2.4h1V46h-1v-3.1h-4.5L37,42H41.5z"/>
		<path class="st0" d="M48.3,54.7v-7.9h1.3v2.7h14.7v-2.7h1.3v7.9H48.3z M64.3,53.5v-2.7H49.6v2.7H64.3z M46.6,45.1v-1.3h20.5v1.3
			H46.6z M47.5,40.6l0.1,0c3.9-0.1,8.7-2.7,9.6-6.6l0-0.1l1.3,0.2l0,0.1c-0.2,0.9-0.6,1.8-1.1,2.6l8.8,4l-0.5,1.1l-9.1-4.1
			c-2.4,2.5-5.6,4-9,4.1l-0.1,0V40.6z"/>
		<path class="st0" d="M67,44v1H46.8v-1H67z M47.7,41.8v-1c4-0.1,8.9-2.8,9.8-6.7l1,0.2c-0.2,1-0.6,1.9-1.2,2.7l8.9,4l-0.4,0.8
			l-9.1-4.1C54.3,40.1,51.1,41.6,47.7,41.8z M64.4,47h1v7.6h-17V47h1v2.7h15V47z M64.4,53.6v-3h-15v3H64.4z"/>
		<path class="st0" d="M87.3,55.1V34.4h1.3v20.8H87.3z M79.6,53.7h-8.4V35.2h1.3l0,17.3l7.3,0c1.7,0,3.4-0.3,5.1-1l0.2-0.1v1.3
			l-0.1,0c-1.6,0.7-3.3,1-5.1,1L79.6,53.7z"/>
		<path class="st0" d="M72.3,52.6h7.3c1.8,0,3.6-0.3,5.3-1v1c-1.7,0.7-3.5,1-5.3,1h-8.3V35.3h1L72.3,52.6z M88.5,55h-1V34.5h1V55z"
			/>
		<path class="st0" d="M109.9,55.1V34.4h1.3v9h3.2l0,1.2h-3.2v10.6H109.9z M94,53.8V35.3h12v1.2H95.3v15.9l7.1,0
			c1.7,0,3.4-0.3,5.1-1l0.2-0.1v1.3l-0.1,0c-1.6,0.7-3.4,1-5.2,1L94,53.8z"/>
		<path class="st0" d="M102.2,52.6c1.8,0,3.6-0.3,5.3-1v1c-1.7,0.7-3.5,1-5.3,1h-8.1V35.5h11.8v0.9H95.2v16.2H102.2z M114.2,44.4
			H111V55h-1V34.5h1v9h3.2L114.2,44.4z"/>
		<path class="st0" d="M117.2,54.9c-0.7,0-1.3-0.6-1.3-1.3c0-0.3,0.1-0.7,0.4-0.9c0.2-0.2,0.6-0.4,0.9-0.4c0.7,0,1.3,0.6,1.3,1.3
			C118.5,54.3,117.9,54.9,117.2,54.9L117.2,54.9z"/>
		<path class="st0" d="M118.3,53.6c0,0.6-0.5,1.1-1.1,1.1c-0.6,0-1.1-0.5-1.1-1.1c0-0.6,0.5-1.1,1.1-1.1c0,0,0,0,0,0
			C117.8,52.5,118.3,53,118.3,53.6z"/>
		<path class="st0" d="M127.7,53.9v-1.2h9.6v-5.1h1.3v5.1h9.6v1.2H127.7z M138.5,46.7V35.3h8.3v1.2h-7v9h7.1l0,1.2H138.5z
			 M129.2,46.7V35.3h8.2v1.2h-6.9v9h6.9v1.2H129.2z"/>
		<path class="st0" d="M148.1,52.9v0.9h-20.3v-0.9h9.6v-5.1h1v5.1H148.1z M137.1,46.6h-7.9V35.5h7.9v0.9h-6.9v9.3h6.9V46.6z
			 M146.8,46.6h-8.1V35.5h8v0.9h-7v9.3h7.1L146.8,46.6z"/>
		<path class="st0" d="M152.5,54.7v-5.3h1.3l0,4.1h16.2v1.2H152.5z M167.9,50.1V34.4h1.3v6.3h3.2v1.2h-3.2v8.2H167.9z M157.9,48
			c-3.6,0-6-1.7-6-4.3s2.4-4.3,6-4.3s6,1.7,6,4.3S161.5,48,157.9,48z M157.9,40.5c-2.8,0-4.7,1.3-4.7,3.1c0,1.9,1.9,3.1,4.7,3.1
			c2.8,0,4.7-1.3,4.7-3.1C162.7,41.8,160.8,40.5,157.9,40.5z M150.9,38v-1.2h6.4V34h1.3v2.8h6.4L165,38H150.9z"/>
		<path class="st0" d="M164.9,37.8H151v-0.9h6.4v-2.8h1v2.8h6.4L164.9,37.8z M152.1,43.6c0-2.6,2.5-4.2,5.9-4.2s5.9,1.6,5.9,4.2
			s-2.5,4.2-5.9,4.2S152.1,46.2,152.1,43.6z M153.6,53.6h16.2v0.9h-17.2v-5h1L153.6,53.6z M153.1,43.6c0,1.9,1.9,3.3,4.9,3.3
			s4.9-1.3,4.9-3.3s-1.9-3.3-4.9-3.3S153.1,41.7,153.1,43.6L153.1,43.6z M172.2,40.8v0.9H169v8.2h-1V34.5h1v6.3H172.2z"/>
		<polygon class="st0" points="174,57.4 174.7,52.5 176.1,52.5 175.2,57.4 		"/>
		<path class="st0" d="M175.1,57.3h-0.9l0.7-4.7h1.1L175.1,57.3z"/>
		<path class="st0" d="M203,55.1V34.4h1.3v20.8H203z M191.9,55.1v-6.2h-6.5v-1.2h7.8c0.5,0,0.9,0,1.3,0c2.2,0,4.4-0.3,6.5-0.9l0.2,0
			v1.3l-0.1,0c-2.2,0.6-4.5,0.9-6.8,0.9c-0.4,0-0.7,0-1.1,0h-0.1v6.2H191.9z M192.5,45.4c-3.6,0-6-2.2-6-5.3c0-3.1,2.5-5.3,6-5.3
			c3.6,0,6.1,2.2,6.1,5.3C198.6,43.2,196.1,45.4,192.5,45.4z M187.7,40.3c0.1,2.3,2,3.9,4.7,3.9c2.8,0,4.8-1.7,4.8-4
			c0-2.4-2-4-4.8-4c-2.8,0-4.7,1.7-4.7,4L187.7,40.3L187.7,40.3z"/>
		<path class="st0" d="M193.1,47.8c2.6,0.1,5.3-0.1,7.9-0.8v1c-2.5,0.7-5.2,0.9-7.8,0.8H193V55h-1v-6.2h-6.5v-0.9L193.1,47.8z
			 M186.6,40.1c0-3,2.4-5.1,5.9-5.1s5.9,2.1,5.9,5.1s-2.4,5.1-5.9,5.1S186.6,43.1,186.6,40.1L186.6,40.1z M187.6,40.1
			c0,2.4,1.9,4.2,4.9,4.2s4.9-1.8,4.9-4.2s-2-4.2-4.9-4.2S187.6,37.7,187.6,40.1L187.6,40.1z M204.2,34.5V55h-1V34.5L204.2,34.5z"/>
		<path class="st0" d="M219.1,55c-5.5,0-8.6-1.5-8.6-4c0-2.6,3.1-4,8.6-4c5.5,0,8.6,1.5,8.6,4C227.7,53.5,224.6,55,219.1,55z
			 M219.1,48.1c-4.4,0-7.3,1.1-7.3,2.9c0,1.7,2.8,2.8,7.3,2.8c4.5,0,7.2-1.1,7.2-2.8v-0.1h0C226.3,49.1,223.4,48.1,219.1,48.1z
			 M226.3,46.2v-6.3h-5.9v-1.2h5.9v-4.3h1.3v11.9H226.3z M208.6,44.3l0.1,0c4-0.9,6.6-4.7,6.6-9.5v-0.1l1.3,0.1l0,0.1
			c0,1.6-0.3,3.2-0.8,4.7l6.9,4.7l-0.8,1l-6.6-4.5c-1.3,2.5-3.7,4.3-6.5,4.9l-0.2,0V44.3z"/>
		<path class="st0" d="M208.8,45.4v-1c4.4-1,6.7-5.1,6.7-9.7l1,0c0,1.6-0.3,3.2-0.8,4.7l6.8,4.7l-0.6,0.8l-6.6-4.5
			C214,43,211.6,44.8,208.8,45.4z M227.6,50.9c0,2.7-3.7,3.9-8.4,3.9s-8.4-1.2-8.4-3.9s3.7-3.9,8.4-3.9S227.6,48.2,227.6,50.9z
			 M226.6,50.9c0-2-3.2-3-7.4-3s-7.4,1-7.4,3s3.2,3,7.4,3S226.5,52.9,226.6,50.9L226.6,50.9z M226.4,39.7h-5.9v-0.9h5.9v-4.3h1v11.6
			h-1V39.7z"/>
		<path class="st0" d="M249.2,55.1V34.4h1.3v20.8H249.2z M231.5,53.7v-1.2h7.8c3.6,0,6.3-0.4,7.8-1.1l0.2-0.1v1.3l-0.1,0
			c-1.5,0.7-4.4,1.1-8,1.1H231.5z M238.7,47.8c-3.5,0-6.3-2.8-6.3-6.3c0-3.5,2.8-6.3,6.3-6.3c3.5,0,6.3,2.8,6.3,6.3
			C245,44.9,242.2,47.8,238.7,47.8L238.7,47.8z M238.7,36.2c-2.7,0-4.9,2.1-5,4.8c0,0.1,0,0.3,0,0.4c-0.1,1.3,0.4,2.6,1.3,3.6
			c0.9,1,2.1,1.6,3.5,1.6l0.2,0c2.7,0,4.9-2.1,5-4.8c0-0.1,0-0.3,0-0.4c0.1-2.8-2-5.1-4.8-5.2L238.7,36.2z"/>
		<path class="st0" d="M239.2,53.6h-7.5v-0.9h7.6c3.6,0,6.4-0.4,7.8-1.1v1C245.8,53.1,242.9,53.6,239.2,53.6z M244.8,41.5
			c0,3.4-2.8,6.2-6.2,6.2s-6.2-2.8-6.2-6.2c0,0,0,0,0,0c0-3.4,2.8-6.2,6.2-6.2S244.8,38,244.8,41.5
			C244.8,41.5,244.8,41.5,244.8,41.5z M233.5,41.5c-0.1,2.8,2.1,5.2,4.9,5.4c2.8,0.1,5.2-2.1,5.4-4.9c0-0.2,0-0.3,0-0.5
			c0.1-2.8-2.1-5.2-4.9-5.4c-2.8-0.1-5.2,2.1-5.4,4.9C233.5,41.2,233.5,41.3,233.5,41.5z M250.4,55h-1V34.5h1V55z"/>
		<path class="st0" d="M261.4,53.9v-1.2h5.7V47h-4.5v-1.2h4v-9.1h-3.8v-1.2h17.8v1.2h-3.8v9.1h4.1v1.2h-4.5v5.7l5.7-0.1v1.2H261.4z
			 M275,52.7V47h-6.6l0,5.7H275z M275.4,45.8v-9h-7.5v9H275.4z"/>
		<path class="st0" d="M281.8,52.9v0.9h-20.3v-0.9h5.7v-6h-4.5V46h4v-9.4h-3.8v-0.9h17.5v0.9h-3.8V46h4v0.9h-4.5v6L281.8,52.9z
			 M267.8,45.9h7.8v-9.3h-7.8V45.9z M268.2,52.9h6.9v-6h-6.9L268.2,52.9z"/>
		<path class="st0" d="M286.5,54.7v-6.5h1.3v5.3h16.3v1.2H286.5z M302.2,49.9v-6.2h-4.3v-1.2h4.3v-4h-4.3v-1.2h4.3v-2.9h1.3v15.6
			H302.2z M285.5,46V35.1h11.3V46H285.5z M295.5,44.8v-8.5h-8.7v8.5H295.5z"/>
		<path class="st0" d="M296.7,45.8h-11V35.2h11V45.8z M304,53.6v0.9h-17.3v-6.2h1v5.3L304,53.6z M295.6,36.2h-8.9v8.7h9L295.6,36.2z
			 M302.4,43.5h-4.3v-0.9h4.3v-4.3h-4.3v-0.9h4.3v-2.9h1v15.3h-1V43.5z"/>
		<path class="st0" d="M324.6,55.1V34.4h1.3v8.8h3.2v1.2h-3.2v10.8H324.6z M315.9,53.8c-0.4,0-0.8,0-1.1,0h-7.3v-1.2h4.4v-9.8h1.3
			v9.8h1.5c3.8,0,6.4-0.3,7.8-0.9l0.2-0.1v1.3l-0.1,0C320.4,53.5,318.2,53.8,315.9,53.8z M318.8,48.8l0-12.3h-10.4v-1.2h11.7v13.5
			H318.8z"/>
		<path class="st0" d="M314.7,52.6c3.4,0,6.2-0.2,7.9-0.9v1c-2.5,0.7-5.2,1-7.8,0.9h-7.1v-0.9h4.4v-9.8h1v9.8H314.7z M318.9,36.4
			h-10.4v-0.9h11.4v13.2h-1L318.9,36.4z M328.9,44.2h-3.2V55h-1V34.5h1v8.8h3.2V44.2z"/>
		<path class="st0" d="M354.9,55.1V34.4h1.3v20.8H354.9z M338.8,53.7V35.1h1.3V43h8.9l0-7.9h1.3v18.6H338.8z M348.9,52.5v-8.3h-8.9
			v8.3H348.9z"/>
		<path class="st0" d="M349.1,35.2h1v18.3h-11.2V35.2h1v7.9h9.1L349.1,35.2z M349.1,52.6v-8.6h-9.1v8.6H349.1z M356.1,34.5V55h-1
			V34.5H356.1z"/>
		<path class="st0" d="M370.3,51.2c-2.2,2.2-5.2,3.5-8.3,3.5l-0.4,0v-1.3h0.1c3.8,0,8.1-2,8.9-5.7l0-0.1l1.3,0.2l0,0.1
			c-0.1,0.8-0.4,1.6-0.9,2.3l9,3.6l-0.5,1.2L370.3,51.2z M360.4,46.2V45H381v1.2H360.4z M370.4,38.3c-2.2,2.7-5.5,4.3-9,4.5l-0.1,0
			v-1.3l0.1,0c3.9-0.1,8.7-3,9.6-7.4l0-0.1l1.3,0.2l0,0.1c-0.2,1.1-0.6,2.1-1.2,3l8.9,4.6l-0.6,1.1L370.4,38.3z"/>
		<path class="st0" d="M380.8,45.2v0.9h-20.3v-0.9H380.8z M361.5,42.6v-1c4-0.1,8.9-3.1,9.8-7.6l1,0.1c-0.2,1.1-0.6,2.2-1.2,3.1
			l8.9,4.6l-0.5,0.8l-9-4.6C368.2,40.8,364.9,42.4,361.5,42.6z M370.9,50.2l9,3.6l-0.4,0.9l-9.2-3.8c-2.2,2.3-5.3,3.6-8.6,3.5v-1
			c4.1,0,8.3-2.1,9.1-5.8l1,0.1C371.6,48.7,371.3,49.5,370.9,50.2z"/>
		<path class="st0" d="M385.1,54.7v-5.3h1.3l0,4.1h16.2v1.2H385.1z M400.5,50.1V34.4h1.3v6.3h3.2v1.2h-3.2v8.2H400.5z M390.6,48
			c-3.6,0-6-1.7-6-4.3s2.4-4.3,6-4.3s6,1.7,6,4.3S394.2,48,390.6,48z M390.6,40.5c-2.8,0-4.7,1.3-4.7,3.1c0,1.9,1.9,3.1,4.7,3.1
			s4.7-1.2,4.7-3.1C395.3,41.8,393.4,40.5,390.6,40.5z M383.6,38v-1.2h6.4V34h1.3v2.8h6.4V38H383.6z"/>
		<path class="st0" d="M397.6,37.8h-13.9v-0.9h6.4v-2.8h1v2.8h6.4V37.8z M384.7,43.6c0-2.6,2.5-4.2,5.9-4.2s5.9,1.6,5.9,4.2
			s-2.5,4.2-5.9,4.2S384.7,46.2,384.7,43.6z M386.3,53.6h16.1v0.9h-17.2v-5h1L386.3,53.6z M385.8,43.6c0,1.9,1.9,3.3,4.9,3.3
			s4.9-1.3,4.9-3.3s-1.9-3.3-4.9-3.3S385.8,41.7,385.8,43.6z M404.9,40.8v0.9h-3.2v8.2h-1V34.5h1v6.3H404.9z"/>
		<path class="st0" d="M430.3,55.1V34.4h1.3v9h3.2v1.2h-3.2v10.6H430.3z M413.7,52.5l0.1,0c4.9-0.9,6.7-9.6,6.8-17.4l0-0.1h1.3
			l0,0.1c0,2.9-0.2,5.9-0.8,8.8l6.9,9.1l-1,0.8l-6.3-8.3c-1.3,5-3.7,7.8-6.8,8.3l-0.2,0V52.5z"/>
		<path class="st0" d="M420.9,43.9l6.9,9l-0.8,0.6l-6.4-8.5c-1.2,4.9-3.5,8-6.8,8.5v-0.9c4.8-0.9,6.8-8.9,6.9-17.5h1
			C421.7,38,421.4,41,420.9,43.9z M434.7,44.4h-3.2V55h-1V34.5h1v9h3.2V44.4z"/>
		<path class="st0" d="M438.4,54.7v-6.3h1.3v5l16.4,0v1.2H438.4z M454,49.9V34.4h1.3v15.6H454z M437,45.3l0.1,0c4-0.7,6.4-4,6.5-9
			h-6.4v-1.2h13.6v1.2h-5.9c0,1.2-0.2,2.5-0.6,3.6l6.9,5.4l-0.7,1l-6.6-5.2c-1.2,2.8-3.7,4.8-6.8,5.3l-0.2,0V45.3z"/>
		<path class="st0" d="M437.1,46.4v-1c4-0.7,6.5-4,6.6-9.2h-6.4v-0.9h13.3v0.9h-5.9c0,1.3-0.2,2.6-0.6,3.8l6.9,5.4l-0.6,0.8
			l-6.6-5.2C442.7,43.9,440.2,45.9,437.1,46.4z M455.9,53.6v0.9h-17.4v-6h1v5L455.9,53.6z M455.2,49.8h-1V34.5h1V49.8z"/>
		<path class="st0" d="M461.1,54.7v-4.6h16.1v-2.1H461v-1.2h17.4v4.5h-16.1v2.2h16.6v1.2H461.1z M459.5,44.7v-1.2H480v1.2H459.5z
			 M469.8,41.9c-5.6,0-8.9-1.4-8.9-3.7c0-2.3,3.3-3.7,8.9-3.7c5.7,0,8.9,1.4,8.9,3.7C478.7,40.6,475.4,41.9,469.8,41.9z M462.2,38.2
			c0,2.3,5.3,2.5,7.6,2.5c4.8,0,7.6-0.9,7.6-2.5c0-1.6-2.8-2.5-7.6-2.5c-3.6,0-7.5,0.6-7.6,2.4L462.2,38.2z"/>
		<path class="st0" d="M479.9,44.6h-20.3v-0.9h20.3V44.6z M478.5,38.2c0,2.6-4.1,3.6-8.8,3.6s-8.8-1-8.8-3.6s4.1-3.6,8.8-3.6
			S478.5,35.6,478.5,38.2z M478.3,51.2h-16.1v2.4h16.6v0.9h-17.6v-4.3h16.1v-2.4h-16.2V47h17.2V51.2z M462,38.2c0,2,3.8,2.7,7.7,2.7
			s7.7-0.7,7.7-2.7s-3.7-2.7-7.7-2.7S462,36.3,462,38.2L462,38.2z"/>
		<path class="st0" d="M506.9,55.1V34.4h1.3v20.8H506.9z M496.6,54c-3.8,0-6.1-3.5-6.1-9.5c0-5.9,2.3-9.5,6.1-9.5s6.1,3.5,6.1,9.5
			C502.7,50.4,500.4,54,496.6,54z M491.7,44.7c0,5.1,1.8,8.1,4.9,8.1c3,0,4.9-3.1,4.9-8.3c0-5.2-1.8-8.3-4.9-8.3
			c-3,0-4.8,3.1-4.8,8.3L491.7,44.7L491.7,44.7z"/>
		<path class="st0" d="M502.6,44.5c0,6.3-2.5,9.3-6,9.3s-6-3-6-9.3s2.5-9.3,6-9.3S502.6,38.2,502.6,44.5z M491.6,44.5
			c0,5.7,2.1,8.4,5,8.4s5-2.7,5-8.4s-2.2-8.4-5-8.4S491.6,38.8,491.6,44.5L491.6,44.5z M508.1,55h-1V34.5h1V55z"/>
		<path class="st0" d="M522.7,55c-3.3,0-8.9-0.5-8.9-3.6c0-3.1,5.6-3.6,8.9-3.6c3.3,0,8.9,0.5,8.9,3.6C531.5,54.5,526,55,522.7,55z
			 M522.7,49c-4.7,0-7.5,0.9-7.5,2.4c0,1.8,3.9,2.5,7.5,2.5s7.5-0.7,7.5-2.5C530.2,49.2,524.9,49,522.7,49z M512.4,45.7v-1.2h5.1
			v-2.9c-2.4-0.6-3.7-1.8-3.7-3.3c0-2.4,3.3-3.9,8.9-3.9c5.6,0,8.9,1.5,8.9,3.9c0,1.5-1.3,2.7-3.7,3.3v2.9h5.1v1.2H512.4z
			 M526.6,44.5v-2.7c-1.3,0.2-2.6,0.3-3.9,0.3s-2.6-0.1-3.9-0.3v2.7H526.6z M522.7,35.6c-3.5,0-7.6,0.7-7.6,2.7c0,2,4.1,2.7,7.6,2.7
			c3.5,0,7.6-0.7,7.6-2.7C530.3,36.3,526.2,35.6,522.7,35.6z"/>
		<path class="st0" d="M532.8,44.7v0.9h-20.3v-0.9h5.1v-3.2c-2.2-0.5-3.7-1.6-3.7-3.2c0-2.7,4.2-3.8,8.8-3.8s8.8,1.1,8.8,3.8
			c0,1.6-1.5,2.6-3.7,3.2v3.2L532.8,44.7z M531.4,51.4c0,2.7-4.3,3.5-8.7,3.5s-8.7-0.8-8.7-3.5s4.3-3.5,8.7-3.5
			S531.4,48.7,531.4,51.4z M522.7,41.1c4,0,7.8-0.8,7.8-2.8s-3.8-2.8-7.8-2.8s-7.8,0.8-7.8,2.8S518.7,41.1,522.7,41.1z M530.3,51.4
			c0-2-4.1-2.5-7.7-2.5s-7.7,0.5-7.7,2.5s4.1,2.6,7.7,2.6S530.3,53.3,530.3,51.4z M518.6,44.7h8.1v-3c-2.7,0.5-5.4,0.5-8.1,0V44.7z"
			/>
		<path class="st0" d="M552.5,55.1V34.4h1.3v9h3.2v1.2h-3.2v10.6H552.5z M542.8,53.9c-3.3,0-5.6-2.7-5.6-6.3c0-3.7,2.4-6.3,5.6-6.3
			c3.2,0,5.6,2.6,5.6,6.2l0,0.1C548.4,51.3,546,53.9,542.8,53.9z M542.8,42.5c-2.5,0-4.3,2.1-4.3,5.1c0,3.3,2.2,5.1,4.3,5.1
			c2.5,0,4.3-2.1,4.3-5.1v-0.1h0C547.1,44.6,545.3,42.5,542.8,42.5z M536,39.4v-1.2h6.1v-3.8h1.3l0,3.8h6.1v1.2H536z"/>
		<path class="st0" d="M543.3,38.3h6.1v0.9h-13.3v-0.9h6.1v-3.8h1L543.3,38.3z M548.3,47.6c0,3.8-2.5,6.2-5.5,6.2s-5.5-2.4-5.5-6.2
			s2.5-6.2,5.5-6.2S548.2,43.8,548.3,47.6L548.3,47.6z M547.3,47.6c0-3.2-2.1-5.2-4.5-5.2s-4.5,2-4.5,5.2s2.1,5.2,4.5,5.2
			S547.2,50.8,547.3,47.6L547.3,47.6z M556.9,44.4h-3.2V55h-1V34.5h1v9h3.2V44.4z"/>
		<path class="st0" d="M576.4,55.1v-6.4H572l0.1-1.2h4.3v-6.2h-4.3l-0.1-1.2h4.4v-5.8l1.3,0v20.8H576.4z M565.6,54
			c-3.8,0-6-3.5-6-9.5c0-6,2.2-9.5,6-9.5c3.8,0,6,3.5,6,9.5C571.6,50.4,569.3,54,565.6,54z M565.6,36.3c-3,0-4.7,3-4.7,8.3
			c0,5.2,1.7,8.3,4.7,8.3c2.9,0,4.6-3,4.6-8.3v-0.1h0C570.3,39.2,568.6,36.3,565.6,36.3z"/>
		<path class="st0" d="M571.4,44.5c0,6.3-2.5,9.3-5.9,9.3s-5.9-3-5.9-9.3s2.5-9.3,5.9-9.3S571.4,38.2,571.4,44.5z M570.4,44.5
			c0-5.7-2-8.4-4.8-8.4s-4.8,2.7-4.8,8.4s2,8.4,4.8,8.4S570.4,50.2,570.4,44.5L570.4,44.5z M577.5,34.5V55h-1v-6.4h-4.4l0.1-0.9h4.3
			v-6.5h-4.3l-0.1-0.9h4.4v-5.8L577.5,34.5z"/>
		<path class="st0" d="M606.6,55v-4.8h-16.4V49h17.7v6H606.6z M606.6,47.8V34.4l1.3,0v13.5H606.6z M601.7,47.6v-6.4h-3.3v-1.2h3.3
			v-5.4h1.3v13.1H601.7z M593.8,46.5c-0.3,0-0.6,0-1,0h-3.6V35.1h9.1v1.2h-7.8v3.9h7v1.2h-7v4h2.5c0.3,0,0.6,0,0.9,0
			c1.8,0,3.6-0.3,5.4-0.8l0.2-0.1v1.2l-0.1,0C597.6,46.3,595.7,46.5,593.8,46.5z"/>
		<path class="st0" d="M592.8,46.4h-3.5V35.2h8.8v0.9h-7.8v4.2h7v0.9h-7v4.3h2.6c2.1,0.1,4.3-0.2,6.3-0.8v0.9
			C597.2,46.2,595,46.5,592.8,46.4z M590.3,49.1h17.4v5.7h-1V50h-16.4V49.1z M601.9,41h-3.3v-0.9h3.3v-5.4h1v12.8h-1V41z
			 M607.7,34.5v13.2h-1V34.5L607.7,34.5z"/>
		<path class="st0" d="M611.5,53.9v-1.2H632v1.2H611.5z M621.4,40.7c-2.4,4.2-5.9,6.7-9.4,6.7h-0.1v-1.3h0.1c4.8,0,9-5.8,10.3-11.5
			l0-0.1l1.3,0.3l0,0.1c-0.4,1.6-0.9,3.2-1.7,4.7l9.3,6.9l-0.8,0.9L621.4,40.7z"/>
		<path class="st0" d="M631.9,52.9v0.9h-20.3v-0.9H631.9z M612,47.2v-1c4.8,0,9.1-5.5,10.4-11.6l1.1,0.3c-0.4,1.6-0.9,3.2-1.7,4.7
			l9.3,6.8l-0.6,0.7l-9.1-6.7C619.1,44.5,615.6,47.2,612,47.2z"/>
		<path class="st0" d="M652.3,55.1v-7.8h-4.7v-1.2h4.7v-3.8h-4.7v-1.2h4.7v-6.8l1.3,0.1v20.7H652.3z M641.6,46
			c-1.2,4.3-3.5,7.1-6.5,7.7l-0.2,0v-1.3l0.1,0c3.5-0.8,5.8-5.9,6.2-13.2h-6.2V38h6.2v-3.7h1.3v3.7h5.8v1.2h-5.8
			c-0.1,1.7-0.3,3.5-0.6,5.2l7.1,8.4l-0.9,0.9L641.6,46z"/>
		<path class="st0" d="M641.8,44.5l7.1,8.3l-0.7,0.7l-6.6-7.9c-1.2,4.4-3.4,7.2-6.4,7.9v-1c3.8-0.9,6-6.5,6.3-13.4h-6.2v-0.9h6.2
			v-3.7h1v3.7h5.8v0.9h-5.8C642.4,41,642.2,42.8,641.8,44.5z M653.5,34.5V55h-1v-7.8h-4.7v-0.9h4.7v-4.1h-4.7v-0.9h4.7v-6.8
			L653.5,34.5z"/>
		<polygon class="st0" points="657.6,53.9 657.6,52.7 667.2,52.7 667.2,47.9 659.2,47.9 659.2,41 675.4,41 675.4,36.5 659.2,36.5 
			659.2,35.3 676.7,35.3 676.7,42.1 660.5,42.1 660.5,46.6 677.1,46.6 677.1,47.8 668.5,47.8 668.5,52.7 678.1,52.7 678.1,53.9 		
			"/>
		<path class="st0" d="M678,52.9v0.9h-20.2v-0.9h9.5v-5.2h-8v-6.6h16.2v-4.7h-16.1v-0.9h17.2V42h-16.2v4.7h16.5v0.9h-8.6v5.2
			L678,52.9z"/>
		<path class="st0" d="M705.7,55.1V34.4l1.3,0v20.8H705.7z M700.9,54.8V44.6H697v9.1h-8.6V35.1h1.3v8h6.1v-8h1.3v8.3h3.9v-8.9h1.3
			v20.3H700.9z M695.7,52.5v-8.3h-6.1v8.2L695.7,52.5z"/>
		<path class="st0" d="M701,34.6h1v20h-1V44.5h-4.2v9.1h-8.3V35.2h1v8h6.3v-8h1v8.3h4.2V34.6z M695.8,52.6v-8.6h-6.3v8.5L695.8,52.6
			z M706.8,34.5V55h-1V34.5L706.8,34.5z"/>
		<path class="st0" d="M728.2,55.1V34.4h1.3v20.8H728.2z M717.8,54c-3.8,0-6.1-3.5-6.1-9.5c0-5.9,2.3-9.5,6.1-9.5s6.1,3.5,6.1,9.5
			C723.9,50.4,721.6,54,717.8,54z M712.9,44.7c0,5.1,1.8,8.1,4.9,8.1c3,0,4.9-3.1,4.9-8.3c0-5.2-1.8-8.3-4.9-8.3
			c-3,0-4.8,3.1-4.8,8.3L712.9,44.7L712.9,44.7z"/>
		<path class="st0" d="M723.8,44.5c0,6.3-2.5,9.3-6,9.3s-6-3-6-9.3s2.5-9.3,6-9.3S723.8,38.2,723.8,44.5z M712.8,44.5
			c0,5.7,2.1,8.4,5,8.4s5-2.7,5-8.4s-2.2-8.4-5-8.4S712.8,38.8,712.8,44.5L712.8,44.5z M729.3,55h-1V34.5h1V55z"/>
		<path class="st0" d="M733.6,53.9v-1.2h20.5v1.2H733.6z M743.5,40.7c-2.4,4.2-5.9,6.7-9.3,6.7H734v-1.3h0.1c4.8,0,9-5.8,10.3-11.5
			l0-0.1l1.3,0.3l0,0.1c-0.4,1.6-0.9,3.2-1.7,4.7l9.3,6.9l-0.8,0.9L743.5,40.7z"/>
		<path class="st0" d="M754,52.9v0.9h-20.2v-0.9H754z M734.2,47.2v-1c4.8,0,9.1-5.5,10.4-11.6l1.1,0.3c-0.4,1.6-0.9,3.2-1.7,4.7
			l9.3,6.8l-0.6,0.7l-9.1-6.7C741.2,44.5,737.8,47.2,734.2,47.2L734.2,47.2z"/>
		<path class="st0" d="M758.3,54.7v-4.3h16.1v-1.9h-16.2v-1.2h17.4v4.2h-16.1v2h16.6v1.2H758.3z M756.7,45.4v-1.2h20.5v1.2H756.7z
			 M758.4,42.4V38h16v-2h-16v-1.1h17.2l0.1,4.3h-16v2H776v1.2H758.4z"/>
		<path class="st0" d="M777.1,45.3h-20.2v-0.9h20.2V45.3z M775.5,51.4h-16.1v2.3H776v0.9h-17.6v-4h16.1v-2.2h-16.2v-0.9h17.2V51.4z
			 M775.5,39h-16v2.3h16.3v0.9h-17.3v-4.1h16v-2.2h-16V35h16.9L775.5,39z"/>
		<path class="st0" d="M788.2,54.7v-8.6h1.3v3h14.1v-3h1.3v8.6H788.2z M803.5,53.5v-3.1h-14.1v3.1H803.5z M803.5,45.4v-11h1.3v4.3
			h3.2v1.2h-3.2v5.5H803.5z M786.9,43.6l0.1,0c3.9-0.7,6.2-3.3,6.4-7.3h-6.3v-1.2h13.4v1.2h-5.8c0,1-0.2,2-0.6,3l7.1,4.5l-0.7,1
			l-6.9-4.3c-1.4,2.4-3.8,4-6.6,4.4l-0.2,0V43.6z"/>
		<path class="st0" d="M787,44.7v-1c3.9-0.7,6.3-3.3,6.5-7.6h-6.3v-0.9h13.1v0.9h-5.8c0,1.1-0.2,2.2-0.6,3.2l7.1,4.4l-0.6,0.8
			l-6.9-4.3C792.2,42.7,789.8,44.4,787,44.7z M803.7,46.2h1v8.3h-16.4v-8.3h1v3h14.4V46.2z M803.7,53.6v-3.4h-14.4v3.4L803.7,53.6z
			 M807.9,39.8h-3.2v5.5h-1V34.5h1v4.3h3.2V39.8z"/>
		<path class="st0" d="M809.6,53.9v-1.2h8.4V42.6h1.3v10.1h10.8v1.2H809.6z M827.3,49.1l0-12.6H811v-1.2h17.6v13.8H827.3z"/>
		<path class="st0" d="M830,52.9v0.9h-20.2v-0.9h8.4V42.8h1v10.1H830z M827.4,36.4h-16.3v-0.9h17.3V49h-1L827.4,36.4z"/>
		<path class="st0" d="M839.4,53.9v-1.2H860v1.2H839.4z M857.1,49.8V36.5h-16.3v-1.2h17.6l0,14.5H857.1z"/>
		<path class="st0" d="M859.8,53.8h-20.3v-0.9h20.3V53.8z M858.3,49.6h-1V36.4H841v-0.9h17.3L858.3,49.6z"/>
		<path class="st0" d="M886.9,55.1V34.4h1.3v20.8H886.9z M875.7,55.1v-6.2h-6.5v-1.2h7.7c0.4,0,0.8,0,1.2,0c2.2,0,4.4-0.3,6.6-0.9
			l0.2,0v1.3l-0.1,0c-2.2,0.6-4.5,0.9-6.8,0.9c-0.4,0-0.7,0-1.1,0H877v6.2H875.7z M876.3,45.4c-3.6,0-6-2.2-6-5.3
			c0-3.1,2.5-5.3,6-5.3c3.6,0,6.1,2.2,6.1,5.3C882.4,43.2,879.9,45.4,876.3,45.4z M871.6,40.3c0.1,2.3,2,3.9,4.7,3.9
			c2.8,0,4.8-1.7,4.8-4c0-2.4-2-4-4.8-4c-2.8,0-4.7,1.7-4.7,4L871.6,40.3L871.6,40.3z"/>
		<path class="st0" d="M877,47.8c2.6,0.1,5.3-0.2,7.8-0.9v1c-2.5,0.7-5.2,0.9-7.8,0.8h-0.2V55h-1v-6.2h-6.5v-0.9L877,47.8z
			 M870.5,40.1c0-3,2.5-5.1,5.9-5.1s5.9,2.1,5.9,5.1s-2.5,5.1-5.9,5.1S870.5,43.1,870.5,40.1z M871.5,40.1c0,2.4,1.9,4.2,4.9,4.2
			s4.9-1.8,4.9-4.2s-2-4.2-4.9-4.2S871.5,37.7,871.5,40.1L871.5,40.1z M888,34.5V55h-1V34.5H888z"/>
		<path class="st0" d="M910.5,55.1V34.4l1.3,0v20.8H910.5z M905.7,54.8V44.7h-3.5c0,6.2-1.6,9.3-4.7,9.3c-3.1,0-4.7-3.2-4.7-9.5
			c0-6.3,1.6-9.5,4.7-9.5c3,0,4.5,2.7,4.7,8.5h3.5v-9h1.3v20.3H905.7z M897.5,36.3c-2.3,0-3.4,2.7-3.4,8.3s1.1,8.3,3.4,8.3
			c2.3,0,3.4-2.7,3.4-8.3S899.8,36.3,897.5,36.3z"/>
		<path class="st0" d="M905.8,34.6h1v20h-1V44.6h-3.7c0,6.3-1.6,9.3-4.6,9.3s-4.6-3-4.6-9.3s1.6-9.3,4.6-9.3s4.4,2.7,4.6,8.5h3.7
			V34.6z M901.1,44.5c0-5.7-1.2-8.4-3.5-8.4s-3.5,2.7-3.5,8.4s1.2,8.4,3.5,8.4S901.1,50.2,901.1,44.5z M911.6,34.5V55h-1V34.5
			L911.6,34.5z"/>
		<path class="st0" d="M0.5,87.9v-1.2H21v1.2H0.5z M18.2,83.8V70.5H1.9v-1.2h17.6v14.5H18.2z"/>
		<path class="st0" d="M20.9,87.8H0.6v-0.9h20.3V87.8z M19.3,83.6h-1V70.4H2v-0.9h17.3V83.6z"/>
		<path class="st0" d="M41.7,89.1V68.4l1.3,0v20.8H41.7z M36.9,88.8V78.6h-3.3v-1.2h3.3v-8.9h1.3v20.3H36.9z M28.5,87.7
			c-0.3,0-0.6,0-0.9,0h-3.3v-10h6.8v-7.2h-6.8v-1.2h8.1v9.6h-6.8v7.6h1.9c0.3,0,0.6,0,0.9,0l0,0c2,0,4-0.4,5.9-1.2l0.2-0.1v1.3
			l-0.1,0C32.6,87.3,30.6,87.7,28.5,87.7z"/>
		<path class="st0" d="M27.6,86.6c2.4,0.1,4.7-0.3,6.9-1.2v1c-2.2,0.8-4.5,1.2-6.8,1.1h-3.1v-9.7h6.8v-7.4h-6.8v-0.9h7.8v9.3h-6.8
			v7.8H27.6z M37.1,68.6h1v20h-1V78.5h-3.3v-0.9h3.3L37.1,68.6z M42.9,68.5V89h-1V68.5L42.9,68.5z"/>
		<path class="st0" d="M48.9,88.7v-6.6h1.3v5.4h16.1v1.2H48.9z M64.2,83.9V68.4h1.3v15.6H64.2z M53.5,80.6c-3.8,0-6.4-2.4-6.4-6
			c0-3.6,2.6-6,6.4-6c3.8,0,6.4,2.4,6.4,6C59.9,78.2,57.3,80.6,53.5,80.6z M53.5,69.9c-3.1,0-5.1,1.9-5.1,4.8c0,2.9,2,4.8,5.1,4.8
			c3.1,0,5.1-1.9,5.1-4.8S56.6,69.9,53.5,69.9z"/>
		<path class="st0" d="M59.8,74.7c0,3.2-2.3,5.8-6.3,5.8s-6.3-2.6-6.3-5.8s2.3-5.8,6.3-5.8S59.8,71.5,59.8,74.7z M48.2,74.7
			c0,3,2.1,4.9,5.3,4.9s5.2-2,5.2-4.9s-2.1-4.9-5.2-4.9S48.2,71.7,48.2,74.7z M50,87.6h16.2v0.9H49v-6.3h1V87.6z M65.4,83.8h-1V68.5
			h1V83.8z"/>
		<path class="st0" d="M71.3,88.7v-4.6h16.1v-2.1H71.3v-1.2h17.4v4.5H72.6v2.2h16.5v1.2H71.3z M69.7,78.7v-1.2h20.5v1.2H69.7z
			 M80,75.9c-5.6,0-8.9-1.4-8.9-3.7c0-2.3,3.3-3.7,8.9-3.7c5.7,0,8.9,1.4,8.9,3.7C88.9,74.6,85.6,75.9,80,75.9z M80,69.7
			c-4.8,0-7.6,0.9-7.6,2.5c0,2.3,5.3,2.5,7.6,2.5c4.8,0,7.6-0.9,7.6-2.5C87.6,70.6,84.7,69.7,80,69.7z"/>
		<path class="st0" d="M90.1,78.6H69.9v-0.9h20.3V78.6z M88.8,72.2c0,2.6-4.2,3.6-8.8,3.6s-8.8-1-8.8-3.6s4.2-3.6,8.8-3.6
			S88.8,69.6,88.8,72.2z M88.6,85.2H72.5v2.4H89v0.9H71.4v-4.3h16.1v-2.4H71.4V81h17.2V85.2z M72.3,72.2c0,2,3.8,2.7,7.7,2.7
			s7.7-0.7,7.7-2.7S84,69.6,80,69.6S72.3,70.3,72.3,72.2z"/>
		<path class="st0" d="M117.3,89.1V68.4h1.3v20.8H117.3z M108.7,87.8c-0.4,0-0.8,0-1.1,0h-8.1v-1.2l8,0c3.8,0,6.4-0.3,7.8-0.9
			l0.2-0.1v1.3l-0.1,0C113.2,87.5,111,87.8,108.7,87.8z M99.7,80.1L99.7,80.1c3.2-1.6,3.6-7.1,3.6-11.1l0-0.1h1.3V69
			c0,1.9-0.2,3.9-0.5,5.8l2.9,4.9c2.1-1.5,3-4.9,3.1-10.7l0-0.1h1.3l0,0.1c0,1.8-0.2,3.7-0.4,5.5l3.7,5.9l-1,0.6l-3-4.9
			c-0.7,2.6-2,4.3-3.9,5.1l-0.1,0l-2.8-4.8c-0.8,2.5-2,4.1-3.8,4.9l-0.2,0.1V80.1z"/>
		<path class="st0" d="M107.5,86.6c3.4,0,6.2-0.2,7.8-0.9v1c-2.5,0.7-5.2,1-7.8,0.9h-7.9v-0.9L107.5,86.6z M99.8,81.1v-0.9
			c3-1.5,3.6-6.3,3.6-11.2h1c0,1.9-0.2,3.9-0.5,5.8l3,5.1c2.6-1.7,3.2-6.3,3.2-10.9h1c0,1.8-0.2,3.7-0.4,5.5l3.6,5.9l-0.8,0.5
			l-3.1-5.1c-0.7,2.5-1.8,4.4-3.9,5.3l-2.9-5C103,78.4,101.9,80.2,99.8,81.1z M118.4,68.5V89h-1V68.5H118.4z"/>
		<path class="st0" d="M140.4,89.1v-3.4h-7v-1.2h7V68.4l1.3,0v20.8H140.4z M129.1,89.1v-7.2h-6.4v-1.2h7.9c0.4,0,0.8,0,1.2,0
			c2.2,0,4.4-0.3,6.6-0.9l0.2,0v1.3l-0.1,0c-2.2,0.6-4.4,0.8-6.6,0.8c-0.4,0-0.8,0-1.2,0h-0.2v7.2H129.1z M129.9,78.7
			c-3.6,0-6-1.9-6-4.8l0-0.1c0-2.9,2.5-4.9,6.1-4.9c3.6,0,6.1,2,6.1,4.9C136,76.7,133.5,78.7,129.9,78.7z M125.1,74
			c0.1,2.1,2,3.5,4.8,3.5c2.9,0,4.8-1.5,4.8-3.7c0-2.2-1.9-3.7-4.8-3.7c-2.9,0-4.7,1.4-4.7,3.7L125.1,74L125.1,74z"/>
		<path class="st0" d="M130.6,81.8h-0.4V89h-1v-7.2h-6.4v-0.9h7.7c2.6,0.1,5.3-0.2,7.9-0.9v1C135.8,81.6,133.2,81.9,130.6,81.8z
			 M124,73.8c0-2.9,2.5-4.8,5.9-4.8c3.5,0,5.9,1.9,5.9,4.8s-2.5,4.8-5.9,4.8S124,76.7,124,73.8L124,73.8z M125,73.8
			c0,2.3,1.9,3.8,4.9,3.8c3,0,4.9-1.6,4.9-3.8s-1.9-3.8-4.9-3.8S125,71.5,125,73.8L125,73.8z M141.5,68.5V89h-1v-3.4h-7v-0.9h7V68.5
			L141.5,68.5z"/>
		<path class="st0" d="M154.1,88.7v-5.6h1.3l0,4.4h16.5v1.2H154.1z M162.1,84.8V81h-9.6v-1.2H173V81h-9.6v3.8H162.1z M154.1,77.3
			v-8.7h1.3v3.3H170v-3.3h1.3l0.1,8.7H154.1z M170.1,76.1V73h-14.7v3.1H170.1z"/>
		<path class="st0" d="M172.8,79.9v0.9h-9.6v3.8h-1v-3.8h-9.6v-0.9H172.8z M155.2,87.6h16.5v0.9h-17.5v-5.3h1L155.2,87.6z
			 M171.2,77.1h-17v-8.4h1V72h14.9v-3.3h1L171.2,77.1z M170.2,76.2v-3.4h-15v3.4H170.2z"/>
		<path class="st0" d="M193.2,89.1V68.4h1.3v20.8H193.2z M182,89.1v-6.2h-6.5v-1.2h7.7c0.4,0,0.8,0,1.2,0c2.2,0,4.4-0.3,6.6-0.9
			l0.2,0v1.3l-0.1,0c-2.2,0.6-4.5,0.9-6.8,0.9c-0.4,0-0.7,0-1.1,0h-0.1v6.2H182z M182.6,79.4c-3.6,0-6.1-2.2-6.1-5.3
			c0-3.1,2.5-5.3,6.1-5.3c3.6,0,6,2.2,6,5.3C188.7,77.2,186.2,79.4,182.6,79.4z M177.9,74.3c0.1,2.3,2,3.9,4.8,3.9
			c2.8,0,4.8-1.7,4.8-4c0-2.4-2-4-4.7-4c-2.8,0-4.8,1.6-4.8,4L177.9,74.3L177.9,74.3z"/>
		<path class="st0" d="M183.3,81.8c2.6,0.1,5.3-0.2,7.9-0.9v1c-2.5,0.7-5.2,0.9-7.8,0.8h-0.2V89h-1v-6.2h-6.4v-0.9H183.3z
			 M176.7,74.1c0-3,2.4-5.1,5.9-5.1s5.9,2.1,5.9,5.1s-2.4,5.1-5.9,5.1S176.7,77.1,176.7,74.1z M177.7,74.1c0,2.4,1.9,4.2,4.9,4.2
			s4.9-1.8,4.9-4.2s-1.9-4.1-4.9-4.1S177.7,71.7,177.7,74.1L177.7,74.1z M194.3,68.5V89h-1V68.5H194.3z"/>
		<path class="st0" d="M216.2,89.1V68.4h1.3v20.8H216.2z M199.7,87.6v-1.3h0.1c6,0,9.9-4.9,9.9-12.4v-3.4h-10v-1.2H211v4.6
			c0,8.3-4.4,13.7-11.1,13.7H199.7z"/>
		<path class="st0" d="M210.9,73.9c0,8.1-4.1,13.6-11,13.6v-1c6.1,0,10-4.8,10-12.5v-3.6h-10v-0.9h11V73.9z M217.3,89h-1V68.5h1V89z
			"/>
		<path class="st0" d="M223.3,88.7v-4.3h16.1v-1.9h-16.2v-1.2h17.4v4.2h-16.1v2h16.6v1.2H223.3z M221.7,79.4v-1.2h20.5v1.2H221.7z
			 M223.4,76.4V72h16v-2h-16v-1.1h17.2v4.3h-16v2h16.3v1.2H223.4z"/>
		<path class="st0" d="M242.1,79.3h-20.3v-0.9h20.3V79.3z M240.5,85.4h-16.1v2.3H241v0.9h-17.6v-4h16.1v-2.2h-16.2v-0.9h17.2V85.4z
			 M240.5,73h-16v2.3h16.3v0.9h-17.2v-4.1h16v-2.2h-16V69h16.9V73z"/>
		<path class="st0" d="M251.5,87.9v-1.2h8.4V76.6h1.3v10.1H272v1.2H251.5z M269.2,83.1V70.5h-16.3v-1.2h17.6v13.8H269.2z"/>
		<path class="st0" d="M271.9,86.9v0.9h-20.3v-0.9h8.4V76.8h1v10.1H271.9z M269.3,70.4h-16.3v-0.9h17.3V83h-1V70.4z"/>
		<path class="st0" d="M274.6,87.9v-1.2h9.6v-6.2h1.3v6.2h9.7v1.2H274.6z M284.4,75.5c-1.9,3.1-5.3,5.2-8.9,5.5v0.1l-0.2-0.1l-0.1,0
			V81l-0.4-0.2l0.4,0v-1l0.1,0c5.1-0.6,8.6-3.9,9.6-9.2h-9.2v-1.2h18.3v1.2h-7.8c-0.2,1.3-0.6,2.6-1.2,3.8l9.5,5.7l-0.7,1.1
			L284.4,75.5z"/>
		<path class="st0" d="M295,86.9v0.9h-20.3v-0.9h9.6v-6.2h1v6.2H295z M275.3,80.9v-1c5-0.6,8.8-3.8,9.7-9.4h-9.2v-0.9h18v0.9H286
			c-0.2,1.4-0.6,2.7-1.2,4l9.5,5.7l-0.5,0.8l-9.4-5.7C282.4,78.5,279,80.6,275.3,80.9L275.3,80.9z"/>
		<path class="st0" d="M315.3,89.1V68.4h1.3v20.8H315.3z M298.2,86.5l0.1,0c5.1-1,6.9-10,6.9-17.4V69h1.3l0,0.1
			c0,2.9-0.3,5.8-0.8,8.6l7.1,9.2l-1,0.8l-6.5-8.4c-1.3,5.1-3.7,8-7,8.4l-0.2,0V86.5z"/>
		<path class="st0" d="M305.5,77.8l7.1,9.1l-0.8,0.6l-6.6-8.5c-1.3,5-3.6,8.1-6.9,8.6v-0.9c4.8-0.9,7-8.9,7-17.5h1
			C306.4,72,306.1,74.9,305.5,77.8z M316.4,68.5V89h-1V68.5H316.4z"/>
		<path class="st0" d="M336.3,85c-0.9,2-2.8,3.3-4.9,3.6l-0.1,0l-3.7-3.5c-1,1.8-2.8,3.2-4.9,3.5l-0.2,0v-1.2l0.1,0
			c2.5-0.4,4.7-3.3,4.9-6.8l0-0.2l1.3,0.2l0,0.1c-0.1,1.1-0.3,2.1-0.7,3.1l3.6,3.4c2.3-0.7,4.1-3.5,4.3-6.7l0-0.1l1.3,0.1l0,0.1
			c-0.1,1-0.3,2-0.6,3l4.6,4.2l-0.9,0.9L336.3,85z M338.5,80.3v-3.2h-4.9v-1.2h4.9v-3.6h-4.2V71h4.2v-2.6h1.3v11.9H338.5z
			 M321.6,79.7v-1.3h0.1c5.1,0,8.6-1.3,9.9-3.7h-10v-1.2h10.5c0.1-0.5,0.2-1.1,0.2-1.6v-1.7h-10.7V69h12v2.6c0,5.3-4,8-11.9,8H321.6
			z"/>
		<path class="st0" d="M321.7,79.6v-1c5.1,0,8.8-1.2,10.1-4h-10.1v-0.9h10.5c0.1-0.6,0.2-1.1,0.2-1.7v-1.8h-10.7v-0.9h11.7v2.5
			C333.4,77.4,328.9,79.6,321.7,79.6z M340.5,88.7l-4.2-3.9c-0.9,2-2.7,3.4-4.9,3.7l-3.8-3.6c-1,1.9-2.8,3.2-4.9,3.6v-0.9
			c2.6-0.4,4.8-3.4,5-6.9l1,0.1c-0.1,1.1-0.3,2.2-0.7,3.2l3.7,3.6c2.3-0.6,4.3-3.4,4.5-6.8l1,0.1c-0.1,1-0.3,2-0.6,3l4.5,4.1
			L340.5,88.7z M338.7,76.9h-5V76h5v-3.9h-4.2v-0.9h4.2v-2.6h1v11.7h-1V76.9z"/>
		<path class="st0" d="M345.5,88.7v-7.9h1.3v2.7h14.7v-2.7h1.3v7.9H345.5z M361.5,87.5v-2.7h-14.7v2.7H361.5z M343.9,79.1v-1.3h20.5
			v1.3H343.9z M344.7,74.6l0.1,0c3.9-0.1,8.7-2.7,9.6-6.6l0-0.1l1.3,0.2l0,0.1c-0.2,0.9-0.6,1.8-1.1,2.6l8.8,4l-0.5,1.1l-9.1-4.1
			c-2.4,2.5-5.6,4-9,4.2l-0.1,0V74.6z"/>
		<path class="st0" d="M364.2,78v1H344v-1H364.2z M344.9,75.7v-1c4-0.1,8.9-2.8,9.8-6.7l1,0.2c-0.2,1-0.6,1.9-1.1,2.7l8.9,4
			l-0.4,0.8l-9.1-4.1C351.5,74.1,348.3,75.6,344.9,75.7L344.9,75.7z M361.6,81h1v7.6h-17V81h1v2.7h15V81z M361.6,87.6v-3h-15v3
			H361.6z"/>
		<path class="st0" d="M384.5,89.1V68.4h1.3v20.8H384.5z M376.8,87.7h-8.4V69.2h1.3l0,17.3l7.3,0c1.7,0,3.4-0.3,5.1-1l0.2-0.1v1.3
			l-0.1,0c-1.6,0.7-3.3,1-5,1L376.8,87.7z"/>
		<path class="st0" d="M369.5,86.6h7.3c1.8,0,3.6-0.3,5.3-1v1c-1.7,0.7-3.5,1-5.3,1h-8.3V69.3h1L369.5,86.6z M385.7,89h-1V68.5h1V89
			z"/>
		<path class="st0" d="M407,89.1V68.4h1.3v9h3.2v1.2h-3.2v10.6H407z M391.2,87.8V69.3h12v1.2h-10.8v15.9l7.1,0c1.7,0,3.4-0.3,5-1
			l0.2-0.1v1.3l-0.1,0c-1.6,0.7-3.4,1-5.1,1L391.2,87.8z"/>
		<path class="st0" d="M399.4,86.6c1.8,0,3.6-0.3,5.3-1v1c-1.7,0.7-3.5,1-5.3,1h-8.1V69.5h11.8v0.9h-10.8v16.2H399.4z M411.4,78.4
			h-3.2V89h-1V68.5h1v9h3.2V78.4z"/>
		<path class="st0" d="M414.4,88.9c-0.7,0-1.3-0.6-1.3-1.3c0-0.3,0.1-0.7,0.4-0.9c0.2-0.2,0.6-0.4,0.9-0.4c0.7,0,1.3,0.6,1.3,1.2
			C415.7,88.3,415.1,88.9,414.4,88.9L414.4,88.9z"/>
		<path class="st0" d="M415.5,87.6c0,0.6-0.5,1.1-1.1,1.1s-1.1-0.5-1.1-1.1c0-0.6,0.5-1.1,1.1-1.1c0,0,0,0,0,0
			C415,86.5,415.5,87,415.5,87.6C415.5,87.6,415.5,87.6,415.5,87.6z"/>
	</g>
</g>
</svg>
