<svg xmlns="http://www.w3.org/2000/svg" viewBox="0 0 571.12 157.42"><defs><style>.cls-1{fill:#fff;}</style></defs><g id="레이어_2" data-name="레이어 2"><g id="레이어_1-2" data-name="레이어 1"><path class="cls-1" d="M511.32,0H59.8A59.8,59.8,0,0,0,0,59.8H0a59.79,59.79,0,0,0,59.8,59.79H260.32l25.24,37.83,25.24-37.83H511.32a59.79,59.79,0,0,0,59.8-59.79h0A59.8,59.8,0,0,0,511.32,0Z"/><path d="M70.55,44.41l1.76.34v3.53L70.55,48c-3.17-.62-4.75-.94-7.91-1.63V72.83L59.1,72V45.53c-3.19-.73-4.79-1.12-8-1.93l-1.77-.46V39.61l1.77.45c3.2.82,4.8,1.21,8,1.94l3.54.79C65.8,43.48,67.38,43.8,70.55,44.41Z"/><path d="M85.12,55.75a9.23,9.23,0,0,1,5.26,2.79,10.3,10.3,0,0,1,3.14,7.52v10.3l0,1.81c-1.4-.17-2.09-.27-3.49-.46l0-1.77L90,65.6a6.92,6.92,0,0,0-.84-3.3,5.39,5.39,0,0,0-4-3,4,4,0,0,0-2.74.54,4.72,4.72,0,0,0-2.12,4.3V76.19c-1.41-.23-2.12-.35-3.53-.6v-29c1.41.25,2.12.37,3.53.6v9.45A7.35,7.35,0,0,1,85.12,55.75Z"/><path d="M101.42,61.25a8.28,8.28,0,0,1,7.11-2.71,10.11,10.11,0,0,1,6.19,2.93V59c1.41.11,2.12.16,3.53.25v21.2l-3.53-.24V77.82a8.42,8.42,0,0,1-6.19,1.93,9.8,9.8,0,0,1-6.31-3.18,11.69,11.69,0,0,1-3.4-8.41A9.74,9.74,0,0,1,101.42,61.25ZM103.63,73a6.3,6.3,0,0,0,4.9,3.25,5.09,5.09,0,0,0,3.72-1.1,6.62,6.62,0,0,0,2.47-5.46,8.18,8.18,0,0,0-1.28-4.39,6.29,6.29,0,0,0-4.91-3.18,5.14,5.14,0,0,0-3.71,1.06,6.44,6.44,0,0,0-2.47,5.41A8.27,8.27,0,0,0,103.63,73Z"/><path d="M142.15,81.46l-3.49-.06,0-1.77-.05-10.34a6.38,6.38,0,0,0-.84-3.2,4.64,4.64,0,0,0-4-2.53,4.2,4.2,0,0,0-2.73.88A5.36,5.36,0,0,0,128.85,69V81.06l-3.53-.16V59.69l3.53.16v1.68a7.91,7.91,0,0,1,4.86-1.5A8,8,0,0,1,139,62.19a9.19,9.19,0,0,1,3.14,7.16v10.3Z"/><path d="M152.71,72.61v8.83l-3.54,0c0-.71,0-1.06,0-1.77V69.09c0-7.07,0-10.61,0-17.67V49.65h3.54V69.07h.62c3.5-3.37,5.25-5.07,8.74-8.5.22-.19.32-.29.53-.49l5.13-.16c-1.27,1.27-1.91,1.9-3.18,3.15-3.18,3.11-4.77,4.66-8,7.73,3.18,3,4.77,4.45,8,7.38l3.18,2.95c-2,.07-3.08.1-5.13.15l-.53-.47c-3.5-3.26-5.24-4.9-8.74-8.21Z"/><path d="M200.5,58l3.8-.31-.92,2.46-6.54,18.15c-1.21,4.1-2.45,7-3.71,8.58a6.16,6.16,0,0,1-4.64,2.3l-1.77.11V85.77l1.77-.11a3,3,0,0,0,2.25-1.21c.7-.87,1.56-3,2.56-6.41-2.58-6.65-3.87-10-6.45-16.66l-.92-2.33,3.8-.24c.15.45.23.67.39,1.12,2,5.16,3,7.74,5,12.9l5-13.64C200.27,58.72,200.35,58.49,200.5,58Z"/><path d="M209.65,60.63a10.06,10.06,0,0,1,7.11-4.07,8.31,8.31,0,0,1,6.32,1.93,9.42,9.42,0,0,1,3.4,7.68,11.82,11.82,0,0,1-2.61,7.47,10,10,0,0,1-7.11,4.12,8.21,8.21,0,0,1-6.32-2,9.58,9.58,0,0,1-3.4-7.74A11.69,11.69,0,0,1,209.65,60.63Zm2.21,11.28a5.07,5.07,0,0,0,4.9,2.32,6.14,6.14,0,0,0,3.71-1.78A7.94,7.94,0,0,0,223,66.54a7,7,0,0,0-1.29-4.15,5.07,5.07,0,0,0-4.9-2.3,6.18,6.18,0,0,0-3.71,1.77,7.88,7.88,0,0,0-2.47,5.89A7,7,0,0,0,211.86,71.91Z"/><path d="M230.94,55.13l3.58-.4-.05,1.77,0,11.32a3.77,3.77,0,0,0,.84,2.42,4.45,4.45,0,0,0,4.2,1.55,5.82,5.82,0,0,0,2.73-1.07,4.87,4.87,0,0,0,2.26-4.07V55.3l0-1.73,3.58-.43L248,54.92c0,4.52,0,6.78,0,11.31a8.61,8.61,0,0,1-1.85,5.26,9.45,9.45,0,0,1-6.67,3.83,7.82,7.82,0,0,1-5.53-1.27,6.68,6.68,0,0,1-3-5.84V56.86Z"/><path d="M280.24,49l1.76-.23v3.54l-1.76.23L277,53V70.65l-3.54.46V53.44l-1.14.15-1.77.23V50.28l1.77-.22,1.19-.16a23.58,23.58,0,0,1,.53-3.78q1.46-6.24,6.23-6.86L282,39v3.54l-1.76.23c-1.83.26-2.89,2.48-3.18,6.64Z"/><path d="M287.26,51.51a10.52,10.52,0,0,1,7.11-4.33,8.07,8.07,0,0,1,6.32,1.75,9.19,9.19,0,0,1,3.4,7.6,12.12,12.12,0,0,1-2.61,7.54,10.46,10.46,0,0,1-7.11,4.32,8.05,8.05,0,0,1-6.31-1.75,9.17,9.17,0,0,1-3.41-7.59A12.12,12.12,0,0,1,287.26,51.51Zm2.21,11.2a4.91,4.91,0,0,0,4.9,2.14A6.33,6.33,0,0,0,298.08,63a8.17,8.17,0,0,0,2.48-6,6.88,6.88,0,0,0-1.28-4.12,4.91,4.91,0,0,0-4.91-2.15,6.36,6.36,0,0,0-3.71,1.89,8.17,8.17,0,0,0-2.47,6A6.84,6.84,0,0,0,289.47,62.71Z"/><path d="M318.58,44.12l1.77-.22v3.54l-1.77.21a5.93,5.93,0,0,0-2.65,1c-2,1.33-3,3.5-3,6.51V66l-3.53.44V45.26l3.53-.44v1.85A10.38,10.38,0,0,1,318.58,44.12Z"/><path d="M341,41.53l3.67-.39.4,1.23,3.58,12.45c2.17-5.42,3.26-8.13,5.43-13.53.18-.46.27-.69.44-1.15l2.39-.22c.17.42.26.64.44,1.06,2.17,5,3.26,7.49,5.43,12.5l3.58-13.12.4-1.31,3.66-.3c-.24.92-.37,1.38-.61,2.3l-4.95,18.08-.4,1.31-2.52.22c-.17-.42-.26-.64-.44-1.06-2.31-5.31-3.47-8-5.79-13.25L349.9,60.69l-.44,1.15-2.52.26-.4-1.24-5-17.15C341.35,42.84,341.22,42.4,341,41.53Z"/><path d="M376,41.74a9.65,9.65,0,0,1,7.11-3.88,8.56,8.56,0,0,1,6.19,2.07V37.5l3.53-.17v21.2l-3.53.18V56.28a9.92,9.92,0,0,1-6.19,2.78,8.53,8.53,0,0,1-6.32-2.14,9.75,9.75,0,0,1-3.4-7.79A11.49,11.49,0,0,1,376,41.74Zm2.21,11.33a5.28,5.28,0,0,0,4.9,2.46,5.92,5.92,0,0,0,3.71-1.63,7.59,7.59,0,0,0,2.48-5.79A7.32,7.32,0,0,0,388,43.89a5.3,5.3,0,0,0-4.91-2.5,5.87,5.87,0,0,0-3.71,1.66,7.65,7.65,0,0,0-2.47,5.82A7.19,7.19,0,0,0,378.17,53.07Z"/><path d="M403.7,51.87c0,1.74,1.11,2.6,3.23,2.61l1.76,0V58l-1.76,0a10,10,0,0,1-2.35-.2c-2.94-.59-4.41-2.51-4.41-5.78V40.55l-1.2,0-1.76.07V37.13l1.76-.07,1.2-.05V32.38c0-.69,0-1,0-1.73l3.58-.12-.05,1.77v4.6l3.19-.09,1.76,0V40.3l-1.76,0-3.19.09Z"/><path d="M428.66,53.84a9.14,9.14,0,0,1-7.82,4,8.77,8.77,0,0,1-6.14-2.49,10.4,10.4,0,0,1-3.36-8,11.08,11.08,0,0,1,2.52-7.24,8.66,8.66,0,0,1,7-3.44,9.12,9.12,0,0,1,7.86,3.86l-2.91,2a5.67,5.67,0,0,0-5-2.32,5.08,5.08,0,0,0-3.58,1.42,7.18,7.18,0,0,0-2.38,5.68A7.85,7.85,0,0,0,416,51.45a5.39,5.39,0,0,0,4.81,2.86,6.22,6.22,0,0,0,5-2.54Z"/><path d="M442.71,37.13A8.07,8.07,0,0,1,448,39.44a9.56,9.56,0,0,1,3.14,7.3V57c0,.72,0,1.08,0,1.81l-3.49-.21c0-.71,0-1.07,0-1.77l0-10.34a6.51,6.51,0,0,0-.84-3.23,4.76,4.76,0,0,0-4-2.63,4.14,4.14,0,0,0-2.74.85,5.35,5.35,0,0,0-2.12,4.56V58.14L434.31,58v-29l3.54.11v9.45A7.61,7.61,0,0,1,442.71,37.13Z"/><path d="M457.5,35.37V31.84l1.77.14h.05l1.76.15v3.53l-1.76-.15h-.05Zm0,2.7c1.42.11,2.13.17,3.54.3v21.2c-1.41-.13-2.12-.19-3.54-.3V57.5c0-7.07,0-10.6,0-17.67Z"/><path d="M483.83,62.32c-1.39-.21-2.09-.31-3.49-.5l0-1.78-.05-10.34a7,7,0,0,0-.83-3.3,5.31,5.31,0,0,0-4-3,3.91,3.91,0,0,0-2.73.64,4.91,4.91,0,0,0-2.12,4.39V60.53c-1.42-.16-2.12-.24-3.54-.38V38.94l3.54.39V41a7.22,7.22,0,0,1,4.85-1.09,8.8,8.8,0,0,1,5.26,2.73,10.44,10.44,0,0,1,3.14,7.57v10.3Z"/><path d="M491.69,45.74a7.48,7.48,0,0,1,7.12-2.1A11.19,11.19,0,0,1,505,47.32v-.66L505,45c1.43.3,2.14.46,3.57.78,0,.7,0,1.05,0,1.76l-.05,17.61a9.21,9.21,0,0,1-.44,2.82,9.63,9.63,0,0,1-1.3,2.63,9.84,9.84,0,0,1-2,2.11,7.14,7.14,0,0,1-2.7,1.25,7.58,7.58,0,0,1-3.22,0l-1.77-.34V70.08l1.77.34a4.59,4.59,0,0,0,4.2-1.33A6.35,6.35,0,0,0,505,64.33v-.66a8,8,0,0,1-6.18,1.17,11.22,11.22,0,0,1-6.32-3.72,12.47,12.47,0,0,1-3.4-8.62A9.21,9.21,0,0,1,491.69,45.74Zm2.21,11.87a7.21,7.21,0,0,0,4.91,3.7,4.85,4.85,0,0,0,3.71-.67A5.76,5.76,0,0,0,505,55.5a9.05,9.05,0,0,0-1.28-4.56,7.26,7.26,0,0,0-4.9-3.77,4.78,4.78,0,0,0-3.71.72,5.92,5.92,0,0,0-2.48,5.21A8.77,8.77,0,0,0,493.9,57.61Z"/><path d="M516.48,38.71c1.41.35,2.12.53,3.53.9V63c-1.41-.37-2.12-.55-3.53-.9V38.71Zm0,26.55c1.41.35,2.12.53,3.53.9v3.58l-3.53-.91V65.26Z"/></g></g></svg>