<?xml version="1.0" encoding="utf-8"?>
<!-- Generator: Adobe Illustrator 26.0.2, SVG Export Plug-In . SVG Version: 6.00 Build 0)  -->
<svg version="1.1" id="레이어_1" xmlns="http://www.w3.org/2000/svg" xmlns:xlink="http://www.w3.org/1999/xlink" x="0px"
	 y="0px" viewBox="0 0 842.4 55.2" style="enable-background:new 0 0 842.4 55.2;" xml:space="preserve">
<style type="text/css">
	.st0{fill:#FFFFFF;}
</style>
<g id="레이어_2_00000163031779387390357610000012062724916344860818_">
	<g id="레이어_1-2">
		<polygon class="st0" points="7.7,18.7 -0.2,1 1.1,1 8.3,17.1 15.4,1 16.8,1 8.9,18.7 		"/>
		<path class="st0" d="M16.6,1.2L8.8,18.6h-1L0,1.2h1l7.3,16.3l7.3-16.3L16.6,1.2z"/>
		<path class="st0" d="M19.2,18.7V6.1h1.2v12.6H19.2z M19.8,2.5c-0.5,0-0.9-0.4-0.9-0.9s0.4-0.9,0.9-0.9s0.9,0.4,0.9,0.9
			S20.3,2.5,19.8,2.5z"/>
		<path class="st0" d="M20.5,1.5c0,0.4-0.3,0.8-0.8,0.8S19,2,19,1.5s0.3-0.8,0.8-0.8S20.5,1.1,20.5,1.5z M20.2,18.5h-0.9V6.2h0.9
			V18.5z"/>
		<path class="st0" d="M29,19c-3.6,0-5.3-1.8-5.5-3.5l0-0.2h1.2l0,0.1c0.1,1.2,1.5,2.4,4.4,2.4c2.5,0,4.3-1.1,4.3-2.5
			c0-1.2-0.7-2-4.6-2.5c-3.5-0.4-5.1-1.6-5.1-3.6c0-2,2.1-3.4,5.1-3.4c2.9,0,5.3,1.5,5.4,3.4l0,0.1H33l0-0.1
			c-0.1-1.3-1.9-2.2-4.2-2.2c-2.3,0-3.9,0.9-3.9,2.2c0,1.3,0.7,2.2,4.4,2.6c3.6,0.4,5.2,1.5,5.2,3.5C34.5,17.5,32.3,19,29,19z"/>
		<path class="st0" d="M34.1,9.1h-0.9c-0.1-1.3-1.9-2.4-4.3-2.4s-4.1,1-4.1,2.4s0.8,2.3,4.5,2.8s5.1,1.6,5.1,3.4
			c0,2.2-2.4,3.6-5.4,3.6c-3.4,0-5.2-1.6-5.4-3.4h1c0.1,1.2,1.4,2.5,4.5,2.5c2.5,0,4.4-1.1,4.4-2.7c0-1.4-1-2.2-4.7-2.6
			s-4.9-1.7-4.9-3.5c0-2,2.1-3.3,5-3.3S34,7.4,34.1,9.1z"/>
		<path class="st0" d="M42.1,19c-2.9,0-5-2.3-5-5.5V6.1h1.2v7.3c0,2.9,1.4,4.5,3.9,4.5c2.7,0,4.7-2.8,4.7-5.2V6.1h1.2v12.6h-1.2
			v-2.6c-0.9,1.7-2.8,2.9-4.8,2.9L42.1,19z"/>
		<path class="st0" d="M37.3,13.5V6.2h0.9v7.1c0,3,1.6,4.6,4.1,4.6c2.7,0,4.9-2.8,4.9-5.4V6.2h0.9v12.3h-0.9v-3.1
			c-0.8,2.1-2.8,3.4-5.1,3.4C39.3,18.9,37.3,16.8,37.3,13.5z"/>
		<path class="st0" d="M57.5,19c-3.5,0-6.1-2.8-6.1-6.6c0-3.8,2.6-6.6,6.1-6.6l0.2,0c2,0,3.9,1.1,4.9,2.8V6.1h1.2v12.6h-1.2v-2.6
			c-1,1.7-2.9,2.8-4.9,2.8C57.7,19,57.5,19,57.5,19z M57.6,6.9c-2.9,0-5,2.2-5,5.5s2,5.5,5,5.5c1.4,0,2.7-0.5,3.6-1.5
			s1.5-2.3,1.5-3.6c0-0.1,0-0.2,0-0.3c0.1-1.4-0.4-2.7-1.3-3.7c-0.9-1-2.2-1.6-3.5-1.7C57.8,6.9,57.7,6.9,57.6,6.9z"/>
		<path class="st0" d="M51.5,12.4c0-3.6,2.5-6.5,6-6.5c2.3-0.1,4.4,1.2,5.3,3.3V6.2h0.9v12.3h-0.9v-3c-0.9,2.1-3,3.3-5.3,3.3
			C54,18.9,51.5,16.1,51.5,12.4z M62.8,12.4c0.2-2.9-2-5.4-5-5.6c-0.1,0-0.2,0-0.3,0c-3.1,0-5.1,2.4-5.1,5.6s2,5.6,5.1,5.6
			c2.9,0,5.3-2.4,5.3-5.3C62.8,12.6,62.8,12.5,62.8,12.4z"/>
		<rect x="67.6" y="0.5" class="st0" width="1.2" height="18.2"/>
		<path class="st0" d="M68.7,18.6h-0.9V0.7h0.9V18.6z"/>
		<path class="st0" d="M85.1,19.1c-3.9,0-6.8-2.2-7.1-5.3l0-0.2h1.3l0,0.1c0.2,2.5,2.5,4.2,5.9,4.2c3.4,0,5.6-1.5,5.6-3.6
			c0-2-1.6-3.1-6.1-4.1c-3.8-0.9-6.1-2.1-6.1-5c0-2.7,2.7-4.5,6.5-4.5c3.8,0,6.6,2,6.9,5l0,0.2h-1.2l0-0.1c-0.2-1.9-2-3.9-5.6-3.9
			c-3.2,0-5.3,1.3-5.3,3.3c0,1.9,1.5,3,5.6,3.9c4.7,1,6.6,2.5,6.6,5.1C92.1,17.1,89.2,19.1,85.1,19.1z"/>
		<path class="st0" d="M91.9,5.6h-0.9c-0.2-2.1-2.4-4-5.8-4s-5.5,1.5-5.5,3.5c0,2.2,1.8,3.2,5.8,4.1c4.5,1,6.5,2.4,6.5,5
			c0,2.9-3,4.8-6.8,4.8s-6.7-2.1-6.9-5.2h1c0.2,2.5,2.5,4.3,6,4.3s5.8-1.5,5.8-3.8S89.1,11,84.8,10c-4-1-6-2.2-6-4.8
			s2.6-4.4,6.4-4.4S91.7,2.8,91.9,5.6z"/>
		<polygon class="st0" points="96.7,18.7 96.7,7.3 93.7,7.3 93.7,6.1 96.7,6.1 96.7,2.3 97.9,2.3 97.9,6.1 100.9,6.1 100.9,7.3 
			97.9,7.3 97.9,18.7 		"/>
		<path class="st0" d="M100.8,7.1h-3v11.5h-0.9V7.1h-3V6.2h3V2.4h0.9v3.8h3V7.1z"/>
		<path class="st0" d="M108,19c-3,0-5-2.2-5-5.5V6.1h1.2v7.3c0,2.9,1.4,4.5,3.9,4.5c2.7,0,4.7-2.8,4.7-5.2V6.1h1.2v12.6h-1.3v-2.6
			C111.9,17.9,110.1,19,108,19L108,19z"/>
		<path class="st0" d="M103.2,13.5V6.2h0.9v7.1c0,3,1.6,4.6,4.1,4.6c2.7,0,4.9-2.8,4.9-5.4V6.2h1v12.3h-1v-3.1
			c-0.8,2.1-2.8,3.4-5,3.4C105.2,18.9,103.2,16.8,103.2,13.5z"/>
		<path class="st0" d="M122.8,19c-3.5,0-6.1-2.8-6.1-6.6c0-3.8,2.6-6.6,6.1-6.6l0.2,0c2,0,3.9,1.1,4.9,2.8V0.5h1.2v18.2h-1.2v-2.6
			c-1,1.7-2.9,2.8-4.9,2.8L122.8,19z M122.8,6.9c-2.9,0-5,2.3-5,5.5c0,3.2,2.1,5.5,5,5.5c2.8,0,5.1-2.3,5.1-5.2c0-0.1,0-0.2,0-0.3
			c0.2-2.9-2-5.3-4.8-5.5C123,6.9,122.9,6.9,122.8,6.9z"/>
		<path class="st0" d="M116.8,12.4c0-3.6,2.5-6.5,6-6.5c2.3-0.1,4.4,1.2,5.3,3.3V0.7h0.9v17.9h-0.9v-3c-0.9,2.1-3,3.4-5.3,3.3
			C119.3,18.9,116.8,16.1,116.8,12.4z M128.1,12.4c0.2-2.9-2-5.4-5-5.6c-0.1,0-0.2,0-0.3,0c-3.1,0-5.1,2.4-5.1,5.6s2,5.6,5.1,5.6
			c2.9,0,5.3-2.4,5.3-5.3C128.1,12.6,128.1,12.5,128.1,12.4z"/>
		<path class="st0" d="M133.5,18.7V6.1h1.2v12.6H133.5z M134.1,2.4c-0.5,0-0.9-0.4-0.9-0.9c0-0.5,0.4-0.9,0.9-0.9
			c0.5,0,0.9,0.4,0.9,0.9C135,2,134.6,2.4,134.1,2.4L134.1,2.4z"/>
		<path class="st0" d="M134.8,1.5c0,0.4-0.3,0.8-0.8,0.8c-0.4,0-0.8-0.3-0.8-0.8c0-0.4,0.3-0.8,0.8-0.8
			C134.5,0.8,134.8,1.1,134.8,1.5z M134.5,18.5h-0.9V6.2h0.9V18.5z"/>
		<path class="st0" d="M144,18.9c-3.4,0-6.1-2.6-6.3-6c0-0.2,0-0.3,0-0.5c-0.1-1.7,0.5-3.3,1.7-4.5c1.1-1.2,2.7-1.9,4.4-2
			c0.1,0,0.2,0,0.3,0c3.4,0,6.1,2.6,6.3,6c0,0.2,0,0.3,0,0.5c0.1,1.7-0.5,3.3-1.7,4.5c-1.1,1.2-2.7,1.9-4.4,2
			C144.2,18.9,144.1,18.9,144,18.9z M144,6.9c-3,0-5,2.2-5,5.5c0,3.2,2.1,5.4,5,5.4c2.9,0,5.1-2.4,5.1-5.5
			C149.1,9.2,147,6.9,144,6.9z"/>
		<path class="st0" d="M150.1,12.4c0.1,3.4-2.5,6.2-5.9,6.4c-3.4,0.1-6.2-2.5-6.4-5.9c0-0.2,0-0.3,0-0.5c-0.1-3.4,2.5-6.2,5.9-6.4
			c3.4-0.1,6.2,2.5,6.4,5.9C150.2,12.1,150.2,12.2,150.1,12.4z M138.8,12.4c0,3.2,2.2,5.6,5.2,5.6s5.2-2.4,5.2-5.6s-2.1-5.6-5.2-5.6
			S138.8,9.2,138.8,12.4z"/>
		<path class="st0" d="M165.2,19c-3.5,0-6.3-2.8-6.3-6.3c0-0.1,0-0.2,0-0.3c-0.2-3.4,2.5-6.4,5.9-6.6c0.1,0,0.2,0,0.3,0
			c2.7,0,5,1.8,5.7,4.3l0,0.2h-1.3l0-0.1c-0.6-2-2.4-3.3-4.4-3.3c-3,0-5.1,2.3-5.1,5.5c0,3.2,2.2,5.4,5.1,5.4c0,0,0,0,0,0
			c2.1,0,3.9-1.4,4.5-3.3l0-0.1h1.2l0,0.2C170.2,17.2,167.9,19,165.2,19v-0.1V19z"/>
		<path class="st0" d="M165.2,18.9c-3.4,0-6.2-2.7-6.2-6.1c0-0.1,0-0.2,0-0.3c-0.2-3.4,2.4-6.3,5.8-6.5c0.1,0,0.2,0,0.3,0
			c2.6,0,4.9,1.7,5.6,4.2h-1c-0.6-2-2.5-3.4-4.6-3.4c-3.1,0-5.2,2.4-5.2,5.6s2.2,5.6,5.3,5.6c2.1,0,4-1.4,4.6-3.4h0.9
			C170.1,17.1,167.8,18.9,165.2,18.9z"/>
		<path class="st0" d="M179.5,18.9c-3.4,0-6.1-2.6-6.3-6c0-0.2,0-0.3,0-0.5c-0.1-1.7,0.5-3.3,1.7-4.5c1.1-1.2,2.7-1.9,4.3-2
			c0.1,0,0.2,0,0.3,0c3.4,0,6.1,2.6,6.3,6c0,0.2,0,0.3,0,0.5c0.1,1.7-0.5,3.3-1.7,4.5c-1.1,1.2-2.7,1.9-4.4,2
			C179.6,18.9,179.6,18.9,179.5,18.9z M179.5,6.9c-2.9,0-5.1,2.3-5.1,5.5c0,3.2,2.1,5.5,5.1,5.5c2.9,0,5-2.3,5-5.5
			C184.5,9.2,182.4,6.9,179.5,6.9z"/>
		<path class="st0" d="M185.6,12.4c0.1,3.4-2.5,6.2-5.9,6.4c-3.4,0.1-6.2-2.5-6.4-5.9c0-0.2,0-0.3,0-0.5c-0.1-3.4,2.5-6.2,5.9-6.4
			c3.4-0.1,6.2,2.5,6.4,5.9C185.6,12.1,185.6,12.2,185.6,12.4z M174.3,12.4c0,3.2,2.1,5.6,5.2,5.6s5.2-2.4,5.2-5.6s-2.1-5.6-5.2-5.6
			S174.3,9.2,174.3,12.4z"/>
		<path class="st0" d="M193.8,19c-3.5,0-6.1-2.8-6.1-6.6c0-3.8,2.6-6.6,6.1-6.6l0.2,0c2,0,3.9,1.1,4.9,2.8V0.5h1.2v18.2h-1.2v-2.6
			c-1,1.7-2.9,2.8-4.9,2.8C194,19,193.8,19,193.8,19z M193.8,6.9c-2.9,0-5,2.3-5,5.5c0,3.2,2.1,5.4,5,5.4c1.4,0,2.7-0.5,3.6-1.5
			c1-1,1.5-2.3,1.5-3.6c0-0.1,0-0.2,0-0.3c0.1-1.4-0.4-2.7-1.3-3.7c-0.9-1-2.2-1.6-3.5-1.7C194,6.9,193.9,6.9,193.8,6.9z"/>
		<path class="st0" d="M187.8,12.4c0-3.6,2.5-6.5,6-6.5c2.3-0.1,4.4,1.2,5.3,3.3V0.7h0.9v17.9h-0.9v-3c-0.9,2.1-3,3.4-5.3,3.3
			C190.3,18.9,187.8,16.1,187.8,12.4z M199.1,12.4c0.2-2.9-2-5.4-5-5.6c-0.1,0-0.2,0-0.3,0c-3.1,0-5.1,2.4-5.1,5.6s2.1,5.6,5.1,5.6
			c2.9,0,5.3-2.4,5.3-5.3C199.1,12.6,199.1,12.5,199.1,12.4z"/>
		<path class="st0" d="M210.2,19c-0.1,0-0.2,0-0.3,0c-3.5,0-6.1-2.8-6.1-6.6c0-3.8,2.6-6.6,6.1-6.6s6.1,2.8,6.1,6.6
			c0,0.1,0,0.3,0,0.4l0,0.1h-11c0.2,2.9,2.2,4.9,4.8,4.9c0.1,0,0.2,0,0.3,0c1.7,0,3.2-1,3.9-2.5l0-0.1h1.3l-0.1,0.2
			C214.6,17.7,212.5,19,210.2,19z M209.9,6.9c-2.7,0-4.7,2.1-4.9,4.9l9.8,0C214.5,8.9,212.6,6.9,209.9,6.9z"/>
		<path class="st0" d="M203.9,12.4c0-3.7,2.5-6.5,6-6.5s6,2.8,6,6.5c0,0.1,0,0.3,0,0.4h-11c0.2,3,2.2,5.2,5,5.2
			c1.9,0.1,3.6-0.9,4.4-2.6h1c-0.9,2.2-3.1,3.5-5.4,3.4C206.4,18.9,203.9,16.1,203.9,12.4z M214.9,12c-0.2-3-2.2-5.2-5-5.2
			S205,9,204.9,12L214.9,12z"/>
		<path class="st0" d="M219.8,18.9v-4h14.8v-1.7h-14.8v-1.1h16V16H221v1.8h15.2v1.1H219.8z M218.3,10.4V9.3h18.9v1.1H218.3z
			 M219.9,7.6V3.5h14.6V1.8h-14.6V0.6h15.8l0.1,4h-14.7v1.8H236v1.1H219.9z"/>
		<path class="st0" d="M237.1,10.3h-18.6V9.4H237L237.1,10.3z M235.6,15.9h-14.8v2.1H236v0.8h-16.1v-3.7h14.8v-2h-14.8v-0.8h15.7
			L235.6,15.9z M235.6,4.5h-14.7v2.1h14.9v0.8H220V3.7h14.6V1.6H220V0.8h15.5L235.6,4.5z"/>
		<path class="st0" d="M261.8,19.3V0.2h1.2v19.1H261.8z M252.3,18.3c-3.5,0-5.6-3.3-5.6-8.7c0-5.4,2.1-8.7,5.6-8.7s5.6,3.2,5.6,8.7
			C258,15,255.9,18.3,252.3,18.3z M252.3,2c-2.7,0-4.4,2.9-4.4,7.6s1.7,7.6,4.4,7.6c2.7,0,4.4-2.9,4.4-7.6S255,2,252.3,2z"/>
		<path class="st0" d="M257.8,9.5c0,5.8-2.3,8.6-5.5,8.6s-5.5-2.8-5.5-8.6s2.3-8.6,5.5-8.6S257.8,3.8,257.8,9.5z M247.8,9.5
			c0,5.2,2,7.7,4.6,7.7s4.5-2.5,4.5-7.7s-2-7.7-4.6-7.7S247.8,4.3,247.8,9.5L247.8,9.5z M262.9,19.2h-1V0.4h1V19.2z"/>
		<path class="st0" d="M276.2,19.2c-3,0-8.1-0.4-8.1-3.4c0-2.9,5.1-3.3,8.1-3.3s8.1,0.4,8.1,3.3C284.4,18.8,279.3,19.2,276.2,19.2z
			 M276.2,13.7c-4.3,0-6.9,0.8-6.9,2.2c0,1.6,3.5,2.2,6.9,2.2c3.3,0,6.7-0.6,6.9-2.1l0-0.1C283.1,14.5,280.5,13.7,276.2,13.7z
			 M266.9,10.7V9.5h4.6V6.9c-2.2-0.6-3.4-1.6-3.4-3c0-2.2,3.1-3.6,8.2-3.6c5.1,0,8.2,1.3,8.2,3.6c0,1.4-1.2,2.5-3.4,3v2.6h4.6v1.1
			H266.9z M279.9,9.5V7.2c-1.1,0.2-2.2,0.3-3.4,0.3h-0.4c-1.1,0-2.3-0.1-3.4-0.3l0,2.4H279.9z M276.2,1.4c-3.2,0-7,0.6-7,2.4
			c0,1.8,3.8,2.4,7,2.4c3.2,0,7-0.6,7-2.4C283.2,2.1,279.5,1.4,276.2,1.4z"/>
		<path class="st0" d="M285.5,9.7v0.9H267V9.7h4.6V6.8c-2-0.5-3.4-1.5-3.4-2.9c0-2.4,3.8-3.4,8-3.4s8.1,1,8.1,3.4
			c0,1.5-1.4,2.4-3.4,2.9v2.9H285.5z M284.2,15.8c0,2.5-4,3.2-8,3.2s-8-0.7-8-3.2s4-3.2,8-3.2S284.2,13.4,284.2,15.8L284.2,15.8z
			 M276.2,6.4c3.7,0,7.1-0.8,7.1-2.6s-3.5-2.6-7.1-2.6s-7.1,0.8-7.1,2.6S272.6,6.4,276.2,6.4L276.2,6.4z M283.2,15.8
			c0-1.8-3.7-2.3-7-2.3s-7,0.5-7,2.3s3.7,2.4,7,2.4S283.3,17.6,283.2,15.8L283.2,15.8z M272.5,9.7h7.5V7c-1.2,0.2-2.5,0.3-3.7,0.3
			c-1.2,0-2.5-0.1-3.7-0.3L272.5,9.7z"/>
		<path class="st0" d="M304.6,19.3V9.5h-3.9V19h-1.2V0.4h1.2v8h3.9V0.2l1.2,0v19.1H304.6z M292.8,18.2c-2.6,0-4.3-2.3-4.3-5.8
			c0-3.5,1.7-5.8,4.3-5.8c2.6,0,4.3,2.3,4.3,5.8C297.1,15.9,295.4,18.2,292.8,18.2z M292.8,7.7c-1.9,0-3.1,1.8-3.1,4.7
			c0,2.8,1.2,4.7,3.1,4.7c1.9,0,3.1-1.8,3.1-4.5l0-0.1C295.9,9.5,294.7,7.7,292.8,7.7z M287.6,4.8V3.7h4.5V0.2h1.2l0,3.5h4.6v1.1
			H287.6z"/>
		<path class="st0" d="M293.2,3.8h4.6v0.8h-10V3.8h4.5V0.3h0.9L293.2,3.8z M297,12.4c0,3.6-1.7,5.7-4.2,5.7s-4.2-2.1-4.2-5.7
			s1.7-5.7,4.2-5.7S297,8.8,297,12.4z M296.1,12.4c0-3.1-1.4-4.8-3.2-4.8s-3.2,1.8-3.2,4.8s1.4,4.8,3.2,4.8S296.1,15.4,296.1,12.4
			L296.1,12.4z M305.7,0.4v18.8h-0.9V9.3h-4.2v9.5h-0.9V0.5h0.9v8h4.2V0.4L305.7,0.4z"/>
		<polygon class="st0" points="329.4,18.7 329.4,10.3 317.4,10.3 317.4,18.7 316.1,18.7 316.1,1 317.4,1 317.4,9.1 329.4,9.1 
			329.4,1 330.6,1 330.6,18.7 		"/>
		<path class="st0" d="M330.5,1.2v17.4h-1v-8.4h-12.3v8.4h-1V1.2h1v8.1h12.3V1.2H330.5z"/>
		<polygon class="st0" points="340.2,18.7 340.2,2.2 333.5,2.2 333.5,1 348.1,1 348.1,2.2 341.4,2.2 341.4,18.7 		"/>
		<path class="st0" d="M348,2.1h-6.7v16.5h-1V2.1h-6.7V1.2H348V2.1z"/>
		<polygon class="st0" points="366.9,18.7 366.9,3.4 360.2,15.7 358.9,15.7 352.3,3.4 352.3,18.7 351.1,18.7 351.1,1 352.4,1 
			359.6,14.4 366.8,1 368.1,1 368.1,18.7 		"/>
		<path class="st0" d="M351.2,1.2h1.1l7.3,13.5l7.3-13.5h1.1v17.4h-1V2.9l-6.9,12.7H359l-6.9-12.7v15.7h-0.9L351.2,1.2z"/>
		<polygon class="st0" points="372.1,18.7 372.1,1 373.3,1 373.3,17.5 383.6,17.5 383.6,18.7 		"/>
		<path class="st0" d="M373.2,1.2v16.5h10.3v0.9h-11.2V1.2H373.2z"/>
		<path class="st0" d="M391.7,19c-3.8,0-6.2-1.7-6.2-4.3c0-2.6,2.6-4,4.7-5l0,0c-1.5-1.5-2.7-2.8-2.7-4.6c0-2.6,2.1-4.4,5.1-4.4
			c2.9,0,4.9,1.7,4.9,4c0,2.7-2.4,3.9-4.9,5.2c-0.1,0.1-0.3,0.1-0.4,0.2l5.1,5.1c0.9-1.2,1.5-2.7,1.7-4.3l0-0.1h1.2l0,0.2
			c-0.2,1.9-0.8,3.6-2,5.1l2.8,2.8l-1.7,0l-1.9-1.9C396,18.2,393.9,19,391.7,19L391.7,19z M391.2,10.6c-2.6,1.3-4.4,2.4-4.4,4.1
			c0,2,2,3.2,5,3.2c0,0,0,0,0,0c1.8,0,3.6-0.7,4.8-2L391.2,10.6z M392.7,1.9c-2.2,0-3.9,1.3-3.9,3.1c0,1.4,0.8,2.4,2.3,3.9l0.3,0.3
			l0.2-0.1c2.6-1.3,4.7-2.3,4.7-4.3C396.4,3,394.9,1.9,392.7,1.9z"/>
		<path class="st0" d="M399.5,18.6l-2-2c-1.5,1.5-3.6,2.4-5.7,2.3c-3.7,0-6.1-1.7-6.1-4.2s2.4-3.8,4.8-5l-0.1-0.1
			c-1.4-1.4-2.6-2.8-2.6-4.5c0-2.5,2.1-4.3,5-4.3s4.8,1.7,4.8,3.8c0,2.6-2.2,3.8-4.8,5.1c-0.2,0.1-0.4,0.2-0.6,0.3l5.4,5.3
			c1-1.3,1.6-2.9,1.8-4.5h0.9c-0.2,1.9-0.8,3.7-2,5.1l2.7,2.6L399.5,18.6z M396.8,16l-5.6-5.6c-2.8,1.4-4.6,2.5-4.6,4.3
			c0,2,2,3.4,5.2,3.4C393.7,18.1,395.5,17.4,396.8,16z M391.4,9.4c0.1,0,0.1-0.1,0.2-0.1c2.8-1.4,5-2.4,5-4.5c0-1.8-1.6-3-3.8-3
			s-4,1.4-4,3.3c0,1.4,0.8,2.5,2.3,4L391.4,9.4z"/>
		<path class="st0" d="M411.8,19.1c-4.8,0-8.8-3.9-8.9-8.7c0-0.2,0-0.4,0-0.5c-0.1-2.4,0.7-4.6,2.3-6.4c1.6-1.7,3.8-2.8,6.2-2.8
			c0.1,0,0.2,0,0.4,0l0.2,0c0.1,0,0.3,0,0.4,0c3.7,0,7.1,2.5,8.1,6.1l0.1,0.2h-1.3l0-0.1c-0.9-3-3.7-5-6.8-5c-0.1,0-0.3,0-0.4,0
			l-0.2,0c-4.2,0-7.5,3.3-7.7,7.5c0,0.2,0,0.4,0,0.6c-0.1,2.1,0.6,4,2,5.6c1.4,1.5,3.3,2.4,5.3,2.5c0.1,0,0.2,0,0.3,0l0.2,0
			c3.7,0,6.5-2,7.4-5.2l0-0.1h1.3l0,0.2c-1,3.9-4.3,6.3-8.6,6.3L411.8,19.1z"/>
		<path class="st0" d="M403.1,9.9c-0.2-4.8,3.5-8.9,8.4-9.1c0.2,0,0.4,0,0.5,0c3.8-0.2,7.3,2.3,8.4,6h-1c-1-3.2-4-5.3-7.4-5.1
			c-4.3-0.1-7.9,3.3-8,7.6c0,0.2,0,0.4,0,0.6c-0.2,4.3,3.2,8,7.5,8.2c0.2,0,0.3,0,0.5,0c3.9,0,6.6-2.1,7.5-5.3h1
			c-0.9,3.7-4.1,6.2-8.5,6.2c-4.8,0.1-8.8-3.7-8.9-8.5C403.1,10.2,403.1,10.1,403.1,9.9z"/>
		<path class="st0" d="M430.2,19.1c-3.9,0-6.8-2.2-7.1-5.3l0-0.2h1.2l0,0.1c0.2,2.5,2.6,4.2,5.9,4.2c3.4,0,5.6-1.5,5.6-3.6
			c0-2-1.6-3.1-6.1-4.1c-3.8-0.9-6.1-2.1-6.1-5c0-2.7,2.7-4.5,6.5-4.5c3.8,0,6.6,2,6.9,4.9l0,0.2h-1.2l0-0.1c-0.2-1.9-2-3.9-5.6-3.9
			c-3.2,0-5.3,1.3-5.3,3.3c0,1.9,1.5,3,5.6,3.9c4.7,1,6.6,2.5,6.6,5.1C437.2,17.1,434.3,19.1,430.2,19.1z"/>
		<path class="st0" d="M436.9,5.6H436c-0.2-2.1-2.4-4-5.8-4s-5.5,1.5-5.5,3.5c0,2.2,1.8,3.2,5.7,4.1c4.5,1,6.5,2.4,6.5,5
			c0,2.9-3,4.8-6.8,4.8s-6.6-2.1-6.9-5.2h1c0.2,2.5,2.5,4.3,6,4.3s5.8-1.5,5.8-3.8s-1.9-3.3-6.2-4.3c-4-1-6-2.2-6-4.8
			s2.6-4.4,6.4-4.4S436.7,2.8,436.9,5.6z"/>
		<path class="st0" d="M446.4,19.1c-3.9,0-6.8-2.2-7-5.3l0-0.2h1.2l0,0.1c0.2,2.5,2.6,4.2,5.9,4.2c3.4,0,5.7-1.5,5.7-3.6
			c0-2-1.6-3.1-6.1-4.2c-3.8-0.9-6.1-2.1-6.1-5c0-2.7,2.7-4.5,6.5-4.5c3.8,0,6.6,2,6.9,5l0,0.2h-1.3l0-0.1c-0.2-1.9-2-3.9-5.6-3.9
			c-3.2,0-5.3,1.4-5.3,3.4c0,1.9,1.5,3,5.6,3.9c4.7,1,6.6,2.5,6.6,5.1C453.4,17.1,450.5,19.1,446.4,19.1z"/>
		<path class="st0" d="M453.2,5.6h-1c-0.2-2.1-2.4-4-5.8-4S441,3.1,441,5.1c0,2.2,1.8,3.2,5.7,4.1c4.5,1,6.5,2.4,6.5,5
			c0,2.9-3,4.8-6.8,4.8s-6.6-2.1-6.9-5.2h0.9c0.2,2.5,2.5,4.3,6,4.3s5.9-1.6,5.9-3.8s-1.9-3.3-6.2-4.3c-4-1-6-2.2-6-4.8
			s2.6-4.4,6.4-4.4S453,2.8,453.2,5.6z"/>
		<path class="st0" d="M472.4,19.3V0.2h1.2v19.1H472.4z M467.9,19V9.8h-3.1c0,5.6-1.5,8.5-4.3,8.5c-2.9,0-4.3-2.9-4.3-8.7
			c0-5.8,1.5-8.7,4.4-8.7c2.8,0,4.2,2.5,4.3,7.8h3.2V0.4h1.2V19H467.9z M460.5,2c-2.1,0-3.1,2.5-3.1,7.6s1,7.6,3.1,7.6
			s3.1-2.5,3.1-7.5C463.6,4.4,462.6,2,460.5,2z"/>
		<path class="st0" d="M468.1,0.5h0.9v18.3h-0.9V9.6h-3.4c0,5.7-1.5,8.5-4.2,8.5s-4.2-2.8-4.2-8.6s1.5-8.6,4.2-8.6s4,2.5,4.2,7.8
			h3.4V0.5z M463.8,9.5c0-5.2-1.1-7.7-3.3-7.7s-3.3,2.5-3.3,7.7s1.1,7.7,3.3,7.7S463.8,14.8,463.8,9.5L463.8,9.5z M473.4,0.4v18.8
			h-0.9V0.4H473.4z"/>
		<path class="st0" d="M499.2,19.3V0.2h1.2v19.1H499.2z M484.1,17.9v-1.2h0.1c5.5,0,9-4.4,9-11.3V2.3h-9.2V1.1h10.4v4.2
			c0,7.6-4,12.6-10.2,12.6H484.1z"/>
		<path class="st0" d="M494.3,5.3c0,7.5-3.8,12.4-10.1,12.4v-0.9c5.6,0,9.2-4.4,9.2-11.5V2.1h-9.2V1.2h10.1V5.3z M500.2,19.2h-0.9
			V0.4h0.9V19.2z"/>
		<path class="st0" d="M505.7,18.9V13h1.2l0,4.8h14.8v1.1H505.7z M519.9,14.5V0.2h1.2v5.1h3v1.1h-3v8H519.9z M505.1,11.2V0.7h1.2v4
			h8.4v-4h1.2v10.5H505.1z M514.8,10V5.8h-8.4V10H514.8z"/>
		<path class="st0" d="M515.8,11h-10.6V0.8h0.9v4h8.7v-4h0.9V11z M506.8,17.9h14.8v0.9h-15.8v-5.6h0.9L506.8,17.9z M514.9,10.2V5.7
			h-8.7v4.5H514.9z M523.9,5.5v0.9h-3v8H520v-14h0.9v5.1L523.9,5.5z"/>
		<path class="st0" d="M526.9,18.9V14h1.2v3.8h14.8v1.1H526.9z M540.9,14.6V0.2h1.2V6h3v1.1h-3v7.5H540.9z M531.9,12.7
			c-3.3,0-5.5-1.6-5.5-4s2.2-4,5.5-4s5.5,1.6,5.5,4S535.2,12.7,531.9,12.7z M531.9,5.9c-2.6,0-4.3,1.1-4.3,2.9s1.7,2.9,4.3,2.9
			c2.6,0,4.3-1.1,4.3-2.9S534.5,5.9,531.9,5.9z M525.4,3.6V2.4h5.9v-2.6h1.2v2.6h5.9v1.1H525.4z"/>
		<path class="st0" d="M538.2,3.4h-12.7V2.6h5.9V0h0.9v2.6h5.9V3.4z M526.5,8.8c0-2.4,2.3-3.8,5.4-3.8s5.4,1.4,5.4,3.8
			s-2.3,3.8-5.4,3.8S526.5,11.1,526.5,8.8z M527.9,17.9h14.8v0.9H527v-4.6h0.9V17.9z M527.4,8.8c0,1.8,1.7,3,4.5,3s4.5-1.2,4.5-3
			s-1.7-3-4.5-3S527.4,7,527.4,8.8z M545,6.2V7h-3v7.5h-0.9V0.4h0.9v5.8H545z"/>
		<path class="st0" d="M569.3,19.3V9.5h-4.2V19h-1.2V0.4h1.2v8h4.2V0.2h1.2v19.1H569.3z M553.3,17.9v-1.2h0.1
			c3.9,0,6.4-4.3,6.4-10.8V2.3h-6.6V1.1h7.8v4.7c0,7.2-3.1,12.1-7.7,12.1H553.3z"/>
		<path class="st0" d="M553.4,1.2h7.5v4.6c0,6.7-2.8,11.9-7.5,11.9v-0.9c4,0,6.6-4.7,6.6-10.9V2.1h-6.6V1.2z M570.4,0.4v18.8h-0.9
			V9.3H565v9.5h-0.9V0.5h0.9v8h4.5V0.4H570.4z"/>
		<path class="st0" d="M575.9,18.8v-6h1.2l0,4.9h14.8v1.1H575.9z M590,14.5V0.2h1.2v14.3H590z M580.2,11.5c-3.5,0-5.9-2.2-5.9-5.5
			c0-3.3,2.4-5.4,5.9-5.4c3.5,0,5.9,2.2,5.9,5.4C586.1,9.3,583.7,11.5,580.2,11.5z M580.2,1.6c-2.8,0-4.7,1.8-4.7,4.4
			c0,2.7,1.8,4.4,4.7,4.4c2.9,0,4.7-1.7,4.7-4.4S583,1.6,580.2,1.6z"/>
		<path class="st0" d="M585.9,6c0,3-2.1,5.3-5.8,5.3S574.4,9,574.4,6s2.1-5.3,5.8-5.3S585.9,3.1,585.9,6z M575.3,6
			c0,2.7,1.9,4.5,4.8,4.5S585,8.7,585,6s-1.9-4.5-4.8-4.5S575.3,3.3,575.3,6z M576.9,17.8h14.8v0.9H576v-5.8h0.9L576.9,17.8z
			 M591,14.3h-0.9v-14h0.9V14.3z"/>
		<path class="st0" d="M603.2,18.9V12h1.2v2.3h13.4V12h1.2v6.8H603.2z M617.8,17.7v-2.3h-13.4v2.3H617.8z M605.5,12.8v-2.6h-4.3V9
			h3.9c3.6,0,5.9-0.2,7.1-0.8l0.2-0.1v1.2l-0.1,0c-1.7,0.5-3.5,0.8-5.3,0.8c-0.1,0-0.2,0-0.4,0v2.7H605.5z M617.9,11.6V0.2h1.2
			L619,11.6H617.9z M613.9,11.5V4.6h-2.7V3.5h2.7V0.4h1.3v11.1H613.9z M606.1,7.5c-2.6,0-4.3-1.3-4.3-3.4l0-0.1
			c0-2.1,1.7-3.5,4.4-3.5c2.7,0,4.4,1.4,4.4,3.5C610.5,6.1,608.8,7.5,606.1,7.5z M602.9,4.1c0.1,1.4,1.3,2.3,3.2,2.3
			c1.9,0,3.2-0.9,3.2-2.4c0-1.5-1.2-2.4-3.2-2.4c-1.9,0-3.2,0.9-3.2,2.4L602.9,4.1L602.9,4.1z"/>
		<path class="st0" d="M605,10h-3.7V9.1h3.8c3.3,0,5.8-0.2,7.2-0.8v0.8c-1.9,0.6-3.8,0.8-5.7,0.8v2.7h-0.9V10H605z M601.9,4
			c0-1.9,1.5-3.4,4.2-3.4s4.2,1.5,4.2,3.4s-1.5,3.4-4.2,3.4S601.9,5.9,601.9,4L601.9,4z M602.8,4c0,1.4,1.2,2.6,3.3,2.6
			s3.3-1.1,3.3-2.6s-1.2-2.5-3.3-2.5S602.8,2.6,602.8,4L602.8,4z M618.9,12.2v6.5h-15.5v-6.5h0.9v2.3H618v-2.3H618.9z M618,17.9
			v-2.5h-13.7v2.5H618z M614,4.4h-2.7V3.6h2.7V0.5h1v10.8h-1V4.4z M618.9,11.4H618V0.4h0.9L618.9,11.4z"/>
		<path class="st0" d="M637.9,19.3V0.2h1.2v8.2h3l0,1.2h-3v9.7H637.9z M629.1,10.4c-1.2,4.6-3.4,7.2-6.3,7.6l-0.2,0v-1.1l0.1,0
			c4.5-0.8,6.2-8.8,6.2-15.9l0-0.2l1.2,0.1l0,0.1c0,2.7-0.2,5.3-0.7,8l6.4,8.3l-1,0.7L629.1,10.4z"/>
		<path class="st0" d="M629.3,9l6.3,8.3l-0.7,0.5l-5.9-7.8c-1.1,4.5-3.2,7.4-6.2,7.8V17c4.4-0.8,6.3-8.1,6.3-16.1L630,1
			C630,3.7,629.8,6.4,629.3,9z M642,9.5h-3v9.7h-0.9V0.4h0.9v8.2h3L642,9.5z"/>
		<path class="st0" d="M659.7,19.3V0.2h1.2v19.1H659.7z M650.2,18.3c-3.5,0-5.6-3.3-5.6-8.7c0-5.4,2.1-8.7,5.6-8.7s5.6,3.2,5.6,8.7
			C655.8,15,653.7,18.3,650.2,18.3z M645.8,9.5c0,4.7,1.6,7.6,4.4,7.6c2.8,0,4.4-2.8,4.4-7.6c0-4.7-1.7-7.6-4.4-7.6
			c-2.7,0-4.4,2.8-4.5,7.4L645.8,9.5z"/>
		<path class="st0" d="M655.7,9.5c0,5.8-2.3,8.6-5.5,8.6s-5.5-2.8-5.5-8.6S647,1,650.2,1S655.7,3.8,655.7,9.5z M645.7,9.5
			c0,5.2,2,7.7,4.5,7.7s4.6-2.5,4.6-7.7s-2-7.7-4.6-7.7S645.6,4.3,645.7,9.5L645.7,9.5z M660.8,19.2h-0.9V0.4h0.9V19.2z"/>
		<path class="st0" d="M664.7,18.2v-1.1h18.9v1.1H664.7z M666.1,13V1.1h16v1.1h-14.8v4.2H682v1.1h-14.6v4.3h15.2l0,1.1H666.1z"/>
		<path class="st0" d="M683.4,17.2v0.9h-18.6v-0.9H683.4z M682.4,12.8h-16.1V1.2H682v0.9h-14.8v4.5h14.6v0.9h-14.6V12h15.2
			L682.4,12.8z"/>
		<path class="st0" d="M687.3,18.9v-4h14.8v-1.7h-14.8v-1.1h16V16h-14.8v1.8h15.2v1.1H687.3z M685.9,10.4V9.3h18.9l0,1.1H685.9z
			 M687.4,7.6V3.5H702V1.8h-14.6V0.6h15.8l0.1,4h-14.7v1.8h14.9v1.1H687.4z"/>
		<path class="st0" d="M704.5,10.3H686V9.4h18.6L704.5,10.3z M703.1,15.9h-14.8v2.1h15.2v0.8h-16.1v-3.7h14.8v-2h-14.8v-0.8h15.7
			V15.9z M703.1,4.5h-14.7v2.1h14.9v0.8h-15.8V3.7h14.6V1.6h-14.6V0.8h15.5L703.1,4.5z"/>
		<path class="st0" d="M729.9,19.3V0.2h1.2v19.1H729.9z M724.9,19V9h-3.5V7.8h3.5V0.4h1.2V19H724.9z M713.5,16.8L713.5,16.8
			c2.8-1,4.2-6,4.3-14.6h-4V1.1h9.1v1.1h-3.9c0,2.2-0.1,4.3-0.4,6.5l4.8,8.5l-1,0.6l-4.1-7.3c-0.8,4.3-2.3,6.8-4.6,7.5l-0.2,0.1
			V16.8z"/>
		<path class="st0" d="M718.4,8.7l4.8,8.4l-0.8,0.5l-4.2-7.5c-0.7,4.5-2.3,7.1-4.6,7.8v-0.9c3-1.1,4.2-6.8,4.3-14.8h-4V1.2h8.8v0.9
			h-3.9C718.8,4.3,718.7,6.5,718.4,8.7z M725,0.5h0.9v18.3H725v-10h-3.5V7.9h3.5V0.5z M730.9,0.4v18.8H730V0.4H730.9z"/>
		<path class="st0" d="M749.9,19.1V14h-14.3l0-1.1h15.5v6.3H749.9z M749.9,11.8V0.2h1.2v4.6h3V6h-3v5.8H749.9z M734.6,9.9l0.1,0
			c3.6-0.7,5.7-3.4,5.9-7.7h-5.8V0.9h12.3v1.1h-5.3c0,1.1-0.2,2.2-0.5,3.3l6.3,4.6l-0.7,0.9l-6.1-4.4c-1.1,2.4-3.4,4.1-6.1,4.5
			l-0.2,0V9.9z"/>
		<path class="st0" d="M734.8,10.8V10c3.7-0.7,5.9-3.4,6-8H735V1.1h12v0.9h-5.3c0,1.2-0.2,2.3-0.6,3.5l6.3,4.6l-0.5,0.7l-6.1-4.5
			C739.7,8.7,737.4,10.5,734.8,10.8z M735.8,13H751v6h-0.9v-5.1h-14.3L735.8,13z M754,5.8h-3v5.8h-0.9V0.4h0.9V5h3V5.8z"/>
		<path class="st0" d="M769.8,15.9c-1,1.5-2.7,2.6-4.5,2.9l-0.1,0l-3.7-2.7c-1.1,1.4-2.7,2.4-4.4,2.7l-0.2,0v-1.1l0.1,0
			c2.5-0.6,4.4-2.6,4.7-5.2l0-0.1l1.2,0.1l0,0.1c-0.1,0.9-0.4,1.7-0.8,2.4l3.3,2.5c2.3-0.7,4-2.7,4.3-5.1l0-0.1l1.2,0.1l0,0.1
			c-0.1,0.8-0.3,1.5-0.7,2.2l4.5,3l-0.8,1L769.8,15.9z M772.1,12.3v-6h-3.9l0,5.8H767V0.4h1.2v4.8h3.9V0.2h1.2v12.1H772.1z
			 M760.5,11.9c-2.6,0-4.4-1.4-4.4-3.6c0-2.1,1.8-3.6,4.4-3.6c2.6,0,4.4,1.4,4.4,3.6C764.9,10.4,763.1,11.9,760.5,11.9z M757.3,8.4
			c0.1,1.4,1.4,2.3,3.2,2.3c1.9,0,3.2-1,3.2-2.5s-1.3-2.5-3.2-2.5c-1.9,0-3.2,1-3.2,2.5L757.3,8.4L757.3,8.4z M755.3,3.6V2.5h4.6V0
			h1.2v2.5h4.4l0,1.1H755.3z"/>
		<path class="st0" d="M765.3,3.5h-9.9V2.6h4.6V0.1h0.9v2.5h4.4L765.3,3.5z M756.2,8.2c0-2.2,1.8-3.4,4.2-3.4s4.2,1.3,4.2,3.4
			s-1.8,3.5-4.2,3.5S756.2,10.4,756.2,8.2L756.2,8.2z M774.1,18.7l-4.4-3c-1,1.6-2.6,2.7-4.5,3l-3.7-2.8c-1.1,1.5-2.7,2.5-4.4,2.8
			v-0.9c2.6-0.6,4.5-2.7,4.8-5.3l0.9,0.1c-0.1,0.9-0.4,1.7-0.8,2.5l3.5,2.6c2.4-0.7,4.2-2.7,4.5-5.2l0.9,0.1
			c-0.1,0.8-0.3,1.6-0.7,2.3l4.5,3L774.1,18.7z M757.1,8.2c0,1.4,1.2,2.6,3.3,2.6s3.3-1.2,3.3-2.6s-1.2-2.6-3.3-2.6
			S757.1,6.8,757.1,8.2L757.1,8.2z M768.1,11.9h-0.9V0.5h0.9v4.8h4.2v-5h0.9v11.8h-0.9v-6h-4.2L768.1,11.9z"/>
		<path class="st0" d="M778.2,18.9v-7.3h1.2v2.5h13.5v-2.5h1.2v7.3H778.2z M792.9,17.7v-2.5h-13.5v2.5H792.9z M776.6,10.1V9h18.9
			v1.2H776.6z M785.9,3.5c-2.2,2.3-5.1,3.6-8.3,3.7l-0.1,0V6l0.1,0c3.6-0.1,8-2.5,8.9-6.1l0-0.1l1.2,0.2l0,0.1
			c-0.2,0.8-0.5,1.6-1,2.4l8.1,3.7l-0.5,1L785.9,3.5z"/>
		<path class="st0" d="M795.4,9.1V10h-18.6V9.1H795.4z M777.6,7V6.2c3.7-0.1,8.1-2.5,9-6.2l0.9,0.2c-0.2,0.9-0.5,1.7-1,2.5l8.1,3.7
			l-0.4,0.8l-8.4-3.8C783.7,5.6,780.7,6.9,777.6,7z M793,11.8h0.9v7h-15.6v-7h0.9v2.5H793V11.8z M793,17.9v-2.8h-13.8v2.8H793z"/>
		<path class="st0" d="M813.9,19.3V0.2h1.3v19.1H813.9z M799.1,18V1h1.2v15.9l6.7,0c1.6,0,3.2-0.3,4.6-0.9l0.2-0.1v1.2l-0.1,0
			c-1.5,0.6-3.1,0.9-4.7,0.9L799.1,18z"/>
		<path class="st0" d="M800.2,17h6.7c1.7,0,3.3-0.3,4.9-0.9V17c-1.5,0.6-3.2,1-4.9,0.9h-7.6V1.1h0.9V17z M815,19.2h-1V0.4h1V19.2z"
			/>
		<path class="st0" d="M834.5,19.3V0.2h1.2v8.2h3v1.2h-3v9.7H834.5z M820.1,18V1.1h11.1v1.1h-9.9v14.6l6.4,0c1.6,0,3.2-0.3,4.7-0.9
			l0.2-0.1V17l-0.1,0c-1.5,0.6-3.1,0.9-4.7,0.9L820.1,18z"/>
		<path class="st0" d="M827.6,17c1.7,0,3.3-0.3,4.9-1v0.9c-1.5,0.6-3.2,0.9-4.9,0.9h-7.4V1.2H831v0.9h-9.9V17H827.6z M838.6,9.5h-3
			v9.7h-0.9V0.4h0.9v8.2h3V9.5z"/>
		<circle class="st0" cx="841.4" cy="17.9" r="1.1"/>
		<path class="st0" d="M842.4,17.9c0,0.6-0.4,1-1,1s-1-0.4-1-1s0.4-1,1-1S842.4,17.4,842.4,17.9z"/>
		<path class="st0" d="M0.4,52.2v-1.1h8.8v-4.7h1.2v4.7h8.8v1.1H0.4z M10.3,45.6V35.1h7.6v1.1h-6.4v8.2H18L18,45.6H10.3z M1.7,45.6
			V35.1h7.5v1.1H2.9v8.2h6.2v1.1H1.7z"/>
		<path class="st0" d="M19.1,51.2v0.8H0.6v-0.8h8.8v-4.6h0.9v4.7L19.1,51.2z M9,45.5H1.9V35.2h7.3v0.9H2.8v8.5H9V45.5z M17.8,45.5
			h-7.4V35.2h7.3v0.9h-6.4v8.5h6.5L17.8,45.5z"/>
		<path class="st0" d="M23.1,52.9V48h1.2v3.8h14.8v1.1H23.1z M37.2,48.6V34.2h1.2V40h3v1.1h-3v7.5H37.2z M28.1,46.7
			c-3.3,0-5.5-1.6-5.5-4s2.2-4,5.5-4s5.5,1.6,5.5,4S31.4,46.7,28.1,46.7z M28.1,39.9c-2.6,0-4.3,1.1-4.3,2.9s1.7,2.9,4.3,2.9
			c2.6,0,4.3-1.1,4.3-2.9S30.7,39.9,28.1,39.9z M21.6,37.6v-1.1h5.9v-2.6h1.2v2.5h5.9v1.2H21.6z"/>
		<path class="st0" d="M34.5,37.4H21.8v-0.9h5.9V34h0.9v2.5h5.9L34.5,37.4z M22.7,42.8c0-2.4,2.3-3.8,5.4-3.8s5.4,1.5,5.4,3.8
			s-2.3,3.8-5.4,3.8S22.7,45.1,22.7,42.8z M24.2,51.9H39v0.8H23.2v-4.6h0.9V51.9z M23.6,42.8c0,1.8,1.7,3,4.5,3s4.5-1.2,4.5-3
			s-1.7-3-4.5-3S23.6,41,23.6,42.8z M41.2,40.2V41h-3v7.5h-0.9V34.4h0.9v5.8H41.2z"/>
		<polygon class="st0" points="42.8,55.4 43.5,50.9 44.8,50.9 43.9,55.4 		"/>
		<path class="st0" d="M43.8,55.2H43l0.6-4.2h1L43.8,55.2z"/>
		<path class="st0" d="M59.3,53.1c-3.8,0-6.4-2.4-6.5-5.9l0-0.1H54l0,0.1c0.1,2.9,2.2,4.7,5.3,4.7c3.3,0,5.3-2,5.3-5.2V35h1.2v11.7
			C65.9,50.6,63.3,53.1,59.3,53.1z"/>
		<path class="st0" d="M53.9,47.2c0.1,2.8,2,4.9,5.5,4.9s5.5-2.1,5.5-5.3V35.2h0.9v11.6c0,3.7-2.5,6.2-6.4,6.2s-6.3-2.5-6.4-5.7
			H53.9z"/>
		<path class="st0" d="M75.8,53.1c-3.9,0-6.8-2.2-7.1-5.3l0-0.2H70l0,0.1c0.2,2.5,2.6,4.2,5.9,4.2c3.4,0,5.7-1.5,5.7-3.6
			c0-2-1.6-3.1-6.1-4.1c-3.7-0.9-6.1-2-6.1-5c0-2.7,2.7-4.5,6.5-4.5c3.8,0,6.6,2,6.9,4.9l0,0.2h-1.2l0-0.1c-0.2-1.9-2-3.9-5.6-3.9
			c-3.2,0-5.3,1.3-5.3,3.3c0,2,1.5,3,5.6,3.9c4.7,1,6.6,2.5,6.6,5.1C82.8,51.1,79.9,53.1,75.8,53.1z"/>
		<path class="st0" d="M82.6,39.6h-0.9c-0.2-2.1-2.3-4-5.8-4s-5.4,1.5-5.4,3.5c0,2.2,1.8,3.2,5.7,4.1c4.5,1,6.5,2.4,6.5,5
			c0,2.9-3,4.8-6.8,4.8s-6.6-2.1-6.9-5.2h0.9c0.2,2.5,2.5,4.3,6,4.3s5.9-1.6,5.9-3.8S79.8,45,75.5,44c-4-1-6-2.2-6-4.8
			s2.6-4.4,6.4-4.4S82.3,36.8,82.6,39.6z"/>
		<path class="st0" d="M86.5,52.9v-4h14.8v-1.7H86.5v-1.1h16V50H87.7v1.8h15.2v1.1H86.5z M85.1,44.4v-1.1h18.9v1.1H85.1z M86.6,41.6
			v-4.1h14.6v-1.8H86.6v-1.1h15.8l0,4H87.8v1.8h14.9v1.1H86.6z"/>
		<path class="st0" d="M103.8,44.3H85.2v-0.8h18.6V44.3z M102.3,49.9H87.6v2.1h15.2v0.8H86.7v-3.7h14.8v-2H86.6v-0.8h15.7V49.9z
			 M102.3,38.5H87.7v2.1h14.9v0.8H86.8v-3.8h14.6v-2.1H86.8v-0.8h15.5L102.3,38.5z"/>
		<path class="st0" d="M121.8,53.2c-2.4,0-8.1-0.3-8.1-3s5.7-3,8.1-3c1.9,0,8.1,0.2,8.1,3C129.9,52.9,124.2,53.2,121.8,53.2z
			 M121.8,48.2c-3.4,0-6.9,0.6-6.9,1.9c0,1.3,3.6,1.9,6.9,1.9c3.3,0,6.9-0.6,6.9-1.9S125.1,48.2,121.8,48.2z M112.4,45.5v-1.1h8.8
			v-2.1h-7.3v-7.6h16v1.1h-14.8v2.2h14.5V39h-14.5v2.2h14.9v1.1h-7.6v2.1h8.8v1.1H112.4z"/>
		<path class="st0" d="M131.1,44.5v0.8h-18.6v-0.8h8.8v-2.4h-7.3v-7.3h15.7v0.8H115V38h14.5v0.8H115v2.5h14.9v0.8h-7.7v2.4H131.1z
			 M129.8,50.1c0,2.2-4,2.9-8,2.9s-8-0.7-8-2.9s4-2.9,8-2.9S129.8,48,129.8,50.1z M128.9,50.1c0-1.5-3.8-2.1-7.1-2.1s-7,0.6-7,2.1
			s3.7,2.1,7,2.1S128.9,51.6,128.9,50.1z"/>
		<path class="st0" d="M150.2,53.3v-9.8h-3.9V53h-1.2V34.4h1.2v8h3.9v-8.1l1.2,0v19H150.2z M138.4,52.2c-2.6,0-4.3-2.3-4.3-5.8
			c0-3.5,1.7-5.8,4.3-5.8c2.6,0,4.3,2.3,4.3,5.8C142.7,49.9,141,52.2,138.4,52.2z M138.4,41.7c-1.9,0-3.1,1.8-3.1,4.7
			s1.2,4.7,3.1,4.7c1.9,0,3.1-1.8,3.1-4.7S140.3,41.7,138.4,41.7z M133.2,38.8v-1.1h4.5v-3.5h1.2l0,3.5h4.6v1.1H133.2z"/>
		<path class="st0" d="M138.8,37.8h4.6v0.8h-10v-0.8h4.5v-3.5h0.9L138.8,37.8z M142.6,46.4c0,3.6-1.7,5.7-4.2,5.7s-4.2-2.1-4.2-5.7
			s1.7-5.7,4.2-5.7S142.6,42.8,142.6,46.4z M141.7,46.4c0-3.1-1.4-4.8-3.2-4.8s-3.2,1.8-3.2,4.8s1.4,4.8,3.2,4.8
			S141.7,49.4,141.7,46.4z M151.3,34.4v18.8h-0.9v-9.8h-4.2v9.5h-0.9V34.5h0.9v8h4.2v-8.1L151.3,34.4z"/>
		<path class="st0" d="M170.3,53.2c-3,0-8.1-0.4-8.1-3.4s5.1-3.4,8.1-3.4s8.1,0.4,8.1,3.4S173.3,53.2,170.3,53.2z M170.3,47.6
			c-3.3,0-6.9,0.6-6.9,2.2c0,1.6,3.6,2.2,6.9,2.2c3.3,0,6.9-0.6,6.9-2.2C177.2,48.2,173.6,47.6,170.3,47.6z M160.9,44.5v-1.1h8.8V41
			h-7.3v-6.3h15.8v1.1h-14.6v4.1h14.9V41h-7.6v2.4l8.8,0v1.1H160.9z"/>
		<path class="st0" d="M179.6,43.5v0.9H161v-0.9h8.8v-2.7h-7.3v-6h15.6v0.9h-14.6V40h14.9v0.9h-7.6v2.7L179.6,43.5z M178.3,49.8
			c0,2.5-4,3.2-8,3.2s-8-0.7-8-3.2s4-3.2,8-3.2S178.3,47.4,178.3,49.8z M177.4,49.8c0-1.8-3.8-2.3-7.1-2.3s-7.1,0.5-7.1,2.3
			s3.8,2.4,7.1,2.4S177.4,51.6,177.4,49.8z"/>
		<path class="st0" d="M198.3,53.1v-5h-14.6V47h15.8v6.1H198.3z M198.3,46v-5.9h-4.5v-1.1h4.5v-4.7h1.2V46H198.3z M182.5,44.1l0.1,0
			c3.6-0.7,5.7-3.5,5.9-8h-5.8v-1.1H195v1.1h-5.3c0,1.2-0.2,2.3-0.5,3.4l6.3,4.7l-0.7,0.9l-6.1-4.5c-1.1,2.5-3.4,4.2-6.1,4.6l-0.2,0
			V44.1z"/>
		<path class="st0" d="M182.6,45.1v-0.9c3.6-0.7,5.9-3.5,6-8.2h-5.8v-0.9h12v0.9h-5.3c0,1.2-0.2,2.4-0.6,3.6l6.3,4.7l-0.5,0.7
			l-6.1-4.5C187.6,42.9,185.3,44.7,182.6,45.1z M183.9,47.2h15.5V53h-0.9v-5h-14.6V47.2z M199.4,34.4v11.5h-0.9v-5.9h-4.5v-0.8h4.5
			v-4.7H199.4z"/>
		<path class="st0" d="M209.4,52.2v-1.1h4.9v-4.3c-2-0.6-3.1-1.7-3.1-3.1c0-2.3,2.8-3.7,7.7-3.7c5,0,7.7,1.3,7.7,3.7
			c0,1.5-1.1,2.5-3.1,3.1v4.3h4.8v1.1H209.4z M222.1,51.1v-4c-1,0.2-2.1,0.3-3.1,0.3h-0.5c-1,0-2.1-0.1-3.1-0.3l0,4H222.1z
			 M218.8,41.1c-4.1,0-6.5,0.9-6.5,2.5c0,1.6,2.4,2.5,6.5,2.5s6.5-0.9,6.5-2.5C225.2,42.1,222.9,41.1,218.8,41.1z M210.1,38.5v-1.1
			h8.1V34h1.2v3.3h8.2v1.1H210.1z"/>
		<path class="st0" d="M228.1,51.2v0.8h-18.6v-0.8h4.9v-4.5c-1.9-0.5-3.1-1.5-3.1-3c0-2.5,3.4-3.5,7.6-3.5s7.6,1,7.6,3.5
			c0,1.5-1.2,2.5-3.1,3v4.5L228.1,51.2z M227.4,38.3h-17.2v-0.9h8.1v-3.3h0.9v3.3h8.2L227.4,38.3z M218.8,46.4
			c3.7,0,6.6-0.8,6.6-2.7s-2.9-2.7-6.6-2.7s-6.6,0.8-6.6,2.7S215.1,46.4,218.8,46.4L218.8,46.4z M215.3,51.2h7v-4.3
			c-1.2,0.2-2.3,0.3-3.5,0.3c-1.2,0-2.3-0.1-3.5-0.3L215.3,51.2z"/>
		<path class="st0" d="M246.2,53.3V34.2h1.2v8.1h2.9v1.1h-2.9v9.9H246.2z M238.3,52c-0.4,0-0.7,0-1.1,0h-6.7v-1.1h4v-8.9h1.2v8.9
			h1.4c3.5,0,5.8-0.3,7.1-0.8l0.2-0.1v1.2l-0.1,0C242.4,51.7,240.3,52,238.3,52z M240.9,47.5V36.3h-9.5v-1.1h10.7v12.4H240.9z"/>
		<path class="st0" d="M237.1,51c3.1,0,5.7-0.2,7.2-0.9V51c-2.3,0.7-4.7,0.9-7.1,0.8h-6.5V51h4v-9h0.9v9H237.1z M241,36.1h-9.5v-0.9
			h10.4v12.1H241V36.1z M250.2,43.3h-2.9v9.9h-0.9V34.4h0.9v8.1h2.9V43.3z"/>
		<path class="st0" d="M253.1,52.9v-4h14.8v-1.7h-14.8v-1.1h16V50h-14.8v1.8h15.2v1.1H253.1z M251.7,44.4v-1.1h18.9v1.1H251.7z
			 M253.2,41.6v-4.1h14.6v-1.8h-14.6v-1.1h15.8l0.1,4h-14.7v1.8h14.9v1.1H253.2z"/>
		<path class="st0" d="M270.4,44.3h-18.6v-0.8h18.6V44.3z M269,49.9h-14.8v2.1h15.2v0.8h-16.1v-3.7h14.8v-2h-14.8v-0.8H269V49.9z
			 M269,38.5h-14.7v2.1h14.9v0.8h-15.8v-3.8H268v-2.1h-14.6v-0.8h15.5L269,38.5z"/>
		<path class="st0" d="M287.7,53.7v-7.4H279v-1.2h18.9v1.2h-8.9v7.4H287.7z M295.1,43.4V36h-14.7v-1.2h15.9v8.6H295.1z"/>
		<path class="st0" d="M297.7,46.2h-8.9v7.4h-0.9v-7.4h-8.7v-0.9h18.6L297.7,46.2z M295.2,35.9h-14.7V35h15.6v8.3h-1L295.2,35.9z"/>
		<path class="st0" d="M302,52.9v-5.3h1.2v4.1l15.1,0v1.1H302z M316.5,48.6l0-4.1h-3.6v-1.1h3.6v-3h-3.6v-1.1h3.6v-5h1.2v14.4H316.5
			z M306.7,46.8c-3.3,0-5.4-1.6-5.4-4c0-2.4,2.2-4,5.4-4c3.3,0,5.4,1.6,5.4,4S310,46.8,306.7,46.8z M306.7,39.9
			c-2.5,0-4.2,1.1-4.2,2.9s1.7,2.9,4.2,2.9c2.5,0,4.2-1.1,4.2-2.9S309.3,39.9,306.7,39.9z M300.3,37.7v-1.1h5.8v-2.7h1.2v2.6h5.3
			v1.2H300.3z"/>
		<path class="st0" d="M312.5,37.5h-12.1v-0.9h5.8V34h0.9v2.6h5.3V37.5z M301.5,42.8c0-2.4,2.2-3.8,5.3-3.8s5.3,1.4,5.3,3.8
			s-2.2,3.8-5.3,3.8S301.5,45.2,301.5,42.8z M318.2,51.9v0.8h-16v-5h0.9v4.1L318.2,51.9z M302.4,42.8c0,1.7,1.6,3,4.4,3
			s4.4-1.3,4.4-3s-1.6-3-4.4-3S302.4,41.1,302.4,42.8z M316.6,44.3H313v-0.8h3.6v-3.3H313v-0.8h3.6v-5h0.9v14.1h-0.9L316.6,44.3z"/>
		<path class="st0" d="M336.9,53.3V34.2h1.2v8.2h3v1.1h-3v9.7H336.9z M328.1,52.2c-3,0-5.1-2.4-5.1-5.8c0-3.4,2.2-5.8,5.1-5.8
			s5.1,2.4,5.1,5.8C333.2,49.8,331,52.2,328.1,52.2z M328,41.8c-2,0-4,1.6-4,4.7c0,3.1,2,4.7,4,4.7c2,0,3.9-1.6,3.9-4.7
			C332,43.4,330,41.8,328,41.8z M321.9,38.8v-1.1h5.6v-3.5h1.2l0,3.5h5.6v1.1H321.9z"/>
		<path class="st0" d="M328.5,37.8h5.6v0.9H322v-0.9h5.6v-3.5h0.9L328.5,37.8z M333.1,46.4c0,3.5-2.3,5.7-5,5.7s-5-2.2-5-5.7
			s2.3-5.7,5-5.7S333.1,42.9,333.1,46.4z M332.1,46.4c0-3-1.9-4.8-4.1-4.8s-4.1,1.8-4.1,4.8s1.9,4.8,4.1,4.8S332.1,49.4,332.1,46.4z
			 M341,43.5h-3v9.7h-0.9V34.4h0.9v8.2h3V43.5z"/>
		<path class="st0" d="M356.8,49.4c-0.8,1.8-2.4,3.1-4.4,3.4l-0.1,0l-3.5-3.3c-0.9,1.7-2.5,2.9-4.4,3.3l-0.2,0v-1.1l0.1,0
			c2.3-0.4,4.3-3.1,4.5-6.3l0-0.1l1.2,0.1l0,0.1c-0.1,1-0.3,2-0.7,3l3.3,3.2c2.1-0.6,3.7-3.2,3.9-6.3l0-0.1l1.2,0.1l0,0.1
			c-0.1,1-0.3,1.9-0.6,2.8l4.4,3.7l-0.8,0.9L356.8,49.4z M358.9,45v-2.8h-4.2l0.1-1.1h4v-3.5h-4.1l-0.1-1.1h4.3v-2.2h1.2V45H358.9z
			 M348.6,44.3c-3.4,0-5.7-1.9-5.7-4.9s2.3-4.9,5.7-4.9c3.5,0,5.7,1.9,5.7,4.9C354.3,42.4,352,44.3,348.6,44.3z M348.6,35.8
			c-2.7,0-4.5,1.5-4.5,3.7s1.8,3.7,4.5,3.7c2.7,0,4.5-1.5,4.5-3.7S351.3,35.8,348.6,35.8z"/>
		<path class="st0" d="M348.6,44.2c-3.5,0-5.6-2-5.6-4.7s2-4.7,5.6-4.7s5.6,2,5.6,4.7S352.1,44.2,348.6,44.2z M348.6,43.3
			c2.8,0,4.6-1.5,4.6-3.8s-1.9-3.8-4.6-3.8s-4.6,1.5-4.6,3.8S345.9,43.3,348.6,43.3z M360.9,52.7l-4.1-3.5c-0.8,1.8-2.4,3.2-4.4,3.5
			l-3.5-3.4c-0.8,1.8-2.5,3-4.4,3.4v-0.8c2.4-0.4,4.4-3.2,4.6-6.5l0.9,0.1c-0.1,1-0.3,2-0.7,3l3.5,3.3c2.2-0.5,3.9-3.2,4.1-6.4
			l0.9,0.1c-0.1,1-0.3,2-0.6,2.9l4.4,3.7L360.9,52.7z M358.9,41.2v-3.8h-4.1l-0.1-0.9h4.3v-2.2h0.9v10.5H359v-2.8h-4.2l0.1-0.9
			L358.9,41.2z"/>
		<path class="st0" d="M365.2,52.9v-7.3h1.2v2.5h13.5v-2.5h1.2v7.3H365.2z M379.9,51.7v-2.5h-13.5v2.5H379.9z M363.7,44.1V43l18.9,0
			v1.2H363.7z M372.9,37.4c-2.2,2.3-5.1,3.6-8.3,3.7l-0.1,0V40l0.1,0c3.6-0.1,8-2.5,8.9-6.1l0-0.1l1.2,0.2l0,0.1
			c-0.2,0.8-0.5,1.6-1,2.4l8.1,3.7l-0.5,1L372.9,37.4z"/>
		<path class="st0" d="M382.4,43.1V44h-18.6v-0.9L382.4,43.1z M364.6,41v-0.9c3.7-0.1,8.1-2.5,9-6.2l0.9,0.2c-0.2,0.9-0.5,1.7-1,2.5
			l8.1,3.7l-0.4,0.8l-8.3-3.8C370.7,39.6,367.8,40.9,364.6,41z M380,45.8h0.9v7h-15.6v-7h0.9v2.5H380V45.8z M380,51.9v-2.8h-13.8
			v2.8H380z"/>
		<path class="st0" d="M400.9,53.3V34.2h1.2v19.1H400.9z M386.1,52V35h1.2v15.9l6.7,0c1.6,0,3.2-0.3,4.6-0.9l0.2-0.1v1.2l-0.1,0
			c-1.5,0.6-3.1,0.9-4.7,0.9L386.1,52z"/>
		<path class="st0" d="M387.2,51h6.7c1.7,0,3.3-0.3,4.9-0.9V51c-1.5,0.6-3.2,1-4.9,0.9h-7.6V35.1h0.9V51z M402,53.2h-1V34.4h1V53.2z
			"/>
		<path class="st0" d="M421.6,53.3V34.2h1.2v8.2h3v1.2h-3v9.7H421.6z M407.1,51.9V35.1h11v1.1h-9.9v14.6h6.3c1.7,0,3.3-0.3,4.8-1
			l0.2-0.1V51l-0.1,0c-1.5,0.6-3.1,0.9-4.7,0.9L407.1,51.9z"/>
		<path class="st0" d="M414.6,51c1.7,0,3.3-0.3,4.9-1v0.9c-1.5,0.6-3.2,0.9-4.9,0.9h-7.4V35.2H418v0.9h-9.9V51H414.6z M425.6,43.5
			h-3v9.7h-0.9V34.4h0.9v8.2h3V43.5z"/>
		<circle class="st0" cx="428.4" cy="51.9" r="1.1"/>
		<path class="st0" d="M429.4,51.9c0,0.6-0.4,1-1,1s-1-0.4-1-1s0.4-1,1-1S429.4,51.4,429.4,51.9z"/>
	</g>
</g>
</svg>
