<?xml version="1.0" encoding="utf-8"?>
<!-- Generator: Adobe Illustrator 26.0.2, SVG Export Plug-In . SVG Version: 6.00 Build 0)  -->
<svg version="1.1" id="레이어_1" xmlns="http://www.w3.org/2000/svg" xmlns:xlink="http://www.w3.org/1999/xlink" x="0px"
	 y="0px" viewBox="0 0 719.7 454.2" style="enable-background:new 0 0 719.7 454.2;" xml:space="preserve">
<style type="text/css">
	.st0{fill:#FFFFFF;}
	.st1{fill:#0D1320;}
</style>
<path class="st0" d="M3.1,18.9v-6.7h15.3v6.7H3.1z M17.2,17.8v-4.5H4.4l0,4.5H17.2z M17.3,11.1V0.2h1.2v4.6h3l0,1.1h-3v5.1H17.3z
	 M2.5,9.9V0.7h1.2v3.4h8.5V0.7h1.2v9.2H2.5z M12.2,8.8V5.1H3.7v3.6H12.2z"/>
<path class="st0" d="M13.3,9.7H2.7V0.8h0.9v3.4h8.7V0.8h0.9V9.7z M3.3,12.3h15v6.5h-15V12.3z M12.3,8.9V5H3.6v3.9H12.3z M4.2,17.9
	h13.2v-4.8H4.2L4.2,17.9z M21.3,5.8h-3v5.2h-0.9V0.4h0.9v4.6h3L21.3,5.8z"/>
<path class="st0" d="M44.5,19.3V0.2h1.2v8.2h3v1.1h-3v9.7H44.5z M35.7,18.2c-3,0-5.1-2.4-5.1-5.8c0-3.4,2.2-5.8,5.1-5.8
	s5.1,2.4,5.1,5.8C40.8,15.8,38.7,18.2,35.7,18.2z M35.6,7.8c-2,0-4,1.6-4,4.7c0,3.1,2,4.7,4,4.7c2.2,0,3.9-1.9,4-4.5l0-0.1
	C39.6,9.4,37.6,7.8,35.6,7.8z M29.4,4.8V3.7h5.6V0.2h1.2v3.5h5.6v1.1H29.4z"/>
<path class="st0" d="M36.1,3.8h5.6v0.9H29.6V3.8h5.6V0.3h0.9V3.8z M40.7,12.4c0,3.5-2.3,5.6-5,5.6s-5-2.2-5-5.6s2.3-5.7,5-5.7
	S40.7,8.9,40.7,12.4z M39.7,12.4c0-2.9-1.9-4.8-4.1-4.8s-4.1,1.9-4.1,4.8s1.9,4.8,4.1,4.8S39.8,15.4,39.7,12.4L39.7,12.4z M48.6,9.5
	h-3v9.7h-0.9V0.4h0.9v8.2h3V9.5z"/>
<path class="st0" d="M51.6,18.9v-4.3h14.8v-1.9H51.5v-1.1h16v4.2H52.8v2H68v1.1H51.6z M50.1,9.6V8.5H69v1.1H50.1z M51.7,6.5V0.3h1.2
	v5h14.9v1.1H51.7z"/>
<path class="st0" d="M68.9,9.5H50.3V8.6h18.6V9.5z M67.4,15.6H52.6v2.3h15.2v0.8H51.7v-4h14.8v-2.2H51.7v-0.8h15.7V15.6z M52.8,5.5
	h14.8v0.9H51.8V0.5h0.9V5.5z"/>
<path class="st0" d="M87.9,19.3V0.2h1.2v19.1H87.9z M83.6,19V9.8h-3.2c0,5.6-1.5,8.5-4.3,8.5c-2.9,0-4.3-2.9-4.3-8.7
	c0-5.8,1.5-8.7,4.3-8.7c2.7,0,4.1,2.5,4.3,7.8h3.2V0.4h1.2V19H83.6z M76.1,2C74,2,73,4.4,73,9.5s1,7.6,3.1,7.6
	c2.1,0,3.1-2.5,3.1-7.5C79.2,4.4,78.2,2,76.1,2z"/>
<path class="st0" d="M83.7,0.5h0.9v18.3h-0.9V9.6h-3.4c0,5.7-1.4,8.5-4.2,8.5s-4.2-2.8-4.2-8.6S73.4,1,76.1,1s4,2.5,4.2,7.8h3.4V0.5
	z M79.3,9.5c0-5.2-1.1-7.7-3.3-7.7s-3.2,2.5-3.2,7.7s1.1,7.7,3.2,7.7S79.3,14.8,79.3,9.5L79.3,9.5z M89,0.4v18.8h-0.9V0.4H89z"/>
<path class="st0" d="M115.1,19.3V9.6h-4.7V8.5h4.7V0.2l1.2,0v19.1H115.1z M106.2,18V1.1h6.1v1.1h-5v14.6h1.7l0.3,0
	c1.2,0,2.3-0.2,3.3-0.7l0.2-0.1v1.3l-0.1,0c-1.1,0.4-2.3,0.6-3.4,0.6L106.2,18z M99.6,18V1.1h5.9v1.1h-4.7v14.6l1.5,0
	c1.1,0,2.1-0.2,3.1-0.5l0.2-0.1v1.2l-0.1,0c-1.1,0.3-2.1,0.5-3.2,0.5L99.6,18z"/>
<path class="st0" d="M102.1,17c1.1,0,2.3-0.2,3.3-0.5v0.9c-1.1,0.3-2.2,0.5-3.3,0.5h-2.4V1.2h5.6v0.9h-4.7V17H102.1z M109.1,17
	c1.3,0,2.5-0.2,3.6-0.7v1c-1.2,0.4-2.4,0.7-3.6,0.6h-2.7V1.2h5.9v0.9h-5V17H109.1z M116.1,0.4v18.8h-0.9V9.5h-4.7V8.6h4.7V0.4
	L116.1,0.4z"/>
<path class="st0" d="M119.8,18.2v-1.1h8.8v-4.9c-4.8-0.2-7.7-2.3-7.7-5.7c0-3.4,3.4-5.7,8.4-5.7c5.1,0,8.4,2.2,8.4,5.7
	c0,3.4-2.9,5.5-7.8,5.7v4.9l8.8,0v1.1H119.8z M129.2,2c-4.3,0-7.1,1.8-7.1,4.5c0,2.8,2.8,4.5,7.1,4.5h0.1v0c4.2,0,7-1.8,7-4.5
	C136.3,3.8,133.5,2,129.2,2z"/>
<path class="st0" d="M138.5,17.2v0.9h-18.6v-0.9h8.8v-5.1c-4.7-0.1-7.7-2.3-7.7-5.6s3.2-5.5,8.2-5.5c5,0,8.2,2.2,8.2,5.5
	s-3,5.4-7.8,5.6v5.1L138.5,17.2z M129.2,11.2c4.4,0,7.3-1.9,7.3-4.7s-2.9-4.7-7.3-4.7S122,3.7,122,6.5S124.8,11.2,129.2,11.2
	L129.2,11.2z"/>
<path class="st0" d="M141,18.2v-1.1h18.9v1.1H141z M142.4,13V6.5h14.8V2.3h-14.8V1.1h16v6.5h-14.8v4.3h15.2V13H142.4z"/>
<path class="st0" d="M159.7,18.1h-18.6v-0.9h18.6L159.7,18.1z M158.3,7.5h-14.8V12h15.2v0.9h-16.1V6.6h14.8V2.1h-14.8V1.2h15.8V7.5z
	"/>
<path class="st0" d="M163.7,18.9v-5.7h1.2l0,4.6h15.1v1.1H163.7z M162.1,11.3v-1.1H181v1.1H162.1z M163.7,7.6V0.3h1.2l0,6.1h14.8
	v1.1H163.7z"/>
<path class="st0" d="M180.8,11.1h-18.6v-0.9h18.6V11.1z M164.7,17.9h15.1v0.9h-16v-5.4h0.9L164.7,17.9z M164.7,6.6h14.8v0.9h-15.7
	V0.5h0.9L164.7,6.6z"/>
<path class="st0" d="M191,18.9v-4.6H205V12h-14.1v-1.1h15.3v4.6h-14l0,2.3h14.7v1.1H191z M205,9.8V0.2h1.2v4l3,0v1.1h-3v4.4H205z
	 M190.3,8.8V0.9H202V2h-10.5v5.6h4.7c0.3,0,0.7,0,1,0c2.1,0,4.2-0.3,6.1-1l0.2-0.1v1.2l-0.1,0c-1.3,0.7-4,1-7.4,1H190.3z"/>
<path class="st0" d="M196.1,8.6h-5.6V1h11.4v0.9h-10.5v5.9h4.8c2.4,0.1,4.9-0.2,7.2-1v0.9C202.1,8.3,199.5,8.6,196.1,8.6z
	 M192.1,17.9h14.7v0.9h-15.7v-4.3h14.1v-2.6h-14.1V11h15.1v4.3h-14L192.1,17.9z M209.1,4.4v0.9h-3v4.4h-0.9V0.4h0.9v4L209.1,4.4z"/>
<path class="st0" d="M212.1,18.9v-4.2h14.8v-1.9H212v-1.1h16v4.1h-14.8v2h15.2v1.1H212.1z M210.6,9.7V8.6h18.9v1.1H210.6z
	 M220.1,7.2c-2.4,0-8.1-0.3-8.1-3.4c0-2.2,3-3.4,8.1-3.4c2.4,0,8.1,0.3,8.1,3.4C228.2,6.9,222.5,7.2,220.1,7.2z M220,1.5
	c-4.3,0-6.9,0.9-6.9,2.3c0,1.4,2.6,2.3,6.9,2.3c4.3,0,6.9-0.9,6.9-2.3C227,2.3,224.4,1.5,220,1.5z"/>
<path class="st0" d="M229.3,9.6h-18.6V8.8h18.6V9.6z M228.1,3.8c0,2.4-3.8,3.3-8,3.3s-8-0.9-8-3.3s3.8-3.3,8-3.3
	S228.1,1.4,228.1,3.8z M227.9,15.7h-14.8v2.2h15.2v0.8h-16.1v-3.9H227v-2.2h-14.8v-0.8h15.7L227.9,15.7z M213,3.8
	c0,1.8,3.4,2.5,7.1,2.5s7.1-0.7,7.1-2.5s-3.5-2.4-7.2-2.4S213,2,213,3.8z"/>
<path class="st0" d="M247.3,19.1c-5,0-7.8-1.4-7.8-3.8c0-2.4,2.9-3.8,7.8-3.8c5,0,7.8,1.4,7.8,3.8C255.1,17.7,252.3,19.1,247.3,19.1
	z M247.3,12.7c-4.1,0-6.6,1-6.6,2.7c0,1.6,2.5,2.6,6.6,2.6c4,0,6.6-1,6.6-2.6v-0.1h0.1C253.8,13.6,251.3,12.7,247.3,12.7z
	 M253.6,10.9V0.2h1.2v4.2h3v1.1h-3v5.4H253.6z M238,9.2l0.1,0c3.7-0.8,6.2-4.2,6.2-8.5V0.5h1.2l0,0.1c0,1.4-0.2,2.8-0.7,4.1l6.4,4.2
	l-0.7,1l-6.3-4.1c-1.2,2.4-3.5,4-6.1,4.5l-0.2,0V9.2z"/>
<path class="st0" d="M238.2,10.2V9.3c4.1-0.9,6.3-4.5,6.3-8.7h0.9c0,1.4-0.2,2.8-0.8,4.1L251,9l-0.5,0.7l-6.3-4.1
	C243,8,240.8,9.7,238.2,10.2z M255,15.3c0,2.6-3.4,3.6-7.7,3.6s-7.7-1.1-7.7-3.6s3.4-3.7,7.7-3.7S255,12.8,255,15.3z M254.1,15.3
	c0-1.9-3-2.8-6.8-2.8s-6.8,0.9-6.8,2.8s3,2.8,6.8,2.8S254,17.2,254.1,15.3L254.1,15.3z M257.6,4.5v0.9h-3v5.4h-0.9V0.4h0.9v4.2
	L257.6,4.5z"/>
<path class="st0" d="M268.8,19.2c-5,0-8-1.4-8-3.8c0-2.4,2.9-3.8,8-3.8c5.1,0,8,1.4,8,3.8C276.8,17.8,273.9,19.2,268.8,19.2z
	 M268.8,12.7c-4.1,0-6.7,1-6.7,2.7c0,1.6,2.6,2.6,6.7,2.6c4.1,0,6.7-1,6.7-2.7C275.5,13.7,273,12.7,268.8,12.7z M275.2,11V0.2h1.2
	V11H275.2z M259.6,9l0.1,0c3.6-0.7,5.7-3.1,5.9-6.9h-5.8V0.9h12.5v1.1h-5.4c-0.1,0.9-0.2,1.9-0.5,2.7l6.6,4.2l-0.7,0.9l-6.3-4.1
	c-1.2,2.3-3.5,3.9-6.2,4.2l-0.2,0V9z"/>
<path class="st0" d="M259.8,10V9.1c3.6-0.7,5.9-3.1,6.1-7.2H260V1.1h12.2v0.9h-5.4c0,1-0.2,2-0.5,2.9l6.5,4.2l-0.5,0.7l-6.4-4.1
	C264.7,8.1,262.4,9.7,259.8,10z M276.6,15.4c0,2.6-3.5,3.7-7.8,3.7s-7.8-1.1-7.8-3.7s3.5-3.7,7.8-3.7S276.6,12.8,276.6,15.4
	L276.6,15.4z M275.7,15.4c0-1.9-3-2.8-6.9-2.8s-6.9,0.9-6.9,2.8s3,2.8,6.9,2.8S275.7,17.2,275.7,15.4L275.7,15.4z M276.3,10.8h-0.9
	V0.4h0.9V10.8z"/>
<path class="st0" d="M281.8,18.9v-4.3h14.1v-2.1h-14.1v-1.1h15.3v4.3H283v2.1h14.7v1.1H281.8z M295.9,10.4V0.2h1.2v4.5h3v1.1h-3v4.6
	H295.9z M286.8,10.1c-3.4,0-5.5-1.2-5.5-3.1c0-1.8,2.1-3,5.5-3c3.4,0,5.5,1.2,5.5,3C292.3,8.9,290.1,10.1,286.8,10.1z M286.8,5.1
	c-2.5,0-4.3,0.8-4.3,1.9c0,1.2,1.7,2,4.3,2c2.6,0,4.3-0.8,4.3-2C291,5.9,289.4,5.1,286.8,5.1z M280.3,3V1.9h5.9v-2.1h1.2v2h5.9V3
	H280.3z"/>
<path class="st0" d="M293.1,2.9h-12.7V2.1h5.9V0h0.9v2h5.9V2.9z M281.5,7.1c0-1.9,2.3-2.9,5.3-2.9s5.3,1,5.3,2.9s-2.3,2.9-5.3,2.9
	S281.5,9,281.5,7.1z M282.9,17.9h14.7v0.8h-15.7v-4H296v-2.3h-14.1v-0.8h15v4h-14.1V17.9z M282.4,7.1c0,1.2,1.7,2.1,4.4,2.1
	s4.4-0.9,4.4-2.1S289.5,5,286.8,5S282.4,5.8,282.4,7.1z M299.9,4.8v0.8h-3v4.6H296V0.4h0.9v4.5H299.9z"/>
<path class="st0" d="M316.4,19.7v-6.1h-8.8v-1.1h18.9v1.1h-8.8v6.1H316.4z M316.7,5.2c-2.1,3.1-5.4,5.1-8.6,5.1l-0.1,0V9.1h0.1
	c4.1,0,8.3-4,9.3-8.8l0-0.1l1.3,0.3l0,0.1c-0.3,1.3-0.7,2.5-1.4,3.6l8.4,5.1l-0.6,1L316.7,5.2z"/>
<path class="st0" d="M326.3,13.5h-8.9v6.1h-0.9v-6.1h-8.8v-0.9h18.6V13.5z M308.2,10.2V9.3c4.4,0,8.4-4.1,9.4-8.9l1,0.2
	c-0.3,1.3-0.8,2.5-1.4,3.7l8.4,5.1l-0.4,0.8L316.7,5C314.7,8,311.5,10.1,308.2,10.2L308.2,10.2z"/>
<path class="st0" d="M349.2,15.5c-0.8,1.8-2.5,3-4.4,3.4l-0.1,0l-3.5-3.3c-0.9,1.7-2.5,2.9-4.4,3.3l-0.2,0v-1.1l0.1,0
	c2.3-0.4,4.2-3.2,4.4-6.3l0-0.1l1.2,0.1l0,0.1c-0.1,1-0.3,2.1-0.7,3l3.3,3.1c2.1-0.6,3.8-3.2,4-6.2l0-0.1l1.2,0.1l0,0.1
	c-0.1,1-0.3,1.9-0.6,2.8l4.3,3.7l-0.8,0.8L349.2,15.5z M351.1,11V0.2h1.2V11H351.1z M341.2,10.4c-3.5,0-5.8-2-5.8-4.9
	c0-2.9,2.3-4.9,5.8-4.9c3.5,0,5.8,2,5.8,4.9C347.1,8.4,344.7,10.4,341.2,10.4z M341.2,1.7c-2.8,0-4.6,1.5-4.6,3.8s1.8,3.8,4.6,3.8
	c2.9,0,4.6-1.5,4.6-3.8S344.1,1.7,341.2,1.7z"/>
<path class="st0" d="M341.2,10.2c-3.6,0-5.7-2-5.7-4.8s2.1-4.8,5.7-4.8s5.7,2,5.7,4.8S344.8,10.2,341.2,10.2z M341.2,9.4
	c2.8,0,4.8-1.4,4.8-3.9s-2-3.9-4.8-3.9s-4.8,1.5-4.8,3.9S338.4,9.4,341.2,9.4z M353.1,18.7l-4-3.5c-0.8,1.8-2.4,3.1-4.4,3.5
	l-3.6-3.4c-0.8,1.8-2.4,3-4.3,3.4v-0.9c2.3-0.4,4.4-3.2,4.5-6.4l0.9,0.1c-0.1,1.1-0.3,2.1-0.7,3.1l3.4,3.3c2.2-0.5,4-3.2,4.1-6.4
	l0.9,0.1c-0.1,1-0.3,2-0.6,2.9l4.3,3.7L353.1,18.7z M352.1,10.9h-0.9V0.4h0.9V10.9z"/>
<path class="st0" d="M357.6,18.9v-5.7h1.2l0,4.6h15.1v1.1H357.6z M356.1,11.3v-1.1h18.9v1.1H356.1z M357.6,7.6V0.3h1.2l0,6.1h14.8
	v1.1H357.6z"/>
<path class="st0" d="M374.8,11.1h-18.6v-0.9h18.6L374.8,11.1z M358.6,17.9h15.1v0.9h-16v-5.4h0.9L358.6,17.9z M358.6,6.6h14.8v0.9
	h-15.7V0.5h0.9L358.6,6.6z"/>
<path class="st0" d="M384.9,18.9v-7.1h15.3v7.1H384.9z M399,17.8V13h-12.8l-0.1,4.8H399z M398.9,10.6V0.2h1.2v4.1h3v1.1h-3v5.1
	H398.9z M384.2,9.4V0.8h1.2v7.4h4.7c0.3,0,0.7,0,1,0c2.1,0,4.2-0.3,6.2-1l0.2-0.1v1.2l-0.1,0c-1.3,0.6-4,1-7.4,1H384.2z"/>
<path class="st0" d="M390,9.2h-5.6V0.9h0.9v7.4h4.8c2.4,0.1,4.9-0.2,7.2-1v0.9C396.1,8.8,393.4,9.2,390,9.2z M385,12h15v6.8h-15V12z
	 M385.9,17.9h13.2v-5.1H386L385.9,17.9z M403,5.3h-3v5.1h-0.9v-10h0.9v4.1h3V5.3z"/>
<path class="st0" d="M421.2,19.1v-4.8h-15l0-1.1h16.2v6H421.2z M421.2,12.1v-6h-4.2V12h-1.2V0.4h1.2V5h4.2V0.2h1.2v11.9H421.2z
	 M404.6,10.2L404.6,10.2c3.2-1,4.6-4,4.6-9.6V0.5h1.2l0,0.1c0,1.6-0.1,3.1-0.4,4.6l4.7,5.1l-0.9,0.8l-4.2-4.5
	c-0.7,2.3-2.5,4.1-4.9,4.8l-0.2,0V10.2z"/>
<path class="st0" d="M404.8,11.2v-0.9c3.8-1.2,4.6-5.3,4.6-9.7h0.9c0,1.6-0.1,3.1-0.4,4.7l4.7,5l-0.7,0.6l-4.3-4.6
	C409,8.7,407.1,10.6,404.8,11.2z M406.3,13.3h16V19h-0.9v-4.8h-15L406.3,13.3z M422.3,0.4V12h-0.9V6h-4.5v5.8H416V0.5h0.9v4.6h4.5
	V0.4H422.3z"/>
<path class="st0" d="M441.4,19.3V0.2h1.2v8.1h2.9v1.2h-2.9v9.9H441.4z M433.5,18c-0.4,0-0.7,0-1.1,0h-6.7v-1.1h4v-9h1.2v9h1.4
	c3.5,0,5.8-0.3,7.1-0.8l0.2-0.1v1.2l-0.1,0C437.6,17.7,435.5,18,433.5,18z M436,13.5V2.3h-9.5V1.1h10.7v12.4H436z"/>
<path class="st0" d="M432.3,17c3.1,0,5.7-0.2,7.2-0.9V17c-2.3,0.7-4.7,0.9-7.1,0.8h-6.5V17h4V8h0.9V17H432.3z M436.2,2.1h-9.5V1.2
	h10.5v12.1h-0.9V2.1z M445.4,9.3h-2.9v9.9h-0.9V0.4h0.9v8.1h2.9V9.3z"/>
<path class="st0" d="M468.6,19.3V0.2h1.2v8.2h3v1.1h-3v9.7H468.6z M459.8,18.2c-3,0-5.1-2.4-5.1-5.8c0-3.4,2.2-5.8,5.1-5.8
	s5.1,2.4,5.1,5.8C464.9,15.8,462.7,18.2,459.8,18.2z M459.7,7.8c-2,0-3.9,1.6-3.9,4.7c0,3.1,2,4.7,3.9,4.7c2,0,4-1.6,4-4.7
	C463.7,9.4,461.7,7.8,459.7,7.8z M453.5,4.8V3.7h5.6V0.2h1.2v3.5h5.6v1.1H453.5z"/>
<path class="st0" d="M460.2,3.8h5.6v0.9h-12.2V3.8h5.6V0.3h0.9L460.2,3.8z M464.8,12.4c0,3.5-2.3,5.6-5,5.6s-5-2.2-5-5.6
	s2.3-5.7,5-5.7S464.8,8.9,464.8,12.4z M463.8,12.4c0-2.9-1.9-4.8-4.1-4.8s-4.1,1.9-4.1,4.8s1.9,4.8,4.1,4.8S463.8,15.4,463.8,12.4z
	 M472.7,9.5h-3v9.7h-0.9V0.4h0.9v8.2h3V9.5z"/>
<path class="st0" d="M475.9,18.9v-6.1h1.2v4.9h14.6v1.1H475.9z M489.9,14.5V0.2h1.2v2.9h3v1.1h-3v3.9h3v1.1h-3v5.3H489.9z
	 M480.2,11.5c-3.5,0-5.8-2.2-5.8-5.5c0-3.3,2.3-5.5,5.8-5.5s5.8,2.2,5.8,5.5C486.1,9.3,483.7,11.5,480.2,11.5z M480.2,1.7
	c-2.8,0-4.6,1.7-4.6,4.3c0,2.6,1.8,4.4,4.6,4.4c2.8,0,4.6-1.7,4.6-4.4C484.8,3.4,483,1.7,480.2,1.7z"/>
<path class="st0" d="M480.2,11.3c-3.6,0-5.7-2.4-5.7-5.3s2-5.3,5.7-5.3s5.7,2.4,5.7,5.3S483.9,11.3,480.2,11.3z M480.2,10.5
	c2.9,0,4.7-1.8,4.7-4.5s-1.9-4.5-4.7-4.5s-4.7,1.8-4.7,4.5S477.4,10.5,480.2,10.5z M477,17.9h14.6v0.9h-15.5v-5.8h0.9V17.9z
	 M490.9,4.1v4.2h3v0.9h-3v5.3H490v-14h0.9v2.9h3v0.9H490.9z"/>
<path class="st0" d="M512.1,19.1v-4.8h-15l-0.1-1.1h16.3v6H512.1z M512,12.1v-6h-4.2V12h-1.2V0.4h1.2V5h4.2V0.2h1.2v11.9H512z
	 M495.4,10.2L495.4,10.2c3.2-1,4.6-4,4.6-9.6V0.5h1.2l0,0.1c0,1.6-0.1,3.1-0.4,4.6l4.7,5.1l-0.9,0.8l-4.2-4.5
	c-0.7,2.3-2.5,4.1-4.9,4.8l-0.2,0V10.2z"/>
<path class="st0" d="M495.6,11.2v-0.9c3.8-1.2,4.6-5.3,4.6-9.7h0.9c0,1.6-0.1,3.1-0.4,4.7l4.7,5l-0.7,0.6l-4.3-4.6
	C499.8,8.7,497.9,10.6,495.6,11.2z M497.1,13.3h16V19h-0.9v-4.8h-15L497.1,13.3z M513.1,0.4V12h-0.9V6h-4.4v5.8h-0.9V0.5h0.9v4.6
	h4.4V0.4H513.1z"/>
<path class="st0" d="M518,18.9v-4.2h14.8v-1.9h-14.8v-1.1h16v4.1h-14.8v2h15.2v1.1H518z M516.5,9.7V8.6h18.9v1.1H516.5z M526,7.2
	c-2.4,0-8.1-0.3-8.1-3.4c0-2.2,3-3.4,8.1-3.4c2.4,0,8.1,0.3,8.1,3.4C534.1,6.9,528.4,7.2,526,7.2z M526,1.5c-3.4,0-7,0.6-7,2.3
	c0,1.4,2.6,2.3,6.9,2.3c4.3,0,6.9-0.9,6.9-2.3C532.9,2.3,530.3,1.5,526,1.5z"/>
<path class="st0" d="M535.2,9.6h-18.6V8.8h18.6V9.6z M534,3.8c0,2.4-3.8,3.3-8,3.3s-8-0.9-8-3.3s3.8-3.3,8-3.3S534,1.4,534,3.8z
	 M533.8,15.7h-14.8v2.2h15.2v0.8h-16.1v-3.9h14.8v-2.2h-14.8v-0.8h15.7V15.7z M518.9,3.8c0,1.8,3.4,2.5,7.1,2.5s7.1-0.7,7.1-2.5
	s-3.4-2.4-7.1-2.4S518.9,2,518.9,3.8z"/>
<path class="st0" d="M559.4,19.3V0.2h1.2v8.2h3v1.2h-3v9.7H559.4z M544.2,16.9l0.1,0c4.5-0.8,6.2-8.8,6.2-15.9l0-0.1h1.2l0,0.1
	c0,2.7-0.2,5.4-0.7,8l6.4,8.3l-1,0.7l-5.8-7.6c-1.2,4.6-3.4,7.2-6.3,7.6l-0.2,0V16.9z"/>
<path class="st0" d="M550.8,9l6.3,8.3l-0.7,0.5l-5.8-7.7c-1.1,4.5-3.2,7.4-6.2,7.8V17c4.4-0.8,6.3-8.1,6.3-16.1h0.9
	C551.6,3.6,551.3,6.3,550.8,9z M563.5,9.5h-3v9.7h-0.9V0.4h0.9v8.2h3V9.5z"/>
<path class="st0" d="M574.4,19.2c-3,0-8.1-0.4-8.1-3.4c0-2.9,5.1-3.3,8.1-3.3s8.1,0.4,8.1,3.3C582.6,18.8,577.5,19.2,574.4,19.2z
	 M574.4,13.7c-1.6,0-6.9,0.2-6.9,2.2c0,1.6,3.5,2.2,6.9,2.2c3.3,0,6.7-0.6,6.9-2.1l-0.1-0.1C581.3,13.8,576,13.7,574.4,13.7z
	 M565,10.7V9.5h4.6V6.9c-2.2-0.6-3.4-1.6-3.4-3c0-2.2,3.1-3.6,8.2-3.6c5.1,0,8.2,1.3,8.2,3.6c0,1.4-1.2,2.5-3.4,3v2.6h4.6v1.1H565z
	 M578,9.5V7.2c-1.1,0.2-2.2,0.3-3.4,0.3h-0.4c-1.1,0-2.3-0.1-3.4-0.3v2.4H578z M574.4,1.4c-3.2,0-7,0.6-7,2.4c0,1.8,3.8,2.4,7,2.4
	c3.2,0,7-0.6,7-2.4C581.4,2.1,577.7,1.4,574.4,1.4z"/>
<path class="st0" d="M583.7,9.7v0.9h-18.6V9.7h4.6V6.8c-2-0.5-3.4-1.5-3.4-2.9c0-2.4,3.8-3.4,8-3.4s8.1,1,8.1,3.4
	c0,1.5-1.4,2.4-3.4,2.9v2.9H583.7z M582.4,15.8c0,2.5-4,3.2-8,3.2s-8-0.7-8-3.2s4-3.2,8-3.2S582.4,13.4,582.4,15.8z M574.4,6.4
	c3.7,0,7.1-0.8,7.1-2.6s-3.5-2.6-7.1-2.6s-7.1,0.8-7.1,2.6S570.8,6.4,574.4,6.4L574.4,6.4z M581.4,15.8c0-1.8-3.8-2.3-7-2.3
	s-7,0.5-7,2.3s3.7,2.4,7,2.4S581.5,17.6,581.4,15.8L581.4,15.8z M570.7,9.7h7.4V7c-1.2,0.2-2.5,0.3-3.7,0.3c-1.2,0-2.5-0.1-3.7-0.3
	V9.7z"/>
<path class="st0" d="M601.8,19.3V0.2h1.2v8.2h3v1.1h-3v9.7H601.8z M592.9,18.2c-3,0-5.1-2.4-5.1-5.8c0-3.4,2.2-5.8,5.1-5.8
	s5.1,2.4,5.1,5.8C598.1,15.8,595.9,18.2,592.9,18.2z M592.9,7.8c-2,0-4,1.6-4,4.7c0,3.1,2,4.7,4,4.7c2,0,3.9-1.6,4-4.5l0-0.1
	C596.8,9.4,594.8,7.8,592.9,7.8z M586.6,4.8V3.7h5.6V0.2h1.2v3.5h5.7v1.1H586.6z"/>
<path class="st0" d="M593.3,3.8h5.7v0.9h-12.2V3.8h5.6V0.3h0.9L593.3,3.8z M597.9,12.4c0,3.5-2.3,5.6-5,5.6s-5-2.2-5-5.6
	s2.3-5.7,5-5.7S597.9,8.9,597.9,12.4L597.9,12.4z M597,12.4c0-2.9-1.9-4.8-4.1-4.8s-4.1,1.9-4.1,4.8s1.9,4.8,4.1,4.8
	S597,15.4,597,12.4L597,12.4z M605.8,9.5h-3v9.7h-0.9V0.4h0.9v8.2h3V9.5z"/>
<path class="st0" d="M621.7,15.4c-0.8,1.8-2.4,3.1-4.4,3.4l-0.1,0l-3.5-3.3c-0.9,1.7-2.5,2.9-4.4,3.3l-0.2,0v-1.1l0.1,0
	c2.3-0.4,4.3-3.2,4.5-6.3l0-0.1l1.2,0.1l0,0.1c-0.1,1-0.3,2-0.7,3l3.3,3.2c2.1-0.6,3.7-3.2,3.9-6.3l0-0.1l1.2,0.1l0,0.1
	c-0.1,1-0.3,1.9-0.6,2.8l4.4,3.7l-0.8,0.9L621.7,15.4z M623.6,11V8.2h-4.2l0.1-1.1h4.1V3.6h-4.1l-0.1-1.1h4.2V0.2h1.2V11H623.6z
	 M613.5,10.3c-3.4,0-5.7-1.9-5.7-4.9s2.3-4.9,5.7-4.9s5.7,1.9,5.7,4.9C619.2,8.4,616.9,10.3,613.5,10.3z M613.5,1.8
	c-2.7,0-4.5,1.5-4.5,3.7s1.8,3.7,4.5,3.7s4.5-1.5,4.5-3.7S616.2,1.8,613.5,1.8z"/>
<path class="st0" d="M613.5,10.2c-3.5,0-5.6-2.1-5.6-4.7s2-4.7,5.6-4.7s5.6,2,5.6,4.7S617,10.2,613.5,10.2z M613.5,9.3
	c2.8,0,4.6-1.5,4.6-3.8s-1.9-3.8-4.6-3.8s-4.6,1.5-4.6,3.8S610.7,9.3,613.5,9.3z M625.8,18.7l-4.1-3.5c-0.8,1.8-2.4,3.2-4.3,3.5
	l-3.5-3.4c-0.8,1.8-2.5,3-4.4,3.4v-0.9c2.4-0.4,4.4-3.2,4.6-6.4l0.9,0.1c-0.1,1-0.3,2-0.7,3l3.5,3.3c2.2-0.5,3.9-3.2,4.1-6.4
	l0.9,0.1c-0.1,1-0.3,2-0.6,2.9l4.4,3.7L625.8,18.7z M623.8,7.2V3.4h-4.1l-0.1-0.9h4.2V0.4h0.9v10.5h-0.9V8.1h-4.2l0.1-0.9L623.8,7.2
	z"/>
<path class="st0" d="M630,18.9v-7.3h1.2v2.5h13.5v-2.5h1.2v7.3H630z M631.2,17.7l13.5,0v-2.4h-13.5V17.7z M628.5,10.1V9h18.9v1.2
	H628.5z M637.7,3.5c-2.2,2.3-5.1,3.6-8.3,3.7l-0.1,0V6l0.1,0c3.6-0.1,8-2.5,8.9-6.1l0-0.1l1.2,0.2l0,0.1c-0.2,0.8-0.5,1.6-1,2.4
	l8.1,3.7l-0.5,1L637.7,3.5z"/>
<path class="st0" d="M647.2,9.1V10h-18.6V9.1H647.2z M629.5,7V6.2c3.7-0.1,8.1-2.5,9-6.2l0.9,0.2c-0.2,0.9-0.5,1.7-1,2.5l8.1,3.7
	l-0.4,0.8l-8.4-3.8C635.5,5.6,632.6,6.9,629.5,7z M644.8,11.7h0.9v7h-15.6v-7h0.9v2.5h13.8V11.7z M644.8,17.8v-2.7h-13.7v2.8
	L644.8,17.8z"/>
<path class="st0" d="M665.7,19.3V0.2h1.3v19.1H665.7z M651,17.9V1h1.2v15.9h6.5c1.7,0,3.3-0.3,4.8-1l0.2-0.1V17l-0.1,0
	c-1.5,0.6-3.1,0.9-4.7,0.9L651,17.9z"/>
<path class="st0" d="M652,17h6.7c1.7,0,3.3-0.3,4.9-1v0.9c-1.5,0.6-3.2,1-4.9,0.9h-7.6V1.1h0.9V17z M666.9,19.2h-1V0.4h1V19.2z"/>
<path class="st0" d="M686.4,19.3V0.2h1.2v8.2h3v1.2h-3v9.7H686.4z M671.9,18V1.1H683v1.1h-9.9v14.6l6.4,0c1.6,0,3.2-0.3,4.7-0.9
	l0.2-0.1V17l-0.1,0c-1.5,0.6-3.1,0.9-4.7,0.9L671.9,18z"/>
<path class="st0" d="M679.5,17c1.7,0,3.3-0.3,4.9-1v0.9c-1.5,0.6-3.2,0.9-4.9,0.9h-7.4V1.2h10.8v0.9H673V17H679.5z M690.5,9.5h-3
	v9.7h-0.9V0.4h0.9v8.2h3V9.5z"/>
<circle class="st0" cx="693.2" cy="17.9" r="1.1"/>
<path class="st0" d="M694.2,17.9c0,0.6-0.4,1-1,1s-1-0.4-1-1s0.4-1,1-1S694.2,17.4,694.2,17.9z"/>
<path class="st0" d="M1.7,52.2v-1.1h8.8v-4.6h1.2v4.6h8.8v1.1H1.7z M11.5,45.6V35.1h7.6v1.1h-6.4v8.2h6.5v1.1H11.5z M2.9,45.6V35.1
	h7.5v1.1H4.1v8.2h6.3v1.1H2.9z"/>
<path class="st0" d="M20.4,51.2v0.8H1.8v-0.8h8.8v-4.6h0.9v4.7L20.4,51.2z M10.3,45.5H3.1V35.2h7.3v0.9H4v8.5h6.3V45.5z M19.1,45.5
	h-7.4V35.2H19v0.9h-6.4v8.5h6.5V45.5z"/>
<path class="st0" d="M24.3,52.9V48h1.2l0.1,3.8h14.8v1.1H24.3z M38.4,48.6V34.2h1.2V40h3v1.1h-3v7.5H38.4z M29.4,46.7
	c-3.3,0-5.5-1.6-5.5-4s2.2-4,5.5-4s5.5,1.6,5.5,4S32.7,46.7,29.4,46.7z M25.1,42.8c0,1.7,1.7,2.9,4.3,2.9c2.6,0,4.3-1.1,4.3-2.9
	s-1.7-2.9-4.3-2.9c-2.5,0-4.3,1.1-4.4,2.7L25.1,42.8z M22.9,37.6v-1.1h5.9v-2.6h1.2v2.5h5.9v1.2H22.9z"/>
<path class="st0" d="M35.7,37.4H23v-0.9h5.9V34h0.9v2.5h5.9V37.4z M24,42.8c0-2.4,2.3-3.8,5.4-3.8s5.4,1.5,5.4,3.8s-2.3,3.8-5.4,3.8
	S24,45.1,24,42.8z M25.4,51.9h14.8v0.8H24.5v-4.6h0.9L25.4,51.9z M24.9,42.8c0,1.8,1.7,3,4.5,3s4.5-1.2,4.5-3s-1.7-3-4.5-3
	S24.9,41,24.9,42.8L24.9,42.8z M42.5,40.2V41h-3v7.5h-0.9V34.4h0.9v5.8H42.5z"/>
<polygon class="st0" points="44,55.4 44.7,50.9 46,50.9 45.1,55.4 "/>
<path class="st0" d="M45,55.2h-0.8l0.7-4.2h1L45,55.2z"/>
<path class="st0" d="M70.8,53.3V43h-5.3v-1.1h5.3v-7.6l1.2-0.1v19.1H70.8z M54.8,50.9l0.1,0c3.4-0.8,5.6-6.4,5.7-14.6h-5.5v-1.1
	h12.1v1.1h-5.5c0,2.2-0.2,4.5-0.6,6.7l6.7,8.1L67,51.7l-6.1-7.3c-1.1,4.4-3.2,7-6,7.6l-0.2,0V50.9z"/>
<path class="st0" d="M61.1,43l6.7,8L67,51.5l-6.2-7.5c-1.1,4.4-3.1,7.1-5.9,7.7V51c3.8-0.9,5.8-7.1,5.8-14.8h-5.5v-0.9h11.9v0.9
	h-5.5C61.7,38.4,61.5,40.7,61.1,43z M71.8,34.3v18.8h-0.9V42.8h-5.3V42h5.3v-7.6L71.8,34.3z"/>
<path class="st0" d="M91.9,53.3V34.2h1.2l0,19.1H91.9z M75.6,52v-1.1h7.1c3.2,0,5.8-0.4,7.1-1l0.2-0.1V51L90,51
	c-1.3,0.6-4.1,1-7.4,1H75.6z M82.2,46.8c-3.1,0-5.7-2.4-5.8-5.6c0-0.2,0-0.3,0-0.5c-0.1-1.5,0.5-3,1.5-4.2c1-1.1,2.5-1.8,4-1.9
	c0.1,0,0.2,0,0.2,0c3.1,0,5.7,2.4,5.8,5.6c0,0.2,0,0.3,0,0.5c0.1,3.2-2.4,5.9-5.6,6C82.3,46.8,82.3,46.8,82.2,46.8z M82.2,36.2
	c-2.5,0-4.6,2-4.6,4.6c0,1.2,0.5,2.4,1.3,3.2c0.9,0.9,2,1.3,3.2,1.3c2.5,0,4.6-2,4.6-4.6c0-1.2-0.5-2.4-1.3-3.2
	C84.6,36.7,83.4,36.2,82.2,36.2V36V36.2z"/>
<path class="st0" d="M82.7,51.8h-6.9V51h7c3.3,0,5.8-0.4,7.2-1v0.9C88.7,51.5,86,51.8,82.7,51.8z M87.8,40.7
	c0.1,3.1-2.3,5.8-5.4,5.9s-5.8-2.3-5.9-5.4c0-0.2,0-0.3,0-0.5c-0.1-3.1,2.3-5.8,5.4-5.9s5.8,2.3,5.9,5.4
	C87.8,40.4,87.8,40.6,87.8,40.7z M77.5,40.7c0,2.6,2.1,4.7,4.7,4.7c2.6,0,4.7-2.1,4.7-4.7c0,0,0,0,0,0c0-2.6-2.1-4.7-4.7-4.7
	C79.6,36,77.5,38.1,77.5,40.7C77.5,40.7,77.5,40.7,77.5,40.7z M92.9,53.2H92V34.4h0.9L92.9,53.2z"/>
<path class="st0" d="M118.5,52.8v-6.5H113v-1.2h6.8v7.6H118.5z M104.3,52.8v-4.3h6.5v-2.1h-6.5v-1.1h7.7v4.4h-6.4v2.1h7.4v1.1H104.3
	z M118.5,44.2v-9.9h1.2v4h3v1.1h-3v4.8H118.5z M103.9,43.1v-8.5h1.2v3h8.5v-3h1.2l0,8.5H103.9z M105.1,42.1l8.5,0v-3.2h-8.5V42.1z"
	/>
<path class="st0" d="M114.6,43H104v-8.2h0.9v3h8.7v-3h0.9L114.6,43z M105.3,51.8h7.4v0.8h-8.3v-4h6.5v-2.4h-6.5v-0.8h7.4v4.1h-6.4
	L105.3,51.8z M113.7,42.2v-3.5h-8.7v3.5L113.7,42.2z M113.1,45.3h6.5v7.3h-0.9v-6.5h-5.6V45.3z M122.6,39.2h-3V44h-0.9v-9.6h0.9v4h3
	V39.2z"/>
<path class="st0" d="M124.1,52.2v-1.1h7.7v-9.3h1.2v9.3h9.9v1.1H124.1z M140.3,47.8V36.2h-14.9v-1.1h16.1v12.7H140.3z"/>
<path class="st0" d="M142.8,51.2v0.8h-18.6v-0.8h7.7v-9.3h0.9v9.3H142.8z M140.5,36.1h-14.9v-0.9h15.8v12.4h-0.9L140.5,36.1z"/>
<path class="st0" d="M160.9,53.1c-2.4,0-8.1-0.4-8.1-3.7s5.7-3.7,8.1-3.7c2.4,0,8.1,0.4,8.1,3.7c0,0,0,0,0,0
	C169,52.8,163.3,53.1,160.9,53.1z M154,49.5c0,1.9,3.7,2.5,6.9,2.5c3.2,0,6.9-0.7,6.9-2.5c0-1.9-3.7-2.5-6.9-2.5
	C157.4,46.9,154,47.7,154,49.5z M151.4,43.6v-1.1h18.9v1.1H151.4z M167.6,41.3v-5.5h-14.7v-1.1h15.9v6.6H167.6z"/>
<path class="st0" d="M170.2,43.5h-18.6v-0.9h18.6V43.5z M168.9,49.5c0,2.7-4,3.5-8,3.5s-8-0.9-8-3.5s4-3.5,8-3.5
	S168.9,46.8,168.9,49.5L168.9,49.5z M168.6,41.1h-0.9v-5.5H153v-0.9h15.6V41.1z M153.8,49.5c0,2,3.8,2.7,7.1,2.7s7.1-0.7,7.1-2.7
	s-3.8-2.7-7.1-2.7S153.8,47.5,153.8,49.5L153.8,49.5z"/>
<path class="st0" d="M182.4,53.1c-5,0-7.9-1.4-7.9-3.7c0-2.4,2.9-3.7,7.9-3.7c4.9,0,7.7,1.3,7.8,3.6h0l0,0.1
	C190.3,51.8,187.4,53.1,182.4,53.1z M182.4,46.9c-4.1,0-6.7,1-6.7,2.6c0,1.6,2.6,2.6,6.7,2.6c4.1,0,6.6-1,6.6-2.6v-0.1h0
	C188.9,47.8,186.4,46.9,182.4,46.9z M188.9,45.1v-5.7h-4.5v-1.1l4.6,0v-4.1h1.2v10.9H188.9z M173,43.2l0.1,0
	c3.6-0.7,5.7-3.2,5.9-7.1h-5.8v-1.1h12.3v1.1h-5.3c0,1-0.2,1.9-0.5,2.9l6.5,4.3l-0.7,0.9l-6.2-4.2c-1.2,2.4-3.5,4-6.1,4.3l-0.2,0
	V43.2z"/>
<path class="st0" d="M173.2,44.2v-0.9c3.6-0.7,5.8-3.2,6-7.4h-5.8v-0.9h12v0.9h-5.3c0,1-0.2,2.1-0.6,3l6.5,4.3l-0.5,0.7l-6.2-4.2
	C178.1,42.2,175.8,43.9,173.2,44.2z M190.2,49.4c0,2.5-3.4,3.6-7.7,3.6s-7.8-1.1-7.8-3.6s3.4-3.6,7.8-3.6S190.1,46.9,190.2,49.4
	L190.2,49.4z M189.2,49.4c0-1.8-3-2.7-6.8-2.7s-6.8,0.9-6.8,2.7s3,2.7,6.8,2.7S189.2,51.2,189.2,49.4L189.2,49.4z M189.1,38.4v-4
	h0.9V45h-0.9v-5.7h-4.6v-0.8L189.1,38.4z"/>
<path class="st0" d="M210.1,53.1v-5h-14.6V47h15.8v6.1H210.1z M210.1,46v-5.9h-4.5v-1.1h4.5v-4.7h1.2V46H210.1z M194.2,44.1l0.1,0
	c3.6-0.7,5.7-3.5,5.9-8h-5.8v-1.1h12.3v1.1h-5.3c0,1.2-0.2,2.3-0.5,3.4l6.4,4.7l-0.7,0.9l-6.1-4.5c-1.1,2.5-3.4,4.2-6.1,4.6l-0.2,0
	V44.1z"/>
<path class="st0" d="M194.3,45.1v-0.9c3.6-0.7,5.9-3.5,6-8.2h-5.8v-0.9h12v0.9h-5.3c0,1.2-0.2,2.4-0.6,3.6l6.3,4.7l-0.5,0.7
	l-6.1-4.5C199.3,42.9,197,44.7,194.3,45.1z M195.6,47.2h15.5V53h-0.9v-5h-14.6V47.2z M211.1,34.4v11.5h-0.9v-5.9h-4.5v-0.8h4.5v-4.7
	H211.1z"/>
<path class="st0" d="M217,52.9v-6.1h1.2v4.9h14.8v1.1H217z M231,48.5V34.2h1.2v14.3H231z M221.2,45.5c-3.5,0-5.9-2.2-5.9-5.5
	c0-3.3,2.4-5.5,5.9-5.5c4.1,0,5.9,2.7,5.9,5.5C227.1,43.3,224.8,45.5,221.2,45.5z M216.6,40.1c0.1,2.6,1.9,4.2,4.7,4.2
	c2.8,0,4.7-1.7,4.7-4.4c0-2.6-1.9-4.4-4.7-4.4c-2.8,0-4.7,1.8-4.7,4.4L216.6,40.1L216.6,40.1z"/>
<path class="st0" d="M227,40c0,3-2.1,5.3-5.8,5.3s-5.8-2.3-5.8-5.3s2.1-5.3,5.8-5.3S227,37.1,227,40z M216.4,40
	c0,2.7,1.9,4.5,4.8,4.5s4.8-1.8,4.8-4.5s-1.9-4.5-4.8-4.5S216.4,37.3,216.4,40L216.4,40z M218,51.9h14.8v0.8h-15.7v-5.8h0.9V51.9z
	 M232.1,48.4h-0.9v-14h0.9V48.4z"/>
<path class="st0" d="M242.3,52.2v-1.1h8.8v-5.5h-7.4V35.1h16v10.5h-7.4v5.5h8.9v1.1H242.3z M258.5,44.5v-8.2h-13.6l0,8.2H258.5z"/>
<path class="st0" d="M261,51.2v0.8h-18.6v-0.8h8.8v-5.8h-7.4V35.2h15.7v10.2h-7.4v5.8H261z M244.8,44.6h13.9v-8.5h-13.9L244.8,44.6z
	"/>
<path class="st0" d="M264.9,52.9v-7.3h1.2v2.5h13.5l0-2.5h1.2v7.3H264.9z M266.1,51.7l13.5,0v-2.4h-13.5V51.7z M263.4,44.1V43
	l18.9,0v1.2H263.4z M272.7,37.4c-2.2,2.3-5.1,3.6-8.3,3.7l-0.1,0V40l0.1,0c3.6-0.1,8-2.5,8.8-6.1l0-0.1l1.2,0.2l0,0.1
	c-0.2,0.8-0.5,1.6-1,2.4l8.1,3.7l-0.5,1L272.7,37.4z"/>
<path class="st0" d="M282.1,43.1V44h-18.6v-0.9L282.1,43.1z M264.4,41v-0.9c3.6-0.1,8.1-2.5,9-6.2l0.9,0.2c-0.2,0.9-0.5,1.7-1.1,2.5
	l8.1,3.7l-0.4,0.8l-8.3-3.8C270.5,39.5,267.5,40.9,264.4,41z M279.8,45.7h0.9v7h-15.6v-7h0.9v2.5h13.8L279.8,45.7z M279.8,51.8v-2.7
	H266v2.8L279.8,51.8z"/>
<path class="st0" d="M300.2,53.3V34.2h1.2v8.1h2.9v1.2h-2.9v9.9H300.2z M292.3,52c-0.4,0-0.7,0-1.1,0h-6.7v-1.1h4v-9h1.2v9h1.4
	c3.5,0,5.8-0.3,7.1-0.8l0.2-0.1v1.2l-0.1,0C296.5,51.7,294.4,52,292.3,52z M294.9,47.5l0-11.3h-9.5v-1.1h10.8v12.4H294.9z"/>
<path class="st0" d="M291.2,51c3.1,0,5.7-0.2,7.2-0.9V51c-2.3,0.7-4.7,0.9-7.1,0.8h-6.5V51h4v-9h0.9v9H291.2z M295.1,36.1h-9.5v-0.9
	H296v12.1h-0.9L295.1,36.1z M304.2,43.3h-2.9v9.9h-0.9V34.4h0.9v8.1h2.9V43.3z"/>
<path class="st0" d="M327.5,53.3V34.2h1.2v8.2h3v1.1h-3v9.7H327.5z M318.4,45c-1.2,4-3.3,6.4-6,7l-0.2,0v-1.1l0.1,0
	c3.3-0.8,5.5-5.3,5.8-12h-5.7v-1.1h5.7v-3.5h1.2v3.5h5.4v1.1h-5.4c-0.1,1.6-0.3,3.2-0.6,4.8l6.5,7.6l-0.8,0.8L318.4,45z"/>
<path class="st0" d="M318.6,43.6l6.5,7.6l-0.6,0.6l-6.1-7.1c-1.1,4-3.2,6.6-6,7.2V51c3.6-0.8,5.6-6,5.9-12.3h-5.7v-0.9h5.7v-3.5h0.9
	v3.5h5.4v0.9h-5.4C319.2,40.4,319,42,318.6,43.6z M331.6,43.5h-3v9.7h-0.9V34.4h0.9v8.2h3V43.5z"/>
<path class="st0" d="M334.6,52.9v-5.2h1.2l0,4h15.1v1.1H334.6z M341.9,49.3v-3.5h-8.8v-1.1h18.8v1.1h-8.8v3.5H341.9z M334.6,42.4v-8
	h1.2v3h13.4v-3h1.2v8H334.6z M349.2,41.3v-2.8h-13.4v2.8H349.2z"/>
<path class="st0" d="M351.8,44.8v0.9H343v3.5h-0.9v-3.5h-8.8v-0.9H351.8z M335.6,51.9h15.1v0.9h-16v-4.9h0.9L335.6,51.9z
	 M350.3,42.3h-15.5v-7.7h0.9v3h13.7v-3h0.9V42.3z M349.4,41.5v-3.1h-13.7v3.1H349.4z"/>
<path class="st0" d="M355.7,52.9V48h1.2v3.8h14.8v1.1H355.7z M369.9,48.6V34.2h1.2V40h3v1.1h-3v7.5H369.9z M360.8,46.7
	c-3.3,0-5.5-1.6-5.5-4s2.2-4,5.5-4c3.3,0,5.5,1.6,5.5,4S364.1,46.7,360.8,46.7z M360.8,39.9c-2.6,0-4.3,1.1-4.3,2.9s1.7,2.9,4.3,2.9
	c2.6,0,4.3-1.1,4.3-2.9S363.4,39.9,360.8,39.9z M354.3,37.6v-1.1h5.9v-2.6h1.2v2.5h5.9v1.2H354.3z"/>
<path class="st0" d="M367.1,37.4h-12.7v-0.9h5.9V34h0.9v2.5h5.9V37.4z M355.4,42.8c0-2.4,2.3-3.8,5.4-3.8s5.4,1.5,5.4,3.8
	s-2.3,3.8-5.4,3.8S355.4,45.1,355.4,42.8z M356.8,51.9h14.8v0.8h-15.7v-4.6h0.9V51.9z M356.3,42.8c0,1.8,1.7,3,4.5,3s4.5-1.2,4.5-3
	s-1.7-3-4.5-3S356.3,41,356.3,42.8z M373.9,40.2V41h-3v7.5H370V34.4h0.9v5.8L373.9,40.2z"/>
<path class="st0" d="M381.6,52.2v-1.1h8.8v-5.5H383V35.1h16v10.5h-7.4v5.5h8.8v1.1H381.6z M397.8,44.5v-8.2h-13.6v8.2H397.8z"/>
<path class="st0" d="M400.3,51.2v0.8h-18.6v-0.8h8.8v-5.8h-7.4V35.2h15.7v10.2h-7.4v5.8H400.3z M384.1,44.6h13.9v-8.5h-13.9V44.6z"
	/>
<path class="st0" d="M404.3,52.9v-7.3h1.2v2.5h13.5l0-2.5h1.2v7.3H404.3z M405.4,51.7l13.5,0v-2.4h-13.5V51.7z M402.7,44.1V43
	l18.9,0v1.2H402.7z M412,37.4c-2.2,2.3-5.1,3.6-8.3,3.7l-0.1,0V40l0.1,0c3.6-0.1,8-2.5,8.9-6.1l0-0.1l1.2,0.2l0,0.1
	c-0.2,0.8-0.5,1.6-1,2.4l8.1,3.7l-0.5,1L412,37.4z"/>
<path class="st0" d="M421.5,43.1V44h-18.6v-0.9L421.5,43.1z M403.7,41v-0.9c3.6-0.1,8.1-2.5,9-6.2l0.9,0.2c-0.2,0.9-0.5,1.7-1.1,2.5
	l8.1,3.7l-0.4,0.8l-8.3-3.8C409.8,39.6,406.8,40.9,403.7,41z M419,45.7h1v7h-15.6v-7h0.9v2.5h13.8L419,45.7z M419,51.8v-2.7h-13.8
	v2.8L419,51.8z"/>
<path class="st0" d="M425.3,52.9v-4.2h14.8v-1.9h-14.8v-1.1h16v4.1h-14.8v2h15.2v1.1H425.3z M423.9,43.7v-1.1h18.8l0.1,1.1H423.9z
	 M433.4,41.2c-2.4,0-8.1-0.3-8.1-3.4c0-2.2,3-3.4,8.1-3.4c2.4,0,8.1,0.3,8.1,3.4C441.5,40.9,435.8,41.2,433.4,41.2z M433.3,35.5
	c-3.4,0-6.9,0.6-6.9,2.3c0,1.4,2.6,2.3,6.9,2.3c4.3,0,6.9-0.9,6.9-2.3C440.3,36.3,437.7,35.5,433.3,35.5z"/>
<path class="st0" d="M442.6,43.6H424v-0.8h18.6L442.6,43.6z M441.4,37.8c0,2.4-3.8,3.3-8,3.3s-8-0.9-8-3.3s3.8-3.3,8-3.3
	S441.4,35.4,441.4,37.8z M441.2,49.7h-14.8v2.2h15.2v0.8h-16.1v-3.9h14.8v-2.2h-14.8v-0.8h15.7L441.2,49.7z M426.2,37.8
	c0,1.8,3.4,2.5,7.1,2.5s7.1-0.7,7.1-2.5s-3.4-2.4-7.1-2.4S426.2,36,426.2,37.8z"/>
<path class="st0" d="M460.6,53.2c-3,0-8.1-0.4-8.1-3.4c0-2.9,5.1-3.4,8.1-3.4s8.1,0.4,8.1,3.4C468.8,52.8,463.7,53.2,460.6,53.2z
	 M460.7,47.6c-3.3,0-6.9,0.6-6.9,2.2c0,1.6,3.6,2.2,6.9,2.2s6.9-0.6,6.9-2.2C467.6,48.2,464,47.6,460.7,47.6z M451.2,44.5v-1.1h8.8
	V41h-7.3v-6.3h15.8v1.1H454v4.1h14.8V41h-7.6v2.4l8.8,0v1.1H451.2z"/>
<path class="st0" d="M469.9,43.5v0.9h-18.6v-0.9h8.8v-2.7h-7.3v-6h15.6v0.9h-14.6V40h14.9v0.9h-7.6v2.7L469.9,43.5z M468.6,49.8
	c0,2.5-4,3.2-8,3.2s-8-0.7-8-3.2s4-3.2,8-3.2S468.6,47.4,468.6,49.8L468.6,49.8z M467.7,49.8c0-1.8-3.8-2.3-7.1-2.3
	s-7.1,0.5-7.1,2.3s3.8,2.4,7.1,2.4S467.7,51.6,467.7,49.8z"/>
<path class="st0" d="M488.5,53.3V34.2h1.2v19.1H488.5z M472.9,50.9l0.1,0c4.6-0.9,6.3-9.1,6.3-15.9l0-0.1h1.2l0,0.1
	c0,2.7-0.2,5.3-0.8,7.9l6.5,8.4l-0.9,0.7l-5.9-7.7c-1.3,4.6-3.5,7.3-6.4,7.7l-0.2,0V50.9z"/>
<path class="st0" d="M479.6,42.9l6.5,8.4l-0.7,0.5l-6-7.8c-1.2,4.5-3.3,7.5-6.3,7.9V51c4.4-0.8,6.4-8.1,6.4-16.1h0.9
	C480.4,37.6,480.1,40.3,479.6,42.9z M489.6,34.4v18.8h-0.9V34.4H489.6z"/>
<path class="st0" d="M510.3,53.3V34.2l1.2-0.1v19.1H510.3z M505.9,53v-9.2h-3.2c0,5.6-1.5,8.5-4.3,8.5c-2.9,0-4.3-2.9-4.3-8.7
	c0-5.8,1.4-8.7,4.3-8.7c2.8,0,4.2,2.5,4.3,7.8h3.2v-8.3h1.2V53H505.9z M498.4,36c-2.1,0-3.1,2.5-3.1,7.6s1,7.6,3.1,7.6
	c2.1,0,3.1-2.5,3.1-7.5v-0.1l0.1,0C501.5,38.4,500.5,36,498.4,36z"/>
<path class="st0" d="M506,34.5h0.9v18.3H506v-9.2h-3.4c0,5.7-1.5,8.5-4.2,8.5s-4.2-2.8-4.2-8.6s1.4-8.5,4.1-8.5s4,2.5,4.2,7.8h3.5
	V34.5z M501.6,43.5c0-5.2-1.1-7.7-3.3-7.7s-3.2,2.5-3.2,7.7s1.1,7.7,3.2,7.7S501.6,48.8,501.6,43.5L501.6,43.5z M511.3,34.3v18.8
	h-0.9V34.4L511.3,34.3z"/>
<path class="st0" d="M520.9,52.2v-1.1h5.2v-5.2h-4.1v-1.1h3.7v-8.3h-3.5v-1.1h16.3v1.1h-3.5v8.3h3.7v1.1h-4.1v5.2h5.2v1.1H520.9z
	 M533.3,51.1v-5.2h-6v5.2H533.3z M533.7,44.7v-8.3h-6.8v8.3H533.7z"/>
<path class="st0" d="M539.6,51.2v0.8H521v-0.8h5.2v-5.5h-4.1v-0.9h3.7v-8.5h-3.5v-0.9h16v0.9h-3.5v8.5h3.7v0.9h-4.1v5.5L539.6,51.2z
	 M526.7,44.9h7.1v-8.5h-7.1V44.9z M527.2,51.2h6.3v-5.5h-6.3V51.2z"/>
<path class="st0" d="M543.9,52.9v-5.3h1.2v4.1l15,0v1.1H543.9z M558.3,48.6v-4.1h-3.7v-1.1h3.7v-3h-3.7v-1.1h3.7v-5h1.2v14.4H558.3z
	 M548.6,46.8c-3.3,0-5.4-1.6-5.4-4c0-2.4,2.2-4,5.4-4c3.2,0,5.4,1.6,5.4,4C554,45.2,551.9,46.8,548.6,46.8z M544.4,42.9
	c0.1,1.6,1.8,2.7,4.2,2.7c2.5,0,4.2-1.1,4.2-2.9s-1.7-2.9-4.2-2.9c-2.5,0-4.2,1.1-4.2,2.9L544.4,42.9L544.4,42.9z M542.2,37.7v-1.1
	h5.8v-2.7h1.2v2.6h5.3v1.2H542.2z"/>
<path class="st0" d="M554.4,37.5h-12.1v-0.9h5.8V34h0.9v2.6h5.3V37.5z M543.3,42.8c0-2.4,2.2-3.8,5.3-3.8s5.3,1.4,5.3,3.8
	s-2.2,3.8-5.3,3.8S543.3,45.2,543.3,42.8z M560,51.9v0.8h-15.9v-5h0.9v4.1L560,51.9z M544.2,42.8c0,1.7,1.6,3,4.3,3s4.4-1.3,4.4-3
	s-1.6-3-4.4-3S544.2,41.1,544.2,42.8L544.2,42.8z M558.5,44.3h-3.7v-0.8h3.7v-3.3h-3.7v-0.8h3.7v-5h0.9v14.1h-0.9V44.3z"/>
<path class="st0" d="M578.8,53.3V34.2h1.2v8.2h3v1.1h-3v9.7H578.8z M569.9,52.2c-3,0-5.1-2.4-5.1-5.8c0-3.4,2.2-5.8,5.1-5.8
	s5.1,2.4,5.1,5.8C575.1,49.8,572.9,52.2,569.9,52.2z M569.9,41.8c-2,0-3.9,1.6-3.9,4.7c0,3.1,2,4.7,3.9,4.7c1.9,0,3.9-1.6,4-4.5
	l0-0.1C573.8,43.4,571.8,41.8,569.9,41.8z M563.7,38.8v-1.1h5.6v-3.5h1.2v3.5h5.7v1.1H563.7z"/>
<path class="st0" d="M570.3,37.8h5.7v0.9h-12.2v-0.9h5.6v-3.5h0.9L570.3,37.8z M574.9,46.4c0,3.5-2.3,5.7-5,5.7s-5-2.2-5-5.7
	s2.3-5.7,5-5.7S574.9,42.9,574.9,46.4L574.9,46.4z M574,46.4c0-3-1.9-4.8-4.1-4.8s-4.1,1.8-4.1,4.8s1.9,4.8,4.1,4.8
	S574,49.4,574,46.4L574,46.4z M582.8,43.5h-3v9.7h-0.9V34.4h0.9v8.2h3V43.5z"/>
<path class="st0" d="M584.4,52.2v-1.1h7.7v-9.3h1.2v9.3h9.9v1.1H584.4z M600.6,47.8V36.2h-14.9v-1.1h16.1v12.7H600.6z"/>
<path class="st0" d="M603.1,51.2v0.8h-18.6v-0.8h7.7v-9.3h0.9v9.3H603.1z M600.7,36.1h-14.9v-0.9h15.8v12.4h-0.9L600.7,36.1z"/>
<path class="st0" d="M621.1,53.3V34.2h1.2v8.2h3v1.1h-3v9.7H621.1z M605.8,50.9l0.1,0c3.4-0.8,5.6-6.4,5.7-14.6h-5.5v-1.1h12.1v1.1
	h-5.4c0,2.3-0.2,4.6-0.7,6.8l6.6,8l-0.9,0.7l-6-7.3c-1.1,4.3-3.2,6.8-5.9,7.5l-0.2,0V50.9z"/>
<path class="st0" d="M612.1,43.1l6.6,7.9l-0.7,0.5l-6.1-7.4c-1.1,4.3-3.1,7-5.9,7.6V51c3.8-0.9,5.8-7.1,5.8-14.8h-5.5v-0.9h11.8v0.9
	h-5.4C612.8,38.5,612.5,40.8,612.1,43.1z M625.2,43.5h-3v9.7h-0.9V34.4h0.9v8.2h3V43.5z"/>
<path class="st0" d="M647.1,49.9c-1,1.5-2.7,2.6-4.5,2.9l-0.1,0l-3.7-2.7c-1.1,1.5-2.7,2.4-4.5,2.7l-0.2,0v-1.1l0.1,0
	c2.5-0.6,4.4-2.6,4.7-5.2l0-0.1l1.2,0.1l0,0.1c-0.1,0.9-0.4,1.7-0.8,2.5l3.3,2.5c2.3-0.7,4-2.7,4.3-5.1l0-0.1l1.2,0.1l0,0.1
	c-0.1,0.8-0.3,1.5-0.7,2.2l4.5,3l-0.7,1L647.1,49.9z M649.5,46.3v-6h-3.9v5.8h-1.2V34.4h1.2v4.8h3.9v-5h1.2v12.2H649.5z M637.8,45.9
	c-2.6,0-4.4-1.4-4.4-3.6c0-2.1,1.8-3.6,4.4-3.6c2.6,0,4.4,1.4,4.4,3.6C642.2,44.4,640.5,45.9,637.8,45.9z M634.6,42.4
	c0.1,1.4,1.4,2.3,3.2,2.3c1.9,0,3.2-1,3.2-2.5c0-1.5-1.3-2.5-3.2-2.5c-1.9,0-3.1,1-3.1,2.5L634.6,42.4L634.6,42.4z M632.6,37.6v-1.1
	h4.6V34h1.2v2.5h4.4v1.1H632.6z"/>
<path class="st0" d="M642.7,37.5h-9.9v-0.9h4.6v-2.5h0.9v2.5h4.4V37.5z M633.6,42.2c0-2.2,1.8-3.5,4.2-3.5s4.2,1.3,4.2,3.5
	s-1.8,3.5-4.2,3.5S633.6,44.4,633.6,42.2z M651.5,52.7l-4.4-3c-1,1.6-2.6,2.7-4.5,3l-3.7-2.8c-1.1,1.5-2.7,2.5-4.5,2.8v-0.8
	c2.6-0.6,4.5-2.7,4.8-5.3l0.9,0.1c-0.1,0.9-0.4,1.8-0.8,2.5l3.5,2.6c2.4-0.7,4.2-2.7,4.5-5.2l0.9,0.1c-0.1,0.8-0.3,1.6-0.7,2.3
	l4.5,3L651.5,52.7z M634.5,42.2c0,1.5,1.2,2.6,3.3,2.6s3.3-1.2,3.3-2.6s-1.2-2.6-3.3-2.6S634.5,40.8,634.5,42.2L634.5,42.2z
	 M645.5,45.9h-0.9V34.5h0.9v4.8h4.2v-5h0.9v11.9h-0.9v-6h-4.2V45.9z"/>
<path class="st0" d="M655.5,52.9v-7.3h1.2v2.5h13.5v-2.5h1.2v7.3H655.5z M656.7,51.7l13.5,0v-2.4h-13.5V51.7z M654,44.1V43l18.9,0
	v1.2H654z M663.2,37.5c-2.2,2.3-5.1,3.6-8.2,3.7l-0.1,0V40l0.1,0c3.6-0.1,8-2.5,8.9-6.1l0-0.1l1.2,0.2l0,0.1c-0.2,0.8-0.5,1.6-1,2.4
	l8.1,3.7l-0.5,1L663.2,37.5z"/>
<path class="st0" d="M672.7,43.1V44h-18.6v-0.9L672.7,43.1z M655,41v-0.9c3.7-0.1,8.1-2.5,9-6.2l0.9,0.2c-0.2,0.9-0.5,1.7-1.1,2.5
	l8.1,3.7l-0.4,0.8l-8.4-3.7C661.1,39.6,658.1,40.9,655,41z M670.4,45.7h0.9v7h-15.6v-7h0.9v2.5h13.8V45.7z M670.4,51.8v-2.7h-13.8
	v2.8L670.4,51.8z"/>
<path class="st0" d="M691.3,53.3V34.2h1.2v19.1H691.3z M676.5,51.9V35h1.2v15.9h6.5c1.7,0,3.3-0.3,4.8-1l0.2-0.1V51l-0.1,0
	c-1.5,0.6-3.1,0.9-4.7,0.9L676.5,51.9z"/>
<path class="st0" d="M677.5,51h6.7c1.7,0,3.3-0.3,4.9-1v0.9c-1.5,0.6-3.2,1-4.9,0.9h-7.6V35.1h0.9V51z M692.4,53.2h-0.9V34.4h0.9
	V53.2z"/>
<path class="st0" d="M711.9,53.3V34.2h1.2v8.2h3v1.2h-3v9.7H711.9z M697.5,51.9V35.1h11.1v1.1h-9.9v14.6h6.3c1.7,0,3.3-0.3,4.8-1
	l0.2-0.1V51l-0.1,0c-1.5,0.6-3.1,0.9-4.7,0.9L697.5,51.9z"/>
<path class="st0" d="M705,51c1.7,0,3.3-0.3,4.9-1v0.9c-1.5,0.6-3.2,0.9-4.9,0.9h-7.4V35.2h10.8v0.9h-9.9V51H705z M716,43.5h-3v9.7
	h-0.9V34.4h0.9v8.2h3V43.5z"/>
<circle class="st0" cx="718.7" cy="51.9" r="1.1"/>
<path class="st0" d="M719.7,51.9c0,0.6-0.4,1-1,1s-1-0.4-1-1s0.4-1,1-1S719.7,51.4,719.7,51.9z"/>
<circle class="st1" cx="130.7" cy="323.5" r="130.2"/>
<path class="st0" d="M130.7,454.2C58.6,454.2,0,395.5,0,323.5s58.6-130.7,130.7-130.7s130.7,58.6,130.7,130.7
	S202.7,454.2,130.7,454.2z M130.7,193.8C59.1,193.8,1,251.9,1,323.5s58.1,129.7,129.7,129.7s129.7-58.1,129.7-129.7c0,0,0,0,0,0
	C260.3,251.9,202.3,193.9,130.7,193.8z"/>
<path class="st0" d="M80.6,326.1h4.6v2.6H80l-0.9,3.8l-0.2,1h-2.6l0.3-1.6l0.8-3.3h-5.1l-0.9,3.8l-0.2,1h-2.6l0.3-1.6l0.8-3.3h-2.4
	v-2.6h3l1.7-7h-4.7v-2.6h5.2l0.9-3.8l0.2-1h2.6l-0.3,1.6l-0.7,3.2h5l0.9-3.8l0.2-1H84l-0.3,1.6l-0.7,3.2h2.4v2.6h-3L80.6,326.1z
	 M74.6,319.1l-1.6,7h5l1.7-7H74.6z"/>
<path class="st0" d="M89.4,314c1.3-1.9,2.8-2.8,4.5-2.8c1.7,0.1,3.2,1,4.1,2.4c1.8,2.6,2.7,5.7,2.6,8.8c0.1,3-0.7,5.9-2.3,8.5
	c-1.3,1.9-2.8,2.8-4.4,2.8c-1.7-0.1-3.2-1-4.2-2.4c-1.7-2.2-2.6-5.2-2.6-8.9C87,319.4,87.8,316.5,89.4,314z M90.6,327.8
	c0.8,2.2,1.9,3.2,3.3,3.2c1.1-0.1,2.1-0.8,2.6-1.9c1.1-2.1,1.6-4.5,1.5-6.8c0-1.9-0.3-3.7-0.9-5.5c-0.8-2.1-1.9-3.2-3.2-3.2
	c-1.2,0.1-2.2,0.8-2.7,1.9c-1.1,2.1-1.7,4.4-1.6,6.8C89.7,324.2,90,326.1,90.6,327.8L90.6,327.8z"/>
<path class="st0" d="M105.1,333.5v-21.8h8.4c2.4,0.2,4.5,1.4,6,3.3c1.7,2.1,2.6,4.9,2.2,7.6c0.3,2.7-0.5,5.4-2.1,7.5
	c-1.4,1.9-3.6,3.2-6,3.4L105.1,333.5L105.1,333.5z M113.4,331c1.6-0.2,3.1-1,4.1-2.3c1.4-1.7,2-3.8,1.8-6v-0.1
	c0.2-1.9-0.3-3.7-1.3-5.3c-0.9-1.7-2.6-2.7-4.5-2.9h-5.7V331L113.4,331z"/>
<path class="st0" d="M126.5,323.6h-2.8l0.7-1.8l4-9.9l0.3-0.8h2.1v22.4h-2.6v-14.5l-1.5,3.7L126.5,323.6z"/>
<path class="st0" d="M135.5,313.7v-2.6h11.9l-1.2,2l-3.6,5.9c1.1,0.2,2,0.7,2.6,1.6c1.4,1.5,2.2,3.5,2.2,5.6c0,1.8-0.6,3.6-1.8,5
	c-1.3,1.6-3.2,2.5-5.2,2.4c-1.4,0-2.7-0.3-3.9-1c-1.4-0.8-2.4-2.3-2.7-3.9l-0.2-1.5h2.6l0.2,1.1c0.1,0.4,0.3,0.9,0.5,1.2
	c0.8,1.1,2.2,1.7,3.5,1.6c1,0,2-0.4,2.7-1c1.2-0.9,1.8-2.4,1.8-3.8c0-1-0.3-1.9-0.9-2.7c-0.8-1.2-2.2-1.9-3.6-1.9h-2.2l1.1-2
	l3.6-5.9L135.5,313.7L135.5,313.7z"/>
<path class="st0" d="M152.6,318.7h-2.6v-1.3c0-1.5,0.5-2.9,1.5-3.9c1.3-1.5,3.2-2.4,5.2-2.3c1.6,0,3.2,0.5,4.5,1.5
	c1.5,1.1,2.3,2.9,2.3,4.7c0,1.9-0.8,3.6-2,5c-1.5,1.6-3.1,3-4.9,4.2c-0.8,0.6-1.3,1-1.7,1.2c-1.6,1.3-2.4,2.3-2.4,3.2h10.9v2.6
	h-13.5v-1.3c0.1-1.6,0.6-3.2,1.7-4.5c1.3-1.5,2.8-2.9,4.4-4.1c1-0.8,1.7-1.4,2.1-1.8c1.9-1.7,2.8-3.2,2.8-4.6c0-0.8-0.3-1.5-0.8-2.1
	c-0.8-1-2.1-1.6-3.4-1.6c-0.8,0-1.7,0.2-2.4,0.6c-1.1,0.6-1.8,1.7-1.8,3L152.6,318.7z"/>
<path class="st0" d="M168.4,314c1.3-1.9,2.8-2.8,4.5-2.8c1.7,0.1,3.2,1,4.1,2.4c1.8,2.6,2.7,5.7,2.6,8.8c0.1,3-0.7,5.9-2.3,8.5
	c-1.3,1.9-2.8,2.8-4.4,2.8c-1.7-0.1-3.2-1-4.2-2.4c-1.7-2.2-2.6-5.2-2.6-8.9C166,319.4,166.8,316.5,168.4,314z M169.6,327.8
	c0.8,2.2,1.9,3.2,3.3,3.2c1.1-0.1,2.1-0.8,2.6-1.9c1.1-2.1,1.6-4.5,1.5-6.8c0-1.9-0.3-3.7-0.9-5.5c-0.8-2.1-1.9-3.2-3.2-3.2
	c-1.2,0.1-2.2,0.8-2.7,1.9c-1.1,2.1-1.7,4.4-1.6,6.8C168.7,324.2,169,326,169.6,327.8L169.6,327.8z"/>
<circle class="st0" cx="494.3" cy="323.5" r="130.2"/>
<path class="st1" d="M494.3,454.2c-72.1,0-130.7-58.6-130.7-130.7s58.6-130.7,130.7-130.7S625,251.4,625,323.5
	S566.4,454.2,494.3,454.2z M494.3,193.8c-71.6,0-129.7,58.1-129.7,129.7s58.1,129.7,129.7,129.7S624,395.1,624,323.5v0
	C623.9,251.9,565.9,193.9,494.3,193.8z"/>
<path class="st1" d="M444.3,326.1h4.6v2.6h-5.2l-0.9,3.8l-0.2,1h-2.6l0.4-1.6l0.8-3.3h-5l-0.9,3.8l-0.2,1h-2.6l0.4-1.6l0.8-3.3H431
	v-2.6h3l1.7-7H431v-2.6h5.2l0.9-3.8l0.2-1h2.6l-0.4,1.6l-0.7,3.2h5l0.9-3.8l0.2-1h2.6l-0.4,1.6l-0.7,3.2h2.4v2.6h-3L444.3,326.1z
	 M438.3,319.1l-1.6,7h5l1.7-7H438.3z"/>
<path class="st1" d="M453.1,314c1.3-1.9,2.8-2.8,4.5-2.8c1.7,0.1,3.2,1,4.1,2.4c1.8,2.6,2.7,5.7,2.6,8.8c0.1,3-0.7,5.9-2.3,8.5
	c-1.3,1.9-2.8,2.8-4.4,2.8c-1.7-0.1-3.2-1-4.2-2.4c-1.7-2.2-2.6-5.2-2.6-8.9C450.7,319.4,451.5,316.5,453.1,314z M454.3,327.8
	c0.8,2.2,1.9,3.2,3.3,3.2c1.1-0.1,2.1-0.8,2.6-1.9c1.1-2.1,1.6-4.5,1.5-6.8c0-1.9-0.3-3.7-0.9-5.5c-0.8-2.1-1.9-3.2-3.2-3.2
	c-1.2,0.1-2.2,0.8-2.7,1.9c-1.1,2.1-1.7,4.4-1.6,6.8C453.3,324.2,453.7,326.1,454.3,327.8L454.3,327.8z"/>
<path class="st1" d="M468.8,333.5v-21.8h8.5c2.4,0.2,4.5,1.4,6,3.3c1.7,2.1,2.6,4.9,2.2,7.6c0.3,2.7-0.5,5.4-2.1,7.5
	c-1.4,1.9-3.6,3.2-6,3.4L468.8,333.5L468.8,333.5z M477.1,331c1.6-0.2,3.1-1,4.1-2.3c1.4-1.7,2-3.8,1.8-6v-0.1
	c0.2-1.9-0.3-3.7-1.3-5.3c-0.9-1.7-2.6-2.7-4.5-2.9h-5.7V331L477.1,331z"/>
<path class="st1" d="M490.1,323.6h-2.8l0.7-1.8l4-9.9l0.3-0.8h2.1v22.4H492v-14.5l-1.5,3.7L490.1,323.6z"/>
<path class="st1" d="M499.2,313.7v-2.6h11.9l-1.1,2l-3.6,5.9c1.1,0.2,2,0.7,2.6,1.6c1.4,1.5,2.2,3.5,2.2,5.6c0,1.8-0.6,3.6-1.8,5
	c-1.3,1.6-3.2,2.5-5.2,2.4c-1.4,0-2.7-0.3-3.9-1c-1.4-0.8-2.4-2.3-2.7-3.9l-0.2-1.5h2.6l0.2,1.1c0.1,0.4,0.3,0.9,0.5,1.2
	c0.8,1.1,2.2,1.7,3.5,1.6c1,0,2-0.4,2.7-1c1.2-0.9,1.8-2.4,1.8-3.8c0-1-0.3-1.9-0.9-2.7c-0.8-1.2-2.2-1.9-3.6-1.9h-2.2l1.1-2
	l3.6-5.9L499.2,313.7L499.2,313.7z"/>
<path class="st1" d="M516.3,318.7h-2.6v-1.3c0-1.5,0.5-2.9,1.5-3.9c1.3-1.5,3.2-2.4,5.2-2.3c1.6,0,3.2,0.5,4.5,1.5
	c1.5,1.1,2.3,2.9,2.3,4.7c0,1.9-0.8,3.6-2,5c-1.5,1.6-3.1,3-4.9,4.2c-0.8,0.6-1.3,1-1.7,1.2c-1.6,1.3-2.4,2.3-2.4,3.2h11v2.6h-13.6
	v-1.3c0.1-1.6,0.6-3.2,1.7-4.5c1.3-1.5,2.8-2.9,4.4-4.1c1-0.8,1.7-1.4,2.1-1.8c1.9-1.7,2.8-3.2,2.8-4.6c0-0.8-0.3-1.5-0.8-2.1
	c-0.8-1-2.1-1.6-3.4-1.6c-0.8,0-1.7,0.2-2.4,0.6c-1.1,0.6-1.8,1.7-1.8,3L516.3,318.7z"/>
<path class="st1" d="M532.1,314c1.3-1.9,2.8-2.8,4.5-2.8c1.7,0.1,3.2,1,4.1,2.4c1.8,2.6,2.7,5.7,2.6,8.8c0.1,3-0.7,5.9-2.3,8.5
	c-1.3,1.9-2.8,2.8-4.4,2.8c-1.7-0.1-3.2-1-4.2-2.4c-1.7-2.2-2.6-5.2-2.6-8.9C529.7,319.4,530.5,316.5,532.1,314z M533.3,327.8
	c0.8,2.2,2,3.2,3.3,3.2c1.1-0.1,2.1-0.8,2.6-1.9c1.1-2.1,1.6-4.5,1.5-6.8c0-1.9-0.3-3.7-0.9-5.5c-0.8-2.1-1.9-3.2-3.2-3.2
	c-1.2,0.1-2.2,0.8-2.7,1.9c-1.1,2.1-1.7,4.4-1.6,6.8C532.3,324.2,532.6,326,533.3,327.8L533.3,327.8z"/>
</svg>
