<svg xmlns="http://www.w3.org/2000/svg" viewBox="0 0 143.39 21.76"><defs><style>.cls-1{fill:#fff;}</style></defs><g id="레이어_2" data-name="레이어 2"><g id="레이어_1-2" data-name="레이어 1"><path class="cls-1" d="M3,3A8.7,8.7,0,0,1,9.6,0a9,9,0,0,1,6.66,3,11.16,11.16,0,0,1,2.94,7.84,11.17,11.17,0,0,1-3,7.87,8.7,8.7,0,0,1-6.62,3,8.93,8.93,0,0,1-6.66-3A11.16,11.16,0,0,1,0,10.88,11.17,11.17,0,0,1,3,3Zm1.44,13.5A6.31,6.31,0,0,0,9.6,19.2a6.43,6.43,0,0,0,4.7-2.14,8.71,8.71,0,0,0,2.34-6.18,9,9,0,0,0-1.86-5.63A6.31,6.31,0,0,0,9.6,2.56,6.43,6.43,0,0,0,4.9,4.7a8.71,8.71,0,0,0-2.34,6.18A9,9,0,0,0,4.42,16.51Z"/><path class="cls-1" d="M21.79,6.4h2.75l.32.8,4,9.82L32.74,7.2l.32-.8h2.75L35.1,8.16,30,21l-.32.8H28l-.32-.8L22.5,8.16Z"/><path class="cls-1" d="M50.75,18.75a7,7,0,0,1-6,3,6.62,6.62,0,0,1-4.61-1.86,7.6,7.6,0,0,1-2.43-5.82A7.91,7.91,0,0,1,39.58,8.9a6.64,6.64,0,0,1,9.8-.64,7.56,7.56,0,0,1,2.46,5.82v1.28H40.45a5.37,5.37,0,0,0,.77,1.79A4.09,4.09,0,0,0,44.8,19.2a4.72,4.72,0,0,0,3.9-2ZM49.28,12.8a3.39,3.39,0,0,0-.86-2A4.57,4.57,0,0,0,44.8,9a4,4,0,0,0-1.89.48,4.73,4.73,0,0,0-2.46,3.36Z"/><path class="cls-1" d="M62.34,6.4h1.28V9H62.34a3.85,3.85,0,0,0-1.92.48q-2.14,1.19-2.18,4.45v7.87H55.68V6.4h2.56V7.74A6.67,6.67,0,0,1,62.34,6.4Z"/><path class="cls-1" d="M77.66,0h2.79l.35.77L88,17.25,95.07.77,95.42,0h2.79l-.77,1.79L89.15,21l-.35.77H87.14L86.78,21,78.43,1.79Z"/><path class="cls-1" d="M100.26,4.45V1.89h2.59V4.45h-2.59Zm0,2h2.56V21.76h-2.56V6.4Z"/><path class="cls-1" d="M118.85,18.75a7.06,7.06,0,0,1-5.95,3,6.6,6.6,0,0,1-4.61-1.86,7.6,7.6,0,0,1-2.43-5.82,7.86,7.86,0,0,1,1.82-5.18,6.57,6.57,0,0,1,5.22-2.5,6.49,6.49,0,0,1,4.57,1.86,7.56,7.56,0,0,1,2.47,5.82v1.28h-11.4a5.58,5.58,0,0,0,.77,1.79,4.11,4.11,0,0,0,3.59,2.05,4.74,4.74,0,0,0,3.9-2Zm-1.47-5.95a3.35,3.35,0,0,0-.87-2A4.55,4.55,0,0,0,112.9,9a3.93,3.93,0,0,0-1.89.48,4.77,4.77,0,0,0-2.47,3.36Z"/><path class="cls-1" d="M122.08,6.4h2.66l.28.93,2.6,9.28,3.93-9.41.32-.8h1.73l.32.8,3.94,9.41,2.59-9.28.29-.93h2.65L142.94,8l-3.58,12.8-.29.93h-1.82l-.32-.8-4.19-10-4.2,10-.32.8H126.4l-.29-.93L122.53,8Z"/></g></g></svg>