<?xml version="1.0" encoding="utf-8"?>
<!-- Generator: Adobe Illustrator 26.0.2, SVG Export Plug-In . SVG Version: 6.00 Build 0)  -->
<svg version="1.1" id="레이어_1" xmlns="http://www.w3.org/2000/svg" xmlns:xlink="http://www.w3.org/1999/xlink" x="0px"
	 y="0px" viewBox="0 0 859.7 87.2" style="enable-background:new 0 0 859.7 87.2;" xml:space="preserve">
<style type="text/css">
	.st0{fill:#FFFFFF;}
</style>
<g id="레이어_2_00000146458417027642633400000012351586302371895485_">
	<g id="레이어_1-2">
		<path class="st0" d="M16.2,19.3V9.9h-4.7V8.7h4.7V0.2h1.2v19.1H16.2z M6.5,11c-1.2,4-3.3,6.4-6,7l-0.2,0v-1.1l0.1,0
			c3.3-0.8,5.5-5.4,5.8-12H0.5V3.7h5.7V0.2h1.2v3.5h5.4v1.1H7.4C7.3,6.4,7.1,8,6.8,9.6l6.5,7.6L12.5,18L6.5,11z"/>
		<path class="st0" d="M6.7,9.6l6.5,7.6l-0.6,0.6l-6.1-7.1c-1.1,4-3.2,6.6-6,7.2V17C4,16.1,6.1,11,6.3,4.7H0.7V3.8h5.7V0.3h0.9v3.5
			h5.4v0.9H7.3C7.2,6.4,7,8,6.7,9.6z M17.2,0.4v18.8h-0.9V9.7h-4.7V8.9h4.7V0.4H17.2z"/>
		<path class="st0" d="M22.5,18.9v-6.2h15.9v6.2H22.5z M23.7,17.7l13.5,0v-3.9H23.7V17.7z M21,10.4V9.3h18.9v1.1H21z M30.5,7.5
			c-5.1,0-8.1-1.3-8.1-3.6c0-2.2,3-3.6,8.1-3.6c4,0,8.2,0.9,8.2,3.6C38.6,6.5,34.4,7.5,30.5,7.5z M30.5,1.4c-3.5,0-7,0.8-7,2.4
			c0,1.7,3.5,2.5,7,2.5c3.5,0,7-0.8,7-2.5C37.4,2.1,33.7,1.4,30.5,1.4z"/>
		<path class="st0" d="M39.7,10.3H21.2V9.4h18.6V10.3z M38.5,3.9c0,2.4-3.8,3.5-8,3.5s-8-1-8-3.5s3.7-3.4,8-3.4S38.5,1.4,38.5,3.9z
			 M38.3,18.7H22.7v-5.9h15.6L38.3,18.7z M23.3,3.9c0,1.8,3.5,2.6,7.1,2.6s7.1-0.8,7.1-2.6s-3.5-2.6-7.1-2.6S23.3,2.1,23.3,3.9z
			 M37.3,17.9v-4.2H23.6v4.2L37.3,17.9z"/>
		<path class="st0" d="M64.5,19.3V0.2h1.2v19.1H64.5z M48.9,16.9l0.1,0c4.6-0.9,6.3-9.1,6.3-15.9l0-0.1h1.2l0,0.1
			c0,2.7-0.3,5.3-0.8,7.9l6.5,8.4L61.3,18l-5.9-7.7c-1.2,4.6-3.4,7.3-6.3,7.7l-0.2,0V16.9z"/>
		<path class="st0" d="M55.5,8.9l6.5,8.4l-0.7,0.5l-6-7.8c-1.1,4.6-3.3,7.5-6.3,7.9V17c4.4-0.8,6.4-8.1,6.4-16.1h0.9
			C56.4,3.6,56.1,6.3,55.5,8.9z M65.6,0.4v18.8h-0.9V0.4L65.6,0.4z"/>
		<path class="st0" d="M85.1,19.1V14H70.8l0.1-1.1h15.5v6.3H85.1z M85.1,11.8V0.2h1.2v4.6h3V6h-3v5.8H85.1z M69.9,9.9l0.1,0
			c3.6-0.7,5.7-3.4,5.9-7.7H70V0.9h12.3v1.1H77c0,1.1-0.2,2.2-0.5,3.3l6.3,4.6l-0.7,0.9l-6.1-4.4c-1.1,2.4-3.4,4.1-6,4.5l-0.2,0V9.9
			z"/>
		<path class="st0" d="M70,10.8V10c3.7-0.7,5.9-3.4,6-8h-5.8V1.1h12v0.9h-5.3c0,1.2-0.2,2.3-0.6,3.5l6.3,4.6l-0.5,0.7L76,6.3
			C74.9,8.7,72.7,10.5,70,10.8z M71,13h15.2v6h-0.9v-5.1H70.9L71,13z M89.2,5.8h-3v5.8h-0.9V0.4h0.9V5h3V5.8z"/>
		<path class="st0" d="M92.2,18.9v-5.4h1.2l0,4.3h15.1v1.1H92.2z M90.7,11.6v-1.1h18.9v1.1H90.7z M100.1,8.4c-4.1,0-8.2-1.3-8.2-4.1
			c0-2.8,4.1-4.1,8.2-4.1c3.8,0,8.2,1.1,8.2,4.1C108.3,7.4,103.9,8.4,100.1,8.4z M100.1,1.4c-3.5,0-7,1-7,2.9s3.5,2.9,7,2.9
			s7-1,7-2.9S103.6,1.4,100.1,1.4z"/>
		<path class="st0" d="M109.4,11.5H90.8v-0.9h18.6V11.5z M108.2,4.4c0,2.7-3.9,3.9-8.1,3.9S92,7,92,4.4s3.9-3.9,8.1-3.9
			S108.2,1.7,108.2,4.4z M93.2,17.9h15.1v0.9h-16v-5.1h0.9L93.2,17.9z M93,4.4c0,2,3.5,3.1,7.2,3.1s7.2-1.1,7.2-3.1
			s-3.5-3.1-7.2-3.1S93,2.3,93,4.4z"/>
		<path class="st0" d="M120,18.9v-4.5h14.3v-2.3H120v-1.1h15.6v4.4h-14.3v2.2h14.9v1.1H120z M134.3,10V7.6h-4V6.4h4V3.4h-4V2.3h4v-2
			h1.2V10H134.3z M119,9V0.7h1.2v2.9h8.2V0.7h1.2V9H119z M128.4,7.9V4.7h-8.2v3.2H128.4z"/>
		<path class="st0" d="M129.4,8.9h-10.3V0.8h0.9v2.9h8.5V0.8h0.9L129.4,8.9z M128.5,8V4.5h-8.5V8H128.5z M136,17.9v0.8h-15.9v-4.2
			h14.3V12h-14.3v-0.8h15.3v4.2h-14.3v2.5H136z M134.4,7.4h-4V6.6h4V3.2h-4V2.4h4v-2h0.9v9.5h-0.9V7.4z"/>
		<path class="st0" d="M148.9,19.1c-5,0-7.9-1.4-7.9-3.8c0-2.4,2.9-3.8,7.9-3.8c5,0,7.9,1.4,7.9,3.8C156.9,17.7,154,19.1,148.9,19.1
			z M148.9,12.7c-4.1,0-6.7,1-6.7,2.7c0,1.6,2.6,2.6,6.7,2.6s6.7-1,6.7-2.6C155.6,13.7,153,12.7,148.9,12.7z M155.5,10.9V8h-4V6.9h4
			V3.6h-4V2.4h4V0.2h1.2v10.7H155.5z M140.2,9.6V0.9h10.3v8.7H140.2z M149.3,8.4V2h-7.9v6.4H149.3z"/>
		<path class="st0" d="M150.4,9.4h-10V1h10.1L150.4,9.4z M156.7,15.3c0,2.6-3.4,3.6-7.8,3.6s-7.7-1.1-7.7-3.6s3.4-3.7,7.7-3.7
			S156.7,12.8,156.7,15.3L156.7,15.3z M149.4,1.9h-8.2v6.7h8.2V1.9z M155.7,15.3c0-1.9-3-2.8-6.8-2.8s-6.8,0.9-6.8,2.8
			s3,2.8,6.8,2.8S155.7,17.2,155.7,15.3L155.7,15.3z M155.6,7.8h-4V7h4V3.4h-4V2.5h4V0.4h0.9v10.4h-0.9V7.8z"/>
		<path class="st0" d="M162.3,18.8v-6h1.2v4.9h14.8v1.1H162.3z M176.5,14.5V0.2h1.2v14.3H176.5z M166.6,11.5c-3.5,0-5.9-2.2-5.9-5.5
			c0-3.3,2.4-5.4,5.9-5.4c3.5,0,5.9,2.2,5.9,5.4C172.5,9.3,170.2,11.5,166.6,11.5z M166.6,1.6c-2.8,0-4.7,1.8-4.7,4.4
			c0,2.7,1.8,4.4,4.7,4.4c2.8,0,4.7-1.7,4.7-4.4C171.3,3.4,169.4,1.6,166.6,1.6z"/>
		<path class="st0" d="M172.4,6c0,3-2.1,5.3-5.8,5.3S160.9,9,160.9,6s2.1-5.3,5.8-5.3S172.4,3.1,172.4,6z M161.8,6
			c0,2.7,1.9,4.5,4.8,4.5s4.8-1.8,4.8-4.5s-1.9-4.5-4.8-4.5S161.8,3.3,161.8,6z M163.4,17.8h14.8v0.9h-15.7v-5.8h0.9V17.8z
			 M177.5,14.3h-0.9v-14h0.9V14.3z"/>
		<path class="st0" d="M189.9,4.8l0-1.7c0-1.5,1.1-2.9,2.6-3.1l0.2,0v1.1l-0.1,0C191.7,1.3,191,2,191,2.9h0.9v1.9H189.9z M187.1,4.8
			l0-1.7c-0.1-1.6,1.1-2.9,2.6-3.1l0.2,0v1.1l-0.1,0c-0.9,0.2-1.5,0.9-1.6,1.7h0.9v1.9H187.1z"/>
		<path class="st0" d="M187.2,3.1c-0.1-1.5,1-2.7,2.5-2.9V1c-1,0.2-1.7,1-1.7,2h0.9v1.7h-1.7L187.2,3.1z M190,3.1
			c0-1.5,1-2.7,2.5-2.9V1c-1,0.2-1.7,1-1.7,2h0.9v1.7H190L190,3.1z"/>
		<path class="st0" d="M195.7,18.9v-4.6h14.1V12h-14.1v-1.1h15.3v4.6h-14l0,2.3h14.7v1.1H195.7z M209.7,9.8V0.2h1.2v4l3,0v1.1h-3
			v4.4H209.7z M195.1,8.8V0.9h11.7V2h-10.5v5.6h4.7c0.3,0,0.7,0,1,0c2.1,0,4.2-0.3,6.1-1l0.2-0.1v1.2l-0.1,0c-1.4,0.7-4.1,1-7.4,1
			H195.1z"/>
		<path class="st0" d="M200.8,8.6h-5.6V1h11.4v0.9h-10.5v5.9h4.9c2.4,0.1,4.9-0.2,7.2-1v0.9C206.8,8.3,204.2,8.6,200.8,8.6z
			 M196.8,17.9h14.7v0.9h-15.7v-4.3h14.1v-2.6h-14.1V11h15v4.3h-14L196.8,17.9z M213.8,4.4v0.9h-3v4.4h-0.9V0.4h0.9v4L213.8,4.4z"/>
		<path class="st0" d="M231.5,19.3V0.2h1.2v19.1H231.5z M222,18.3c-3.5,0-5.6-3.3-5.6-8.7c0-5.4,2.1-8.7,5.6-8.7s5.6,3.2,5.6,8.7
			C227.6,15,225.5,18.3,222,18.3z M222,2c-2.8,0-4.4,2.8-4.4,7.6c0,4.7,1.7,7.6,4.4,7.6c2.7,0,4.4-2.9,4.4-7.6S224.7,2,222,2z"/>
		<path class="st0" d="M227.5,9.5c0,5.8-2.3,8.6-5.5,8.6s-5.5-2.8-5.5-8.6S218.8,1,222,1S227.5,3.8,227.5,9.5z M217.4,9.5
			c0,5.2,2,7.7,4.6,7.7s4.6-2.5,4.6-7.7s-2-7.7-4.6-7.7S217.4,4.3,217.4,9.5z M232.6,19.2h-0.9V0.4h0.9V19.2z"/>
		<path class="st0" d="M235.7,4l0.1,0c0.8-0.2,1.5-0.9,1.6-1.7h-0.9v-2h2v1.7c0,1.5-1.1,2.9-2.6,3.1l-0.2,0V4z M238.5,4l0.1,0
			c0.8-0.2,1.5-0.9,1.6-1.7h-0.9v-2h2v1.7c0.1,1.5-1.1,2.9-2.6,3.1l-0.2,0V4z"/>
		<path class="st0" d="M238.4,1.9c0,1.5-1.1,2.7-2.5,2.9V4.1c1-0.2,1.7-1,1.7-2h-0.9V0.4h1.7L238.4,1.9z M241.1,1.9
			c0,1.5-1,2.7-2.5,2.9V4.1c1-0.2,1.7-1,1.7-2h-0.9V0.4h1.7L241.1,1.9z"/>
		<path class="st0" d="M259.7,19.3V0.2h1.2v19.1H259.7z M255.3,19V9.8h-3.2c0,5.6-1.5,8.5-4.3,8.5c-2.9,0-4.3-2.9-4.3-8.7
			c0-5.8,1.5-8.7,4.3-8.7c2.7,0,4.1,2.5,4.3,7.8h3.2V0.4h1.2V19H255.3z M247.8,2c-2.1,0-3.1,2.5-3.1,7.6c0,5.1,1,7.6,3.1,7.6
			c2.1,0,3.1-2.5,3.1-7.5C250.9,4.4,249.9,2,247.8,2z"/>
		<path class="st0" d="M255.4,0.5h0.9v18.3h-0.9V9.6H252c0,5.7-1.4,8.5-4.2,8.5s-4.2-2.8-4.2-8.6s1.5-8.6,4.2-8.6s4,2.5,4.2,7.8h3.4
			L255.4,0.5z M251.1,9.5c0-5.2-1.1-7.7-3.2-7.7s-3.3,2.5-3.3,7.7s1.1,7.7,3.3,7.7S251.1,14.8,251.1,9.5L251.1,9.5z M260.8,0.4v18.8
			h-0.9V0.4H260.8z"/>
		<path class="st0" d="M280.5,19.3V8.8H275V7.6h5.5V0.2h1.2v19.1H280.5z M270.9,9.7c-1.1,4.9-3.3,7.9-6.2,8.3l-0.2,0v-1.1l0.1,0
			c4.3-0.8,5.9-8.8,5.9-15.9V0.8h1.2l0,0.1c0,2.4-0.2,4.8-0.5,7.2l6.3,9.3l-1,0.7L270.9,9.7z"/>
		<path class="st0" d="M271.1,8.2l6.2,9.2l-0.7,0.5l-5.7-8.6c-1,4.9-3.1,8.1-6.2,8.5V17c4.2-0.8,6-8.1,6-16.1h0.9
			C271.6,3.4,271.4,5.8,271.1,8.2z M281.6,0.4v18.8h-0.9V8.6h-5.5V7.8h5.5V0.4H281.6z"/>
		<path class="st0" d="M291.5,18.2v-1.1h8.8v-5.5H293V1.1h16v10.5h-7.4v5.5h8.8v1.1H291.5z M307.7,10.5V2.3h-13.6v8.2H307.7z"/>
		<path class="st0" d="M310.2,17.2v0.9h-18.6v-0.9h8.8v-5.7h-7.4V1.2h15.7v10.2h-7.4v5.7H310.2z M294,10.6h13.9V2.1H294V10.6z"/>
		<path class="st0" d="M328.9,19.3V0.2h1.2v19.1H328.9z M321.7,18H314V1.1h11.3v1.1h-10.1v6.5h9.7v1.1h-9.7v6.9l6.7,0
			c1.6,0,3.1-0.3,4.6-0.9l0.2-0.1V17l-0.1,0c-1.5,0.6-3,0.9-4.6,0.9L321.7,18z"/>
		<path class="st0" d="M321.7,17c1.7,0,3.3-0.3,4.9-0.9v0.9c-1.5,0.6-3.2,0.9-4.9,0.9h-7.6V1.2h11v0.9h-10.1v6.8h9.7v0.9h-9.7V17
			H321.7z M329.9,0.4v18.8H329V0.4H329.9z"/>
		<path class="st0" d="M333.9,18.2v-1.1h18.9v1.1H333.9z M335.3,12.4V0.9h1.2v4.4h13.6V0.9h1.2v11.5H335.3z M350.1,11.2V6.4h-13.6
			v4.8H350.1z"/>
		<path class="st0" d="M352.6,17.2v0.9H334v-0.9H352.6z M351.1,12.2h-15.7V1h0.9v4.4h13.9V1h0.9L351.1,12.2z M350.2,11.3V6.3h-13.9
			v5.1L350.2,11.3z"/>
		<path class="st0" d="M356.5,18.9v-4h14.8v-1.7h-14.8v-1.1h16V16h-14.8v1.8h15.2v1.1H356.5z M355,10.4V9.3h18.9v1.1H355z
			 M356.6,7.6V3.5h14.6V1.8h-14.6V0.6h15.8v4h-14.6v1.8h14.9v1.1H356.6z"/>
		<path class="st0" d="M373.7,10.3h-18.6V9.4h18.6L373.7,10.3z M372.3,15.9h-14.8v2.1h15.2v0.8h-16.1v-3.7h14.8v-2h-14.8v-0.8h15.7
			V15.9z M372.3,4.5h-14.6v2.1h14.9v0.8h-15.8V3.7h14.6V1.6h-14.6V0.8h15.5V4.5z"/>
		<path class="st0" d="M383.9,18.9V11h1.2v2.8H398l0-2.8h1.2v7.9H383.9z M397.9,17.7v-2.9h-12.9v2.9H397.9z M397.9,10.3V0.2h1.2v4h3
			v1.1h-3v5H397.9z M382.7,8.7l0.1,0c3.4-0.4,5.9-3.3,5.9-6.6h-5.8V0.9h12.3v1.1h-5.3c0,0.9-0.2,1.8-0.5,2.7l6.5,4l-0.7,0.9
			l-6.3-3.9c-1.3,2.2-3.5,3.7-6,4l-0.2,0V8.7z"/>
		<path class="st0" d="M382.8,9.7V8.9c3.5-0.4,6.1-3.4,6-6.9H383V1.1h12v0.9h-5.3c0,1-0.2,2-0.5,2.9l6.5,4l-0.5,0.7l-6.3-3.9
			C387.6,7.9,385.3,9.4,382.8,9.7z M398.1,11.1h0.9v7.6h-15v-7.6h0.9v2.8h13.2L398.1,11.1z M398.1,17.9v-3.1h-13.2v3.1H398.1z
			 M402,5.2h-3v5h-0.9V0.4h0.9v4h3V5.2z"/>
		<path class="st0" d="M417.2,15.5c-0.8,1.8-2.4,3-4.3,3.4l-0.1,0l-3.4-3.3c-0.9,1.7-2.5,2.8-4.4,3.2l-0.2,0v-1.1l0.1,0
			c2.3-0.4,4.2-3.2,4.4-6.3l0-0.1l1.2,0.1l0,0.1c-0.1,1.1-0.3,2.1-0.7,3.1l3.3,3.1c2.1-0.6,3.7-3.2,3.8-6.2l0-0.1l1.2,0.1l0,0.1
			c0,1-0.2,2-0.5,2.9l4.4,3.7l-0.8,0.8L417.2,15.5z M419.1,11.1V0.2h1.2v4.5l3,0.1v1.1h-3v5.1H419.1z M409.5,10.4
			c-3.5,0-5.8-1.9-5.8-4.9c0-3,2.3-4.9,5.8-4.9c3.4,0,5.8,2,5.8,4.9C415.3,8.4,413,10.4,409.5,10.4z M409.5,1.7
			c-2.8,0-4.5,1.5-4.5,3.8c0,2.3,1.7,3.8,4.5,3.8s4.5-1.5,4.5-3.8S412.4,1.7,409.5,1.7z"/>
		<path class="st0" d="M403.9,5.5c0-2.8,2.1-4.8,5.6-4.8s5.6,2,5.6,4.8s-2.1,4.8-5.6,4.8S403.9,8.2,403.9,5.5z M404.9,5.5
			c0,2.5,1.9,3.9,4.7,3.9s4.7-1.4,4.7-3.9s-1.9-3.9-4.7-3.9S404.9,3,404.9,5.5L404.9,5.5z M417.5,14.5l4.4,3.7l-0.6,0.6l-4.1-3.5
			c-0.8,1.8-2.4,3.1-4.3,3.5l-3.5-3.3c-0.9,1.7-2.5,2.9-4.3,3.3v-0.9c2.3-0.4,4.4-3.2,4.5-6.4l0.9,0.1c-0.1,1.1-0.3,2.1-0.7,3.1
			l3.4,3.2c2.1-0.5,3.9-3.2,4-6.4l0.9,0.1C418,12.5,417.8,13.5,417.5,14.5L417.5,14.5z M423.1,4.9v0.9h-3v5.2h-0.9V0.4h0.9v4.5
			L423.1,4.9z"/>
		<path class="st0" d="M426.2,18.9v-7.3h1.2v2.5h13.5v-2.5h1.2v7.3H426.2z M440.9,17.7v-2.5h-13.5v2.5H440.9z M424.7,10.1V9h18.9
			v1.2H424.7z M433.9,3.5c-2.2,2.3-5.1,3.6-8.3,3.7l-0.1,0V6l0.1,0c3.6-0.1,8-2.5,8.8-6.1l0-0.1l1.2,0.2l0,0.1
			c-0.2,0.8-0.5,1.6-1,2.4l8.1,3.7l-0.5,1L433.9,3.5z"/>
		<path class="st0" d="M443.4,9.1V10h-18.6V9.1H443.4z M425.6,7V6.2c3.6-0.1,8.1-2.5,9-6.2l0.9,0.2c-0.2,0.9-0.5,1.7-1.1,2.5
			l8.1,3.7l-0.4,0.8l-8.3-3.8C431.7,5.6,428.8,6.9,425.6,7z M441,11.8h0.9v7h-15.6v-7h0.9v2.5H441V11.8z M441,17.9v-2.8h-13.8v2.8
			H441z"/>
		<path class="st0" d="M461.9,19.3V0.2h1.2v19.1H461.9z M447.1,18V1h1.2v15.9l6.7,0c1.6,0,3.2-0.3,4.6-0.9l0.2-0.1v1.2l-0.1,0
			c-1.5,0.6-3.1,0.9-4.7,0.9L447.1,18z"/>
		<path class="st0" d="M448.2,17h6.7c1.7,0,3.3-0.3,4.9-0.9V17c-1.5,0.6-3.2,1-4.9,0.9h-7.6V1.1h0.9L448.2,17z M463,19.2h-0.9V0.4
			h0.9V19.2z"/>
		<path class="st0" d="M482.6,19.3V0.2h1.2v8.2h3v1.2h-3v9.7H482.6z M468.1,17.9V1.1h11v1.1h-9.9v14.6h6.4c1.7,0,3.3-0.3,4.8-1
			l0.2-0.1V17l-0.1,0c-1.5,0.6-3.1,0.9-4.7,0.9L468.1,17.9z"/>
		<path class="st0" d="M475.6,17c1.7,0,3.3-0.3,4.9-1v0.9c-1.5,0.6-3.2,0.9-4.9,0.9h-7.4V1.2H479v0.9h-9.9V17H475.6z M486.6,9.5h-3
			v9.7h-0.9V0.4h0.9v8.2h3V9.5z"/>
		<circle class="st0" cx="489.4" cy="17.9" r="1.1"/>
		<path class="st0" d="M490.4,17.9c0,0.6-0.4,1-1,1s-1-0.4-1-1s0.4-1,1-1S490.4,17.4,490.4,17.9z"/>
		<path class="st0" d="M-0.1,52.2v-1.1h18.9v1.1H-0.1z M16.1,48.4V36.2H1.2v-1.1h16.1v13.3H16.1z"/>
		<path class="st0" d="M18.6,52.1H0v-0.8h18.6V52.1z M17.1,48.3h-0.9V36.1H1.3v-0.9h15.8V48.3z"/>
		<path class="st0" d="M37.3,53.3v-9.6H33v-1.2h4.3v-8.3l1.2,0v19.1H37.3z M29.5,52h-7.3v-9.1h8.3v-6.6h-8.3v-1.1h9.5V44h-8.3v6.9
			l6.3,0c1.6,0,3.1-0.3,4.6-0.9l0.2-0.1V51l-0.1,0c-1.5,0.6-3,0.9-4.6,0.9L29.5,52z"/>
		<path class="st0" d="M29.5,51c1.7,0,3.3-0.3,4.9-0.9v0.9c-1.5,0.6-3.2,0.9-4.9,0.9h-7.1V43h8.3v-6.9h-8.3v-0.9h9.2v8.6h-8.3V51
			H29.5z M38.4,34.4v18.8h-0.9v-9.6h-4.3v-0.9h4.3v-8.3L38.4,34.4z"/>
		<path class="st0" d="M57.8,53.3V34.2H59v8.2h3v1.2h-3v9.7H57.8z M43.3,51.9V35.1h11.1v1.1h-9.9v14.6h6.3c1.7,0,3.3-0.3,4.8-1
			l0.2-0.1V51l-0.1,0c-1.5,0.6-3.1,0.9-4.7,0.9L43.3,51.9z"/>
		<path class="st0" d="M50.8,51c1.7,0,3.3-0.3,4.9-1v0.9c-1.5,0.6-3.2,0.9-4.9,0.9h-7.4V35.2h10.8v0.9h-9.9V51H50.8z M61.8,43.5h-3
			v9.7h-0.9V34.4h0.9v8.2h3V43.5z"/>
		<path class="st0" d="M78.9,53.3V34.2h1.2v8.2h3v1.1h-3v9.7H78.9z M64.2,51.9v-1.2h0.1c5.5,0,8.9-4.3,8.9-11.3v-3.2h-9v-1.1h10.2
			v4.2c0,7.8-3.8,12.6-10,12.6H64.2z"/>
		<path class="st0" d="M64.3,35.2h9.9v4.1c0,7.4-3.6,12.4-9.9,12.4v-0.9c5.6,0,9-4.5,9-11.5v-3.3h-9V35.2z M83,43.5h-3v9.7h-0.9
			V34.4H80v8.2h3V43.5z"/>
		<path class="st0" d="M92.2,52.9v-4.6h14.1V46H92.1v-1.1h15.3v4.6h-14l0,2.3h14.7v1.1H92.2z M106.2,43.8v-9.6h1.2v4l3,0v1.1h-3v4.4
			H106.2z M91.6,42.8v-7.9h11.7V36H92.8v5.6h4.7c0.3,0,0.7,0,1,0c2.1,0,4.2-0.3,6.1-1l0.2-0.1v1.2l-0.1,0c-1.3,0.7-4,1-7.4,1H91.6z"
			/>
		<path class="st0" d="M97.3,42.6h-5.6V35h11.4v0.9H92.6v5.9h4.8c2.4,0.1,4.9-0.2,7.2-1v0.9C103.3,42.3,100.7,42.6,97.3,42.6z
			 M93.3,51.9H108v0.8H92.3v-4.3h14.1v-2.6H92.3V45h15v4.3h-14L93.3,51.9z M110.3,38.4v0.9h-3v4.4h-0.9v-9.3h0.9v4L110.3,38.4z"/>
		<path class="st0" d="M115.8,53.6L115.8,53.6c-2.6-2.6-4.1-6.1-4.2-9.8c0-3.7,1.5-7.2,4.1-9.9l0,0h1.6l-0.3,0.2
			c-2.6,2.5-4.2,6-4.3,9.6c0.1,3.6,1.6,7.1,4.3,9.6l0.3,0.2H115.8z"/>
		<path class="st0" d="M111.7,43.7c0-3.7,1.5-7.2,4.1-9.8h1.2c-2.7,2.5-4.2,6-4.3,9.7c0.1,3.7,1.6,7.2,4.3,9.7h-1.2
			C113.2,50.8,111.8,47.4,111.7,43.7z"/>
		<path class="st0" d="M127.6,45.9c-0.5,0.1-1.1,0.1-1.6,0.1l-5.1,0v6.7h-1.2V35h6.2c4.4,0,7.1,2.1,7.1,5.5c0,2.5-1.5,4.4-4.1,5.1
			l4.7,7l-1.5,0.1L127.6,45.9z M125.7,44.9c3.8,0,6-1.6,6-4.3c0-2.7-2.2-4.3-6-4.3h-4.9v8.6H125.7z"/>
		<path class="st0" d="M132.2,52.6l-4.5-6.8c-0.6,0.1-1.2,0.1-1.8,0.1h-5.2v6.7h-0.9V35.2h6.1c4.4,0,7,2.1,7,5.3
			c0,2.5-1.5,4.3-4.2,5l4.7,7L132.2,52.6z M131.9,40.6c0-2.9-2.4-4.5-6.2-4.5h-5V45h5C129.5,45,131.9,43.5,131.9,40.6L131.9,40.6z"
			/>
		<path class="st0" d="M141.8,53c-0.1,0-0.2,0-0.3,0c-3.5,0-6.1-2.8-6.1-6.6c0-3.8,2.6-6.6,6.1-6.6s6.1,2.8,6.1,6.6
			c0,0.1,0,0.3,0,0.4l0,0.1h-11c0.2,2.9,2.2,4.9,4.8,4.9c0.1,0,0.2,0,0.3,0c1.7,0,3.2-1,3.9-2.5l0-0.1h1.3l-0.1,0.2
			C146.2,51.7,144.1,53,141.8,53z M146.3,45.8c-0.2-2.9-2.2-4.9-4.8-4.9c-2.7,0-4.7,2-4.8,4.9H146.3z"/>
		<path class="st0" d="M135.5,46.4c0-3.7,2.5-6.5,6-6.5s6,2.8,6,6.5c0,0.1,0,0.3,0,0.4h-11c0.2,3,2.2,5.2,5,5.2
			c1.9,0.1,3.6-0.9,4.4-2.5h1c-0.9,2.2-3.1,3.6-5.4,3.4C138,52.9,135.5,50.1,135.5,46.4z M146.5,46c-0.2-3-2.2-5.2-5-5.2
			s-4.9,2.2-5,5.2H146.5z"/>
		<path class="st0" d="M156.1,53c-3.5,0-6.1-2.8-6.1-6.6c0-3.8,2.6-6.6,6.1-6.6l0.2,0c2,0,3.9,1.1,4.9,2.8v-2.6h1.2v12.7h-1.2v-2.6
			c-1,1.7-2.9,2.8-4.9,2.8C156.4,53,156.1,53,156.1,53z M156.2,40.9c-2.9,0-5,2.3-5,5.5c0,3.2,2.1,5.5,5,5.5c2.8,0,5.1-2.3,5.1-5.2
			c0-0.1,0-0.2,0-0.3c0.1-1.4-0.4-2.7-1.3-3.7c-0.9-1-2.2-1.6-3.5-1.7C156.4,40.9,156.3,40.9,156.2,40.9z"/>
		<path class="st0" d="M150.1,46.4c0-3.7,2.5-6.5,6-6.5c2.3-0.1,4.4,1.2,5.3,3.3v-3h0.9v12.4h-0.9v-3c-0.9,2.1-3,3.4-5.3,3.3
			C152.7,52.9,150.1,50.1,150.1,46.4z M161.4,46.4c0.2-2.9-2-5.4-5-5.6c-0.1,0-0.2,0-0.3,0c-3.1,0-5.1,2.4-5.1,5.6s2,5.6,5.1,5.6
			c2.9,0,5.3-2.4,5.3-5.3C161.4,46.6,161.4,46.5,161.4,46.4z"/>
		<rect x="166.2" y="34.5" class="st0" width="1.2" height="18.2"/>
		<path class="st0" d="M167.3,52.6h-0.9V34.7h0.9V52.6z"/>
		<polygon class="st0" points="193.2,52.7 193.2,37.4 186.6,49.7 185.3,49.7 178.7,37.4 178.7,52.7 177.4,52.7 177.5,35 178.8,35 
			186,48.4 193.2,35 194.5,35 194.5,52.7 		"/>
		<path class="st0" d="M177.6,35.2h1.1l7.3,13.5l7.3-13.5h1.1v17.4h-1V36.9l-6.9,12.7h-1.1l-6.9-12.7v15.7h-0.9L177.6,35.2z"/>
		<path class="st0" d="M204,52.9c-3.4,0-6.1-2.6-6.3-6c0-0.2,0-0.3,0-0.5c-0.1-1.7,0.5-3.3,1.7-4.5c1.1-1.2,2.7-1.9,4.4-2
			c0.1,0,0.2,0,0.3,0c3.4,0,6.1,2.6,6.3,6c0,0.2,0,0.3,0,0.5c0.1,1.7-0.5,3.3-1.7,4.5c-1.1,1.2-2.7,1.9-4.3,2
			C204.2,52.9,204.1,52.9,204,52.9z M204,40.9c-2.9,0-5,2.3-5,5.5c0,3.2,2.1,5.5,5,5.5c2.9,0,5.1-2.3,5.1-5.5
			C209,43.2,206.9,40.9,204,40.9z"/>
		<path class="st0" d="M210.1,46.4c0.1,3.4-2.5,6.2-5.9,6.4c-3.4,0.1-6.2-2.5-6.4-5.9c0-0.2,0-0.3,0-0.5c-0.1-3.4,2.5-6.2,5.9-6.4
			c3.4-0.1,6.2,2.5,6.4,5.9C210.1,46.1,210.1,46.2,210.1,46.4z M198.8,46.4c0,3.2,2.1,5.6,5.2,5.6s5.2-2.4,5.2-5.6s-2.1-5.6-5.2-5.6
			S198.8,43.2,198.8,46.4L198.8,46.4z"/>
		<path class="st0" d="M218.9,52.9c-3.4,0-6.1-2.6-6.3-6c0-0.2,0-0.3,0-0.5c-0.1-1.7,0.5-3.3,1.7-4.5c1.1-1.2,2.7-1.9,4.4-2
			c0.1,0,0.2,0,0.3,0c3.4,0,6.1,2.6,6.3,6c0,0.2,0,0.3,0,0.5c0.1,1.7-0.5,3.3-1.7,4.5c-1.1,1.2-2.7,1.9-4.4,2
			C219.1,52.9,219,52.9,218.9,52.9z M218.9,40.9c-2.9,0-5,2.3-5,5.5c0,3.2,2.1,5.5,5,5.5c2.9,0,5.1-2.3,5.1-5.5
			C224,43.2,221.9,40.9,218.9,40.9z"/>
		<path class="st0" d="M225.1,46.4c0.1,3.4-2.5,6.2-5.9,6.4c-3.4,0.1-6.2-2.5-6.4-5.9c0-0.2,0-0.3,0-0.5c-0.1-3.4,2.5-6.2,5.9-6.4
			c3.4-0.1,6.2,2.5,6.4,5.9C225.1,46.1,225.1,46.2,225.1,46.4z M213.8,46.4c0,3.2,2.1,5.6,5.2,5.6s5.2-2.4,5.2-5.6s-2.1-5.6-5.2-5.6
			S213.8,43.2,213.8,46.4z"/>
		<path class="st0" d="M238.2,52.7v-7.3c0-2.9-1.4-4.5-4-4.5c-2.7,0-4.7,2.8-4.7,5.2v6.6h-1.2V40.1h1.2v2.6c1-1.8,2.8-2.9,4.8-2.9
			c3,0,5,2.3,5,5.5v7.4H238.2z"/>
		<path class="st0" d="M228.4,40.2h0.9v3.1c0.8-2.1,2.8-3.4,5.1-3.4c2.8,0,4.8,2.1,4.8,5.3v7.3h-0.9v-7.1c0-3-1.6-4.6-4.1-4.6
			c-2.7,0-4.9,2.8-4.9,5.3v6.4h-0.9V40.2z"/>
		<path class="st0" d="M241.5,53.3c2.6-2.5,4.2-6,4.3-9.6c-0.1-3.6-1.6-7.1-4.3-9.6l-0.3-0.2h1.6l0,0c2.6,2.6,4.1,6,4.1,9.7
			c0,3.7-1.4,7.1-3.9,9.8l-0.2,0.2l-1.6,0.1L241.5,53.3z"/>
		<path class="st0" d="M241.6,53.4c2.7-2.5,4.2-6,4.3-9.7c-0.1-3.7-1.6-7.2-4.3-9.8h1.2c5.4,5.3,5.4,13.9,0.2,19.2
			c-0.1,0.1-0.1,0.1-0.2,0.2L241.6,53.4z"/>
		<path class="st0" d="M250.5,52.9v-4.2h14.8v-1.9h-14.8v-1.1h16v4.1h-14.8v2h15.2v1.1H250.5z M249,43.7v-1.1h18.9v1.1H249z
			 M258.5,41.2c-2.4,0-8.1-0.3-8.1-3.4c0-2.2,3-3.4,8.1-3.4c2.4,0,8.1,0.3,8.1,3.4C266.7,40.9,261,41.2,258.5,41.2z M258.5,35.5
			c-3.4,0-6.9,0.6-6.9,2.3c0,1.4,2.6,2.3,6.9,2.3c4.3,0,6.9-0.9,6.9-2.3C265.4,36.3,262.8,35.5,258.5,35.5z"/>
		<path class="st0" d="M267.8,43.6h-18.6v-0.8h18.6V43.6z M266.5,37.8c0,2.4-3.8,3.3-8,3.3s-8-0.9-8-3.3s3.8-3.3,8-3.3
			C262.7,34.5,266.5,35.4,266.5,37.8z M266.3,49.7h-14.8v2.2h15.2v0.8h-16.1v-3.9h14.8v-2.2h-14.8v-0.8h15.7V49.7z M251.4,37.8
			c0,1.8,3.4,2.5,7.1,2.5c3.7,0,7.1-0.7,7.1-2.5s-3.4-2.4-7.1-2.4S251.4,36,251.4,37.8z"/>
		<path class="st0" d="M292.5,53.3v-19h1.2v19H292.5z M277.7,51.9V35.1H289l-0.1,1.1h-10v14.6h6.5c1.7,0,3.3-0.3,4.8-1l0.2-0.1V51
			l-0.1,0c-1.5,0.6-3.1,0.9-4.7,0.9L277.7,51.9z"/>
		<path class="st0" d="M288.8,36.1h-10V51h6.6c1.7,0,3.3-0.3,4.9-1v0.9c-1.5,0.6-3.2,0.9-4.9,0.9h-7.6V35.2h11L288.8,36.1z
			 M293.6,53.1h-1V34.4h1V53.1z"/>
		<path class="st0" d="M313.1,53.3V34.2h1.2v8.2h3v1.1h-3v9.7H313.1z M297.8,50.9l0.1,0c3.4-0.8,5.6-6.4,5.7-14.6h-5.5v-1.1h12.1
			v1.1h-5.4c0,2.3-0.2,4.6-0.6,6.8l6.6,8l-0.9,0.7l-6-7.3c-1.1,4.3-3.2,6.8-5.9,7.5l-0.2,0V50.9z"/>
		<path class="st0" d="M304.1,43.1l6.6,7.9l-0.7,0.5l-6.1-7.4c-1.1,4.3-3.1,7-5.9,7.6V51c3.8-0.9,5.8-7.1,5.9-14.8h-5.5v-0.9h11.8
			v0.9h-5.4C304.8,38.5,304.5,40.8,304.1,43.1z M317.2,43.5h-3v9.7h-0.9V34.4h0.9v8.2h3V43.5z"/>
		<path class="st0" d="M334.9,53.3V34.2h1.2l0,19.1H334.9z M325.4,52.3c-3.5,0-5.6-3.3-5.6-8.7c0-5.4,2.1-8.7,5.6-8.7
			s5.6,3.3,5.6,8.7C331,49,328.9,52.3,325.4,52.3z M325.4,36c-2.7,0-4.4,2.9-4.4,7.6c0,4.7,1.7,7.6,4.4,7.6c2.7,0,4.4-2.9,4.4-7.6
			C329.8,38.9,328.1,36,325.4,36z"/>
		<path class="st0" d="M330.9,43.5c0,5.8-2.3,8.6-5.5,8.6s-5.5-2.8-5.5-8.6s2.3-8.6,5.5-8.6S330.9,37.8,330.9,43.5z M320.8,43.5
			c0,5.2,2,7.7,4.6,7.7s4.5-2.5,4.5-7.7s-2-7.7-4.5-7.7S320.8,38.3,320.8,43.5z M335.9,53.2H335V34.4h1L335.9,53.2z"/>
		<path class="st0" d="M356.2,53.3V42.6h-7.9v-1.1h7.9v-7.3l1.2,0.1v19H356.2z M348.3,52h-7.3V35h1.2v15.9l6.3,0
			c1.6,0,3.1-0.3,4.6-0.9l0.2-0.1v1.2l-0.1,0c-1.5,0.6-3,0.9-4.6,0.9L348.3,52z"/>
		<path class="st0" d="M348.4,51c1.7,0,3.3-0.3,4.9-0.9V51c-1.5,0.6-3.2,0.9-4.9,0.9h-7.1V35.1h0.9V51H348.4z M357.2,34.4v18.8h-0.9
			V42.5h-7.9v-0.9h7.9v-7.3L357.2,34.4z"/>
		<polygon class="st0" points="361,52.2 361,51.1 369.8,51.1 369.8,46.6 362.5,46.6 362.5,40.3 377.3,40.3 377.3,36.3 362.5,36.3 
			362.5,35.1 378.5,35.1 378.5,41.4 363.7,41.4 363.7,45.4 378.9,45.4 378.9,46.6 371,46.6 371,51 379.9,51.1 379.9,52.2 		"/>
		<path class="st0" d="M379.7,51.2v0.8h-18.6v-0.8h8.8v-4.7h-7.3v-6.1h14.8v-4.3h-14.8v-0.9h15.8v6h-14.8v4.3h15.2v0.9h-7.9v4.7
			L379.7,51.2z"/>
		<path class="st0" d="M398.5,53.3V42.8h-5.6v-1.1h5.6v-7.4h1.2v19.1H398.5z M388.9,43.7c-1.1,5-3.3,7.9-6.2,8.3l-0.2,0v-1.1l0.1,0
			c4.3-0.8,5.9-8.8,5.9-15.9l0-0.1h1.2l0,0.1c0,2.4-0.2,4.8-0.6,7.2l6.3,9.3l-0.9,0.7L388.9,43.7z"/>
		<path class="st0" d="M389,42.2l6.2,9.2l-0.7,0.5l-5.7-8.6c-1.1,4.9-3.1,8.1-6.2,8.5V51c4.2-0.8,6-8.1,6-16.1h0.9
			C389.6,37.4,389.4,39.8,389,42.2z M399.5,34.4v18.8h-0.9V42.6H393v-0.8h5.5v-7.4H399.5z"/>
		<path class="st0" d="M425.1,53.3V34.2h1.2v8.2h3v1.2h-3v9.7H425.1z M418.1,52h-7.5V35h1.2v15.9l6.5,0c1.6,0,3.1-0.3,4.6-0.9
			l0.2-0.1v1.2l-0.1,0c-1.5,0.6-3,0.9-4.6,0.9L418.1,52z"/>
		<path class="st0" d="M418.1,51c1.7,0,3.3-0.3,4.9-0.9V51c-1.5,0.6-3.2,0.9-4.9,0.9h-7.4V35.1h0.9V51H418.1z M429.1,43.5h-3v9.7
			h-0.9V34.4h0.9v8.2h3V43.5z"/>
		<path class="st0" d="M446.2,53.3V34.2h1.2v8.2h3v1.1h-3v9.7H446.2z M437,52.3c-3.5,0-5.6-3.3-5.6-8.7c0-5.4,2.1-8.7,5.6-8.7
			s5.6,3.2,5.6,8.7C442.6,49,440.5,52.3,437,52.3z M437,36c-2.7,0-4.3,2.8-4.3,7.6c0,4.7,1.6,7.6,4.3,7.6s4.3-2.8,4.3-7.6
			C441.4,38.8,439.8,36,437,36z"/>
		<path class="st0" d="M442.5,43.5c0,5.8-2.3,8.6-5.4,8.6s-5.4-2.8-5.4-8.6s2.3-8.5,5.4-8.5S442.5,37.8,442.5,43.5z M441.5,43.5
			c0-5.2-1.9-7.7-4.5-7.7s-4.5,2.5-4.5,7.7s1.9,7.7,4.5,7.7S441.5,48.8,441.5,43.5z M450.3,43.5h-3v9.7h-0.9V34.4h0.9v8.2h3V43.5z"
			/>
		<path class="st0" d="M467.4,53.3V34.2h1.2v8.2h3v1.1h-3v9.7H467.4z M452.7,51.9v-1.2h0.1c5.5,0,8.9-4.3,8.9-11.3v-3.2h-9v-1.1
			h10.2v4.2c0,7.8-3.8,12.6-10,12.6H452.7z"/>
		<path class="st0" d="M452.8,35.2h9.9v4.1c0,7.4-3.6,12.4-9.9,12.4v-0.9c5.6,0,9-4.5,9-11.5v-3.3h-9V35.2z M471.5,43.5h-3v9.7h-0.9
			V34.4h0.9v8.2h3V43.5z"/>
		<path class="st0" d="M473,52.2v-1.1h7.7v-9.3h1.2v9.3h9.9v1.1H473z M489.2,47.8V36.2h-14.9v-1.1h16.1v12.7H489.2z"/>
		<path class="st0" d="M491.7,51.2v0.8h-18.6v-0.8h7.7v-9.3h0.9v9.3H491.7z M489.4,36.1h-14.9v-0.9h15.8v12.4h-0.9V36.1z"/>
		<path class="st0" d="M509.7,53.3V34.2h1.2v8.2h3v1.1h-3v9.7H509.7z M494.5,50.9l0.1,0c3.5-0.8,5.7-6.4,5.7-14.6h-5.5v-1.1h12.1
			v1.1h-5.4c0,2.3-0.2,4.6-0.7,6.8l6.6,8l-1,0.7l-6-7.3c-1.1,4.3-3.2,6.8-5.9,7.5l-0.2,0V50.9z"/>
		<path class="st0" d="M500.7,43.1l6.6,7.9l-0.7,0.5l-6.1-7.4c-1.1,4.3-3.1,7-5.9,7.6V51c3.8-0.9,5.8-7.1,5.9-14.8H495v-0.9h11.8
			v0.9h-5.4C501.4,38.5,501.2,40.8,500.7,43.1z M513.8,43.5h-3v9.7h-0.9V34.4h0.9v8.2h3V43.5z"/>
		<path class="st0" d="M537,53.3V34.2h1.2v8.2h3v1.1h-3v9.7H537z M528.2,52.2c-3,0-5.1-2.4-5.1-5.8c0-3.4,2.2-5.8,5.1-5.8
			s5.1,2.4,5.1,5.8C533.4,49.8,531.2,52.2,528.2,52.2z M528.1,41.8c-2,0-3.9,1.6-3.9,4.7c0,3.1,2,4.7,3.9,4.7c2.2,0,3.9-1.9,4-4.5
			l0-0.1C532.1,43.4,530.1,41.8,528.1,41.8z M522,38.8v-1.1h5.6v-3.5h1.2v3.5h5.6v1.1H522z"/>
		<path class="st0" d="M528.6,37.8h5.6v0.9h-12.2v-0.9h5.6v-3.5h0.9L528.6,37.8z M533.2,46.4c0,3.5-2.3,5.7-5,5.7s-5-2.2-5-5.7
			s2.3-5.7,5-5.7S533.2,42.9,533.2,46.4z M532.2,46.4c0-3-1.9-4.8-4.1-4.8s-4.1,1.8-4.1,4.8s1.9,4.8,4.1,4.8S532.3,49.4,532.2,46.4
			L532.2,46.4z M541.1,43.5h-3v9.7h-0.9V34.4h0.9v8.2h3V43.5z"/>
		<path class="st0" d="M544.2,52.9v-5.7h1.2l0,4.6h15.1v1.1H544.2z M542.7,45.3v-1.1h18.9v1.1H542.7z M544.2,41.6v-7.2h1.2l0,6.1
			h14.8v1.1H544.2z"/>
		<path class="st0" d="M561.4,45.1h-18.6v-0.9h18.6V45.1z M545.2,51.9h15.1v0.9h-16v-5.4h0.9L545.2,51.9z M545.2,40.6H560v0.9h-15.7
			v-6.9h0.9L545.2,40.6z"/>
		<path class="st0" d="M579.3,53.1c-5.1,0-7.8-1.3-7.8-3.6c0-2.3,2.8-3.6,7.8-3.6c5,0,7.8,1.3,7.8,3.6
			C587.1,51.8,584.3,53.1,579.3,53.1z M579.3,47c-4.1,0-6.6,1-6.6,2.5s2.5,2.5,6.6,2.5s6.6-1,6.6-2.5S583.4,47,579.3,47z
			 M585.5,45.3V34.2h1.2v4.6h3v1.1h-3v5.4H585.5z M570.9,43.9v-9.2h1.2v3.4h8.4v-3.4h1.2v9.2H570.9z M580.5,42.8v-3.6h-8.4v3.6
			L580.5,42.8z"/>
		<path class="st0" d="M581.6,43.7H571v-8.9h0.9v3.4h8.7v-3.4h0.9L581.6,43.7z M587,49.5c0,2.5-3.4,3.5-7.7,3.5s-7.7-1-7.7-3.5
			s3.4-3.5,7.7-3.5S587,47,587,49.5z M580.7,42.9V39h-8.7v3.9L580.7,42.9z M586.1,49.5c0-1.8-3-2.6-6.8-2.6s-6.8,0.9-6.8,2.6
			s3,2.6,6.8,2.6S586.1,51.3,586.1,49.5L586.1,49.5z M589.6,38.9v0.9h-3v5.4h-0.9V34.4h0.9v4.6L589.6,38.9z"/>
		<path class="st0" d="M600.5,53.1c-5,0-7.8-1.2-7.8-3.3s2.8-3.3,7.8-3.3c5,0,7.8,1.2,7.8,3.3c0,0,0,0,0,0
			C608.3,51.9,605.5,53.1,600.5,53.1z M600.5,47.6c-4.1,0-6.6,0.8-6.6,2.2s2.5,2.2,6.6,2.2c4.1,0,6.5-0.8,6.5-2.2v-0.1l0.1,0
			C607.1,48.4,604.7,47.6,600.5,47.6z M606.8,46V34.2h1.2v3h3v1.1l-3-0.1v3.6h3V43h-3v3H606.8z M597.7,45.4c-3.3,0-5.5-1.4-5.5-3.4
			c0-2.1,2.2-3.6,5.5-3.6c3.3,0,5.5,1.4,5.5,3.6C603.1,44.1,601,45.4,597.7,45.4z M597.7,39.6c-2.5,0-4.3,1-4.3,2.4
			c0,1.4,1.7,2.3,4.3,2.3s4.3-0.9,4.3-2.3C601.9,40.6,600.2,39.6,597.7,39.6z M591.2,37.4v-1.1h5.9v-2.4h1.2v2.3h5.9v1.2H591.2z"/>
		<path class="st0" d="M604,37.2h-12.7v-0.9h5.9V34h0.9v2.3h5.9V37.2z M592.3,42c0-2.1,2.2-3.4,5.3-3.4s5.3,1.3,5.3,3.4
			s-2.2,3.3-5.3,3.3S592.3,44,592.3,42z M608.1,49.8c0,2.3-3.3,3.2-7.7,3.2s-7.7-0.9-7.7-3.2s3.3-3.2,7.7-3.2S608.1,47.5,608.1,49.8
			L608.1,49.8z M593.2,42c0,1.4,1.7,2.4,4.4,2.4s4.4-1,4.4-2.4s-1.7-2.6-4.4-2.6S593.2,40.6,593.2,42z M607.2,49.8
			c0-1.6-2.9-2.3-6.7-2.3s-6.7,0.7-6.7,2.3s2.9,2.3,6.7,2.3S607.2,51.4,607.2,49.8L607.2,49.8z M607.9,38.1V42h3v0.8h-3v3h-0.9V34.4
			h0.9v3h3v0.8L607.9,38.1z"/>
		<path class="st0" d="M622.1,53.1c-5,0-7.9-1.4-7.9-3.7c0-2.4,2.9-3.7,7.9-3.7c5,0,7.9,1.3,7.9,3.7C630,51.8,627.1,53.1,622.1,53.1
			z M622.1,46.9c-4.1,0-6.7,1-6.7,2.6c0,1.6,2.6,2.6,6.7,2.6c4.1,0,6.7-1,6.7-2.6C628.7,47.8,626.2,46.9,622.1,46.9z M628.6,45.1
			v-5.8h-5.5v-1.1h5.5v-4h1.2v11H628.6z M612.5,43.4l0.1,0c3.7-0.8,6-4.2,6-8.7v-0.1h1.2l0,0.1c0,1.5-0.2,2.9-0.7,4.3l6.3,4.3
			l-0.7,0.9l-6.1-4.1c-1.2,2.3-3.4,4-5.9,4.5l-0.2,0V43.4z"/>
		<path class="st0" d="M612.6,44.4v-0.9c4-0.9,6.1-4.7,6.1-8.8h0.9c0,1.5-0.2,3-0.8,4.4l6.3,4.3l-0.5,0.7l-6.1-4.2
			C617.4,42.2,615.2,43.9,612.6,44.4z M629.8,49.4c0,2.5-3.4,3.6-7.7,3.6s-7.8-1.1-7.8-3.6s3.4-3.6,7.8-3.6S629.8,46.9,629.8,49.4
			L629.8,49.4z M628.9,49.4c0-1.8-3-2.7-6.8-2.7s-6.8,0.9-6.8,2.7s3,2.7,6.8,2.7S628.9,51.2,628.9,49.4L628.9,49.4z M628.8,39.2
			h-5.5v-0.8h5.5v-4h0.9V45h-0.9L628.8,39.2z"/>
		<path class="st0" d="M650.1,53.3V34.2l1.2-0.1v19.1H650.1z M645.7,53v-9.2h-3.1c0,5.6-1.5,8.5-4.3,8.5c-2.9,0-4.3-2.9-4.3-8.7
			c0-5.8,1.5-8.7,4.3-8.7c2.7,0,4.1,2.5,4.3,7.8h3.2v-8.3h1.2V53H645.7z M638.3,36c-2.1,0-3.1,2.6-3.1,7.6c0,5.1,1,7.6,3.1,7.6
			c2.1,0,3.1-2.5,3.1-7.6C641.4,38.4,640.4,36,638.3,36z"/>
		<path class="st0" d="M645.9,34.5h0.9v18.3h-0.9v-9.2h-3.4c0,5.7-1.5,8.5-4.2,8.5s-4.2-2.8-4.2-8.6s1.5-8.5,4.2-8.5s4,2.5,4.2,7.8
			h3.4V34.5z M641.5,43.5c0-5.2-1.1-7.7-3.2-7.7s-3.3,2.5-3.3,7.7s1.1,7.7,3.3,7.7S641.5,48.8,641.5,43.5L641.5,43.5z M651.2,34.3
			v18.8h-0.9V34.4L651.2,34.3z"/>
		<path class="st0" d="M676.9,53.3V34.2h1.2v19.1H676.9z M662.1,52V34.9h1.2v7.2h8.1v-7.2h1.2V52H662.1z M671.4,50.9v-7.6h-8.1v7.6
			H671.4z"/>
		<path class="st0" d="M671.6,35h0.9v16.8h-10.2V35h0.9v7.2h8.4V35z M671.6,51v-7.9h-8.4V51H671.6z M678,34.4v18.8h-0.9V34.4H678z"
			/>
		<path class="st0" d="M694.5,53.7v-6.1h-6.1v6.1h-1.2v-6.1H682v-1.2h18.9v1.2h-5.1v6.1H694.5z M691.4,44.4c-5.2,0-8.3-1.8-8.3-4.9
			v0c0-3.1,3.1-4.9,8.3-4.9c5.2,0,8.3,1.8,8.3,4.9S696.6,44.4,691.4,44.4z M691.4,35.8c-4.4,0-7.1,1.4-7.1,3.7
			c0,2.3,2.7,3.8,7.1,3.8c4.3,0,7-1.4,7-3.8C698.4,37.2,695.8,35.8,691.4,35.8z"/>
		<path class="st0" d="M700.7,47.5h-5.1v6.1h-0.9v-6.1h-6.4v6.1h-0.9v-6.1h-5.2v-0.9h18.6V47.5z M683.3,39.5c0-3.1,3.3-4.8,8.1-4.8
			s8.1,1.7,8.1,4.8s-3.3,4.8-8.1,4.8S683.3,42.6,683.3,39.5L683.3,39.5z M684.2,39.5c0,2.5,2.9,3.9,7.2,3.9s7.2-1.4,7.2-3.9
			s-2.9-3.9-7.2-3.9S684.2,37,684.2,39.5L684.2,39.5z"/>
		<path class="st0" d="M704.6,52.9v-4h14.8v-1.7h-14.8v-1.1h16V50h-14.8v1.8H721v1.1H704.6z M703.1,44.4v-1.1H722v1.1H703.1z
			 M704.7,41.6v-4.1h14.6v-1.8h-14.6v-1.1h15.8l0.1,4h-14.7v1.8h14.9v1.1H704.7z"/>
		<path class="st0" d="M721.8,44.3h-18.6v-0.8h18.6V44.3z M720.4,49.9h-14.8v2.1h15.2v0.8h-16.1v-3.7h14.8v-2h-14.8v-0.8h15.7
			L720.4,49.9z M720.4,38.5h-14.7v2.1h14.9v0.8h-15.8v-3.8h14.6v-2.1h-14.6v-0.8h15.5L720.4,38.5z"/>
		<path class="st0" d="M747.1,53.3v-9.8h-4V53h-1.2V34.4h1.2v8h3.9v-8.1l1.2,0v19H747.1z M735.3,52.2c-2.6,0-4.3-2.3-4.3-5.8
			c0-3.5,1.7-5.8,4.3-5.8c2.6,0,4.3,2.3,4.3,5.8C739.6,49.9,737.9,52.2,735.3,52.2z M735.3,41.7c-1.9,0-3.1,1.8-3.1,4.7
			c0,2.8,1.2,4.7,3.1,4.7c1.9,0,3.1-1.8,3.1-4.7C738.4,43.5,737.2,41.7,735.3,41.7z M730.1,38.8v-1.1h4.5v-3.5h1.2l0,3.5h4.6v1.1
			H730.1z"/>
		<path class="st0" d="M735.7,37.8h4.6v0.8h-10v-0.8h4.5v-3.5h0.9L735.7,37.8z M739.5,46.4c0,3.6-1.7,5.7-4.2,5.7s-4.2-2.1-4.2-5.7
			s1.7-5.7,4.2-5.7S739.5,42.8,739.5,46.4z M738.6,46.4c0-3.1-1.4-4.8-3.2-4.8s-3.2,1.8-3.2,4.8s1.4,4.8,3.2,4.8
			S738.6,49.4,738.6,46.4z M748.2,34.4v18.8h-0.9v-9.8H743v9.5h-0.9V34.5h0.9v8h4.2v-8.1L748.2,34.4z"/>
		<path class="st0" d="M751.6,52.2v-1.1h8.8V46H753V34.9h1.2V39h13.6v-4.2h1.2V46h-7.4v5.1h8.8v1.1H751.6z M767.9,44.9v-4.7h-13.6
			v4.7H767.9z"/>
		<path class="st0" d="M770.3,51.2v0.8h-18.6v-0.8h8.8v-5.3h-7.4V35h0.9v4.2H768V35h0.9v10.9h-7.4v5.3H770.3z M754.1,45H768v-5
			h-13.9V45z"/>
		<path class="st0" d="M786.4,49.5c-0.8,1.8-2.4,3-4.3,3.4l-0.1,0l-3.4-3.3c-0.9,1.7-2.5,2.9-4.4,3.2l-0.2,0v-1.1l0.1,0
			c2.3-0.4,4.2-3.2,4.4-6.3l0-0.1l1.2,0.1l0,0.1c-0.1,1.1-0.3,2.1-0.7,3.1l3.3,3.1c2-0.6,3.7-3.2,3.9-6.2l0-0.1l1.2,0.1l0,0.1
			c-0.1,1-0.3,1.9-0.6,2.8l4.4,3.7l-0.8,0.8L786.4,49.5z M788.3,45V34.2h1.2v4.5h3v1.1h-3V45H788.3z M778.8,44.4
			c-3.5,0-5.8-1.9-5.8-4.9c0-3,2.3-4.9,5.8-4.9c3.5,0,5.8,1.9,5.8,4.9C784.6,42.4,782.3,44.4,778.8,44.4z M778.8,35.7
			c-2.8,0-4.5,1.5-4.5,3.8c0,2.3,1.7,3.8,4.5,3.8c2.8,0,4.5-1.5,4.5-3.8S781.6,35.7,778.8,35.7z"/>
		<path class="st0" d="M773.2,39.5c0-2.8,2.1-4.8,5.6-4.8s5.6,2,5.6,4.8s-2.1,4.8-5.6,4.8S773.2,42.2,773.2,39.5z M774.1,39.5
			c0,2.5,1.9,3.9,4.7,3.9s4.7-1.4,4.7-3.9s-1.9-3.9-4.7-3.9S774.1,37,774.1,39.5z M786.7,48.4l4.3,3.7l-0.6,0.6l-4.1-3.5
			c-0.8,1.8-2.4,3.1-4.3,3.5l-3.5-3.3c-0.8,1.7-2.4,3-4.3,3.3v-0.8c2.3-0.4,4.4-3.2,4.5-6.5l0.9,0.1c-0.1,1.1-0.3,2.1-0.7,3.1
			l3.4,3.2c2.1-0.5,3.9-3.2,4-6.4l0.9,0.1C787.3,46.5,787.1,47.5,786.7,48.4z M792.4,38.9v0.9h-3v5.2h-0.9V34.4h0.9v4.5H792.4z"/>
		<path class="st0" d="M795.4,52.9v-7.3h1.2v2.5h13.5v-2.5h1.2v7.3H795.4z M796.6,51.7l13.5,0v-2.4h-13.5V51.7z M793.9,44.1V43
			l18.9,0v1.2H793.9z M803.3,37.4c-2.2,2.3-5.2,3.6-8.4,3.7l-0.1,0V40l0.1,0c3.6-0.1,8-2.5,8.9-6.1l0-0.1L805,34l0,0.1
			c-0.2,0.8-0.5,1.6-0.9,2.4l8.1,3.7l-0.5,1L803.3,37.4z"/>
		<path class="st0" d="M812.7,43.1V44h-18.6v-0.9L812.7,43.1z M794.9,41v-0.9c3.7-0.1,8.1-2.5,9-6.2l0.9,0.2c-0.2,0.9-0.5,1.7-1,2.5
			l8.1,3.7l-0.4,0.8l-8.3-3.8C801.1,39.6,798.1,40.9,794.9,41z M810.2,45.7h0.9v7h-15.6v-7h0.9v2.5h13.8V45.7z M810.2,51.8v-2.7
			h-13.8v2.8L810.2,51.8z"/>
		<path class="st0" d="M831.2,53.3V34.2h1.2v19.1H831.2z M816.4,51.9V35h1.2l0,15.9h6.5c1.7,0,3.3-0.3,4.8-1l0.2-0.1V51l-0.1,0
			c-1.5,0.6-3.1,0.9-4.7,0.9L816.4,51.9z"/>
		<path class="st0" d="M817.5,51h6.7c1.7,0,3.3-0.3,4.8-1v0.9c-1.5,0.6-3.2,1-4.9,0.9h-7.6V35.1h0.9L817.5,51z M832.3,53.2h-1V34.4
			h1V53.2z"/>
		<path class="st0" d="M851.9,53.3V34.2h1.2v8.2h3l0,1.2h-3v9.7H851.9z M837.4,51.9V35.1h11.1v1.1h-9.9v14.6h6.3
			c1.7,0,3.3-0.3,4.8-1l0.2-0.1V51l-0.1,0c-1.5,0.6-3.1,0.9-4.7,0.9L837.4,51.9z"/>
		<path class="st0" d="M844.9,51c1.7,0,3.3-0.3,4.9-1v0.9c-1.5,0.6-3.2,0.9-4.9,0.9h-7.4V35.2h10.8v0.9h-9.9V51H844.9z M855.9,43.5
			h-3v9.7H852V34.4h0.9v8.2h3L855.9,43.5z"/>
		<circle class="st0" cx="858.7" cy="51.9" r="1.1"/>
		<path class="st0" d="M859.7,51.9c0,0.6-0.4,1-1,1s-1-0.4-1-1s0.4-1,1-1S859.7,51.4,859.7,51.9z"/>
		<path class="st0" d="M1.9,86.9v-4.6h14.3V80H1.9v-1.1h15.5v4.6H3.1v2.3l14.9,0v1.1H1.9z M16.2,77.8v-2h-4.9v-1.1h4.9v-2.9H12v-1.1
			h4.2v-2.4h1.2v9.6H16.2z M0.6,77.2v-1.1h0.1c6.4,0,9.3-1.8,9.3-5.5V70H0.6v-1.2h10.7v1.6c0,4.5-3.5,6.7-10.6,6.7H0.6z"/>
		<path class="st0" d="M0.8,77.1v-0.9c6,0,9.5-1.5,9.5-5.7v-0.6H0.8V69h10.4v1.5C11.2,75.2,7.3,77.1,0.8,77.1z M17.9,85.9v0.8H2
			v-4.3h14.3v-2.6H2V79h15.2v4.3H3v2.6L17.9,85.9z M16.3,75.6h-4.9v-0.9h4.9v-3.1h-4.2v-0.9h4.2v-2.4h0.9v9.3h-0.9V75.6z"/>
		<path class="st0" d="M36.7,87.3V68.2h1.2v8.1h2.9v1.2h-2.9v9.9H36.7z M28.8,86c-0.4,0-0.7,0-1.1,0H21v-1.1h4v-8.9h1.2v8.9h1.4
			c3.5,0,5.8-0.3,7.1-0.8l0.2-0.1v1.2l-0.1,0C32.9,85.7,30.8,86,28.8,86z M31.3,81.5V70.3h-9.5v-1.1h10.7v12.4H31.3z"/>
		<path class="st0" d="M27.6,85c3.1,0,5.7-0.2,7.2-0.9V85c-2.3,0.7-4.7,0.9-7.1,0.8h-6.5V85h4V76h0.9V85H27.6z M31.5,70.1H22v-0.9
			h10.4v12.1h-0.9V70.1z M40.7,77.3h-2.9v9.9h-0.9V68.4h0.9v8.1h2.9V77.3z"/>
		<path class="st0" d="M58.5,87.1v-5H43.9V81h15.8v6.1H58.5z M58.5,80v-5.9h-4.5v-1.1h4.5v-4.7h1.2V80H58.5z M42.6,78.1l0.1,0
			c3.6-0.7,5.7-3.5,5.9-8h-5.7v-1.1h12.3v1.1h-5.3c0,1.2-0.2,2.3-0.6,3.4l6.3,4.7l-0.7,0.9l-6.1-4.5c-1.1,2.5-3.4,4.2-6.1,4.6
			l-0.2,0V78.1z"/>
		<path class="st0" d="M42.8,79.1v-0.9c3.7-0.7,5.9-3.5,6-8.2H43v-0.9h12v0.9h-5.3c0,1.2-0.2,2.4-0.6,3.6l6.3,4.7l-0.5,0.7l-6.1-4.5
			C47.7,76.9,45.4,78.7,42.8,79.1z M44,81.2h15.5V87h-0.9v-5H44V81.2z M59.5,68.4v11.5h-0.9v-5.9h-4.5v-0.8h4.5v-4.7H59.5z"/>
		<path class="st0" d="M63.3,86.2v-1.1h18.9v1.1H63.3z M72.8,80.6c-5.1,0-8.4-2.3-8.4-5.9c0-3.6,3.3-5.9,8.3-5.9
			c5.1,0,8.4,2.3,8.4,5.9C81.1,78.3,77.9,80.6,72.8,80.6z M65.7,74.7c0,2.9,2.8,4.8,7.1,4.8c4.3,0,7.1-1.9,7.1-4.8
			c0-2.8-2.9-4.8-7.1-4.8c-4.3,0-7.1,1.8-7.1,4.6L65.7,74.7z"/>
		<path class="st0" d="M82.1,86.1H63.5v-0.8h18.6V86.1z M81,74.7c0,3.5-3.2,5.8-8.2,5.8s-8.2-2.2-8.2-5.8s3.2-5.7,8.2-5.7
			S81,71.2,81,74.7z M65.5,74.7c0,3,2.9,4.9,7.3,4.9s7.3-2,7.3-4.9s-2.9-4.9-7.3-4.9S65.5,71.8,65.5,74.7L65.5,74.7z"/>
		<polygon class="st0" points="84.5,86.2 84.5,85.1 93.3,85.1 93.3,80.6 86,80.6 86,74.3 100.8,74.3 100.8,70.3 86,70.3 86,69.1 
			102,69.1 102,75.4 87.1,75.4 87.1,79.4 102.3,79.4 102.3,80.6 94.5,80.6 94.5,85 103.4,85.1 103.4,86.2 		"/>
		<path class="st0" d="M103.2,85.2v0.8H84.7v-0.8h8.8v-4.7h-7.3v-6.1h14.8v-4.3H86.1v-0.9h15.8v6H87v4.3h15.2v0.9h-7.8v4.7
			L103.2,85.2z"/>
		<path class="st0" d="M113.4,86.9v-4.6h14.1V80h-14.1v-1.1h15.3v4.6h-14l0,2.3h14.7v1.1H113.4z M127.4,77.8v-9.6h1.2v4l3,0v1.1h-3
			v4.4H127.4z M112.7,76.8v-7.9h11.7V70h-10.5v5.6h4.7c0.3,0,0.7,0,1,0c2.1,0,4.2-0.3,6.1-1l0.2-0.1v1.2l-0.1,0c-1.3,0.7-4,1-7.4,1
			H112.7z"/>
		<path class="st0" d="M118.5,76.6h-5.6V69h11.4v0.9h-10.5v5.9h4.8c2.4,0.1,4.9-0.2,7.2-1v0.9C124.5,76.3,121.9,76.6,118.5,76.6z
			 M114.5,85.9h14.7v0.8h-15.7v-4.3h14.1v-2.6h-14.1V79h15v4.3h-14L114.5,85.9z M131.5,72.4v0.9h-3v4.4h-0.9v-9.3h0.9v4L131.5,72.4z
			"/>
		<path class="st0" d="M134.4,86.9v-4.2h14.8v-1.9h-14.8v-1.1h16v4.1h-14.8v2h15.2v1.1H134.4z M133,77.7v-1.1h18.9v1.1H133z
			 M142.5,75.2c-2.4,0-8.1-0.3-8.1-3.4c0-2.2,3-3.4,8.1-3.4c2.4,0,8.1,0.3,8.1,3.4C150.6,74.9,144.9,75.2,142.5,75.2z M142.4,69.5
			c-3.4,0-6.9,0.6-6.9,2.3c0,1.7,3.6,2.3,6.9,2.3c4.3,0,6.9-0.9,6.9-2.3C149.4,70.3,146.8,69.5,142.4,69.5z"/>
		<path class="st0" d="M151.7,77.6h-18.6v-0.8h18.6L151.7,77.6z M150.5,71.8c0,2.4-3.8,3.3-8,3.3s-8-0.9-8-3.3s3.8-3.3,8-3.3
			S150.5,69.4,150.5,71.8z M150.3,83.7h-14.8v2.2h15.2v0.8h-16.1v-3.9h14.8v-2.2h-14.8v-0.8h15.7L150.3,83.7z M135.3,71.8
			c0,1.8,3.4,2.4,7.1,2.4s7.1-0.7,7.1-2.4s-3.4-2.4-7.1-2.4S135.3,70,135.3,71.8z"/>
		<path class="st0" d="M160.3,86.2v-1.1h8.8v-5.5h-7.4V69.1h16v10.5h-7.4v5.5h8.8v1.1H160.3z M176.5,78.5v-8.2H163l0,8.2H176.5z"/>
		<path class="st0" d="M179,85.2v0.8h-18.5v-0.8h8.8v-5.8h-7.4V69.2h15.7v10.2h-7.4v5.8H179z M162.8,78.6h13.9v-8.5h-13.8
			L162.8,78.6z"/>
		<path class="st0" d="M197.6,87.3V68.2l1.2,0v19.1H197.6z M190.5,86h-7.7V69.1h11.3v1.1H184v6.5h9.7v1.1H184v6.9l6.7,0
			c1.6,0,3.1-0.3,4.6-0.9l0.2-0.1V85l-0.1,0c-1.5,0.6-3,0.9-4.6,0.9L190.5,86z"/>
		<path class="st0" d="M190.5,85c1.7,0,3.3-0.3,4.9-0.9v0.9c-1.5,0.6-3.2,0.9-4.9,0.9h-7.6V69.2h11v0.9h-10.1v6.8h9.7v0.9h-9.7V85
			H190.5z M198.7,68.4v18.8h-0.9V68.4L198.7,68.4z"/>
		<path class="st0" d="M202.6,86.2v-1.1h18.9v1.1H202.6z M204.1,80.4V68.9h1.2v4.4h13.6v-4.4h1.2l0,11.5H204.1z M218.9,79.2v-4.8
			h-13.6v4.8H218.9z"/>
		<path class="st0" d="M221.4,85.2v0.8h-18.6v-0.8H221.4z M219.9,80.2h-15.7V69h0.9v4.4H219V69h0.9L219.9,80.2z M219,79.3v-5.1
			h-13.9v5.1H219z"/>
		<polygon class="st0" points="223.9,86.2 223.9,85.1 232.6,85.1 232.6,80.6 225.3,80.6 225.3,74.3 240.1,74.3 240.1,70.3 
			225.3,70.3 225.3,69.1 241.3,69.1 241.3,75.4 226.5,75.4 226.5,79.4 241.6,79.4 241.6,80.6 233.8,80.6 233.8,85 242.7,85.1 
			242.7,86.2 		"/>
		<path class="st0" d="M242.5,85.2v0.8H224v-0.8h8.8v-4.7h-7.3v-6.1h14.8v-4.3h-14.9v-0.9h15.8v6h-14.8v4.3h15.2v0.9h-7.9v4.7
			L242.5,85.2z"/>
		<path class="st0" d="M267.2,87.3v-19h1.2v19H267.2z M252.5,86V69.1h11.3l-0.1,1.1h-10v14.6h6.6c1.6,0,3.2-0.3,4.7-0.9l0.2-0.1V85
			l-0.1,0c-1.5,0.6-3.1,0.9-4.7,0.9L252.5,86z"/>
		<path class="st0" d="M263.6,70.1h-10V85h6.6c1.7,0,3.3-0.3,4.9-0.9v0.9c-1.5,0.6-3.2,0.9-4.9,0.9h-7.6V69.2h11L263.6,70.1z
			 M268.3,87.1h-0.9V68.4h0.9V87.1z"/>
		<path class="st0" d="M287.9,87.3V68.2h1.3v8.2h3l-0.1,1.1h-3v9.7H287.9z M272.6,84.9l0.1,0c3.5-0.8,5.7-6.4,5.7-14.6H273v-1.1
			h12.1v1.1h-5.4c0,2.3-0.2,4.6-0.6,6.8l6.6,8l-1,0.7l-6-7.3c-1.1,4.3-3.2,6.8-5.9,7.5l-0.2,0V84.9z"/>
		<path class="st0" d="M278.9,77.1l6.6,7.9l-0.7,0.6l-6.1-7.4c-1.1,4.3-3.1,7-5.9,7.6V85c3.8-0.9,5.8-7.1,5.9-14.8h-5.5v-0.9h11.8
			v0.9h-5.4C279.5,72.5,279.3,74.8,278.9,77.1z M291.9,77.5h-3v9.7H288V68.4h1v8.2h3L291.9,77.5z"/>
		<path class="st0" d="M309.6,87.3V68.2h1.2v19.1H309.6z M300.1,86.3c-3.5,0-5.6-3.3-5.6-8.7c0-5.4,2.1-8.7,5.6-8.7s5.6,3.2,5.6,8.7
			C305.8,83,303.7,86.3,300.1,86.3z M300.1,70c-2.8,0-4.4,2.8-4.4,7.6c0,4.7,1.7,7.6,4.4,7.6c2.7,0,4.4-2.9,4.4-7.6
			S302.8,70,300.1,70z"/>
		<path class="st0" d="M305.6,77.5c0,5.8-2.3,8.6-5.5,8.6s-5.5-2.8-5.5-8.6s2.4-8.6,5.5-8.6S305.6,71.8,305.6,77.5z M295.6,77.5
			c0,5.2,2,7.7,4.5,7.7s4.6-2.5,4.6-7.7s-2-7.7-4.6-7.7S295.6,72.3,295.6,77.5z M310.7,87.2h-0.9V68.4h0.9V87.2z"/>
		<path class="st0" d="M330.9,87.3V76.6h-7.9v-1.1h7.9v-7.3h1.2v19.1H330.9z M323.1,86h-7.2V69h1.2v15.9l6.3,0
			c1.6,0,3.1-0.3,4.6-0.9l0.2-0.1v1.2l-0.1,0c-1.5,0.6-3,0.9-4.6,0.9L323.1,86z"/>
		<path class="st0" d="M323.1,85c1.7,0,3.3-0.3,4.9-0.9V85c-1.5,0.6-3.2,0.9-4.9,0.9H316V69.1h0.9V85H323.1z M332,68.4v18.8h-0.9
			V76.5h-7.9v-0.9h7.9v-7.3H332z"/>
		<polygon class="st0" points="335.8,86.2 335.8,85.1 344.5,85.1 344.5,80.6 337.2,80.6 337.2,74.3 352.1,74.3 352.1,70.3 
			337.2,70.3 337.2,69.1 353.3,69.1 353.3,75.4 338.5,75.4 338.5,79.4 353.6,79.4 353.6,80.6 345.8,80.6 345.8,85 354.7,85.1 
			354.7,86.2 		"/>
		<path class="st0" d="M354.5,85.2v0.8h-18.6v-0.8h8.8v-4.7h-7.3v-6.1h14.8v-4.3h-14.8v-0.9h15.8v6h-14.8v4.3h15.2v0.9h-7.9v4.7
			L354.5,85.2z"/>
		<path class="st0" d="M373.3,87.3V76.8h-5.6v-1.1h5.6v-7.4h1.2v19.1H373.3z M363.7,77.7c-1.1,4.9-3.3,7.9-6.2,8.3l-0.2,0v-1.1
			l0.1,0c4.3-0.8,5.9-8.8,5.9-15.9v-0.1h1.2l0,0.1c0,2.4-0.1,4.8-0.5,7.2l6.3,9.3l-1,0.7L363.7,77.7z"/>
		<path class="st0" d="M363.8,76.2l6.2,9.2l-0.7,0.6l-5.7-8.6c-1,4.9-3.1,8.1-6.2,8.5V85c4.2-0.8,6-8.1,6-16.1h0.9
			C364.4,71.4,364.2,73.8,363.8,76.2z M374.3,68.4v18.8h-0.9V76.6h-5.5v-0.8h5.5v-7.4H374.3z"/>
		<path class="st0" d="M400.4,87.3V68.2h1.2v19.1H400.4z M385.6,86V69.1h10.6V86H385.6z M386.8,84.9l8.1,0V70.3h-8.1V84.9z"/>
		<path class="st0" d="M396,85.8h-10.3V69.2H396V85.8z M395.1,85V70.1h-8.4V85L395.1,85z M401.5,87.2h-0.9V68.4h0.9V87.2z"/>
		<path class="st0" d="M422.1,87.3v-9.8h-4V87h-1.2V68.4h1.2v8h4v-8.1l1.2,0v19.1H422.1z M409.8,86c-0.3,0-0.5,0-0.8,0h-2.8v-9.2
			h6.2v-6.5h-6.2v-1.1h7.5v8.8h-6.2v6.9h1.5c0.3,0,0.6,0,0.8,0l0,0c1.9,0,3.7-0.4,5.4-1.1l0.2-0.1V85l-0.1,0
			C413.5,85.7,411.7,86,409.8,86z"/>
		<path class="st0" d="M408.9,85c2.2,0.1,4.3-0.2,6.3-1.1v0.9c-2,0.8-4.1,1.1-6.2,1h-2.6v-8.9h6.2v-6.8h-6.2v-0.9h7.2v8.5h-6.2V85
			H408.9z M423.2,68.4v18.8h-0.9v-9.8h-4.3v9.5H417V68.5h0.9v8h4.3v-8.1L423.2,68.4z"/>
		<path class="st0" d="M428.1,86.9v-4h14.8v-1.7H428v-1.1h16V84h-14.8v1.8h15.2v1.1H428.1z M426.6,78.4v-1.1h18.9v1.1H426.6z
			 M428.2,75.6v-4.1h14.7v-1.8h-14.7v-1.1H444l0,4h-14.7v1.8h14.9v1.1H428.2z"/>
		<path class="st0" d="M445.3,78.3h-18.6v-0.8h18.6V78.3z M443.9,83.9h-14.8v2.1h15.2v0.8h-16.1v-3.7H443v-2h-14.8v-0.8h15.7V83.9z
			 M443.9,72.5h-14.7v2.1h14.9v0.8h-15.9v-3.8H443v-2.1h-14.7v-0.8h15.5L443.9,72.5z"/>
		<path class="st0" d="M469.5,87.3V68.2h1.2v8.2h3v1.2h-3v9.7H469.5z M462.6,86H455V69h1.2v15.9l6.5,0c1.6,0,3.1-0.3,4.6-0.9
			l0.2-0.1v1.2l-0.1,0c-1.5,0.6-3,0.9-4.6,0.9L462.6,86z"/>
		<path class="st0" d="M462.6,85c1.7,0,3.3-0.3,4.9-0.9V85c-1.5,0.6-3.2,0.9-4.9,0.9h-7.4V69.1h0.9V85H462.6z M473.6,77.5h-3v9.7
			h-0.9V68.4h0.9v8.2h3V77.5z"/>
		<path class="st0" d="M490.7,87.3V68.2h1.2v8.2h3v1.1h-3v9.7H490.7z M481.5,86.3c-3.5,0-5.6-3.3-5.6-8.7c0-5.4,2.1-8.7,5.6-8.7
			c3.5,0,5.6,3.2,5.6,8.7C487,83,484.9,86.3,481.5,86.3z M481.5,70c-2.7,0-4.3,2.8-4.3,7.6s1.6,7.6,4.3,7.6c2.7,0,4.3-2.8,4.3-7.6
			S484.2,70,481.5,70z"/>
		<path class="st0" d="M486.9,77.5c0,5.8-2.3,8.6-5.4,8.6s-5.4-2.8-5.4-8.6s2.3-8.6,5.4-8.6S486.9,71.8,486.9,77.5z M485.9,77.5
			c0-5.2-1.9-7.7-4.5-7.7s-4.5,2.5-4.5,7.7s1.9,7.7,4.5,7.7S485.9,82.8,485.9,77.5z M494.7,77.5h-3v9.7h-0.9V68.4h0.9v8.2h3V77.5z"
			/>
		<path class="st0" d="M511.9,87.3V68.2h1.2v8.2h3l0,1.1h-3v9.7H511.9z M497.1,85.9v-1.2h0.1c5.5,0,8.9-4.3,8.9-11.3v-3.2h-9v-1.1
			h10.2v4.2c0,7.8-3.8,12.6-10,12.6H497.1z"/>
		<path class="st0" d="M497.2,69.2h9.9v4.1c0,7.4-3.6,12.4-9.9,12.4v-0.9c5.6,0,9-4.5,9-11.5v-3.3h-9V69.2z M515.9,77.5h-3v9.7H512
			V68.4h0.9v8.2h3L515.9,77.5z"/>
		<path class="st0" d="M519,86.9v-5.7h1.2v4.6h15.1v1.1H519z M517.4,79.3v-1.1h18.9v1.1H517.4z M519,75.6v-7.2h1.2v6.1H535v1.1H519z
			"/>
		<path class="st0" d="M536.1,79.1h-18.6v-0.9h18.6V79.1z M520,85.9h15.1v0.9h-16v-5.4h0.9V85.9z M520,74.6h14.8v0.9h-15.7v-6.9h0.9
			V74.6z"/>
		<path class="st0" d="M561.1,87.3V77h-5.3v-1.1h5.3v-7.6l1.2-0.1v19.1H561.1z M545.1,84.9l0.1,0c3.5-0.8,5.7-6.4,5.7-14.6h-5.5
			v-1.1h12.1v1.1h-5.4c0,2.2-0.2,4.5-0.6,6.7l6.7,8.1l-0.9,0.7l-6.1-7.4c-1.1,4.4-3.2,7-6,7.6l-0.2,0V84.9z"/>
		<path class="st0" d="M551.3,77l6.7,8l-0.7,0.6l-6.2-7.5c-1.1,4.4-3.1,7.1-5.9,7.7V85c3.8-0.9,5.8-7.1,5.8-14.8h-5.5v-0.9h11.9v0.9
			H552C552,72.4,551.8,74.7,551.3,77z M562.1,68.3v18.8h-0.9V76.8h-5.3V76h5.3v-7.6L562.1,68.3z"/>
		<path class="st0" d="M582.1,87.3V68.2h1.2v19.1H582.1z M565.9,86v-1.1h7.1c3.2,0,5.8-0.4,7.1-1l0.2-0.1V85l-0.1,0
			c-1.3,0.6-4.1,1-7.4,1H565.9z M572.4,80.5c-3.2,0-5.8-2.7-5.7-5.9c0.1-3.1,2.7-5.7,5.8-5.7l0.1,0c3,0,5.6,2.5,5.7,5.5
			c0,0.1,0,0.3,0,0.4C578.2,77.9,575.6,80.5,572.4,80.5L572.4,80.5z M572.4,70c-2.4,0-4.4,2-4.5,4.4c0,0.1,0,0.2,0,0.3
			c0.1,2.5,2.1,4.4,4.6,4.4l0.2,0c1.2,0,2.3-0.6,3.2-1.5c0.8-0.9,1.3-2.1,1.2-3.3C576.9,71.9,574.9,70,572.4,70v-0.1V70z"/>
		<path class="st0" d="M572.9,85.8H566V85h7c3.3,0,5.8-0.4,7.2-1v0.9C579,85.5,576.3,85.8,572.9,85.8z M578.1,74.7
			c0,3.1-2.6,5.6-5.7,5.6c-3.1,0-5.6-2.6-5.6-5.7c0-3.1,2.6-5.6,5.7-5.6c3-0.1,5.6,2.3,5.7,5.4C578.1,74.5,578.1,74.6,578.1,74.7z
			 M567.8,74.7c0.1,2.6,2.3,4.6,4.9,4.5c2.6-0.1,4.6-2.3,4.5-4.9c-0.1-2.5-2.2-4.5-4.7-4.5c-2.6,0-4.7,2-4.7,4.5
			C567.7,74.5,567.7,74.6,567.8,74.7z M583.2,87.2h-0.9V68.4h0.9V87.2z"/>
		<path class="st0" d="M609.5,87.1v-4.5h-14.9v-1.1h16.1v5.6H609.5z M593.2,79.3v-1.1h8.8v-2.5h-7.3v-7h15.8v7h-7.3v2.5h8.9v1.1
			H593.2z M609.4,74.5v-4.7H596l0,4.7H609.4z"/>
		<path class="st0" d="M612,78.2v0.9h-18.6v-0.9h8.8v-2.8h-7.3v-6.7h15.5v6.7h-7.3v2.8H612z M594.7,81.7h15.8V87h-0.9v-4.5h-14.9
			V81.7z M595.9,74.7h13.7v-5h-13.7L595.9,74.7z"/>
		<path class="st0" d="M614.4,86.2v-1.1h5.2v-5.2h-4.1v-1.1h3.7v-8.3h-3.5v-1.1H632v1.1h-3.5v8.3h3.7v1.1H628v5.2h5.2v1.1H614.4z
			 M626.9,85.1v-5.2h-6v5.2H626.9z M627.2,78.7v-8.3h-6.8v8.3H627.2z"/>
		<path class="st0" d="M633.1,85.2v0.8h-18.6v-0.8h5.2v-5.5h-4.1v-0.9h3.7v-8.5h-3.5v-0.9h16v0.9h-3.5v8.5h3.7v0.9h-4.1v5.5
			L633.1,85.2z M620.3,78.9h7.1v-8.5h-7.1V78.9z M620.7,85.2h6.3v-5.5h-6.3V85.2z"/>
		<path class="st0" d="M637,86.9v-4h14.8v-1.7H637v-1.1h16V84h-14.8v1.8h15.2v1.1H637z M635.6,78.4v-1.1h18.9v1.1H635.6z
			 M637.1,75.6v-4.1h14.6v-1.8h-14.6v-1.1h15.8v4h-14.6v1.8h14.9v1.1H637.1z"/>
		<path class="st0" d="M654.3,78.3h-18.6v-0.8h18.6V78.3z M652.9,83.9h-14.8v2.1h15.2v0.8h-16.1v-3.7h14.8v-2h-14.8v-0.8h15.7
			L652.9,83.9z M652.8,72.5h-14.6v2.1h14.9v0.8h-15.8v-3.8h14.6v-2.1h-14.6v-0.8h15.5L652.8,72.5z"/>
		<path class="st0" d="M664.4,86.9v-7.1h15.3v7.1H664.4z M678.5,85.7V81h-12.9l0,4.8H678.5z M678.4,78.8V68.2h1.2v4.5h3v1.1h-3v5
			H678.4z M663.8,77.6v-8.7h11.7V70H665v6.4h4.7c0.3,0,0.7,0,1,0c2.1,0,4.2-0.3,6.1-1l0.2-0.1v1.2l-0.1,0c-1.3,0.7-4,1-7.4,1H663.8z
			"/>
		<path class="st0" d="M669.5,77.4h-5.6V69h11.4v0.9h-10.5v6.7h4.8c2.4,0.1,4.9-0.2,7.2-1v0.9C675.5,77.1,672.9,77.4,669.5,77.4z
			 M664.5,79.9h15v6.8h-15V79.9z M665.4,85.9h13.2v-5.1h-13.2L665.4,85.9z M682.5,73.7h-3v4.9h-0.9V68.4h0.9v4.4h3V73.7z"/>
		<path class="st0" d="M699.6,87.3V68.2h1.2v8.2h3v1.1h-3v9.7H699.6z M690.4,86.3c-3.5,0-5.6-3.3-5.6-8.7c0-5.4,2.1-8.7,5.6-8.7
			c3.5,0,5.6,3.2,5.6,8.7C696,83,693.9,86.3,690.4,86.3z M690.4,70c-2.7,0-4.3,2.8-4.3,7.6s1.6,7.6,4.3,7.6c2.7,0,4.3-2.8,4.3-7.6
			S693.1,70,690.4,70z"/>
		<path class="st0" d="M695.8,77.5c0,5.8-2.3,8.6-5.4,8.6s-5.4-2.8-5.4-8.6s2.3-8.6,5.4-8.6S695.8,71.8,695.8,77.5z M694.9,77.5
			c0-5.2-1.9-7.7-4.5-7.7s-4.4,2.5-4.4,7.7s1.9,7.7,4.5,7.7S694.9,82.8,694.9,77.5z M703.7,77.5h-3v9.7h-0.9V68.4h0.9v8.2h3V77.5z"
			/>
		<path class="st0" d="M719.6,83.4c-0.9,1.8-2.6,3.1-4.6,3.5l-0.1,0l-3.5-3.3c-1,1.7-2.7,2.9-4.6,3.3l-0.2,0v-1.1l0.1,0
			c2.1-0.3,4.5-2.8,4.8-6.2l0-0.1l1.2,0.1l0,0.1c-0.1,1-0.3,2-0.8,3l3.4,3.1c1.9-0.5,4.1-2.8,4.3-6.1l0-0.1l1.2,0.1l0,0.1
			c-0.1,0.9-0.3,1.9-0.7,2.7l4.5,3.7l-0.8,0.9L719.6,83.4z M721.9,79.1v-5.3h-4V79h-1.2V68.4h1.2v4.3h4v-4.4h1.2v10.9H721.9z
			 M710.4,77.8c-0.3,0-0.6,0-0.9,0H706v-8.9h1.2v7.8h2.5c0.3,0,0.6,0,0.8,0c1.7,0,3.3-0.3,4.9-0.8l0.2-0.1V77l-0.1,0
			C713.9,77.5,712.2,77.8,710.4,77.8z"/>
		<path class="st0" d="M709.5,77.6h-3.4V69h0.9v7.8h2.6c2,0.1,3.9-0.2,5.8-0.8v0.9C713.6,77.5,711.5,77.7,709.5,77.6z M723.8,86.8
			l-4.2-3.6c-0.9,1.8-2.6,3.2-4.6,3.6l0,0l-3.6-3.4c-0.9,1.8-2.6,3-4.6,3.4v-0.8c2.2-0.4,4.6-3,4.9-6.4l0.9,0.1
			c-0.1,1-0.4,2.1-0.8,3l3.5,3.2c2.1-0.5,4.2-3.1,4.5-6.3l0.9,0.1c-0.1,1-0.3,1.9-0.7,2.8l4.4,3.7L723.8,86.8z M717.7,78.8h-0.9
			V68.5h0.9v4.3h4.3v-4.4h0.9V79H722v-5.3h-4.3L717.7,78.8z"/>
		<path class="st0" d="M727.9,86.9v-7.3h1.2v2.5h13.5l0-2.5h1.2v7.3H727.9z M729.1,85.7l13.5,0v-2.4h-13.5V85.7z M726.4,78.1V77
			l18.9,0v1.2H726.4z M735.6,71.4c-2.2,2.3-5.1,3.6-8.3,3.7l-0.1,0V74l0.1,0c3.6-0.1,8-2.5,8.8-6l0-0.1l1.2,0.2l0,0.1
			c-0.2,0.8-0.5,1.6-1,2.4l8.1,3.7l-0.5,1L735.6,71.4z"/>
		<path class="st0" d="M745.1,77.1V78h-18.6v-0.9L745.1,77.1z M727.3,75v-0.9c3.7-0.1,8.1-2.5,9-6.2l0.9,0.2c-0.2,0.9-0.5,1.7-1,2.4
			l8.1,3.7l-0.4,0.8l-8.3-3.8C733.4,73.5,730.5,74.9,727.3,75z M742.7,79.7h0.9v7H728v-7h0.9v2.5h13.8L742.7,79.7z M742.7,85.8v-2.7
			h-13.8v2.8L742.7,85.8z"/>
		<path class="st0" d="M763.6,87.3V68.2h1.3v19.1H763.6z M748.9,86V69h1.2l0,15.9l6.7,0c1.6,0,3.2-0.3,4.6-0.9l0.2-0.1v1.2l-0.1,0
			c-1.5,0.6-3.1,0.9-4.7,0.9L748.9,86z"/>
		<path class="st0" d="M749.9,85h6.7c1.7,0,3.3-0.3,4.9-0.9V85c-1.5,0.6-3.2,1-4.9,0.9H749V69.1h0.9L749.9,85z M764.7,87.2h-1V68.4
			h1V87.2z"/>
		<path class="st0" d="M784.3,87.3V68.2h1.2v8.2h3v1.2h-3v9.7H784.3z M769.9,86V69.1h11.1v1.1h-9.9v14.6c0,0,6.3,0,6.3,0
			c1.7,0,3.3-0.3,4.8-0.9l0.2-0.1V85l-0.1,0c-1.5,0.6-3.1,0.9-4.7,0.9L769.9,86z"/>
		<path class="st0" d="M777.3,85c1.7,0,3.3-0.3,4.9-0.9v0.9c-1.5,0.6-3.2,0.9-4.9,0.9H770V69.2h10.8v0.9h-9.9V85H777.3z M788.3,77.5
			h-3v9.7h-0.9V68.4h0.9v8.2h3V77.5z"/>
		<circle class="st0" cx="791.1" cy="85.9" r="1.1"/>
		<path class="st0" d="M792.1,85.9c0,0.6-0.4,1-1,1s-1-0.4-1-1s0.4-1,1-1S792.1,85.4,792.1,85.9z"/>
	</g>
</g>
</svg>
