<svg xmlns="http://www.w3.org/2000/svg" viewBox="0 0 134.85 29.63"><defs><style>.cls-1{fill:#fff;}</style></defs><g id="레이어_2" data-name="레이어 2"><g id="레이어_1-2" data-name="레이어 1"><path class="cls-1" d="M0,12.16,0,2.59V1.31H1.31l8.13,0a6.63,6.63,0,0,1,4.32,1.54,5.73,5.73,0,0,1,.74,8.41,6.46,6.46,0,0,1-5.06,2.21H2.56V23H0V12.16Zm9.44-1.28a4.4,4.4,0,0,0,2.21-.58,3.2,3.2,0,0,0,1.79-2.91,3.26,3.26,0,0,0-.7-2,3.92,3.92,0,0,0-3.3-1.54H2.56v7.07Z"/><path class="cls-1" d="M19.23,7.71h2.59l0,1.28,0,8.19A3,3,0,0,0,22.37,19a3.61,3.61,0,0,0,3,1.47,3.88,3.88,0,0,0,2-.54A3.07,3.07,0,0,0,29,17.18V9l0-1.25h2.59l0,1.28,0,8.19a5.47,5.47,0,0,1-1.34,3.65A6,6,0,0,1,25.41,23a6.21,6.21,0,0,1-4-1.38,5.48,5.48,0,0,1-2.21-4.48V9Z"/><path class="cls-1" d="M36.06,1.28V0h2.56V9.44A6.71,6.71,0,0,1,43.1,7.68a6.49,6.49,0,0,1,4.58,1.86,7.56,7.56,0,0,1,2.46,5.82,7.82,7.82,0,0,1-1.88,5.22A6.5,6.5,0,0,1,43.1,23a6.61,6.61,0,0,1-4.48-1.76V23H36.06V1.28Zm3.46,17.18a4.12,4.12,0,0,0,3.58,2,4,4,0,0,0,2.69-1,5.17,5.17,0,0,0,1.79-4.1,5.58,5.58,0,0,0-.92-3.1,4.1,4.1,0,0,0-6.24-1,5.23,5.23,0,0,0-1.8,4.13A5.47,5.47,0,0,0,39.52,18.46Z"/><path class="cls-1" d="M54,0h2.56V23H54V0Z"/><path class="cls-1" d="M59.68,5.73V3.17h2.59V5.73H59.68Zm0,1.95h2.56V23H59.68V7.68Z"/><path class="cls-1" d="M74.14,12.13a1.35,1.35,0,0,0-.35-.9,3.09,3.09,0,0,0-2.56-1,4.47,4.47,0,0,0-1.31.19c-1.07.34-1.6.91-1.6,1.7a.83.83,0,0,0,.19.51A7.61,7.61,0,0,0,71.46,14c1.06.32,1.85.59,2.36.8,2.26.92,3.39,2.2,3.36,3.84a3.71,3.71,0,0,1-1,2.43,6.18,6.18,0,0,1-5,2,7.08,7.08,0,0,1-4-1.12,4,4,0,0,1-2-3.33h2.56a1.34,1.34,0,0,0,.38.9,3.91,3.91,0,0,0,3,1,5.7,5.7,0,0,0,1.47-.19c1.28-.32,1.92-.89,1.92-1.7a.88.88,0,0,0-.16-.48,7.3,7.3,0,0,0-2.91-1.28c-1-.32-1.83-.58-2.37-.8-2.26-.91-3.4-2.22-3.42-3.9a3.94,3.94,0,0,1,1-2.53,5.55,5.55,0,0,1,4.51-1.92,6,6,0,0,1,3.55,1.06,4,4,0,0,1,1.92,3.39Z"/><path class="cls-1" d="M87.1,7.68a5.59,5.59,0,0,1,3.81,1.47,6.44,6.44,0,0,1,2.27,5.15v7.46l0,1.31H90.69l0-1.28,0-7.49A4.56,4.56,0,0,0,90,12a3.27,3.27,0,0,0-2.92-1.76,3.13,3.13,0,0,0-2,.7,4.07,4.07,0,0,0-1.54,3.36V23H81v-21h2.56V8.9A5.87,5.87,0,0,1,87.1,7.68Z"/><path class="cls-1" d="M97.82,5.73V3.17h2.6V5.73h-2.6Zm0,1.95h2.56V23H97.82V7.68Z"/><path class="cls-1" d="M116.9,23.07h-2.53l0-1.28,0-7.49a4.56,4.56,0,0,0-.6-2.3,3.27,3.27,0,0,0-2.92-1.76,3.13,3.13,0,0,0-2,.7,4.07,4.07,0,0,0-1.54,3.36V23H104.7V7.68h2.56V8.9a5.87,5.87,0,0,1,3.52-1.22,5.59,5.59,0,0,1,3.81,1.47,6.44,6.44,0,0,1,2.27,5.15v7.46Z"/><path class="cls-1" d="M122.59,10.14a6.5,6.5,0,0,1,5.15-2.46,6.57,6.57,0,0,1,4.48,1.76V9l0-1.25h2.59l0,1.28,0,12.77a7.21,7.21,0,0,1-.32,2.11,8.42,8.42,0,0,1-.94,2.11,9.1,9.1,0,0,1-1.46,1.84,6.51,6.51,0,0,1-1.95,1.32,5.7,5.7,0,0,1-2.33.49H126.5V27.07h1.28a4,4,0,0,0,3-1.57,5.67,5.67,0,0,0,1.4-3.74v-.48A6.69,6.69,0,0,1,127.74,23a6.49,6.49,0,0,1-4.57-1.86,7.53,7.53,0,0,1-2.47-5.82A7.78,7.78,0,0,1,122.59,10.14Zm1.6,8.32a4.09,4.09,0,0,0,3.55,2,4,4,0,0,0,2.69-1,5.17,5.17,0,0,0,1.79-4.1,5.58,5.58,0,0,0-.92-3.1,4.1,4.1,0,0,0-3.56-2,4,4,0,0,0-2.68,1,5.18,5.18,0,0,0-1.8,4.1A5.48,5.48,0,0,0,124.19,18.46Z"/></g></g></svg>