<svg xmlns="http://www.w3.org/2000/svg" viewBox="0 0 309 180.6"><defs><style>.cls-1{fill:#fff;}</style></defs><g id="레이어_2" data-name="레이어 2"><g id="레이어_1-2" data-name="레이어 1"><path class="cls-1" d="M20.4,101.05v20.5H16.59v-9.12H14.71v8.76H10.94V119l-2.66,1.3-2.5-5.21c-1.27,3.53-3.19,5.38-5.78,5.5v-4.13c2.28-.36,3.62-6,3.62-15l3.84.14A60.09,60.09,0,0,1,7,109.52l3.93,7.66v-16h3.77v7.44h1.88v-7.54Z"/><path class="cls-1" d="M43.83,117.13v3.7H23.09v-3.7h8.3v-2.3H24.24v-8.36H38.69v-1.39H24.19v-3.55H42.7v8.33H28.25v1.41H42.94v3.56H35.52v2.3Z"/><path class="cls-1" d="M66.91,110.94v3.34H58.58v2.78H54.5v-2.78H46.18v-3.34Zm-19.77-5.57c0-3.19,4-4.66,9.4-4.66S66,102.18,66,105.37s-4,4.66-9.41,4.66S47.14,108.56,47.14,105.37Zm4.36,12.82H66v3.36H47.38v-6.07H51.5Zm0-12.82c0,1,2,1.54,5.08,1.54s5.09-.53,5.09-1.54-2-1.54-5.09-1.54S51.46,104.39,51.46,105.37Z"/><path class="cls-1" d="M89.23,105.44H75.91v-3.09h5v-1.66H85v1.66h4.25ZM76.68,110c0-2.64,2.78-4,6.17-4S89,107.36,89,110s-2.79,4.06-6.17,4.06S76.68,112.67,76.68,110Zm.79,4.78H95.91v7H91.78v-3.63H77.47Zm3-4.78c0,.7.86,1.18,2.33,1.18s2.33-.48,2.33-1.18-.87-1.17-2.33-1.17S80.52,109.31,80.52,110Zm15.39-9v13h-4v-1.9h-2v-3.38h2v-1.42h-2V104h2v-2.93Z"/><path class="cls-1" d="M111.86,111.51H99.65V101.29h12.21Zm7.33,5.69c0,3.41-4.13,4.59-9.37,4.59s-9.36-1.18-9.36-4.59,4.13-4.58,9.36-4.58S119.19,113.8,119.19,117.2Zm-11.31-12.57h-4.25v3.55h4.25Zm6.94,12.57c0-1-2.24-1.34-5-1.34s-5,.38-5,1.34,2.23,1.35,5,1.35S114.82,118.19,114.82,117.2Zm.19-6.74h-2.19V107H115v-1.39h-2.19v-3.46H115v-1.1h4v11.28h-4Z"/><path class="cls-1" d="M131.33,120.59h-9.17V116.8h9.33a14.42,14.42,0,0,0,5.31-.82v3.74A14.75,14.75,0,0,1,131.33,120.59Zm4.46-12.75a6.54,6.54,0,1,1-6.53-6.65A6.28,6.28,0,0,1,135.79,107.84Zm-9.17,0c0,1.75,1,3,2.64,3s2.64-1.28,2.64-3a2.72,2.72,0,0,0-2.64-3C127.63,104.82,126.62,106.11,126.62,107.84ZM142,121.55H138v-20.5H142Z"/><path class="cls-1" d="M165,104c0,5.31-5.43,7.13-12.44,7.13v-3.29c4.92,0,8.36-1.24,8.36-3v-.22h-8.36v-3.26H165Zm6.81,14h-14.3v.82H172v2.81H153.48v-6.12h14.3v-.82H153.43V111.8h18.36Zm0-6.84h-4v-10h4Z"/><path class="cls-1" d="M195.79,112.07H175.05v-3h20.74Zm-1-7.49c0,2.85-3.94,3.86-9.32,3.86s-9.31-1-9.31-3.86,3.94-3.87,9.31-3.87S194.74,101.72,194.74,104.58Zm-.15,13.63H180.24v.7h14.57v2.64H176.28V116.1h14.35v-.7h-14.4v-2.54h18.36Zm-14.18-13.63c0,.69,2,1,5,1s5-.27,5-1-2-1-5-1S180.41,103.91,180.41,104.58Z"/><path class="cls-1" d="M213.94,101.53h4v19.06H205.77V101.53h4v6h4.18Zm0,15.34v-5.62h-4.18v5.62Zm10.72-15.82v20.5h-4v-20.5Z"/><path class="cls-1" d="M248.69,117.66h-8.31V122h-4.13v-4.37H228v-3.72h20.74Zm-10.95-7.78a15.28,15.28,0,0,1-9.09,2.86V109c3.09-.1,5.92-1.2,7.15-3h-6.72v-3.67h7.13v-1.8h4.17v1.8h7.18V106h-7.11a5.51,5.51,0,0,1-.31.89l8.09,2.32L247,112.74Z"/><path class="cls-1" d="M260,116.92a14,14,0,0,0,5.3-.92v3.63a14.68,14.68,0,0,1-5.59,1h-8V101.53h11.93v3.67h-7.8v11.72Zm12.72-4.45h-2.4v9.08h-4.06v-20.5h4.06v7.49h2.4Z"/><path class="cls-1" d="M6.5,139.12l5,9.12-2,1.06L5.9,142.51c-1,4.2-2.83,6.53-5.59,7.1v-2.4c3.24-1.05,4.35-7.22,4.37-16.37l2.28.1A61.26,61.26,0,0,1,6.5,139.12Zm13.35-8.78v20.5H17.59v-10H14.06v9.63H11.81v-20h2.25v8.13h3.53v-8.25Z"/><path class="cls-1" d="M43.71,147.67v2.18H23.23v-2.18h9V143.8H24.6v-7.39H40v-3.22H24.6v-2.11H42.36v7.37H27v3.24H42.67v2.11h-8v3.87Z"/><path class="cls-1" d="M66.79,140.85v2H57.74v3.53h-2.4v-3.53h-9v-2Zm-19.34-6.22c0-3,4.13-4.41,9.09-4.41s9.1,1.39,9.1,4.41-4.13,4.44-9.1,4.44S47.45,137.68,47.45,134.63Zm2.71,13.93H65.74v2h-18v-5.84h2.42ZM50,134.63c0,1.68,3,2.52,6.57,2.52s6.58-.84,6.58-2.52-3-2.49-6.58-2.49S50,133,50,134.63Z"/><path class="cls-1" d="M89.4,134.15H76.18v-1.89h5.76V130h2.4v2.28H89.4Zm-12.29,5.09c0-2.52,2.64-4,6-4s6,1.44,6,4-2.64,4-6,4S77.11,141.79,77.11,139.24Zm.67,5.28H95.35v6.32H93v-4.28H77.78Zm1.61-5.28c0,1.25,1.39,2.19,3.7,2.19s3.72-.94,3.72-2.19-1.39-2.16-3.72-2.16S79.39,138,79.39,139.24Zm16-8.9V143.4H93.07v-2.67H90v-2h3.09v-2.47H90v-2h3.09v-3.89Z"/><path class="cls-1" d="M111.6,140.49H100.08v-9.65H111.6Zm7.1,6.1c0,3.07-3.91,4.25-8.88,4.25s-8.85-1.18-8.85-4.25,3.89-4.25,8.85-4.25S118.7,143.52,118.7,146.59Zm-9.45-13.73h-6.84v5.59h6.84Zm6.91,13.73c0-1.56-2.81-2.28-6.34-2.28s-6.33.72-6.33,2.28,2.81,2.28,6.33,2.28S116.16,148.17,116.16,146.59Zm0-8H112.8v-2.06h3.36V134.2H112.8v-2.06h3.36v-1.8h2.35v11.33h-2.35Z"/><path class="cls-1" d="M122.3,147.38h8.38a18,18,0,0,0,6.72-1v2.21a18.82,18.82,0,0,1-6.87,1H122.3Zm.7-10.15a6.34,6.34,0,1,1,6.33,6.45A6.13,6.13,0,0,1,123,137.23Zm10.34,0a4,4,0,1,0-4,4.29A4,4,0,0,0,133.34,137.23Zm5.79-6.89h2.37v20.5h-2.37Z"/><path class="cls-1" d="M152.85,138.07c5.81,0,9.65-1.44,9.65-4.76v-.48h-9.65v-2h12v2.09c0,5-4.92,7.13-12,7.13Zm1,7.08h15v-1.78h-15V141.5h17.4v5.42h-15v1.78h15.48v1.87H153.89Zm15-14.81h2.38v10h-2.38Z"/><path class="cls-1" d="M175.2,139h20.47v1.85H175.2Zm1.22-5c0-2.72,4.06-3.72,9-3.72s9,1,9,3.72-4,3.74-9,3.74S176.42,136.72,176.42,134Zm.19,11.71h15.32v-1.44H176.57v-1.78h17.69v4.9H178.94v1.44h15.68v1.78h-18ZM192,134c0-1.35-3-1.92-6.56-1.92s-6.55.57-6.55,1.92,3,1.92,6.55,1.92S192,135.35,192,134Z"/><path class="cls-1" d="M215.45,130.94h2.35v18.67H206.18V130.94h2.35V138h6.92Zm0,16.49v-7.25h-6.92v7.25Zm8.69-17.09v20.5h-2.38v-20.5Z"/><path class="cls-1" d="M248.57,145.8h-9v5.52h-2.43V145.8h-9v-2.21h20.48Zm-19.83-4.18v-2.19c4.32-.31,7.44-2.3,8.28-5.11h-7.75v-2.16h7.78v-2.33h2.44v2.33h7.88v2.16h-7.78a7.93,7.93,0,0,1-.6,1.8l8.93,3.29-.82,2.06-9.33-3.55C235.85,140.06,232.65,141.4,228.74,141.62Z"/><path class="cls-1" d="M260.28,147.45a13.59,13.59,0,0,0,5.3-1v2.16a13.75,13.75,0,0,1-5.42,1h-8V131.08H264v2.16h-9.4v14.21Zm12.33-6.53h-2.87v9.92h-2.38v-20.5h2.38v8.3h2.87Z"/><path class="cls-1" d="M6.1,168.77l5.18,9-.84.55-4.56-8c-.82,4.65-2.42,7.34-5.3,8.37v-1c4-1.59,4.92-8.17,5-17.45l1,0A71.5,71.5,0,0,1,6.1,168.77Zm13.32-9.14v20.49h-1v-10.7h-4.9v10.34h-1v-20h1v8.71h4.9v-8.85Z"/><path class="cls-1" d="M43.59,178v.93H23.33V178h9.55v-5.16h-8v-6.6H41.09v-4.71H24.91v-.93H42.1v6.57H25.92v4.73H42.46v.94H33.89V178Z"/><path class="cls-1" d="M66.67,170.64v.94H57.05v4.15H56v-4.15H46.42v-.94Zm-19-6.72c0-2.9,4.23-4.25,8.83-4.25s8.84,1.35,8.84,4.25-4.23,4.25-8.84,4.25S47.71,166.83,47.71,163.92Zm1.35,14.81H65.55v.94H48.05v-5.62h1Zm-.32-14.81c0,2.21,3.82,3.31,7.8,3.31s7.81-1.1,7.81-3.31-3.82-3.31-7.81-3.31S48.74,161.71,48.74,163.92Z"/><path class="cls-1" d="M89.54,163H76.39v-.94H82.8v-2.78h1v2.78h5.73Zm-12.07,5.4c0-2.48,2.5-3.94,5.83-3.94s5.84,1.46,5.84,3.94-2.5,3.93-5.84,3.93S77.47,170.86,77.47,168.39Zm.58,5.78H94.92v5.76h-1v-4.82H78.05Zm.43-5.78c0,1.7,1.82,3,4.82,3s4.83-1.32,4.83-3-1.83-3-4.83-3S78.48,166.68,78.48,168.39ZM95,159.63v13.1H94v-3.29H90v-.91h4v-3.31H90v-.91h4v-4.68Z"/><path class="cls-1" d="M111.38,169.51h-11v-9.16h11ZM118.3,176c0,2.81-3.72,4-8.48,4s-8.44-1.17-8.44-4,3.69-4,8.44-4S118.3,173.14,118.3,176Zm-7.92-14.67h-9v7.27h9ZM117.24,176c0-2.07-3.24-3-7.42-3s-7.41,1-7.41,3,3.24,3.05,7.41,3.05S117.24,178,117.24,176Zm-.14-8.16h-4.32v-.94h4.32v-3.91h-4.32V162h4.32v-2.37h1V171h-1Z"/><path class="cls-1" d="M129.89,178.68H122.4v-.93H130c3.55,0,6.36-.39,7.85-1.11v1C136.46,178.28,133.58,178.68,129.89,178.68Zm5.66-12.09a6.17,6.17,0,1,1-6.17-6.29A6,6,0,0,1,135.55,166.59Zm-11.3,0a5.14,5.14,0,1,0,5.13-5.36A5,5,0,0,0,124.25,166.59Zm16.82,13.53h-1V159.63h1Z"/><path class="cls-1" d="M164.81,162c0,5.18-4.54,7.13-11.69,7.13v-.94c6.5,0,10.68-1.61,10.68-6.19v-.7H153.12v-.93h11.69Zm6,13.9H155.25v2.83h16.28v.93H154.2V175h15.58v-2.83H154.15v-.93h16.66Zm0-6.12h-1V159.63h1Z"/><path class="cls-1" d="M195.55,169.68H175.29v-.91h20.26Zm-1.37-6.33c0,2.61-4.15,3.57-8.76,3.57s-8.76-1-8.76-3.57,4.15-3.58,8.76-3.58S194.18,160.73,194.18,163.35Zm-.19,13h-16.1v2.45h16.56v.91H176.88v-4.25H193V173H176.83v-.91H194Zm-16.3-13c0,1.94,3.75,2.66,7.73,2.66s7.73-.72,7.73-2.66-3.74-2.67-7.73-2.67S177.69,161.4,177.69,163.35Z"/><path class="cls-1" d="M216.7,160.35h1v18.33H206.52V160.35h1v7.89h9.15Zm0,17.4v-8.57h-9.15v8.57Zm7-18.12v20.49h-1V159.63Z"/><path class="cls-1" d="M248.45,174.12H238.8v6.48h-1v-6.48h-9.6v-.93h20.26Zm-19.64-3.53v-.93c5.26-.5,8.4-3.34,9-6.84h-8.4v-.94h8.33v-2.76h1v2.76h8.47v.94h-8.37a9.49,9.49,0,0,1-.77,2.47l9.58,4.13-.46.89-9.6-4.2C236,168.55,233,170.21,228.81,170.59Z"/><path class="cls-1" d="M260.54,177.75a13.55,13.55,0,0,0,5.31-1v1a13.53,13.53,0,0,1-5.31,1h-8.06V160.59h11.76v.93H253.49v16.23Zm12-8.21H269.3v10.58h-1V159.63h1v9h3.24Z"/><path class="cls-1" d="M52,18.1H49.35C47.31,9.73,38.5,3.6,28.09,3.6,14.76,3.6,5.46,13.33,5.46,26.78S14.69,50,28.27,50C40.36,50,49.66,41.79,50,29.51H26.66V27.09h26.1V28.7c0,14.08-10.85,23.63-24.74,23.63-14.81,0-25.23-10.79-25.23-25.55S13.21,1.24,28,1.24C40.3,1.24,49.72,8.56,52,18.1Z"/><path class="cls-1" d="M63.49,2.48H91.82V49.23H63.49Zm2.6,44.33H89.22V4.9H66.09ZM115.32,25.6H107V53h-2.61V0H107V23.19h8.37Z"/><path class="cls-1" d="M121.52,32.73V30.25c8.12,0,15.44-4,17.73-12.83H121.52V15h18.23a27.23,27.23,0,0,0,.24-3.9V4.28H121.52V1.86h21.14V11.1a25.83,25.83,0,0,1-.25,3.9h11V.37h2.66v29.2h-2.66V17.42H142C139.5,27.77,130.94,32.73,121.52,32.73Zm49.1,19.6-24-12a28.34,28.34,0,0,1-22.2,11.35V49.23c10-.19,21.21-6.82,23.5-18.42l2.6.5a20.54,20.54,0,0,1-2.6,7l24,11.72ZM169.57,38H166.9V0h2.67Z"/><path class="cls-1" d="M197.28,30.75V28.27C208.69,25.79,215,13.58,215,.74l2.61.13a38.63,38.63,0,0,1-2.36,13.64l18.1,13.82-1.67,2.05L214.15,17.05C210.74,24.05,205,29.2,197.28,30.75Zm6.58,18.54h41.72v2.42H201.25V36.27h2.61ZM252,13.7v2.42H243.6V39.43H241V0h2.61V13.7Z"/><path class="cls-1" d="M309,47.43v2.42H256.68V47.43ZM257.73,32.92V30.44c12.28,0,23.44-14.32,26.85-29.88l2.73.68a50.8,50.8,0,0,1-4.41,12.21l24,17.67L305.28,33,281.79,15.62C276,25.73,267,32.92,257.73,32.92Z"/></g></g></svg>