<svg xmlns="http://www.w3.org/2000/svg" viewBox="0 0 922.23 328.94"><defs><style>.cls-1{fill:#fff;}</style></defs><g id="레이어_2" data-name="레이어 2"><g id="레이어_1-2" data-name="레이어 1"><path class="cls-1" d="M12.07,249.24h1v1.92H7.77v14.4H5.85v-14.4H.55v-1.92H12.07Z"/><path class="cls-1" d="M20,254a4.16,4.16,0,0,1,2.85,1.11A4.82,4.82,0,0,1,24.55,259v5.59l0,1h-1.9l0-1,0-5.62a3.47,3.47,0,0,0-.46-1.73A2.44,2.44,0,0,0,20,256a2.36,2.36,0,0,0-1.49.53A3,3,0,0,0,17.35,259v6.55H15.43V249.82h1.92V255A4.36,4.36,0,0,1,20,254Z"/><path class="cls-1" d="M37.17,263.31a5.3,5.3,0,0,1-4.46,2.25,5,5,0,0,1-3.46-1.39,5.68,5.68,0,0,1-1.82-4.37,5.91,5.91,0,0,1,1.36-3.88A4.94,4.94,0,0,1,32.71,254a4.88,4.88,0,0,1,3.43,1.4A5.67,5.67,0,0,1,38,259.8v1H29.44a4.25,4.25,0,0,0,.58,1.35,3.08,3.08,0,0,0,2.69,1.53,3.53,3.53,0,0,0,2.92-1.48Zm-1.1-4.47a2.54,2.54,0,0,0-.65-1.51A3.42,3.42,0,0,0,32.71,256a3,3,0,0,0-1.42.36,3.57,3.57,0,0,0-1.85,2.52Z"/><path class="cls-1" d="M53.54,248.76h2.23l-.89,1.47c-.37.61-.69,1.17-1,1.7a17.12,17.12,0,0,0-1.78,7.63,15.18,15.18,0,0,0,2.69,9.27L56,270.36h-2.4L53.3,270a16.91,16.91,0,0,1-3.08-10.42,21.78,21.78,0,0,1,.39-4,19.09,19.09,0,0,1,2.64-6.38Z"/><path class="cls-1" d="M70.34,264.34l.38,1.22h-2l-.2-.69a32.43,32.43,0,0,0-1.44-4,6.74,6.74,0,0,0-1.94-2.5H60.3v7.2H58.38V257.4l0-7.17v-1h1l6.07,0a5,5,0,0,1,3.27,1.16,4.26,4.26,0,0,1,1.67,3.43,4.2,4.2,0,0,1-.28,1.51A4.54,4.54,0,0,1,67.53,258C68.46,259,69.39,261.17,70.34,264.34Zm-8-7.9h3.07a3.29,3.29,0,0,0,1.66-.43,2.38,2.38,0,0,0,1.34-2.18,2.43,2.43,0,0,0-.52-1.51,3,3,0,0,0-2.5-1.16H60.3v5.31h2.12Z"/><path class="cls-1" d="M82.53,263.31a5.3,5.3,0,0,1-4.47,2.25,5,5,0,0,1-3.45-1.39,5.69,5.69,0,0,1-1.83-4.37,5.92,5.92,0,0,1,1.37-3.88,5,5,0,0,1,7.35-.48,5.66,5.66,0,0,1,1.84,4.36v1H74.8a4,4,0,0,0,.58,1.35,3.07,3.07,0,0,0,2.68,1.53A3.55,3.55,0,0,0,81,262.16Zm-1.11-4.47a2.52,2.52,0,0,0-.64-1.51A3.44,3.44,0,0,0,78.06,256a3,3,0,0,0-1.41.36,3.57,3.57,0,0,0-1.85,2.52Z"/><path class="cls-1" d="M84.81,254h2.06l.24.6,3,7.37L93,254.64l.24-.6h2.06l-.53,1.32L91,265l-.24.6h-1.3l-.24-.6-3.86-9.6Z"/><path class="cls-1" d="M98.2,255.89a4.94,4.94,0,0,1,7.3-.45,5.66,5.66,0,0,1,1.84,4.36,5.86,5.86,0,0,1-1.41,3.92,5,5,0,0,1-7.3.45,5.67,5.67,0,0,1-1.85-4.37A5.86,5.86,0,0,1,98.2,255.89Zm1.2,6.24a3.06,3.06,0,0,0,2.66,1.51,3,3,0,0,0,2-.76,3.89,3.89,0,0,0,1.34-3.08,4.15,4.15,0,0,0-.69-2.32,3.08,3.08,0,0,0-2.67-1.52,3,3,0,0,0-2,.77,3.89,3.89,0,0,0-1.35,3.07A4.17,4.17,0,0,0,99.4,262.13Z"/><path class="cls-1" d="M110.22,248.28h1.92v17.28h-1.92V248.28Z"/><path class="cls-1" d="M114.4,254.07h1.94l0,1,0,6.14a2.29,2.29,0,0,0,.45,1.37,2.7,2.7,0,0,0,2.28,1.1,2.9,2.9,0,0,0,1.49-.4,2.31,2.31,0,0,0,1.22-2.07V255l0-.93h1.94l0,1,0,6.14a4.14,4.14,0,0,1-1,2.74,4.49,4.49,0,0,1-3.63,1.65,4.69,4.69,0,0,1-3-1,4.12,4.12,0,0,1-1.65-3.36V255Z"/><path class="cls-1" d="M129.11,262.18c0,.94.6,1.43,1.75,1.46h1v1.92h-1a5.26,5.26,0,0,1-1.27-.14,2.93,2.93,0,0,1-2.4-3.22V256h-1.61V254h1.61v-2.52l0-.93h1.94l0,1V254h2.68V256h-2.68Z"/><path class="cls-1" d="M133.86,252.58v-1.92h1.95v1.92h-1.95Zm0,1.46h1.92v11.52h-1.92V254Z"/><path class="cls-1" d="M139.48,255.89a4.93,4.93,0,0,1,7.29-.45,5.63,5.63,0,0,1,1.85,4.36,5.86,5.86,0,0,1-1.41,3.92,5,5,0,0,1-7.3.45,5.67,5.67,0,0,1-1.85-4.37A5.81,5.81,0,0,1,139.48,255.89Zm1.2,6.24a3.06,3.06,0,0,0,2.66,1.51,3,3,0,0,0,2-.76,3.92,3.92,0,0,0,1.34-3.08,4.15,4.15,0,0,0-.69-2.32,3.09,3.09,0,0,0-2.67-1.52,3,3,0,0,0-2,.77A3.89,3.89,0,0,0,140,259.8,4.09,4.09,0,0,0,140.68,262.13Z"/><path class="cls-1" d="M160.65,265.59h-1.9l0-1,0-5.62a3.46,3.46,0,0,0-.45-1.73,2.45,2.45,0,0,0-2.19-1.32,2.34,2.34,0,0,0-1.48.53,3,3,0,0,0-1.16,2.52v6.55H151.5V254h1.92V255a4.41,4.41,0,0,1,2.64-.92,4.18,4.18,0,0,1,2.86,1.11,4.84,4.84,0,0,1,1.7,3.86v5.59Z"/><path class="cls-1" d="M162.76,248.76H165l.29.46a19.76,19.76,0,0,1,3,10.34,17.2,17.2,0,0,1-.19,2.57,19.37,19.37,0,0,1-2.83,7.8l-.29.43h-2.3l1-1.48c.19-.29.37-.6.55-.94a17.26,17.26,0,0,0,2.18-8.38,18.24,18.24,0,0,0-2.73-9.33Z"/><path class="cls-1" d="M182,255.89a4.93,4.93,0,0,1,7.29-.45,5.63,5.63,0,0,1,1.85,4.36,5.86,5.86,0,0,1-1.41,3.92,5,5,0,0,1-7.3.45,5.67,5.67,0,0,1-1.85-4.37A5.81,5.81,0,0,1,182,255.89Zm1.2,6.24a3.06,3.06,0,0,0,2.66,1.51,3,3,0,0,0,2-.76,3.92,3.92,0,0,0,1.34-3.08,4.15,4.15,0,0,0-.69-2.32,3.09,3.09,0,0,0-2.67-1.52,3,3,0,0,0-2,.77,3.89,3.89,0,0,0-1.35,3.07A4.09,4.09,0,0,0,183.16,262.13Z"/><path class="cls-1" d="M197.82,254h1V256h-2.73v9.6h-1.92V256h-1.59V254h1.61a11.84,11.84,0,0,1,.29-2c.53-2.19,1.65-3.29,3.38-3.29h1v1.92h-1c-1,0-1.57,1.14-1.73,3.38Z"/><path class="cls-1" d="M213.59,262.18c0,.94.6,1.43,1.75,1.46h1v1.92h-1a5.21,5.21,0,0,1-1.27-.14,2.93,2.93,0,0,1-2.4-3.22V256h-1.61V254h1.61v-2.52l0-.93h1.95l0,1V254h2.69V256h-2.69Z"/><path class="cls-1" d="M223.26,254a4.18,4.18,0,0,1,2.86,1.11,4.84,4.84,0,0,1,1.7,3.86v5.59l0,1H226l0-1,0-5.62a3.46,3.46,0,0,0-.45-1.73,2.45,2.45,0,0,0-2.19-1.32,2.38,2.38,0,0,0-1.49.53,3.06,3.06,0,0,0-1.15,2.52v6.55H218.7V249.82h1.92V255A4.38,4.38,0,0,1,223.26,254Z"/><path class="cls-1" d="M240.45,263.31a5.3,5.3,0,0,1-4.47,2.25,4.93,4.93,0,0,1-3.45-1.39,5.69,5.69,0,0,1-1.83-4.37,5.92,5.92,0,0,1,1.37-3.88A4.92,4.92,0,0,1,236,254a4.86,4.86,0,0,1,3.43,1.4,5.63,5.63,0,0,1,1.85,4.36v1h-8.54a4.22,4.22,0,0,0,.57,1.35,3.1,3.1,0,0,0,2.69,1.53,3.55,3.55,0,0,0,2.93-1.48Zm-1.11-4.47a2.54,2.54,0,0,0-.65-1.51A3.4,3.4,0,0,0,236,256a2.9,2.9,0,0,0-1.41.36,3.55,3.55,0,0,0-1.85,2.52Z"/><path class="cls-1" d="M256.86,265.56h-1.92V249.24h1.58l.25.58,5.61,12.43L268,249.82l.24-.58h1.59v1l0,14.4v1H267.9v-1l0-9.93L263.25,265l-.25.57h-1.24l-.24-.57-4.66-10.32v10.89Z"/><path class="cls-1" d="M274.6,255.89a4.93,4.93,0,0,1,7.29-.45,5.67,5.67,0,0,1,1.85,4.36,5.82,5.82,0,0,1-1.42,3.92,4.95,4.95,0,0,1-7.29.45,5.67,5.67,0,0,1-1.85-4.37A5.81,5.81,0,0,1,274.6,255.89Zm1.2,6.24a3.06,3.06,0,0,0,2.66,1.51,3,3,0,0,0,2-.76,3.92,3.92,0,0,0,1.34-3.08,4.08,4.08,0,0,0-.7-2.32,3.07,3.07,0,0,0-2.66-1.52,3,3,0,0,0-2,.77,3.91,3.91,0,0,0-1.34,3.07A4.09,4.09,0,0,0,275.8,262.13Z"/><path class="cls-1" d="M287.08,255.89a4.93,4.93,0,0,1,7.29-.45,5.67,5.67,0,0,1,1.85,4.36,5.82,5.82,0,0,1-1.42,3.92,4.95,4.95,0,0,1-7.29.45,5.67,5.67,0,0,1-1.85-4.37A5.81,5.81,0,0,1,287.08,255.89Zm1.2,6.24a3.06,3.06,0,0,0,2.66,1.51,3,3,0,0,0,2-.76,3.92,3.92,0,0,0,1.34-3.08,4.08,4.08,0,0,0-.7-2.32,3.07,3.07,0,0,0-2.66-1.52,3,3,0,0,0-2,.77,3.91,3.91,0,0,0-1.34,3.07A4.09,4.09,0,0,0,288.28,262.13Z"/><path class="cls-1" d="M308.24,265.59h-1.89l0-1,0-5.62a3.37,3.37,0,0,0-.46-1.73,2.42,2.42,0,0,0-2.18-1.32,2.38,2.38,0,0,0-1.49.53A3,3,0,0,0,301,259v6.55H299.1V254H301V255a4.36,4.36,0,0,1,2.64-.92,4.2,4.2,0,0,1,2.86,1.11,4.84,4.84,0,0,1,1.7,3.86v5.59Z"/><path class="cls-1" d="M12.55,278.53H13v1H7.29v15.36h-1V279.49H.55v-1h12Z"/><path class="cls-1" d="M16.53,285A4.24,4.24,0,0,1,20,283.33a4.34,4.34,0,0,1,2.9,1.11,4.8,4.8,0,0,1,1.66,3.76v6.17l0,.51h-.94l0-.48,0-6.2a4,4,0,0,0-.75-2.37A3.32,3.32,0,0,0,20,284.29a3.47,3.47,0,0,0-2.19.79,3.88,3.88,0,0,0-1.41,3.12v6.65h-1V279.59h1v5.61Z"/><path class="cls-1" d="M37.27,292.55a5.46,5.46,0,0,1-4.56,2.3,5,5,0,0,1-3.46-1.39,5.74,5.74,0,0,1-1.82-4.37,5.87,5.87,0,0,1,1.36-3.86,4.86,4.86,0,0,1,3.92-1.9,4.93,4.93,0,0,1,3.48,1.42,5.76,5.76,0,0,1,1.8,4.34v.48H28.41a5.37,5.37,0,0,0,1,2.59,4,4,0,0,0,3.34,1.73A4.56,4.56,0,0,0,36.5,292ZM37,288.61a4.23,4.23,0,0,0-1-2.69,4.16,4.16,0,0,0-3.31-1.63,4.08,4.08,0,0,0-2.48.84,4.76,4.76,0,0,0-1.82,3.48Z"/><path class="cls-1" d="M54.3,278.05h1.23l-.6.77a26.76,26.76,0,0,0-1.61,2.26,15,15,0,0,0-2.14,7.77,14.26,14.26,0,0,0,3.72,10l.75.81H54.33l-.15-.14-.19-.22a15.17,15.17,0,0,1-3.77-10.44,17.3,17.3,0,0,1,.63-4.58,18.25,18.25,0,0,1,3.31-6Z"/><path class="cls-1" d="M67.38,287.6q1.5,1.68,3,6.63l.19.62h-1l-.09-.33a28.77,28.77,0,0,0-2-5,7.12,7.12,0,0,0-2.06-2.31h-6.1v7.68h-1v-8.16l0-7.65v-.48h.48l6.67,0a5.17,5.17,0,0,1,3.15,1,4.08,4.08,0,0,1,1.67,3.32,3.94,3.94,0,0,1-.52,2A4.61,4.61,0,0,1,66.78,287,6.43,6.43,0,0,1,67.38,287.6Zm-1.8-1.39a4.23,4.23,0,0,0,2.36-.69,3.08,3.08,0,0,0,.72-4.66,3.85,3.85,0,0,0-3.1-1.37H59.34v6.75h2.89l0,0h3.33Z"/><path class="cls-1" d="M82.62,292.55a5.44,5.44,0,0,1-4.56,2.3,5,5,0,0,1-3.45-1.39,5.75,5.75,0,0,1-1.83-4.37,5.88,5.88,0,0,1,1.37-3.86,5,5,0,0,1,7.39-.48,5.76,5.76,0,0,1,1.8,4.34v.48H73.77a5.17,5.17,0,0,0,1,2.59,4,4,0,0,0,3.33,1.73,4.57,4.57,0,0,0,3.8-1.92Zm-.24-3.94a4.22,4.22,0,0,0-1-2.69,4.16,4.16,0,0,0-3.32-1.63,4.05,4.05,0,0,0-2.47.84,4.73,4.73,0,0,0-1.82,3.48Z"/><path class="cls-1" d="M85,283.33h1l.12.29,3.91,9.48,3.84-9.48.14-.29h1l-.26.67-4.3,10.56-.14.29h-.62l-.12-.29L85.31,284Z"/><path class="cls-1" d="M98.18,285.18a5,5,0,0,1,7.36-.43,5.76,5.76,0,0,1,1.8,4.34A5.93,5.93,0,0,1,106,293a4.9,4.9,0,0,1-3.89,1.85,5,5,0,0,1-3.48-1.41,5.79,5.79,0,0,1-1.8-4.35A5.94,5.94,0,0,1,98.18,285.18Zm.57,7a4,4,0,0,0,6,.62,4.78,4.78,0,0,0,1.58-3.72,5.08,5.08,0,0,0-1-3.09,4,4,0,0,0-6-.63,4.79,4.79,0,0,0-1.59,3.72A5.11,5.11,0,0,0,98.75,292.19Z"/><path class="cls-1" d="M110.22,278.05h1v16.8h-1v-16.8Z"/><path class="cls-1" d="M114.4,283.36h1l0,.48,0,6.74a3.05,3.05,0,0,0,.72,2,3.7,3.7,0,0,0,3,1.34,3.82,3.82,0,0,0,2.21-.67,3,3,0,0,0,1.46-2.64v-6.77l0-.45h1l0,.48,0,6.74a4,4,0,0,1-1,2.66,4.56,4.56,0,0,1-3.63,1.61,4.76,4.76,0,0,1-3-1,4,4,0,0,1-1.63-3.24v-6.77Z"/><path class="cls-1" d="M128.49,291.71v.21c.13,1.32,1.08,2,2.85,2h.48v1h-.48a4.85,4.85,0,0,1-.76-.05c-2-.2-3-1.24-3.05-3.09v-7.42h-2v-1h2v-3h1v3h3.33v1h-3.33Z"/><path class="cls-1" d="M134.34,281.39v-1h1v1h-1Zm0,1.94h1v11.52h-1V283.33Z"/><path class="cls-1" d="M139.46,285.18a5,5,0,0,1,7.36-.43,5.76,5.76,0,0,1,1.8,4.34,5.93,5.93,0,0,1-1.39,3.91,5,5,0,0,1-7.37.44,5.79,5.79,0,0,1-1.8-4.35A5.94,5.94,0,0,1,139.46,285.18Zm.57,7a4,4,0,0,0,6.05.62,4.78,4.78,0,0,0,1.58-3.72,5,5,0,0,0-1-3.09,4,4,0,0,0-6-.63,4.79,4.79,0,0,0-1.59,3.72A5.11,5.11,0,0,0,140,292.19Z"/><path class="cls-1" d="M160.65,294.88h-.94l0-.48,0-6.2a4,4,0,0,0-.74-2.37,3.32,3.32,0,0,0-2.86-1.54,3.42,3.42,0,0,0-2.18.79,3.85,3.85,0,0,0-1.42,3.12v6.65h-1V283.33h1v1.87a1.93,1.93,0,0,1,.15-.16,4.23,4.23,0,0,1,3.45-1.71,4.38,4.38,0,0,1,2.91,1.11,4.79,4.79,0,0,1,1.65,3.76v6.17Z"/><path class="cls-1" d="M163,278.05h1.22l.15.19.19.27a16.78,16.78,0,0,1,3.74,10.34,14.72,14.72,0,0,1-.36,3.19,17.39,17.39,0,0,1-3.57,7.44l-.15.17H163l.63-.79a14,14,0,0,0,1-1.32,15.57,15.57,0,0,0,2.78-8.69v-.45a16,16,0,0,0-3.74-9.58Z"/><path class="cls-1" d="M181.93,285.18a5,5,0,0,1,7.37-.43,5.76,5.76,0,0,1,1.8,4.34,5.93,5.93,0,0,1-1.39,3.91,5,5,0,0,1-7.37.44,5.79,5.79,0,0,1-1.8-4.35A6,6,0,0,1,181.93,285.18Zm.58,7a4,4,0,0,0,6.05.62,4.81,4.81,0,0,0,1.58-3.72,5,5,0,0,0-1-3.09,4,4,0,0,0-6-.63,4.79,4.79,0,0,0-1.59,3.72A5.11,5.11,0,0,0,182.51,292.19Z"/><path class="cls-1" d="M198.3,283.33h.48v1h-3.36v10.56h-1V284.29h-1.92v-1h2a8.07,8.07,0,0,1,.45-2.4,3.39,3.39,0,0,1,3.36-2.42h.48v1h-.48a2.34,2.34,0,0,0-.91.17c-1.17.44-1.82,1.68-1.94,3.69Z"/><path class="cls-1" d="M213,291.71v.21c.12,1.32,1.08,2,2.85,2h.48v1h-.48a5.06,5.06,0,0,1-.77-.05c-2-.2-3-1.24-3-3.09v-7.42h-1.95v-1H212v-3h1v3h3.33v1H213Z"/><path class="cls-1" d="M219.81,285a4.23,4.23,0,0,1,3.45-1.71,4.38,4.38,0,0,1,2.91,1.11,4.79,4.79,0,0,1,1.65,3.76v6.17l0,.51h-.94l0-.48,0-6.2a4,4,0,0,0-.74-2.37,3.32,3.32,0,0,0-2.86-1.54,3.42,3.42,0,0,0-2.18.79,3.85,3.85,0,0,0-1.42,3.12v6.65h-1V279.59h1v5.61A1,1,0,0,1,219.81,285Z"/><path class="cls-1" d="M240.54,292.55a5.44,5.44,0,0,1-4.56,2.3,4.93,4.93,0,0,1-3.45-1.39,5.75,5.75,0,0,1-1.83-4.37,5.88,5.88,0,0,1,1.37-3.86,4.84,4.84,0,0,1,3.91-1.9,4.93,4.93,0,0,1,3.48,1.42,5.76,5.76,0,0,1,1.8,4.34v.48h-9.57a5.17,5.17,0,0,0,1,2.59,4,4,0,0,0,3.33,1.73,4.55,4.55,0,0,0,3.79-1.92Zm-.24-3.94a4.46,4.46,0,0,0-4.32-4.32,4,4,0,0,0-2.47.84,4.7,4.7,0,0,0-1.82,3.48Z"/><path class="cls-1" d="M255.9,294.85h-1V278.53h.79l.12.29,6.53,14.38,6.51-14.38.11-.29h.8V279l0,15.36v.48h-1v-.48l0-13.13-6,13.32-.12.29h-.62l-.12-.29-6-13.32v13.61Z"/><path class="cls-1" d="M274.57,285.18a5,5,0,0,1,7.37-.43,5.76,5.76,0,0,1,1.8,4.34,5.93,5.93,0,0,1-1.39,3.91,5,5,0,0,1-7.37.44,5.79,5.79,0,0,1-1.8-4.35A5.93,5.93,0,0,1,274.57,285.18Zm.58,7a4,4,0,0,0,6.05.62,4.81,4.81,0,0,0,1.58-3.72,5.09,5.09,0,0,0-1-3.09,4,4,0,0,0-6-.63,4.81,4.81,0,0,0-1.58,3.72A5.11,5.11,0,0,0,275.15,292.19Z"/><path class="cls-1" d="M287.05,285.18a5,5,0,0,1,7.37-.43,5.76,5.76,0,0,1,1.8,4.34,5.93,5.93,0,0,1-1.39,3.91,5,5,0,0,1-7.37.44,5.79,5.79,0,0,1-1.8-4.35A5.93,5.93,0,0,1,287.05,285.18Zm.58,7a4,4,0,0,0,6.05.62,4.81,4.81,0,0,0,1.58-3.72,5.09,5.09,0,0,0-1-3.09,4,4,0,0,0-6.05-.63,4.81,4.81,0,0,0-1.58,3.72A5.11,5.11,0,0,0,287.63,292.19Z"/><path class="cls-1" d="M308.24,294.88h-.93l0-.48,0-6.2a4,4,0,0,0-.74-2.37,3.34,3.34,0,0,0-2.86-1.54,3.42,3.42,0,0,0-2.18.79,3.85,3.85,0,0,0-1.42,3.12v6.65h-1V283.33h1v1.87l.14-.16a4.27,4.27,0,0,1,3.46-1.71,4.34,4.34,0,0,1,2.9,1.11,4.77,4.77,0,0,1,1.66,3.76v6.17Z"/><path class="cls-1" d="M12.79,307.82H13v.48h-6v15.84H6.57V308.3h-6v-.48H12.79Z"/><path class="cls-1" d="M16.51,314.32a4.38,4.38,0,0,1,6.4-.57,4.7,4.7,0,0,1,1.64,3.69v6.46l0,.26h-.46l0-.24,0-6.48a4.47,4.47,0,0,0-.89-2.71,3.93,3.93,0,0,0-5.76-.67,4.28,4.28,0,0,0-1.51,3.38v6.7h-.48v-15h.48v6.16A4.93,4.93,0,0,1,16.51,314.32Z"/><path class="cls-1" d="M37.31,321.81a5.41,5.41,0,0,1-4.6,2.33,4.89,4.89,0,0,1-3.46-1.39,6.16,6.16,0,0,1-.46-8.23,4.86,4.86,0,0,1,3.92-1.9A5,5,0,0,1,36.16,314,5.75,5.75,0,0,1,38,318.38v.24H27.91a5.62,5.62,0,0,0,1.15,3.22,4.46,4.46,0,0,0,3.65,1.82,5.07,5.07,0,0,0,4.22-2.14Zm.2-3.67a5.15,5.15,0,0,0-1.18-3.29,4.53,4.53,0,0,0-3.62-1.75,4.47,4.47,0,0,0-3,1.13,5.18,5.18,0,0,0-1.82,3.91Z"/><path class="cls-1" d="M54.86,307.34h.31l-.17.19a24.38,24.38,0,0,0-2.16,2.67,14,14,0,0,0-2.38,7.94c0,.59,0,1.18.1,1.78a13.7,13.7,0,0,0,4.42,8.8l.24.22h-.36l0,0c-.19-.18-.38-.36-.57-.56a14.12,14.12,0,0,1-4-10.22,15.3,15.3,0,0,1,.82-5,18.33,18.33,0,0,1,3.77-5.76Z"/><path class="cls-1" d="M67.34,317.13q1.48,1.71,3,6.7l.1.31H70L69.9,324a27.49,27.49,0,0,0-2.2-5.54,7.44,7.44,0,0,0-2.16-2.21H58.86v7.92h-.48V316.2l0-.24v-7.88q0-.18.24-.24l7,0a5.05,5.05,0,0,1,3.1,1A3.89,3.89,0,0,1,70.38,312a3.75,3.75,0,0,1-.74,2.26,4.67,4.67,0,0,1-3.34,1.87A9.69,9.69,0,0,1,67.34,317.13Zm-1.71-1.39a4.64,4.64,0,0,0,2.69-.82A3.34,3.34,0,0,0,69.9,312a3.39,3.39,0,0,0-.91-2.3,4.33,4.33,0,0,0-3.38-1.44H58.86v7.46l6,0Z"/><path class="cls-1" d="M82.67,321.81a5.41,5.41,0,0,1-4.61,2.33,4.88,4.88,0,0,1-3.45-1.39,6.13,6.13,0,0,1-.46-8.23,4.86,4.86,0,0,1,3.91-1.9A5,5,0,0,1,81.52,314a5.74,5.74,0,0,1,1.82,4.37v.24H73.26a5.71,5.71,0,0,0,1.16,3.22,4.46,4.46,0,0,0,3.64,1.82,5.08,5.08,0,0,0,4.23-2.14Zm.19-3.67a5.14,5.14,0,0,0-1.17-3.29,4.55,4.55,0,0,0-3.63-1.75,4.46,4.46,0,0,0-3,1.13,5.22,5.22,0,0,0-1.83,3.91Z"/><path class="cls-1" d="M85.14,312.62h.53l0,.14,4.37,10.52,4.32-10.52,0-.14H95l-.14.34L90.3,324l0,.14h-.34l0-.14-4.58-11Z"/><path class="cls-1" d="M98.18,314.47a5,5,0,0,1,7.34-.46,5.74,5.74,0,0,1,1.82,4.37,5.87,5.87,0,0,1-1.36,3.86,4.86,4.86,0,0,1-3.92,1.9,4.93,4.93,0,0,1-3.48-1.42,5.76,5.76,0,0,1-1.8-4.34A5.94,5.94,0,0,1,98.18,314.47Zm.28,7.41a4.5,4.5,0,0,0,6.7.53,5.24,5.24,0,0,0,1.7-4,5.54,5.54,0,0,0-1.17-3.48,4.42,4.42,0,0,0-3.63-1.8A4.47,4.47,0,0,0,99,314.35a5.24,5.24,0,0,0-1.71,4A5.44,5.44,0,0,0,98.46,321.88Z"/><path class="cls-1" d="M110.22,307.58h.48v16.56h-.48V307.58Z"/><path class="cls-1" d="M114.38,312.64h.52l0,.24,0,7.06a3.38,3.38,0,0,0,.86,2.26,4.15,4.15,0,0,0,3.31,1.46,4.32,4.32,0,0,0,2.59-.82,3.39,3.39,0,0,0,1.56-2.9v-7.3h.53l0,.24,0,7.06a3.87,3.87,0,0,1-1,2.62,4.63,4.63,0,0,1-3.63,1.58,4.92,4.92,0,0,1-3-1,3.91,3.91,0,0,1-1.65-3.22v-7.3Z"/><path class="cls-1" d="M128.18,321.12a3,3,0,0,0,0,.5q.39,2,3.36,2h.24v.48h-.24a7,7,0,0,1-1.32-.12,2.77,2.77,0,0,1-2.56-2.9v-8h-2.12v-.48h2.12v-2.76h.48v2.76h3.64v.48h-3.64Z"/><path class="cls-1" d="M134.46,310.44V310H135v.48h-.51Zm0,2.18h.48v11.52h-.48V312.62Z"/><path class="cls-1" d="M139.46,314.47a5,5,0,0,1,7.34-.46,6.14,6.14,0,0,1,.45,8.23,4.84,4.84,0,0,1-3.91,1.9,4.93,4.93,0,0,1-3.48-1.42,5.76,5.76,0,0,1-1.8-4.34A5.94,5.94,0,0,1,139.46,314.47Zm.28,7.41a4.5,4.5,0,0,0,6.7.53,5.27,5.27,0,0,0,1.7-4A5.54,5.54,0,0,0,147,314.9a4.51,4.51,0,0,0-6.72-.55,5.24,5.24,0,0,0-1.71,4A5.44,5.44,0,0,0,139.74,321.88Z"/><path class="cls-1" d="M160.65,324.16h-.46l0-.24,0-6.48a4.41,4.41,0,0,0-.89-2.71,3.92,3.92,0,0,0-5.75-.67,4.29,4.29,0,0,0-1.52,3.38v6.7h-.48V312.62H152v2.66a5.46,5.46,0,0,1,.6-1,4.39,4.39,0,0,1,6.41-.57,4.69,4.69,0,0,1,1.63,3.69v6.46Z"/><path class="cls-1" d="M163.36,307.34h.31l.05.05.33.38a15.46,15.46,0,0,1,4.25,10.37,12.85,12.85,0,0,1-.53,3.62,17.61,17.61,0,0,1-4.05,7.13l-.05.05h-.31l.17-.19a16.2,16.2,0,0,0,1.29-1.59,15.1,15.1,0,0,0,3.24-9c0-.26,0-.52,0-.79a15.72,15.72,0,0,0-4.51-9.82Z"/><path class="cls-1" d="M181.93,314.47a5,5,0,0,1,7.35-.46,6.14,6.14,0,0,1,.45,8.23,4.84,4.84,0,0,1-3.91,1.9,4.93,4.93,0,0,1-3.48-1.42,5.76,5.76,0,0,1-1.8-4.34A6,6,0,0,1,181.93,314.47Zm.29,7.41a4.5,4.5,0,0,0,6.7.53,5.27,5.27,0,0,0,1.7-4,5.54,5.54,0,0,0-1.17-3.48,4.51,4.51,0,0,0-6.72-.55,5.24,5.24,0,0,0-1.71,4A5.44,5.44,0,0,0,182.22,321.88Z"/><path class="cls-1" d="M198.54,312.62h.24v.48h-3.67v11h-.48v-11h-2.09v-.48h2.09a6.52,6.52,0,0,1,.5-2.4,3.43,3.43,0,0,1,3.41-2.18h.24v.48h-.24a3.42,3.42,0,0,0-1.39.28c-1.28.58-2,1.85-2,3.82Z"/><path class="cls-1" d="M212.65,321.12a3,3,0,0,0,0,.5q.39,2,3.36,2h.24v.48h-.24a7,7,0,0,1-1.32-.12,2.79,2.79,0,0,1-2.57-2.9v-8h-2.11v-.48h2.11v-2.76h.48v2.76h3.65v.48h-3.65Z"/><path class="cls-1" d="M219.78,314.32a4.39,4.39,0,0,1,6.41-.57,4.69,4.69,0,0,1,1.63,3.69v6.46l0,.26h-.46l0-.24,0-6.48a4.47,4.47,0,0,0-.89-2.71,3.93,3.93,0,0,0-5.76-.67,4.31,4.31,0,0,0-1.51,3.38v6.7h-.48v-15h.48v6.16A5.46,5.46,0,0,1,219.78,314.32Z"/><path class="cls-1" d="M240.59,321.81a5.43,5.43,0,0,1-4.61,2.33,4.88,4.88,0,0,1-3.45-1.39,6.13,6.13,0,0,1-.46-8.23,4.84,4.84,0,0,1,3.91-1.9,5,5,0,0,1,3.46,1.39,5.78,5.78,0,0,1,1.82,4.37v.24H231.18a5.77,5.77,0,0,0,1.15,3.22,4.48,4.48,0,0,0,3.65,1.82,5.08,5.08,0,0,0,4.23-2.14Zm.19-3.67a5.09,5.09,0,0,0-1.18-3.29A4.52,4.52,0,0,0,236,313.1a4.45,4.45,0,0,0-3,1.13,5.19,5.19,0,0,0-1.83,3.91Z"/><path class="cls-1" d="M255.42,324.14h-.48V308.06a.5.5,0,0,1,.12-.19c.16-.08.27-.05.34.09l7,15.36,7-15.36a.36.36,0,0,1,.22-.12c.16,0,.24.08.24.22l0,15.84v.24h-.48v-.24l0-14.74L262.6,324a.3.3,0,0,1-.1.09q-.24.12-.33-.09l-6.75-14.84v15Z"/><path class="cls-1" d="M274.57,314.47a5,5,0,0,1,7.35-.46,5.78,5.78,0,0,1,1.82,4.37,5.88,5.88,0,0,1-1.37,3.86,4.84,4.84,0,0,1-3.91,1.9,4.93,4.93,0,0,1-3.48-1.42,5.76,5.76,0,0,1-1.8-4.34A5.93,5.93,0,0,1,274.57,314.47Zm.29,7.41a4.5,4.5,0,0,0,6.7.53,5.27,5.27,0,0,0,1.7-4,5.49,5.49,0,0,0-1.18-3.48,4.4,4.4,0,0,0-3.62-1.8,4.51,4.51,0,0,0-3.1,1.25,5.27,5.27,0,0,0-1.7,4A5.44,5.44,0,0,0,274.86,321.88Z"/><path class="cls-1" d="M287.05,314.47a5,5,0,0,1,7.35-.46,5.78,5.78,0,0,1,1.82,4.37,5.88,5.88,0,0,1-1.37,3.86,4.84,4.84,0,0,1-3.91,1.9,4.93,4.93,0,0,1-3.48-1.42,5.76,5.76,0,0,1-1.8-4.34A5.93,5.93,0,0,1,287.05,314.47Zm.29,7.41a4.5,4.5,0,0,0,6.7.53,5.27,5.27,0,0,0,1.7-4,5.49,5.49,0,0,0-1.18-3.48,4.4,4.4,0,0,0-3.62-1.8,4.51,4.51,0,0,0-3.1,1.25,5.27,5.27,0,0,0-1.7,4A5.44,5.44,0,0,0,287.34,321.88Z"/><path class="cls-1" d="M308.24,324.16h-.45l0-.24,0-6.48a4.47,4.47,0,0,0-.89-2.71,3.93,3.93,0,0,0-5.76-.67,4.28,4.28,0,0,0-1.51,3.38v6.7h-.48V312.62h.48v2.66a5.46,5.46,0,0,1,.6-1,4.39,4.39,0,0,1,6.41-.57,4.69,4.69,0,0,1,1.63,3.69v6.46Z"/><path class="cls-1" d="M5.68,200.75H0l1.57-3.66,17-39.15.71-1.57h3.4l.72,1.57,17,39.15,1.57,3.66H36.22l-.72-1.57L21,165.57,6.4,199.18Z"/><path class="cls-1" d="M48.3,174.45a13.21,13.21,0,0,1,10.5-5A13.42,13.42,0,0,1,67.94,173V153.76h5.22v47H67.94v-3.59a13.64,13.64,0,0,1-9.14,3.59A13.24,13.24,0,0,1,49.47,197a15.4,15.4,0,0,1-5-11.87A15.83,15.83,0,0,1,48.3,174.45Zm3.26,17a8.35,8.35,0,0,0,7.24,4.11,8.17,8.17,0,0,0,5.49-2.09,10.59,10.59,0,0,0,3.65-8.35,11.31,11.31,0,0,0-1.89-6.34,8.36,8.36,0,0,0-7.25-4.11,8.17,8.17,0,0,0-5.48,2.09,10.56,10.56,0,0,0-3.65,8.36A11.3,11.3,0,0,0,51.56,191.42Z"/><path class="cls-1" d="M84.85,174.45a13.21,13.21,0,0,1,10.5-5,13.42,13.42,0,0,1,9.14,3.59v-3.59h5.22v31.33h-5.22v-3.59a13.64,13.64,0,0,1-9.14,3.59A13.24,13.24,0,0,1,86,197a15.41,15.41,0,0,1-5-11.87A15.84,15.84,0,0,1,84.85,174.45Zm3.26,17a8.35,8.35,0,0,0,7.24,4.11,8.13,8.13,0,0,0,5.48-2.09,10.56,10.56,0,0,0,3.66-8.35,11.31,11.31,0,0,0-1.89-6.34,8.37,8.37,0,0,0-7.25-4.11,8.17,8.17,0,0,0-5.48,2.09,10.56,10.56,0,0,0-3.65,8.36A11.3,11.3,0,0,0,88.11,191.42Z"/><path class="cls-1" d="M140.91,173.86A11,11,0,0,1,157,172.1,12.33,12.33,0,0,1,161.4,182v16.19l.07,2.67h-5.16l-.06-2.61L156.18,182a8.58,8.58,0,0,0-1-4,6,6,0,0,0-8.94-2.15,7.19,7.19,0,0,0-2.87,6.13v16.19l.06,2.67H138.3l-.07-2.61-.06-13.64V182a8.58,8.58,0,0,0-1-4,6,6,0,0,0-8.94-2.15,7.19,7.19,0,0,0-2.88,6.13v18.8h-5.22V169.42h5.22v2.09a11.29,11.29,0,0,1,6.4-2.09,11.65,11.65,0,0,1,9,4.57S140.86,174,140.91,173.86Z"/><path class="cls-1" d="M548.83,247.56v20.5H545v-9.12h-1.87v8.76h-3.77v-2.18l-2.66,1.29-2.5-5.21c-1.27,3.53-3.19,5.38-5.78,5.5V263c2.28-.36,3.62-6.05,3.62-15l3.84.14a60.09,60.09,0,0,1-.45,7.92l3.93,7.66v-16h3.77v7.44H545v-7.54Z"/><path class="cls-1" d="M572.25,263.64v3.7H551.52v-3.7h8.3v-2.3h-7.15V253h14.45v-1.4h-14.5V248h18.51v8.33H556.68v1.42h14.69v3.55H564v2.3Z"/><path class="cls-1" d="M595.34,257.45v3.34H587v2.78h-4.08v-2.78H574.6v-3.34Zm-19.78-5.57c0-3.19,4-4.65,9.41-4.65s9.41,1.46,9.41,4.65-4,4.66-9.41,4.66S575.56,255.07,575.56,251.88Zm4.37,12.82h14.45v3.36H575.8V262h4.13Zm0-12.82c0,1,2,1.54,5.09,1.54s5.09-.53,5.09-1.54-2-1.53-5.09-1.53S579.88,250.9,579.88,251.88Z"/><path class="cls-1" d="M617.66,252H604.34v-3.09h4.94V247.2h4.13v1.66h4.25Zm-12.55,4.56c0-2.64,2.78-4,6.17-4s6.16,1.41,6.16,4-2.78,4.06-6.16,4.06S605.11,259.18,605.11,256.51Zm.79,4.78h18.43v7H620.2v-3.62H605.9Zm3.05-4.78c0,.7.86,1.18,2.33,1.18s2.32-.48,2.32-1.18-.86-1.17-2.32-1.17S609,255.82,609,256.51Zm15.38-8.95v13h-4v-1.9h-2v-3.38h2v-1.42h-2v-3.38h2v-2.93Z"/><path class="cls-1" d="M640.29,258H628.08V247.8h12.21Zm7.32,5.69c0,3.4-4.13,4.58-9.36,4.58s-9.36-1.18-9.36-4.58,4.13-4.59,9.36-4.59S647.61,260.31,647.61,263.72Zm-11.3-12.58h-4.25v3.55h4.25Zm6.93,12.58c0-1-2.23-1.35-5-1.35s-5,.39-5,1.35,2.23,1.34,5,1.34S643.24,264.7,643.24,263.72Zm.2-6.75h-2.19v-3.46h2.19v-1.39h-2.19v-3.45h2.19v-1.11h4v11.28h-4Z"/><path class="cls-1" d="M659.75,267.1h-9.16v-3.79h9.33a14.42,14.42,0,0,0,5.31-.82v3.75A15,15,0,0,1,659.75,267.1Zm4.47-12.75a6.54,6.54,0,1,1-6.53-6.64A6.28,6.28,0,0,1,664.22,254.35Zm-9.17,0c0,1.76,1,3,2.64,3s2.64-1.27,2.64-3a2.72,2.72,0,0,0-2.64-3C656.06,251.33,655.05,252.63,655.05,254.35Zm15.41,13.71H666.4v-20.5h4.06Z"/><path class="cls-1" d="M693.4,250.47c0,5.3-5.42,7.12-12.43,7.12v-3.28c4.92-.05,8.35-1.25,8.35-3v-.21H681V247.8H693.4Zm6.82,14h-14.3v.81h14.52v2.81H681.91v-6.12h14.3v-.82H681.86v-2.81h18.36Zm0-6.85h-4.06v-10h4.06Z"/><path class="cls-1" d="M724.22,258.58H703.48v-2.95h20.74Zm-1.06-7.49c0,2.86-3.93,3.86-9.31,3.86s-9.31-1-9.31-3.86,3.93-3.86,9.31-3.86S723.16,248.23,723.16,251.09ZM723,264.72H708.67v.7h14.57v2.64H704.71v-5.45h14.35v-.7h-14.4v-2.54H723Zm-14.19-13.63c0,.7,2,1,5,1s5-.26,5-1-2-1-5-1S708.83,250.42,708.83,251.09Z"/><path class="cls-1" d="M742.36,248h4V267.1H734.2V248h4v6h4.17Zm0,15.34v-5.62h-4.17v5.62Zm10.73-15.82v20.5H749v-20.5Z"/><path class="cls-1" d="M777.12,264.17h-8.31v4.37h-4.13v-4.37h-8.3v-3.72h20.74Zm-11-7.78a15.32,15.32,0,0,1-9.1,2.86v-3.72c3.1-.1,5.93-1.2,7.16-3h-6.72v-3.67h7.12v-1.8h4.18v1.8H776v3.67h-7.11a5.51,5.51,0,0,1-.31.89l8.09,2.33-1.22,3.5Z"/><path class="cls-1" d="M788.39,263.43a14,14,0,0,0,5.31-.92v3.63a14.71,14.71,0,0,1-5.59,1h-8V248h11.93v3.67h-7.8v11.72ZM801.12,259h-2.41v9.07h-4.05v-20.5h4.05v7.49h2.41Z"/><path class="cls-1" d="M534.93,285.63l5,9.13-2,1.05L534.33,289c-1,4.2-2.83,6.53-5.59,7.1v-2.4c3.24-1.05,4.34-7.22,4.37-16.37l2.28.1A62.87,62.87,0,0,1,534.93,285.63Zm13.35-8.78v20.5H546v-10h-3.53V297h-2.25V277h2.25v8.14H546v-8.26Z"/><path class="cls-1" d="M572.13,294.18v2.18H551.66v-2.18h9v-3.87H553v-7.39h15.41v-3.21H553v-2.12h17.76V285H555.4v3.24h15.7v2.11h-8v3.87Z"/><path class="cls-1" d="M595.22,287.36v2h-9.05v3.53h-2.4v-3.53h-9v-2Zm-19.34-6.21c0-3,4.12-4.42,9.09-4.42s9.1,1.39,9.1,4.42-4.13,4.44-9.1,4.44S575.88,284.19,575.88,281.15Zm2.71,13.92h15.58v2h-18v-5.83h2.43Zm-.19-13.92c0,1.68,3,2.52,6.57,2.52s6.58-.84,6.58-2.52-3-2.5-6.58-2.5S578.4,279.49,578.4,281.15Z"/><path class="cls-1" d="M617.83,280.67H604.6v-1.9h5.76v-2.28h2.4v2.28h5.07Zm-12.29,5.08c0-2.52,2.64-4,6-4s6,1.44,6,4-2.64,4-6,4S605.54,288.3,605.54,285.75Zm.67,5.28h17.57v6.32h-2.4v-4.28H606.21Zm1.61-5.28c0,1.25,1.39,2.19,3.7,2.19s3.72-.94,3.72-2.19-1.4-2.16-3.72-2.16S607.82,284.53,607.82,285.75Zm16-8.9v13.06H621.5v-2.67h-3.1v-2h3.1v-2.48h-3.1v-2h3.1v-3.89Z"/><path class="cls-1" d="M640,287H628.51v-9.65H640Zm7.1,6.1c0,3.07-3.91,4.25-8.88,4.25s-8.85-1.18-8.85-4.25,3.88-4.25,8.85-4.25S647.13,290,647.13,293.1Zm-9.45-13.73h-6.85V285h6.85Zm6.91,13.73c0-1.56-2.81-2.28-6.34-2.28s-6.33.72-6.33,2.28,2.8,2.28,6.33,2.28S644.59,294.68,644.59,293.1Zm0-8h-3.36v-2.06h3.36v-2.38h-3.36v-2.06h3.36v-1.8h2.35v11.33h-2.35Z"/><path class="cls-1" d="M650.73,293.89h8.38a18,18,0,0,0,6.72-1v2.21a18.82,18.82,0,0,1-6.87,1h-8.23Zm.7-10.15a6.34,6.34,0,1,1,6.33,6.46A6.13,6.13,0,0,1,651.43,283.74Zm10.34,0a4,4,0,1,0-4,4.29A4,4,0,0,0,661.77,283.74Zm5.79-6.89h2.37v20.5h-2.37Z"/><path class="cls-1" d="M681.28,284.58c5.81,0,9.65-1.44,9.65-4.75v-.48h-9.65v-2h12v2.09c0,5-4.92,7.13-12,7.13Zm1,7.08h15v-1.78H682.27V288h17.4v5.43h-15v1.77h15.48v1.87H682.31Zm15-14.81h2.38v10h-2.38Z"/><path class="cls-1" d="M703.63,285.51H724.1v1.85H703.63Zm1.22-5c0-2.71,4.06-3.72,9-3.72s9,1,9,3.72-4.06,3.74-9,3.74S704.85,283.23,704.85,280.5Zm.19,11.71h15.32v-1.44H705V289h17.69v4.9H707.37v1.44H723v1.78H705ZM720.4,280.5c0-1.35-3-1.92-6.55-1.92s-6.55.57-6.55,1.92,3,1.92,6.55,1.92S720.4,281.87,720.4,280.5Z"/><path class="cls-1" d="M743.88,277.45h2.35v18.67H734.61V277.45H737v7.06h6.92Zm0,16.49v-7.25H737v7.25Zm8.68-17.09v20.5h-2.37v-20.5Z"/><path class="cls-1" d="M777,292.31h-9v5.52h-2.43v-5.52h-9V290.1H777Zm-19.83-4.18V286c4.32-.32,7.44-2.31,8.28-5.12H757.7v-2.16h7.77v-2.32h2.45v2.32h7.87v2.16H768a7.93,7.93,0,0,1-.6,1.8l8.93,3.29-.82,2.07-9.34-3.56C764.27,286.57,761.08,287.91,757.17,288.13Z"/><path class="cls-1" d="M788.71,294a13.59,13.59,0,0,0,5.3-1v2.16a13.78,13.78,0,0,1-5.42,1h-8V277.59H792.4v2.16H783V294ZM801,287.43h-2.88v9.92h-2.37v-20.5h2.37v8.3H801Z"/><path class="cls-1" d="M534.52,315.28l5.19,9-.84.55-4.56-8c-.82,4.66-2.43,7.34-5.31,8.38v-1c4-1.59,4.92-8.16,5-17.45l1,0A69.25,69.25,0,0,1,534.52,315.28Zm13.33-9.14v20.5h-1V315.93h-4.9v10.35h-1v-20h1V315h4.9v-8.85Z"/><path class="cls-1" d="M572,324.5v.94H551.76v-.94h9.55v-5.16h-8v-6.6h16.18V308H553.34v-.93h17.19v6.57H554.35v4.73h16.54v.94h-8.57v5.16Z"/><path class="cls-1" d="M595.1,317.16v.93h-9.62v4.15h-1v-4.15h-9.63v-.93Zm-19-6.73c0-2.9,4.22-4.24,8.83-4.24s8.84,1.34,8.84,4.24-4.23,4.25-8.84,4.25S576.14,313.34,576.14,310.43Zm1.34,14.81H594v.94H576.48v-5.62h1Zm-.31-14.81c0,2.21,3.82,3.32,7.8,3.32s7.8-1.11,7.8-3.32-3.81-3.31-7.8-3.31S577.17,308.23,577.17,310.43Z"/><path class="cls-1" d="M618,309.5H604.82v-.94h6.41v-2.78h1v2.78H618Zm-12.07,5.4c0-2.47,2.5-3.94,5.83-3.94s5.83,1.47,5.83,3.94-2.49,3.93-5.83,3.93S605.9,317.37,605.9,314.9Zm.58,5.78h16.87v5.76h-1v-4.82H606.48Zm.43-5.78c0,1.7,1.82,3,4.82,3s4.83-1.32,4.83-3-1.83-3-4.83-3S606.91,313.19,606.91,314.9Zm16.54-8.76v13.1h-1V316h-4V315h4v-3.31h-4v-.91h4v-4.68Z"/><path class="cls-1" d="M639.81,316h-11v-9.17h11Zm6.91,6.43c0,2.81-3.72,4-8.47,4s-8.45-1.17-8.45-4,3.7-4,8.45-4S646.72,319.65,646.72,322.46Zm-7.92-14.67h-8.95v7.28h8.95Zm6.87,14.67c0-2.06-3.24-3-7.42-3s-7.42,1-7.42,3,3.25,3.05,7.42,3.05S645.67,324.52,645.67,322.46Zm-.15-8.16H641.2v-.94h4.32v-3.91H641.2v-.94h4.32v-2.37h1v11.37h-1Z"/><path class="cls-1" d="M658.32,325.2h-7.49v-.94h7.63c3.55,0,6.36-.38,7.85-1.1v1C664.89,324.79,662,325.2,658.32,325.2ZM664,313.1a6.17,6.17,0,1,1-6.17-6.29A6,6,0,0,1,664,313.1Zm-11.31,0a5.14,5.14,0,1,0,5.14-5.35A5.05,5.05,0,0,0,652.67,313.1Zm16.83,13.54h-1v-20.5h1Z"/><path class="cls-1" d="M693.24,308.49c0,5.18-4.54,7.13-11.69,7.13v-.94c6.5,0,10.68-1.61,10.68-6.19v-.7H681.55v-.93h11.69Zm6,13.9H683.68v2.83H700v.94H682.63v-4.68H698.2v-2.84H682.58v-.93h16.66Zm0-6.12h-1V306.14h1Z"/><path class="cls-1" d="M724,316.19H703.72v-.91H724Zm-1.37-6.33c0,2.61-4.15,3.57-8.76,3.57s-8.76-1-8.76-3.57,4.15-3.58,8.76-3.58S722.61,307.24,722.61,309.86Zm-.19,13H706.31v2.45h16.57v.91H705.31v-4.25h16.1v-2.38H705.26v-.91h17.16Zm-16.3-13c0,1.94,3.75,2.66,7.73,2.66s7.73-.72,7.73-2.66-3.75-2.67-7.73-2.67S706.12,307.91,706.12,309.86Z"/><path class="cls-1" d="M745.12,306.86h1V325.2H735V306.86h1v7.89h9.14Zm0,17.4v-8.57H736v8.57Zm7-18.12v20.5h-1v-20.5Z"/><path class="cls-1" d="M776.88,320.64h-9.65v6.48h-1v-6.48h-9.6v-.94h20.26Zm-19.64-3.53v-.94c5.26-.5,8.4-3.34,9-6.84h-8.4v-.94h8.33v-2.76h1v2.76h8.47v.94h-8.38a9.11,9.11,0,0,1-.76,2.47l9.57,4.13-.45.89-9.6-4.2C764.42,315.07,761.42,316.72,757.24,317.11Z"/><path class="cls-1" d="M789,324.26a13.5,13.5,0,0,0,5.3-1v1a13.43,13.43,0,0,1-5.3,1h-8.06V307.1h11.76V308H781.91v16.23Zm12-8.21h-3.24v10.59h-1v-20.5h1v9H801Z"/><path class="cls-1" d="M580.44,164.61h-2.66c-2-8.36-10.85-14.5-21.27-14.5-13.33,0-22.62,9.73-22.62,23.18s9.23,23.19,22.81,23.19c12.09,0,21.39-8.18,21.76-20.46H555.09V173.6h26.1v1.62c0,14.07-10.85,23.62-24.74,23.62-14.81,0-25.23-10.79-25.23-25.55s10.42-25.54,25.23-25.54C568.73,147.75,578.15,155.07,580.44,164.61Z"/><path class="cls-1" d="M591.92,149h28.33v46.75H591.92Zm2.6,44.33h23.13V151.41H594.52Zm49.23-21.2h-8.37v27.34h-2.61v-53h2.61V169.7h8.37Z"/><path class="cls-1" d="M650,179.25v-2.48c8.12,0,15.44-4,17.73-12.84H650v-2.41h18.22a26,26,0,0,0,.25-3.91v-6.82H650v-2.42h21.14v9.24a26,26,0,0,1-.25,3.91h11V146.88h2.66v29.2h-2.66V163.93H670.41C667.93,174.29,659.37,179.25,650,179.25Zm49.1,19.59-24-12a28.34,28.34,0,0,1-22.2,11.35v-2.48c10-.19,21.2-6.82,23.5-18.42l2.6.5a20.67,20.67,0,0,1-2.6,7l24,11.71Zm-1-14.32h-2.67v-38H698Z"/><path class="cls-1" d="M725.71,177.26v-2.48c11.41-2.48,17.67-14.69,17.67-27.52l2.6.12A38.63,38.63,0,0,1,743.63,161l18.1,13.82-1.67,2-17.48-13.33C739.17,170.57,733.46,175.71,725.71,177.26Zm6.57,18.54H774v2.42H729.68V182.78h2.6Zm48.11-35.59v2.42H772v23.31h-2.6V146.51H772v13.7Z"/><path class="cls-1" d="M837.43,193.94v2.42H785.11v-2.42Zm-51.27-14.51V177c12.28,0,23.44-14.32,26.85-29.88l2.72.68a51.44,51.44,0,0,1-4.4,12.22l24,17.66-1.61,1.86-23.49-17.35C804.39,172.24,795.46,179.43,786.16,179.43Z"/><path class="cls-1" d="M1.72,8.74V7.9C4,7.9,6,6,6,2.62V1.87H1.72V1H7V2.6C7,6.38,4.58,8.74,1.72,8.74Zm2.06,9.13H18.59v.85H2.82V14.43H17V11.84H2.77V11H17.93v4.29H3.78ZM7.94,9.18V8.34c2.09,0,4.78-1.54,4.78-5.57v-.9H8V1h5.63V2.75C13.64,7.13,10.63,9.18,7.94,9.18ZM20.79,4.4v.86H17.93v4.4H17V.37h.92v4Z"/><path class="cls-1" d="M41,9.46H22.46V8.6H41ZM30.87,7h-.93V1.65H23.76V.79h7.11ZM39.6,18.75H23.91V12H39.6Zm-.92-.86v-5H24.84v5ZM39.56,7h-.93V1.65H32.19V.79h7.37Z"/><path class="cls-1" d="M50.62,3.83h5.63v.86H44.09V3.83H49.7V.33h.92Zm4.58,8.58c0,3.48-2.27,5.65-5,5.65s-5-2.17-5-5.65,2.27-5.65,5-5.65S55.2,8.93,55.2,12.41Zm-1,0c0-2.95-1.89-4.8-4.09-4.8s-4.09,1.85-4.09,4.8,1.89,4.8,4.09,4.8S54.25,15.36,54.25,12.41Zm8.87-2.95h-3v9.7h-.92V.37h.92V8.6h3Z"/><path class="cls-1" d="M83.36,17.21v.85H64.79v-.85h7.72V7.94h.93v9.27ZM81,2.09H66.09V1.23H81.93V13.64H81Z"/><path class="cls-1" d="M93,1.25h9.88V5.32c0,7.38-3.61,12.44-9.88,12.44v-.88c5.59,0,9-4.54,9-11.47V2.11H93Zm18.66,8.21h-3v9.7h-.93V.37h.93V8.6h3Z"/><path class="cls-1" d="M131.85,10.17V11H113.28v-.85h8.82V7.39h-7.28V.79h15.55v.86H115.74V6.53h14.85v.86H123v2.78Zm-17.3,3.45h15.82V19h-.92V14.48h-14.9Z"/><path class="cls-1" d="M134.59,10.36V9.48c4-.88,6.14-4.66,6.14-8.84l.93,0A12.13,12.13,0,0,1,140.89,5l6.27,4.29-.55.7-6.1-4.16A8.39,8.39,0,0,1,134.59,10.36Zm17.23,5.06c0,2.51-3.39,3.57-7.74,3.57s-7.75-1.06-7.75-3.57,3.39-3.56,7.75-3.56S151.82,12.92,151.82,15.42Zm-.94,0c0-1.82-3-2.7-6.8-2.7s-6.8.88-6.8,2.7,3,2.71,6.8,2.71S150.88,17.25,150.88,15.42Zm-.13-10.25h-5.46V4.33h5.46v-4h.92V11h-.92Z"/><path class="cls-1" d="M180.34,8.6v.84H161.76V8.6h8.83V6.27h.92V8.6Zm-8.83,3.57h7.77V13H162.75v-.83h7.82V10.43h.94Zm-8.67-5.5V5.81c3.46-.11,7.55-1.48,8.14-4.16h-7.74V.79h15.64v.86h-7a4.14,4.14,0,0,1-.62,1.52l8.17,2.73-.36.86-8.42-2.84C168.92,5.72,165.66,6.58,162.84,6.67Zm15.45,10c0,1.52-2.07,2.48-7.26,2.48s-7.26-1-7.26-2.48,2.07-2.51,7.26-2.51S178.29,15.16,178.29,16.68Zm-.92,0c0-1-2.38-1.67-6.34-1.67s-6.34.63-6.34,1.67,2.38,1.65,6.34,1.65S177.37,17.71,177.37,16.68Z"/><path class="cls-1" d="M201.5,11.46H182.93v-.85H201.5Zm-1.19-7.1c0,2.66-3.87,3.94-8.1,3.94S184.12,7,184.12,4.36,188,.42,192.21.42,200.31,1.69,200.31,4.36Zm-15,13.53h15.11v.86h-16V13.6h.93Zm-.29-13.53c0,2,3.5,3.08,7.15,3.08s7.15-1.06,7.15-3.08-3.49-3.08-7.15-3.08S185.06,2.33,185.06,4.36Z"/><path class="cls-1" d="M210.34,11.29v-.88c4-.88,6.27-5.22,6.27-9.77l.93,0a13.7,13.7,0,0,1-.84,4.84l6.42,4.91-.59.73-6.2-4.73A8.5,8.5,0,0,1,210.34,11.29Zm2.33,6.58h14.81v.85H211.75V13.25h.92ZM229.75,5.24v.85h-3v8.28h-.93V.37h.93V5.24Z"/><path class="cls-1" d="M236.79,8.85,241.54,17l-.77.51-4.2-7.31c-.75,4.23-2.23,6.69-4.85,7.61v-.92c3.7-1.45,4.52-7.48,4.56-16l.92,0A68.69,68.69,0,0,1,236.79,8.85ZM243.5.51h.92V18.83h-.92V8.21h-3.72V7.35h3.72ZM249,.37V19.16h-.93V.37Z"/><path class="cls-1" d="M264.2,9.77h-9.4V17h6.69a12.42,12.42,0,0,0,4.86-.91v.86a12,12,0,0,1-4.86.9h-7.63V8.91h9.41V2.11h-9.46V1.25H264.2Zm5.43,9.39h-.92V.37h.92Z"/><path class="cls-1" d="M292.31,17.16v.9H273.74v-.9Zm-1.07-5.32H274.82V11h3.72V2.33H275V1.47h16v.86h-3.52V11h3.72ZM279.46,11h7.13V2.33h-7.13Z"/><path class="cls-1" d="M319.64,11.22v.86H301.07v-.86h8.82V8.3h-7.63V7.46H306V1.63h-3.5V.79h15.8v.84h-3.5V7.46h3.7V8.3h-7.63v2.92Zm-16.15,6.69H318.6v.84h-16V13.91h.93Zm3.39-10.45h6.95V1.63h-6.95Z"/><path class="cls-1" d="M340.8,17.21v.85H322.23v-.85Zm-1-4.38H323.68V1.25h15.74v.86H324.61V6.6h14.63v.86H324.61V12h15.16Z"/><path class="cls-1" d="M362,10.28H343.39V9.44H362Zm-1.43,5.58H345.75v2.07H361v.82h-16.1V15.07h14.78v-2H344.8v-.81h15.74Zm-.05-11.37H345.86V6.62H360.8v.82H345V3.67h14.63V1.61H345V.79h15.53Z"/><path class="cls-1" d="M377.52,9l6.31,8.27-.72.55-5.86-7.74c-1.14,4.48-3.23,7.37-6.22,7.78V17c4.35-.82,6.27-8.14,6.31-16.07l.93,0A42.52,42.52,0,0,1,377.52,9Zm12.69.48h-3v9.7h-.92V.37h.92V8.6h3Z"/><path class="cls-1" d="M410.45,9.68v.86H391.88V9.68h4.64V6.78c-2-.51-3.41-1.46-3.41-2.93,0-2.44,3.83-3.43,8.06-3.43s8.05,1,8.05,3.43c0,1.47-1.39,2.42-3.41,2.93v2.9Zm-1.3,6.16c0,2.47-4,3.21-8,3.21s-8-.74-8-3.21,4-3.17,8-3.17S409.15,13.38,409.15,15.84Zm-8-9.41c3.65,0,7.1-.78,7.1-2.58s-3.45-2.57-7.1-2.57-7.11.77-7.11,2.57S397.51,6.43,401.17,6.43Zm7,9.41c0-1.8-3.74-2.31-7-2.31s-7,.51-7,2.31,3.74,2.36,7,2.36S408.21,17.65,408.21,15.84ZM397.45,9.68h7.44V7a19.81,19.81,0,0,1-3.72.3,19.74,19.74,0,0,1-3.72-.3Z"/><path class="cls-1" d="M420,3.83h5.64v.86H413.51V3.83h5.61V.33H420Zm4.58,8.58c0,3.48-2.27,5.65-5,5.65s-5-2.17-5-5.65,2.27-5.65,5-5.65S424.62,8.93,424.62,12.41Zm-.95,0c0-2.95-1.89-4.8-4.09-4.8s-4.09,1.85-4.09,4.8,1.89,4.8,4.09,4.8S423.67,15.36,423.67,12.41Zm8.87-2.95h-3v9.7h-.92V.37h.92V8.6h3Z"/><path class="cls-1" d="M445.87,9.55c0,5.79-2.24,8.56-5.37,8.56s-5.37-2.77-5.37-8.56S437.38,1,440.5,1,445.87,3.76,445.87,9.55Zm-.94,0c0-5.22-1.87-7.7-4.43-7.7s-4.42,2.48-4.42,7.7,1.87,7.7,4.42,7.7S444.93,14.76,444.93,9.55ZM451.44.37V19.16h-.93V13.33h-4l.07-.85h3.93V6.53h-3.93l-.07-.85h4V.37Z"/><path class="cls-1" d="M462,8.74V7.9c2.29,0,4.31-1.87,4.31-5.28V1.87H462V1h5.24V2.6C467.19,6.38,464.81,8.74,462,8.74ZM464,17.87h14.81v.85H463.05V14.43h14.17V11.84H463V11h15.16v4.29H464Zm4.16-8.69V8.34c2.09,0,4.77-1.54,4.77-5.57v-.9h-4.71V1h5.64V2.75C473.88,7.13,470.86,9.18,468.18,9.18ZM481,4.4v.86h-2.86v4.4h-.93V.37h.93v4Z"/><path class="cls-1" d="M501.27,9.46H482.7V8.6h18.57ZM491.1,7h-.92V1.65H484V.79h7.1Zm8.74,11.73H484.15V12h15.69Zm-.93-.86v-5H485.07v5ZM499.79,7h-.92V1.65h-6.45V.79h7.37Z"/><path class="cls-1" d="M516.6,3.43H503.91V2.57h5.87V0h.93V2.57h5.89ZM504.85,8.76c0-2.38,2.27-3.83,5.39-3.83s5.39,1.45,5.39,3.83-2.26,3.83-5.39,3.83S504.85,11.13,504.85,8.76Zm1.43,9.11h14.81v.85H505.36V14.1h.92Zm-.5-9.11c0,1.76,1.71,3,4.46,3s4.47-1.23,4.47-3-1.72-3-4.47-3S505.78,7,505.78,8.76Zm17.58-2.6V7h-3v7.5h-.93V.37h.93V6.16Z"/><path class="cls-1" d="M543.2,9.55c0,5.79-2.33,8.56-5.5,8.56s-5.5-2.77-5.5-8.56S534.53,1,537.7,1,543.2,3.76,543.2,9.55Zm-10.06,0c0,5.21,2,7.7,4.56,7.7s4.55-2.49,4.55-7.7-2-7.7-4.55-7.7S533.14,4.33,533.14,9.55Zm15.12,9.61h-1V.37h1Z"/><path class="cls-1" d="M563.9,17.84H553.65V1.25H563.9ZM563,17V2.11h-8.41V17Zm6.42,2.17h-.92V.37h.92Z"/><path class="cls-1" d="M580.22,9.13l6.67,7.94-.72.55L580,10.17c-1.1,4.37-3.17,7.08-6,7.67V17c3.81-.9,5.87-7.08,5.94-14.85h-5.57V1.25h12v.86h-5.48A36.66,36.66,0,0,1,580.22,9.13ZM590.57.37V19.16h-.93V.37Z"/><path class="cls-1" d="M613.25,10.28H594.68V9.44h18.57Zm-1.43,5.58H597v2.07h15.2v.82h-16.1V15.07h14.78v-2H596.08v-.81h15.74Zm-.05-11.37H597.14V6.62h14.94v.82H596.24V3.67h14.63V1.61H596.24V.79h15.53Z"/><path class="cls-1" d="M640.57,13.49H631.7V19.6h-.92V13.49H622v-.86h18.57Zm-18-3.43V9.18c4.49-.53,7.88-3.17,8.47-7.24h-7.92V1.08h16.33v.86H632a8.38,8.38,0,0,1-.86,2.81l8.8,4.38-.48.79-8.76-4.4A11,11,0,0,1,622.57,10.06Z"/><path class="cls-1" d="M661.74,17.21v.85H643.16v-.85h7.73V7.94h.92v9.27ZM659.38,2.09H644.46V1.23H660.3V13.64h-.92Z"/><path class="cls-1" d="M670.75,9.15l6.58,7.92-.72.55-6.08-7.41c-1.08,4.33-3.1,7-5.89,7.63V17c3.8-.9,5.78-7.08,5.85-14.85H665V1.25H676.8v.86h-5.39A36.64,36.64,0,0,1,670.75,9.15Zm13.07.31h-3v9.7h-.92V.37h.92V8.6h3Z"/><path class="cls-1" d="M701.36,3.48h-9.93V2.62H696V.11h.92V2.62h4.43Zm-9.11,4.77c0-2.16,1.84-3.45,4.24-3.45s4.25,1.29,4.25,3.45-1.85,3.46-4.25,3.46S692.25,10.41,692.25,8.25Zm17.88,10.5-4.4-3a6.68,6.68,0,0,1-4.48,3l-3.72-2.79a7,7,0,0,1-4.45,2.79v-.85a6.32,6.32,0,0,0,4.84-5.28l.91.08A6.88,6.88,0,0,1,698,15.2l3.5,2.62A6.26,6.26,0,0,0,706,12.59l.9.08a6.29,6.29,0,0,1-.71,2.31l4.49,3Zm-17-10.5c0,1.45,1.23,2.62,3.32,2.62s3.32-1.17,3.32-2.62-1.23-2.62-3.32-2.62S693.17,6.8,693.17,8.25Zm11,3.7h-.93V.51h.93V5.32h4.18V.37h.92V12.19h-.92v-6h-4.18Z"/><path class="cls-1" d="M731.39,9.11V10H712.82V9.11ZM713.63,7V6.16c3.65-.11,8.12-2.53,9-6.16l.91.15a6.62,6.62,0,0,1-1.06,2.45l8.12,3.71-.37.75L721.86,3.3A11.9,11.9,0,0,1,713.63,7ZM729,11.79h.92v7h-15.6v-7h.93v2.49H729Zm0,6.1V15.12H715.24v2.77Z"/><path class="cls-1" d="M736.2,17h6.69a12.41,12.41,0,0,0,4.86-.92v.88a12,12,0,0,1-4.86.92h-7.61V1.14h.92ZM751,19.16l-.95,0V.37H751Z"/><path class="cls-1" d="M763.64,17A12.42,12.42,0,0,0,768.5,16v.9a12.4,12.4,0,0,1-4.86.9h-7.4V1.25H767v.86h-9.85V17Zm11-7.53h-3v9.7h-.93V.37h.93V8.6h3Z"/><path class="cls-1" d="M778.4,17.91a1,1,0,1,1-1-1A1,1,0,0,1,778.4,17.91Z"/><path class="cls-1" d="M7.3,44c-3.52,0-5.61-1.94-5.61-4.64S3.78,34.7,7.3,34.7s5.62,1.94,5.62,4.65S10.83,44,7.3,44Zm0-.86c2.76,0,4.69-1.34,4.69-3.78s-1.93-3.79-4.69-3.79S2.62,36.9,2.62,39.35,4.55,43.13,7.3,43.13Zm11.4,6.21c0,2.53-3.36,3.65-7.65,3.65s-7.64-1.12-7.64-3.65,3.34-3.66,7.64-3.66S18.7,46.81,18.7,49.34Zm-1,0c0-1.9-2.92-2.8-6.68-2.8s-6.69.9-6.69,2.8,2.92,2.79,6.69,2.79S17.73,51.23,17.73,49.34Zm-.13-8.1V37.39h-4l-.05-.82H17.6v-2.2h.93V44.8H17.6V42.05H13.53l.05-.81Z"/><path class="cls-1" d="M41,44.47v.86H32.21v3.81h-.92V45.33H22.46v-.86ZM24.9,51.89H40v.86H24V47.38h.92Zm14.61-10H24V34.79H39.51Zm-.92-6.27H24.93v5.41H38.59Z"/><path class="cls-1" d="M62.2,45.46H43.62v-.85H62.2ZM61,38.36c0,2.66-3.87,3.94-8.1,3.94s-8.1-1.28-8.1-3.94,3.88-3.94,8.1-3.94S61,35.69,61,38.36Zm-15,13.53H61.16v.86h-16V47.6h.93Zm-.29-13.53c0,2,3.5,3.08,7.15,3.08s7.15-1.06,7.15-3.08-3.5-3.08-7.15-3.08S45.76,36.33,45.76,38.36Z"/><path class="cls-1" d="M83.18,47.51H73.5l-2.15,5.06h-1l7.46-17.38h1.12l7.46,17.38h-1Zm-.39-.88L78.34,36.22,73.9,46.63Z"/><path class="cls-1" d="M87.82,46.41c0-3.65,2.53-6.47,6-6.47a5.59,5.59,0,0,1,5.3,3.26V34.66H100V52.57h-.92v-3a5.59,5.59,0,0,1-5.3,3.26C90.35,52.88,87.82,50.06,87.82,46.41Zm11.31,0a5.29,5.29,0,0,0-5.26-5.61c-3.08,0-5.12,2.44-5.12,5.61s2,5.61,5.12,5.61A5.29,5.29,0,0,0,99.13,46.41Z"/><path class="cls-1" d="M104,46.41c0-3.65,2.53-6.47,6-6.47a5.59,5.59,0,0,1,5.3,3.26v-3h.92V52.57h-.92v-3a5.59,5.59,0,0,1-5.3,3.26C106.5,52.88,104,50.06,104,46.41Zm11.31,0A5.29,5.29,0,0,0,110,40.8c-3.08,0-5.12,2.44-5.12,5.61S106.94,52,110,52A5.29,5.29,0,0,0,115.28,46.41Z"/><path class="cls-1" d="M120.23,40.25h.92V43a4.7,4.7,0,0,1,4.45-3,4,4,0,0,1,4,3.5,4.83,4.83,0,0,1,4.71-3.5c2.35,0,4.18,2,4.18,4.82v7.81h-.93V44.91c0-2.53-1.38-4.11-3.45-4.11-2.4,0-4.27,2.51-4.27,5.19v6.58h-.92v-7.5c0-2.69-1.41-4.27-3.46-4.27-2.37,0-4.27,2.53-4.27,5.15v6.62h-.92Z"/><path class="cls-1" d="M142.32,55.23h-.82l.62-4.27h1Z"/><path class="cls-1" d="M161.66,43.44v3.81H169V53h-.92V48.1h-14.9v-.85h7.55V43.44h-8.82v-.86h18.57v.86ZM168,35.65H153.38v-.86H169V41.2H168Z"/><path class="cls-1" d="M191.64,44.47v.86h-8.82v3.81h-.92V45.33h-8.83v-.86Zm-16.13,7.42h15.14v.86H174.59V47.38h.92Zm14.61-10H174.61V34.79h15.51Zm-.92-6.27H175.54v5.41H189.2Z"/><path class="cls-1" d="M212.81,45.46H194.24v-.85h18.57Zm-1.19-7.1c0,2.66-3.87,3.94-8.1,3.94s-8.1-1.28-8.1-3.94,3.88-3.94,8.1-3.94S211.62,35.69,211.62,38.36Zm-15,13.53h15.11v.86h-16V47.6h.93Zm-.29-13.53c0,2,3.5,3.08,7.15,3.08s7.15-1.06,7.15-3.08-3.5-3.08-7.15-3.08S196.37,36.33,196.37,38.36Z"/><path class="cls-1" d="M239.14,40.8h-.95c-.72-3-3.85-5.15-7.54-5.15-4.73,0-8,3.45-8,8.23s3.27,8.23,8.09,8.23a7.36,7.36,0,0,0,7.73-7.26h-8.3V44h9.26v.57c0,5-3.85,8.38-8.78,8.38a8.68,8.68,0,0,1-9-9.06,8.69,8.69,0,0,1,9-9.07C235,34.81,238.33,37.41,239.14,40.8Z"/><path class="cls-1" d="M243.21,35.25h10V51.84h-10ZM244.13,51h8.21V36.11h-8.21Zm17.47-7.53h-3v9.7h-.92V34.37h.92V42.6h3Z"/><path class="cls-1" d="M263.8,46v-.88c2.88,0,5.48-1.41,6.29-4.55H263.8V39.7h6.47a10.25,10.25,0,0,0,.09-1.39V35.89H263.8V35h7.5v3.28a8.86,8.86,0,0,1-.09,1.39h3.92V34.51h.95V44.87h-.95V40.56h-4.07C270.18,44.23,267.14,46,263.8,46Zm17.43,6.95-8.52-4.24a10.06,10.06,0,0,1-7.88,4v-.88c3.57-.06,7.53-2.42,8.34-6.53l.93.18a7.49,7.49,0,0,1-.93,2.48l8.52,4.16Zm-.38-5.08h-.94V34.37h.94Z"/><path class="cls-1" d="M290.68,45.29v-.88c4.05-.88,6.27-5.22,6.27-9.77l.93,0a13.7,13.7,0,0,1-.84,4.84l6.43,4.91-.6.73-6.2-4.73A8.5,8.5,0,0,1,290.68,45.29ZM293,51.87h14.8v.85H292.09V47.25H293Zm17.07-12.63v.85h-3v8.28h-.92v-14h.92v4.87Z"/><path class="cls-1" d="M330.33,51.21v.85H311.76v-.85Zm-18.2-5.15v-.88c4.36,0,8.32-5.09,9.53-10.61l1,.24a18.24,18.24,0,0,1-1.56,4.34l8.51,6.27-.57.66-8.34-6.16C318.6,43.51,315.43,46.06,312.13,46.06Z"/><path class="cls-1" d="M351.49,51.21v.85H332.92v-.85h8.76V46.48h-7.3v-6h14.83V36.11H334.38v-.86h15.75v6H335.3v4.34h15.16v.86H342.6v4.73Z"/><path class="cls-1" d="M367.31,42.89l6.49,8.36-.73.55-6-7.83c-1.17,4.55-3.32,7.46-6.34,7.87V51c4.36-.82,6.38-8.14,6.43-16.07l.92,0A38.66,38.66,0,0,1,367.31,42.89Zm10-8.52V53.16h-.92V34.37Z"/><path class="cls-1" d="M387.2,44.41h-5.77v-.86h7.07c3.25,0,5.8-.2,7.19-.79v.86c-1.21.55-3.94.79-7.28.79h-.29v3.87h-.92Zm-4.47-6.27c0-2.23,2.22-3.52,5.39-3.52s5.39,1.29,5.39,3.52-2.22,3.52-5.39,3.52S382.73,40.36,382.73,38.14ZM399.3,51.87v.85H383.35v-5.5h.92v4.65ZM383.66,38.14c0,1.78,1.93,2.68,4.46,2.68s4.47-.9,4.47-2.68-1.94-2.69-4.47-2.69S383.66,36.35,383.66,38.14Zm14,8.36V34.37h.93V49.18h-.93V47.33h-6.4V46.5Z"/><path class="cls-1" d="M409.57,37.83h5.63v.86H403v-.86h5.61v-3.5h.92Zm4.58,8.58c0,3.48-2.27,5.65-5,5.65s-5-2.17-5-5.65,2.27-5.65,5-5.65S414.15,42.93,414.15,46.41Zm-.95,0c0-2.95-1.89-4.8-4.09-4.8S405,43.46,405,46.41s1.89,4.8,4.09,4.8S413.2,49.36,413.2,46.41Zm8.87-2.95h-3v9.7h-.93V34.37h.93V42.6h3Z"/><path class="cls-1" d="M434.81,44.76H424.75V35h10.06Zm6.68,7.11v.85H425.65V47h.93v4.84Zm-7.61-16h-8.21v8h8.21ZM440,42.67h-4v-.86h4V37.92h-4v-.86h4V34.37H441v14H440Z"/><path class="cls-1" d="M451.61,42.16l6.25,9.22-.72.55-5.75-8.62c-1.05,4.93-3.12,8.09-6.18,8.53V51c4.2-.82,6-8.14,6.05-16.07l.92,0A43.84,43.84,0,0,1,451.61,42.16Zm10.52-7.79V53.16h-.92V42.63h-5.55v-.86h5.55v-7.4Z"/><path class="cls-1" d="M484.64,51.21v.85H466.07v-.85h8.77V45.46H467.5V35.25h15.75v.86H468.42v8.5h15.05v.85h-7.7v5.75Z"/><path class="cls-1" d="M499.26,45.35c-3.63,0-5.67-2.37-5.67-5.32s2-5.33,5.67-5.33,5.68,2.38,5.68,5.33S502.89,45.35,499.26,45.35Zm0-.81c2.86,0,4.73-1.8,4.73-4.51s-1.87-4.51-4.73-4.51-4.73,1.8-4.73,4.51S496.4,44.54,499.26,44.54ZM496,51.87h14.59v.85H495.11V46.94H496Zm16.85-12.44v.86h-3v8.08H509v-14h.92v5.06Z"/><path class="cls-1" d="M515,44.19v-.88c3.61-.66,5.83-3.22,6-7.37h-5.79v-.86h12v.86H521.9a10.55,10.55,0,0,1-.55,3.05l6.43,4.32-.53.72L521,39.85A7.72,7.72,0,0,1,515,44.19Zm17,5.23c0,2.51-3.39,3.57-7.75,3.57s-7.74-1.06-7.74-3.57,3.38-3.56,7.74-3.56S531.94,46.92,531.94,49.42Zm-1,0c0-1.82-3-2.7-6.8-2.7s-6.8.88-6.8,2.7,3,2.71,6.8,2.71S531,51.25,531,49.42Zm-.13-11V34.37h.92V45h-.92v-5.7H526.3v-.84Z"/><path class="cls-1" d="M536.13,45.07v-.88c3.66-.66,5.88-3.54,6-8.25h-5.78v-.86h12v.86h-5.3a13.91,13.91,0,0,1-.58,3.6l6.3,4.65-.53.72-6.1-4.51A7.7,7.7,0,0,1,536.13,45.07Zm1.26,2.11h15.53V53H552V48H537.39Zm15.53-12.81V45.86H552V39.92h-4.53v-.84H552V34.37Z"/><path class="cls-1" d="M568.89,43.55c0,5.79-2.33,8.56-5.5,8.56s-5.5-2.77-5.5-8.56,2.34-8.56,5.5-8.56S568.89,37.76,568.89,43.55Zm-10,0c0,5.21,2,7.7,4.55,7.7s4.56-2.49,4.56-7.7-2-7.7-4.56-7.7S558.84,38.33,558.84,43.55ZM574,53.16h-1V34.37h1Z"/><path class="cls-1" d="M596.62,51.21v.85H578v-.85h7.73V41.94h.92v9.27Zm-2.36-15.12H579.34v-.86h15.84V47.64h-.92Z"/><path class="cls-1" d="M605.72,35.25h4.16v4c0,5.68-.51,11.33-4.16,11.82v-.88c2.79-.44,3.26-5.61,3.26-10.85V36.11h-3.26Zm5.32,0h4v4.4c0,6.56-.77,11.62-4.56,12.11V50.9c2.95-.44,3.65-5,3.65-11.16V36.11H611Zm12-.88V53.16h-.9V43.33h-3.7v9.5h-.9V34.51h.9v8h3.7V34.37Z"/><path class="cls-1" d="M645.1,43v.86H626.53V43Zm-9.19,5.28,8.4,3.92-.42.74-8.45-4a10.18,10.18,0,0,1-7.87,3.74v-.88c3.72,0,7.61-2.42,8.31-6.09l1,.13A6.85,6.85,0,0,1,635.91,48.28ZM634,35.65h-6.2v-.86h7.13v6.58H634Zm8.7,0h-6.45v-.86h7.37v6.58h-.92Z"/><path class="cls-1" d="M660.44,37.43h-12.7v-.86h5.87V34h.93v2.53h5.9Zm-11.75,5.33c0-2.38,2.26-3.83,5.39-3.83s5.39,1.45,5.39,3.83-2.27,3.83-5.39,3.83S648.69,45.13,648.69,42.76Zm1.43,9.11h14.8v.85H649.19V48.1h.93Zm-.51-9.11c0,1.76,1.72,3,4.47,3s4.46-1.23,4.46-3-1.71-3-4.46-3S649.61,41,649.61,42.76Zm17.58-2.6V41h-3v7.5h-.92V34.37h.92v5.79Z"/><path class="cls-1" d="M693.59,52.06H675v-.85h18.57ZM677.4,44.61h14.72v.88H676.45V34.92h.95Z"/><path class="cls-1" d="M702.12,36.88c0,4-2.46,6.6-5.32,6.6v-.85c2.29,0,4.4-2.1,4.4-5.73v-1h-4.4V35h5.32Zm11.23,15.84H698V46h15.36Zm-.93-.85V46.81H698.91v5.06ZM708.9,37c0,4.62-3.1,6.88-5.78,6.88v-.85c2.09,0,4.86-1.74,4.86-6V35.89h-4.8V35h5.72Zm4.45,7.59h-.93V34.37h.93Z"/><path class="cls-1" d="M735.92,43.59H717.35v-.83h18.57Zm-1.26-5.81c0,2.4-3.8,3.28-8,3.28s-8-.88-8-3.28,3.81-3.27,8-3.27S734.66,35.39,734.66,37.78Zm-.17,11.89H719.72v2.24h15.19v.84H718.8v-3.9h14.76V46.67H718.75v-.83h15.74ZM719.55,37.78c0,1.79,3.43,2.45,7.08,2.45s7.09-.66,7.09-2.45-3.43-2.44-7.09-2.44S719.55,36,719.55,37.78Z"/><path class="cls-1" d="M745.09,45.46v-.88c3.65-.66,5.87-3.72,6-8.64h-5.79v-.86h12v.86H752a14.3,14.3,0,0,1-.55,3.69l6.2,4.95-.52.73-6-4.8A7.66,7.66,0,0,1,745.09,45.46Zm17.34,6.41v.85H746.59V47.25h.92v4.62ZM761,39.19V34.37h.92v14H761V40h-4.56v-.84Z"/><path class="cls-1" d="M772.83,37.83h5.63v.86H766.3v-.86h5.61v-3.5h.92Zm4.58,8.58c0,3.48-2.27,5.65-5,5.65s-5-2.17-5-5.65,2.27-5.65,5-5.65S777.41,42.93,777.41,46.41Zm-.95,0c0-2.95-1.89-4.8-4.09-4.8s-4.09,1.85-4.09,4.8,1.89,4.8,4.09,4.8S776.46,49.36,776.46,46.41Zm8.87-2.95h-3v9.7h-.92V34.37h.92V42.6h3Z"/><path class="cls-1" d="M805.57,51.21v.85H787v-.85h7.72V41.94h.93v9.27Zm-2.36-15.12H788.3v-.86h15.84V47.64h-.93Z"/><path class="cls-1" d="M814.59,43.15l6.58,7.92-.73.55-6.07-7.41c-1.08,4.33-3.11,7-5.9,7.63V51c3.81-.9,5.79-7.08,5.85-14.85h-5.48v-.86h11.8v.86h-5.39A36.64,36.64,0,0,1,814.59,43.15Zm13.07.31h-3v9.7h-.93V34.37h.93V42.6h3Z"/><path class="cls-1" d="M845.19,37.48h-9.92v-.86h4.57V34.11h.93v2.51h4.42Zm-9.11,4.77c0-2.16,1.85-3.45,4.25-3.45s4.24,1.29,4.24,3.45-1.84,3.46-4.24,3.46S836.08,44.41,836.08,42.25ZM854,52.75l-4.4-3a6.7,6.7,0,0,1-4.49,3l-3.72-2.79a6.94,6.94,0,0,1-4.44,2.79v-.85a6.32,6.32,0,0,0,4.84-5.28l.9.08a6.7,6.7,0,0,1-.84,2.53l3.5,2.62a6.23,6.23,0,0,0,4.49-5.23l.9.08A6.47,6.47,0,0,1,850,49l4.49,3Zm-17-10.5c0,1.45,1.24,2.62,3.33,2.62s3.32-1.17,3.32-2.62-1.23-2.62-3.32-2.62S837,40.8,837,42.25ZM848,46H847V34.51H848v4.81h4.18v-5h.93V46.19h-.93v-6H848Z"/><path class="cls-1" d="M875.22,43.11V44H856.65v-.86ZM857.46,41v-.88c3.66-.11,8.12-2.53,9-6.16l.9.15a6.46,6.46,0,0,1-1.06,2.45l8.12,3.71-.37.75-8.32-3.76A11.9,11.9,0,0,1,857.46,41Zm15.36,4.75h.93v7h-15.6v-7h.92v2.49h13.75Zm0,6.1V49.12H859.07v2.77Z"/><path class="cls-1" d="M880,51h6.69a12.45,12.45,0,0,0,4.86-.92v.88a12,12,0,0,1-4.86.92h-7.62V35.14H880Zm14.83,2.2-1,0V34.37h1Z"/><path class="cls-1" d="M907.47,51a12.39,12.39,0,0,0,4.86-1v.9a12.32,12.32,0,0,1-4.86.9h-7.39V35.25h10.78v.86H901V51Zm11-7.53h-3v9.7h-.92V34.37h.92V42.6h3Z"/><path class="cls-1" d="M922.23,51.91a1,1,0,1,1-1-1A1,1,0,0,1,922.23,51.91Z"/></g></g></svg>