<svg xmlns="http://www.w3.org/2000/svg" viewBox="0 0 719.74 454.16"><defs><style>.cls-1{fill:#fff;}.cls-2{fill:#0d1320;}</style></defs><g id="레이어_2" data-name="레이어 2"><g id="레이어_1-2" data-name="레이어 1"><path class="cls-1" d="M13.26,9.75H2.68V.81H3.6V4.2h8.74V.81h.92Zm-10,2.51h15v6.46h-15Zm9.05-3.35V5H3.6V8.91Zm-8.12,9H17.38V13.11H4.22ZM21.29,5.79h-3v5.15H17.4V.37h.92V4.93h3Z"/><path class="cls-1" d="M36.12,3.83h5.63v.86H29.58V3.83H35.2V.33h.92Zm4.58,8.58c0,3.48-2.27,5.65-5,5.65s-5-2.17-5-5.65,2.26-5.66,5-5.66S40.7,8.93,40.7,12.41Zm-1,0c0-2.95-1.89-4.8-4.09-4.8s-4.1,1.85-4.1,4.8,1.9,4.8,4.1,4.8S39.75,15.36,39.75,12.41Zm8.87-2.95h-3v9.7h-.93V.37h.93V8.6h3Z"/><path class="cls-1" d="M68.86,9.46H50.29V8.6H68.86ZM67.43,15.6H52.64v2.31h15.2v.84H51.74v-4H66.52v-2.2H51.69v-.84H67.43ZM52.75,5.48H67.6v.86H51.83V.48h.92Z"/><path class="cls-1" d="M83.71.51h.92V18.83h-.92V9.62H80.27c0,5.74-1.45,8.49-4.18,8.49s-4.18-2.77-4.18-8.56S73.36,1,76.09,1s4,2.51,4.18,7.77h3.44Zm-4.36,9c0-5.22-1.1-7.7-3.26-7.7s-3.25,2.48-3.25,7.7,1.1,7.7,3.25,7.7S79.35,14.76,79.35,9.55ZM89,.37V19.16h-.92V.37Z"/><path class="cls-1" d="M102.1,17a9.55,9.55,0,0,0,3.32-.53v.9a10.88,10.88,0,0,1-3.32.48H99.74V1.25h5.57v.86h-4.67V17Zm7,0a8.13,8.13,0,0,0,3.63-.73v.95a9.44,9.44,0,0,1-3.63.63h-2.73V1.25h5.86v.86h-5V17Zm7-16.62V19.16h-.9V9.46h-4.69V8.6h4.69V.37Z"/><path class="cls-1" d="M138.51,17.21v.85H119.94v-.85h8.8V12.06C124,11.93,121,9.79,121,6.51S124.23,1,129.22,1s8.21,2.15,8.21,5.54-3,5.42-7.77,5.55v5.15Zm-9.29-6c4.4,0,7.26-1.87,7.26-4.69s-2.86-4.68-7.26-4.68S122,3.7,122,6.51,124.82,11.2,129.22,11.2Z"/><path class="cls-1" d="M159.67,18.06H141.1v-.85h18.57Zm-1.36-10.6H143.48V12h15.16v.86H142.55V6.6h14.83V2.11H142.55V1.25h15.76Z"/><path class="cls-1" d="M180.84,11.11H162.26v-.86h18.58Zm-16.15,6.78H179.8v.86h-16V13.33h.93Zm0-11.33h14.81v.86H163.81V.48h.92Z"/><path class="cls-1" d="M196.08,8.65h-5.61V1h11.4v.86H191.39v5.9h4.82a19.17,19.17,0,0,0,7.2-1v.88C202.11,8.27,199.47,8.65,196.08,8.65Zm-4,9.22h14.7v.85H191.11V14.43h14.06V11.84H191.06V11h15.05v4.29h-14Zm17-13.47v.86h-3v4.4h-.92V.37h.92v4Z"/><path class="cls-1" d="M229.32,9.59H210.75V8.76h18.57Zm-1.25-5.81c0,2.4-3.81,3.28-8,3.28s-8-.88-8-3.28,3.8-3.27,8-3.27S228.07,1.39,228.07,3.78Zm-.18,11.89H213.13v2.24h15.18v.84H212.2v-3.9H227V12.67H212.16v-.83h15.73ZM213,3.78c0,1.79,3.43,2.45,7.09,2.45s7.08-.66,7.08-2.45S223.69,1.34,220,1.34,213,2,213,3.78Z"/><path class="cls-1" d="M238.16,10.19V9.31c4.05-.88,6.27-4.54,6.27-8.67l.93,0a10.93,10.93,0,0,1-.75,4.14L251,9l-.51.73-6.27-4.14A8.51,8.51,0,0,1,238.16,10.19ZM255,15.34c0,2.57-3.39,3.65-7.7,3.65s-7.7-1.08-7.7-3.65,3.39-3.66,7.7-3.66S255,12.76,255,15.34Zm-.94,0c0-1.9-3-2.8-6.76-2.8s-6.75.9-6.75,2.8,3,2.79,6.75,2.79S254,17.23,254,15.34Zm3.56-10.81v.86h-3V10.8h-.92V.37h.92V4.53Z"/><path class="cls-1" d="M259.75,10V9.09c3.6-.66,5.89-3.11,6.07-7.15H260V1.08h12.19v.86h-5.4a10.66,10.66,0,0,1-.55,2.94l6.52,4.21-.53.72-6.36-4.09A8,8,0,0,1,259.75,10Zm16.89,5.37c0,2.57-3.45,3.65-7.81,3.65S261,17.91,261,15.34s3.46-3.66,7.81-3.66S276.64,12.76,276.64,15.34Zm-.94,0c0-1.9-3-2.8-6.87-2.8s-6.86.9-6.86,2.8,3,2.79,6.86,2.79S275.7,17.23,275.7,15.34Zm.59-4.54h-.92V.37h.92Z"/><path class="cls-1" d="M293.14,2.9H280.45V2.07h5.87V0h.93v2h5.89ZM281.46,7.08c0-1.87,2.29-2.9,5.32-2.9s5.33,1,5.33,2.9S289.82,10,286.78,10,281.46,9,281.46,7.08Zm1.39,10.81h14.74v.83H281.92v-4H296V12.37H281.88v-.84h15.05v4H282.85Zm-.47-10.81c0,1.24,1.68,2.1,4.4,2.1s4.41-.86,4.41-2.1S289.51,5,286.78,5,282.38,5.85,282.38,7.08ZM299.9,4.84v.84h-3v4.57H296V.37h.93V4.84Z"/><path class="cls-1" d="M326.3,13.49h-8.85V19.6h-.92V13.49h-8.8v-.86H326.3Zm-18.13-3.32V9.29c4.35,0,8.42-4.14,9.41-8.94l1,.2a13.24,13.24,0,0,1-1.41,3.7l8.37,5.12-.44.75L316.68,5C314.68,8.05,311.45,10.14,308.17,10.17Z"/><path class="cls-1" d="M341.23,10.21c-3.56,0-5.69-2-5.69-4.75S337.67.7,341.23.7s5.7,2,5.7,4.76S344.8,10.21,341.23,10.21Zm0-.81C344,9.4,346,8,346,5.46s-2-3.94-4.78-3.94S336.46,3,336.46,5.46,338.44,9.4,341.23,9.4Zm11.89,9.32-4-3.49a6,6,0,0,1-4.38,3.49l-3.56-3.36a6,6,0,0,1-4.34,3.36v-.85c2.33-.36,4.36-3.19,4.53-6.45l.91.07a10,10,0,0,1-.71,3.08L345,17.82c2.18-.53,4-3.25,4.14-6.4l.9.09a10.31,10.31,0,0,1-.62,2.9l4.29,3.68Zm-1-7.85h-.92V.37h.92Z"/><path class="cls-1" d="M374.79,11.11H356.21v-.86h18.58Zm-16.15,6.78h15.11v.86h-16V13.33h.93Zm0-11.33h14.81v.86H357.76V.48h.92Z"/><path class="cls-1" d="M390,9.22h-5.61V.92h.92V8.34h4.82a19.38,19.38,0,0,0,7.2-1v.9C396.06,8.85,393.42,9.22,390,9.22ZM385,12h15v6.77H385Zm.93,5.92h13.18V12.81H386ZM403,5.35h-3v5.06h-.92V.37h.92V4.49h3Z"/><path class="cls-1" d="M404.75,11.22v-.88c3.78-1.19,4.59-5.26,4.59-9.7l.93,0a22.17,22.17,0,0,1-.42,4.69l4.69,5-.66.61-4.31-4.62A6.78,6.78,0,0,1,404.75,11.22Zm1.58,2.09h15.95V19h-.92V14.17h-15ZM422.28.37V12h-.92V6h-4.45v5.81H416V.51h.92V5.13h4.45V.37Z"/><path class="cls-1" d="M432.34,17c3.14,0,5.72-.22,7.19-.86V17a22,22,0,0,1-7.13.83h-6.53V17h4V8.05h.93V17Zm3.85-14.88h-9.53V1.25h10.45V13.38h-.92Zm9.17,7.18h-2.93v9.87h-.92V.37h.92V8.43h2.93Z"/><path class="cls-1" d="M460.19,3.83h5.63v.86H453.65V3.83h5.61V.33h.93Zm4.57,8.58c0,3.48-2.26,5.65-5,5.65s-5-2.17-5-5.65,2.26-5.66,5-5.66S464.76,8.93,464.76,12.41Zm-.94,0c0-2.95-1.9-4.8-4.1-4.8s-4.09,1.85-4.09,4.8,1.89,4.8,4.09,4.8S463.82,15.36,463.82,12.41Zm8.86-2.95h-3v9.7h-.92V.37h.92V8.6h3Z"/><path class="cls-1" d="M480.23,11.35c-3.63,0-5.68-2.37-5.68-5.32S476.6.7,480.23.7s5.68,2.38,5.68,5.33S483.86,11.35,480.23,11.35Zm0-.81c2.86,0,4.73-1.8,4.73-4.51s-1.87-4.51-4.73-4.51S475.5,3.32,475.5,6,477.37,10.54,480.23,10.54ZM477,17.87h14.59v.85H476.07V12.94H477ZM490.88,4.09V8.25h3v.86h-3v5.26H490V.37h.93V3.23h3v.86Z"/><path class="cls-1" d="M495.56,11.22v-.88c3.79-1.19,4.6-5.26,4.6-9.7l.92,0a22.88,22.88,0,0,1-.41,4.69l4.68,5-.66.61-4.31-4.62A6.78,6.78,0,0,1,495.56,11.22Zm1.59,2.09h16V19h-.93V14.17h-15ZM513.1.37V12h-.93V6h-4.44v5.81h-.92V.51h.92V5.13h4.44V.37Z"/><path class="cls-1" d="M535.25,9.59H516.68V8.76h18.57ZM534,3.78c0,2.4-3.81,3.28-8,3.28s-8-.88-8-3.28,3.8-3.27,8-3.27S534,1.39,534,3.78Zm-.18,11.89H519.06v2.24h15.18v.84H518.13v-3.9H532.9V12.67H518.09v-.83h15.73ZM518.88,3.78c0,1.79,3.43,2.45,7.09,2.45s7.08-.66,7.08-2.45S529.62,1.34,526,1.34,518.88,2,518.88,3.78Z"/><path class="cls-1" d="M550.8,9l6.32,8.27-.73.55-5.85-7.74c-1.14,4.48-3.23,7.37-6.23,7.78V17c4.36-.82,6.27-8.14,6.32-16.07l.92,0A40.93,40.93,0,0,1,550.8,9Zm12.7.48h-3v9.7h-.92V.37h.92V8.6h3Z"/><path class="cls-1" d="M583.74,9.68v.86H565.17V9.68h4.64V6.78c-2-.51-3.41-1.46-3.41-2.93,0-2.44,3.83-3.43,8.05-3.43s8.06,1,8.06,3.43c0,1.47-1.39,2.42-3.41,2.93v2.9Zm-1.3,6.16c0,2.47-4,3.21-8,3.21s-8-.74-8-3.21,4-3.17,8-3.17S582.44,13.38,582.44,15.84Zm-8-9.42c3.66,0,7.11-.77,7.11-2.57s-3.45-2.57-7.11-2.57-7.1.77-7.1,2.57S570.8,6.42,574.45,6.42Zm7,9.42c0-1.8-3.75-2.31-7-2.31s-7,.51-7,2.31,3.74,2.36,7,2.36S581.5,17.65,581.5,15.84ZM570.74,9.68h7.43V7a20.61,20.61,0,0,1-3.72.3,20.5,20.5,0,0,1-3.71-.3Z"/><path class="cls-1" d="M593.33,3.83H599v.86H586.79V3.83h5.62V.33h.92Zm4.58,8.58c0,3.48-2.27,5.65-5,5.65s-5-2.17-5-5.65,2.26-5.66,5-5.66S597.91,8.93,597.91,12.41Zm-.95,0c0-2.95-1.89-4.8-4.09-4.8s-4.1,1.85-4.1,4.8,1.9,4.8,4.1,4.8S597,15.36,597,12.41Zm8.87-2.95h-3v9.7h-.93V.37h.93V8.6h3Z"/><path class="cls-1" d="M613.46,10.17c-3.52,0-5.57-2.05-5.57-4.71S609.94.75,613.46.75s5.57,2,5.57,4.71S617,10.17,613.46,10.17Zm0-.86c2.75,0,4.64-1.46,4.64-3.85s-1.89-3.85-4.64-3.85-4.64,1.45-4.64,3.85S610.71,9.31,613.46,9.31Zm12.3,9.41-4.14-3.52a5.91,5.91,0,0,1-4.35,3.52l-3.55-3.36a6.11,6.11,0,0,1-4.38,3.36v-.85c2.36-.36,4.41-3.19,4.58-6.45l.9.07a9.59,9.59,0,0,1-.7,3l3.45,3.28c2.16-.53,3.92-3.25,4.1-6.4l.9.09a10.17,10.17,0,0,1-.6,2.88l4.41,3.7Zm-2-11.5V3.41h-4.09l-.07-.86h4.16V.37h.92v10.5h-.92V8.08h-4.16l.07-.86Z"/><path class="cls-1" d="M647.23,9.11V10H628.66V9.11ZM629.47,7V6.16c3.66-.11,8.12-2.53,9-6.16l.9.15a6.6,6.6,0,0,1-1.05,2.45l8.12,3.71-.38.75L637.7,3.3A11.9,11.9,0,0,1,629.47,7Zm15.36,4.75h.93v7h-15.6v-7h.92v2.49h13.75Zm0,6.1V15.12H631.08v2.77Z"/><path class="cls-1" d="M652.05,17h6.69A12.45,12.45,0,0,0,663.6,16v.88a12,12,0,0,1-4.86.92h-7.62V1.14h.93Zm14.83,2.2-1,0V.37h1Z"/><path class="cls-1" d="M679.48,17a12.39,12.39,0,0,0,4.86-.95v.9a12.32,12.32,0,0,1-4.86.9h-7.39V1.25h10.78v.86H673V17Zm11-7.53h-3v9.7h-.92V.37h.92V8.6h3Z"/><path class="cls-1" d="M694.24,17.91a1,1,0,1,1-1-1A1,1,0,0,1,694.24,17.91Z"/><path class="cls-1" d="M20.37,51.21v.85H1.8v-.85h8.82V46.56h.93v4.65Zm-10.1-5.75H3.07V35.25h7.26v.86H4v8.5h6.27Zm8.82,0H11.68V35.25H19v.86H12.6v8.5h6.49Z"/><path class="cls-1" d="M35.7,37.43H23v-.86h5.87V34h.93v2.53H35.7ZM24,42.76c0-2.38,2.27-3.83,5.39-3.83s5.39,1.45,5.39,3.83-2.26,3.83-5.39,3.83S24,45.13,24,42.76Zm1.43,9.11H40.19v.85H24.46V48.1h.92Zm-.5-9.11c0,1.76,1.71,3,4.46,3s4.47-1.23,4.47-3-1.72-3-4.47-3S24.88,41,24.88,42.76Zm17.58-2.6V41h-3v7.5h-.93V34.37h.93v5.79Z"/><path class="cls-1" d="M45,55.23h-.82L44.83,51h1Z"/><path class="cls-1" d="M61.07,43l6.66,8-.72.55L60.85,44.1c-1.08,4.4-3.11,7.13-5.92,7.74V51c3.8-.9,5.78-7.08,5.85-14.85H55.3v-.86H67.16v.86H61.7A38.29,38.29,0,0,1,61.07,43Zm10.78-8.67V53.16h-.93V42.82H65.6V42h5.32V34.37Z"/><path class="cls-1" d="M82.65,51.84H75.78V51h7c3.26,0,5.83-.36,7.2-1v.88C88.68,51.47,86,51.84,82.65,51.84Zm5.19-11.09a5.66,5.66,0,1,1-11.31,0,5.66,5.66,0,1,1,11.31,0Zm-10.36,0a4.71,4.71,0,1,0,9.42,0,4.71,4.71,0,1,0-9.42,0ZM92.9,53.16H92V34.37h.92Z"/><path class="cls-1" d="M114.57,43H104V34.81h.92v3h8.74v-3h.92Zm-9.22,8.85h7.39v.83h-8.31V48.63h6.47V46.21h-6.52v-.83h7.42v4.07h-6.45Zm8.3-9.68V38.69h-8.74v3.52Zm-.55,3.17h6.53v7.34h-.95V46.21H113.1Zm9.5-6.12h-3v4.8h-.92V34.37h.92v4h3Z"/><path class="cls-1" d="M142.84,51.21v.85H124.27v-.85H132V41.94h.93v9.27Zm-2.35-15.12H125.57v-.86h15.84V47.64h-.92Z"/><path class="cls-1" d="M170.17,43.46H151.59V42.6h18.58Zm-1.3,6c0,2.66-4,3.54-8,3.54s-8-.88-8-3.54,4-3.54,8-3.54S168.87,46.81,168.87,49.47Zm-.22-8.34h-.93V35.65H153v-.86h15.65Zm-14.83,8.34c0,2,3.83,2.68,7.06,2.68s7.06-.68,7.06-2.68-3.82-2.69-7.06-2.69S153.82,47.47,153.82,49.47Z"/><path class="cls-1" d="M173.18,44.19v-.88c3.61-.66,5.83-3.22,6-7.37H173.4v-.86h12v.86h-5.3a10.89,10.89,0,0,1-.55,3.05L186,43.31l-.53.72-6.24-4.18A7.75,7.75,0,0,1,173.18,44.19Zm17,5.23c0,2.51-3.39,3.57-7.74,3.57s-7.75-1.06-7.75-3.57,3.39-3.56,7.75-3.56S190.14,46.92,190.14,49.42Zm-.95,0c0-1.82-3-2.7-6.79-2.7s-6.8.88-6.8,2.7,3,2.71,6.8,2.71S189.19,51.25,189.19,49.42Zm-.13-11V34.37H190V45h-.93v-5.7h-4.55v-.84Z"/><path class="cls-1" d="M194.34,45.07v-.88c3.65-.66,5.87-3.54,6-8.25h-5.79v-.86h12v.86h-5.3a13.51,13.51,0,0,1-.57,3.6L207,44.19l-.53.72-6.09-4.51A7.71,7.71,0,0,1,194.34,45.07Zm1.25,2.11h15.54V53h-.93V48H195.59Zm15.54-12.81V45.86h-.93V39.92h-4.53v-.84h4.53V34.37Z"/><path class="cls-1" d="M227,40c0,2.95-2.09,5.32-5.76,5.32S215.48,43,215.48,40s2.09-5.33,5.77-5.33S227,37.08,227,40Zm-10.58,0c0,2.71,1.91,4.51,4.82,4.51s4.82-1.8,4.82-4.51-1.92-4.51-4.82-4.51S216.43,37.32,216.43,40ZM218,51.87h14.8v.85H217.11V46.94H218Zm14.1-3.5h-.93v-14h.93Z"/><path class="cls-1" d="M261,51.21v.85H242.41v-.85h8.8V45.46h-7.37V35.25h15.71V45.46h-7.42v5.75Zm-16.22-6.6h13.87v-8.5H244.76Z"/><path class="cls-1" d="M282.14,43.11V44H263.57v-.86ZM264.39,41v-.88c3.65-.11,8.12-2.53,8.95-6.16l.91.15a6.62,6.62,0,0,1-1.06,2.45l8.12,3.71-.38.75-8.31-3.76A11.92,11.92,0,0,1,264.39,41Zm15.36,4.75h.92v7h-15.6v-7H266v2.49h13.76Zm0,6.1V49.12H266v2.77Z"/><path class="cls-1" d="M291.21,51c3.14,0,5.72-.22,7.19-.86V51a22,22,0,0,1-7.13.83h-6.53V51h4V42.05h.93V51Zm3.85-14.88h-9.53v-.86H296V47.38h-.92Zm9.17,7.18h-2.92v9.87h-.93V34.37h.93v8.06h2.92Z"/><path class="cls-1" d="M318.64,43.64l6.49,7.57-.64.61-6.11-7.13c-1.13,4-3.19,6.56-6,7.15V51c3.56-.83,5.65-6,5.94-12.27h-5.68v-.86h5.7V34.35h.93v3.48h5.41v.86h-5.44A28.71,28.71,0,0,1,318.64,43.64Zm12.92-.18h-3v9.7h-.92V34.37h.92V42.6h3Z"/><path class="cls-1" d="M351.8,44.8v.86H343v3.5h-.92v-3.5h-8.83V44.8Zm-16.15,7.09h15.11v.86h-16V47.88h.93Zm14.63-9.6H334.77v-7.7h.92v2.95h13.66V34.59h.93Zm-.93-.83v-3.1H335.69v3.1Z"/><path class="cls-1" d="M367.13,37.43h-12.7v-.86h5.88V34h.92v2.53h5.9Zm-11.75,5.33c0-2.38,2.27-3.83,5.39-3.83s5.39,1.45,5.39,3.83-2.27,3.83-5.39,3.83S355.38,45.13,355.38,42.76Zm1.43,9.11h14.81v.85H355.88V48.1h.93Zm-.51-9.11c0,1.76,1.72,3,4.47,3s4.47-1.23,4.47-3-1.72-3-4.47-3S356.3,41,356.3,42.76Zm17.58-2.6V41h-3v7.5H370V34.37h.92v5.79Z"/><path class="cls-1" d="M400.28,51.21v.85H381.71v-.85h8.8V45.46h-7.37V35.25h15.71V45.46h-7.41v5.75Zm-16.21-6.6h13.86v-8.5H384.07Z"/><path class="cls-1" d="M421.45,43.11V44H402.88v-.86ZM403.69,41v-.88c3.65-.11,8.12-2.53,9-6.16l.9.15a6.62,6.62,0,0,1-1.06,2.45l8.12,3.71-.37.75-8.32-3.76A11.9,11.9,0,0,1,403.69,41Zm15.36,4.75H420v7h-15.6v-7h.93v2.49h13.75Zm0,6.1V49.12H405.3v2.77Z"/><path class="cls-1" d="M442.61,43.59H424v-.83h18.57Zm-1.25-5.81c0,2.4-3.81,3.28-8,3.28s-8-.88-8-3.28,3.81-3.27,8-3.27S441.36,35.39,441.36,37.78Zm-.18,11.89H426.42v2.24H441.6v.84H425.49v-3.9h14.77V46.67H425.45v-.83h15.73ZM426.24,37.78c0,1.79,3.43,2.45,7.09,2.45s7.08-.66,7.08-2.45-3.43-2.44-7.08-2.44S426.24,36,426.24,37.78Z"/><path class="cls-1" d="M469.93,43.53v.86H451.36v-.86h8.83V40.84H452.9V34.79h15.56v.86H453.83V40h14.85v.86h-7.57v2.69Zm-1.29,6.31c0,2.47-4,3.21-8,3.21s-8-.74-8-3.21,4-3.21,8-3.21S468.64,47.38,468.64,49.84Zm-.93,0c0-1.8-3.76-2.35-7.06-2.35s-7.06.55-7.06,2.35,3.76,2.36,7.06,2.36S467.71,51.65,467.71,49.84Z"/><path class="cls-1" d="M479.59,42.89l6.49,8.36-.72.55-6-7.83c-1.17,4.55-3.32,7.46-6.34,7.87V51c4.36-.82,6.38-8.14,6.43-16.07l.92,0A38.66,38.66,0,0,1,479.59,42.89Zm10-8.52V53.16h-.92V34.37Z"/><path class="cls-1" d="M506,34.51h.92V52.83H506V43.62h-3.44c0,5.74-1.45,8.49-4.18,8.49s-4.18-2.77-4.18-8.56S495.61,35,498.33,35s4.05,2.51,4.18,7.77H506Zm-4.36,9c0-5.22-1.1-7.7-3.26-7.7s-3.25,2.48-3.25,7.7,1.1,7.7,3.25,7.7S501.59,48.76,501.59,43.55Zm9.68-9.18V53.16h-.92V34.37Z"/><path class="cls-1" d="M539.59,51.21v.85H521v-.85h5.22V45.73h-4.14v-.86h3.72V36.33h-3.52v-.86h16v.86h-3.52v8.54h3.72v.86h-4.12v5.48Zm-12.85-6.34h7.13V36.33h-7.13Zm.41,6.34h6.32V45.73h-6.32Z"/><path class="cls-1" d="M554.39,37.54H542.33v-.86h5.81V34h.93v2.64h5.32Zm-11.07,5.24c0-2.42,2.25-3.83,5.28-3.83s5.28,1.41,5.28,3.83-2.24,3.83-5.28,3.83S543.32,45.2,543.32,42.78ZM560,51.87v.85H544.07v-5H545v4.14Zm-15.77-9.09c0,1.72,1.63,3,4.35,3s4.36-1.27,4.36-3-1.63-3-4.36-3S544.25,41.06,544.25,42.78Zm14.23,1.56h-3.65v-.83h3.65V40.18h-3.65v-.83h3.65v-5h.93V48.48h-.93Z"/><path class="cls-1" d="M570.34,37.83H576v.86H563.81v-.86h5.61v-3.5h.92Zm4.58,8.58c0,3.48-2.27,5.65-5,5.65s-5-2.17-5-5.65,2.27-5.66,5-5.66S574.92,42.93,574.92,46.41Zm-.95,0c0-2.95-1.89-4.8-4.09-4.8s-4.09,1.85-4.09,4.8,1.89,4.8,4.09,4.8S574,49.36,574,46.41Zm8.87-2.95h-3v9.7h-.93V34.37h.93V42.6h3Z"/><path class="cls-1" d="M603.08,51.21v.85H584.51v-.85h7.72V41.94h.92v9.27Zm-2.36-15.12H585.8v-.86h15.85V47.64h-.93Z"/><path class="cls-1" d="M612.09,43.15l6.58,7.92-.72.55-6.07-7.41c-1.08,4.33-3.11,7-5.9,7.63V51c3.81-.9,5.78-7.08,5.85-14.85h-5.48v-.86h11.8v.86h-5.4A36.64,36.64,0,0,1,612.09,43.15Zm13.08.31h-3v9.7h-.92V34.37h.92V42.6h3Z"/><path class="cls-1" d="M642.7,37.48h-9.93v-.86h4.58V34.11h.93v2.51h4.42Zm-9.11,4.77c0-2.16,1.85-3.45,4.24-3.45s4.25,1.29,4.25,3.45-1.85,3.46-4.25,3.46S633.59,44.41,633.59,42.25Zm17.89,10.5-4.4-3a6.7,6.7,0,0,1-4.49,3l-3.72-2.79a6.94,6.94,0,0,1-4.45,2.79v-.85a6.33,6.33,0,0,0,4.85-5.28l.9.08a6.7,6.7,0,0,1-.84,2.53l3.5,2.62a6.23,6.23,0,0,0,4.49-5.23l.9.08a6.47,6.47,0,0,1-.7,2.31L652,52Zm-17-10.5c0,1.45,1.24,2.62,3.32,2.62s3.33-1.17,3.33-2.62-1.23-2.62-3.33-2.62S634.51,40.8,634.51,42.25Zm11,3.7h-.92V34.51h.92v4.81h4.18v-5h.93V46.19h-.93v-6h-4.18Z"/><path class="cls-1" d="M672.73,43.11V44H654.16v-.86ZM655,41v-.88c3.65-.11,8.12-2.53,9-6.16l.9.15a6.62,6.62,0,0,1-1.06,2.45l8.12,3.71-.37.75L663.2,37.3A11.9,11.9,0,0,1,655,41Zm15.36,4.75h.92v7h-15.6v-7h.93v2.49h13.75Zm0,6.1V49.12H656.58v2.77Z"/><path class="cls-1" d="M677.54,51h6.69A12.47,12.47,0,0,0,689.1,50v.88a12,12,0,0,1-4.87.92h-7.61V35.14h.92Zm14.83,2.2-.94,0V34.37h.94Z"/><path class="cls-1" d="M705,51a12.39,12.39,0,0,0,4.86-1v.9a12.36,12.36,0,0,1-4.86.9h-7.39V35.25h10.78v.86h-9.86V51Zm11-7.53h-3v9.7h-.92V34.37H713V42.6h3Z"/><path class="cls-1" d="M719.74,51.91a1,1,0,1,1-1-1A1,1,0,0,1,719.74,51.91Z"/><circle class="cls-2" cx="130.67" cy="323.49" r="130.17"/><path class="cls-1" d="M130.67,454.16C58.62,454.16,0,395.54,0,323.49S58.62,192.82,130.67,192.82s130.67,58.62,130.67,130.67S202.72,454.16,130.67,454.16Zm0-260.34A129.67,129.67,0,1,0,260.34,323.49,129.82,129.82,0,0,0,130.67,193.82Z"/><path class="cls-1" d="M80.62,326.15h4.61v2.56H80l-.89,3.84-.23,1H76.27l.35-1.57.77-3.26H72.33l-.89,3.84-.23,1H68.59l.35-1.57.77-3.26h-2.4v-2.56h3l1.66-7H67.31v-2.56h5.22l.89-3.78.23-1h2.62l-.35,1.57-.74,3.2h5l.89-3.78.23-1H84l-.35,1.57-.74,3.2h2.37v2.56h-3Zm-6.05-7-1.63,7h5l1.67-7Z"/><path class="cls-1" d="M89.45,314c1.3-1.88,2.81-2.82,4.51-2.82a5.43,5.43,0,0,1,4.13,2.37,14.08,14.08,0,0,1,2.56,8.83,14.64,14.64,0,0,1-2.27,8.45c-1.28,1.86-2.75,2.78-4.42,2.78a5.5,5.5,0,0,1-4.19-2.36q-2.62-3.3-2.62-8.87A14.32,14.32,0,0,1,89.45,314Zm1.19,13.82c.83,2.16,1.94,3.23,3.32,3.23a3.1,3.1,0,0,0,2.6-1.85,13.43,13.43,0,0,0,1.53-6.82,15.42,15.42,0,0,0-.92-5.47c-.82-2.11-1.88-3.17-3.21-3.17a3.31,3.31,0,0,0-2.68,1.86,13,13,0,0,0-1.57,6.78A15.11,15.11,0,0,0,90.64,327.78Z"/><path class="cls-1" d="M105.13,333.54V311.78h8.45a8.53,8.53,0,0,1,6,3.3,10.13,10.13,0,0,1,2.24,7.58,10.47,10.47,0,0,1-2.14,7.49,8.42,8.42,0,0,1-6,3.39h-8.45Zm8.26-2.56a5.81,5.81,0,0,0,4.06-2.27,8.14,8.14,0,0,0,1.76-6v-.1a8.4,8.4,0,0,0-1.28-5.31,5.83,5.83,0,0,0-4.54-2.91h-5.7V331Z"/><path class="cls-1" d="M126.48,323.62h-2.75l.7-1.76,4-9.89.32-.8h2.14v22.4H128.3V319.08l-1.5,3.74Z"/><path class="cls-1" d="M135.5,313.7v-2.56h11.91l-1.16,1.95L142.7,319a4.08,4.08,0,0,1,2.63,1.6,8.11,8.11,0,0,1,2.17,5.57,7.45,7.45,0,0,1-1.82,5,6.65,6.65,0,0,1-5.22,2.43,7.2,7.2,0,0,1-3.87-1.05,5.58,5.58,0,0,1-2.69-3.91l-.25-1.5h2.59l.16,1.06a3,3,0,0,0,.54,1.24,4.09,4.09,0,0,0,3.52,1.6,4.2,4.2,0,0,0,2.72-1,4.77,4.77,0,0,0,1.76-3.84,4.63,4.63,0,0,0-.86-2.72,4.22,4.22,0,0,0-3.62-1.89h-2.24l1.15-1.95,3.56-5.92H135.5Z"/><path class="cls-1" d="M152.62,318.66h-2.56v-1.28a5.83,5.83,0,0,1,1.51-3.94,6.64,6.64,0,0,1,5.24-2.3,6.92,6.92,0,0,1,4.48,1.54,5.86,5.86,0,0,1,2.28,4.7,7.74,7.74,0,0,1-2,5,27.54,27.54,0,0,1-4.86,4.19c-.77.56-1.33,1-1.67,1.25-1.62,1.26-2.43,2.34-2.43,3.23h10.95v2.56H150.06v-1.28a7.39,7.39,0,0,1,1.67-4.45,29.88,29.88,0,0,1,4.38-4.09c1-.79,1.66-1.38,2.11-1.76,1.86-1.69,2.79-3.22,2.79-4.61a3.31,3.31,0,0,0-.77-2.11,4.14,4.14,0,0,0-3.43-1.57,4.74,4.74,0,0,0-2.4.64,3.4,3.4,0,0,0-1.79,3Z"/><path class="cls-1" d="M168.43,314q1.95-2.82,4.51-2.82a5.45,5.45,0,0,1,4.13,2.37,14.08,14.08,0,0,1,2.56,8.83,14.71,14.71,0,0,1-2.27,8.45c-1.28,1.86-2.75,2.78-4.42,2.78a5.5,5.5,0,0,1-4.19-2.36q-2.62-3.3-2.62-8.87A14.25,14.25,0,0,1,168.43,314Zm1.18,13.82c.84,2.16,1.94,3.23,3.33,3.23a3.09,3.09,0,0,0,2.59-1.85,13.32,13.32,0,0,0,1.54-6.82,15.2,15.2,0,0,0-.93-5.47q-1.21-3.17-3.2-3.17a3.34,3.34,0,0,0-2.69,1.86,13.14,13.14,0,0,0-1.56,6.78A15.33,15.33,0,0,0,169.61,327.78Z"/><circle class="cls-1" cx="494.33" cy="323.49" r="130.17"/><path class="cls-2" d="M494.33,454.16c-72.05,0-130.67-58.62-130.67-130.67s58.62-130.67,130.67-130.67S625,251.44,625,323.49,566.38,454.16,494.33,454.16Zm0-260.34A129.67,129.67,0,1,0,624,323.49,129.82,129.82,0,0,0,494.33,193.82Z"/><path class="cls-2" d="M444.28,326.15h4.61v2.56h-5.22l-.89,3.84-.23,1h-2.62l.35-1.57.77-3.26H436l-.89,3.84-.23,1h-2.62l.35-1.57.77-3.26H431v-2.56h3l1.66-7H431v-2.56h5.22l.89-3.78.23-1h2.62l-.35,1.57-.74,3.2h5l.89-3.78.23-1h2.62l-.35,1.57-.74,3.2h2.37v2.56h-3Zm-6-7-1.63,7h5l1.66-7Z"/><path class="cls-2" d="M453.11,314c1.31-1.88,2.81-2.82,4.52-2.82a5.41,5.41,0,0,1,4.12,2.37,14.08,14.08,0,0,1,2.56,8.83,14.64,14.64,0,0,1-2.27,8.45c-1.28,1.86-2.75,2.78-4.41,2.78a5.51,5.51,0,0,1-4.2-2.36q-2.62-3.3-2.62-8.87A14.32,14.32,0,0,1,453.11,314Zm1.19,13.82c.83,2.16,1.94,3.23,3.33,3.23a3.1,3.1,0,0,0,2.59-1.85,13.43,13.43,0,0,0,1.53-6.82,15.2,15.2,0,0,0-.92-5.47q-1.21-3.17-3.2-3.17a3.32,3.32,0,0,0-2.69,1.86,13,13,0,0,0-1.57,6.78A15.11,15.11,0,0,0,454.3,327.78Z"/><path class="cls-2" d="M468.79,333.54V311.78h8.45a8.53,8.53,0,0,1,5.95,3.3,10.13,10.13,0,0,1,2.24,7.58,10.47,10.47,0,0,1-2.14,7.49,8.42,8.42,0,0,1-6.05,3.39h-8.45Zm8.26-2.56a5.81,5.81,0,0,0,4.06-2.27,8.14,8.14,0,0,0,1.76-6v-.1a8.4,8.4,0,0,0-1.28-5.31,5.83,5.83,0,0,0-4.54-2.91h-5.7V331Z"/><path class="cls-2" d="M490.14,323.62h-2.75l.7-1.76,4-9.89.32-.8h2.14v22.4H492V319.08l-1.5,3.74Z"/><path class="cls-2" d="M499.16,313.7v-2.56h11.91l-1.15,1.95L506.36,319a4.08,4.08,0,0,1,2.63,1.6,8.11,8.11,0,0,1,2.17,5.57,7.45,7.45,0,0,1-1.82,5,6.65,6.65,0,0,1-5.22,2.43,7.2,7.2,0,0,1-3.87-1.05,5.61,5.61,0,0,1-2.69-3.91l-.25-1.5h2.59l.16,1.06a3.11,3.11,0,0,0,.54,1.24,4.1,4.1,0,0,0,3.52,1.6,4.2,4.2,0,0,0,2.72-1,4.74,4.74,0,0,0,1.76-3.84,4.63,4.63,0,0,0-.86-2.72,4.22,4.22,0,0,0-3.62-1.89h-2.24l1.15-1.95,3.56-5.92h-7.43Z"/><path class="cls-2" d="M516.28,318.66h-2.56v-1.28a5.83,5.83,0,0,1,1.51-3.94,6.64,6.64,0,0,1,5.24-2.3,6.92,6.92,0,0,1,4.48,1.54,5.86,5.86,0,0,1,2.28,4.7,7.68,7.68,0,0,1-2,5,27.54,27.54,0,0,1-4.86,4.19c-.77.56-1.32,1-1.67,1.25-1.62,1.26-2.43,2.34-2.43,3.23h11v2.56H513.72v-1.28a7.39,7.39,0,0,1,1.67-4.45,30.42,30.42,0,0,1,4.38-4.09c1-.79,1.66-1.38,2.11-1.76,1.86-1.69,2.79-3.22,2.79-4.61a3.31,3.31,0,0,0-.77-2.11,4.14,4.14,0,0,0-3.43-1.57,4.74,4.74,0,0,0-2.4.64,3.4,3.4,0,0,0-1.79,3Z"/><path class="cls-2" d="M532.09,314c1.3-1.88,2.81-2.82,4.51-2.82a5.43,5.43,0,0,1,4.13,2.37,14.08,14.08,0,0,1,2.56,8.83,14.71,14.71,0,0,1-2.27,8.45c-1.28,1.86-2.75,2.78-4.42,2.78a5.5,5.5,0,0,1-4.19-2.36q-2.62-3.3-2.62-8.87A14.25,14.25,0,0,1,532.09,314Zm1.18,13.82c.84,2.16,2,3.23,3.33,3.23a3.1,3.1,0,0,0,2.6-1.85,13.43,13.43,0,0,0,1.53-6.82,15.2,15.2,0,0,0-.93-5.47c-.81-2.11-1.87-3.17-3.2-3.17a3.31,3.31,0,0,0-2.68,1.86,13,13,0,0,0-1.57,6.78A15.33,15.33,0,0,0,533.27,327.78Z"/></g></g></svg>