<svg xmlns="http://www.w3.org/2000/svg" viewBox="0 0 453.38 323.49"><g id="레이어_2" data-name="레이어 2"><g id="Layer_1" data-name="Layer 1"><path d="M.25,6A4.12,4.12,0,0,0,3.78,1.89V1.23H.38V.42H8v.81H4.59v.66A4,4,0,0,0,8.12,5.83v.89c-1.78-.33-3.6-1.4-3.94-3.22C3.84,5.41,2,6.51.25,6.86ZM3.46,8H8.94a2.42,2.42,0,1,1,0,4.82H3.46A2.42,2.42,0,1,1,3.46,8ZM8.9,12a1.69,1.69,0,0,0,1.87-1.59A1.69,1.69,0,0,0,8.9,8.77H3.5a1.69,1.69,0,0,0-1.87,1.6A1.69,1.69,0,0,0,3.5,12Zm1.48-4.49V0h.81V2.93H13v.81H11.19V7.47Z"/><path d="M14.4,12.07V.63h6.43v.81H15.21v9.72l6.23-.67v.81Zm9.07.64V0h.81V5.35h2.34v.83H24.28v6.53Z"/><path d="M32.91,10.21V7.13H27.16V6.32H39.44v.81H33.72v3.08ZM30.27,5A2.27,2.27,0,0,1,28,2.55,2.27,2.27,0,0,1,30.27.15h6.06a2.27,2.27,0,0,1,2.28,2.4A2.27,2.27,0,0,1,36.33,5Zm-2.15,7.76V8.78h.82v3.11h9.74v.82Zm8.11-8.59a1.49,1.49,0,0,0,1.56-1.58A1.47,1.47,0,0,0,36.23,1H30.37A1.48,1.48,0,0,0,28.8,2.54a1.49,1.49,0,0,0,1.57,1.58Z"/><path d="M2.42,40.63H1.64V29.55H0v-.64c1.08,0,1.63-.27,1.63-.9h.76Z"/><path d="M5.24,37.62H6v.61a2,2,0,0,0,2.26,2,2,2,0,0,0,2.27-2v-3.8a2.66,2.66,0,0,1-2.47,1.29A2.59,2.59,0,0,1,5.2,33V30.47c0-1.71,1.32-2.71,3.06-2.71s3.07,1,3.07,2.71V38.2c0,1.71-1.31,2.7-3.05,2.7s-3-1-3-2.7ZM10.55,33v-2.6a2,2,0,0,0-2.29-2,2,2,0,0,0-2.28,2V33a2,2,0,0,0,2.22,2A2.08,2.08,0,0,0,10.55,33Z"/><path d="M13.34,37.62h.77v.61a2,2,0,0,0,2.27,2,2,2,0,0,0,2.27-2v-3.8a2.69,2.69,0,0,1-2.48,1.29A2.58,2.58,0,0,1,13.3,33V30.47c0-1.71,1.31-2.71,3.05-2.71s3.07,1,3.07,2.71V38.2c0,1.71-1.3,2.7-3,2.7s-3-1-3-2.7ZM18.65,33v-2.6a2,2,0,0,0-2.3-2,2,2,0,0,0-2.28,2V33a2,2,0,0,0,2.23,2A2.08,2.08,0,0,0,18.65,33Z"/><path d="M21,28H27v.71l-4.24,12H22l4.25-12H21Z"/><path d="M28.19,40.23v-1h1v1Z"/><path d="M32.2,30.47c0-1.71,1.32-2.71,3-2.71s3.06,1,3.06,2.71V38.2c0,1.71-1.32,2.7-3.06,2.7s-3-1-3-2.7ZM33,38.2a2,2,0,0,0,2.28,2,2,2,0,0,0,2.29-2V30.47a2,2,0,0,0-2.29-2,2,2,0,0,0-2.28,2Z"/><path d="M42.48,34.15v-.62l.68,0c1.17,0,2.42-.64,2.42-1.84V30.45a2,2,0,0,0-2.27-2c-1.51,0-2.33.78-2.33,2v.72h-.77v-.7c0-1.71,1.22-2.71,3.1-2.71s3,1,3,2.71v1.14a2.32,2.32,0,0,1-2.22,2.2,2.28,2.28,0,0,1,2.36,2.45V38.2c0,1.71-1.28,2.7-3.19,2.7s-3.2-1-3.2-2.7V36.84h.77v1.37c0,1.22.88,2,2.43,2s2.42-.78,2.42-2v-2c0-1.44-1-2-2.57-2.06Z"/><path d="M48.18,40.23v-1h1v1Z"/><path d="M57.24,30.47a2,2,0,0,0-2.23-2c-1.48,0-2.22.8-2.22,2v.84H52v-.84c0-1.71,1.14-2.71,3-2.71s3,1,3,2.71v.74c0,1.47-.82,2.13-2.73,3.95s-2.6,2.41-2.6,3.5v1.26h5.44v.7h-6.2v-2c0-1.29.81-2.14,2.81-4s2.51-2.29,2.51-3.44Z"/><path d="M59.25,28h6.08v.71l-4.23,12h-.82l4.25-12H59.25Z"/><path d="M.45,68.62V58.55h.76v1l2-.84c1.12-.46,1.88-.06,2,.92l2.12-.92c1.29-.56,2.05.07,2.05,1.36v8.57H8.69V60.34c0-.88-.47-1.29-1.33-.91l-2,.88v8.31H4.58V60.34c0-.89-.48-1.27-1.36-.92l-2,.82v8.38Z"/><path d="M11.26,61c0-1.64,1.23-2.58,3-2.58s3.06.94,3.06,2.58V66.3c0,1.66-1.27,2.59-3.06,2.59s-3-.93-3-2.59ZM12,66.21c0,1.23.82,2,2.3,2s2.31-.77,2.31-2V61.08c0-1.24-.84-2-2.31-2s-2.3.76-2.3,2Z"/><path d="M19.07,61c0-1.64,1.23-2.58,3-2.58s3.05.94,3.05,2.58V66.3c0,1.66-1.26,2.59-3.05,2.59s-3-.93-3-2.59Zm.74,5.22c0,1.23.82,2,2.3,2s2.31-.77,2.31-2V61.08c0-1.24-.84-2-2.31-2s-2.3.76-2.3,2Z"/><path d="M27.12,68.62V58.55h.76v1l3-.92C32.21,58.21,33,58.7,33,60v8.64H32.2V60.26c0-.88-.46-1.21-1.39-.91l-2.93.89v8.38Z"/><path d="M40.09,65.6h.74v.65c0,1.7-1.26,2.64-3,2.64s-3-.94-3-2.64V61c0-1.69,1.25-2.63,3-2.63s3,.94,3,2.63V63.7h-5.3v2.48c0,1.26.85,2,2.28,2a2,2,0,0,0,2.28-2ZM35.53,63h4.56V61.1a2,2,0,0,0-2.28-2c-1.43,0-2.28.77-2.28,2Z"/><path d="M42.68,58.47c0-1.71,1.32-2.71,3.06-2.71s3,1,3,2.71V66.2c0,1.71-1.31,2.7-3,2.7s-3.06-1-3.06-2.7Zm.78,7.73a2,2,0,0,0,2.28,2,2,2,0,0,0,2.28-2V58.47a2,2,0,0,0-2.28-2,2,2,0,0,0-2.28,2Z"/><path d="M53,62.15v-.62l.68,0c1.17,0,2.42-.64,2.42-1.84V58.45a2,2,0,0,0-2.27-2c-1.51,0-2.32.78-2.32,2v.72h-.78v-.7c0-1.71,1.23-2.71,3.1-2.71s3,1,3,2.71v1.14a2.33,2.33,0,0,1-2.23,2.2A2.29,2.29,0,0,1,57,64.26V66.2c0,1.71-1.28,2.7-3.2,2.7s-3.2-1-3.2-2.7V64.84h.77v1.37c0,1.22.88,2,2.43,2s2.42-.78,2.42-2v-2c0-1.44-1-2-2.57-2.06Z"/><path d="M63.92,58.47a2,2,0,0,0-2.23-2c-1.48,0-2.22.8-2.22,2v.84h-.78v-.84c0-1.71,1.14-2.71,3-2.71s3,1,3,2.71v.74c0,1.47-.83,2.13-2.73,3.95s-2.61,2.41-2.61,3.5v1.26H64.8v.7H58.6v-2c0-1.29.81-2.14,2.81-4s2.51-2.29,2.51-3.44Z"/><path d="M65.93,56H72v.71L67.78,68.69H67l4.25-12H65.93Z"/><path d="M81.15,66.32c-.09,1.77-2,2.57-3.89,2.58s-3.89-.88-3.89-2.65V58.4c0-1.77,1.94-2.65,3.89-2.65s3.87.88,3.87,2.65V64c0,1.11-.59,1.54-1.38,1.54a1.09,1.09,0,0,1-1.26-1.1l-1.63.85c-.83.44-1.51.13-1.51-.84V60.59c0-.92.45-1.35,1.24-1.35h1.77a.64.64,0,0,1,.7.71v4.38c0,.51.3.66.69.66.58,0,.75-.35.75-.88V58.44c0-1.38-1.61-2.1-3.24-2.1S74,57.06,74,58.44V66.2c0,1.37,1.47,2.11,3.25,2.11s3.15-.71,3.2-2Zm-2.73-2.46V60.3c0-.38-.12-.48-.4-.48h-1.2c-.57,0-.83.21-.83.93v3.42c0,.64.3.77.9.47Z"/><path d="M83.16,68.44v-.35h.76v.25c0,.93.7,1.75,2.18,1.75s2.18-.84,2.18-1.76V66.2l-3.08.88c-1.34.38-2.09-.1-2.09-1.34V60.79a2,2,0,0,1,2.24-2.24H89v9.87c0,1.36-1.12,2.34-3,2.34S83.16,69.8,83.16,68.44Zm5.12-2.93V59.22h-2.6c-1.34,0-1.81.48-1.81,1.81v4.44c0,.87.5,1.16,1.38.91Z"/><path d="M96.92,68.62h-.76v-1l-3.06.91c-1.29.38-2.09-.12-2.09-1.36V65.29A2,2,0,0,1,93.29,63h2.87V61c0-1.14-.69-1.89-2.12-1.89S92,59.82,92,61v.5H91.2v-.59c0-1.55,1.09-2.46,2.84-2.46s2.88.92,2.88,2.48ZM91.76,67c0,.89.52,1.13,1.38.87l3-.9V63.7H93.57c-1.33,0-1.81.4-1.81,1.74Z"/><path d="M99,68.62V58.55h.76v1l2-.84c1.13-.46,1.89-.06,2,.92l2.12-.92c1.29-.56,2,.07,2,1.36v8.57h-.74V60.34c0-.88-.48-1.29-1.33-.91l-2,.88v8.31h-.75V60.34c0-.89-.47-1.27-1.36-.92l-2,.82v8.38Z"/><path d="M110,57.49V56h.76v1.46Zm0,11.13V58.55h.76V68.62Z"/><path d="M113,68.62V56h.76V68.62Z"/><path d="M115.65,68.23v-1h1v1Z"/><path d="M124.76,65.36h.76v.92c0,1.68-1.24,2.61-3,2.61s-3-.93-3-2.61V61c0-1.69,1.22-2.6,3-2.6s3,.91,3,2.6v.73h-.75V61.1c0-1.25-.83-2-2.26-2a2,2,0,0,0-2.24,2v5.08a2.26,2.26,0,0,0,4.5,0Z"/><path d="M127.16,61c0-1.64,1.24-2.58,3-2.58s3.06.94,3.06,2.58V66.3c0,1.66-1.26,2.59-3.06,2.59s-3-.93-3-2.59Zm.75,5.22c0,1.23.81,2,2.29,2s2.31-.77,2.31-2V61.08c0-1.24-.84-2-2.31-2s-2.29.76-2.29,2Z"/><path d="M135.21,68.62V58.55H136v1l2-.84c1.13-.46,1.89-.06,2,.92l2.11-.92c1.29-.56,2,.07,2,1.36v8.57h-.74V60.34c0-.88-.48-1.29-1.33-.91l-2,.88v8.31h-.75V60.34c0-.89-.47-1.27-1.36-.92l-2,.82v8.38Z"/><path d="M12.28,260.94H6.55v1.63H9.33a2.17,2.17,0,1,1,0,4.34H3a2.17,2.17,0,1,1,0-4.34H5.73v-1.63H0v-.81H12.28ZM.72,259.07v-.82c2.5-.08,5-1.2,5-2.6v-.31H1v-.81H11.31v.81H6.56v.31c0,1.4,2.5,2.52,5,2.6v.82C9,259,6.67,258,6.14,256.67,5.61,258,3.3,259,.72,259.07Zm8.5,4.31H3a1.36,1.36,0,1,0,0,2.72H9.22a1.36,1.36,0,1,0,0-2.72Z"/><path d="M14.07,257.81V257c0-1.85,1.6-2.81,3.56-2.81s3.56,1,3.56,2.81v.83c0,1.86-1.59,2.8-3.56,2.8S14.07,259.67,14.07,257.81Zm.68,9.09v-3.07h9.72v-1.4H14.75v-.83H25.29v3H15.56v1.47h10v.82Zm5.62-9.14V257c0-1.34-1.17-2.05-2.73-2.05s-2.76.71-2.76,2.05v.72c0,1.33,1.19,2,2.76,2S20.37,259.09,20.37,257.76Zm4.1,3.13v-6.7h.82v6.7Z"/><path d="M27.16,266.48v-.83h5V259.8H33v5.85h6.43v.83Zm9.94-3,.59-8.14H28.06v-.82H38.54l-.62,9Z"/><path d="M40.74,261v-.82H53V261Zm2.95,1.41h6.38a2.26,2.26,0,0,1,0,4.51H43.69a2.26,2.26,0,0,1,0-4.51Zm-2-3.81v-4.17H52.05v.81H42.52v2.55h9.6v.81ZM50,266.1a1.45,1.45,0,1,0,0-2.89H43.78a1.45,1.45,0,1,0,0,2.89Z"/><path d="M54.46,256.25v-.83h3.6v-1.58h.81v1.58h3.6v.83Zm2.36,1h3.3a2,2,0,0,1,0,4.07h-3.3a2,2,0,0,1,0-4.07Zm-1.47,6.23v-.81H65.51V267H64.7v-3.56Zm4.54-3a1.24,1.24,0,1,0,0-2.45H57a1.24,1.24,0,1,0,0,2.45Zm4.81,1.43v-7.75h.81v3.06h1.85v.81H65.51v3.88Z"/><path d="M67.9,266.48v-.83h3.15V260h.82v5.69h2.84V260h.81v5.69h4.66v.83Zm9.94-3,.59-8.13H68.8v-.82H79.28l-.62,8.95Z"/><path d="M85.55,260.75v-.83h5.74v-1.71h.81v1.71h5.73v.83Zm.72-3c2.5-.07,4.84-1.16,5-2.28v-.17H86.52v-.81H96.87v.81H92.15v.17c.14,1.12,2.48,2.21,5,2.28v.81c-2.59-.08-4.9-1-5.42-2.28-.51,1.26-2.82,2.2-5.42,2.28Zm.25,9.11V264h9.55v-1.22H86.52V262H96.87v2.84H87.32v1.27h9.75v.82Z"/><path d="M110,254.19h.81v6.61H110v-3h-3.59v.05c0,1.87-1.53,2.82-3.41,2.82s-3.41-.95-3.41-2.82V257c0-1.85,1.54-2.81,3.41-2.81s3.4,1,3.41,2.8H110Zm0,8.95v-1.69h.81v5.45H110v-.44l-9.73.44v-5.45h.82v1.69Zm-4.4-6.1c0-1.35-1.12-2.05-2.59-2.05s-2.6.7-2.6,2.05v.75c0,1.33,1.11,2,2.6,2s2.59-.7,2.59-2Zm4.4,8.61V264h-8.91V266Z"/><path d="M5.73,295v-4.3H0v-.83H12.28v.83H6.55V295Zm-2-7a2.82,2.82,0,1,1,0-5.62H8.52a2.82,2.82,0,1,1,0,5.62Zm4.63-.81a2,2,0,1,0,0-4H3.88a2,2,0,1,0,0,4Z"/><path d="M13.58,289.17v-.83h5.73v-2h.82v2h5.73v.83Zm.72-3.38c2.39-.1,5-1.27,5-2.9v-.72h.82v.72c0,1.63,2.63,2.8,5,2.9v.81c-2.46-.08-4.85-1.19-5.42-2.5-.57,1.31-3,2.42-5.42,2.5Zm2.23,4.78h6.38a2.17,2.17,0,1,1,0,4.34H16.53a2.17,2.17,0,1,1,0-4.34Zm6.27,3.53a1.36,1.36,0,1,0,0-2.72H16.62a1.36,1.36,0,1,0,0,2.72Z"/><path d="M27.76,294.27V282.82H33v.82H28.57v9.72l4.85-.54v.83Zm6.86.63V282.19h.81v5.48h2.76v-5.48H39V294.9h-.81v-6.4H35.43v6.4Z"/><path d="M40.88,284.25v-.83h3.6v-1.58h.81v1.58h3.6v.83Zm2.36,1h3.3a2,2,0,0,1,0,4.07h-3.3a2,2,0,0,1,0-4.07Zm-1.47,6.23v-.81H51.93V295h-.81v-3.56Zm4.54-3a1.24,1.24,0,1,0,0-2.45H43.46a1.24,1.24,0,1,0,0,2.45Zm4.81,1.43v-7.75h.81v3.06h1.85v.81H51.93v3.88Z"/><path d="M54.32,294.48v-.83h3.15V288h.82v5.69h2.83V288h.82v5.69H66.6v.83Zm9.94-3,.59-8.13H55.22v-.82H65.7l-.62,8.95Z"/><path d="M74.46,295l1-4.26H72v-.81H84.25v.81H81.17V295h-.82v-4.26H76.28l-1,4.26Zm1.28-6.88a2.82,2.82,0,1,1,0-5.62h4.75a2.82,2.82,0,1,1,0,5.62Zm4.63-.81a2,2,0,1,0,0-4H75.86a2,2,0,1,0,0,4Z"/><path d="M86,291.23v-5.69a3.37,3.37,0,0,1,6.74,0v5.69a3.37,3.37,0,0,1-6.74,0Zm5.92,0V285.5a2.56,2.56,0,0,0-5.1,0v5.77a2.56,2.56,0,0,0,5.1,0Zm3.86,3.63V282.19h.82v5.35h2v.83h-2v6.53Z"/><path d="M99.13,294.48v-.83h3.16V288h.81v5.69h2.84V288h.81v5.69h4.66v.83Zm10-3,.58-8.13H100v-.82h10.48l-.62,8.95Z"/><path d="M125,288.93h-3.08v2H124V295h-.82v-3.25h-9.6V291h2l.49-2h-3.44v-.83H125Zm-9.17-2.17a2.21,2.21,0,1,1,0-4.41h6.06a2.21,2.21,0,1,1,0,4.41Zm.1-3.59a1.41,1.41,0,0,0-1.56,1.38,1.42,1.42,0,0,0,1.56,1.4h5.87a1.42,1.42,0,0,0,1.56-1.4,1.41,1.41,0,0,0-1.56-1.38Zm.58,7.79h4.59v-2H117Z"/><path d="M126.4,294.49v-.81l3.41-.25v-6.11h.82v6.05l5-.35v.81Zm6.66-3.33.43-7.78h-6.31v-.82h7.17l-.48,8.6Zm3.5,3.74V282.19h.82v5.35h2v.83h-2v6.53Z"/><path d="M144,288.75v-.83h5.73v-1.71h.81v1.71h5.73v.83Zm.72-3c2.5-.07,4.83-1.16,5-2.28v-.17h-4.73v-.81h10.35v.81h-4.71v.17c.13,1.12,2.47,2.21,4.95,2.28v.81c-2.59-.08-4.9-1-5.41-2.28-.52,1.26-2.83,2.2-5.42,2.28Zm.24,9.11V292h9.55v-1.22h-9.55V290h10.35v2.84h-9.55v1.27h9.75v.82Z"/><path d="M168.42,282.19h.81v6.61h-.81v-3h-3.59v.05c0,1.87-1.53,2.82-3.4,2.82s-3.41-.95-3.41-2.82V285c0-1.85,1.53-2.81,3.41-2.81s3.39,1,3.4,2.8h3.59Zm0,8.95v-1.69h.81v5.45h-.81v-.44l-9.72.44v-5.45h.81v1.69ZM164,285c0-1.35-1.11-2.05-2.58-2.05s-2.61.7-2.61,2.05v.75c0,1.33,1.12,2,2.61,2s2.58-.7,2.58-2Zm4.4,8.61V292h-8.91V294Z"/><path d="M.86,313.67c0,1,.78,1.34,2.67,2.19,2.64,1.18,3.13,1.74,3.13,3.28v1.28c0,1.74-1.4,2.67-3.35,2.67S0,322.16,0,320.42v-1.18H.76v1.15c0,1.23,1,2,2.57,2s2.56-.77,2.56-2v-1.12c0-1.35-.58-1.74-2.67-2.68-2.38-1-3.14-1.59-3.14-2.91v-1.06c0-1.74,1.33-2.68,3.25-2.68s3.24.94,3.24,2.68v1.1H5.8v-1.08c0-1.23-1-2-2.47-2s-2.47.76-2.47,2Z"/><path d="M8.49,322.81V310.22h3.92c1.65,0,2.39.62,2.39,2.28v1.7a1.87,1.87,0,0,1-2,2.07,2,2,0,0,1,2.15,2.09v2.1c0,1.64-.65,2.35-2.38,2.35ZM14,312.75c0-1.35-.5-1.84-1.86-1.84H9.25v5H12c1.35,0,2.08-.47,2.08-1.85Zm-4.79,3.9v5.46h3c1.37,0,1.92-.39,1.92-1.76v-1.92c0-1.35-.79-1.78-2.11-1.78Z"/><path d="M17.34,313.67c0,1,.79,1.34,2.68,2.19,2.63,1.18,3.12,1.74,3.12,3.28v1.28c0,1.74-1.4,2.67-3.34,2.67s-3.31-.93-3.31-2.67v-1.18h.76v1.15c0,1.23,1,2,2.56,2s2.57-.77,2.57-2v-1.12c0-1.35-.58-1.74-2.67-2.68-2.38-1-3.14-1.59-3.14-2.91v-1.06c0-1.74,1.33-2.68,3.24-2.68s3.25.94,3.25,2.68v1.1h-.77v-1.08c0-1.23-1-2-2.48-2s-2.47.76-2.47,2Z"/><path d="M29,319.23v-5.69a3.37,3.37,0,0,1,6.73,0v5.69a3.37,3.37,0,0,1-6.73,0Zm5.92,0V313.5a2.56,2.56,0,0,0-5.11,0v5.77a2.56,2.56,0,0,0,5.11,0Zm3.86,3.63V310.19h.81v5.35h1.95v.83H39.6v6.53Z"/><path d="M42.59,311.64v-.82H49.5v.72c0,6.47-2.62,9.93-7,10.87v-.87a7.37,7.37,0,0,0,5.55-5.23H42.72v-.81h5.56a15.68,15.68,0,0,0,.4-3.86Zm10.48,3.9h2.06v.83H53.07v6.53h-.81V310.19h.81Z"/><path d="M56.28,322.27V310.82h5.28v.82H57.09v9.72l4.92-.54v.83Zm7.34.63v-6.4H60.45v-.82h3.17v-5.49h.82V322.9Zm3.09,0V310.19h.81V322.9Z"/><path d="M69.86,322.27V310.82h6.8v11.45h-.82v-.72Zm.81-.94,5.17-.6v-9.09H70.67ZM80,322.9V310.19h.81V322.9Z"/><path d="M97.59,310.19h.81v7.24h-.81v-3.29H93.46c-1.12,1.92-3.38,2.78-6.13,2.89v-.81c2.39-.13,4.29-.83,5.3-2.25H87.54v-.81h5.52a4.78,4.78,0,0,0,.33-1.83h-6v-.83h6.82V311a7,7,0,0,1-.37,2.3h3.74ZM88.08,322.9v-4.77H98.4v4.77h-.81v-.44Zm.81-3.95V322l8.7-.39V319Z"/><path d="M100.49,318.82V318h12.28v.82h-3.08V323h-.82v-4.15H104.8l-1,4.15H103l1-4.15Zm.56-2.59v-.81h2.61l-.34-3.55h.82l.33,3.55h4.33l.33-3.55H110l-.34,3.55h2.59v.81Zm.13-4.85v-.82h10.9v.82Z"/><path d="M114.67,311.64v-.82h6.69v.82Zm0,10.63v-8.1h6.53V315h-5.72v6.36l6.81-.65v.81Zm10.28.63v-5.07h-4V317h4v-6.82h.81V322.9Z"/><path d="M131.86,312.25v-.83h3.6v-1.58h.82v1.58h3.59v.83Zm2.36,1h3.3a2,2,0,0,1,0,4.07h-3.3a2,2,0,0,1,0-4.07Zm-1.46,6.23v-.81h10.16V323h-.82v-3.56Zm4.53-3a1.24,1.24,0,1,0,0-2.45h-2.85a1.24,1.24,0,1,0,0,2.45Zm4.81,1.43v-7.75h.82v3.06h1.84v.81h-1.84v3.88Z"/><path d="M148.8,319.58l.54-3.13H145.2v-.81h9.73v.81h-4.76l-.53,3.13Zm-.57-5.06a2.08,2.08,0,1,1,0-4.16h3.4a2.08,2.08,0,1,1,0,4.16Zm-1.54,8.38V319h.82v3.06h9.69v.82Zm4.84-9.21a1.26,1.26,0,1,0,0-2.5h-3.18a1.26,1.26,0,1,0,0,2.5Zm4.65,6.74v-1.65h-4.5V318h4.5v-7.78H157v10.24Z"/><path d="M169.17,310.22h.77v10.2c0,1.74-1.43,2.67-3.31,2.67s-3.32-.93-3.32-2.67v-10.2h.78v10.17c0,1.23,1,2,2.54,2s2.54-.77,2.54-2Z"/><path d="M172.89,310.22v12.59h-.76V310.22Z"/><path d="M177.42,309.5v14h-.73v-14Z"/><path d="M186.9,310.22h.77v10.2c0,1.74-1.42,2.67-3.31,2.67s-3.31-.93-3.31-2.67v-10.2h.77v10.17c0,1.23,1.05,2,2.54,2s2.54-.77,2.54-2Z"/><path d="M189.79,310.22l2.72,5.35,2.62-5.35H196l-3,6.15,3.29,6.44h-.84l-2.87-5.64-2.77,5.64h-.84l3.19-6.44-3.15-6.15Z"/><path d="M206.9,323V318.6h-5.73v-.83h12.28v.83h-5.73V323Zm-5.21-7.82c2.61-.11,5.21-2,5.21-3.91v-.82h.82v.82c0,2,2.62,3.8,5.21,3.91V316c-2.64-.08-5.05-1.65-5.62-3.37-.57,1.72-3,3.29-5.62,3.37Z"/><path d="M214.75,322.48v-.83h3.32v-3.21h.81v3.21h4v-3.21h.82v3.21H227v.83Zm1-4.88v-4h9.53v-2.26h-9.53v-.82h10.34v3.89h-9.53v2.33h9.67v.82Z"/><path d="M293.62,260.62h5.73v.81H287.07v-.81h5.73v-2H288v-4.21h10.34v.78h-9.53v2.65h9.6v.78h-4.83Zm-5.64,3.1v-.83h10.4V267h-.81v-3.32Z"/><path d="M300.76,265.17a8,8,0,0,0,3.8-6.34v-4.26h.82v4.26a8,8,0,0,0,3.8,6.34v1a8.8,8.8,0,0,1-4.21-5.34,8.76,8.76,0,0,1-4.21,5.34Zm7.24-5.31v-.81h3.42v-4.86h.82V266.9h-.82v-7Z"/><path d="M295.23,287.7v-5.51h.82V294.9h-.82v-6.39h-2.89c-.81,3.36-2.54,5.17-4.92,5.9v-.87c3.18-1.11,4.65-4.43,4.62-9.9h-4.55v-.82h5.37v.65a23.9,23.9,0,0,1-.34,4.23Zm2.87-5.51h.82V294.9h-.82Z"/><path d="M301.14,286v-1c0-1.85,1.6-2.81,3.56-2.81s3.56,1,3.56,2.81v1c0,1.87-1.59,2.82-3.56,2.82S301.14,287.84,301.14,286Zm.68,8.93v-5.06h10.54v5.06h-.82v-.44Zm5.62-9V285c0-1.35-1.17-2.05-2.73-2.05s-2.75.7-2.75,2.05v.89c0,1.33,1.18,2,2.75,2S307.44,287.26,307.44,285.93Zm-4.8,8.11,8.9-.4v-3h-8.9Zm8.9-4.93v-6.92h.82v6.92Z"/><path d="M287.07,322.48v-.83h12.28v.83Zm9.73-3,.77-8.1H288v-.82h10.48l-.84,8.92Z"/><path d="M301.25,317.27v-4H307v-2h-5.77v-.83h6.59v3.61h-5.77v2.27l6.84-.5v.81Zm.57,5.63v-4.56h10.54v4.56h-.82v-.44Zm.82-.86,8.9-.4v-2.48h-8.9Zm8.9-4.42v-7.43h.82v7.43Z"/><path d="M318.31,322.48v-.83h12.27v.83Zm9.72-3,.77-8.1h-9.6v-.82h10.49l-.85,8.92Z"/><path d="M332.48,322.27V315.8h5.88v-4.16h-5.88v-.82h6.7v5.79H333.3v4.75l6.94-.68v.82Zm10.28.63V310.19h.82V322.9Z"/><path d="M345.82,321.54c4-1,6.37-4.09,6.34-9.9h-6.27v-.82H353v.72c0,6.47-2.71,9.93-7.16,10.87Zm10.42,1.36V310.19h.81V322.9Z"/><path d="M390.76,266.27V254.82h6.8v11.45h-.81v-.72Zm.82-.94,5.17-.6v-9.09h-5.17Zm9.35,1.57V254.19h.82V266.9Z"/><path d="M404,260c1.56-.56,3.46-2.09,3.46-4.06v-1.56h.81v1.56c0,1.9,1.91,3.37,3.47,3.92v.89c-1.62-.5-3.51-1.83-3.87-3.37-.37,1.61-2.27,3-3.87,3.51Zm3.54,2.06H413a2.47,2.47,0,1,1,0,4.93h-5.51a2.47,2.47,0,1,1,0-4.93Zm5.47,4.12a1.67,1.67,0,1,0,0-3.3h-5.43a1.66,1.66,0,1,0,0,3.3Zm1.52-4.63v-7.34h.82v7.34Z"/><path d="M395.89,295v-4.3h-5.73v-.83h12.28v.83h-5.73V295Zm-2-7a2.82,2.82,0,1,1,0-5.62h4.76a2.82,2.82,0,1,1,0,5.62Zm4.64-.81a2,2,0,1,0,0-4h-4.51a2,2,0,1,0,0,4Z"/><path d="M416,288.12h-5.73v1.8h4.76v2.85h-9.53v1.31h9.74v.82H404.71V292h9.53v-1.24h-9.53v-.82h4.76v-1.8h-5.73v-.81H416Zm-1.89-3.59.12-1.3h-9.5v-.81h10.37l-.37,4.21h-.81l.12-1.27h-9.18v-.83Z"/><path d="M417.81,288.68V285h4l.23-1.68h-4.25v-.83H423l-.42,3.33h-3.92v1.95l5.35-.42v.83Zm.57,6.22v-3h10v-1.35h-10v-.82h10.79v2.95h-10v1.4h10.17v.82Zm7.29-5.89v-3.33H423.5v-.81h2.17v-2.68h.82V289Zm2.68,0v-6.82h.82V289Z"/><path d="M431.39,294.27V287.8h3.85l.42-4.16h-4.27v-.82h5.15l-.56,5.8h-3.77v4.71l5.24-.65v.83Zm7.86.63v-6.53h-2.17v-.83h2.17v-5.35h.82V294.9Zm2.68,0V282.19h.82V294.9Z"/><path d="M390.65,322.81V310.22h1.05l3.69,11.63L399,310.22h1v12.59h-.77V311.75l-3.48,11.06H395l-3.57-11.08v11.08Z"/><path d="M408.81,320.42c0,1.66-.75,2.39-2.39,2.39h-4.06V310.22h4.06c1.64,0,2.39.73,2.39,2.4Zm-.76-7.67c0-1.35-.51-1.83-1.86-1.83h-3.07v11.19h3.07c1.35,0,1.86-.47,1.86-1.83Z"/><path d="M415.12,316.86V310.5h6.62v6.36Zm.68,6v-4.4h.82v3.58h9.47v.82Zm.14-6.87h5v-4.7h-5Zm9.07,3.46v-9.3h.81v3.74h1.85v.83h-1.85v4.73Z"/><path d="M428.21,316.42v-.81h12.28v.81Zm1-2.32v-3.68h10.34v.81H430v2.06h9.6v.81Zm0,8.8v-3h9.53v-1.31h-9.53v-.81h10.34v2.9H430v1.37h9.74v.82Z"/><path d="M442.15,321.54c4-1,6.36-4.09,6.34-9.9h-6.28v-.82h7.09v.72c0,6.47-2.7,9.93-7.15,10.87Zm10.41,1.36V310.19h.82V322.9Z"/><path d="M291.12,14.48v-.67h2.81v3.92c0,1.74-1.4,2.68-3.27,2.68s-3.29-.94-3.29-2.68V9.93c0-1.74,1.39-2.68,3.27-2.68s3.28.94,3.28,2.68v1.15h-.76V10c0-1.23-1-2-2.52-2s-2.49.77-2.49,2V17.7c0,1.24,1,2,2.51,2s2.51-.77,2.51-2V14.48Z"/><path d="M294.83,7.54h6.93v.7h-3.08V20.13h-.77V8.24h-3.08Z"/><path d="M305.89,22.29V20.38c-1.69-.1-2.93-1.05-2.93-2.65V9.93c0-1.74,1.43-2.68,3.31-2.68s3.32.94,3.32,2.68v7.8c0,1.6-1.24,2.55-2.93,2.65v1.91Zm-2.15-4.59c0,1.24,1,2,2.53,2s2.54-.77,2.54-2V10c0-1.23-1-2-2.54-2s-2.53.77-2.53,2Z"/><path d="M315.26,19.79V19H321V15.52h.81V19h5.73v.83Zm.56-5.11v-.83h2.72l-.45-4.66h.83l.43,4.66h4.1l.45-4.66h.83l-.46,4.66H327v.83Zm.14-6V7.87h10.89V8.7Z"/><path d="M328.84,19.79V19h5.74V16.22h.81V19h5.73v.83Zm1-11.09V7.87h10.35V8.7Zm0,6.67V10.59H340.1v.81h-9.48v3.15h9.67v.82Z"/><path d="M342.67,12.76c1.59-.55,3.53-2,3.53-3.92V7.67H347V8.84c0,1.92,1.95,3.37,3.53,3.92v.9c-1.64-.49-3.57-1.83-3.93-3.37-.37,1.54-2.31,2.88-3.94,3.37Zm.92,7.45V14.67h.82v1.75h8.39V14.67h.81v5.54h-.81v-.42Zm.82-.85L352.8,19V17.23h-8.39ZM352.8,14V7.51h.81V9.06h1.82v.83h-1.82v1.54h1.82v.83h-1.82V14Z"/><path d="M362.5,20.14h-.78V9.06H360.1V8.42c1.09,0,1.64-.27,1.64-.9h.76Z"/><path d="M365,13.4v-.82h12.28v.82Zm1,6.81V14.8h.81v1.7h8.72V14.8h.82v5.41h-.82v-.36Zm0-11.67V7.73h10.37l-.46,3.74h-.83l.4-2.93Zm.77,10.82,8.72-.32V17.33h-8.72Z"/><path d="M287.18,41V40.2h7.52V41H291l-1,2.59h-.86l1-2.59Zm2.51-5.36h2.65a1.79,1.79,0,1,1,0,3.58h-2.65a1.79,1.79,0,1,1,0-3.58Zm-1.11,12.54V43.93h.81v1.16h8.82V43.93H299v4.28h-.81v-.43Zm3.64-9.78a1,1,0,1,0,0-1.93h-2.39a1,1,0,1,0,0,1.93Zm-2.83,8.93,8.82-.41v-1h-8.82Zm3.14-4.72v-.82h3.14V35.51h.81v7.88h-.81v-.75Zm5.68.75V35.51H299v7.88Z"/><path d="M305.76,47.58V36.14h6.45V37h-5.64v9.72L312.9,46v.81Zm9.63.63V35.51h.81v12.7Z"/><path d="M318.42,46.49a7.5,7.5,0,0,0,3.78-6.18V37.06h-3.37v-.81h7.56v.81H323v3.25a7.49,7.49,0,0,0,3.8,6.18v1a8.12,8.12,0,0,1-4.21-5.12,8.16,8.16,0,0,1-4.19,5.12Zm10.15,1.72V35.51h.82v5.35h1.95v.82h-1.95v6.53Z"/><path d="M332.37,39.93V38.49c0-2,1.61-3,3.56-3s3.56,1,3.56,3v1.44c0,2-1.59,3-3.56,3S332.37,41.92,332.37,39.93Zm.79,8.28V44H334v3.4h9.87v.81Zm5.52-8.32V38.55c0-1.46-1.17-2.24-2.73-2.24s-2.76.78-2.76,2.24v1.34c0,1.46,1.18,2.23,2.76,2.23S338.68,41.35,338.68,39.89Zm4.1,4.78V35.51h.81v9.16Z"/><path d="M349.89,46.85c4-1,6.37-4.09,6.35-9.9H350v-.81h7.09v.71c0,6.47-2.7,9.93-7.16,10.87Zm10.42,1.36V35.51h.81v12.7Z"/><path d="M363.12,42.13v-.81H375.4v.81Zm2.95,1.59h6.38a2.26,2.26,0,0,1,0,4.51h-6.38a2.26,2.26,0,0,1,0-4.51Zm-2-4.12V35.55h.82v3.24h9.6v.81Zm8.26,7.81a1.44,1.44,0,1,0,0-2.88h-6.18a1.44,1.44,0,1,0,0,2.88Z"/><path d="M376.81,46.49a8,8,0,0,0,3.8-6.35V35.88h.82v4.26a8,8,0,0,0,3.8,6.35v1A8.82,8.82,0,0,1,381,42.19a8.86,8.86,0,0,1-4.21,5.34ZM387,48.21V35.51h.81v5.35h2v.82h-2v6.53Z"/><path d="M394.6,41.35v-.81h2l-.48-3.45H397l.46,3.45H400l.47-3.45h.83l-.49,3.45h2.15v.81Zm.13-4.71v-.82h8.07v.82Zm.79,11.57V45.05h9.62V43.56h-9.62v-.82H406v3.09h-9.61V47.4h9.87v.81ZM405.14,42V35.51H406V42Z"/><path d="M408.29,46.85c4-1,6.37-4.09,6.34-9.9h-6.28v-.81h7.09v.71c0,6.47-2.7,9.93-7.15,10.87Zm10.41,1.36V35.51h.82v12.7Z"/></g></g></svg>