<svg xmlns="http://www.w3.org/2000/svg" viewBox="0 0 37.1 28.51"><g id="레이어_2" data-name="레이어 2"><g id="Layer_1" data-name="Layer 1"><g id="Outlined_Mnemonics_Logos" data-name="Outlined Mnemonics Logos"><g id="Pr"><path d="M0,28.16V.46C0,.27.08.16.27.16c.46,0,.89,0,1.51,0s1.32,0,2,0,1.51,0,2.35,0S7.81,0,8.62,0a16,16,0,0,1,5.54.83A9.68,9.68,0,0,1,17.77,3a8.54,8.54,0,0,1,2,3.07,10.16,10.16,0,0,1,.62,3.5,9.61,9.61,0,0,1-1.61,5.74,9.32,9.32,0,0,1-4.34,3.28,17.5,17.5,0,0,1-6.05.92c-.65,0-1.08,0-1.35,0s-.65,0-1.16,0v8.64a.34.34,0,0,1-.29.38H.32C.11,28.51,0,28.4,0,28.16ZM5.87,5.36v9c.38,0,.73.06,1,.06H8.35A9.79,9.79,0,0,0,11.44,14a4.63,4.63,0,0,0,2.21-1.42,4.16,4.16,0,0,0,.83-2.78,4.38,4.38,0,0,0-.61-2.39A4,4,0,0,0,12,5.84,8.1,8.1,0,0,0,8.8,5.3c-.7,0-1.32,0-1.83,0a5.49,5.49,0,0,0-1.1,0Z"/><path d="M24.12,6.92h4.71a.61.61,0,0,1,.57.43,3,3,0,0,1,.16.67c.05.27.11.57.14.84s.05.62.05,1a10,10,0,0,1,2.88-2.32,8.36,8.36,0,0,1,4.09-1,.34.34,0,0,1,.38.3v5.36c0,.21-.14.29-.43.29a11.82,11.82,0,0,0-2.91.27,10.65,10.65,0,0,0-2.26.73,4.08,4.08,0,0,0-1.37,1V28.13c0,.27-.11.38-.35.38H24.47a.38.38,0,0,1-.43-.32v-15c0-.65,0-1.32,0-2s0-1.4-.05-2.1-.05-1.22-.11-1.83a.26.26,0,0,1,.19-.3s.06,0,.08,0Z"/></g></g></g></g></svg>