<svg xmlns="http://www.w3.org/2000/svg" viewBox="0 0 38.83 114.95"><g id="레이어_2" data-name="레이어 2"><g id="Layer_1" data-name="Layer 1"><g id="Outlined_Mnemonics_Logos" data-name="Outlined Mnemonics Logos"><g id="Ps"><path d="M0,28.13V.43c0-.2.09-.3.26-.3l1.52,0,2.06,0L6.18,0,8.63,0a16.32,16.32,0,0,1,5.55.82A9.8,9.8,0,0,1,17.8,3a8.56,8.56,0,0,1,2,3.06,10.13,10.13,0,0,1,.6,3.49,9.62,9.62,0,0,1-1.6,5.72,9.07,9.07,0,0,1-4.33,3.27,17.28,17.28,0,0,1-6.07.91c-.64,0-1.09,0-1.35,0l-1.17,0v8.65a.34.34,0,0,1-.29.39H.3C.1,28.48,0,28.36,0,28.13ZM5.85,5.33v9c.38,0,.73,0,1,0H8.32a9.86,9.86,0,0,0,3.1-.5,4.6,4.6,0,0,0,2.21-1.43,4.12,4.12,0,0,0,.85-2.77,4.4,4.4,0,0,0-.63-2.38A3.94,3.94,0,0,0,12,5.79,8.18,8.18,0,0,0,8.8,5.24c-.69,0-1.31,0-1.84,0a10.37,10.37,0,0,0-1.11.06Z"/><path d="M37.13,12.72a10.22,10.22,0,0,0-2.57-.91,13.91,13.91,0,0,0-3-.34,5.53,5.53,0,0,0-1.62.19,1.51,1.51,0,0,0-.85.54,1.38,1.38,0,0,0-.21.74,1,1,0,0,0,.26.69,2.9,2.9,0,0,0,.91.72,18.28,18.28,0,0,0,1.9.89,18.51,18.51,0,0,1,4.14,2,6.41,6.41,0,0,1,2.13,2.23,5.93,5.93,0,0,1,.62,2.78,6.14,6.14,0,0,1-1,3.57,6.78,6.78,0,0,1-3,2.41,12.24,12.24,0,0,1-4.87.86,17.42,17.42,0,0,1-3.67-.34,12.06,12.06,0,0,1-2.75-.87.56.56,0,0,1-.3-.52V22.65a.25.25,0,0,1,.11-.24.21.21,0,0,1,.23,0,11.59,11.59,0,0,0,3.34,1.32,14.14,14.14,0,0,0,3.17.42,4.86,4.86,0,0,0,2.23-.39A1.23,1.23,0,0,0,33,22.65a1.39,1.39,0,0,0-.65-1.08,10.42,10.42,0,0,0-2.64-1.26,16.34,16.34,0,0,1-3.84-1.95,6.64,6.64,0,0,1-2-2.28,5.84,5.84,0,0,1-.63-2.75,6.11,6.11,0,0,1,.91-3.25A6.59,6.59,0,0,1,26.9,7.61a10.61,10.61,0,0,1,4.77-1A23.24,23.24,0,0,1,35,6.89a8.86,8.86,0,0,1,2.32.63.39.39,0,0,1,.26.24,1.19,1.19,0,0,1,0,.32v4.38a.3.3,0,0,1-.13.26A.42.42,0,0,1,37.13,12.72Z"/></g></g><path d="M12.93,106.49v.07a4.55,4.55,0,0,1-.25,1.41,37.09,37.09,0,0,1-3.24,6.8l-.09.18H8.52l.31-.54q1.58-2.79,2.34-4.48a3.59,3.59,0,0,1-2,.65,3.65,3.65,0,0,1-2.46-1,4,4,0,0,1-1.35-3.14,4.24,4.24,0,0,1,1-2.77,3.53,3.53,0,0,1,2.82-1.37,3.57,3.57,0,0,1,2.27.81,4.08,4.08,0,0,1,1.51,3h0v.38Zm-1.4-2.18a2.87,2.87,0,0,0-4.32-.5,3.64,3.64,0,0,0-.47,4.77,2.89,2.89,0,0,0,2.41,1.28,3,3,0,0,0,1.3-.33,3.24,3.24,0,0,0,1.64-2.07,5,5,0,0,0,.12-.88v-.11A3.82,3.82,0,0,0,11.53,104.31Z"/><path d="M15.6,104a3.15,3.15,0,0,1,2.61-1.68,3.09,3.09,0,0,1,2.39,1.44A8.1,8.1,0,0,1,22,108.63a8.3,8.3,0,0,1-1.23,4.65A3.05,3.05,0,0,1,18.21,115a3.11,3.11,0,0,1-2.45-1.46,7.89,7.89,0,0,1-1.39-4.86A8.24,8.24,0,0,1,15.6,104Zm.34,8.46c.6,1.17,1.35,1.76,2.27,1.76A2.42,2.42,0,0,0,20.15,113a7.78,7.78,0,0,0,1.1-4.32,8.41,8.41,0,0,0-.83-3.83c-.6-1.16-1.34-1.75-2.21-1.75a2.5,2.5,0,0,0-2,1.3,7.52,7.52,0,0,0-1.12,4.28A8.18,8.18,0,0,0,15.94,112.47Z"/><path d="M33,102.69h.94l-.47.6-9.36,11.52-.11.12H23l.47-.59,9.36-11.52Zm-5.71.2a2.42,2.42,0,0,1,1.53,2.61,3.81,3.81,0,0,1-.39,1.84,2.35,2.35,0,0,1-2.22,1.24,2.9,2.9,0,0,1-1.22-.25,2.76,2.76,0,0,1-1.53-2.81,3,3,0,0,1,.43-1.66,2.49,2.49,0,0,1,2.32-1.17A3.7,3.7,0,0,1,27.24,102.89Zm-1.94.67a1.87,1.87,0,0,0-1.17,2,3,3,0,0,0,.23,1.22,1.83,1.83,0,0,0,1.8,1.12,1.92,1.92,0,0,0,.79-.16,2.1,2.1,0,0,0,1.1-2.2,2.45,2.45,0,0,0-.16-1,1.7,1.7,0,0,0-1.73-1.1A2.47,2.47,0,0,0,25.3,103.56Zm3.2,6.69A2.33,2.33,0,0,1,30.72,109a3.46,3.46,0,0,1,1.09.22,2.78,2.78,0,0,1,1.57,2.88,3.26,3.26,0,0,1-.31,1.48,2.38,2.38,0,0,1-2.34,1.36,3.23,3.23,0,0,1-.84-.09c-1.17-.3-1.77-1.19-1.8-2.68A4.17,4.17,0,0,1,28.5,110.25Zm.43,2.69a1.68,1.68,0,0,0,1.8,1.27,2.16,2.16,0,0,0,.71-.12,1.86,1.86,0,0,0,1.22-2,3,3,0,0,0-.2-1.15,1.76,1.76,0,0,0-1.74-1.23,2,2,0,0,0-.87.2,2.3,2.3,0,0,0-1,2.25A3.18,3.18,0,0,0,28.93,112.94Z"/></g></g></svg>