<svg xmlns="http://www.w3.org/2000/svg" viewBox="0 0 38.83 29.06"><g id="레이어_2" data-name="레이어 2"><g id="Layer_1" data-name="Layer 1"><g id="Outlined_Mnemonics_Logos" data-name="Outlined Mnemonics Logos"><g id="Ps"><path d="M0,28.13V.43c0-.2.09-.3.26-.3l1.52,0,2.06,0L6.18,0,8.63,0a16.32,16.32,0,0,1,5.55.82A9.8,9.8,0,0,1,17.8,3a8.56,8.56,0,0,1,2,3.06,10.13,10.13,0,0,1,.6,3.49,9.62,9.62,0,0,1-1.6,5.72,9.07,9.07,0,0,1-4.33,3.27,17.28,17.28,0,0,1-6.07.91c-.64,0-1.09,0-1.35,0l-1.17,0v8.65a.34.34,0,0,1-.29.39H.3C.1,28.48,0,28.36,0,28.13ZM5.85,5.33v9c.38,0,.73,0,1,0H8.32a9.86,9.86,0,0,0,3.1-.5,4.6,4.6,0,0,0,2.21-1.43,4.12,4.12,0,0,0,.85-2.77,4.4,4.4,0,0,0-.63-2.38A3.94,3.94,0,0,0,12,5.79,8.18,8.18,0,0,0,8.8,5.24c-.69,0-1.31,0-1.84,0a10.37,10.37,0,0,0-1.11.06Z"/><path d="M37.13,12.72a10.22,10.22,0,0,0-2.57-.91,13.91,13.91,0,0,0-3-.34,5.53,5.53,0,0,0-1.62.19,1.51,1.51,0,0,0-.85.54,1.38,1.38,0,0,0-.21.74,1,1,0,0,0,.26.69,2.9,2.9,0,0,0,.91.72,18.28,18.28,0,0,0,1.9.89,18.51,18.51,0,0,1,4.14,2,6.41,6.41,0,0,1,2.13,2.23,5.93,5.93,0,0,1,.62,2.78,6.14,6.14,0,0,1-1,3.57,6.78,6.78,0,0,1-3,2.41,12.24,12.24,0,0,1-4.87.86,17.42,17.42,0,0,1-3.67-.34,12.06,12.06,0,0,1-2.75-.87.56.56,0,0,1-.3-.52V22.65a.25.25,0,0,1,.11-.24.21.21,0,0,1,.23,0,11.59,11.59,0,0,0,3.34,1.32,14.14,14.14,0,0,0,3.17.42,4.86,4.86,0,0,0,2.23-.39A1.23,1.23,0,0,0,33,22.65a1.39,1.39,0,0,0-.65-1.08,10.42,10.42,0,0,0-2.64-1.26,16.34,16.34,0,0,1-3.84-1.95,6.64,6.64,0,0,1-2-2.28,5.84,5.84,0,0,1-.63-2.75,6.11,6.11,0,0,1,.91-3.25A6.59,6.59,0,0,1,26.9,7.61a10.61,10.61,0,0,1,4.77-1A23.24,23.24,0,0,1,35,6.89a8.86,8.86,0,0,1,2.32.63.39.39,0,0,1,.26.24,1.19,1.19,0,0,1,0,.32v4.38a.3.3,0,0,1-.13.26A.42.42,0,0,1,37.13,12.72Z"/></g></g></g></g></svg>