<svg xmlns="http://www.w3.org/2000/svg" viewBox="0 0 501.46 528.38"><defs><style>.cls-1{fill:#fff;}</style></defs><title>Asset 4</title><g id="Layer_2" data-name="Layer 2"><g id="Layer_1-2" data-name="Layer 1"><circle class="cls-1" cx="210.58" cy="247.09" r="210.58"/><path class="cls-1" d="M386.71,16.17l1.94,1.35L386,21.39,384,20l-8.67-6L356.48,41.14l-1.34,1.94-3.88-2.7,1.35-1.93,18.86-27.13-8.76-6.1-1.94-1.34L363.46,0l1.94,1.35,8.77,6.1L378,10.14Z"/><path class="cls-1" d="M396.52,40a10.29,10.29,0,0,1,3.41,6.71,11.9,11.9,0,0,1-3.23,9.87l-9.19,10.22-1.57,1.84-3.47-3.11,1.54-1.8,9.18-10.3a8.37,8.37,0,0,0,2-3.91,6,6,0,0,0-1.82-6A5.86,5.86,0,0,0,389.78,42a7.51,7.51,0,0,0-6.25,2.72L382,46.5,374.35,55l-1.58,1.75-3.51-3.15,1.58-1.76,7.61-8.47L380,41.59l13.53-15.06,1.57-1.75,3.52,3.15-1.58,1.76-6.86,7.63A10.86,10.86,0,0,1,396.52,40Z"/><path class="cls-1" d="M410.11,87a13,13,0,0,1-11.4-4.6,12.17,12.17,0,0,1-3-8.65,14,14,0,0,1,5.12-10.45,14.53,14.53,0,0,1,9.4-3.76,12.11,12.11,0,0,1,9.8,4.2,12,12,0,0,1,3,8.6,13.94,13.94,0,0,1-5.09,10.49l-1.77,1.56-1.56-1.78-12.28-14a9.9,9.9,0,0,0-1.55,3.24,7.57,7.57,0,0,0,1.51,7.46,8.72,8.72,0,0,0,7.49,3Zm6.47-9.27a6.18,6.18,0,0,0,1.75-3.65,8.4,8.4,0,0,0-1.87-7.23,7.23,7.23,0,0,0-3-2,8.74,8.74,0,0,0-7.65.67Z"/><path class="cls-1" d="M455.1,113.86l1.18,2-4.09,2.36-1.18-2a7.26,7.26,0,0,0-2.54-2.62q-3.87-2.32-9.11.64l-.3.18L437,115.6l-8.16,4.73-2.05,1.18-2.36-4.08,2-1.18,8.17-4.73,2-1.19.26-.14,9.95-5.77,2-1.18,2.37,4.08-2,1.18-.1.06A12.29,12.29,0,0,1,455.1,113.86Z"/><path class="cls-1" d="M447.82,151.29a13,13,0,0,1-9.6-7.69,12.19,12.19,0,0,1-.4-9.15,14,14,0,0,1,7.91-8.53,14.49,14.49,0,0,1,10.09-.9A12.23,12.23,0,0,1,464.38,141a14,14,0,0,1-7.89,8.58l-2.15,1-1-2.14-7.72-17a10.19,10.19,0,0,0-2.42,2.65,7.57,7.57,0,0,0-.7,7.58,8.73,8.73,0,0,0,6.31,5Zm8.86-7a6.11,6.11,0,0,0,2.72-3,8.34,8.34,0,0,0,.3-7.46,7.27,7.27,0,0,0-2.25-2.8,8.75,8.75,0,0,0-7.52-1.57Z"/><path class="cls-1" d="M471.44,149l1.56,4.82-1.22,1-15,12.54,19.45,1.27,1.59.11,1.56,4.82-3.49-.23-25.34-1.66-1.58-.11-1-3,1.22-1,19.52-16.31Z"/><path class="cls-1" d="M477.08,183.41a12.16,12.16,0,0,1,4.64,17.36,14,14,0,0,1-9.63,6.58A14.31,14.31,0,0,1,462,205.83a12.17,12.17,0,0,1-4.65-17.36A13.94,13.94,0,0,1,467,181.9,14.33,14.33,0,0,1,477.08,183.41Zm-14.46,5.92a7.58,7.58,0,0,0-2.35,7.16A7.4,7.4,0,0,0,463.1,201a9.58,9.58,0,0,0,8.06,1.75,10.18,10.18,0,0,0,5.27-2.81,7.54,7.54,0,0,0,2.35-7.15,7.35,7.35,0,0,0-2.83-4.49,9.52,9.52,0,0,0-8.05-1.74A10.15,10.15,0,0,0,462.62,189.33Z"/><path class="cls-1" d="M500.91,211.44l.55,4.69-2.34.28-37.5,4.43-2.34.28-.56-4.69,2.35-.27,37.49-4.44Z"/><path class="cls-1" d="M488.19,224.75l.18,4.78-2.36,0-15.09.53a5.57,5.57,0,0,0-3.32,1.25,6.67,6.67,0,0,0-2.49,5.71,7.12,7.12,0,0,0,1.14,3.61,5.66,5.66,0,0,0,5.19,2.81l15.15-.59,2.3,0,.19,4.78-2.36,0-15.1.53A10.15,10.15,0,0,1,464.8,246a11,11,0,0,1-4.41-8.74,11.49,11.49,0,0,1,2.25-7.47,10.12,10.12,0,0,1,8.09-4.39l15.16-.59Z"/><path class="cls-1" d="M468.5,261.53q-3.48-.12-3.81,4.12l-.12,2.35-4.72-.24.13-2.35a12.88,12.88,0,0,1,.51-3.11q1.65-5.82,8.2-5.49h.06l15.26.78.08-1.59.12-2.36,4.71.24-.12,2.36-.08,1.59,6.19.32,2.29.17-.24,4.78-2.36-.18-6.12-.32-.22,4.25-.12,2.35-4.72-.24.12-2.35.22-4.25Z"/><path class="cls-1" d="M487.5,275.21l-.5,4.69-2.35-.25-23.46-2.53-2.35-.26.51-4.69,2.34.25L485.16,275Zm3.58.39,4.69.5-.25,2.35v.06l-.25,2.34-4.69-.5.25-2.35v-.06Z"/><path class="cls-1" d="M481.25,289.56A12.17,12.17,0,0,1,479,307.39a14,14,0,0,1-11.4,2.44,14.35,14.35,0,0,1-8.79-5.23,12.17,12.17,0,0,1,2.28-17.83,14,14,0,0,1,11.4-2.44A14.35,14.35,0,0,1,481.25,289.56Zm-15.62,0a7.56,7.56,0,0,0-4.89,5.73,7.44,7.44,0,0,0,.92,5.23,9.57,9.57,0,0,0,6.8,4.66,10.22,10.22,0,0,0,5.94-.6,7.56,7.56,0,0,0,4.89-5.73,7.39,7.39,0,0,0-.93-5.23,9.53,9.53,0,0,0-6.79-4.66A10.14,10.14,0,0,0,465.63,289.57Z"/><path class="cls-1" d="M445.18,334.25l1.42-4.44,2.27.67L462,334.64a8.41,8.41,0,0,0,4.39.23,6,6,0,0,0,4.73-4.12,5.76,5.76,0,0,0-.12-3.88,7.46,7.46,0,0,0-5-4.59l-2.25-.72-10.84-3.48-2.25-.72,1.44-4.5,2.25.72,10.84,3.48,2.25.72,9.38,3,2.25.72-1.44,4.5-2.14-.69a10.77,10.77,0,0,1,.15,6.87,10.24,10.24,0,0,1-4.73,5.85,11.89,11.89,0,0,1-10.32,1.09l-13.09-4.2Z"/><path class="cls-1" d="M451.83,377a12.14,12.14,0,0,1-8.09,16,13.91,13.91,0,0,1-11.56-1.5,14.27,14.27,0,0,1-6.54-7.86,12.14,12.14,0,0,1,8.09-16,13.91,13.91,0,0,1,11.56,1.5A14.27,14.27,0,0,1,451.83,377Zm-14.73-5.2a7.54,7.54,0,0,0-6.51,3.77,7.35,7.35,0,0,0-.88,5.23,9.56,9.56,0,0,0,4.85,6.67,10.23,10.23,0,0,0,5.81,1.41,7.54,7.54,0,0,0,6.51-3.77,7.29,7.29,0,0,0,.87-5.23,9.54,9.54,0,0,0-4.84-6.67A10.23,10.23,0,0,0,437.1,371.77Z"/><path class="cls-1" d="M433.77,413.47l-1.37,1.92-3.84-2.75,1.38-1.92,2.54-3.55-17.26-12.38-1.91-1.37,2.75-3.84L418,391l17.26,12.38.9-1.25,1.37-1.92,3.84,2.76L440,404.84l-.93,1.3a30.21,30.21,0,0,1,3.62,3.46q5.43,6.3,1.72,11.47L443,423l-3.83-2.75,1.37-1.92q2.09-3-4.28-8.3Z"/><path class="cls-1" d="M392.22,430.76q-2.5-2.42-5.59.49L385,432.92l-3.33-3.34,1.67-1.67a13,13,0,0,1,2.46-2q5.14-3.21,9.76,1.43l0,0,10.79,10.82,1.13-1.12,1.67-1.67,3.33,3.35-1.67,1.66-1.13,1.13,4.38,4.39,1.58,1.67L412.25,451l-1.62-1.71L406.3,445l-3,3-1.67,1.67-3.33-3.35,1.67-1.66,3-3Z"/><path class="cls-1" d="M387.41,462a10.32,10.32,0,0,1-7.15,2.36,11.87,11.87,0,0,1-9.27-4.67l-8.74-10.61-1.58-1.83,3.6-3,1.54,1.78,8.82,10.62a8.4,8.4,0,0,0,3.57,2.57,6,6,0,0,0,6.21-.91,5.8,5.8,0,0,0,2-3.33,7.48,7.48,0,0,0-1.76-6.58l-1.5-1.82-7.24-8.79-1.5-1.82,3.65-3,1.5,1.82,7.24,8.79,1.5,1.82,12.86,15.62,1.5,1.82-3.64,3-1.5-1.83L391,456.17A10.79,10.79,0,0,1,387.41,462Z"/><path class="cls-1" d="M338.83,468.44a13,13,0,0,1,6.26-10.58,12.15,12.15,0,0,1,9-1.7,14,14,0,0,1,9.56,6.63,14.49,14.49,0,0,1,2.32,9.87,12.25,12.25,0,0,1-14.57,10.72,14,14,0,0,1-9.62-6.6l-1.27-2,2-1.27,15.71-10a10.32,10.32,0,0,0-3-2,7.58,7.58,0,0,0-7.6.38,8.75,8.75,0,0,0-4.09,7Zm8.2,7.78a6.22,6.22,0,0,0,3.35,2.28,8.36,8.36,0,0,0,7.42-.76,7.28,7.28,0,0,0,2.46-2.62,8.75,8.75,0,0,0,.49-7.67Z"/><path class="cls-1" d="M301.79,480.33l4.48-1.48.74,2.24,11.08,33.62.74,2.24-3.7,1.22-1-1.16-22.68-24.7L288,525.64l-.12,1.53-3.7,1.21-.74-2.24-11.13-33.6-.74-2.24,4.48-1.48.74,2.24,7.7,23.18,2.88-27.66.11-1.53,2.92-1,1,1.16,18.81,20.52-7.64-23.2Z"/><path class="cls-1" d="M265.32,515.55a12.15,12.15,0,0,1-17.5,4.06,13.92,13.92,0,0,1-6.25-9.84,14.33,14.33,0,0,1,1.85-10.06,12.18,12.18,0,0,1,17.51-4.06,14,14,0,0,1,6.24,9.85A14.25,14.25,0,0,1,265.32,515.55Zm-5.43-14.64a7.58,7.58,0,0,0-7.07-2.59,7.4,7.4,0,0,0-4.58,2.68,9.54,9.54,0,0,0-2,8,10.24,10.24,0,0,0,2.63,5.37,7.56,7.56,0,0,0,7.08,2.58,7.31,7.31,0,0,0,4.57-2.67,9.57,9.57,0,0,0,2-8A10.17,10.17,0,0,0,259.89,500.91Z"/><path class="cls-1" d="M233.35,520.09a12.16,12.16,0,0,1-17.87,2,14,14,0,0,1-5-10.51,14.35,14.35,0,0,1,3-9.77,12.17,12.17,0,0,1,17.86-2,14,14,0,0,1,5.05,10.51A14.34,14.34,0,0,1,233.35,520.09Zm-3.68-15.18a7.57,7.57,0,0,0-6.72-3.4,7.39,7.39,0,0,0-4.86,2.12,9.57,9.57,0,0,0-2.94,7.71,10.18,10.18,0,0,0,2,5.63,7.55,7.55,0,0,0,6.72,3.4,7.34,7.34,0,0,0,4.86-2.12,9.55,9.55,0,0,0,2.94-7.7A10.21,10.21,0,0,0,229.67,504.91Z"/><path class="cls-1" d="M181.42,495.6l4.65.33-.1,2.36-.92,13.77a8.31,8.31,0,0,0,.82,4.32A6,6,0,0,0,191,520a5.76,5.76,0,0,0,3.74-1,7.48,7.48,0,0,0,3.27-6l.16-2.35.81-11.36.16-2.35,4.71.33-.16,2.35L202.87,511l-.17,2.36-.69,9.82-.17,2.36-4.71-.34.16-2.23a10.83,10.83,0,0,1-6.63,1.78,10.3,10.3,0,0,1-6.81-3.21,11.89,11.89,0,0,1-3.51-9.77l1-13.71Z"/></g></g></svg>