<svg xmlns="http://www.w3.org/2000/svg" viewBox="0 0 975.76 133.86"><defs><style>.cls-1{font-size:82.14px;font-family:Adam-Bold, Adam;font-weight:700;}.cls-2{letter-spacing:-0.02em;}.cls-3{letter-spacing:-0.02em;}.cls-4{letter-spacing:-0.02em;}.cls-5{letter-spacing:-0.02em;}.cls-6{letter-spacing:-0.02em;}</style></defs><g id="레이어_2" data-name="레이어 2"><g id="Layer_1" data-name="Layer 1"><text class="cls-1" transform="translate(0 68.99)"><tspan class="cls-2">The</tspan><tspan class="cls-3" x="128.38" y="0"> </tspan><tspan class="cls-2" x="162.05" y="0">Revolution</tspan><tspan class="cls-4" x="511.13" y="0"> </tspan><tspan class="cls-2" x="544.8" y="0">of</tspan><tspan class="cls-3" x="609.03" y="0"> </tspan><tspan class="cls-5" x="642.7" y="0">t</tspan><tspan class="cls-3" x="665.78" y="0">h</tspan><tspan class="cls-2" x="708.49" y="0">e</tspan><tspan class="cls-4" x="749.64" y="0"> </tspan><tspan class="cls-6" x="783.32" y="0">Moo</tspan><tspan x="931.41" y="0">n</tspan></text><path d="M164.89,121.75a8.91,8.91,0,0,0,4.16,7.1l-.46.51a9.65,9.65,0,0,1-4-5.61,9.75,9.75,0,0,1-4.08,6l-.48-.51a9.21,9.21,0,0,0,4.24-7.48V118h.62Zm10-5.58v17.67h-.66v-9.73H171v8.75h-.66V116.65H171v6.86h3.3v-7.34Zm29.58,14.65v.6h-16v-.6h7.66v-4h-5.48v-5h11v-3.62h-11.1v-.6h11.74v4.82h-11v3.76h11.46v.6h-6v4Zm28.38-5.31v.62h-7.56v4.15h-.66v-4.15h-7.8v-.62Zm-14.06-5.34c0-2.14,2.34-3.44,6-3.44s6,1.3,6,3.44-2.36,3.42-6,3.42S218.83,122.29,218.83,120.17Zm.9,12.57h11.38v.62h-12v-5h.64Zm-.24-12.57c0,1.66,2.18,2.82,5.36,2.82s5.36-1.16,5.36-2.82-2.2-2.84-5.36-2.84S219.49,118.49,219.49,120.17ZM271,118.91H260.89v-.6h4.74V116h.66v2.3H271Zm-5,7.78c-2.32,0-3.86-1.26-3.86-3.22s1.54-3.22,3.86-3.22,3.82,1.26,3.82,3.22S268.23,126.69,266,126.69Zm0-.58c1.9,0,3.18-1.12,3.18-2.64s-1.28-2.64-3.18-2.64-3.22,1.12-3.22,2.64S264,126.11,266,126.11Zm-2.32,2.5h11.52v5.23h-.66v-4.63H263.63Zm11.52-12.44v11.2h-.66v-2.64h-3.72v-.6h3.72v-2.62h-3.72v-.6h3.72v-4.74Zm22.8,9h-7.76v-7.58H298v1.78h4.94v-3.18h.66v10.54h-.66v-3.28H298Zm-.64-7h-6.48v6.42h6.48Zm6.32,12.39c0,2-2.16,3.22-5.7,3.22s-5.72-1.18-5.72-3.22,2.16-3.23,5.72-3.23S303.63,128.49,303.63,130.54Zm-.64,0c0-1.59-2-2.65-5.06-2.65s-5.08,1.06-5.08,2.65,2,2.64,5.08,2.64S303,132.14,303,130.54ZM298,120v2.88h4.94V120ZM317.81,129a77.07,77.07,0,0,0,11.9-.65l.08.52a65.77,65.77,0,0,1-11.84.77Zm10.24-7.51c0,2.38-1.86,4-4.58,4s-4.6-1.58-4.6-4,1.86-4,4.6-4S328.05,119.15,328.05,121.53Zm-8.54,0c0,1.9,1.64,3.36,4,3.36s3.94-1.46,3.94-3.36-1.64-3.36-3.94-3.36S319.51,119.61,319.51,121.53Zm12.2-5.36v17.67h-.66V116.17Zm39.06,1.08c0,4.16-3.62,7.16-8.46,8.42l-.28-.54c4.42-1.18,7.78-3.72,8-7.28h-7.18v-.6Zm5.92,15.81v.6H365v-4.14h10.34v-2.61h-10.4v-.6h11v3.79H365.61v3Zm-.74-7.73h-.66v-9.16H376Zm30.08-1v.6H390.09v-.6Zm-14-4.68c0-2,2.26-3.1,6-3.1s6,1.12,6,3.1-2.26,3.12-6,3.12S392,121.63,392,119.63Zm.8,13.33h11.64v.6H392.19v-3.8h11v-2.25h-11.1v-.58h11.74v3.41h-11Zm-.14-13.33c0,1.56,2.14,2.54,5.36,2.54s5.36-1,5.36-2.54-2.14-2.52-5.36-2.52S392.69,118.09,392.69,119.63Zm43.2-1.86v5h6.62v-5h.66v11.67h-7.94V117.77Zm0,11.06h6.62v-5.42h-6.62Zm12.42-12.64v17.65h-.66V116.19Zm30.12,11.36h-7.62v6.31h-.66v-6.31h-7.64V127h15.92Zm-14.74-3c2.34-.4,6.46-2.28,6.46-5v-.44h-6v-.6h6v-2.38h.66v2.38h6v.6h-6v.44c0,2.76,4.1,4.64,6.44,5l-.28.56c-2.26-.48-5.56-1.94-6.5-4.3-.92,2.38-4.22,3.82-6.5,4.3ZM493,128.67a40.62,40.62,0,0,0,8.42-.66l.1.62a41.12,41.12,0,0,1-8.52.67h-1.3V118h8.14v.6h-7.48v10.1Zm14.4-4.48h-3.24v9.67h-.66V116.19h.66v7.4h3.24Z"/></g></g></svg>