<svg xmlns="http://www.w3.org/2000/svg" viewBox="0 0 198 45"><defs><style>.cls-1{fill:#231815;}.cls-2{fill:#fff;}</style></defs><title>Asset 3</title><g id="Layer_2" data-name="Layer 2"><g id="Layer_1-2" data-name="Layer 1"><rect class="cls-1" width="198" height="18"/><rect class="cls-1" x="43.04" y="27" width="154.96" height="18"/><path class="cls-2" d="M4.38,4.23h1v8.16h-1V4.23Z"/><path class="cls-2" d="M9.11,6.63h.48v1H8.22v4.8h-1V7.59H6.47v-1h.8a5.82,5.82,0,0,1,.15-1C7.68,4.52,8.24,4,9.11,4h.48v1H9.11c-.5,0-.79.58-.87,1.7Z"/><path class="cls-2" d="M15.31,6.63h1l.11.34,1,3.49,1.47-3.53.12-.3h.65l.12.3,1.48,3.53L22.2,7l.11-.34h1l-.16.61L21.79,12l-.11.35H21l-.12-.3L19.31,8.34l-1.57,3.75-.12.3h-.69L16.82,12l-1.34-4.8Z"/><path class="cls-2" d="M29,11.26a2.65,2.65,0,0,1-2.23,1.13,2.5,2.5,0,0,1-1.73-.7,2.85,2.85,0,0,1-.91-2.18,3,3,0,0,1,.68-1.95,2.48,2.48,0,0,1,2-.93,2.42,2.42,0,0,1,1.71.69,2.84,2.84,0,0,1,.93,2.19V10H25.12a2.07,2.07,0,0,0,.28.67,1.56,1.56,0,0,0,1.35.77,1.76,1.76,0,0,0,1.46-.75ZM28.43,9a1.23,1.23,0,0,0-.33-.76,1.67,1.67,0,0,0-1.35-.68,1.47,1.47,0,0,0-.71.18A1.73,1.73,0,0,0,25.12,9Z"/><path class="cls-2" d="M40.21,11.28a2.48,2.48,0,0,1-2.12,1.11,2.36,2.36,0,0,1-1.67-.69,2.86,2.86,0,0,1-.91-2.19,3,3,0,0,1,.68-2,2.37,2.37,0,0,1,1.9-.92,2.46,2.46,0,0,1,2.13,1l-.79.55a1.51,1.51,0,0,0-1.34-.62,1.37,1.37,0,0,0-1,.38,1.92,1.92,0,0,0-.65,1.54,2.17,2.17,0,0,0,.31,1.14,1.48,1.48,0,0,0,1.31.78,1.69,1.69,0,0,0,1.35-.7Z"/><path class="cls-2" d="M42,7.55a2.41,2.41,0,0,1,1.93-.92,2.48,2.48,0,0,1,1.68.66V6.63h1v5.76h-1v-.66a2.54,2.54,0,0,1-1.68.66,2.47,2.47,0,0,1-1.72-.7,2.86,2.86,0,0,1-.92-2.18A2.87,2.87,0,0,1,42,7.55Zm.6,3.12a1.54,1.54,0,0,0,1.33.76,1.51,1.51,0,0,0,1-.39,2,2,0,0,0,.67-1.53,2.11,2.11,0,0,0-.35-1.17,1.54,1.54,0,0,0-1.33-.75,1.48,1.48,0,0,0-1,.38,1.94,1.94,0,0,0-.67,1.54A2,2,0,0,0,42.58,10.67Z"/><path class="cls-2" d="M53,12.4h-.95V9.11a1.7,1.7,0,0,0-.23-.86,1.22,1.22,0,0,0-1.09-.66,1.18,1.18,0,0,0-.75.26,1.54,1.54,0,0,0-.57,1.26v3.28h-1V6.63h1v.45a2.17,2.17,0,0,1,1.32-.45,2.11,2.11,0,0,1,1.43.55A2.44,2.44,0,0,1,53,9.11V12.4Z"/><path class="cls-2" d="M54.71,4.23h1V7h-1V4.23Z"/><path class="cls-2" d="M57.91,10.69c0,.48.3.72.88.74h.48v1h-.48a2.61,2.61,0,0,1-.64-.08,1.46,1.46,0,0,1-1.2-1.6V7.59h-.8v-1H57V4.9h1l0,.48V6.63h1.35v1H57.92Z"/><path class="cls-2" d="M65.86,7.55a2.41,2.41,0,0,1,1.93-.92,2.48,2.48,0,0,1,1.68.66V6.64h1v5.27a2.81,2.81,0,0,1-.12.79,3.28,3.28,0,0,1-.36.79,3.05,3.05,0,0,1-.54.69,2.46,2.46,0,0,1-.73.49,2.08,2.08,0,0,1-.88.19h-.48v-1h.48a1.53,1.53,0,0,0,1.14-.59,2.13,2.13,0,0,0,.53-1.4v-.18a2.54,2.54,0,0,1-1.68.66,2.47,2.47,0,0,1-1.72-.7,2.86,2.86,0,0,1-.92-2.18A2.87,2.87,0,0,1,65.86,7.55Zm.6,3.12a1.54,1.54,0,0,0,1.33.76,1.51,1.51,0,0,0,1-.39,2,2,0,0,0,.67-1.53,2.11,2.11,0,0,0-.35-1.17,1.54,1.54,0,0,0-1.33-.75,1.48,1.48,0,0,0-1,.38,1.94,1.94,0,0,0-.67,1.54A2,2,0,0,0,66.46,10.67Z"/><path class="cls-2" d="M72.58,7.55a2.48,2.48,0,0,1,3.64-.23,2.84,2.84,0,0,1,.93,2.19,2.91,2.91,0,0,1-.71,2,2.42,2.42,0,0,1-1.93.93,2.47,2.47,0,0,1-1.72-.7,2.86,2.86,0,0,1-.92-2.18A2.87,2.87,0,0,1,72.58,7.55Zm.6,3.12a1.54,1.54,0,0,0,1.33.76,1.51,1.51,0,0,0,1-.39,2,2,0,0,0,.67-1.53,2.11,2.11,0,0,0-.35-1.17,1.54,1.54,0,0,0-1.33-.75,1.46,1.46,0,0,0-1,.38,1.94,1.94,0,0,0-.67,1.54A2,2,0,0,0,73.18,10.67Z"/><path class="cls-2" d="M84,7.55a2.41,2.41,0,0,1,1.93-.92,2.48,2.48,0,0,1,1.68.66V6.63h1v5.76h-1v-.66a2.54,2.54,0,0,1-1.68.66,2.47,2.47,0,0,1-1.72-.7,2.86,2.86,0,0,1-.92-2.18A2.87,2.87,0,0,1,84,7.55Zm.6,3.12a1.53,1.53,0,0,0,1.33.76,1.51,1.51,0,0,0,1-.39,2,2,0,0,0,.67-1.53,2.11,2.11,0,0,0-.35-1.17,1.54,1.54,0,0,0-1.33-.75,1.46,1.46,0,0,0-1,.38,1.94,1.94,0,0,0-.67,1.54A2,2,0,0,0,84.58,10.67Z"/><path class="cls-2" d="M91.51,10.69c0,.48.3.72.88.74h.48v1h-.48a2.61,2.61,0,0,1-.64-.08,1.46,1.46,0,0,1-1.2-1.6V7.59h-.8v-1h.8V4.9h1l0,.48V6.63h1.35v1H91.52Z"/><path class="cls-2" d="M100.27,10.69c0,.48.3.72.88.74h.48v1h-.48a2.61,2.61,0,0,1-.64-.08,1.46,1.46,0,0,1-1.2-1.6V7.59h-.8v-1h.8V4.9h1V6.63h1.35v1h-1.35Z"/><path class="cls-2" d="M105.11,6.63a2.06,2.06,0,0,1,1.42.55,2.42,2.42,0,0,1,.86,1.93V12.4h-1V9.11a1.7,1.7,0,0,0-.23-.86,1.23,1.23,0,0,0-1.09-.66,1.16,1.16,0,0,0-.75.26,1.54,1.54,0,0,0-.57,1.26v3.28h-1V4.51h1V7.08A2.17,2.17,0,0,1,105.11,6.63Z"/><path class="cls-2" d="M113.7,11.26a2.66,2.66,0,0,1-2.23,1.13,2.5,2.5,0,0,1-1.73-.7,2.85,2.85,0,0,1-.91-2.18,2.94,2.94,0,0,1,.68-1.95,2.48,2.48,0,0,1,2-.93,2.44,2.44,0,0,1,1.71.69,2.84,2.84,0,0,1,.93,2.19V10h-4.28a2.35,2.35,0,0,0,.29.67,1.56,1.56,0,0,0,1.35.77,1.76,1.76,0,0,0,1.46-.75ZM113.15,9a1.23,1.23,0,0,0-.33-.76,1.68,1.68,0,0,0-1.35-.68,1.47,1.47,0,0,0-.71.18A1.77,1.77,0,0,0,109.83,9Z"/><path class="cls-2" d="M123.55,8.29a.48.48,0,0,0-.13-.33,1.15,1.15,0,0,0-1-.37,1.61,1.61,0,0,0-.49.07q-.6.2-.6.63a.32.32,0,0,0,.07.2,2.9,2.9,0,0,0,1.1.49c.4.12.7.22.89.3q1.27.51,1.26,1.44a1.4,1.4,0,0,1-.36.91,2.35,2.35,0,0,1-1.87.76A2.64,2.64,0,0,1,121,12a1.49,1.49,0,0,1-.73-1.25h1a.45.45,0,0,0,.14.33,1.45,1.45,0,0,0,1.13.38,2.09,2.09,0,0,0,.55-.08q.72-.18.72-.63a.32.32,0,0,0-.06-.18,2.65,2.65,0,0,0-1.09-.48c-.39-.12-.69-.22-.89-.3-.85-.34-1.27-.83-1.28-1.47a1.46,1.46,0,0,1,.36-.94,2.07,2.07,0,0,1,1.69-.72,2.31,2.31,0,0,1,1.33.39,1.51,1.51,0,0,1,.72,1.27Z"/><path class="cls-2" d="M126.13,7.11V6.63h1v.66a2.48,2.48,0,0,1,3.4,0,2.87,2.87,0,0,1,.92,2.19,2.91,2.91,0,0,1-.71,2,2.42,2.42,0,0,1-1.93.93,2.48,2.48,0,0,1-1.68-.66v3.13h-1V9.51h0Zm1.31,3.56a1.54,1.54,0,0,0,1.33.76,1.49,1.49,0,0,0,1-.39,1.92,1.92,0,0,0,.67-1.53,2.11,2.11,0,0,0-.35-1.17,1.51,1.51,0,0,0-1.32-.75,1.58,1.58,0,0,0-1,.37,2,2,0,0,0-.68,1.55A2.08,2.08,0,0,0,127.44,10.67Z"/><path class="cls-2" d="M137.24,11.26A2.65,2.65,0,0,1,135,12.39a2.51,2.51,0,0,1-1.73-.7,2.85,2.85,0,0,1-.91-2.18,3,3,0,0,1,.68-1.95,2.51,2.51,0,0,1,3.68-.24,2.87,2.87,0,0,1,.92,2.19V10h-4.27a1.9,1.9,0,0,0,.29.67,1.53,1.53,0,0,0,1.34.77,1.76,1.76,0,0,0,1.46-.75ZM136.69,9a1.27,1.27,0,0,0-.32-.76A1.7,1.7,0,0,0,135,7.59a1.5,1.5,0,0,0-.71.18A1.73,1.73,0,0,0,133.38,9Z"/><path class="cls-2" d="M143.48,11.26a2.65,2.65,0,0,1-2.23,1.13,2.51,2.51,0,0,1-1.73-.7,2.89,2.89,0,0,1-.91-2.18,3,3,0,0,1,.68-1.95A2.51,2.51,0,0,1,143,7.32a2.87,2.87,0,0,1,.92,2.19V10h-4.27a1.9,1.9,0,0,0,.29.67,1.53,1.53,0,0,0,1.34.77,1.76,1.76,0,0,0,1.46-.75ZM142.93,9a1.27,1.27,0,0,0-.32-.76,1.7,1.7,0,0,0-1.36-.68,1.5,1.5,0,0,0-.71.18A1.73,1.73,0,0,0,139.62,9Z"/><path class="cls-2" d="M145.56,7.55a2.41,2.41,0,0,1,1.93-.92,2.48,2.48,0,0,1,1.68.66V3.75h1v8.64h-1v-.66a2.54,2.54,0,0,1-1.68.66,2.47,2.47,0,0,1-1.72-.7,2.86,2.86,0,0,1-.92-2.18A2.92,2.92,0,0,1,145.56,7.55Zm.6,3.12a1.54,1.54,0,0,0,1.33.76,1.49,1.49,0,0,0,1-.39,1.92,1.92,0,0,0,.67-1.53,2.11,2.11,0,0,0-.35-1.17,1.53,1.53,0,0,0-1.33-.75,1.48,1.48,0,0,0-1,.38,1.94,1.94,0,0,0-.67,1.54A2.08,2.08,0,0,0,146.16,10.67Z"/><path class="cls-2" d="M157.44,7.55a2.41,2.41,0,0,1,1.93-.92,2.46,2.46,0,0,1,1.72.69A2.87,2.87,0,0,1,162,9.51a2.91,2.91,0,0,1-.71,2,2.42,2.42,0,0,1-1.93.93,2.47,2.47,0,0,1-1.72-.7,2.86,2.86,0,0,1-.92-2.18A2.92,2.92,0,0,1,157.44,7.55Zm.6,3.12a1.54,1.54,0,0,0,1.33.76,1.49,1.49,0,0,0,1-.39,1.92,1.92,0,0,0,.67-1.53,2.11,2.11,0,0,0-.35-1.17,1.53,1.53,0,0,0-1.33-.75,1.48,1.48,0,0,0-1,.38,1.94,1.94,0,0,0-.67,1.54A2.08,2.08,0,0,0,158,10.67Z"/><path class="cls-2" d="M165.37,6.63h.48v1h-1.37v4.8h-1V7.59h-.79v-1h.8a7,7,0,0,1,.15-1c.26-1.1.83-1.65,1.69-1.65h.48v1h-.48c-.5,0-.78.58-.86,1.7Z"/><path class="cls-2" d="M172.21,3.75h1v8.64h-1V3.75Z"/><path class="cls-2" d="M174.35,5.89v-1h1v1h-1Zm0,.74h1v5.76h-1V6.63Z"/><path class="cls-2" d="M177.15,7.55a2.43,2.43,0,0,1,1.94-.92,2.48,2.48,0,0,1,1.68.66V6.64h1v5.27a2.81,2.81,0,0,1-.12.79,3.28,3.28,0,0,1-.36.79,3.37,3.37,0,0,1-.54.69,2.51,2.51,0,0,1-.74.49,2,2,0,0,1-.87.19h-.48v-1h.48a1.53,1.53,0,0,0,1.14-.59,2.13,2.13,0,0,0,.53-1.4v-.18a2.54,2.54,0,0,1-1.68.66,2.47,2.47,0,0,1-1.72-.7,2.83,2.83,0,0,1-.92-2.18A2.91,2.91,0,0,1,177.15,7.55Zm.6,3.12a1.56,1.56,0,0,0,1.34.76,1.47,1.47,0,0,0,1-.39,1.93,1.93,0,0,0,.68-1.53,2.11,2.11,0,0,0-.35-1.17,1.54,1.54,0,0,0-1.33-.75,1.46,1.46,0,0,0-1,.38,1.94,1.94,0,0,0-.67,1.54A2.07,2.07,0,0,0,177.75,10.67Z"/><path class="cls-2" d="M185.93,6.63a2.06,2.06,0,0,1,1.42.55,2.42,2.42,0,0,1,.86,1.93V12.4h-.95V9.11a1.7,1.7,0,0,0-.23-.86,1.23,1.23,0,0,0-1.09-.66,1.16,1.16,0,0,0-.75.26,1.54,1.54,0,0,0-.57,1.26v3.28h-1V4.51h1V7.08A2.17,2.17,0,0,1,185.93,6.63Z"/><path class="cls-2" d="M191.17,10.69c0,.48.3.72.88.74h.48v1h-.48a2.61,2.61,0,0,1-.64-.08,1.46,1.46,0,0,1-1.2-1.6V7.59h-.8v-1h.8V4.9h1V6.63h1.35v1h-1.35Z"/><path class="cls-2" d="M194.37,11.11h1l0,.53a2.49,2.49,0,0,1-.77,1.69l-.15.11h-1.48l1-.85a1.6,1.6,0,0,0,.44-1Z"/><path class="cls-2" d="M48.41,37.69c0,.48.3.72.87.74h.48v1h-.48a2.59,2.59,0,0,1-.63-.08,1.46,1.46,0,0,1-1.2-1.6V34.59h-.81v-1h.81V31.9h1v1.73h1.34v1H48.42Z"/><path class="cls-2" d="M53.24,33.63a2.07,2.07,0,0,1,1.43.55,2.41,2.41,0,0,1,.85,1.93v2.8l0,.49h-.95v-.48l0-2.81a1.69,1.69,0,0,0-.22-.86,1.23,1.23,0,0,0-1.1-.66,1.13,1.13,0,0,0-.74.26,1.55,1.55,0,0,0-.58,1.26v3.28H51V31.51h1v2.57A2.21,2.21,0,0,1,53.24,33.63Z"/><path class="cls-2" d="M57.67,34.55a2.48,2.48,0,0,1,3.61-.26v-.66h1v5.76h-1v-.66a2.5,2.5,0,0,1-1.68.66,2.45,2.45,0,0,1-1.71-.7A2.84,2.84,0,0,1,57,36.51,2.92,2.92,0,0,1,57.67,34.55Zm.6,3.12a1.55,1.55,0,0,0,1.33.76,1.47,1.47,0,0,0,1-.39,1.92,1.92,0,0,0,.67-1.53,2.1,2.1,0,0,0-.34-1.17,1.55,1.55,0,0,0-1.34-.75,1.46,1.46,0,0,0-1,.38,2,2,0,0,0-.68,1.54A2.08,2.08,0,0,0,58.27,37.67Z"/><path class="cls-2" d="M65.21,37.69c0,.48.3.72.87.74h.48v1h-.48a2.59,2.59,0,0,1-.63-.08,1.46,1.46,0,0,1-1.2-1.6V34.59h-.81v-1h.81V31.9h1v1.73h1.34v1H65.22Z"/><path class="cls-2" d="M76.74,34.44a2,2,0,0,1,1.63-.81,2,2,0,0,1,1.32.49,2.25,2.25,0,0,1,.82,1.81V39.4h-1V35.93a1.55,1.55,0,0,0-.18-.73,1.09,1.09,0,0,0-1-.61,1.12,1.12,0,0,0-.65.21,1.33,1.33,0,0,0-.52,1.13V39.4h-.95V35.93a1.55,1.55,0,0,0-.18-.73,1.1,1.1,0,0,0-1-.61,1.12,1.12,0,0,0-.65.21,1.34,1.34,0,0,0-.53,1.13v3.46h-1V33.63h1V34a2,2,0,0,1,1.18-.38,2.11,2.11,0,0,1,1.66.84Z"/><path class="cls-2" d="M82.66,34.55a2.48,2.48,0,0,1,3.64-.23,2.84,2.84,0,0,1,.93,2.19,2.91,2.91,0,0,1-.71,2,2.42,2.42,0,0,1-1.93.93,2.47,2.47,0,0,1-1.72-.7,3.05,3.05,0,0,1-.21-4.14Zm.6,3.12a1.54,1.54,0,0,0,1.33.76,1.51,1.51,0,0,0,1-.39,2,2,0,0,0,.67-1.53,2.11,2.11,0,0,0-.35-1.17,1.54,1.54,0,0,0-1.33-.75,1.48,1.48,0,0,0-1,.38,1.94,1.94,0,0,0-.67,1.54A2,2,0,0,0,83.26,37.67Z"/><path class="cls-2" d="M88.9,34.55a2.48,2.48,0,0,1,3.64-.23,2.84,2.84,0,0,1,.93,2.19,2.91,2.91,0,0,1-.71,2,2.42,2.42,0,0,1-1.93.93,2.47,2.47,0,0,1-1.72-.7,3.05,3.05,0,0,1-.21-4.14Zm.6,3.12a1.53,1.53,0,0,0,1.33.76,1.47,1.47,0,0,0,1-.39,1.93,1.93,0,0,0,.68-1.53,2.11,2.11,0,0,0-.35-1.17,1.54,1.54,0,0,0-1.33-.75,1.46,1.46,0,0,0-1,.38,1.94,1.94,0,0,0-.67,1.54A2,2,0,0,0,89.5,37.67Z"/><path class="cls-2" d="M99.48,39.4h-1V36.11a1.7,1.7,0,0,0-.23-.86,1.23,1.23,0,0,0-1.09-.66,1.16,1.16,0,0,0-.75.26,1.54,1.54,0,0,0-.57,1.26v3.28h-1V33.63h1v.45a2.17,2.17,0,0,1,1.32-.45,2.06,2.06,0,0,1,1.42.55,2.42,2.42,0,0,1,.86,1.93V39.4Z"/><path class="cls-2" d="M101.39,30.75h1v8.64h-1V30.75Z"/><path class="cls-2" d="M103.52,32.89v-1h1v1h-1Zm0,.74h1v5.76h-1V33.63Z"/><path class="cls-2" d="M106.33,34.55a2.41,2.41,0,0,1,1.93-.92,2.44,2.44,0,0,1,1.68.66v-.65h1l0,.48v4.79a2.81,2.81,0,0,1-.12.79,3.67,3.67,0,0,1-.35.79,3.41,3.41,0,0,1-.55.69,2.46,2.46,0,0,1-.73.49,2.05,2.05,0,0,1-.88.19h-.48v-1h.48a1.5,1.5,0,0,0,1.14-.59,2.08,2.08,0,0,0,.53-1.4v-.18a2.54,2.54,0,0,1-1.68.66,2.43,2.43,0,0,1-1.71-.7,2.84,2.84,0,0,1-.93-2.18A2.92,2.92,0,0,1,106.33,34.55Zm.6,3.12a1.55,1.55,0,0,0,1.33.76,1.49,1.49,0,0,0,1-.39,1.92,1.92,0,0,0,.67-1.53,2,2,0,0,0-.35-1.17,1.53,1.53,0,0,0-1.33-.75,1.5,1.5,0,0,0-1,.38,2,2,0,0,0-.67,1.54A2.08,2.08,0,0,0,106.93,37.67Z"/><path class="cls-2" d="M115.1,33.63a2.07,2.07,0,0,1,1.43.55,2.41,2.41,0,0,1,.85,1.93v2.8l0,.49h-1l0-.48V36.11a1.69,1.69,0,0,0-.22-.86,1.23,1.23,0,0,0-1.1-.66,1.13,1.13,0,0,0-.74.26,1.52,1.52,0,0,0-.58,1.26v3.28h-1V31.51h1v2.57A2.17,2.17,0,0,1,115.1,33.63Z"/><path class="cls-2" d="M120.35,37.69c0,.48.3.72.87.74h.48v1h-.48a2.59,2.59,0,0,1-.63-.08,1.46,1.46,0,0,1-1.2-1.6V34.59h-.81v-1h.81V31.9h1v1.73h1.34v1h-1.34Z"/><path class="cls-2" d="M127.43,33.63h1l.11.34,1,3.49L131,33.93l.12-.3h.65l.12.3,1.47,3.53,1-3.49.11-.34h1l-.17.61L133.91,39l-.11.35h-.68l-.12-.3-1.58-3.75-1.57,3.75-.12.3h-.68l-.11-.35-1.35-4.8Z"/><path class="cls-2" d="M136.52,32.89v-1h1v1h-1Zm0,.74h1v5.76h-1V33.63Z"/><path class="cls-2" d="M139.1,30.75h1v8.64h-1V30.75Z"/><path class="cls-2" d="M141.42,30.75h1v8.64h-1V30.75Z"/><path class="cls-2" d="M149.12,34.55a2.48,2.48,0,0,1,3.61-.26v-.18l0-.47h1v.48l0,4.79a2.81,2.81,0,0,1-.12.79,3.24,3.24,0,0,1-.35.79,3.41,3.41,0,0,1-.55.69,2.34,2.34,0,0,1-.73.49,2,2,0,0,1-.87.19h-.48v-1h.48a1.53,1.53,0,0,0,1.14-.59,2.12,2.12,0,0,0,.52-1.4v-.18a2.5,2.5,0,0,1-1.68.66,2.45,2.45,0,0,1-1.71-.7,2.84,2.84,0,0,1-.93-2.18A2.92,2.92,0,0,1,149.12,34.55Zm.6,3.12a1.55,1.55,0,0,0,1.33.76,1.47,1.47,0,0,0,1-.39,1.92,1.92,0,0,0,.67-1.53,2.1,2.1,0,0,0-.34-1.17,1.55,1.55,0,0,0-1.34-.75,1.46,1.46,0,0,0-1,.38,2,2,0,0,0-.68,1.54A2.08,2.08,0,0,0,149.72,37.67Z"/><path class="cls-2" d="M155.39,33.64h1v.48l0,3.07a1.17,1.17,0,0,0,.23.69,1.38,1.38,0,0,0,1.14.55,1.44,1.44,0,0,0,.75-.21,1.17,1.17,0,0,0,.61-1V33.64h1v3.55a2.06,2.06,0,0,1-.51,1.37,2.23,2.23,0,0,1-1.81.83,2.36,2.36,0,0,1-1.5-.52,2.06,2.06,0,0,1-.83-1.68V34.11Z"/><path class="cls-2" d="M161.52,32.89v-1h1v1h-1Zm0,.74h1v5.76h-1V33.63Z"/><path class="cls-2" d="M164.33,34.55a2.41,2.41,0,0,1,1.93-.92,2.48,2.48,0,0,1,1.68.66V30.75h1v8.64h-1v-.66a2.54,2.54,0,0,1-1.68.66,2.47,2.47,0,0,1-1.72-.7,3.05,3.05,0,0,1-.21-4.14Zm.6,3.12a1.54,1.54,0,0,0,1.33.76,1.51,1.51,0,0,0,1-.39,2,2,0,0,0,.67-1.53,2.11,2.11,0,0,0-.35-1.17,1.54,1.54,0,0,0-1.33-.75,1.48,1.48,0,0,0-1,.38,1.94,1.94,0,0,0-.67,1.54A2,2,0,0,0,164.93,37.67Z"/><path class="cls-2" d="M175.21,38.26A2.65,2.65,0,0,1,173,39.39a2.5,2.5,0,0,1-1.73-.7,2.85,2.85,0,0,1-.91-2.18,3,3,0,0,1,.68-1.95,2.48,2.48,0,0,1,2-.93,2.42,2.42,0,0,1,1.71.69,2.84,2.84,0,0,1,.93,2.19V37h-4.27a2.07,2.07,0,0,0,.28.67,1.56,1.56,0,0,0,1.35.77,1.76,1.76,0,0,0,1.46-.75ZM174.66,36a1.23,1.23,0,0,0-.33-.76,1.67,1.67,0,0,0-1.35-.68,1.47,1.47,0,0,0-.71.18,1.73,1.73,0,0,0-.92,1.26Z"/><path class="cls-2" d="M182,33.64h1v3.55a1.1,1.1,0,0,0,.23.69,1.38,1.38,0,0,0,1.14.55,1.41,1.41,0,0,0,.74-.21,1.15,1.15,0,0,0,.61-1V33.64h1l0,.48v3.07a2.1,2.1,0,0,1-.5,1.37,2.24,2.24,0,0,1-1.81.83,2.36,2.36,0,0,1-1.5-.52,2,2,0,0,1-.83-1.68V33.64Z"/><path class="cls-2" d="M191.15,35.29A.49.49,0,0,0,191,35a1.15,1.15,0,0,0-1-.37,1.66,1.66,0,0,0-.49.07q-.6.2-.6.63a.4.4,0,0,0,.07.2,3,3,0,0,0,1.11.49c.4.12.69.22.89.3q1.26.51,1.26,1.44a1.4,1.4,0,0,1-.36.91,2.37,2.37,0,0,1-1.88.76,2.69,2.69,0,0,1-1.5-.42,1.51,1.51,0,0,1-.73-1.25h1a.46.46,0,0,0,.15.33,1.44,1.44,0,0,0,1.12.38,2.16,2.16,0,0,0,.56-.08q.72-.18.72-.63a.32.32,0,0,0-.06-.18,2.72,2.72,0,0,0-1.1-.48c-.39-.12-.68-.22-.88-.3Q188,36.25,188,35.29a1.46,1.46,0,0,1,.36-.94,2.09,2.09,0,0,1,1.69-.72,2.34,2.34,0,0,1,1.34.39,1.51,1.51,0,0,1,.72,1.27Z"/><path class="cls-2" d="M194,38.44h1v.48h0v.48h-1v-.48h0Z"/></g></g></svg>