<svg xmlns="http://www.w3.org/2000/svg" viewBox="0 0 264.06 19.19"><g id="레이어_2" data-name="레이어 2"><g id="Layer_1" data-name="Layer 1"><path d="M8.5.3l8.21,12.84H0Z"/><path d="M28,14.83H26.13l.5-1.18L32.14,1l.23-.51h1.1L33.7,1l5.5,12.7.51,1.18H37.87l-.23-.51L32.92,3.43,28.2,14.32Z"/><path d="M57.21,6.11a3.59,3.59,0,0,1,5.2-.57,4,4,0,0,1,1.44,3.2V14l0,.87H62.2l0-.85,0-5.26a2.8,2.8,0,0,0-.32-1.29,1.95,1.95,0,0,0-2.9-.7,2.33,2.33,0,0,0-.93,2V14l0,.87H56.36l0-.85,0-4.42V8.74A2.8,2.8,0,0,0,56,7.45a1.95,1.95,0,0,0-2.9-.7,2.33,2.33,0,0,0-.93,2v6.09H50.48V4.68h1.69v.67a3.65,3.65,0,0,1,2.07-.67,3.74,3.74,0,0,1,2.92,1.48S57.19,6.14,57.21,6.11Z"/><path d="M67.63,6.3a4.39,4.39,0,0,1,6.44-.4,5,5,0,0,1,1.62,3.85,5.13,5.13,0,0,1-1.24,3.45,4.35,4.35,0,0,1-6.43.4,5,5,0,0,1-1.63-3.85A5.17,5.17,0,0,1,67.63,6.3Zm1.06,5.5A2.72,2.72,0,0,0,71,13.14a2.66,2.66,0,0,0,1.78-.68A3.42,3.42,0,0,0,74,9.75a3.63,3.63,0,0,0-.61-2A2.71,2.71,0,0,0,71,6.37,2.67,2.67,0,0,0,69.26,7a3.45,3.45,0,0,0-1.18,2.71A3.63,3.63,0,0,0,68.69,11.8Z"/><path d="M78.64,6.3a4.38,4.38,0,0,1,6.43-.4A5,5,0,0,1,86.7,9.75a5.14,5.14,0,0,1-1.25,3.45,4.35,4.35,0,0,1-6.43.4,5,5,0,0,1-1.63-3.85A5.13,5.13,0,0,1,78.64,6.3Zm1,5.5A2.73,2.73,0,0,0,82,13.14a2.66,2.66,0,0,0,1.78-.68A3.42,3.42,0,0,0,85,9.75a3.63,3.63,0,0,0-.61-2A2.71,2.71,0,0,0,82,6.37,2.67,2.67,0,0,0,80.26,7a3.45,3.45,0,0,0-1.18,2.71A3.63,3.63,0,0,0,79.69,11.8Z"/><path d="M97.29,14.85H95.62l0-.85,0-4.95a3,3,0,0,0-.4-1.52,2.17,2.17,0,0,0-1.93-1.16,2.07,2.07,0,0,0-1.31.46,2.7,2.7,0,0,0-1,2.22v5.78h-1.7V4.68h1.7v.8a3.84,3.84,0,0,1,2.32-.8,3.67,3.67,0,0,1,2.52,1,4.26,4.26,0,0,1,1.5,3.4V14Z"/><path d="M114.77,7.62a.94.94,0,0,0-.23-.6,2.09,2.09,0,0,0-1.7-.65,2.8,2.8,0,0,0-.86.13c-.71.22-1.06.59-1.06,1.12a.51.51,0,0,0,.13.33,4.92,4.92,0,0,0,1.94.87c.71.21,1.23.39,1.57.53,1.49.61,2.23,1.45,2.22,2.54a2.47,2.47,0,0,1-.64,1.61,4.1,4.1,0,0,1-3.3,1.33,4.72,4.72,0,0,1-2.64-.74,2.61,2.61,0,0,1-1.29-2.2h1.69a.86.86,0,0,0,.26.59,2.54,2.54,0,0,0,2,.66,3.67,3.67,0,0,0,1-.13c.84-.21,1.27-.58,1.27-1.12a.65.65,0,0,0-.11-.32,4.83,4.83,0,0,0-1.92-.84c-.7-.22-1.22-.39-1.57-.53-1.5-.61-2.25-1.47-2.26-2.58a2.64,2.64,0,0,1,.63-1.68,3.68,3.68,0,0,1,3-1.26,4.09,4.09,0,0,1,2.35.69,2.66,2.66,0,0,1,1.27,2.25Z"/><path d="M123.34,4.68a3.67,3.67,0,0,1,2.51,1,4.24,4.24,0,0,1,1.51,3.4V14l0,.87h-1.67l0-.85,0-4.95a3,3,0,0,0-.4-1.52,2.14,2.14,0,0,0-1.92-1.16,2.05,2.05,0,0,0-1.31.46,2.68,2.68,0,0,0-1,2.22v5.78h-1.69V1H121V5.48A3.86,3.86,0,0,1,123.34,4.68Z"/><path d="M131.14,6.3a4.31,4.31,0,0,1,3.41-1.62,4.27,4.27,0,0,1,3,1.22,5,5,0,0,1,1.63,3.85A5.13,5.13,0,0,1,138,13.2a4.37,4.37,0,0,1-6.44.4,5,5,0,0,1-1.62-3.85A5.17,5.17,0,0,1,131.14,6.3Zm1.06,5.5a2.72,2.72,0,0,0,2.35,1.34,2.68,2.68,0,0,0,1.78-.68,3.42,3.42,0,0,0,1.18-2.71,3.63,3.63,0,0,0-.61-2,2.71,2.71,0,0,0-2.35-1.33,2.65,2.65,0,0,0-1.78.67,3.45,3.45,0,0,0-1.18,2.71A3.63,3.63,0,0,0,132.2,11.8Z"/><path d="M143.58,11.85c0,.83.53,1.26,1.55,1.29H146v1.69h-.84A4.47,4.47,0,0,1,144,14.7a2.58,2.58,0,0,1-2.12-2.83V6.37h-1.42V4.68h1.42V2.45l0-.82h1.71l0,.85v2.2H146V6.37H143.6Z"/><path d="M160.57,4.68h.85V6.37H159v8.46h-1.69V6.37h-1.39V4.68h1.41a11.17,11.17,0,0,1,.26-1.78c.46-1.93,1.46-2.9,3-2.9h.85V1.69h-.85c-.87,0-1.38,1-1.52,3Z"/><path d="M167.93,4.68h.85V6.37h-.85a2.5,2.5,0,0,0-1.27.32,3.11,3.11,0,0,0-1.44,2.94v5.2h-1.69V4.68h1.69v.88A4.44,4.44,0,0,1,167.93,4.68Z"/><path d="M171.08,6.3a4.39,4.39,0,0,1,6.44-.4,5,5,0,0,1,1.62,3.85,5.13,5.13,0,0,1-1.24,3.45,4.35,4.35,0,0,1-6.43.4,5,5,0,0,1-1.63-3.85A5.17,5.17,0,0,1,171.08,6.3Zm1.06,5.5a2.72,2.72,0,0,0,2.35,1.34,2.66,2.66,0,0,0,1.78-.68,3.42,3.42,0,0,0,1.18-2.71,3.63,3.63,0,0,0-.61-2,2.71,2.71,0,0,0-2.35-1.33,2.67,2.67,0,0,0-1.78.67,3.45,3.45,0,0,0-1.18,2.71A3.63,3.63,0,0,0,172.14,11.8Z"/><path d="M188.41,6.11a3.6,3.6,0,0,1,5.21-.57,4,4,0,0,1,1.43,3.2V14l0,.87H193.4l0-.85,0-5.26A2.68,2.68,0,0,0,193,7.45a1.94,1.94,0,0,0-2.89-.7,2.34,2.34,0,0,0-.94,2V14l0,.87h-1.67l0-.85,0-4.42V8.74a2.79,2.79,0,0,0-.31-1.29,1.95,1.95,0,0,0-2.9-.7,2.33,2.33,0,0,0-.93,2v6.09h-1.7V4.68h1.7v.67a3.65,3.65,0,0,1,2.07-.67,3.74,3.74,0,0,1,2.92,1.48S188.4,6.14,188.41,6.11Z"/><path d="M212.55,7.62a.94.94,0,0,0-.23-.6,2.09,2.09,0,0,0-1.7-.65,2.8,2.8,0,0,0-.86.13c-.71.22-1.06.59-1.06,1.12a.51.51,0,0,0,.13.33,4.92,4.92,0,0,0,1.94.87c.71.21,1.23.39,1.57.53,1.49.61,2.23,1.45,2.22,2.54a2.47,2.47,0,0,1-.64,1.61,4.1,4.1,0,0,1-3.3,1.33,4.72,4.72,0,0,1-2.64-.74,2.61,2.61,0,0,1-1.29-2.2h1.69a.86.86,0,0,0,.26.59,2.54,2.54,0,0,0,2,.66,3.67,3.67,0,0,0,1-.13c.84-.21,1.27-.58,1.27-1.12a.65.65,0,0,0-.11-.32,4.83,4.83,0,0,0-1.92-.84c-.7-.22-1.22-.39-1.57-.53-1.5-.61-2.25-1.47-2.26-2.58a2.64,2.64,0,0,1,.63-1.68,3.68,3.68,0,0,1,3-1.26,4.09,4.09,0,0,1,2.35.69,2.66,2.66,0,0,1,1.27,2.25Z"/><path d="M217.1,5.52V4.68h1.69V5.84a4.36,4.36,0,0,1,6,.06,5,5,0,0,1,1.63,3.85,5.14,5.14,0,0,1-1.25,3.45,4.28,4.28,0,0,1-3.41,1.63,4.36,4.36,0,0,1-3-1.16v5.52H217.1V5.52Zm2.3,6.28a2.73,2.73,0,0,0,2.35,1.34,2.64,2.64,0,0,0,1.78-.68,3.42,3.42,0,0,0,1.18-2.71,3.63,3.63,0,0,0-.61-2,2.69,2.69,0,0,0-2.33-1.33A2.75,2.75,0,0,0,220,7a3.57,3.57,0,0,0-1.21,2.73A3.63,3.63,0,0,0,219.4,11.8Z"/><path d="M229.35,6.3a4.37,4.37,0,0,1,6.36-.46V4.68h1.7V14.83h-1.7V13.67a4.4,4.4,0,0,1-3,1.16,4.28,4.28,0,0,1-3-1.23,5,5,0,0,1-1.63-3.85A5.13,5.13,0,0,1,229.35,6.3Zm1.05,5.5a2.73,2.73,0,0,0,2.35,1.34,2.64,2.64,0,0,0,1.78-.68,3.42,3.42,0,0,0,1.18-2.71,3.63,3.63,0,0,0-.61-2,2.69,2.69,0,0,0-2.35-1.33A2.63,2.63,0,0,0,231,7a3.45,3.45,0,0,0-1.19,2.71A3.71,3.71,0,0,0,230.4,11.8Z"/><path d="M248.24,12.88a4.36,4.36,0,0,1-3.75,1.95,4.17,4.17,0,0,1-2.94-1.21A5.05,5.05,0,0,1,240,9.75a5.29,5.29,0,0,1,1.2-3.45,4.19,4.19,0,0,1,3.34-1.62,4.39,4.39,0,0,1,3.77,1.82l-1.4,1a2.7,2.7,0,0,0-2.37-1.1,2.46,2.46,0,0,0-1.71.67,3.43,3.43,0,0,0-1.14,2.71,3.75,3.75,0,0,0,.55,2,2.58,2.58,0,0,0,2.3,1.38,3,3,0,0,0,2.39-1.23Z"/><path d="M258.69,12.84a4.67,4.67,0,0,1-3.94,2,4.36,4.36,0,0,1-3-1.23,5,5,0,0,1-1.61-3.85,5.17,5.17,0,0,1,1.21-3.42,4.34,4.34,0,0,1,3.44-1.65,4.27,4.27,0,0,1,3,1.22,5,5,0,0,1,1.63,3.85v.85h-7.53a3.62,3.62,0,0,0,.5,1.18,2.72,2.72,0,0,0,2.37,1.36,3.12,3.12,0,0,0,2.58-1.31Zm-1-3.93a2.19,2.19,0,0,0-.58-1.34,3,3,0,0,0-2.39-1.2,2.49,2.49,0,0,0-1.24.32,3.1,3.1,0,0,0-1.63,2.22Z"/><path d="M262.37,13.16h1.69v1.71h-1.69V13.16Z"/></g></g></svg>