<svg xmlns="http://www.w3.org/2000/svg" viewBox="0 0 696.98 728.06"><defs><style>.cls-1{font-size:37px;fill:#fff;font-family:Adam-Bold, Adam;font-weight:700;}</style></defs><g id="레이어_2" data-name="레이어 2"><g id="Layer_1" data-name="Layer 1"><text class="cls-1" transform="matrix(0.82, -0.52, 0.53, 0.85, 154.37, 89.93)">T</text><text class="cls-1" transform="translate(171.08 79.39) rotate(-29.04) scale(0.97 1)">h</text><text class="cls-1" transform="translate(187.74 70.15) rotate(-25.96) scale(0.97 1)">e</text><text class="cls-1" transform="matrix(0.89, -0.38, 0.39, 0.92, 204.26, 62.14)"> </text><text class="cls-1" transform="translate(218.1 56.07) rotate(-20.01) scale(0.97 1)">R</text><text class="cls-1" transform="matrix(0.93, -0.28, 0.29, 0.96, 240.02, 48.16)">e</text><text class="cls-1" transform="matrix(0.94, -0.23, 0.24, 0.97, 257.61, 42.94)">v</text><text class="cls-1" transform="matrix(0.95, -0.18, 0.19, 0.98, 274.06, 38.92)">o</text><text class="cls-1" transform="translate(292.2 35.58) rotate(-8.65) scale(0.97 1)">l</text><text class="cls-1" transform="matrix(0.96, -0.11, 0.12, 0.99, 298.79, 34.47)">u</text><text class="cls-1" transform="translate(316.62 32.47) rotate(-4.3) scale(0.97 1)">t</text><text class="cls-1" transform="translate(327.22 31.7) rotate(-2.86) scale(0.97 1)">i</text><text class="cls-1" transform="matrix(0.97, -0.02, 0.02, 1, 334.17, 31.26)">o</text><text class="cls-1" transform="translate(352.49 30.97) rotate(2.21) scale(0.97 1)">n</text><text class="cls-1" transform="translate(371.55 31.74) rotate(5) scale(0.97 1)"> </text><text class="cls-1" transform="translate(386.62 32.9) rotate(8.33) scale(0.97 1)">O</text><text class="cls-1" transform="matrix(0.95, 0.19, -0.2, 0.98, 411.82, 36.77)">f</text><text class="cls-1" transform="translate(422.19 38.8) rotate(13.42) scale(0.97 1)"> </text><text class="cls-1" transform="matrix(0.93, 0.26, -0.27, 0.96, 436.96, 42.36)">t</text><text class="cls-1" transform="translate(447.12 45.09) rotate(18.01) scale(0.97 1)">h</text><text class="cls-1" transform="matrix(0.9, 0.35, -0.36, 0.93, 465.22, 50.97)">e</text><text class="cls-1" transform="translate(482.34 57.62) rotate(23.87) scale(0.97 1)"> </text><text class="cls-1" transform="translate(496.2 63.49) rotate(27.51) scale(0.97 1)">M</text><text class="cls-1" transform="matrix(0.83, 0.51, -0.52, 0.85, 521.85, 77.04)">o</text><text class="cls-1" transform="matrix(0.8, 0.55, -0.57, 0.82, 537.51, 86.59)">o</text><text class="cls-1" transform="matrix(0.77, 0.59, -0.61, 0.79, 552.65, 96.94)">n</text></g></g></svg>