<svg xmlns="http://www.w3.org/2000/svg" viewBox="0 0 621.1 604.35"><defs><style>.cls-1{fill:#fff;}</style></defs><title>Asset 3</title><g id="Layer_2" data-name="Layer 2"><g id="Layer_1-2" data-name="Layer 1"><path d="M273.82,601.76A273.86,273.86,0,0,1,79.25,135.22,272,272,0,0,1,272.49,54.05h1.41A273.85,273.85,0,0,1,468.46,520.58a272,272,0,0,1-193.24,81.17ZM1,329.26c.75,150,123,271.5,272.83,271.5h1.38A272.85,272.85,0,0,0,465.83,134a271.05,271.05,0,0,0-191.93-79h-1.4C122.05,55.8.25,178.81,1,329.26Z"/><path class="cls-1" d="M420.67,11l2.18.91L421,16.21l-2.18-.91-9.74-4.08L396.33,41.69l-.91,2.18L391.06,42l.92-2.17L404.75,9.39,394.9,5.27l-2.17-.92L394.55,0l2.18.91L406.58,5l4.35,1.83Z"/><path class="cls-1" d="M435.05,31.67a10.3,10.3,0,0,1,4.86,5.75A11.92,11.92,0,0,1,439,47.76l-6.58,12.07L431.36,62l-4.1-2.23,1.08-2.1L434.9,45.5A8.44,8.44,0,0,0,436,41.24a6,6,0,0,0-3.16-5.42,5.76,5.76,0,0,0-3.84-.61,7.45,7.45,0,0,0-5.45,4.08l-1.13,2.07-5.45,10-1.13,2.07-4.14-2.26,1.13-2.07,5.45-10L419.36,37,429,19.26l1.13-2.07,4.15,2.26-1.13,2.07-4.91,9A10.88,10.88,0,0,1,435.05,31.67Z"/><path class="cls-1" d="M459.53,73.91a13,13,0,0,1-12.19-1.59,12.16,12.16,0,0,1-5.1-7.61,14,14,0,0,1,2.33-11.4,14.61,14.61,0,0,1,8.16-6,12.23,12.23,0,0,1,15.59,9.18A14,14,0,0,1,466,67.91l-1.33,2-1.95-1.32L447.34,58.05a10.12,10.12,0,0,0-.69,3.53A7.59,7.59,0,0,0,450,68.42a8.71,8.71,0,0,0,8,1Zm3.93-10.6a6.17,6.17,0,0,0,.77-4,8.36,8.36,0,0,0-3.62-6.53,7.21,7.21,0,0,0-3.37-1.23A8.74,8.74,0,0,0,450,54.15Z"/><path class="cls-1" d="M510.12,87.23l1.72,1.61-3.24,3.44-1.72-1.62a7.12,7.12,0,0,0-3.18-1.78q-4.38-1.12-8.54,3.22l-.25.26-1.62,1.71L486.82,101l-1.62,1.71-3.43-3.23,1.62-1.72,6.47-6.87,1.62-1.72.2-.21,7.89-8.38,1.62-1.72,3.43,3.24L503,83.77l-.08.08A12.29,12.29,0,0,1,510.12,87.23Z"/><path class="cls-1" d="M514.24,124.93a13,13,0,0,1-11.48-4.4,12.18,12.18,0,0,1-3.17-8.6,14,14,0,0,1,4.94-10.53,14.52,14.52,0,0,1,9.34-3.93,12.25,12.25,0,0,1,13,12.59,14,14,0,0,1-4.9,10.57l-1.75,1.59-1.59-1.75-12.52-13.81a10.14,10.14,0,0,0-1.5,3.27,7.58,7.58,0,0,0,1.64,7.43,8.75,8.75,0,0,0,7.55,2.87Zm6.3-9.38a6.13,6.13,0,0,0,1.69-3.67,8.36,8.36,0,0,0-2-7.2,7.26,7.26,0,0,0-3-2,8.75,8.75,0,0,0-7.64.8Z"/><path class="cls-1" d="M535.82,115.2l3,4.06-.82,1.36L528,137.35l18.81-5.13,1.53-.41,3.05,4.05-3.38.91-24.5,6.68-1.53.42L520,141.32l.83-1.36L534,118.19Z"/><path class="cls-1" d="M552.3,145.6a12.15,12.15,0,0,1,10.36,14.68,13.93,13.93,0,0,1-6.76,9.5,14.35,14.35,0,0,1-10,2.08,12.17,12.17,0,0,1-10.36-14.68,14,14,0,0,1,6.76-9.5A14.3,14.3,0,0,1,552.3,145.6Zm-11.52,10.55a7.58,7.58,0,0,0,.27,7.53,7.38,7.38,0,0,0,4.21,3.23,9.56,9.56,0,0,0,8.16-1.15,10.17,10.17,0,0,0,4-4.46,7.56,7.56,0,0,0-.27-7.52,7.34,7.34,0,0,0-4.21-3.23,9.54,9.54,0,0,0-8.16,1.15A10.2,10.2,0,0,0,540.78,156.15Z"/><path class="cls-1" d="M584.25,163.14l2.2,4.17-2.09,1.11L551,186.05l-2.09,1.11L546.68,183l2.09-1.1,33.39-17.64Z"/><path class="cls-1" d="M577.05,179.89l2,4.37-2.18.91L563,191.28a5.61,5.61,0,0,0-2.61,2.4,6.69,6.69,0,0,0-.19,6.23,7.23,7.23,0,0,0,2.42,2.93,5.68,5.68,0,0,0,5.86.67l13.84-6.2,2.12-.89,1.95,4.37-2.18.91-13.8,6.12a10.2,10.2,0,0,1-7.16.48,11,11,0,0,1-7.35-6.46,11.49,11.49,0,0,1-.7-7.77,10.09,10.09,0,0,1,5.87-7.09l13.84-6.2Z"/><path class="cls-1" d="M572.69,221.33q-3.26,1.23-1.92,5.27l.8,2.22-4.44,1.6-.8-2.22a13,13,0,0,1-.73-3.07q-.72-6,5.44-8.23l.05,0,14.38-5.17-.54-1.5-.8-2.22,4.44-1.6.8,2.22.54,1.5,5.83-2.1,2.18-.73,1.62,4.5-2.24.74-5.77,2.08,1.44,4,.8,2.22-4.44,1.6-.8-2.22-1.44-4Z"/><path class="cls-1" d="M595.5,226.41l1.39,4.51-2.25.7-22.55,7-2.26.69-1.39-4.51,2.25-.69,22.55-7Zm3.44-1.06,4.51-1.39.69,2.26,0,.05.7,2.26-4.51,1.39-.7-2.25,0-.06Z"/><path class="cls-1" d="M595.4,241.86a12.16,12.16,0,0,1,5.22,17.2,14,14,0,0,1-9.41,6.89,14.3,14.3,0,0,1-10.16-1.18,12.17,12.17,0,0,1-5.22-17.19,14,14,0,0,1,9.41-6.9A14.3,14.3,0,0,1,595.4,241.86Zm-14.25,6.4a7.55,7.55,0,0,0-2.11,7.23,7.36,7.36,0,0,0,3,4.39,9.53,9.53,0,0,0,8.11,1.47,10.11,10.11,0,0,0,5.17-3,7.53,7.53,0,0,0,2.11-7.23,7.31,7.31,0,0,0-3-4.38,9.52,9.52,0,0,0-8.1-1.48A10.17,10.17,0,0,0,581.15,248.26Z"/><path class="cls-1" d="M581.4,297.54l-.62-4.62,2.33-.37,13.67-1.9a8.24,8.24,0,0,0,4.06-1.68,6,6,0,0,0,2.5-5.75,5.72,5.72,0,0,0-1.77-3.45,7.42,7.42,0,0,0-6.52-2l-2.34.31-11.28,1.52-2.34.31-.63-4.68,2.34-.31,11.28-1.52,2.34-.31,9.77-1.32,2.34-.31.63,4.68-2.23.3a10.8,10.8,0,0,1,3.09,6.13,10.3,10.3,0,0,1-1.75,7.32,11.93,11.93,0,0,1-8.86,5.42l-13.62,1.83Z"/><path class="cls-1" d="M606.6,332.62a12.17,12.17,0,0,1,.37,18,13.93,13.93,0,0,1-10.92,4.08,14.28,14.28,0,0,1-9.46-3.88,12.16,12.16,0,0,1-.37-18,13.93,13.93,0,0,1,10.92-4.09A14.3,14.3,0,0,1,606.6,332.62Zm-15.45,2.3a7.59,7.59,0,0,0-4,6.39,7.34,7.34,0,0,0,1.68,5,9.56,9.56,0,0,0,7.41,3.62,10.15,10.15,0,0,0,5.79-1.47,7.59,7.59,0,0,0,4-6.39,7.44,7.44,0,0,0-1.68-5,9.59,9.59,0,0,0-7.41-3.62A10.23,10.23,0,0,0,591.15,334.92Z"/><path class="cls-1" d="M608.08,373.05l-.27,2.34-4.69-.55.28-2.34.51-4.34-21.1-2.49-2.34-.27.55-4.69,2.35.28,21.09,2.48.18-1.52.28-2.34,4.68.55-.27,2.34-.19,1.59a29.81,29.81,0,0,1,4.84,1.28q7.8,2.88,7,9.21l-.27,2.34-4.69-.55.28-2.34q.36-3.64-7.77-5.2Z"/><path class="cls-1" d="M580.71,408.49c-2.25-.54-3.78.55-4.56,3.27l-.59,2.29L571,412.87l.59-2.29a13.2,13.2,0,0,1,1.13-2.94q2.79-5.37,9.13-3.73h0l14.8,3.83.4-1.54.59-2.29,4.57,1.18-.59,2.29-.4,1.54,6,1.55,2.21.63-1.2,4.63-2.27-.65-5.94-1.53L599,417.67l-.59,2.28-4.57-1.18.59-2.28,1.06-4.11Z"/><path class="cls-1" d="M592.79,437.6a10.36,10.36,0,0,1-4.85,5.76,11.92,11.92,0,0,1-10.35.87l-13-4.47-2.3-.73,1.51-4.41,2.25.71,13.08,4.44a8.39,8.39,0,0,0,4.38.32,6,6,0,0,0,4.81-4,5.75,5.75,0,0,0,0-3.88,7.49,7.49,0,0,0-4.94-4.7l-2.23-.76L570.35,423l-2.23-.76,1.53-4.47,2.23.77,10.77,3.7,2.23.77L604,429.61l2.23.77-1.53,4.46-2.23-.76-9.71-3.34A10.81,10.81,0,0,1,592.79,437.6Z"/><path class="cls-1" d="M555.22,468.79a13,13,0,0,1-.46-12.28,12.17,12.17,0,0,1,6.65-6.3,14.05,14.05,0,0,1,11.63.4,14.58,14.58,0,0,1,7.29,7,12.14,12.14,0,0,1,.17,10.66,12,12,0,0,1-6.63,6.24,13.94,13.94,0,0,1-11.65-.34l-2.15-1,1-2.14,7.77-16.95a10.36,10.36,0,0,0-3.6-.09,7.57,7.57,0,0,0-6.18,4.43,8.71,8.71,0,0,0,.32,8.07Zm11.11,2.11a6.11,6.11,0,0,0,4,.1,8.37,8.37,0,0,0,5.84-4.66,7.3,7.3,0,0,0,.65-3.53,8.77,8.77,0,0,0-3.74-6.71Z"/><path class="cls-1" d="M531,499.64l2.79-3.8,1.9,1.4,28.53,21,1.9,1.39-2.3,3.14-1.49-.36-32.81-7L546,544.57l.79,1.32L544.47,549l-1.9-1.4L514,526.72l-1.91-1.4,2.8-3.8,1.9,1.39,19.72,14.42-13.7-24.2-.8-1.31,1.82-2.48,1.49.37,27.22,5.79L532.87,501Z"/><path class="cls-1" d="M522.22,549.4a12.15,12.15,0,0,1-11.5,13.8,13.93,13.93,0,0,1-10.93-4.07,14.31,14.31,0,0,1-4.6-9.13,12.16,12.16,0,0,1,11.5-13.81,14,14,0,0,1,10.93,4.07A14.38,14.38,0,0,1,522.22,549.4ZM509,541a7.57,7.57,0,0,0-7.2,2.2,7.36,7.36,0,0,0-2,4.9A9.55,9.55,0,0,0,503,555.7a10.24,10.24,0,0,0,5.34,2.69,7.57,7.57,0,0,0,7.2-2.21,7.39,7.39,0,0,0,2-4.9,9.61,9.61,0,0,0-3.22-7.59A10.23,10.23,0,0,0,509,541Z"/><path class="cls-1" d="M499.79,572.23A12.16,12.16,0,0,1,487,584.88a14,14,0,0,1-10.49-5.1,14.33,14.33,0,0,1-3.7-9.53A12.16,12.16,0,0,1,485.6,557.6a13.94,13.94,0,0,1,10.48,5.1A14.34,14.34,0,0,1,499.79,572.23Zm-12.32-9.61a7.55,7.55,0,0,0-7.37,1.51,7.41,7.41,0,0,0-2.49,4.68,9.54,9.54,0,0,0,2.48,7.86,10.21,10.21,0,0,0,5.05,3.19,7.56,7.56,0,0,0,7.38-1.51,7.41,7.41,0,0,0,2.49-4.68,9.58,9.58,0,0,0-2.48-7.87A10.16,10.16,0,0,0,487.47,562.62Z"/><path class="cls-1" d="M444,585.87l3.8-2.71,1.41,1.88,8.08,11.2a8.43,8.43,0,0,0,3.38,2.81,6,6,0,0,0,6.26-.49,5.7,5.7,0,0,0,2.22-3.18,7.45,7.45,0,0,0-1.3-6.68l-1.37-1.93-6.62-9.26-1.37-1.92,3.84-2.74,1.37,1.92,6.62,9.26,1.37,1.92,5.73,8,1.37,1.92L475,598.63l-1.3-1.82a10.77,10.77,0,0,1-4,5.59,10.26,10.26,0,0,1-7.29,1.88,11.91,11.91,0,0,1-8.93-5.29l-8-11.19Z"/></g></g></svg>