<svg xmlns="http://www.w3.org/2000/svg" viewBox="0 0 619.26 546.71"><defs><style>.cls-1{fill:#fff;}</style></defs><title>Asset 1</title><g id="Layer_2" data-name="Layer 2"><g id="Layer_1-2" data-name="Layer 1"><path class="cls-1" d="M38.43,425.06l-.76-1.41,2.82-1.52.76,1.41,3.4,6.3,19.71-10.63,1.41-.76,1.52,2.82-1.41.76L46.16,432.66,49.6,439l.76,1.41L47.54,442l-.76-1.41-3.43-6.37-1.52-2.82Z"/><path class="cls-1" d="M39.5,408.55a7,7,0,0,1-.29-5.1,8.06,8.06,0,0,1,4.69-5.25l8.48-3.85,1.48-.72,1.31,2.88-1.44.7-8.51,3.9A5.77,5.77,0,0,0,42.91,403a4.06,4.06,0,0,0-.49,4.22,3.9,3.9,0,0,0,1.82,1.9,5.08,5.08,0,0,0,4.62,0l1.46-.66,7-3.2,1.45-.66,1.33,2.91-1.46.67-7,3.19-1.46.66-12.49,5.67-1.45.67-1.33-2.92,1.46-.66,6.34-2.88A7.33,7.33,0,0,1,39.5,408.55Z"/><path class="cls-1" d="M42.89,375.83A8.82,8.82,0,0,1,49,381.47a8.23,8.23,0,0,1-.13,6.2,9.54,9.54,0,0,1-5.74,5.42,9.86,9.86,0,0,1-6.87.15,8.3,8.3,0,0,1-5.07-11.17A9.49,9.49,0,0,1,37,376.62l1.49-.56.57,1.49,4.46,11.83a7.06,7.06,0,0,0,1.76-1.69,5.14,5.14,0,0,0,.81-5.1,6,6,0,0,0-4-3.69Zm-6.31,4.35a4.23,4.23,0,0,0-2,1.9,5.68,5.68,0,0,0-.54,5,5,5,0,0,0,1.4,2,6,6,0,0,0,5,1.4Z"/><path class="cls-1" d="M19.07,349.65l-.4-1.55,3.09-.8.41,1.55A4.84,4.84,0,0,0,23.35,351q2.12,2.22,6.07,1.23l.23-.06,1.55-.4,6.19-1.62,1.55-.4.81,3.1-1.55.4L32,354.88l-1.54.41-.2,0-7.55,2-1.54.4-.81-3.09,1.55-.41.08,0A8.27,8.27,0,0,1,19.07,349.65Z"/><path class="cls-1" d="M29.88,326.5A8.83,8.83,0,0,1,35.05,333a8.28,8.28,0,0,1-1.12,6.11,9.53,9.53,0,0,1-6.53,4.43,9.77,9.77,0,0,1-6.8-.94,8.2,8.2,0,0,1-4.36-5.76,8.11,8.11,0,0,1,1.13-6.07,9.43,9.43,0,0,1,6.51-4.47l1.57-.32.32,1.57L28.3,340a6.91,6.91,0,0,0,2-1.39,5.11,5.11,0,0,0,1.61-4.9,5.88,5.88,0,0,0-3.4-4.28ZM23,329.79a4.27,4.27,0,0,0-2.26,1.56,5.7,5.7,0,0,0-1.33,4.89,5,5,0,0,0,1.06,2.19,6,6,0,0,0,4.73,2.18Z"/><path class="cls-1" d="M13.93,325.09l-.47-3.41.93-.54,11.48-6.61L13,311.4l-1-.26-.48-3.41,2.31.57,16.72,4.08,1,.26.3,2.14-.94.53L16,323.91Z"/><path class="cls-1" d="M14.05,302a8.24,8.24,0,0,1-1.69-12.07,9.48,9.48,0,0,1,7-3.63,9.7,9.7,0,0,1,6.68,1.85,8.24,8.24,0,0,1,1.69,12.07,9.48,9.48,0,0,1-7,3.63A9.76,9.76,0,0,1,14.05,302Zm10.22-2.8a5.11,5.11,0,0,0,2.17-4.62,5,5,0,0,0-1.54-3.25,6.46,6.46,0,0,0-5.27-1.84,6.92,6.92,0,0,0-3.78,1.45,5.11,5.11,0,0,0-2.17,4.62,5,5,0,0,0,1.53,3.26,6.49,6.49,0,0,0,5.28,1.84A6.93,6.93,0,0,0,24.27,299.18Z"/><path class="cls-1" d="M.1,282l-.1-3.2,1.6-.05,25.59-.83,1.59-.05.11,3.2-1.6.05-25.59.82Z"/><path class="cls-1" d="M9.48,274.14l0-3.24,1.6.06,10.24.15a3.76,3.76,0,0,0,2.29-.73,4.49,4.49,0,0,0,1.88-3.78,4.69,4.69,0,0,0-.65-2.49A3.83,3.83,0,0,0,21.46,262l-10.28-.12-1.56-.06,0-3.24,1.6.06,10.24.16A6.85,6.85,0,0,1,26,260.57a7.43,7.43,0,0,1,2.68,6.07,7.81,7.81,0,0,1-1.77,5,6.86,6.86,0,0,1-5.63,2.69L11,274.2Z"/><path class="cls-1" d="M23.72,249.85c1.57.07,2.45-.85,2.62-2.77l.1-1.59,3.19.19-.1,1.6a9.21,9.21,0,0,1-.37,2.1c-.78,2.63-2.64,3.85-5.6,3.66h0l-10.34-.64-.07,1.07-.09,1.6-3.2-.2.1-1.6L10,252.2l-4.19-.26-1.56-.14.2-3.23,1.6.13,4.15.26.18-2.87.1-1.6,3.19.2-.1,1.6-.18,2.87Z"/><path class="cls-1" d="M8.39,240.51l-3.18-.3.14-1.6v0L5.51,237l3.18.3-.15,1.59v0Zm2.43.22.3-3.18,1.59.15,15.93,1.49,1.59.15-.29,3.19-1.6-.15-15.93-1.5Z"/><path class="cls-1" d="M14.84,231.29a8.23,8.23,0,0,1,.93-12.14,9.42,9.42,0,0,1,7.63-2.05,9.71,9.71,0,0,1,6.13,3.24,8.24,8.24,0,0,1-.92,12.15,9.47,9.47,0,0,1-7.64,2A9.66,9.66,0,0,1,14.84,231.29Zm10.58-.54a5.14,5.14,0,0,0,3.11-4.05,5,5,0,0,0-.81-3.5A6.46,6.46,0,0,0,23,220.27a6.89,6.89,0,0,0-4,.61,5.12,5.12,0,0,0-3.11,4.05,5,5,0,0,0,.8,3.51,6.48,6.48,0,0,0,4.76,2.92A6.92,6.92,0,0,0,25.42,230.75Z"/><path class="cls-1" d="M36.84,199.23l-.65,3.1L34.62,202l-9.17-1.87a5.68,5.68,0,0,0-3,.16,4.05,4.05,0,0,0-2.89,3.12,3.88,3.88,0,0,0,.35,2.6,5.09,5.09,0,0,0,3.73,2.74l1.56.32,7.56,1.58,1.57.32-.65,3.13-1.57-.32-7.56-1.57L23,211.92l-6.54-1.36-1.56-.32.65-3.14,1.49.31a7.35,7.35,0,0,1-.6-4.61,7,7,0,0,1,2.78-4.29A8.08,8.08,0,0,1,26.1,197l9.12,1.9Z"/><path class="cls-1" d="M27.74,171.41a8.26,8.26,0,0,1,3.16-11.77,9.48,9.48,0,0,1,7.88-.6,9.7,9.7,0,0,1,5.43,4.32,8.23,8.23,0,0,1-3.16,11.77,9.48,9.48,0,0,1-7.88.6A9.76,9.76,0,0,1,27.74,171.41Zm10.5,1.42a5.11,5.11,0,0,0,3.8-3.4,5,5,0,0,0-.14-3.6,6.46,6.46,0,0,0-4.14-3.75,6.91,6.91,0,0,0-4-.14,5.12,5.12,0,0,0-3.8,3.41,5,5,0,0,0,.14,3.59,6.49,6.49,0,0,0,4.14,3.75A6.91,6.91,0,0,0,38.24,172.83Z"/><path class="cls-1" d="M34,145l.59-1.49,3,1.17L37,146.16l-1.08,2.76,13.4,5.27,1.49.58-1.17,3-1.49-.58-13.4-5.28-.38,1-.59,1.49-3-1.17.59-1.49.39-1a20.81,20.81,0,0,1-3-1.67c-3.07-2.16-4.09-4.58-3-7.26l.58-1.49,3,1.18-.58,1.48c-.58,1.55.81,3.13,4.19,4.75Z"/><path class="cls-1" d="M57.49,126.1c1.42.69,2.58.18,3.49-1.51l.71-1.44,2.87,1.44L63.84,126a9.07,9.07,0,0,1-1.17,1.79Q60.06,131,56.09,129h0l-9.27-4.64-.48,1-.72,1.43-2.86-1.43.72-1.43.48-1L40.18,121l-1.38-.73,1.45-2.9,1.41.75L45.38,120l1.29-2.58.72-1.43,2.86,1.43-.72,1.43-1.29,2.58Z"/><path class="cls-1" d="M53.27,105.25A7,7,0,0,1,57.22,102a8.09,8.09,0,0,1,7,.71l8.1,4.6,1.45.78-1.56,2.74-1.42-.75-8.15-4.59a5.8,5.8,0,0,0-2.88-.76,4.07,4.07,0,0,0-3.71,2.08,3.91,3.91,0,0,0-.46,2.59,5.08,5.08,0,0,0,2.7,3.75l1.39.79,6.72,3.81,1.39.79-1.58,2.78-1.39-.79-6.72-3.81L56.72,116l-11.93-6.78-1.39-.79L45,105.6l1.39.79,6.05,3.44A7.36,7.36,0,0,1,53.27,105.25Z"/><path class="cls-1" d="M81.76,88.76a8.85,8.85,0,0,1-1,8.28,8.27,8.27,0,0,1-5.1,3.53,9.57,9.57,0,0,1-7.76-1.46,9.88,9.88,0,0,1-4.15-5.47,8.22,8.22,0,0,1,1-7.16A8.1,8.1,0,0,1,69.85,83a9.45,9.45,0,0,1,7.78,1.43l1.33.88-.88,1.33-7,10.56a7,7,0,0,0,2.4.43,5.14,5.14,0,0,0,4.6-2.33,5.9,5.9,0,0,0,.61-5.44ZM74.53,86.2a4.12,4.12,0,0,0-2.7-.48,5.68,5.68,0,0,0-4.39,2.52,5,5,0,0,0-.8,2.3,5.93,5.93,0,0,0,1.82,4.88Z"/><path class="cls-1" d="M100.81,69.75l-2.11,2.4L97.49,71.1l-18-15.83-1.2-1.06,1.74-2,1,.33,21.74,6.63L93.3,38.52l-.46-.93,1.74-2,1.2,1.06,18.07,15.8,1.2,1-2.11,2.41-1.2-1.06L99.26,44l7.84,17.15.46.93-1.37,1.56-1-.33-18-5.51L99.6,68.69Z"/><path class="cls-1" d="M109.15,36.73a8.25,8.25,0,0,1,8.23-9,9.47,9.47,0,0,1,7.27,3.11,9.7,9.7,0,0,1,2.82,6.33,8.25,8.25,0,0,1-8.22,9A9.46,9.46,0,0,1,112,43.06,9.69,9.69,0,0,1,109.15,36.73Zm8.66,6.1a5.11,5.11,0,0,0,4.94-1.27,5,5,0,0,0,1.54-3.25,6.52,6.52,0,0,0-1.94-5.24,6.91,6.91,0,0,0-3.53-2,5.13,5.13,0,0,0-4.95,1.27,5,5,0,0,0-1.53,3.25,6.48,6.48,0,0,0,1.94,5.24A6.91,6.91,0,0,0,117.81,42.83Z"/><path class="cls-1" d="M124.76,22.08a8.24,8.24,0,0,1,8.79-8.43,9.49,9.49,0,0,1,7.06,3.57,9.72,9.72,0,0,1,2.4,6.5,8.24,8.24,0,0,1-8.79,8.43,9.47,9.47,0,0,1-7.06-3.57A9.7,9.7,0,0,1,124.76,22.08ZM133,28.73a5.12,5.12,0,0,0,6.76-4.09,6.5,6.5,0,0,0-1.6-5.35,6.91,6.91,0,0,0-3.39-2.22,5.14,5.14,0,0,0-5,.94A5.07,5.07,0,0,0,128,21.16a6.52,6.52,0,0,0,1.6,5.36A6.89,6.89,0,0,0,133,28.73Z"/><path class="cls-1" d="M162.55,12.86,160,14.73l-1-1.26L153.44,6a5.69,5.69,0,0,0-2.32-1.87,4.11,4.11,0,0,0-4.24.39,3.91,3.91,0,0,0-1.47,2.19,5.06,5.06,0,0,0,1,4.52l.95,1.28,4.58,6.22,1,1.28-2.58,1.9-.95-1.29-4.58-6.21-.95-1.29-4-5.37-.95-1.29,2.57-1.9.9,1.22A7.41,7.41,0,0,1,145,1.91,7,7,0,0,1,149.91.56a8.09,8.09,0,0,1,6.1,3.5l5.54,7.5Z"/><path class="cls-1" d="M72.54,273.36C72.54,122.39,194.93,0,345.9,0S619.26,122.39,619.26,273.36,496.87,546.71,345.9,546.71,72.54,424.33,72.54,273.36"/></g></g></svg>