<svg xmlns="http://www.w3.org/2000/svg" viewBox="0 0 321.16 528.38"><defs><style>.cls-1{fill:#fff;}</style></defs><title>Asset 5</title><g id="Layer_2" data-name="Layer 2"><g id="Layer_1-2" data-name="Layer 1"><path class="cls-1" d="M206.41,16.17l1.94,1.35-2.7,3.87L203.72,20l-8.67-6L176.18,41.14l-1.34,1.94L171,40.38l1.35-1.93,18.86-27.13-8.77-6.1-1.93-1.34L183.16,0l1.94,1.35,8.77,6.1,3.87,2.69Z"/><path class="cls-1" d="M216.22,40a10.29,10.29,0,0,1,3.41,6.71,11.9,11.9,0,0,1-3.23,9.87l-9.19,10.22-1.57,1.84-3.47-3.11,1.54-1.8,9.18-10.3a8.46,8.46,0,0,0,2-3.91,6,6,0,0,0-1.82-6A5.86,5.86,0,0,0,209.48,42a7.51,7.51,0,0,0-6.25,2.72l-1.57,1.76L194.05,55l-1.58,1.75L189,53.57l1.57-1.76,7.61-8.47,1.58-1.75,13.53-15.06,1.57-1.75,3.51,3.15-1.57,1.76-6.86,7.63A10.86,10.86,0,0,1,216.22,40Z"/><path class="cls-1" d="M229.81,87a13,13,0,0,1-11.4-4.6,12.22,12.22,0,0,1-3-8.65,14.07,14.07,0,0,1,5.13-10.45,14.51,14.51,0,0,1,9.4-3.76,12.25,12.25,0,0,1,12.79,12.8,13.94,13.94,0,0,1-5.09,10.49l-1.77,1.56-1.56-1.78L222,68.63a9.9,9.9,0,0,0-1.55,3.24A7.55,7.55,0,0,0,222,79.33a8.71,8.71,0,0,0,7.49,3Zm6.47-9.27A6.12,6.12,0,0,0,238,74.12a8.37,8.37,0,0,0-1.86-7.23,7.23,7.23,0,0,0-3-2,8.74,8.74,0,0,0-7.65.67Z"/><path class="cls-1" d="M274.79,113.86l1.19,2-4.09,2.36-1.18-2a7.26,7.26,0,0,0-2.54-2.62q-3.87-2.32-9.11.64l-.3.18-2.05,1.18-8.16,4.73-2.05,1.18-2.36-4.08,2-1.18,8.17-4.73,2-1.19.26-.14,10-5.77,2-1.18,2.37,4.08-2,1.18-.11.06A12.25,12.25,0,0,1,274.79,113.86Z"/><path class="cls-1" d="M267.52,151.29a13,13,0,0,1-9.6-7.69,12.19,12.19,0,0,1-.41-9.15,14.08,14.08,0,0,1,7.92-8.53,14.49,14.49,0,0,1,10.09-.9,12.1,12.1,0,0,1,8.17,6.84,12,12,0,0,1,.39,9.1,14,14,0,0,1-7.89,8.58l-2.15,1-1-2.14-7.72-17a10.41,10.41,0,0,0-2.43,2.65,7.59,7.59,0,0,0-.69,7.58,8.73,8.73,0,0,0,6.31,5Zm8.86-7a6.16,6.16,0,0,0,2.72-3,8.34,8.34,0,0,0,.3-7.46,7.36,7.36,0,0,0-2.25-2.8,8.75,8.75,0,0,0-7.52-1.57Z"/><path class="cls-1" d="M291.14,149l1.56,4.82-1.22,1-15,12.54L296,168.66l1.59.11,1.56,4.82-3.49-.23-25.34-1.66-1.58-.11-1-3,1.23-1,19.52-16.31Z"/><path class="cls-1" d="M296.78,183.41a12.16,12.16,0,0,1,4.64,17.36,14,14,0,0,1-9.63,6.58,14.31,14.31,0,0,1-10.11-1.52A12.17,12.17,0,0,1,277,188.47a13.94,13.94,0,0,1,9.63-6.57A14.33,14.33,0,0,1,296.78,183.41Zm-14.46,5.92a7.58,7.58,0,0,0-2.35,7.16A7.4,7.4,0,0,0,282.8,201a9.58,9.58,0,0,0,8.06,1.75,10.18,10.18,0,0,0,5.27-2.81,7.54,7.54,0,0,0,2.35-7.15,7.35,7.35,0,0,0-2.83-4.49,9.53,9.53,0,0,0-8.06-1.74A10.16,10.16,0,0,0,282.32,189.33Z"/><path class="cls-1" d="M320.61,211.44l.55,4.69-2.34.28-37.5,4.43-2.34.28-.56-4.69,2.35-.27,37.49-4.44Z"/><path class="cls-1" d="M307.89,224.75l.18,4.78-2.36,0-15.09.53a5.57,5.57,0,0,0-3.32,1.25,6.64,6.64,0,0,0-2.49,5.71,7.12,7.12,0,0,0,1.14,3.61,5.66,5.66,0,0,0,5.19,2.81l15.15-.59,2.3,0,.19,4.78-2.36,0-15.1.53A10.13,10.13,0,0,1,284.5,246a11,11,0,0,1-4.41-8.74,11.49,11.49,0,0,1,2.25-7.47,10.12,10.12,0,0,1,8.09-4.39l15.15-.59Z"/><path class="cls-1" d="M288.2,261.53q-3.48-.12-3.81,4.12l-.12,2.35-4.72-.24.12-2.35a13.39,13.39,0,0,1,.52-3.11q1.65-5.82,8.2-5.49h.06l15.26.78.08-1.59.12-2.36,4.71.24-.12,2.36-.08,1.59,6.19.32,2.29.17-.24,4.78-2.36-.18-6.12-.32-.22,4.25-.12,2.35-4.72-.24.12-2.35.22-4.25Z"/><path class="cls-1" d="M307.2,275.21l-.5,4.69-2.35-.25-23.46-2.53-2.35-.26.51-4.69,2.34.25L304.86,275Zm3.58.39,4.69.5-.25,2.35v.06l-.25,2.34-4.69-.5.25-2.35v-.06Z"/><path class="cls-1" d="M301,289.56a12.17,12.17,0,0,1-2.28,17.83,14,14,0,0,1-11.4,2.44,14.35,14.35,0,0,1-8.79-5.23,12.17,12.17,0,0,1,2.28-17.83,14,14,0,0,1,11.4-2.44A14.35,14.35,0,0,1,301,289.56Zm-15.62,0a7.56,7.56,0,0,0-4.89,5.73,7.39,7.39,0,0,0,.92,5.23,9.57,9.57,0,0,0,6.8,4.66,10.22,10.22,0,0,0,5.94-.6,7.55,7.55,0,0,0,4.88-5.73,7.34,7.34,0,0,0-.92-5.23,9.53,9.53,0,0,0-6.79-4.66A10.14,10.14,0,0,0,285.33,289.57Z"/><path class="cls-1" d="M264.88,334.25l1.42-4.44,2.27.67,13.16,4.16a8.41,8.41,0,0,0,4.39.23,6,6,0,0,0,4.73-4.12,5.76,5.76,0,0,0-.12-3.88,7.46,7.46,0,0,0-5-4.59l-2.24-.72-10.84-3.48-2.25-.72,1.44-4.5,2.25.72,10.84,3.48,2.25.72,9.38,3,2.25.72-1.45,4.5-2.13-.69a10.77,10.77,0,0,1,.15,6.87,10.24,10.24,0,0,1-4.73,5.85,11.9,11.9,0,0,1-10.32,1.09l-13.09-4.2Z"/><path class="cls-1" d="M271.53,377a12.16,12.16,0,0,1-8.09,16,13.91,13.91,0,0,1-11.56-1.5,14.27,14.27,0,0,1-6.54-7.86,12.14,12.14,0,0,1,8.09-16,13.91,13.91,0,0,1,11.56,1.5A14.27,14.27,0,0,1,271.53,377Zm-14.73-5.2a7.57,7.57,0,0,0-6.52,3.77,7.4,7.4,0,0,0-.87,5.23,9.56,9.56,0,0,0,4.85,6.67,10.21,10.21,0,0,0,5.81,1.41,7.54,7.54,0,0,0,6.51-3.77,7.34,7.34,0,0,0,.87-5.23,9.53,9.53,0,0,0-4.85-6.67A10.2,10.2,0,0,0,256.8,371.77Z"/><path class="cls-1" d="M253.47,413.47l-1.37,1.92-3.84-2.75,1.38-1.92,2.54-3.55-17.26-12.38L233,393.42l2.76-3.84,1.91,1.38,17.26,12.38.9-1.25,1.37-1.92,3.84,2.76-1.38,1.91-.93,1.3a30.21,30.21,0,0,1,3.62,3.46q5.43,6.3,1.72,11.47L262.69,423l-3.83-2.75,1.37-1.92q2.08-3-4.28-8.3Z"/><path class="cls-1" d="M211.92,430.76q-2.5-2.42-5.59.49l-1.67,1.67-3.34-3.34,1.68-1.67a13,13,0,0,1,2.46-2q5.14-3.21,9.76,1.43l0,0,10.79,10.82,1.13-1.12,1.67-1.67,3.33,3.35-1.67,1.66-1.13,1.13,4.37,4.39,1.59,1.67L232,451l-1.62-1.71L226,445l-3,3-1.67,1.67L218,446.29l1.68-1.66,3-3Z"/><path class="cls-1" d="M207.11,462a10.32,10.32,0,0,1-7.15,2.36,11.87,11.87,0,0,1-9.27-4.67L182,449.11l-1.58-1.83,3.6-3,1.54,1.78,8.82,10.62a8.4,8.4,0,0,0,3.57,2.57,6,6,0,0,0,6.21-.91,5.8,5.8,0,0,0,2-3.33,7.48,7.48,0,0,0-1.76-6.58l-1.5-1.82-7.24-8.79-1.5-1.82,3.65-3,1.5,1.82,7.24,8.79,1.5,1.82,12.86,15.62,1.5,1.82-3.64,3-1.5-1.83-6.53-7.92A10.85,10.85,0,0,1,207.11,462Z"/><path class="cls-1" d="M158.53,468.44a13,13,0,0,1,6.26-10.58,12.15,12.15,0,0,1,9-1.7,14,14,0,0,1,9.56,6.63,14.54,14.54,0,0,1,2.32,9.87,12.25,12.25,0,0,1-14.57,10.72,14,14,0,0,1-9.62-6.6l-1.27-2,2-1.27,15.71-10a10.32,10.32,0,0,0-3-2,7.58,7.58,0,0,0-7.6.38,8.75,8.75,0,0,0-4.09,7Zm8.2,7.78a6.22,6.22,0,0,0,3.35,2.28,8.36,8.36,0,0,0,7.42-.76,7.28,7.28,0,0,0,2.46-2.62,8.78,8.78,0,0,0,.49-7.67Z"/><path class="cls-1" d="M121.49,480.33l4.48-1.48.74,2.24,11.08,33.62.74,2.24-3.7,1.22-1-1.16-22.68-24.7-3.49,33.33-.12,1.53-3.7,1.21-.74-2.24L92,492.54l-.74-2.24,4.48-1.48.74,2.24,7.7,23.18L107,486.58l.12-1.53,2.91-1,1,1.16,18.81,20.52-7.65-23.2Z"/><path class="cls-1" d="M85,515.55a12.15,12.15,0,0,1-17.5,4.06,13.92,13.92,0,0,1-6.25-9.84,14.33,14.33,0,0,1,1.85-10.06,12.17,12.17,0,0,1,17.5-4.06,14,14,0,0,1,6.25,9.85A14.25,14.25,0,0,1,85,515.55Zm-5.43-14.64a7.58,7.58,0,0,0-7.07-2.59A7.4,7.4,0,0,0,67.94,501a9.54,9.54,0,0,0-2,8,10.24,10.24,0,0,0,2.63,5.37,7.55,7.55,0,0,0,7.07,2.58,7.34,7.34,0,0,0,4.58-2.67,9.57,9.57,0,0,0,2-8A10.25,10.25,0,0,0,79.59,500.91Z"/><path class="cls-1" d="M53,520.09a12.15,12.15,0,0,1-17.86,2,14,14,0,0,1-5.05-10.51,14.3,14.3,0,0,1,3-9.77,12.17,12.17,0,0,1,17.86-2,14,14,0,0,1,5.05,10.51A14.3,14.3,0,0,1,53,520.09Zm-3.68-15.18a7.54,7.54,0,0,0-6.71-3.4,7.39,7.39,0,0,0-4.86,2.12,9.57,9.57,0,0,0-2.94,7.71,10.18,10.18,0,0,0,2,5.63,7.55,7.55,0,0,0,6.72,3.4,7.39,7.39,0,0,0,4.86-2.12,9.55,9.55,0,0,0,2.94-7.7A10.14,10.14,0,0,0,49.36,504.91Z"/><path class="cls-1" d="M1.12,495.6l4.65.33-.11,2.36-.91,13.77a8.31,8.31,0,0,0,.82,4.32A6,6,0,0,0,10.69,520a5.77,5.77,0,0,0,3.74-1,7.48,7.48,0,0,0,3.27-6l.16-2.35.81-11.36.16-2.35,4.71.33-.16,2.35L22.57,511l-.17,2.36-.69,9.82-.17,2.36-4.71-.34.16-2.23a10.83,10.83,0,0,1-6.63,1.78,10.3,10.3,0,0,1-6.81-3.21A11.89,11.89,0,0,1,0,511.73L1,498Z"/></g></g></svg>