<svg xmlns="http://www.w3.org/2000/svg" viewBox="0 0 1184.74 78.83"><g id="레이어_2" data-name="레이어 2"><g id="Layer_1" data-name="Layer 1"><path d="M42,1.84h3.5v7H26.34V61.33h-7V8.84H0v-7H42Z"/><path d="M70.87,19.34a15.26,15.26,0,0,1,10.41,4,17.68,17.68,0,0,1,6.21,14.09V57.83l.09,3.59H80.67l-.09-3.5L80.5,37.45a12.37,12.37,0,0,0-1.67-6.3q-2.88-4.81-8-4.81a8.57,8.57,0,0,0-5.42,1.92,11.08,11.08,0,0,0-4.2,9.19V61.33h-7V3.94h7V22.66A16,16,0,0,1,70.87,19.34Z"/><path d="M133.52,53.11a19.32,19.32,0,0,1-16.28,8.22,18.11,18.11,0,0,1-12.6-5.07A20.84,20.84,0,0,1,98,40.33a21.61,21.61,0,0,1,5-14.17,18,18,0,0,1,14.26-6.82,17.76,17.76,0,0,1,12.51,5.07,20.69,20.69,0,0,1,6.74,15.92v3.5H105.34a15.21,15.21,0,0,0,2.1,4.9q3.68,5.61,9.8,5.6a12.94,12.94,0,0,0,10.68-5.42Zm-4-16.27a9.18,9.18,0,0,0-2.36-5.52,12.43,12.43,0,0,0-9.89-5,10.7,10.7,0,0,0-5.16,1.31,13,13,0,0,0-6.74,9.19Z"/><path d="M193.19.09h8.13l-3.24,5.33c-1.34,2.22-2.5,4.29-3.5,6.22a62,62,0,0,0-6.47,27.82q0,20.57,9.8,33.77l4.2,5.6h-8.75l-1.05-1.4q-11.2-15-11.2-38A78.85,78.85,0,0,1,182.51,25q2.1-11,9.63-23.27Z"/><path d="M654.36.09h8.14l1,1.66a72.32,72.32,0,0,1,11,37.71,63.34,63.34,0,0,1-.7,9.36,70.19,70.19,0,0,1-10.32,28.44l-1,1.57h-8.4l3.5-5.42a37.85,37.85,0,0,0,2-3.41,62.65,62.65,0,0,0,8-30.54q-.09-17.41-10-34Z"/><path d="M724.36,26.07A18,18,0,0,1,751,24.41a20.69,20.69,0,0,1,6.73,15.92,21.27,21.27,0,0,1-5.16,14.27,18,18,0,0,1-26.6,1.66,20.7,20.7,0,0,1-6.74-15.93A21.22,21.22,0,0,1,724.36,26.07Zm4.37,22.75q3.67,5.52,9.71,5.51a10.92,10.92,0,0,0,7.35-2.8,14.15,14.15,0,0,0,4.9-11.2,15.1,15.1,0,0,0-2.53-8.48q-3.67-5.52-9.72-5.51a10.92,10.92,0,0,0-7.35,2.8,14.17,14.17,0,0,0-4.9,11.19A15.09,15.09,0,0,0,728.73,48.82Z"/><path d="M782.19,19.34h3.5v7h-10v35h-7v-35h-5.77v-7h5.86A45.42,45.42,0,0,1,769.85,12q2.89-12,12.34-12h3.5V7h-3.5q-5.43.09-6.3,12.34Z"/><path d="M839.67,49q.09,5.16,6.39,5.33h3.5v7h-3.5a19.81,19.81,0,0,1-4.64-.52q-8.74-2-8.75-11.73V26.34h-5.86v-7h5.86V10.15l.09-3.41h7.09l-.09,3.5v9.1h9.8v7h-9.8Z"/><path d="M874.93,19.34a15.26,15.26,0,0,1,10.41,4,17.68,17.68,0,0,1,6.21,14.09V57.83l.09,3.59h-6.91l-.09-3.5-.09-20.47a12.36,12.36,0,0,0-1.66-6.3q-2.88-4.81-8-4.81a8.57,8.57,0,0,0-5.42,1.92,11.08,11.08,0,0,0-4.2,9.19V61.33h-7V3.94h7V22.66A16,16,0,0,1,874.93,19.34Z"/><path d="M937.58,53.11a19.32,19.32,0,0,1-16.28,8.22,18.11,18.11,0,0,1-12.6-5.07,20.84,20.84,0,0,1-6.65-15.93,21.61,21.61,0,0,1,5-14.17,18,18,0,0,1,14.26-6.82,17.76,17.76,0,0,1,12.51,5.07,20.69,20.69,0,0,1,6.74,15.92v3.5H909.4a15.21,15.21,0,0,0,2.1,4.9q3.68,5.61,9.8,5.6A12.94,12.94,0,0,0,932,48.91Zm-4-16.27a9.18,9.18,0,0,0-2.36-5.52,12.43,12.43,0,0,0-9.89-5,10.7,10.7,0,0,0-5.16,1.31,13,13,0,0,0-6.74,9.19Z"/><path d="M997.42,61.33h-7V1.84h5.78l.87,2.1,20.47,45.32,20.39-45.32.88-2.1h5.77v3.5l.09,52.49v3.5h-7v-3.5l-.09-36.22-16.89,37.62-.87,2.1h-4.55l-.88-2.1-17-37.62V61.33Z"/><path d="M1062.08,26.07a18,18,0,0,1,26.6-1.66,20.69,20.69,0,0,1,6.73,15.92,21.27,21.27,0,0,1-5.16,14.27,18,18,0,0,1-26.6,1.66,20.69,20.69,0,0,1-6.73-15.93A21.26,21.26,0,0,1,1062.08,26.07Zm4.37,22.75q3.67,5.52,9.72,5.51a10.88,10.88,0,0,0,7.34-2.8,14.16,14.16,0,0,0,4.91-11.2,15.1,15.1,0,0,0-2.54-8.48q-3.68-5.52-9.71-5.51a10.88,10.88,0,0,0-7.35,2.8,14.14,14.14,0,0,0-4.9,11.19A15.08,15.08,0,0,0,1066.45,48.82Z"/><path d="M1107.58,26.07a18,18,0,0,1,26.59-1.66,20.69,20.69,0,0,1,6.74,15.92,21.27,21.27,0,0,1-5.16,14.27,18,18,0,0,1-26.6,1.66,20.7,20.7,0,0,1-6.74-15.93A21.22,21.22,0,0,1,1107.58,26.07ZM1112,48.82q3.67,5.52,9.71,5.51a10.92,10.92,0,0,0,7.35-2.8,14.15,14.15,0,0,0,4.9-11.2,15.1,15.1,0,0,0-2.54-8.48q-3.67-5.52-9.71-5.51a10.92,10.92,0,0,0-7.35,2.8,14.14,14.14,0,0,0-4.9,11.19A15.09,15.09,0,0,0,1112,48.82Z"/><path d="M1184.74,61.42h-6.91l-.09-3.5-.08-20.47a12.46,12.46,0,0,0-1.66-6.3q-2.89-4.81-8-4.81a8.57,8.57,0,0,0-5.42,1.92,11.08,11.08,0,0,0-4.2,9.19V61.33h-7v-42h7v3.32a16,16,0,0,1,9.62-3.32,15.26,15.26,0,0,1,10.41,4,17.65,17.65,0,0,1,6.22,14.09V57.83Z"/></g></g></svg>