<svg xmlns="http://www.w3.org/2000/svg" viewBox="0 0 440.77 280.43"><g id="레이어_2" data-name="레이어 2"><g id="Layer_1" data-name="Layer 1"><path d="M0,13.85,0,3V1.49H1.49l9.26,0a7.55,7.55,0,0,1,4.92,1.75,6.53,6.53,0,0,1,.84,9.58,7.31,7.31,0,0,1-5.76,2.51H2.92V26.24H0V13.85Zm10.75-1.46a5,5,0,0,0,2.51-.66,3.63,3.63,0,0,0,2-3.31,3.7,3.7,0,0,0-.8-2.3,4.49,4.49,0,0,0-3.75-1.75H2.92v8.06Z"/><path d="M30.17,8.75h1.46v2.91H30.17a4.33,4.33,0,0,0-2.18.55c-1.63.9-2.46,2.58-2.48,5.06v9H22.59V8.75h2.92v1.53A7.51,7.51,0,0,1,30.17,8.75Z"/><path d="M35.6,11.55a7.52,7.52,0,0,1,11.08-.69,8.61,8.61,0,0,1,2.81,6.63,8.84,8.84,0,0,1-2.16,5.94,7.49,7.49,0,0,1-11.07.69,8.61,8.61,0,0,1-2.81-6.63A8.88,8.88,0,0,1,35.6,11.55ZM37.42,21a4.66,4.66,0,0,0,4,2.29,4.58,4.58,0,0,0,3.06-1.16,5.93,5.93,0,0,0,2-4.67A6.23,6.23,0,0,0,45.51,14a4.67,4.67,0,0,0-4-2.3,4.55,4.55,0,0,0-3.06,1.17,5.89,5.89,0,0,0-2,4.66A6.33,6.33,0,0,0,37.42,21Z"/><path d="M59.69,8.75h1.46v2.91H57V26.24H54.08V11.66H51.67V8.75h2.44a19.37,19.37,0,0,1,.44-3.07c.8-3.32,2.51-5,5.14-5h1.46V3.61H59.69c-1.51,0-2.38,1.73-2.63,5.14Z"/><path d="M64.24,6.52V3.61h3V6.52h-3Zm0,2.23h2.92V26.24H64.24V8.75Z"/><path d="M72.08,0H75V26.24H72.08V0Z"/><path d="M92.45,22.81a8.05,8.05,0,0,1-6.78,3.43,7.53,7.53,0,0,1-5.25-2.12,8.68,8.68,0,0,1-2.77-6.63,8.94,8.94,0,0,1,2.08-5.9,7.57,7.57,0,0,1,11.15-.73,8.61,8.61,0,0,1,2.81,6.63V19h-13a6.16,6.16,0,0,0,.88,2,4.68,4.68,0,0,0,4.08,2.33,5.36,5.36,0,0,0,4.44-2.26ZM90.77,16a3.82,3.82,0,0,0-1-2.29,5.18,5.18,0,0,0-4.12-2.08,4.44,4.44,0,0,0-2.15.55A5.42,5.42,0,0,0,80.71,16Z"/><path d="M17.49,248.14v2.92H2.92v8H13.56V262H2.92v8H17.49v2.91H0V248.14H17.49Z"/><path d="M23.29,258.24a7.36,7.36,0,0,1,5.86-2.81,7.48,7.48,0,0,1,5.1,2V246.68h2.92v26.24H34.25v-2a7.6,7.6,0,0,1-5.1,2,7.39,7.39,0,0,1-5.21-2.11,8.63,8.63,0,0,1-2.8-6.63A8.79,8.79,0,0,1,23.29,258.24Zm1.82,9.47a4.67,4.67,0,0,0,4,2.3,4.55,4.55,0,0,0,3.06-1.17,5.91,5.91,0,0,0,2-4.66,6.33,6.33,0,0,0-1-3.54,4.67,4.67,0,0,0-4.05-2.3,4.55,4.55,0,0,0-3.06,1.17,5.91,5.91,0,0,0-2,4.67A6.25,6.25,0,0,0,25.11,267.71Z"/><path d="M42.31,255.47h2.95l0,1.45,0,9.33a3.44,3.44,0,0,0,.69,2.08A4.11,4.11,0,0,0,49.34,270a4.45,4.45,0,0,0,2.26-.62,3.51,3.51,0,0,0,1.86-3.14v-9.36l0-1.42h3l0,1.45,0,9.33a6.3,6.3,0,0,1-1.53,4.16,6.79,6.79,0,0,1-5.5,2.51,7,7,0,0,1-4.55-1.57,6.22,6.22,0,0,1-2.52-5.1v-9.36Z"/><path d="M74.3,269.57a7.52,7.52,0,0,1-6.45,3.35,7.19,7.19,0,0,1-5.06-2.08A8.68,8.68,0,0,1,60,264.18a9,9,0,0,1,2.07-5.94,7.23,7.23,0,0,1,5.76-2.81,7.59,7.59,0,0,1,6.49,3.13l-2.41,1.68a4.69,4.69,0,0,0-4.08-1.9,4.23,4.23,0,0,0-2.95,1.17,5.88,5.88,0,0,0-2,4.67,6.6,6.6,0,0,0,1,3.46,4.46,4.46,0,0,0,4,2.37A5.16,5.16,0,0,0,72,267.89Z"/><path d="M79.66,258.24a7.38,7.38,0,0,1,5.86-2.81,7.53,7.53,0,0,1,5.11,2v-2h2.91v17.49H90.63v-2a7.65,7.65,0,0,1-5.11,2,7.41,7.41,0,0,1-5.21-2.11,8.63,8.63,0,0,1-2.8-6.63A8.79,8.79,0,0,1,79.66,258.24Zm1.82,9.47a4.67,4.67,0,0,0,4,2.3,4.51,4.51,0,0,0,3.06-1.17,5.88,5.88,0,0,0,2-4.66,6.34,6.34,0,0,0-1.06-3.54,4.67,4.67,0,0,0-4-2.3,4.55,4.55,0,0,0-3.06,1.17,5.91,5.91,0,0,0-2,4.67A6.25,6.25,0,0,0,81.48,267.71Z"/><path d="M102.54,267.78c0,1.44.91,2.18,2.66,2.23h1.46v2.91H105.2a8,8,0,0,1-1.93-.22c-2.43-.56-3.64-2.18-3.64-4.88v-9.48H97.18v-2.91h2.45V251.6l0-1.42h3l0,1.46v3.79h4.08v2.91h-4.08Z"/><path d="M109.76,253.21v-2.92h2.95v2.92h-2.95Zm0,2.22h2.91v17.49h-2.91V255.43Z"/><path d="M118.28,258.24a7.51,7.51,0,0,1,11.08-.7,8.64,8.64,0,0,1,2.81,6.64,8.88,8.88,0,0,1-2.15,5.94,7.52,7.52,0,0,1-11.08.69,8.64,8.64,0,0,1-2.81-6.63A8.84,8.84,0,0,1,118.28,258.24Zm1.82,9.47a4.67,4.67,0,0,0,4.05,2.3,4.55,4.55,0,0,0,3.06-1.17,5.91,5.91,0,0,0,2-4.66,6.26,6.26,0,0,0-1.06-3.54,4.66,4.66,0,0,0-4-2.3,4.55,4.55,0,0,0-3.06,1.17,5.91,5.91,0,0,0-2,4.67A6.32,6.32,0,0,0,120.1,267.71Z"/><path d="M150.42,273h-2.88l0-1.46,0-8.53a5.18,5.18,0,0,0-.69-2.62,3.7,3.7,0,0,0-3.32-2,3.56,3.56,0,0,0-2.26.81,4.62,4.62,0,0,0-1.75,3.82v9.95h-2.91V255.43h2.91v1.38a6.71,6.71,0,0,1,4-1.38,6.35,6.35,0,0,1,4.34,1.68,7.36,7.36,0,0,1,2.59,5.86v8.49Z"/><path d="M304.56,248.14v2.92H290v8h10.64V262H290v8h14.57v2.91H287.07V248.14h17.49Z"/><path d="M323.55,273h-2.88l0-1.46,0-8.53a5.09,5.09,0,0,0-.7-2.62,3.69,3.69,0,0,0-3.31-2,3.54,3.54,0,0,0-2.26.81,4.59,4.59,0,0,0-1.75,3.82v9.95h-2.91V255.43h2.91v1.38a6.71,6.71,0,0,1,4-1.38,6.32,6.32,0,0,1,4.33,1.68,7.32,7.32,0,0,1,2.59,5.86v8.49Z"/><path d="M330.18,255.47h2.95l0,1.45,0,14.54a13.86,13.86,0,0,1-1.39,6.67c-.87,1.53-1.89,2.3-3.06,2.3h-1.45v-2.92h1.45l.19,0q1.33-.41,1.34-6V256.89Zm0-2.15V250.4h3v2.92h-3Z"/><path d="M339.58,258.24a7.51,7.51,0,0,1,11.08-.7,8.64,8.64,0,0,1,2.81,6.64,8.88,8.88,0,0,1-2.15,5.94,7.52,7.52,0,0,1-11.08.69,8.64,8.64,0,0,1-2.81-6.63A8.84,8.84,0,0,1,339.58,258.24Zm1.82,9.47a4.67,4.67,0,0,0,4.05,2.3,4.55,4.55,0,0,0,3.06-1.17,5.91,5.91,0,0,0,2-4.66,6.26,6.26,0,0,0-1.06-3.54,4.67,4.67,0,0,0-4-2.3,4.55,4.55,0,0,0-3.06,1.17,5.91,5.91,0,0,0-2,4.67A6.32,6.32,0,0,0,341.4,267.71Z"/><path d="M367,255.43h3.13l-.76,2L364,271.94a21.14,21.14,0,0,1-3.06,6.85,4.76,4.76,0,0,1-3.83,1.64h-1.46v-2.92h1.46a2.33,2.33,0,0,0,1.86-.87q.87-1,2.11-5.14l-5.32-14.1-.76-2h3.13l.33.95,4.15,10.93,4.08-10.93Z"/><path d="M305.11,21A10,10,0,0,1,303,23.47a11,11,0,0,1-7.22,2.77,10.06,10.06,0,0,1-7.54-3.47,12.65,12.65,0,0,1-3.35-8.92,12.68,12.68,0,0,1,3.39-9,9.81,9.81,0,0,1,7.5-3.42,10.76,10.76,0,0,1,4.85,1.2,9.73,9.73,0,0,1,4.44,4.15l-2.62,1.32a5.93,5.93,0,0,0-1.35-1.72,7.85,7.85,0,0,0-5.32-2,7.37,7.37,0,0,0-5.36,2.44,10,10,0,0,0-2.62,7,10.29,10.29,0,0,0,2.08,6.37,7.15,7.15,0,0,0,5.9,3.1,7.63,7.63,0,0,0,3-.62,7.41,7.41,0,0,0,3.79-3.17Z"/><path d="M323,22.81a8.05,8.05,0,0,1-6.78,3.43A7.53,7.53,0,0,1,311,24.12a8.64,8.64,0,0,1-2.77-6.63,9,9,0,0,1,2.07-5.9,7.58,7.58,0,0,1,11.16-.73,8.6,8.6,0,0,1,2.8,6.63V19h-13a6.35,6.35,0,0,0,.87,2,4.68,4.68,0,0,0,4.08,2.33,5.39,5.39,0,0,0,4.45-2.26ZM321.33,16a3.78,3.78,0,0,0-1-2.29,5.16,5.16,0,0,0-4.12-2.08,4.44,4.44,0,0,0-2.15.55,5.41,5.41,0,0,0-2.8,3.82Z"/><path d="M336.19,8.75h1.46v2.91h-1.46a4.33,4.33,0,0,0-2.18.55c-1.63.9-2.46,2.58-2.48,5.06v9h-2.92V8.75h2.92v1.53A7.51,7.51,0,0,1,336.19,8.75Z"/><path d="M344.1,21.1c0,1.43.91,2.17,2.66,2.22h1.46v2.92h-1.46a8.58,8.58,0,0,1-1.93-.22q-3.65-.84-3.65-4.89V11.66h-2.44V8.75h2.44V4.92l0-1.42h2.95l0,1.46V8.75h4.08v2.91h-4.08Z"/><path d="M351.31,6.52V3.61h3V6.52h-3Zm0,2.23h2.92V26.24h-2.92V8.75Z"/><path d="M365,8.75h1.46v2.91h-4.16V26.24h-2.91V11.66H357V8.75h2.44a19.37,19.37,0,0,1,.44-3.07c.8-3.32,2.52-5,5.14-5h1.46V3.61H365q-2.26,0-2.62,5.14Z"/><path d="M369.53,6.52V3.61h3V6.52h-3Zm0,2.23h2.92V26.24h-2.92V8.75Z"/><path d="M390.2,22.88a7.58,7.58,0,0,1-6.45,3.36,7.24,7.24,0,0,1-5.07-2.08,8.71,8.71,0,0,1-2.77-6.67A9,9,0,0,1,378,11.55a7.19,7.19,0,0,1,5.76-2.8,7.53,7.53,0,0,1,6.48,3.13l-2.4,1.68a4.66,4.66,0,0,0-4.08-1.9,4.25,4.25,0,0,0-3,1.17,5.85,5.85,0,0,0-2,4.66,6.56,6.56,0,0,0,.94,3.46,4.49,4.49,0,0,0,4,2.37,5.13,5.13,0,0,0,4.11-2.11Z"/><path d="M395.55,11.55a7.39,7.39,0,0,1,5.87-2.8,7.47,7.47,0,0,1,5.1,2v-2h2.92V26.24h-2.92v-2a7.66,7.66,0,0,1-5.1,2,7.39,7.39,0,0,1-5.21-2.12,8.61,8.61,0,0,1-2.81-6.63A8.88,8.88,0,0,1,395.55,11.55ZM397.37,21a4.66,4.66,0,0,0,4.05,2.29,4.58,4.58,0,0,0,3.06-1.16,5.93,5.93,0,0,0,2-4.67A6.23,6.23,0,0,0,405.46,14a4.67,4.67,0,0,0-4-2.3,4.55,4.55,0,0,0-3.06,1.17,5.89,5.89,0,0,0-2,4.66A6.33,6.33,0,0,0,397.37,21Z"/><path d="M418.44,21.1c0,1.43.91,2.17,2.66,2.22h1.45v2.92H421.1a8.51,8.51,0,0,1-1.93-.22q-3.65-.84-3.65-4.89V11.66h-2.44V8.75h2.44V4.92l0-1.42h2.95l0,1.46V8.75h4.08v2.91h-4.08Z"/><path d="M439.53,22.81a8,8,0,0,1-6.77,3.43,7.53,7.53,0,0,1-5.25-2.12,8.64,8.64,0,0,1-2.77-6.63,8.94,8.94,0,0,1,2.08-5.9A7.57,7.57,0,0,1,438,10.86a8.6,8.6,0,0,1,2.8,6.63V19h-13a6.16,6.16,0,0,0,.88,2,4.68,4.68,0,0,0,4.08,2.33,5.38,5.38,0,0,0,4.44-2.26ZM437.86,16a3.78,3.78,0,0,0-1-2.29,5.15,5.15,0,0,0-4.11-2.08,4.41,4.41,0,0,0-2.15.55A5.4,5.4,0,0,0,427.8,16Z"/></g></g></svg>