<svg width="234" height="19" viewBox="0 0 234 19" fill="none" xmlns="http://www.w3.org/2000/svg">
<g clip-path="url(#clip0_1840_3227)">
<path d="M6.15289 14.0901C5.65167 13.8135 5.25415 13.4331 4.94305 12.9663C4.63195 12.4995 4.49368 11.9982 4.49368 11.4968V6.22384H0V4.14923H4.49368V0H6.56769V4.14923H14.0514V6.22384H6.56769V11.0646C6.56769 11.445 6.72324 11.7561 7.01706 12.0328C7.31088 12.3094 7.67383 12.4477 8.08863 12.4477H11.6144V14.505H7.77753C7.1899 14.5223 6.65411 14.384 6.15289 14.1074V14.0901Z" fill="white"/>
<path d="M15.9336 0H18.0076V5.72248C18.7508 5.13467 19.6495 4.68517 20.6865 4.35669C21.7235 4.02821 22.847 3.85532 24.0222 3.85532C25.1975 3.85532 26.3036 4.01092 27.3406 4.3394C28.3776 4.66788 29.2764 5.11738 30.0196 5.67061C31.4022 6.81165 32.0936 8.00455 32.0936 9.23203V14.505H30.0196V9.04186C29.9332 8.3849 29.622 7.81438 29.0517 7.29572C28.4986 6.77707 27.7727 6.37944 26.874 6.10282C25.9753 5.82621 25.0247 5.67061 24.0222 5.67061C22.9507 5.67061 21.9655 5.82621 21.0495 6.1374C20.1335 6.44859 19.3903 6.8808 18.8372 7.45132C18.2841 8.00455 18.0076 8.64422 18.0076 9.35305V14.505H15.9336V0Z" fill="white"/>
<path d="M33.806 2.14406C33.564 1.90202 33.4258 1.59083 33.4258 1.24506C33.4258 0.899289 33.5468 0.622674 33.806 0.380635C34.0653 0.138597 34.3591 0.0175781 34.7048 0.0175781C35.0504 0.0175781 35.3788 0.138597 35.6208 0.380635C35.88 0.622674 36.001 0.916577 36.001 1.24506C36.001 1.57354 35.88 1.88473 35.6208 2.14406C35.3615 2.40338 35.0504 2.5244 34.7048 2.5244C34.3591 2.5244 34.048 2.40338 33.7887 2.14406H33.806ZM33.7023 4.14952H35.7763V14.5226H33.7023V4.14952Z" fill="white"/>
<path d="M37.8845 4.14945H39.7511L39.9585 5.7227C40.7017 5.13489 41.5831 4.70268 42.5856 4.40877C43.588 4.11487 44.6596 3.97656 45.783 3.97656C47.1829 3.97656 48.5138 4.20131 49.7755 4.63352C51.0371 5.06573 52.0741 5.68812 52.8519 6.48339C53.6297 7.27866 54.0272 8.21223 54.0272 9.24954V14.5225H51.9532V9.21496C51.8495 8.48885 51.5211 7.86646 50.9507 7.3651C50.3804 6.86373 49.6545 6.48339 48.7903 6.22406C47.9261 5.96473 46.9928 5.84371 46.0077 5.84371C44.9534 5.84371 43.9682 5.98202 43.0522 6.27593C42.1362 6.55254 41.393 6.98475 40.8054 7.53798C40.235 8.09121 39.9412 8.76546 39.9412 9.54344V14.5398H37.8672V4.14945H37.8845Z" fill="white"/>
<path d="M57.4685 11.2194V14.5388H55.3945V4.16573H57.4685V7.57155L71.4681 4.14844V6.22305L57.4685 9.40412L71.4681 12.4988V14.5734L57.4685 11.2367V11.2194Z" fill="white"/>
<path d="M79.4849 14.0901C78.9837 13.8135 78.5862 13.4331 78.2751 12.9663C77.964 12.4995 77.8257 11.9982 77.8257 11.4968V6.22384H73.332V4.14923H77.8257V0H79.8997V4.14923H87.3834V6.22384H79.8997V11.0646C79.8997 11.445 80.0553 11.7561 80.3491 12.0328C80.6429 12.3094 81.0059 12.4477 81.4207 12.4477H84.9465V14.505H81.1096C80.5219 14.5223 79.9861 14.384 79.4849 14.1074V14.0901Z" fill="white"/>
<path d="M89.2695 0H91.3435V5.72248C92.0867 5.13467 92.9855 4.68517 94.0225 4.35669C95.0595 4.02821 96.1829 3.85532 97.3582 3.85532C98.5334 3.85532 99.6396 4.01092 100.677 4.3394C101.714 4.66788 102.612 5.11738 103.356 5.67061C104.738 6.81165 105.43 8.00455 105.43 9.23203V14.505H103.356V9.04186C103.269 8.3849 102.958 7.81438 102.388 7.29572C101.835 6.77707 101.109 6.37944 100.21 6.10282C99.3112 5.82621 98.3606 5.67061 97.3582 5.67061C96.2866 5.67061 95.3014 5.82621 94.3854 6.1374C93.4694 6.44859 92.7262 6.8808 92.1731 7.45132C91.6201 8.00455 91.3435 8.64422 91.3435 9.35305V14.505H89.2695V0Z" fill="white"/>
<path d="M107.138 2.14406C106.896 1.90202 106.758 1.59083 106.758 1.24506C106.758 0.899289 106.879 0.622674 107.138 0.380635C107.397 0.138597 107.691 0.0175781 108.037 0.0175781C108.382 0.0175781 108.711 0.138597 108.953 0.380635C109.212 0.622674 109.333 0.916577 109.333 1.24506C109.333 1.57354 109.212 1.88473 108.953 2.14406C108.694 2.40338 108.382 2.5244 108.037 2.5244C107.691 2.5244 107.38 2.40338 107.121 2.14406H107.138ZM107.034 4.14952H109.108V14.5226H107.034V4.14952Z" fill="white"/>
<path d="M111.236 4.14945H113.103L113.31 5.7227C114.053 5.13489 114.935 4.70268 115.937 4.40877C116.94 4.11487 118.011 3.97656 119.135 3.97656C120.535 3.97656 121.865 4.20131 123.127 4.63352C124.389 5.06573 125.426 5.68812 126.203 6.48339C126.981 7.27866 127.379 8.21223 127.379 9.24954V14.5225H125.305V9.21496C125.201 8.48885 124.873 7.86646 124.302 7.3651C123.732 6.86373 123.006 6.48339 122.142 6.22406C121.278 5.96473 120.344 5.84371 119.359 5.84371C118.305 5.84371 117.32 5.98202 116.404 6.27593C115.488 6.55254 114.745 6.98475 114.157 7.53798C113.587 8.09121 113.293 8.76546 113.293 9.54344V14.5398H111.219V4.14945H111.236Z" fill="white"/>
<path d="M133.393 18.378C132.269 17.9631 131.457 17.5481 130.973 17.1505C130.489 16.7529 130.092 16.4244 129.815 16.1996L131.163 15.0759C131.388 15.2488 131.699 15.4908 132.131 15.7847C132.546 16.0786 133.22 16.3898 134.136 16.6837C135.052 16.9949 136.123 17.1332 137.351 17.1332C138.422 17.1332 139.528 16.9776 140.669 16.6491C141.81 16.3207 142.743 15.8884 143.503 15.3352C144.264 14.782 144.627 14.1423 144.627 13.4508V12.7074C143.763 13.3643 142.691 13.8657 141.447 14.246C140.202 14.6264 138.854 14.7993 137.437 14.7993C135.778 14.7993 134.24 14.5572 132.84 14.0559C131.422 13.5718 130.316 12.8975 129.487 12.0504C128.657 11.2033 128.242 10.287 128.242 9.28425C128.242 8.28153 128.657 7.34795 129.487 6.50082C130.316 5.65368 131.44 4.97943 132.84 4.49536C134.257 3.99399 135.778 3.75195 137.437 3.75195C139.096 3.75195 140.617 3.99399 142.017 4.49536C143.434 4.99672 144.54 5.67097 145.37 6.50082C146.2 7.33066 146.614 8.26424 146.614 9.28425V13.4508C146.614 14.4189 146.165 15.3352 145.249 16.1823C144.333 17.0295 143.158 17.7037 141.706 18.2051C140.254 18.7065 138.802 18.9485 137.333 18.9485C135.864 18.9485 134.516 18.741 133.393 18.3261V18.378ZM140.825 12.5172C141.896 12.206 142.743 11.7738 143.4 11.2033C144.057 10.65 144.368 10.0104 144.368 9.30154C144.368 8.59272 144.039 7.97033 143.4 7.39982C142.743 6.84658 141.896 6.39708 140.825 6.08589C139.753 5.7747 138.63 5.6191 137.42 5.6191C136.21 5.6191 135.086 5.7747 134.015 6.08589C132.943 6.39708 132.079 6.8293 131.44 7.39982C130.783 7.95305 130.472 8.59272 130.472 9.30154C130.472 10.0104 130.8 10.6328 131.44 11.2033C132.096 11.7565 132.943 12.206 134.015 12.5172C135.086 12.8284 136.227 12.984 137.42 12.984C138.612 12.984 139.753 12.8284 140.825 12.5172Z" fill="white"/>
<path d="M150.865 14.2807C149.552 13.9349 148.463 13.5373 147.616 13.0532L149.258 11.5837C149.845 11.8949 150.692 12.1888 151.798 12.4308C152.905 12.6729 154.201 12.7939 155.722 12.7939C156.43 12.7939 157.208 12.7247 158.09 12.5691C158.954 12.4135 159.697 12.2234 160.302 11.9986C160.907 11.7739 161.218 11.5318 161.218 11.2898C161.218 10.9267 160.717 10.6674 159.697 10.4945C158.695 10.3216 157.364 10.2352 155.722 10.2352C153.302 10.2352 151.315 9.99316 149.759 9.52637C148.204 9.05958 147.426 8.24702 147.426 7.10599C147.426 5.96495 148.186 5.15239 149.69 4.63374C151.194 4.11509 153.164 3.87305 155.549 3.87305C157.502 3.87305 159.04 4.02864 160.164 4.35712C161.287 4.6856 162.238 5.10053 163.015 5.61918L161.771 7.17514C161.08 6.70835 160.198 6.34529 159.127 6.08597C158.055 5.82664 156.914 5.70562 155.722 5.70562C154.305 5.70562 152.956 5.82664 151.643 6.08597C150.329 6.32801 149.673 6.67377 149.673 7.12327C149.673 7.57277 150.381 7.84939 151.816 8.02227C153.233 8.19516 154.547 8.2816 155.739 8.2816C158.332 8.2816 160.285 8.54093 161.564 9.04229C162.843 9.54366 163.499 10.3043 163.499 11.3417C163.499 12.0159 163.154 12.621 162.48 13.1569C161.806 13.6929 160.872 14.1078 159.697 14.4017C158.522 14.6956 157.208 14.8512 155.739 14.8512C153.821 14.8512 152.196 14.6783 150.882 14.3498L150.865 14.2807Z" fill="white"/>
<path d="M168.929 14.091C167.512 13.6069 166.406 12.9327 165.576 12.0856C164.747 11.2384 164.332 10.3221 164.332 9.31941C164.332 8.31668 164.747 7.38311 165.576 6.53597C166.406 5.68884 167.529 5.01459 168.929 4.53051C170.347 4.02915 171.868 3.78711 173.527 3.78711C175.186 3.78711 176.707 4.02915 178.107 4.53051C179.524 5.03188 180.63 5.70613 181.46 6.53597C182.289 7.36582 182.704 8.29939 182.704 9.31941C182.704 10.3394 182.289 11.2384 181.46 12.0683C180.63 12.8981 179.507 13.5724 178.107 14.0737C176.69 14.5751 175.169 14.8171 173.527 14.8171C171.885 14.8171 170.329 14.5751 168.929 14.0737V14.091ZM176.932 12.5178C178.003 12.2066 178.85 11.7744 179.507 11.2039C180.164 10.6506 180.475 10.0109 180.475 9.30212C180.475 8.5933 180.146 7.97091 179.507 7.40039C178.85 6.84716 178.003 6.39766 176.932 6.08647C175.86 5.77528 174.737 5.61968 173.527 5.61968C172.317 5.61968 171.194 5.77528 170.122 6.08647C169.05 6.39766 168.186 6.82988 167.547 7.40039C166.89 7.95362 166.579 8.5933 166.579 9.30212C166.579 10.0109 166.907 10.6333 167.547 11.2039C168.204 11.7571 169.05 12.2066 170.122 12.5178C171.194 12.829 172.334 12.9846 173.527 12.9846C174.719 12.9846 175.86 12.829 176.932 12.5178Z" fill="white"/>
<path d="M189.685 14.5215H189.478L181.891 4.14844H184.397L190.826 12.9483L197.256 4.16573H199.762L192.174 14.5388H189.668H189.685V14.5215Z" fill="white"/>
<path d="M204.894 14.0896C203.477 13.6056 202.336 12.9313 201.472 12.0842C200.608 11.2371 200.176 10.3208 200.176 9.35261C200.176 8.38446 200.573 7.41631 201.386 6.56918C202.198 5.72204 203.304 5.06508 204.704 4.56372C206.104 4.06235 207.659 3.82031 209.388 3.82031C211.116 3.82031 212.62 4.04506 214.003 4.47727C215.385 4.90948 216.491 5.61831 217.321 6.58646C218.151 7.55462 218.583 8.79938 218.583 10.3208H202.699C202.941 10.8394 203.408 11.2889 204.082 11.6866C204.756 12.0842 205.568 12.3954 206.502 12.6374C207.435 12.8795 208.403 12.9832 209.388 12.9832C210.598 12.9832 211.687 12.8449 212.654 12.5856C213.622 12.3089 214.452 11.9459 215.109 11.4618L216.993 12.43C215.956 13.2079 214.849 13.7957 213.657 14.2107C212.464 14.6256 211.047 14.8331 209.388 14.8331C207.729 14.8331 206.311 14.591 204.894 14.0896ZM213.605 6.39629C212.395 5.87764 210.995 5.6356 209.388 5.6356C208.334 5.6356 207.348 5.75662 206.415 5.98137C205.482 6.22341 204.687 6.5346 204.03 6.94952C203.373 7.36444 202.924 7.83123 202.665 8.3326H216.163C215.644 7.55462 214.798 6.89766 213.588 6.379L213.605 6.39629Z" fill="white"/>
<path d="M219.93 4.14937H221.796L222.004 5.72262C222.799 5.11753 223.715 4.65074 224.769 4.33955C225.823 4.02835 226.912 3.85547 228.053 3.85547C229.194 3.85547 230.231 4.01106 231.285 4.32226C232.322 4.63345 233.238 5.08295 234.033 5.68804L232.581 7.15756C232.063 6.72535 231.406 6.39687 230.576 6.17212C229.747 5.94737 228.882 5.82635 227.966 5.82635C226.947 5.82635 225.979 5.96466 225.08 6.25856C224.181 6.53518 223.438 6.96739 222.885 7.53791C222.332 8.10843 222.038 8.79996 222.038 9.61252V14.5224H219.964V4.14937H219.93Z" fill="white"/>
</g>
<defs>
<clipPath id="clip0_1840_3227">
<rect width="234" height="19" fill="white"/>
</clipPath>
</defs>
</svg>
