<svg width="259" height="41" viewBox="0 0 259 41" fill="none" xmlns="http://www.w3.org/2000/svg">
<rect width="259" height="41" rx="4" fill="white"/>
<path d="M18.1529 25.0901C17.6517 24.8135 17.2542 24.4331 16.9431 23.9663C16.632 23.4995 16.4937 22.9982 16.4937 22.4968V17.2238H12V15.1492H16.4937V11H18.5677V15.1492H26.0514V17.2238H18.5677V22.0646C18.5677 22.445 18.7232 22.7561 19.0171 23.0328C19.3109 23.3094 19.6738 23.4477 20.0886 23.4477H23.6144V25.505H19.7775C19.1899 25.5223 18.6541 25.384 18.1529 25.1074V25.0901Z" fill="#020202"/>
<path d="M27.9336 11H30.0076V16.7225C30.7508 16.1347 31.6495 15.6852 32.6865 15.3567C33.7235 15.0282 34.847 14.8553 36.0222 14.8553C37.1975 14.8553 38.3036 15.0109 39.3406 15.3394C40.3776 15.6679 41.2764 16.1174 42.0196 16.6706C43.4022 17.8116 44.0936 19.0046 44.0936 20.232V25.505H42.0196V20.0419C41.9332 19.3849 41.622 18.8144 41.0517 18.2957C40.4986 17.7771 39.7727 17.3794 38.874 17.1028C37.9753 16.8262 37.0247 16.6706 36.0222 16.6706C34.9507 16.6706 33.9655 16.8262 33.0495 17.1374C32.1335 17.4486 31.3903 17.8808 30.8372 18.4513C30.2841 19.0046 30.0076 19.6442 30.0076 20.353V25.505H27.9336V11Z" fill="#020202"/>
<path d="M45.806 13.1441C45.564 12.902 45.4258 12.5908 45.4258 12.2451C45.4258 11.8993 45.5468 11.6227 45.806 11.3806C46.0653 11.1386 46.3591 11.0176 46.7048 11.0176C47.0504 11.0176 47.3788 11.1386 47.6208 11.3806C47.88 11.6227 48.001 11.9166 48.001 12.2451C48.001 12.5735 47.88 12.8847 47.6208 13.1441C47.3615 13.4034 47.0504 13.5244 46.7048 13.5244C46.3591 13.5244 46.048 13.4034 45.7887 13.1441H45.806ZM45.7023 15.1495H47.7763V25.5226H45.7023V15.1495Z" fill="#020202"/>
<path d="M49.8845 15.1494H51.7511L51.9585 16.7227C52.7017 16.1349 53.5831 15.7027 54.5856 15.4088C55.588 15.1149 56.6596 14.9766 57.783 14.9766C59.1829 14.9766 60.5138 15.2013 61.7755 15.6335C63.0371 16.0657 64.0741 16.6881 64.8519 17.4834C65.6297 18.2787 66.0272 19.2122 66.0272 20.2495V25.5225H63.9532V20.215C63.8495 19.4888 63.5211 18.8665 62.9507 18.3651C62.3804 17.8637 61.6545 17.4834 60.7903 17.2241C59.9261 16.9647 58.9928 16.8437 58.0077 16.8437C56.9534 16.8437 55.9682 16.982 55.0522 17.2759C54.1362 17.5525 53.393 17.9848 52.8054 18.538C52.235 19.0912 51.9412 19.7655 51.9412 20.5434V25.5398H49.8672V15.1494H49.8845Z" fill="#020202"/>
<path d="M69.4685 22.2204V25.5398H67.3945V15.1667H69.4685V18.5725L83.4681 15.1494V17.224L69.4685 20.4051L83.4681 23.4997V25.5743L69.4685 22.2377V22.2204Z" fill="#020202"/>
<path d="M91.4849 25.0901C90.9837 24.8135 90.5862 24.4331 90.2751 23.9663C89.964 23.4995 89.8257 22.9982 89.8257 22.4968V17.2238H85.332V15.1492H89.8257V11H91.8997V15.1492H99.3834V17.2238H91.8997V22.0646C91.8997 22.445 92.0553 22.7561 92.3491 23.0328C92.6429 23.3094 93.0059 23.4477 93.4207 23.4477H96.9465V25.505H93.1096C92.5219 25.5223 91.9861 25.384 91.4849 25.1074V25.0901Z" fill="#020202"/>
<path d="M101.27 11H103.344V16.7225C104.087 16.1347 104.985 15.6852 106.022 15.3567C107.059 15.0282 108.183 14.8553 109.358 14.8553C110.533 14.8553 111.64 15.0109 112.677 15.3394C113.714 15.6679 114.612 16.1174 115.356 16.6706C116.738 17.8116 117.43 19.0046 117.43 20.232V25.505H115.356V20.0419C115.269 19.3849 114.958 18.8144 114.388 18.2957C113.835 17.7771 113.109 17.3794 112.21 17.1028C111.311 16.8262 110.361 16.6706 109.358 16.6706C108.287 16.6706 107.301 16.8262 106.385 17.1374C105.469 17.4486 104.726 17.8808 104.173 18.4513C103.62 19.0046 103.344 19.6442 103.344 20.353V25.505H101.27V11Z" fill="#020202"/>
<path d="M119.138 13.1441C118.896 12.902 118.758 12.5908 118.758 12.2451C118.758 11.8993 118.879 11.6227 119.138 11.3806C119.397 11.1386 119.691 11.0176 120.037 11.0176C120.382 11.0176 120.711 11.1386 120.953 11.3806C121.212 11.6227 121.333 11.9166 121.333 12.2451C121.333 12.5735 121.212 12.8847 120.953 13.1441C120.694 13.4034 120.382 13.5244 120.037 13.5244C119.691 13.5244 119.38 13.4034 119.121 13.1441H119.138ZM119.034 15.1495H121.108V25.5226H119.034V15.1495Z" fill="#020202"/>
<path d="M123.236 15.1494H125.103L125.31 16.7227C126.053 16.1349 126.935 15.7027 127.937 15.4088C128.94 15.1149 130.011 14.9766 131.135 14.9766C132.535 14.9766 133.865 15.2013 135.127 15.6335C136.389 16.0657 137.426 16.6881 138.203 17.4834C138.981 18.2787 139.379 19.2122 139.379 20.2495V25.5225H137.305V20.215C137.201 19.4888 136.873 18.8665 136.302 18.3651C135.732 17.8637 135.006 17.4834 134.142 17.2241C133.278 16.9647 132.344 16.8437 131.359 16.8437C130.305 16.8437 129.32 16.982 128.404 17.2759C127.488 17.5525 126.745 17.9848 126.157 18.538C125.587 19.0912 125.293 19.7655 125.293 20.5434V25.5398H123.219V15.1494H123.236Z" fill="#020202"/>
<path d="M145.393 29.378C144.269 28.9631 143.457 28.5481 142.973 28.1505C142.489 27.7529 142.092 27.4244 141.815 27.1996L143.163 26.0759C143.388 26.2488 143.699 26.4908 144.131 26.7847C144.546 27.0786 145.22 27.3898 146.136 27.6837C147.052 27.9949 148.123 28.1332 149.351 28.1332C150.422 28.1332 151.528 27.9776 152.669 27.6491C153.81 27.3207 154.743 26.8884 155.503 26.3352C156.264 25.782 156.627 25.1423 156.627 24.4508V23.7074C155.763 24.3643 154.691 24.8657 153.447 25.246C152.202 25.6264 150.854 25.7993 149.437 25.7993C147.778 25.7993 146.24 25.5572 144.84 25.0559C143.422 24.5718 142.316 23.8975 141.487 23.0504C140.657 22.2033 140.242 21.287 140.242 20.2843C140.242 19.2815 140.657 18.3479 141.487 17.5008C142.316 16.6537 143.44 15.9794 144.84 15.4954C146.257 14.994 147.778 14.752 149.437 14.752C151.096 14.752 152.617 14.994 154.017 15.4954C155.434 15.9967 156.54 16.671 157.37 17.5008C158.2 18.3307 158.614 19.2642 158.614 20.2843V24.4508C158.614 25.4189 158.165 26.3352 157.249 27.1823C156.333 28.0295 155.158 28.7037 153.706 29.2051C152.254 29.7065 150.802 29.9485 149.333 29.9485C147.864 29.9485 146.516 29.741 145.393 29.3261V29.378ZM152.825 23.5172C153.896 23.206 154.743 22.7738 155.4 22.2033C156.057 21.65 156.368 21.0104 156.368 20.3015C156.368 19.5927 156.039 18.9703 155.4 18.3998C154.743 17.8466 153.896 17.3971 152.825 17.0859C151.753 16.7747 150.63 16.6191 149.42 16.6191C148.21 16.6191 147.086 16.7747 146.015 17.0859C144.943 17.3971 144.079 17.8293 143.44 18.3998C142.783 18.953 142.472 19.5927 142.472 20.3015C142.472 21.0104 142.8 21.6328 143.44 22.2033C144.096 22.7565 144.943 23.206 146.015 23.5172C147.086 23.8284 148.227 23.984 149.42 23.984C150.612 23.984 151.753 23.8284 152.825 23.5172Z" fill="#020202"/>
<path d="M162.865 25.2807C161.552 24.9349 160.463 24.5373 159.616 24.0532L161.258 22.5837C161.845 22.8949 162.692 23.1888 163.798 23.4308C164.905 23.6729 166.201 23.7939 167.722 23.7939C168.43 23.7939 169.208 23.7247 170.09 23.5691C170.954 23.4135 171.697 23.2234 172.302 22.9986C172.907 22.7739 173.218 22.5318 173.218 22.2898C173.218 21.9267 172.717 21.6674 171.697 21.4945C170.695 21.3216 169.364 21.2352 167.722 21.2352C165.302 21.2352 163.315 20.9932 161.759 20.5264C160.204 20.0596 159.426 19.247 159.426 18.106C159.426 16.9649 160.186 16.1524 161.69 15.6337C163.194 15.1151 165.164 14.873 167.549 14.873C169.502 14.873 171.04 15.0286 172.164 15.3571C173.287 15.6856 174.238 16.1005 175.015 16.6192L173.771 18.1751C173.08 17.7084 172.198 17.3453 171.127 17.086C170.055 16.8266 168.914 16.7056 167.722 16.7056C166.305 16.7056 164.956 16.8266 163.643 17.086C162.329 17.328 161.673 17.6738 161.673 18.1233C161.673 18.5728 162.381 18.8494 163.816 19.0223C165.233 19.1952 166.547 19.2816 167.739 19.2816C170.332 19.2816 172.285 19.5409 173.564 20.0423C174.843 20.5437 175.499 21.3043 175.499 22.3417C175.499 23.0159 175.154 23.621 174.48 24.1569C173.806 24.6929 172.872 25.1078 171.697 25.4017C170.522 25.6956 169.208 25.8512 167.739 25.8512C165.821 25.8512 164.196 25.6783 162.882 25.3498L162.865 25.2807Z" fill="#020202"/>
<path d="M180.929 25.09C179.512 24.606 178.406 23.9317 177.576 23.0846C176.747 22.2375 176.332 21.3212 176.332 20.3184C176.332 19.3157 176.747 18.3821 177.576 17.535C178.406 16.6879 179.529 16.0136 180.929 15.5295C182.347 15.0282 183.868 14.7861 185.527 14.7861C187.186 14.7861 188.707 15.0282 190.107 15.5295C191.524 16.0309 192.63 16.7051 193.46 17.535C194.289 18.3648 194.704 19.2984 194.704 20.3184C194.704 21.3385 194.289 22.2375 193.46 23.0673C192.63 23.8971 191.507 24.5714 190.107 25.0728C188.69 25.5741 187.169 25.8162 185.527 25.8162C183.885 25.8162 182.329 25.5741 180.929 25.0728V25.09ZM188.932 23.5168C190.003 23.2056 190.85 22.7734 191.507 22.2029C192.164 21.6496 192.475 21.01 192.475 20.3011C192.475 19.5923 192.146 18.9699 191.507 18.3994C190.85 17.8462 190.003 17.3967 188.932 17.0855C187.86 16.7743 186.737 16.6187 185.527 16.6187C184.317 16.6187 183.194 16.7743 182.122 17.0855C181.05 17.3967 180.186 17.8289 179.547 18.3994C178.89 18.9526 178.579 19.5923 178.579 20.3011C178.579 21.01 178.907 21.6324 179.547 22.2029C180.204 22.7561 181.05 23.2056 182.122 23.5168C183.194 23.828 184.334 23.9836 185.527 23.9836C186.719 23.9836 187.86 23.828 188.932 23.5168Z" fill="#020202"/>
<path d="M201.685 25.5225H201.478L193.891 15.1494H196.397L202.826 23.9492L209.256 15.1667H211.762L204.174 25.5398H201.668H201.685V25.5225Z" fill="#020202"/>
<path d="M216.894 25.0896C215.477 24.6056 214.336 23.9313 213.472 23.0842C212.608 22.2371 212.176 21.3208 212.176 20.3526C212.176 19.3845 212.573 18.4163 213.386 17.5692C214.198 16.722 215.304 16.0651 216.704 15.5637C218.104 15.0624 219.659 14.8203 221.388 14.8203C223.116 14.8203 224.62 15.0451 226.003 15.4773C227.385 15.9095 228.491 16.6183 229.321 17.5865C230.151 18.5546 230.583 19.7994 230.583 21.3208H214.699C214.941 21.8394 215.408 22.2889 216.082 22.6866C216.756 23.0842 217.568 23.3954 218.502 23.6374C219.435 23.8795 220.403 23.9832 221.388 23.9832C222.598 23.9832 223.687 23.8449 224.654 23.5856C225.622 23.3089 226.452 22.9459 227.109 22.4618L228.993 23.43C227.956 24.2079 226.849 24.7957 225.657 25.2107C224.464 25.6256 223.047 25.8331 221.388 25.8331C219.729 25.8331 218.311 25.591 216.894 25.0896ZM225.605 17.3963C224.395 16.8776 222.995 16.6356 221.388 16.6356C220.334 16.6356 219.348 16.7566 218.415 16.9814C217.482 17.2234 216.687 17.5346 216.03 17.9495C215.373 18.3644 214.924 18.8312 214.665 19.3326H228.163C227.644 18.5546 226.798 17.8977 225.588 17.379L225.605 17.3963Z" fill="#020202"/>
<path d="M231.93 15.1494H233.796L234.004 16.7226C234.799 16.1175 235.715 15.6507 236.769 15.3395C237.823 15.0284 238.912 14.8555 240.053 14.8555C241.194 14.8555 242.231 15.0111 243.285 15.3223C244.322 15.6334 245.238 16.0829 246.033 16.688L244.581 18.1576C244.063 17.7254 243.406 17.3969 242.576 17.1721C241.747 16.9474 240.882 16.8264 239.966 16.8264C238.947 16.8264 237.979 16.9647 237.08 17.2586C236.181 17.5352 235.438 17.9674 234.885 18.5379C234.332 19.1084 234.038 19.8 234.038 20.6125V25.5224H231.964V15.1494H231.93Z" fill="#020202"/>
</svg>
