<svg xmlns="http://www.w3.org/2000/svg" viewBox="0 0 82.45 82.46"><g id="레이어_2" data-name="레이어 2"><g id="Layer_1" data-name="Layer 1"><path d="M82,40.74C49.36,36.49,46,33.1,41.72.44a.27.27,0,0,0,0-.12.43.43,0,0,0-.13-.19.59.59,0,0,0-.17-.1.45.45,0,0,0-.16,0,.51.51,0,0,0-.17,0,.42.42,0,0,0-.18.11.66.66,0,0,0-.12.17.79.79,0,0,0,0,.13C36.49,33.1,33.09,36.49.43,40.74a.49.49,0,0,0-.43.49.5.5,0,0,0,.43.5C33.1,46,36.49,49.36,40.73,82a.5.5,0,0,0,1,0C46,49.36,49.36,46,82,41.73a.5.5,0,0,0,.43-.5A.49.49,0,0,0,82,40.74ZM41.23,82C36.94,49,33.47,45.52.5,41.23,33.47,37,36.94,33.47,41.23.5,45.51,33.47,49,37,82,41.23,49,45.52,45.51,49,41.23,82Z"/></g></g></svg>