<svg xmlns="http://www.w3.org/2000/svg" viewBox="0 0 1279.89 142.17"><g id="레이어_2" data-name="레이어 2"><g id="Layer_1" data-name="Layer 1"><path d="M5.22,43.2H0l1.44-3.36L17,3.84,17.7,2.4h3.12l.66,1.44,15.6,36,1.44,3.36H33.3l-.66-1.44L19.26,10.86,5.88,41.76Z"/><path d="M43.26,19a12.15,12.15,0,0,1,9.66-4.62,12.32,12.32,0,0,1,8.4,3.3V0h4.8V43.2h-4.8V39.9a12.56,12.56,0,0,1-8.4,3.3,12.19,12.19,0,0,1-8.58-3.48A14.19,14.19,0,0,1,39.72,28.8,14.57,14.57,0,0,1,43.26,19Zm3,15.6a7.68,7.68,0,0,0,6.66,3.78,7.49,7.49,0,0,0,5-1.92,9.72,9.72,0,0,0,3.36-7.68A10.36,10.36,0,0,0,59.58,23a7.68,7.68,0,0,0-6.66-3.78,7.49,7.49,0,0,0-5,1.92,9.72,9.72,0,0,0-3.36,7.68A10.36,10.36,0,0,0,46.26,34.62Z"/><path d="M75.72,19a12.15,12.15,0,0,1,9.66-4.62,12.32,12.32,0,0,1,8.4,3.3V14.4h4.8V43.2h-4.8V39.9a12.56,12.56,0,0,1-8.4,3.3,12.19,12.19,0,0,1-8.58-3.48A14.19,14.19,0,0,1,72.18,28.8,14.57,14.57,0,0,1,75.72,19Zm3,15.6a7.68,7.68,0,0,0,6.66,3.78,7.49,7.49,0,0,0,5-1.92,9.72,9.72,0,0,0,3.36-7.68A10.36,10.36,0,0,0,92,23a7.68,7.68,0,0,0-6.66-3.78,7.49,7.49,0,0,0-5,1.92A9.72,9.72,0,0,0,77,28.8,10.36,10.36,0,0,0,78.72,34.62Z"/><path d="M126.12,18.48a10.15,10.15,0,0,1,14.76-1.62A11.34,11.34,0,0,1,145,25.92V40.8l.06,2.46h-4.74l-.06-2.4-.06-14.94a7.86,7.86,0,0,0-.9-3.66,5.52,5.52,0,0,0-8.22-2,6.63,6.63,0,0,0-2.64,5.64V40.8l.06,2.46h-4.74l-.06-2.4-.06-12.54v-2.4a7.86,7.86,0,0,0-.9-3.66,5.52,5.52,0,0,0-8.22-2,6.63,6.63,0,0,0-2.64,5.64V43.2H107V14.4h4.8v1.92a10.32,10.32,0,0,1,5.88-1.92A10.7,10.7,0,0,1,126,18.6S126.08,18.56,126.12,18.48Z"/><path d="M469.36,14.3A7.18,7.18,0,0,1,475,11.6a7.44,7.44,0,0,1,6.3,3.57V11.6h1.4V28.4h-1.4V24.83c-.19.28-.4.58-.63.88a7.31,7.31,0,0,1-10.75.63A8.41,8.41,0,0,1,467.33,20,8.62,8.62,0,0,1,469.36,14.3Zm.84,10.22a5.91,5.91,0,0,0,8.82.91A7,7,0,0,0,481.33,20a7.41,7.41,0,0,0-1.47-4.51,5.89,5.89,0,0,0-8.82-.91A7,7,0,0,0,468.73,20,7.43,7.43,0,0,0,470.2,24.52Z"/><path d="M502,4.6V3.9h1.4V15.17q.29-.42.63-.84a7.26,7.26,0,0,1,10.75-.66A8.4,8.4,0,0,1,517.41,20a8.65,8.65,0,0,1-2,5.71,7.17,7.17,0,0,1-5.67,2.69,6.93,6.93,0,0,1-1.22-.1,7.39,7.39,0,0,1-5.08-3.47V28.4H502V4.6Zm2.91,19.92a5.86,5.86,0,0,0,8.78.91A7,7,0,0,0,516,20a7.41,7.41,0,0,0-1.47-4.51,5.89,5.89,0,0,0-8.82-.91A7,7,0,0,0,503.41,20,7.13,7.13,0,0,0,504.92,24.52Z"/><path d="M547.72,25.11a7.25,7.25,0,0,1-6.26,3.29,7,7,0,0,1-5-2A8.45,8.45,0,0,1,533.86,20a8.71,8.71,0,0,1,2-5.63,7,7,0,0,1,5.64-2.77,7.31,7.31,0,0,1,6.3,3.08l-1.19.77A5.8,5.8,0,0,0,541.46,13a5.73,5.73,0,0,0-3.92,1.54A7.08,7.08,0,0,0,535.26,20a7.52,7.52,0,0,0,1.4,4.48,5.72,5.72,0,0,0,4.8,2.52,6.19,6.19,0,0,0,5.14-2.66Z"/><path d="M566.38,14.3a7.18,7.18,0,0,1,5.67-2.7,7.44,7.44,0,0,1,6.3,3.57V3.9h1.4V28.4h-1.4V24.83c-.19.28-.4.58-.63.88a7.31,7.31,0,0,1-10.75.63A8.41,8.41,0,0,1,564.35,20,8.62,8.62,0,0,1,566.38,14.3Zm.84,10.22a5.91,5.91,0,0,0,8.82.91A7,7,0,0,0,578.35,20a7.41,7.41,0,0,0-1.47-4.51,5.89,5.89,0,0,0-8.82-.91A7,7,0,0,0,565.75,20,7.43,7.43,0,0,0,567.22,24.52Z"/><path d="M612,25a7.92,7.92,0,0,1-6.65,3.36,7.2,7.2,0,0,1-5-2A8.41,8.41,0,0,1,597.63,20a8.58,8.58,0,0,1,2-5.63,7.08,7.08,0,0,1,5.7-2.77,7.2,7.2,0,0,1,5.08,2.07A8.4,8.4,0,0,1,613,20v.7h-14a7.7,7.7,0,0,0,1.4,3.78A5.82,5.82,0,0,0,605.33,27a6.62,6.62,0,0,0,5.53-2.8Zm-.35-5.74a6.14,6.14,0,0,0-1.47-3.92A6,6,0,0,0,605.33,13a5.87,5.87,0,0,0-3.6,1.23,6.87,6.87,0,0,0-2.66,5.07Z"/><path d="M637.22,11.6h.7V13H633V28.4h-1.4V13h-2.8V11.6h2.83a11.64,11.64,0,0,1,.67-3.5,4.93,4.93,0,0,1,4.9-3.53h.7V6h-.7a3.69,3.69,0,0,0-1.33.24c-1.71.66-2.65,2.45-2.84,5.39Z"/><path d="M655.77,14.3a7.18,7.18,0,0,1,5.67-2.7,7.44,7.44,0,0,1,6.3,3.57V11.64h1.47l0,.7,0,15.36A6.79,6.79,0,0,1,667.46,32a7.45,7.45,0,0,1-6,2.94h-.7v-1.4h.7a6.26,6.26,0,0,0,4.45-1.89,5.49,5.49,0,0,0,1.82-3.92V24.83c-.19.28-.4.58-.63.88a7.31,7.31,0,0,1-10.75.63A8.41,8.41,0,0,1,653.74,20,8.62,8.62,0,0,1,655.77,14.3Zm.84,10.22a5.91,5.91,0,0,0,8.82.91A7,7,0,0,0,667.74,20a7.41,7.41,0,0,0-1.47-4.51,5.89,5.89,0,0,0-8.82-.91A7,7,0,0,0,655.14,20,7.43,7.43,0,0,0,656.61,24.52Z"/><path d="M690,14.09a6.19,6.19,0,0,1,5-2.49,6.38,6.38,0,0,1,4.23,1.61,7,7,0,0,1,2.42,5.5v9l0,.74h-1.36l0-.7,0-9a5.93,5.93,0,0,0-1.09-3.47A4.87,4.87,0,0,0,695,13a5,5,0,0,0-3.19,1.16,5.6,5.6,0,0,0-2.06,4.55V28.4h-1.4V6.14h1.4v8.19A1,1,0,0,1,690,14.09Z"/><path d="M721.14,8.77V7.37h1.44v1.4h-1.44Zm0,2.83h1.4V28.4h-1.4V11.6Z"/><path d="M743.82,11.64h1.47l0,.7,0,15.36a9,9,0,0,1-1.29,4.87,4.34,4.34,0,0,1-3.68,2.34h-.7v-1.4h.7a2.92,2.92,0,0,0,2-1,6.91,6.91,0,0,0,1.54-4.8V11.64Zm0-2.77V7.47h1.44v1.4h-1.44Z"/><path d="M765.91,20.7v7.7h-1.4V3.9h1.4V19.3h1.78l8.23-7.52.21-.18h2.06l-1.29,1.23L769.06,20l7.84,7.18,1.29,1.22h-2.06l-.21-.17-8.23-7.53Z"/><path d="M923.59,14.3a7.18,7.18,0,0,1,5.67-2.7,7.4,7.4,0,0,1,2.8.56,7.86,7.86,0,0,1,4.2,4.31V4.25h.7V28.4h-.7V23.54a8.84,8.84,0,0,1-1.3,2.1,7.09,7.09,0,0,1-5.7,2.76,7.19,7.19,0,0,1-5.08-2.06A8.41,8.41,0,0,1,921.56,20,8.62,8.62,0,0,1,923.59,14.3ZM924,25.11a6.49,6.49,0,0,0,5.25,2.59,6.39,6.39,0,0,0,4.51-1.82A7.67,7.67,0,0,0,936.26,20a8,8,0,0,0-1.72-5.07,6.43,6.43,0,0,0-5.28-2.63,6.55,6.55,0,0,0-4.52,1.82A7.7,7.7,0,0,0,922.26,20,8,8,0,0,0,924,25.11Z"/><path d="M954.88,25a7.91,7.91,0,0,1-6.72,3.39,7.13,7.13,0,0,1-5-2A8.37,8.37,0,0,1,940.46,20a8.48,8.48,0,0,1,2-5.63,7.11,7.11,0,0,1,5.71-2.77,7.25,7.25,0,0,1,5,2A8.42,8.42,0,0,1,955.86,20v.35h-14.7A8.22,8.22,0,0,0,942.84,25a6.48,6.48,0,0,0,5.32,2.66,7.4,7.4,0,0,0,6.16-3.11Zm.28-5.36a7.42,7.42,0,0,0-1.72-4.79,6.63,6.63,0,0,0-5.28-2.56A6.49,6.49,0,0,0,943.82,14a7.58,7.58,0,0,0-2.66,5.7Z"/><path d="M969.68,15.94a2.88,2.88,0,0,0-.91-2,5.63,5.63,0,0,0-4.27-1.61,6.79,6.79,0,0,0-3,.7,3.29,3.29,0,0,0-2.14,2.94,2.33,2.33,0,0,0,.81,1.61,15.44,15.44,0,0,0,4.69,2.07c1.33.44,2.3.78,2.9,1,2.2.94,3.29,2.08,3.29,3.43a3.44,3.44,0,0,1-1.08,2.42,7.28,7.28,0,0,1-5.43,1.92,8.48,8.48,0,0,1-4.2-1A3.8,3.8,0,0,1,958,24.06h.7a3,3,0,0,0,1,2,6.84,6.84,0,0,0,4.83,1.61,7.86,7.86,0,0,0,3.54-.77c1.51-.72,2.27-1.68,2.27-2.87a2.27,2.27,0,0,0-.84-1.61,14.77,14.77,0,0,0-4.62-2q-2-.66-2.94-1.05-3.28-1.36-3.29-3.43a3.66,3.66,0,0,1,1-2.45,6.29,6.29,0,0,1,4.86-1.89,7.11,7.11,0,0,1,3.71,1,3.85,3.85,0,0,1,2.17,3.36Z"/><path d="M974.9,8.42v-.7h.73v.7h-.73Zm0,3.18h.7V28.4h-.7V11.6Z"/><path d="M981.51,14.3a7.18,7.18,0,0,1,5.67-2.7,7.36,7.36,0,0,1,2.8.56,7.83,7.83,0,0,1,4.2,4.31V11.64H995l0,.35,0,16.06a5.15,5.15,0,0,1-1.47,3.26,8.11,8.11,0,0,1-6.19,2.59h-.35v-.7h.35a8,8,0,0,0,5-1.75,4.43,4.43,0,0,0,1.92-3.4V23.54a8.8,8.8,0,0,1-1.29,2.1,7.1,7.1,0,0,1-5.71,2.76,7.18,7.18,0,0,1-5.07-2.06A8.42,8.42,0,0,1,979.48,20,8.67,8.67,0,0,1,981.51,14.3Zm.42,10.81a6.57,6.57,0,0,0,9.77.77A7.7,7.7,0,0,0,994.18,20a8,8,0,0,0-1.71-5.07,6.45,6.45,0,0,0-5.29-2.63,6.52,6.52,0,0,0-4.51,1.82A7.67,7.67,0,0,0,980.18,20,8,8,0,0,0,981.93,25.11Z"/><path d="M1013.12,28.44h-.67l0-.35,0-9.45a6.52,6.52,0,0,0-1.29-4,5.73,5.73,0,0,0-8.4-1,6.27,6.27,0,0,0-2.21,4.94V28.4h-.7V11.6h.7v3.89a7.63,7.63,0,0,1,.88-1.4,6.38,6.38,0,0,1,9.34-.84,6.86,6.86,0,0,1,2.38,5.39v9.41Z"/><path d="M1031,25a7.89,7.89,0,0,1-6.72,3.39,7.13,7.13,0,0,1-5-2,8.41,8.41,0,0,1-2.66-6.37,8.49,8.49,0,0,1,2-5.63,7.09,7.09,0,0,1,5.7-2.77,7.25,7.25,0,0,1,5,2A8.39,8.39,0,0,1,1032,20v.35h-14.7A8.37,8.37,0,0,0,1019,25a6.49,6.49,0,0,0,5.32,2.66,7.39,7.39,0,0,0,6.16-3.11Zm.28-5.36a7.46,7.46,0,0,0-1.71-4.79,6.66,6.66,0,0,0-5.29-2.56,6.51,6.51,0,0,0-4.34,1.65,7.61,7.61,0,0,0-2.66,5.7Z"/><path d="M1037,14.79c1.49-2.12,3.78-3.19,6.86-3.19h.35v.7h-.35a8.43,8.43,0,0,0-4.2,1q-3.4,2-3.43,6.51V28.4h-.7V11.6h.7v4.59A7.64,7.64,0,0,1,1037,14.79Z"/><path d="M1059.49,28.4h-.77l.21-.49,10.15-23.1a.46.46,0,0,1,.14-.14c.23-.11.4-.07.49.14l10.15,23.1.21.49h-.77l-.07-.21L1069.4,5.83l-9.84,22.36Z"/><path d="M1083.33,14.3a7.18,7.18,0,0,1,5.67-2.7,7.4,7.4,0,0,1,2.8.56,7.89,7.89,0,0,1,4.2,4.31V4.25h.7V28.4h-.7V23.54a8.84,8.84,0,0,1-1.3,2.1,7.1,7.1,0,0,1-5.7,2.76,7.19,7.19,0,0,1-5.08-2.06A8.41,8.41,0,0,1,1081.3,20,8.62,8.62,0,0,1,1083.33,14.3Zm.42,10.81A6.49,6.49,0,0,0,1089,27.7a6.41,6.41,0,0,0,4.51-1.82A7.67,7.67,0,0,0,1096,20a8.05,8.05,0,0,0-1.72-5.07A6.44,6.44,0,0,0,1089,12.3a6.55,6.55,0,0,0-4.52,1.82A7.66,7.66,0,0,0,1082,20,8,8,0,0,0,1083.75,25.11Z"/><path d="M1102.12,14.3a6.63,6.63,0,0,1,5.36-2.7,6.18,6.18,0,0,1,2.31.46,7.36,7.36,0,0,1,4,4.27V11.6h.7V28.4h-.7V23.68a8.94,8.94,0,0,1-1.16,2,6.23,6.23,0,0,1-5.14,2.73,6.61,6.61,0,0,1-4.73-2A8.63,8.63,0,0,1,1100.2,20,9,9,0,0,1,1102.12,14.3Zm.42,10.81a6,6,0,0,0,4.94,2.59,5.49,5.49,0,0,0,4-1.75,8,8,0,0,0,2.31-5.95,8.5,8.5,0,0,0-1.58-5.07,5.64,5.64,0,0,0-4.72-2.63,5.86,5.86,0,0,0-4.17,1.75A7.87,7.87,0,0,0,1100.9,20,8.28,8.28,0,0,0,1102.54,25.11Z"/><path d="M1131.42,14a5.2,5.2,0,0,1,4.41-2.35,5.34,5.34,0,0,1,3.5,1.33,6.5,6.5,0,0,1,2.2,5.15v10l0,.39h-.67l0-.35,0-10a6.29,6.29,0,0,0-1-3.57,4.59,4.59,0,0,0-6.93-1.09,5.8,5.8,0,0,0-2,4.66v10l0,.39h-.67l0-.35,0-9.66v-.35a6.29,6.29,0,0,0-1-3.57,4.59,4.59,0,0,0-6.93-1.09,5.8,5.8,0,0,0-2,4.66V28.4h-.7V11.6h.7v3.33a6.46,6.46,0,0,1,.6-1,5.23,5.23,0,0,1,6.51-1.89,5.84,5.84,0,0,1,3.25,3.74A6.63,6.63,0,0,1,1131.42,14Z"/><path d="M1178.32,4.6v.7h-16.1V16.15H1174v.7h-11.79V27.7h16.1v.7h-16.45a.38.38,0,0,1-.35-.35V5a.4.4,0,0,1,.35-.35h16.45Z"/><path d="M1184,14.79c1.49-2.12,3.78-3.19,6.86-3.19h.35v.7h-.35a8.43,8.43,0,0,0-4.2,1q-3.4,2-3.43,6.51V28.4h-.7V11.6h.7v4.59A7.64,7.64,0,0,1,1184,14.79Z"/><path d="M1194,8.42v-.7h.74v.7H1194Zm0,3.18h.7V28.4h-.7V11.6Z"/><path d="M1212.55,25.11a7.3,7.3,0,0,1-6.3,3.29,7.1,7.1,0,0,1-5-2,8.45,8.45,0,0,1-2.62-6.37,8.66,8.66,0,0,1,2-5.63,7.05,7.05,0,0,1,5.67-2.77,7.36,7.36,0,0,1,6.3,3.08l-.56.42a6.59,6.59,0,0,0-5.74-2.8,6.4,6.4,0,0,0-4.48,1.82,7.65,7.65,0,0,0-2.45,5.88,8.15,8.15,0,0,0,1.68,5.08,6.38,6.38,0,0,0,5.25,2.62,6.84,6.84,0,0,0,5.74-3Z"/><path d="M1226.44,15.94a2.88,2.88,0,0,0-.91-2,5.65,5.65,0,0,0-4.27-1.61,6.76,6.76,0,0,0-3,.7,3.29,3.29,0,0,0-2.14,2.94,2.29,2.29,0,0,0,.81,1.61,15.44,15.44,0,0,0,4.69,2.07c1.33.44,2.29.78,2.9,1q3.29,1.41,3.29,3.43a3.44,3.44,0,0,1-1.08,2.42,7.28,7.28,0,0,1-5.43,1.92,8.42,8.42,0,0,1-4.2-1,3.8,3.8,0,0,1-2.31-3.33h.7a3,3,0,0,0,1,2,6.84,6.84,0,0,0,4.83,1.61,7.86,7.86,0,0,0,3.54-.77c1.51-.72,2.27-1.68,2.27-2.87a2.27,2.27,0,0,0-.84-1.61,14.77,14.77,0,0,0-4.62-2q-2-.66-2.94-1.05-3.29-1.36-3.29-3.43a3.66,3.66,0,0,1,1-2.45,6.28,6.28,0,0,1,4.86-1.89,7.14,7.14,0,0,1,3.71,1,3.85,3.85,0,0,1,2.17,3.36Z"/><path d="M1241.56,15.94a2.88,2.88,0,0,0-.91-2,5.65,5.65,0,0,0-4.27-1.61,6.76,6.76,0,0,0-3,.7,3.29,3.29,0,0,0-2.14,2.94,2.29,2.29,0,0,0,.81,1.61,15.44,15.44,0,0,0,4.69,2.07c1.33.44,2.29.78,2.9,1q3.29,1.41,3.29,3.43a3.44,3.44,0,0,1-1.08,2.42,7.28,7.28,0,0,1-5.43,1.92,8.42,8.42,0,0,1-4.2-1,3.8,3.8,0,0,1-2.31-3.33h.7a3,3,0,0,0,1,2,6.84,6.84,0,0,0,4.83,1.61,7.86,7.86,0,0,0,3.54-.77c1.51-.72,2.27-1.68,2.27-2.87a2.27,2.27,0,0,0-.84-1.61,14.77,14.77,0,0,0-4.62-2q-2-.66-2.94-1.05-3.29-1.36-3.29-3.43a3.66,3.66,0,0,1,1-2.45,6.28,6.28,0,0,1,4.86-1.89,7.14,7.14,0,0,1,3.71,1,3.85,3.85,0,0,1,2.17,3.36Z"/><path d="M1247.05,14.3a7.29,7.29,0,0,1,10.71-.67,8.39,8.39,0,0,1,2.66,6.37,8.58,8.58,0,0,1-2,5.64,7.1,7.1,0,0,1-5.71,2.76,7.18,7.18,0,0,1-5.07-2.06A8.41,8.41,0,0,1,1245,20,8.66,8.66,0,0,1,1247.05,14.3Zm.42,10.81a6.5,6.5,0,0,0,5.25,2.59,6.42,6.42,0,0,0,4.52-1.82,7.66,7.66,0,0,0,2.48-5.88,8,8,0,0,0-1.71-5.07,6.45,6.45,0,0,0-5.29-2.63,6.52,6.52,0,0,0-4.51,1.82,7.67,7.67,0,0,0-2.49,5.88A8,8,0,0,0,1247.47,25.11Z"/><path d="M1277.29,28.44h-.66l0-.35,0-9.45a6.52,6.52,0,0,0-1.29-4,5.73,5.73,0,0,0-8.4-1,6.27,6.27,0,0,0-2.21,4.94V28.4h-.7V11.6h.7v3.89a7.13,7.13,0,0,1,.88-1.4,6.38,6.38,0,0,1,9.34-.84,6.86,6.86,0,0,1,2.38,5.39v9.41Z"/><path d="M5.61,115.25c0,2.84,2.9,3.84,9.85,6.28,9.71,3.36,11.51,5,11.51,9.36v3.64c0,5-5.15,7.64-12.3,7.64s-12.21-2.68-12.21-7.64v-3.36h2.8v3.28c0,3.52,3.75,5.72,9.45,5.72s9.46-2.2,9.46-5.72v-3.2c0-3.84-2.15-5-9.86-7.64-8.75-3-11.55-4.56-11.55-8.32v-3c0-5,4.9-7.64,12-7.64s12,2.68,12,7.64v3.16H23.82v-3.08c0-3.52-3.5-5.72-9.11-5.72s-9.1,2.16-9.1,5.68Z"/><path d="M52.33,141.37h-2.8v-2.84l-11.26,2.59c-4.75,1.09-7.7-.32-7.7-3.87v-5.4c0-4.28,2.85-6.44,8.4-6.44H49.53v-5.92c0-3.24-2.55-5.4-7.8-5.4s-7.66,2.16-7.66,5.36v1.44h-2.8v-1.68c0-4.44,4-7,10.46-7s10.6,2.64,10.6,7.08Zm-19-4.72c0,2.56,1.9,3.23,5.1,2.47l11.11-2.55v-9.24H40c-4.9,0-6.65,1.12-6.65,5Z"/><path d="M57.93,141.37V112.61h2.8v2.84l11-2.64c5-1.16,7.7.24,7.7,3.88v24.68h-2.8V117.49c0-2.52-1.7-3.44-5.1-2.6l-10.81,2.56v23.92Z"/><path d="M103.4,105.41h2.75v35.84H103.4v-2.72L92.19,141c-4.9,1.07-7.65-.29-7.65-3.84V119c0-4.36,2.8-6.4,8.35-6.4H103.4Zm-16.06,31c0,2.48,1.75,3.32,5,2.6l11-2.44v-22H94c-4.91,0-6.66,1.36-6.66,5.16Z"/><path d="M111.4,119.57c0-4.68,4.55-7.36,11.21-7.36s11.25,2.68,11.25,7.36v15.16c0,4.76-4.65,7.39-11.25,7.39s-11.21-2.63-11.21-7.39Zm2.75,14.92c0,3.52,3,5.72,8.46,5.72s8.5-2.2,8.5-5.72V119.85c0-3.56-3.1-5.72-8.5-5.72s-8.46,2.16-8.46,5.72Z"/><path d="M139.06,141.37v-36h2.8v36Z"/><path d="M148,141.37v-36h2.81v36Z"/><path d="M169.77,122.57c12.71-.52,21-4.72,21-14H170v-2.36h23.76v1.88c0,11.68-10.25,16.32-24,16.84ZM207.54,142V130.73H172.42v-2.32h38.12V142Zm0-15.67v-5.48H194.63v-2.36h12.91v-5.64H195.63v-2.32h11.91v-5.2h3v21Z"/><path d="M240.35,122.93h21.11v2.32H216.24v-2.32h21.11v-5.28H219.79V106h38.12v2.32H222.79v7h35.37v2.32H240.35Zm10.25,6.32c5.26,0,8.06,3,8.06,6.2s-2.8,6.19-8.06,6.19H227.09c-5.25,0-8.05-2.95-8.05-6.19s2.8-6.2,8.05-6.2Zm-.4,10.08c3.2,0,5.46-1.64,5.46-3.92s-2.26-3.84-5.46-3.84H227.44c-3.15,0-5.4,1.64-5.4,3.84s2.25,3.92,5.4,3.92Z"/><path d="M264.26,140.41v-2.36h18.56V121.33h3v16.72h23.66v2.36ZM300.87,132,303,108.73H267.56v-2.36h38.61l-2.3,25.6Z"/><path d="M315.28,124.41v-18.2h22.31v2.36H318.28v13.28l23.21-1.48v2.32ZM351.59,142V130.81H317.28v-2.36h37.31V142Zm0-15.59V105.33h3v21.08Z"/><path d="M485.11,128.74c10.62-2,16.61-8.82,16.53-21.44H485.29v-1.13h17.8v1c0,13.52-6.6,20.74-18,22.72ZM511.36,131V104.8h1.46v11.26h5.8v1.16h-5.8V131Z"/><path d="M521.08,129.63V106h1.45v22.31l18.17-1.62v1.18Zm24.45,1.4V104.8H547v11.26h6.45v1.16H547V131Z"/><path d="M555.89,129.63V106.17h16.87v1.13H557.34v21.09l17-1.54V128Zm24.45,1.4V104.8h1.45v11.26h6.46v1.16h-6.46V131Z"/><path d="M589.73,129.63v-13h16V107.3h-16v-1.13h17.44v11.6h-16v10.62L610,126.91V128ZM616.2,131V104.8h1.46v11.52h5.4v1.13h-5.4V131Z"/><path d="M624.54,129.63V106.17h17.77v23.46h-1.45V128.1Zm1.45-1.3,14.87-1.39V107.3H626Zm25,2.7V104.8h1.45v11.26h5.4v1.13h-5.4V131Z"/><path d="M659.35,129.63V106h1.46v8.56h14.87V106h1.45v23.64h-1.45V128.1Zm1.46-1.3,14.87-1.39V115.68H660.81Zm25,2.7V104.8h1.45v11.26h5.41v1.16h-5.41V131Z"/><path d="M693.08,128.13c3.84-1.77,10.55-7,10.55-13.11v-9.4h1.46V115c0,6.15,6.67,11.34,10.55,13.11v1.39c-4.46-1.83-10.3-6.73-11.28-11.52-1,4.79-6.82,9.69-11.28,11.52Zm27.57,2.9V104.8h1.45v11.26h5.4v1.16h-5.4V131Z"/><path d="M729,123.4V111.62c0-3.94,4-6.64,8.92-6.64s8.89,2.7,8.89,6.64V123.4c0,4-3.92,6.67-8.89,6.67S729,127.37,729,123.4Zm16.36.06V111.59c0-3.19-3.3-5.48-7.44-5.48s-7.47,2.29-7.47,5.48v11.87c0,3.22,3.34,5.48,7.47,5.48S745.34,126.68,745.34,123.46ZM755.46,131V104.8h1.45v11.26h5.4v1.16h-5.4V131Z"/><path d="M1133.74,119.28c4.06-1.22,10.08-4.61,10.08-8.93v-5h.72v5c0,4.32,6,7.71,10.09,8.93v.61c-4.25-1.16-9.8-4.5-10.45-8.21-.65,3.71-6.27,7-10.44,8.21Zm3,11.69v-8.59h.73v8h25.68V131Zm25-7V104.86h.73V113h5.22v.58h-5.22V124Z"/><path d="M1187.77,117h16v.58h-32.64V117h16v-4.41H1174v-7.11h26.84v.58h-26.12v6H1201v.58h-13.24Zm-13.06,9.22v4.18h26.66V131H1174v-5.34h26.11v-4.09H1174V121h26.84v5.25Z"/><path d="M1225.12,131.26v-11.2h-15.95v-.58h32.64v.58h-16v11.2Zm11.54-14.39,1.59-10.56h-26.36v-.58h27.2l-1.71,11.14Z"/><path d="M1247.24,119.45v-.58h32.65v.58Zm2.9-4.49v-5.08h26.12v-3.83h-26.12v-.58H1277v5h-26.11v3.92h26.3V115Zm0,16v-7.66H1277V131h-.72V130Zm.73-.61,25.39-.9v-5.57h-25.39Z"/></g></g></svg>