<svg xmlns="http://www.w3.org/2000/svg" viewBox="0 0 43.23 120.58"><g id="레이어_2" data-name="레이어 2"><g id="Layer_1" data-name="Layer 1"><path d="M31.35,43a3,3,0,0,1-2.25-1L12.88,27.22l-6,4.53a8.14,8.14,0,0,1-1.77,1.1,1.94,1.94,0,0,1-1.58-.15A15.77,15.77,0,0,1,.51,30a2.49,2.49,0,0,1-.45-2c.17-.66.68-1.12,1.6-2l5-4.49L1.66,17c-.92-.84-1.43-1.3-1.6-2a2.48,2.48,0,0,1,.43-2,15.6,15.6,0,0,1,3.07-2.75,1.94,1.94,0,0,1,1.58-.15,8.53,8.53,0,0,1,1.79,1.11l5.93,4.5L29.16,1h0A3,3,0,0,1,31.93.05h0c.43.11,2,.78,9.84,4.58A2.56,2.56,0,0,1,43,6.06a11.11,11.11,0,0,1,.27,2.88V34.09A11,11,0,0,1,43,37a2.52,2.52,0,0,1-1.2,1.43C34,42.17,32.36,42.85,31.93,43h0A2.93,2.93,0,0,1,31.35,43ZM12.94,25.92,29.83,41.3a2,2,0,0,0,1.92.68h0c.65-.21,6.16-2.85,9.54-4.49a1.65,1.65,0,0,0,.69-.86,10.13,10.13,0,0,0,.21-2.51V8.92A10.13,10.13,0,0,0,42,6.4a1.6,1.6,0,0,0-.7-.86C38,3.89,32.44,1.25,31.78,1h0a2,2,0,0,0-1.86.62l-17,15.45-6.61-5a8.25,8.25,0,0,0-1.55-1c-.22-.1-.46,0-.78.13a14.43,14.43,0,0,0-2.72,2.48h0A1.46,1.46,0,0,0,1,14.83c.1.36.55.77,1.3,1.46l5.76,5.24L2.33,26.76c-.75.69-1.2,1.1-1.3,1.46a1.43,1.43,0,0,0,.25,1.11A14.28,14.28,0,0,0,4,31.79a1,1,0,0,0,.78.13,7.79,7.79,0,0,0,1.53-1Zm19.72,6.16L18.71,21.51,32.66,10.93ZM20.36,21.51l11.3,8.56V13Z"/><path d="M7.76,115.56a3.73,3.73,0,0,1,2-2.18,2.35,2.35,0,0,1-.52-.32,2.64,2.64,0,0,1-.49-4A3.33,3.33,0,0,1,11.36,108a3.51,3.51,0,0,1,2.1.67,2.7,2.7,0,0,1,1.19,2.25,2.63,2.63,0,0,1-.09.67,2.86,2.86,0,0,1-1.6,1.83,4.41,4.41,0,0,1,.9.6,3.68,3.68,0,0,1,1.28,2.84,3.57,3.57,0,0,1-.92,2.43,3.63,3.63,0,0,1-2.88,1.31,3.74,3.74,0,0,1-2.5-.91,3.57,3.57,0,0,1-1.3-2.83A3.63,3.63,0,0,1,7.76,115.56Zm3.6-1.8H11.1a3.12,3.12,0,0,0-1.71.68,3,3,0,0,0,1.95,5.4,3,3,0,0,0,1.92-.66,2.86,2.86,0,0,0,1.16-2.36,3,3,0,0,0-.56-1.76,2.92,2.92,0,0,0-2.25-1.3ZM9.12,112a2.54,2.54,0,0,0,2,1h.51a2.84,2.84,0,0,0,1.28-.41,2,2,0,0,0,1-1.73,1.92,1.92,0,0,0-.49-1.28,2.58,2.58,0,0,0-2.08-.92,2.88,2.88,0,0,0-1.55.44,2,2,0,0,0-1.06,1.76A1.8,1.8,0,0,0,9.12,112Z"/><path d="M17.8,109.64A3.15,3.15,0,0,1,20.41,108a3.08,3.08,0,0,1,2.39,1.44,8.05,8.05,0,0,1,1.37,4.86A8.38,8.38,0,0,1,23,118.91a3.07,3.07,0,0,1-2.54,1.67A3.12,3.12,0,0,1,18,119.12a8,8,0,0,1-1.38-4.86A8.24,8.24,0,0,1,17.8,109.64Zm.34,8.46c.6,1.17,1.36,1.76,2.27,1.76a2.42,2.42,0,0,0,1.94-1.28,7.69,7.69,0,0,0,1.1-4.32,8.28,8.28,0,0,0-.83-3.83c-.6-1.16-1.33-1.75-2.21-1.75a2.52,2.52,0,0,0-2,1.3,7.6,7.6,0,0,0-1.11,4.28A8.3,8.3,0,0,0,18.14,118.1Z"/><path d="M35.15,108.32h.94l-.47.6-9.36,11.52-.11.12h-.93l.46-.59,9.37-11.52Zm-5.7.2A2.45,2.45,0,0,1,31,111.13a3.7,3.7,0,0,1-.4,1.84,2.33,2.33,0,0,1-2.21,1.24,2.91,2.91,0,0,1-1.23-.25,2.76,2.76,0,0,1-1.53-2.81,3,3,0,0,1,.44-1.66,2.47,2.47,0,0,1,2.32-1.17A3.83,3.83,0,0,1,29.45,108.52Zm-1.95.67a1.87,1.87,0,0,0-1.17,2,2.85,2.85,0,0,0,.24,1.22,1.81,1.81,0,0,0,1.8,1.12,2,2,0,0,0,.79-.16,2.13,2.13,0,0,0,1.1-2.2,2.3,2.3,0,0,0-.17-1,1.69,1.69,0,0,0-1.72-1.1A2.57,2.57,0,0,0,27.5,109.19Zm3.21,6.69a2.31,2.31,0,0,1,2.21-1.26,3.53,3.53,0,0,1,1.1.22,2.78,2.78,0,0,1,1.56,2.88,3.43,3.43,0,0,1-.3,1.48,2.38,2.38,0,0,1-2.34,1.36,3.89,3.89,0,0,1-.85-.09c-1.16-.3-1.76-1.19-1.8-2.68A4,4,0,0,1,30.71,115.88Zm.43,2.69a1.66,1.66,0,0,0,1.8,1.27,2.1,2.1,0,0,0,.7-.12,1.85,1.85,0,0,0,1.22-2,3.15,3.15,0,0,0-.19-1.15,1.78,1.78,0,0,0-1.75-1.23,1.91,1.91,0,0,0-.86.2A2.31,2.31,0,0,0,31,117.79,3.18,3.18,0,0,0,31.14,118.57Z"/></g></g></svg>