<svg xmlns="http://www.w3.org/2000/svg" viewBox="0 0 43.23 43.02"><g id="레이어_2" data-name="레이어 2"><g id="Layer_1" data-name="Layer 1"><path d="M31.35,43a3,3,0,0,1-2.25-1L12.88,27.22l-6,4.53a8.14,8.14,0,0,1-1.77,1.1,1.94,1.94,0,0,1-1.58-.15A15.77,15.77,0,0,1,.51,30a2.49,2.49,0,0,1-.45-2c.17-.66.68-1.12,1.6-2l5-4.49L1.66,17c-.92-.84-1.43-1.3-1.6-2a2.48,2.48,0,0,1,.43-2,15.6,15.6,0,0,1,3.07-2.75,1.94,1.94,0,0,1,1.58-.15,8.53,8.53,0,0,1,1.79,1.11l5.93,4.5L29.16,1h0A3,3,0,0,1,31.93.05h0c.43.11,2,.78,9.84,4.58A2.56,2.56,0,0,1,43,6.06a11.11,11.11,0,0,1,.27,2.88V34.09A11,11,0,0,1,43,37a2.52,2.52,0,0,1-1.2,1.43C34,42.17,32.36,42.85,31.93,43h0A2.93,2.93,0,0,1,31.35,43ZM12.94,25.92,29.83,41.3a2,2,0,0,0,1.92.68h0c.65-.21,6.16-2.85,9.54-4.49a1.65,1.65,0,0,0,.69-.86,10.13,10.13,0,0,0,.21-2.51V8.92A10.13,10.13,0,0,0,42,6.4a1.6,1.6,0,0,0-.7-.86C38,3.89,32.44,1.25,31.78,1h0a2,2,0,0,0-1.86.62l-17,15.45-6.61-5a8.25,8.25,0,0,0-1.55-1c-.22-.1-.46,0-.78.13a14.43,14.43,0,0,0-2.72,2.48h0A1.46,1.46,0,0,0,1,14.83c.1.36.55.77,1.3,1.46l5.76,5.24L2.33,26.76c-.75.69-1.2,1.1-1.3,1.46a1.43,1.43,0,0,0,.25,1.11A14.28,14.28,0,0,0,4,31.79a1,1,0,0,0,.78.13,7.79,7.79,0,0,0,1.53-1Zm19.72,6.16L18.71,21.51,32.66,10.93ZM20.36,21.51l11.3,8.56V13Z"/></g></g></svg>