<svg xmlns="http://www.w3.org/2000/svg" viewBox="0 0 45.8 31.17"><g id="레이어_2" data-name="레이어 2"><g id="Layer_1" data-name="Layer 1"><g id="Outlined_Mnemonics_Logos" data-name="Outlined Mnemonics Logos"><g id="Xd"><path d="M24.56,2.78,16.5,16.08l8.62,14.13a.48.48,0,0,1,.05.33c0,.1-.13,0-.31.07H18.71c-.43,0-.74,0-.91-.31q-.87-1.69-1.74-3.36c-.57-1.11-1.19-2.24-1.84-3.4S12.93,21.21,12.29,20h0c-.58,1.15-1.18,2.31-1.8,3.47L8.61,26.94c-.61,1.14-1.23,2.28-1.86,3.4-.12.26-.32.29-.61.29H.2c-.11,0-.18.05-.19-.07a.4.4,0,0,1,.06-.3L8.44,16.52.29,2.73c-.09-.11-.1-.21,0-.28A.36.36,0,0,1,.5,2.34H6.62A1.07,1.07,0,0,1,7,2.41a.85.85,0,0,1,.26.24C7.79,3.8,8.36,5,9,6.11s1.28,2.3,1.93,3.43,1.25,2.27,1.8,3.42h0c.58-1.18,1.16-2.34,1.76-3.47s1.19-2.26,1.82-3.4,1.22-2.27,1.8-3.4a.62.62,0,0,1,.17-.28.61.61,0,0,1,.35-.07h5.67a.25.25,0,0,1,.3.18.25.25,0,0,1-.08.26Z"/><path d="M37,31.17A13.45,13.45,0,0,1,31.21,30a9.2,9.2,0,0,1-4.05-3.66,11.74,11.74,0,0,1-1.47-6.13,11.3,11.3,0,0,1,1.47-5.68,10.86,10.86,0,0,1,4.29-4.16,13.88,13.88,0,0,1,6.81-1.56l.56,0,.82.06V.31c0-.21.09-.31.26-.31h5.47a.23.23,0,0,1,.26.2V25.88c0,.49,0,1,.06,1.6s.08,1.1.11,1.56a.45.45,0,0,1-.26.44,22.27,22.27,0,0,1-4.38,1.3A24.12,24.12,0,0,1,37,31.17Zm2.64-5.38V14a4.23,4.23,0,0,0-.71-.13,8.83,8.83,0,0,0-.89,0,6.63,6.63,0,0,0-3,.69,5.92,5.92,0,0,0-2.28,2,6,6,0,0,0-.89,3.43,7.5,7.5,0,0,0,.46,2.77,5.18,5.18,0,0,0,1.21,1.91,4.57,4.57,0,0,0,1.82,1.08,7.07,7.07,0,0,0,2.23.35c.41,0,.78,0,1.13,0A5.14,5.14,0,0,0,39.64,25.79Z"/></g></g></g></g></svg>