<svg xmlns="http://www.w3.org/2000/svg" viewBox="0 0 21.67 321.39"><g id="레이어_2" data-name="레이어 2"><g id="Layer_1" data-name="Layer 1"><path d="M15.7,1.65V0h.94a4.61,4.61,0,0,1,2.88,1A4.1,4.1,0,0,1,21.2,4.36a4.17,4.17,0,0,1-1.12,2.89,4.56,4.56,0,0,1-3.44,1.46A6.11,6.11,0,0,1,13,7.43,18.33,18.33,0,0,1,10,4.29C9.54,3.8,9.24,3.44,9,3.22,8.11,2.17,7.32,1.65,6.67,1.65V8.71H4.8V0h.93A5.91,5.91,0,0,1,9,1.07,21.07,21.07,0,0,1,12,3.9l1.29,1.36a5.15,5.15,0,0,0,3.37,1.8,2.62,2.62,0,0,0,1.54-.5,2.53,2.53,0,0,0,1.15-2.2,2.79,2.79,0,0,0-.47-1.55,2.55,2.55,0,0,0-2.22-1.16Z"/><path d="M19.14,13.19C20.51,14,21.2,15,21.2,16.1a3.44,3.44,0,0,1-1.73,2.66A11.33,11.33,0,0,1,13,20.41,11.81,11.81,0,0,1,6.83,19c-1.35-.83-2-1.78-2-2.85a3.43,3.43,0,0,1,1.73-2.7A11.06,11.06,0,0,1,13,11.7,11.52,11.52,0,0,1,19.14,13.19ZM9,14c-1.57.54-2.36,1.26-2.36,2.15,0,.65.45,1.2,1.36,1.67a10.84,10.84,0,0,0,5,1,12.45,12.45,0,0,0,4-.6c1.55-.52,2.32-1.21,2.32-2.06,0-.66-.47-1.24-1.36-1.73a10.53,10.53,0,0,0-5-1A12.41,12.41,0,0,0,9,14Z"/><path d="M15.7,25.06V23.41h.94a4.61,4.61,0,0,1,2.88,1,4.07,4.07,0,0,1,1.68,3.38,4.15,4.15,0,0,1-1.12,2.89,4.53,4.53,0,0,1-3.44,1.47A6.11,6.11,0,0,1,13,30.84,18.72,18.72,0,0,1,10,27.7c-.41-.5-.71-.85-.92-1.07-.92-1.05-1.71-1.57-2.36-1.57v7.06H4.8V23.41h.93A5.83,5.83,0,0,1,9,24.48a20.49,20.49,0,0,1,3,2.83l1.29,1.36a5.15,5.15,0,0,0,3.37,1.8,2.62,2.62,0,0,0,1.54-.5,2.55,2.55,0,0,0,1.15-2.21,2.84,2.84,0,0,0-.47-1.55,2.54,2.54,0,0,0-2.22-1.15Z"/><path d="M19.14,36.6c1.37.84,2.06,1.81,2.06,2.91a3.44,3.44,0,0,1-1.73,2.66A11.33,11.33,0,0,1,13,43.82a11.81,11.81,0,0,1-6.18-1.47c-1.35-.82-2-1.77-2-2.84A3.45,3.45,0,0,1,6.53,36.8,11.06,11.06,0,0,1,13,35.11,11.52,11.52,0,0,1,19.14,36.6ZM9,37.36c-1.57.54-2.36,1.25-2.36,2.15,0,.64.45,1.2,1.36,1.67a10.84,10.84,0,0,0,5,1,12.45,12.45,0,0,0,4-.6c1.55-.52,2.32-1.21,2.32-2.06,0-.66-.47-1.24-1.36-1.74a10.66,10.66,0,0,0-5-1A12.41,12.41,0,0,0,9,37.36Z"/><path d="M9,58.25V56.6l1,0a3.67,3.67,0,0,1,1.27.27,2.56,2.56,0,0,1,1.73,2.53,2,2,0,0,1,0,.33,4.73,4.73,0,0,1-1.28,2.32q-.78.9-.78,1.26a1.16,1.16,0,0,0,.12.51,1.07,1.07,0,0,0,1.05.62h.94v1.65H12a3.5,3.5,0,0,1-1.45-.31A2.54,2.54,0,0,1,9,63.33,1.71,1.71,0,0,1,9,63a4.65,4.65,0,0,1,1.24-2.21A2.91,2.91,0,0,0,11,59.42a1.1,1.1,0,0,0-.14-.55,1.15,1.15,0,0,0-1-.6Z"/><path d="M15.7,80.56V78.91h.94a4.61,4.61,0,0,1,2.88,1,4.09,4.09,0,0,1,1.68,3.38,4.13,4.13,0,0,1-1.12,2.89,4.53,4.53,0,0,1-3.44,1.47A6.11,6.11,0,0,1,13,86.34,18.33,18.33,0,0,1,10,83.2c-.41-.49-.71-.85-.92-1.07-.92-1-1.71-1.57-2.36-1.57v7.06H4.8V78.91h.93A5.91,5.91,0,0,1,9,80a20.49,20.49,0,0,1,3,2.83l1.29,1.36A5.15,5.15,0,0,0,16.64,86a2.62,2.62,0,0,0,1.54-.5,2.54,2.54,0,0,0,1.15-2.21,2.79,2.79,0,0,0-.47-1.54,2.55,2.55,0,0,0-2.22-1.16Z"/><path d="M19.14,92.1c1.37.84,2.06,1.81,2.06,2.91a3.44,3.44,0,0,1-1.73,2.66A11.33,11.33,0,0,1,13,99.32a11.9,11.9,0,0,1-6.18-1.46c-1.35-.83-2-1.78-2-2.85a3.43,3.43,0,0,1,1.73-2.7A11.06,11.06,0,0,1,13,90.61,11.52,11.52,0,0,1,19.14,92.1ZM9,92.86C7.46,93.4,6.67,94.11,6.67,95c0,.65.45,1.2,1.36,1.67a10.84,10.84,0,0,0,5,1,12.45,12.45,0,0,0,4-.6c1.55-.52,2.32-1.21,2.32-2.06,0-.66-.47-1.24-1.36-1.73a10.53,10.53,0,0,0-5-1A12.41,12.41,0,0,0,9,92.86Z"/><path d="M15.7,104v-1.65h.94a4.61,4.61,0,0,1,2.88,1,4.07,4.07,0,0,1,1.68,3.38,4.15,4.15,0,0,1-1.12,2.89A4.53,4.53,0,0,1,16.64,111,6.11,6.11,0,0,1,13,109.75,18.72,18.72,0,0,1,10,106.61c-.41-.5-.71-.85-.92-1.07C8.11,104.49,7.32,104,6.67,104V111H4.8v-8.71h.93A5.83,5.83,0,0,1,9,103.39a20.49,20.49,0,0,1,3,2.83l1.29,1.36a5.15,5.15,0,0,0,3.37,1.8,2.62,2.62,0,0,0,1.54-.5,2.55,2.55,0,0,0,1.15-2.21,2.82,2.82,0,0,0-.47-1.55A2.54,2.54,0,0,0,16.64,104Z"/><path d="M12.07,115v-1.78l1.29.46,7.23,2.56.59.2v1.39H4.8v-1.65H15.4l-2.74-1Z"/><path d="M5.76,137.05H4.82V135.4h7.65l6.81-3.84,1.45-.8v2l-.42.25-5.78,3.26,5.76,3.18.44.25v1.93l-1.43-.78-6.78-3.76Z"/><path d="M14.25,145.14a4,4,0,0,1,1.8,3.33,4,4,0,0,1-1.35,2.95A5.92,5.92,0,0,1,10.44,153a6.18,6.18,0,0,1-3.82-1.22,4,4,0,0,1-1.8-3.32,3.92,3.92,0,0,1,1.36-2.95,5.92,5.92,0,0,1,4.26-1.59A6.17,6.17,0,0,1,14.25,145.14Zm-6.08,1a2.58,2.58,0,0,0-1.48,2.29,2.4,2.4,0,0,0,.75,1.73,4,4,0,0,0,3,1.16,4.45,4.45,0,0,0,2.27-.6,2.59,2.59,0,0,0,1.47-2.29,2.42,2.42,0,0,0-.75-1.74,4,4,0,0,0-3-1.15A4.4,4.4,0,0,0,8.17,146.18Z"/><path d="M16,156.44v1.67l-.94,0-6,0a2.41,2.41,0,0,0-1.33.39,2.29,2.29,0,0,0-.68,3.24,2.3,2.3,0,0,0,2,1.05h6l.91,0v1.67l-.94,0-6,0a4.41,4.41,0,0,1-2.67-.86,3.82,3.82,0,0,1-.6-5.7,4.2,4.2,0,0,1,3.27-1.42h6Z"/><path d="M8.12,170.43c-.92,0-1.4.52-1.43,1.51v.82H4.82v-.82a4.36,4.36,0,0,1,.14-1.1c.36-1.37,1.4-2.06,3.14-2.06h6.08V167.4h1.87v1.38h2.46l.91,0v1.67l-.93,0H16.05v2.31H14.18v-2.31Z"/><path d="M16,175.78v1.67l-.94,0-6,0a2.41,2.41,0,0,0-1.33.39A2.29,2.29,0,0,0,7.09,181a2.3,2.3,0,0,0,2,1.05h6l.91,0v1.67l-.94,0-6,0a4.41,4.41,0,0,1-2.67-.86,3.82,3.82,0,0,1-.6-5.7,4.21,4.21,0,0,1,3.27-1.43h6Z"/><path d="M20.73,188h.94v1.66h-6.9a4,4,0,0,1,1.28,2.89,4,4,0,0,1-1.35,2.95,5.92,5.92,0,0,1-4.26,1.59,6.18,6.18,0,0,1-3.82-1.22,4,4,0,0,1-1.8-3.32,4,4,0,0,1,1.29-2.89H4.82V188H20.73ZM8.17,190.2a2.61,2.61,0,0,0-1.48,2.32,2.42,2.42,0,0,0,.75,1.73,4,4,0,0,0,3,1.16,4.45,4.45,0,0,0,2.27-.6,2.6,2.6,0,0,0,1.47-2.29,2.45,2.45,0,0,0-.75-1.74,4.05,4.05,0,0,0-3-1.15A4.47,4.47,0,0,0,8.17,190.2Z"/><path d="M7,208.43a4.39,4.39,0,0,1-2.2-3.84,4,4,0,0,1,1.36-3,6,6,0,0,1,4.26-1.57,6.24,6.24,0,0,1,3.79,1.18,4.06,4.06,0,0,1,1.82,3.36,3.94,3.94,0,0,1-1.35,2.95,5.92,5.92,0,0,1-4.26,1.59H9.5v-7.35a4.33,4.33,0,0,0-1.31.5,2.61,2.61,0,0,0-1.5,2.31,3,3,0,0,0,1.45,2.52Zm4.35-1a2.66,2.66,0,0,0,1.48-.56,2.81,2.81,0,0,0,1.33-2.33,2.36,2.36,0,0,0-.35-1.22,3.49,3.49,0,0,0-2.46-1.59Z"/><path d="M16.29,230.22a2.35,2.35,0,0,0,1.47-.51,3,3,0,0,0,1.1-2.42,3.22,3.22,0,0,0-.47-1.67,2.33,2.33,0,0,0-2.1-1.26,1.37,1.37,0,0,0-.5.11,4.52,4.52,0,0,0-1.63,2.33c-.74,1.64-1.19,2.62-1.36,2.95q-1.43,2.5-3.53,2.5a4.3,4.3,0,0,1-2.77-1.12,4.92,4.92,0,0,1-1.68-3.84,5.09,5.09,0,0,1,1.29-3.48,4.13,4.13,0,0,1,3.16-1.47V224a2.28,2.28,0,0,0-1.5.62,3.51,3.51,0,0,0-1.08,2.68,3.81,3.81,0,0,0,.52,2,2.31,2.31,0,0,0,2.06,1.35,1.07,1.07,0,0,0,.51-.13c.53-.23,1.09-1,1.69-2.35.71-1.62,1.16-2.59,1.33-2.91.94-1.67,2.1-2.5,3.49-2.5a4.33,4.33,0,0,1,2.76,1,4.4,4.4,0,0,1,1.68,3.59,4.52,4.52,0,0,1-1.17,3.1,4.23,4.23,0,0,1-3.27,1.49Z"/><path d="M8.12,237.86c-.92,0-1.4.52-1.43,1.51v.82H4.82v-.82a4.36,4.36,0,0,1,.14-1.1c.36-1.37,1.4-2.06,3.14-2.06h6.08v-1.38h1.87v1.38h2.46l.91,0v1.67l-.93,0H16.05v2.31H14.18v-2.31Z"/><path d="M16,243.21v1.67l-.94,0-6,0a2.41,2.41,0,0,0-1.33.39,2.25,2.25,0,0,0-1.08,2,2.23,2.23,0,0,0,.4,1.28,2.3,2.3,0,0,0,2,1.05h6l.91,0v1.68l-.94,0-6,0a4.36,4.36,0,0,1-2.67-.87,3.69,3.69,0,0,1-1.61-3.12,3.73,3.73,0,0,1,1-2.58,4.2,4.2,0,0,1,3.27-1.42h6Z"/><path d="M14.25,255.8a3.94,3.94,0,0,1,.52,6.21h6.9v1.65H4.82V262H6.11a4,4,0,0,1-1.29-2.89,3.93,3.93,0,0,1,1.36-2.95,5.92,5.92,0,0,1,4.26-1.59A6.18,6.18,0,0,1,14.25,255.8Zm-6.08,1a2.59,2.59,0,0,0-1.48,2.29,2.42,2.42,0,0,0,.75,1.74,4,4,0,0,0,3,1.15,4.45,4.45,0,0,0,2.27-.6,2.59,2.59,0,0,0,1.47-2.29,2.4,2.4,0,0,0-.75-1.73,4,4,0,0,0-3-1.16A4.4,4.4,0,0,0,8.17,256.83Z"/><path d="M16.05,273.51v1.77l-1.26-.43-9.34-3.06a14.25,14.25,0,0,1-4.4-1.73,2.55,2.55,0,0,1-1-2.17v-.82H1.87v.82A1.28,1.28,0,0,0,2.43,269a11.72,11.72,0,0,0,3.3,1.19l9.06-3,1.26-.43v1.77l-.61.19-7,2.35,7,2.31Z"/><path d="M20.73,289.36V291h-14v6.61H4.82v-8.26H20.73Z"/><path d="M14.25,301.41a4,4,0,0,1,1.8,3.33,4,4,0,0,1-1.35,2.95,5.92,5.92,0,0,1-4.26,1.59,6.18,6.18,0,0,1-3.82-1.22,4,4,0,0,1-1.8-3.32,3.92,3.92,0,0,1,1.36-2.95,5.92,5.92,0,0,1,4.26-1.59A6.17,6.17,0,0,1,14.25,301.41Zm-6.08,1a2.58,2.58,0,0,0-1.48,2.29,2.42,2.42,0,0,0,.75,1.73,4,4,0,0,0,3,1.16,4.45,4.45,0,0,0,2.27-.6,2.59,2.59,0,0,0,1.47-2.29,2.42,2.42,0,0,0-.75-1.74,4,4,0,0,0-3-1.15A4.4,4.4,0,0,0,8.17,302.45Z"/><path d="M14.25,313.49a3.94,3.94,0,0,1,.52,6.21h.35l.91,0v1.67l-.94,0-9.33,0a6.53,6.53,0,0,1-1.55-.2,7,7,0,0,1-1.54-.61,6.91,6.91,0,0,1-1.35-.94,4.22,4.22,0,0,1-1-1.26A3.32,3.32,0,0,1,0,316.83V316H1.87v.82a2.5,2.5,0,0,0,1.15,2,4.43,4.43,0,0,0,2.74.91h.35a4,4,0,0,1-1.29-2.89,3.93,3.93,0,0,1,1.36-2.95,5.92,5.92,0,0,1,4.26-1.59A6.18,6.18,0,0,1,14.25,313.49Zm-6.08,1a2.59,2.59,0,0,0-1.48,2.29,2.42,2.42,0,0,0,.75,1.74,4,4,0,0,0,3,1.15,4.45,4.45,0,0,0,2.27-.6,2.58,2.58,0,0,0,1.47-2.29,2.42,2.42,0,0,0-.75-1.73,4,4,0,0,0-3-1.16A4.4,4.4,0,0,0,8.17,314.52Z"/></g></g></svg>